{
 "cells": [
  {
   "cell_type": "code",
   "execution_count": 1,
   "id": "champion-insight",
   "metadata": {},
   "outputs": [],
   "source": [
    "import mido\n",
    "import time\n",
    "import midi_utils as mu\n",
    "import numpy as np\n",
    "outport = None\n",
    "inport = None"
   ]
  },
  {
   "cell_type": "code",
   "execution_count": 2,
   "id": "opposite-longitude",
   "metadata": {},
   "outputs": [
    {
     "name": "stdout",
     "output_type": "stream",
     "text": [
      "Outputs: ['Microsoft GS Wavetable Synth 0']\n",
      "Inputs: []\n",
      "<open output 'Microsoft GS Wavetable Synth 0' (RtMidi/WINDOWS_MM)>\n",
      "None\n"
     ]
    }
   ],
   "source": [
    "outports = mido.get_output_names()\n",
    "inports = mido.get_input_names()\n",
    "print(\"Outputs:\", outports) \n",
    "print(\"Inputs:\", inports) \n",
    "\n",
    "if outport is not None:\n",
    "    outport.close()\n",
    "if inport is not None:\n",
    "    inport.close()\n",
    "# outport = mido.open_output('IAC Driver pioneer')\n",
    "# outport = mido.open_output('Microsoft GS Wavetable Synth 0')\n",
    "outport = mido.open_output(outports[0])\n",
    "# inport = mido.open_input(inports[0])\n",
    "print(outport)\n",
    "print(inport)"
   ]
  },
  {
   "cell_type": "code",
   "execution_count": 3,
   "id": "senior-parts",
   "metadata": {},
   "outputs": [],
   "source": [
    "middleC = mu.name_to_midi_id(\"C4\")\n",
    "msg = mido.Message('note_on', note=middleC, velocity=64)\n",
    "outport.send(msg)\n",
    "time.sleep(1)\n",
    "msg = mido.Message('note_off', note=middleC, velocity=64)\n",
    "outport.send(msg)"
   ]
  },
  {
   "cell_type": "code",
   "execution_count": 4,
   "id": "9353696b",
   "metadata": {},
   "outputs": [
    {
     "name": "stdout",
     "output_type": "stream",
     "text": [
      "0013GIVE\n"
     ]
    }
   ],
   "source": [
    "filename = \"MIDI_Files/Never-Gonna-Give-You-Up-3.mid\"\n",
    "midi = mido.MidiFile(filename=filename)\n",
    "for track in midi.tracks:\n",
    "    print(track.name)"
   ]
  },
  {
   "cell_type": "code",
   "execution_count": 5,
   "id": "4592b7f4",
   "metadata": {},
   "outputs": [
    {
     "name": "stdout",
     "output_type": "stream",
     "text": [
      "sysex data=(126,127,9,1) time=0.007812499999999999\n",
      "sysex data=(65,16,66,18,64,0,127,0,65) time=0.0109375\n",
      "sysex data=(65,16,66,18,64,1,16,2,0,1,3,2,2,2,2,2,2,1,1,1,1,1,1,23) time=0.01875\n",
      "sysex data=(65,16,66,18,64,1,51,90,50) time=0.01875\n",
      "sysex data=(65,16,66,18,64,1,58,90,43) time=0.031249999999999997\n",
      "control_change channel=1 control=121 value=0 time=0.165625\n",
      "control_change channel=2 control=121 value=0 time=0.0031249999999999997\n",
      "control_change channel=3 control=121 value=0 time=0.0031249999999999997\n",
      "control_change channel=4 control=121 value=0 time=0.0031249999999999997\n",
      "control_change channel=5 control=121 value=0 time=0.0031249999999999997\n",
      "control_change channel=6 control=121 value=0 time=0.0031249999999999997\n",
      "control_change channel=7 control=121 value=0 time=0.0031249999999999997\n",
      "control_change channel=8 control=121 value=0 time=0.0031249999999999997\n",
      "control_change channel=9 control=121 value=0 time=0.0031249999999999997\n",
      "control_change channel=10 control=121 value=0 time=0.0031249999999999997\n",
      "control_change channel=13 control=121 value=0 time=0.009375\n",
      "control_change channel=14 control=121 value=0 time=0.0031249999999999997\n",
      "control_change channel=15 control=121 value=0 time=0.0031249999999999997\n",
      "control_change channel=0 control=0 value=0 time=0.0031249999999999997\n",
      "control_change channel=0 control=32 value=0 time=0.0031249999999999997\n",
      "program_change channel=0 program=0 time=0.0031249999999999997\n",
      "control_change channel=1 control=0 value=0 time=0.009375\n",
      "control_change channel=1 control=32 value=0 time=0.0031249999999999997\n",
      "program_change channel=1 program=118 time=0.0031249999999999997\n",
      "control_change channel=1 control=7 value=100 time=0.0031249999999999997\n",
      "control_change channel=1 control=10 value=64 time=0\n",
      "control_change channel=1 control=11 value=127 time=0\n",
      "control_change channel=1 control=91 value=60 time=0.0031249999999999997\n",
      "control_change channel=1 control=93 value=0 time=0\n",
      "control_change channel=2 control=0 value=0 time=0.0031249999999999997\n",
      "control_change channel=2 control=32 value=0 time=0.0031249999999999997\n",
      "program_change channel=2 program=39 time=0.0031249999999999997\n",
      "control_change channel=2 control=7 value=100 time=0.0031249999999999997\n",
      "control_change channel=2 control=10 value=64 time=0\n",
      "control_change channel=2 control=11 value=127 time=0\n",
      "control_change channel=2 control=91 value=20 time=0.0031249999999999997\n",
      "control_change channel=2 control=93 value=35 time=0\n",
      "control_change channel=3 control=0 value=0 time=0.0031249999999999997\n",
      "control_change channel=3 control=32 value=0 time=0.0031249999999999997\n",
      "program_change channel=3 program=0 time=0.0031249999999999997\n",
      "control_change channel=3 control=7 value=100 time=0.0031249999999999997\n",
      "control_change channel=3 control=10 value=64 time=0\n",
      "control_change channel=3 control=11 value=127 time=0\n",
      "control_change channel=3 control=91 value=60 time=0.0031249999999999997\n",
      "control_change channel=3 control=93 value=0 time=0\n",
      "control_change channel=4 control=0 value=0 time=0.0031249999999999997\n",
      "control_change channel=4 control=32 value=0 time=0.0031249999999999997\n",
      "program_change channel=4 program=90 time=0.0031249999999999997\n",
      "control_change channel=4 control=7 value=100 time=0.0031249999999999997\n",
      "control_change channel=4 control=10 value=64 time=0\n",
      "control_change channel=4 control=11 value=127 time=0\n",
      "control_change channel=4 control=91 value=127 time=0.0031249999999999997\n",
      "control_change channel=4 control=93 value=0 time=0\n",
      "control_change channel=5 control=0 value=0 time=0.0031249999999999997\n",
      "control_change channel=5 control=32 value=0 time=0.0031249999999999997\n",
      "program_change channel=5 program=28 time=0.0031249999999999997\n",
      "control_change channel=5 control=7 value=100 time=0.0031249999999999997\n",
      "control_change channel=5 control=10 value=34 time=0\n",
      "control_change channel=5 control=11 value=127 time=0\n",
      "control_change channel=5 control=91 value=50 time=0.0031249999999999997\n",
      "control_change channel=5 control=93 value=60 time=0\n",
      "control_change channel=6 control=0 value=0 time=0.0031249999999999997\n",
      "control_change channel=6 control=32 value=0 time=0.0031249999999999997\n",
      "program_change channel=6 program=27 time=0.0031249999999999997\n",
      "control_change channel=6 control=7 value=100 time=0.0031249999999999997\n",
      "control_change channel=6 control=10 value=94 time=0\n",
      "control_change channel=6 control=11 value=127 time=0\n",
      "control_change channel=6 control=91 value=90 time=0.0031249999999999997\n",
      "control_change channel=6 control=93 value=80 time=0\n",
      "control_change channel=7 control=0 value=0 time=0.0031249999999999997\n",
      "control_change channel=7 control=32 value=0 time=0.0031249999999999997\n",
      "program_change channel=7 program=61 time=0.0031249999999999997\n",
      "control_change channel=7 control=7 value=100 time=0.0031249999999999997\n",
      "control_change channel=7 control=10 value=64 time=0\n",
      "control_change channel=7 control=11 value=127 time=0\n",
      "control_change channel=7 control=91 value=100 time=0.0031249999999999997\n",
      "control_change channel=7 control=93 value=60 time=0\n",
      "control_change channel=8 control=0 value=0 time=0.0031249999999999997\n",
      "control_change channel=8 control=32 value=0 time=0.0031249999999999997\n",
      "program_change channel=8 program=48 time=0.0031249999999999997\n",
      "control_change channel=8 control=7 value=100 time=0.0031249999999999997\n",
      "control_change channel=8 control=10 value=64 time=0\n",
      "control_change channel=8 control=11 value=127 time=0\n",
      "control_change channel=8 control=91 value=100 time=0.0031249999999999997\n",
      "control_change channel=8 control=93 value=0 time=0\n",
      "control_change channel=9 control=0 value=0 time=0.0031249999999999997\n",
      "control_change channel=9 control=32 value=0 time=0.0031249999999999997\n",
      "program_change channel=9 program=0 time=0.0031249999999999997\n",
      "control_change channel=9 control=7 value=100 time=0.0031249999999999997\n",
      "control_change channel=9 control=10 value=64 time=0\n",
      "control_change channel=9 control=11 value=127 time=0\n",
      "control_change channel=9 control=91 value=40 time=0.0031249999999999997\n",
      "control_change channel=9 control=93 value=0 time=0\n",
      "control_change channel=10 control=0 value=0 time=0.0031249999999999997\n",
      "control_change channel=10 control=32 value=0 time=0.0031249999999999997\n",
      "program_change channel=10 program=82 time=0.0031249999999999997\n",
      "control_change channel=10 control=7 value=100 time=0.0031249999999999997\n",
      "control_change channel=10 control=10 value=64 time=0\n",
      "control_change channel=10 control=11 value=127 time=0\n",
      "control_change channel=10 control=91 value=100 time=0.0031249999999999997\n",
      "control_change channel=10 control=93 value=85 time=0\n",
      "control_change channel=11 control=0 value=0 time=0.0031249999999999997\n",
      "control_change channel=11 control=32 value=0 time=0.0031249999999999997\n",
      "program_change channel=11 program=0 time=0.0031249999999999997\n",
      "control_change channel=12 control=0 value=0 time=0.009375\n",
      "control_change channel=12 control=32 value=0 time=0.0031249999999999997\n",
      "program_change channel=12 program=0 time=0.0031249999999999997\n",
      "control_change channel=13 control=0 value=0 time=0.009375\n",
      "control_change channel=13 control=32 value=0 time=0.0031249999999999997\n",
      "program_change channel=13 program=53 time=0.0031249999999999997\n",
      "control_change channel=13 control=7 value=100 time=0.0031249999999999997\n",
      "control_change channel=13 control=10 value=84 time=0\n",
      "control_change channel=13 control=11 value=127 time=0\n",
      "control_change channel=13 control=91 value=60 time=0.0031249999999999997\n",
      "control_change channel=13 control=93 value=90 time=0\n",
      "control_change channel=14 control=0 value=0 time=0.0031249999999999997\n",
      "control_change channel=14 control=32 value=0 time=0.0031249999999999997\n",
      "program_change channel=14 program=53 time=0.0031249999999999997\n",
      "control_change channel=14 control=7 value=100 time=0.0031249999999999997\n",
      "control_change channel=14 control=10 value=44 time=0\n",
      "control_change channel=14 control=11 value=127 time=0\n",
      "control_change channel=14 control=91 value=60 time=0.0031249999999999997\n",
      "control_change channel=14 control=93 value=80 time=0\n",
      "control_change channel=15 control=0 value=0 time=0.0031249999999999997\n",
      "control_change channel=15 control=32 value=0 time=0.0031249999999999997\n",
      "program_change channel=15 program=65 time=0.0031249999999999997\n",
      "control_change channel=15 control=7 value=100 time=0.0031249999999999997\n",
      "control_change channel=15 control=10 value=64 time=0\n",
      "control_change channel=15 control=11 value=127 time=0\n",
      "control_change channel=15 control=91 value=127 time=0.0031249999999999997\n",
      "control_change channel=15 control=93 value=20 time=0\n",
      "control_change channel=1 control=101 value=0 time=0.06874999999999999\n",
      "control_change channel=1 control=100 value=0 time=0.0031249999999999997\n",
      "control_change channel=1 control=6 value=12 time=0.0031249999999999997\n",
      "control_change channel=1 control=101 value=127 time=0.0031249999999999997\n",
      "control_change channel=1 control=100 value=127 time=0.0031249999999999997\n",
      "control_change channel=2 control=101 value=0 time=0.0031249999999999997\n",
      "control_change channel=2 control=100 value=0 time=0.0031249999999999997\n",
      "control_change channel=2 control=6 value=12 time=0.0031249999999999997\n",
      "control_change channel=2 control=101 value=127 time=0.0031249999999999997\n",
      "control_change channel=2 control=100 value=127 time=0.0031249999999999997\n",
      "control_change channel=3 control=101 value=0 time=0.0031249999999999997\n",
      "control_change channel=3 control=100 value=0 time=0.0031249999999999997\n",
      "control_change channel=3 control=6 value=12 time=0.0031249999999999997\n",
      "control_change channel=3 control=101 value=127 time=0.0031249999999999997\n",
      "control_change channel=3 control=100 value=127 time=0.0031249999999999997\n",
      "control_change channel=4 control=101 value=0 time=0.0031249999999999997\n",
      "control_change channel=4 control=100 value=0 time=0.0031249999999999997\n",
      "control_change channel=4 control=6 value=12 time=0.0031249999999999997\n",
      "control_change channel=4 control=101 value=127 time=0.0031249999999999997\n",
      "control_change channel=4 control=100 value=127 time=0.0031249999999999997\n",
      "control_change channel=5 control=101 value=0 time=0.0031249999999999997\n",
      "control_change channel=5 control=100 value=0 time=0.0031249999999999997\n",
      "control_change channel=5 control=6 value=12 time=0.0031249999999999997\n",
      "control_change channel=5 control=101 value=127 time=0.0031249999999999997\n",
      "control_change channel=5 control=100 value=127 time=0.0031249999999999997\n",
      "control_change channel=6 control=101 value=0 time=0.0031249999999999997\n",
      "control_change channel=6 control=100 value=0 time=0.0031249999999999997\n",
      "control_change channel=6 control=6 value=12 time=0.0031249999999999997\n",
      "control_change channel=6 control=101 value=127 time=0.0031249999999999997\n",
      "control_change channel=6 control=100 value=127 time=0.0031249999999999997\n",
      "control_change channel=7 control=101 value=0 time=0.0031249999999999997\n",
      "control_change channel=7 control=100 value=0 time=0.0031249999999999997\n",
      "control_change channel=7 control=6 value=12 time=0.0031249999999999997\n",
      "control_change channel=7 control=101 value=127 time=0.0031249999999999997\n",
      "control_change channel=7 control=100 value=127 time=0.0031249999999999997\n",
      "control_change channel=8 control=101 value=0 time=0.0031249999999999997\n",
      "control_change channel=8 control=100 value=0 time=0.0031249999999999997\n",
      "control_change channel=8 control=6 value=12 time=0.0031249999999999997\n",
      "control_change channel=8 control=101 value=127 time=0.0031249999999999997\n",
      "control_change channel=8 control=100 value=127 time=0.0031249999999999997\n",
      "control_change channel=9 control=101 value=0 time=0.0031249999999999997\n",
      "control_change channel=9 control=100 value=0 time=0.0031249999999999997\n",
      "control_change channel=9 control=6 value=12 time=0.0031249999999999997\n",
      "control_change channel=9 control=101 value=127 time=0.0031249999999999997\n",
      "control_change channel=9 control=100 value=127 time=0.0031249999999999997\n",
      "control_change channel=10 control=101 value=0 time=0.0031249999999999997\n",
      "control_change channel=10 control=100 value=0 time=0.0031249999999999997\n",
      "control_change channel=10 control=6 value=12 time=0.0031249999999999997\n",
      "control_change channel=10 control=101 value=127 time=0.0031249999999999997\n",
      "control_change channel=10 control=100 value=127 time=0.0031249999999999997\n",
      "control_change channel=13 control=101 value=0 time=0.034374999999999996\n",
      "control_change channel=13 control=100 value=0 time=0.0031249999999999997\n",
      "control_change channel=13 control=6 value=12 time=0.0031249999999999997\n",
      "control_change channel=13 control=101 value=127 time=0.0031249999999999997\n",
      "control_change channel=13 control=100 value=127 time=0.0031249999999999997\n",
      "control_change channel=14 control=101 value=0 time=0.0031249999999999997\n",
      "control_change channel=14 control=100 value=0 time=0.0031249999999999997\n",
      "control_change channel=14 control=6 value=12 time=0.0031249999999999997\n",
      "control_change channel=14 control=101 value=127 time=0.0031249999999999997\n",
      "control_change channel=14 control=100 value=127 time=0.0031249999999999997\n",
      "control_change channel=15 control=101 value=0 time=0.0031249999999999997\n",
      "control_change channel=15 control=100 value=0 time=0.0031249999999999997\n",
      "control_change channel=15 control=6 value=12 time=0.0031249999999999997\n",
      "control_change channel=15 control=101 value=127 time=0.0031249999999999997\n",
      "control_change channel=15 control=100 value=127 time=0.0031249999999999997\n",
      "sysex data=(65,16,69,18,16,0,0,80,114,111,103,114,97,109,109,101,100,32,98,121,32,72,97,110,100,115,32,79,110,46,32,32,14) time=0.28515625\n",
      "sysex data=(65,16,69,18,16,1,0,3,20,20,23,30,22,23,20,3,2,2,2,2,3,0,0,16,31,25,25,25,25,25,0,27,10,10,10,10,26,0,0,28,23,22,22,23,28,0,3,24,8,8,8,8,8,0,0,0,31,0,0,31,31,31,31,0,0,0,0,0,0,0,0,71) time=1.906725\n",
      "pitchwheel channel=1 pitch=2944 time=0.6302785416666667\n",
      "pitchwheel channel=1 pitch=896 time=0.24893354166666667\n",
      "note_on channel=9 note=50 velocity=106 time=0.010592916666666667\n",
      "note_on channel=1 note=71 velocity=111 time=0\n",
      "note_off channel=9 note=50 velocity=106 time=0.005296458333333334\n",
      "note_off channel=1 note=71 velocity=111 time=0.015889375\n",
      "note_on channel=9 note=50 velocity=103 time=0.10592916666666667\n",
      "note_on channel=1 note=70 velocity=108 time=0\n",
      "note_off channel=9 note=50 velocity=103 time=0.005296458333333334\n",
      "note_off channel=1 note=70 velocity=108 time=0.015889375\n",
      "pitchwheel channel=1 pitch=0 time=0.10063270833333333\n",
      "note_on channel=9 note=50 velocity=109 time=0.13241145833333334\n",
      "note_on channel=1 note=69 velocity=110 time=0\n",
      "note_off channel=9 note=50 velocity=109 time=0.005296458333333334\n",
      "note_off channel=1 note=69 velocity=110 time=0.015889375\n",
      "note_on channel=9 note=48 velocity=103 time=0.10592916666666667\n",
      "note_on channel=1 note=68 velocity=107 time=0\n",
      "note_off channel=9 note=48 velocity=103 time=0.005296458333333334\n",
      "note_off channel=1 note=68 velocity=107 time=0.015889375\n",
      "note_on channel=9 note=47 velocity=107 time=0.10592916666666667\n",
      "note_on channel=1 note=67 velocity=106 time=0\n",
      "note_off channel=9 note=47 velocity=107 time=0.005296458333333334\n",
      "note_off channel=1 note=67 velocity=106 time=0.015889375\n",
      "pitchwheel channel=1 pitch=-1664 time=0.10063270833333333\n",
      "note_on channel=9 note=45 velocity=111 time=0.005296458333333334\n",
      "note_on channel=1 note=66 velocity=108 time=0\n",
      "note_off channel=9 note=45 velocity=111 time=0.005296458333333334\n",
      "note_off channel=1 note=66 velocity=108 time=0.015889375\n",
      "note_on channel=9 note=45 velocity=110 time=0.10592916666666667\n",
      "note_on channel=1 note=65 velocity=110 time=0\n",
      "note_off channel=9 note=45 velocity=110 time=0.005296458333333334\n",
      "note_off channel=1 note=65 velocity=110 time=0.015889375\n",
      "pitchwheel channel=1 pitch=-2816 time=0.10063270833333333\n",
      "note_on channel=9 note=43 velocity=111 time=0.005296458333333334\n",
      "note_on channel=1 note=64 velocity=106 time=0\n",
      "note_off channel=9 note=43 velocity=111 time=0.005296458333333334\n",
      "note_off channel=1 note=64 velocity=106 time=0.015889375\n",
      "note_on channel=9 note=41 velocity=101 time=0.10592916666666667\n",
      "note_on channel=1 note=63 velocity=108 time=0\n",
      "sysex data=(65,16,69,18,16,1,0,28,11,11,8,1,9,8,11,31,28,29,29,29,29,28,31,16,32,6,6,6,6,6,22,31,4,21,21,21,21,5,31,3,8,9,9,8,11,3,28,31,7,23,23,23,23,23,31,31,0,31,31,0,0,0,0,31,31,31,31,31,31,31,31,83) time=0\n",
      "note_off channel=9 note=41 velocity=101 time=0.005296458333333334\n",
      "note_off channel=1 note=63 velocity=108 time=0.015889375\n",
      "note_on channel=9 note=42 velocity=82 time=0.10592916666666667\n",
      "note_on channel=9 note=36 velocity=105 time=0\n",
      "note_on channel=2 note=27 velocity=106 time=0\n",
      "note_on channel=3 note=61 velocity=87 time=0\n",
      "note_on channel=3 note=58 velocity=92 time=0\n",
      "note_on channel=3 note=65 velocity=92 time=0\n",
      "note_on channel=8 note=73 velocity=96 time=0\n",
      "note_off channel=9 note=36 velocity=105 time=0.005296458333333334\n",
      "note_off channel=9 note=42 velocity=82 time=0\n",
      "note_off channel=2 note=27 velocity=106 time=0.11122562500000001\n",
      "note_on channel=9 note=46 velocity=90 time=0.13770791666666668\n",
      "note_on channel=2 note=27 velocity=106 time=0\n",
      "note_off channel=9 note=46 velocity=90 time=0.005296458333333334\n",
      "note_off channel=2 note=27 velocity=106 time=0.11122562500000001\n",
      "note_on channel=2 note=27 velocity=107 time=0.010592916666666667\n",
      "note_off channel=2 note=27 velocity=107 time=0.11652208333333333\n",
      "note_on channel=9 note=42 velocity=81 time=0.010592916666666667\n",
      "note_on channel=9 note=38 velocity=101 time=0\n",
      "note_on channel=9 note=39 velocity=86 time=0\n",
      "note_off channel=9 note=39 velocity=86 time=0.005296458333333334\n",
      "note_off channel=9 note=38 velocity=101 time=0\n",
      "note_off channel=9 note=42 velocity=81 time=0\n",
      "note_off channel=3 note=65 velocity=92 time=0.12181854166666667\n",
      "note_off channel=3 note=58 velocity=92 time=0\n",
      "note_off channel=3 note=61 velocity=87 time=0\n",
      "note_on channel=2 note=36 velocity=106 time=0\n",
      "note_off channel=8 note=73 velocity=96 time=0.0635575\n",
      "note_off channel=2 note=36 velocity=106 time=0.052964583333333336\n",
      "note_on channel=9 note=42 velocity=85 time=0.010592916666666667\n",
      "note_on channel=2 note=34 velocity=109 time=0\n",
      "note_on channel=3 note=56 velocity=91 time=0\n",
      "note_on channel=3 note=63 velocity=93 time=0\n",
      "note_on channel=3 note=60 velocity=87 time=0\n",
      "note_on channel=8 note=75 velocity=98 time=0\n",
      "note_off channel=9 note=42 velocity=85 time=0.005296458333333334\n",
      "note_off channel=2 note=34 velocity=109 time=0.11122562500000001\n",
      "note_on channel=9 note=42 velocity=83 time=0.010592916666666667\n",
      "note_off channel=9 note=42 velocity=83 time=0.005296458333333334\n",
      "note_on channel=9 note=42 velocity=84 time=0.12181854166666667\n",
      "note_on channel=9 note=36 velocity=104 time=0\n",
      "note_on channel=2 note=32 velocity=109 time=0\n",
      "note_off channel=9 note=36 velocity=104 time=0.005296458333333334\n",
      "note_off channel=9 note=42 velocity=84 time=0\n",
      "note_off channel=2 note=32 velocity=109 time=0.11122562500000001\n",
      "note_on channel=9 note=46 velocity=91 time=0.13770791666666668\n",
      "note_on channel=2 note=32 velocity=110 time=0\n",
      "note_off channel=9 note=46 velocity=91 time=0.005296458333333334\n",
      "note_off channel=2 note=32 velocity=110 time=0.11122562500000001\n",
      "note_off channel=8 note=75 velocity=98 time=0.07415041666666666\n",
      "note_on channel=9 note=42 velocity=80 time=0.0635575\n",
      "note_on channel=9 note=38 velocity=108 time=0\n",
      "note_on channel=9 note=39 velocity=82 time=0\n",
      "note_on channel=8 note=68 velocity=99 time=0\n",
      "note_off channel=9 note=39 velocity=82 time=0.005296458333333334\n",
      "note_off channel=9 note=38 velocity=108 time=0\n",
      "note_off channel=9 note=42 velocity=80 time=0\n",
      "note_on channel=9 note=46 velocity=92 time=0.24893354166666667\n",
      "note_on channel=2 note=29 velocity=110 time=0\n",
      "note_off channel=9 note=46 velocity=92 time=0.005296458333333334\n",
      "note_off channel=2 note=29 velocity=110 time=0.11122562500000001\n",
      "note_off channel=3 note=60 velocity=87 time=0.010592916666666667\n",
      "note_off channel=3 note=63 velocity=93 time=0\n",
      "note_off channel=3 note=56 velocity=91 time=0\n",
      "note_on channel=2 note=32 velocity=106 time=0\n",
      "sysex data=(65,16,69,18,16,1,0,0,3,20,20,23,30,22,23,20,3,2,2,2,2,3,0,0,16,31,25,25,25,25,25,0,27,10,10,10,10,26,0,0,28,23,22,22,23,28,0,3,24,8,8,8,8,8,0,0,0,31,0,0,31,31,31,31,0,0,0,0,0,0,0,71) time=0\n",
      "note_off channel=8 note=68 velocity=99 time=0.08474333333333334\n",
      "note_off channel=2 note=32 velocity=106 time=0.03177875\n",
      "note_on channel=9 note=42 velocity=82 time=0.010592916666666667\n",
      "note_on channel=9 note=36 velocity=102 time=0\n",
      "note_on channel=2 note=29 velocity=106 time=0\n",
      "note_on channel=3 note=60 velocity=88 time=0\n",
      "note_on channel=3 note=56 velocity=93 time=0\n",
      "note_on channel=3 note=63 velocity=88 time=0\n",
      "note_on channel=8 note=75 velocity=94 time=0\n",
      "note_off channel=9 note=36 velocity=102 time=0.005296458333333334\n",
      "note_off channel=9 note=42 velocity=82 time=0\n",
      "note_off channel=2 note=29 velocity=106 time=0.11122562500000001\n",
      "note_on channel=9 note=46 velocity=87 time=0.13770791666666668\n",
      "note_on channel=2 note=29 velocity=108 time=0\n",
      "note_off channel=9 note=46 velocity=87 time=0.005296458333333334\n",
      "note_off channel=2 note=29 velocity=108 time=0.11122562500000001\n",
      "note_on channel=2 note=29 velocity=110 time=0.010592916666666667\n",
      "note_off channel=2 note=29 velocity=110 time=0.11652208333333333\n",
      "note_on channel=9 note=42 velocity=85 time=0.010592916666666667\n",
      "note_on channel=9 note=38 velocity=101 time=0\n",
      "note_on channel=9 note=39 velocity=87 time=0\n",
      "note_off channel=9 note=39 velocity=87 time=0.005296458333333334\n",
      "note_off channel=9 note=38 velocity=101 time=0\n",
      "note_off channel=9 note=42 velocity=85 time=0\n",
      "note_off channel=3 note=63 velocity=88 time=0.12181854166666667\n",
      "note_off channel=3 note=56 velocity=93 time=0\n",
      "note_off channel=3 note=60 velocity=88 time=0\n",
      "note_on channel=2 note=36 velocity=106 time=0\n",
      "note_off channel=8 note=75 velocity=94 time=0.0635575\n",
      "note_off channel=2 note=36 velocity=106 time=0.052964583333333336\n",
      "note_on channel=9 note=46 velocity=90 time=0.010592916666666667\n",
      "note_on channel=2 note=34 velocity=110 time=0\n",
      "note_on channel=3 note=61 velocity=92 time=0\n",
      "note_on channel=3 note=65 velocity=90 time=0\n",
      "note_on channel=3 note=58 velocity=88 time=0\n",
      "note_on channel=8 note=77 velocity=99 time=0\n",
      "note_off channel=9 note=46 velocity=90 time=0.005296458333333334\n",
      "note_off channel=2 note=34 velocity=110 time=0.11122562500000001\n",
      "note_on channel=9 note=42 velocity=81 time=0.13770791666666668\n",
      "note_on channel=9 note=36 velocity=103 time=0\n",
      "note_off channel=9 note=36 velocity=103 time=0.005296458333333334\n",
      "note_off channel=9 note=42 velocity=81 time=0\n",
      "note_on channel=9 note=46 velocity=92 time=0.24893354166666667\n",
      "note_on channel=2 note=34 velocity=107 time=0\n",
      "note_off channel=9 note=46 velocity=92 time=0.005296458333333334\n",
      "note_off channel=2 note=34 velocity=107 time=0.11122562500000001\n",
      "note_on channel=2 note=34 velocity=107 time=0.010592916666666667\n",
      "note_off channel=8 note=77 velocity=99 time=0.0635575\n",
      "note_off channel=2 note=34 velocity=107 time=0.052964583333333336\n",
      "note_on channel=9 note=42 velocity=81 time=0.010592916666666667\n",
      "note_on channel=9 note=38 velocity=105 time=0\n",
      "note_on channel=9 note=39 velocity=85 time=0\n",
      "note_on channel=2 note=34 velocity=106 time=0\n",
      "note_on channel=8 note=80 velocity=98 time=0\n",
      "note_off channel=9 note=39 velocity=85 time=0.005296458333333334\n",
      "note_off channel=9 note=38 velocity=105 time=0\n",
      "note_off channel=9 note=42 velocity=81 time=0\n",
      "note_off channel=8 note=80 velocity=98 time=0.11122562500000001\n",
      "note_off channel=2 note=34 velocity=106 time=0\n",
      "note_on channel=2 note=36 velocity=111 time=0.010592916666666667\n",
      "note_on channel=8 note=78 velocity=97 time=0\n",
      "note_off channel=8 note=78 velocity=97 time=0.11652208333333333\n",
      "note_off channel=2 note=36 velocity=111 time=0\n",
      "note_on channel=9 note=46 velocity=87 time=0.010592916666666667\n",
      "note_on channel=8 note=77 velocity=97 time=0\n",
      "note_off channel=9 note=46 velocity=87 time=0.005296458333333334\n",
      "note_off channel=8 note=77 velocity=97 time=0.11122562500000001\n",
      "note_off channel=3 note=58 velocity=88 time=0.010592916666666667\n",
      "note_off channel=3 note=65 velocity=90 time=0\n",
      "note_off channel=3 note=61 velocity=92 time=0\n",
      "note_on channel=2 note=34 velocity=108 time=0\n",
      "note_on channel=8 note=73 velocity=98 time=0\n",
      "sysex data=(65,16,69,18,16,1,0,28,11,11,8,1,9,8,11,31,28,29,29,29,29,28,31,16,32,6,6,6,6,6,22,31,4,21,21,21,21,5,31,3,8,9,9,8,11,3,28,31,7,23,23,23,23,23,31,31,0,31,31,0,0,0,0,31,31,31,31,31,31,31,31,83) time=0\n",
      "note_off channel=2 note=34 velocity=108 time=0.11652208333333333\n",
      "note_on channel=9 note=42 velocity=81 time=0.010592916666666667\n",
      "note_on channel=9 note=36 velocity=101 time=0\n",
      "note_on channel=2 note=27 velocity=107 time=0\n",
      "note_on channel=3 note=61 velocity=91 time=0\n",
      "note_on channel=3 note=58 velocity=92 time=0\n",
      "note_on channel=3 note=65 velocity=91 time=0\n",
      "note_off channel=9 note=36 velocity=101 time=0.005296458333333334\n",
      "note_off channel=9 note=42 velocity=81 time=0\n",
      "note_off channel=2 note=27 velocity=107 time=0.11122562500000001\n",
      "note_on channel=9 note=46 velocity=87 time=0.13770791666666668\n",
      "note_on channel=2 note=27 velocity=111 time=0\n",
      "note_off channel=9 note=46 velocity=87 time=0.005296458333333334\n",
      "note_off channel=2 note=27 velocity=111 time=0.11122562500000001\n",
      "note_on channel=2 note=27 velocity=110 time=0.010592916666666667\n",
      "note_off channel=2 note=27 velocity=110 time=0.11652208333333333\n",
      "note_on channel=9 note=42 velocity=82 time=0.010592916666666667\n",
      "note_on channel=9 note=38 velocity=107 time=0\n",
      "note_on channel=9 note=39 velocity=81 time=0\n",
      "note_off channel=9 note=39 velocity=81 time=0.005296458333333334\n",
      "note_off channel=9 note=38 velocity=107 time=0\n",
      "note_off channel=9 note=42 velocity=82 time=0\n",
      "note_off channel=3 note=65 velocity=91 time=0.12181854166666667\n",
      "note_off channel=3 note=58 velocity=92 time=0\n",
      "note_off channel=3 note=61 velocity=91 time=0\n",
      "note_on channel=2 note=36 velocity=110 time=0\n",
      "note_off channel=8 note=73 velocity=98 time=0.0635575\n",
      "note_off channel=2 note=36 velocity=110 time=0.052964583333333336\n",
      "note_on channel=9 note=42 velocity=82 time=0.010592916666666667\n",
      "note_on channel=2 note=34 velocity=110 time=0\n",
      "note_on channel=3 note=56 velocity=89 time=0\n",
      "note_on channel=3 note=63 velocity=93 time=0\n",
      "note_on channel=3 note=60 velocity=86 time=0\n",
      "note_on channel=8 note=75 velocity=96 time=0\n",
      "note_off channel=9 note=42 velocity=82 time=0.005296458333333334\n",
      "note_off channel=2 note=34 velocity=110 time=0.11122562500000001\n",
      "note_on channel=9 note=42 velocity=81 time=0.010592916666666667\n",
      "note_off channel=9 note=42 velocity=81 time=0.005296458333333334\n",
      "note_on channel=9 note=42 velocity=82 time=0.12181854166666667\n",
      "note_on channel=9 note=36 velocity=109 time=0\n",
      "note_on channel=2 note=32 velocity=108 time=0\n",
      "note_off channel=9 note=36 velocity=109 time=0.005296458333333334\n",
      "note_off channel=9 note=42 velocity=82 time=0\n",
      "note_off channel=2 note=32 velocity=108 time=0.11122562500000001\n",
      "note_on channel=9 note=46 velocity=87 time=0.13770791666666668\n",
      "note_on channel=2 note=32 velocity=110 time=0\n",
      "note_off channel=9 note=46 velocity=87 time=0.005296458333333334\n",
      "note_off channel=2 note=32 velocity=110 time=0.11122562500000001\n",
      "note_off channel=8 note=75 velocity=96 time=0.07415041666666666\n",
      "note_on channel=9 note=42 velocity=85 time=0.0635575\n",
      "note_on channel=9 note=38 velocity=107 time=0\n",
      "note_on channel=9 note=39 velocity=85 time=0\n",
      "note_on channel=8 note=68 velocity=96 time=0\n",
      "note_off channel=9 note=39 velocity=85 time=0.005296458333333334\n",
      "note_off channel=9 note=38 velocity=107 time=0\n",
      "note_off channel=9 note=42 velocity=85 time=0\n",
      "note_on channel=9 note=46 velocity=89 time=0.24893354166666667\n",
      "note_on channel=2 note=32 velocity=110 time=0\n",
      "note_off channel=9 note=46 velocity=89 time=0.005296458333333334\n",
      "note_off channel=2 note=32 velocity=110 time=0.11122562500000001\n",
      "note_off channel=3 note=60 velocity=86 time=0.010592916666666667\n",
      "note_off channel=3 note=63 velocity=93 time=0\n",
      "note_off channel=3 note=56 velocity=89 time=0\n",
      "note_on channel=2 note=32 velocity=111 time=0\n",
      "sysex data=(65,16,69,18,16,1,0,0,3,20,20,23,30,22,23,20,3,2,2,2,2,3,0,0,16,31,25,25,25,25,25,0,27,10,10,10,10,26,0,0,28,23,22,22,23,28,0,3,24,8,8,8,8,8,0,0,0,31,0,0,31,31,31,31,0,0,0,0,0,0,0,71) time=0\n",
      "note_off channel=2 note=32 velocity=111 time=0.11652208333333333\n",
      "note_on channel=9 note=42 velocity=82 time=0.010592916666666667\n",
      "note_on channel=9 note=36 velocity=105 time=0\n",
      "note_on channel=2 note=29 velocity=109 time=0\n",
      "note_on channel=3 note=56 velocity=91 time=0\n",
      "note_on channel=3 note=60 velocity=90 time=0\n",
      "note_on channel=3 note=63 velocity=89 time=0\n",
      "note_off channel=9 note=36 velocity=105 time=0.005296458333333334\n",
      "note_off channel=9 note=42 velocity=82 time=0\n",
      "note_off channel=2 note=29 velocity=109 time=0.11122562500000001\n",
      "note_on channel=9 note=46 velocity=88 time=0.13770791666666668\n",
      "note_on channel=2 note=29 velocity=108 time=0\n",
      "note_off channel=9 note=46 velocity=88 time=0.005296458333333334\n",
      "note_off channel=2 note=29 velocity=108 time=0.11122562500000001\n",
      "note_on channel=2 note=29 velocity=110 time=0.010592916666666667\n",
      "note_off channel=2 note=29 velocity=110 time=0.11652208333333333\n",
      "note_on channel=9 note=42 velocity=80 time=0.010592916666666667\n",
      "note_on channel=9 note=38 velocity=104 time=0\n",
      "note_on channel=9 note=39 velocity=86 time=0\n",
      "note_off channel=9 note=39 velocity=86 time=0.005296458333333334\n",
      "note_off channel=9 note=38 velocity=104 time=0\n",
      "note_off channel=9 note=42 velocity=80 time=0\n",
      "note_off channel=3 note=63 velocity=89 time=0.12181854166666667\n",
      "note_off channel=3 note=60 velocity=90 time=0\n",
      "note_off channel=3 note=56 velocity=91 time=0\n",
      "note_on channel=2 note=36 velocity=111 time=0\n",
      "note_off channel=2 note=36 velocity=111 time=0.11652208333333333\n",
      "note_on channel=9 note=46 velocity=90 time=0.010592916666666667\n",
      "note_on channel=2 note=34 velocity=111 time=0\n",
      "note_on channel=3 note=58 velocity=87 time=0\n",
      "note_on channel=3 note=61 velocity=86 time=0\n",
      "note_on channel=3 note=65 velocity=88 time=0\n",
      "note_off channel=9 note=46 velocity=90 time=0.005296458333333334\n",
      "note_off channel=2 note=34 velocity=111 time=0.11122562500000001\n",
      "note_on channel=9 note=42 velocity=82 time=0.13770791666666668\n",
      "note_on channel=9 note=36 velocity=107 time=0\n",
      "note_off channel=9 note=36 velocity=107 time=0.005296458333333334\n",
      "note_off channel=9 note=42 velocity=82 time=0\n",
      "note_off channel=8 note=68 velocity=96 time=0.18537604166666669\n",
      "note_on channel=9 note=46 velocity=89 time=0.0635575\n",
      "note_on channel=2 note=32 velocity=111 time=0\n",
      "note_off channel=9 note=46 velocity=89 time=0.005296458333333334\n",
      "note_off channel=2 note=32 velocity=111 time=0.11122562500000001\n",
      "note_on channel=9 note=42 velocity=82 time=0.13770791666666668\n",
      "note_on channel=9 note=38 velocity=103 time=0\n",
      "note_on channel=9 note=39 velocity=85 time=0\n",
      "note_on channel=2 note=32 velocity=107 time=0\n",
      "note_on channel=7 note=58 velocity=95 time=0\n",
      "note_on channel=7 note=70 velocity=113 time=0\n",
      "note_on channel=8 note=80 velocity=94 time=0\n",
      "note_off channel=9 note=39 velocity=85 time=0.005296458333333334\n",
      "note_off channel=9 note=38 velocity=103 time=0\n",
      "note_off channel=9 note=42 velocity=82 time=0\n",
      "note_off channel=7 note=70 velocity=113 time=0.079446875\n",
      "note_off channel=7 note=58 velocity=95 time=0\n",
      "note_off channel=8 note=80 velocity=94 time=0.03177875\n",
      "note_off channel=2 note=32 velocity=107 time=0\n",
      "note_on channel=2 note=32 velocity=106 time=0.010592916666666667\n",
      "note_on channel=7 note=61 velocity=89 time=0\n",
      "note_on channel=7 note=73 velocity=113 time=0\n",
      "note_on channel=8 note=78 velocity=97 time=0\n",
      "note_off channel=7 note=73 velocity=113 time=0.08474333333333334\n",
      "note_off channel=7 note=61 velocity=89 time=0\n",
      "note_off channel=8 note=78 velocity=97 time=0.03177875\n",
      "note_off channel=2 note=32 velocity=106 time=0\n",
      "note_on channel=9 note=46 velocity=91 time=0.010592916666666667\n",
      "note_on channel=7 note=58 velocity=89 time=0\n",
      "note_on channel=7 note=70 velocity=117 time=0\n",
      "note_on channel=8 note=77 velocity=95 time=0\n",
      "note_off channel=9 note=46 velocity=91 time=0.005296458333333334\n",
      "note_off channel=7 note=70 velocity=117 time=0.079446875\n",
      "note_off channel=7 note=58 velocity=89 time=0\n",
      "note_off channel=8 note=77 velocity=95 time=0.03177875\n",
      "note_off channel=3 note=65 velocity=88 time=0.010592916666666667\n",
      "note_off channel=3 note=61 velocity=86 time=0\n",
      "note_off channel=3 note=58 velocity=87 time=0\n",
      "note_on channel=2 note=37 velocity=111 time=0\n",
      "note_on channel=7 note=61 velocity=91 time=0\n",
      "note_on channel=7 note=73 velocity=118 time=0\n",
      "note_on channel=8 note=73 velocity=98 time=0\n",
      "note_off channel=7 note=73 velocity=118 time=0.08474333333333334\n",
      "note_off channel=7 note=61 velocity=91 time=0\n",
      "note_off channel=2 note=37 velocity=111 time=0.03177875\n",
      "note_on channel=9 note=42 velocity=84 time=0.010592916666666667\n",
      "note_on channel=9 note=36 velocity=101 time=0\n",
      "note_on channel=2 note=27 velocity=107 time=0\n",
      "note_on channel=3 note=61 velocity=89 time=0\n",
      "note_on channel=3 note=58 velocity=93 time=0\n",
      "note_on channel=3 note=65 velocity=90 time=0\n",
      "note_on channel=14 note=68 velocity=81 time=0\n",
      "note_off channel=9 note=36 velocity=101 time=0.005296458333333334\n",
      "note_off channel=9 note=42 velocity=84 time=0\n",
      "note_off channel=2 note=27 velocity=107 time=0.11122562500000001\n",
      "note_on channel=9 note=46 velocity=87 time=0.13770791666666668\n",
      "note_on channel=2 note=27 velocity=107 time=0\n",
      "note_off channel=9 note=46 velocity=87 time=0.005296458333333334\n",
      "note_off channel=2 note=27 velocity=107 time=0.11122562500000001\n",
      "note_on channel=2 note=27 velocity=110 time=0.010592916666666667\n",
      "note_off channel=2 note=27 velocity=110 time=0.11652208333333333\n",
      "note_off channel=3 note=65 velocity=90 time=0.010592916666666667\n",
      "note_off channel=3 note=58 velocity=93 time=0\n",
      "note_off channel=3 note=61 velocity=89 time=0\n",
      "note_on channel=9 note=42 velocity=84 time=0\n",
      "note_on channel=9 note=38 velocity=104 time=0\n",
      "note_on channel=9 note=39 velocity=83 time=0\n",
      "note_off channel=9 note=39 velocity=83 time=0.005296458333333334\n",
      "note_off channel=9 note=38 velocity=104 time=0\n",
      "note_off channel=9 note=42 velocity=84 time=0\n",
      "note_on channel=2 note=36 velocity=110 time=0.12181854166666667\n",
      "note_off channel=8 note=73 velocity=98 time=0.0635575\n",
      "note_off channel=2 note=36 velocity=110 time=0.052964583333333336\n",
      "note_on channel=9 note=42 velocity=85 time=0.010592916666666667\n",
      "note_on channel=2 note=34 velocity=111 time=0\n",
      "note_on channel=3 note=56 velocity=93 time=0\n",
      "note_on channel=3 note=63 velocity=87 time=0\n",
      "note_on channel=3 note=60 velocity=93 time=0\n",
      "note_on channel=8 note=75 velocity=94 time=0\n",
      "note_off channel=9 note=42 velocity=85 time=0.005296458333333334\n",
      "note_off channel=2 note=34 velocity=111 time=0.11122562500000001\n",
      "note_on channel=9 note=42 velocity=82 time=0.010592916666666667\n",
      "note_off channel=9 note=42 velocity=82 time=0.005296458333333334\n",
      "note_on channel=9 note=42 velocity=82 time=0.12181854166666667\n",
      "note_on channel=9 note=36 velocity=104 time=0\n",
      "note_on channel=2 note=32 velocity=107 time=0\n",
      "note_off channel=9 note=36 velocity=104 time=0.005296458333333334\n",
      "note_off channel=9 note=42 velocity=82 time=0\n",
      "note_off channel=2 note=32 velocity=107 time=0.11122562500000001\n",
      "note_on channel=9 note=46 velocity=89 time=0.13770791666666668\n",
      "note_on channel=2 note=32 velocity=106 time=0\n",
      "note_off channel=9 note=46 velocity=89 time=0.005296458333333334\n",
      "note_off channel=2 note=32 velocity=106 time=0.11122562500000001\n",
      "note_off channel=8 note=75 velocity=94 time=0.07415041666666666\n",
      "note_on channel=9 note=42 velocity=85 time=0.0635575\n",
      "note_on channel=9 note=38 velocity=103 time=0\n",
      "note_on channel=9 note=39 velocity=86 time=0\n",
      "note_on channel=8 note=68 velocity=98 time=0\n",
      "note_off channel=9 note=39 velocity=86 time=0.005296458333333334\n",
      "note_off channel=9 note=38 velocity=103 time=0\n",
      "note_off channel=9 note=42 velocity=85 time=0\n",
      "note_off channel=14 note=68 velocity=81 time=0.10063270833333333\n",
      "note_on channel=14 note=66 velocity=79 time=0.021185833333333334\n",
      "note_off channel=14 note=66 velocity=79 time=0.11652208333333333\n",
      "note_on channel=9 note=46 velocity=92 time=0.010592916666666667\n",
      "note_on channel=2 note=29 velocity=109 time=0\n",
      "note_on channel=14 note=65 velocity=76 time=0\n",
      "note_off channel=9 note=46 velocity=92 time=0.005296458333333334\n",
      "note_off channel=14 note=65 velocity=76 time=0.11122562500000001\n",
      "note_off channel=2 note=29 velocity=109 time=0\n",
      "note_off channel=3 note=60 velocity=93 time=0.010592916666666667\n",
      "note_off channel=3 note=63 velocity=87 time=0\n",
      "note_off channel=3 note=56 velocity=93 time=0\n",
      "note_on channel=2 note=32 velocity=111 time=0\n",
      "note_on channel=14 note=63 velocity=80 time=0\n",
      "note_off channel=8 note=68 velocity=98 time=0.08474333333333334\n",
      "note_off channel=14 note=63 velocity=80 time=0.03177875\n",
      "note_off channel=2 note=32 velocity=111 time=0\n",
      "note_on channel=9 note=42 velocity=82 time=0.010592916666666667\n",
      "note_on channel=9 note=36 velocity=108 time=0\n",
      "note_on channel=2 note=29 velocity=111 time=0\n",
      "note_on channel=3 note=56 velocity=88 time=0\n",
      "note_on channel=3 note=60 velocity=87 time=0\n",
      "note_on channel=3 note=63 velocity=93 time=0\n",
      "note_on channel=8 note=75 velocity=96 time=0\n",
      "note_on channel=14 note=65 velocity=82 time=0\n",
      "note_off channel=9 note=36 velocity=108 time=0.005296458333333334\n",
      "note_off channel=9 note=42 velocity=82 time=0\n",
      "note_off channel=2 note=29 velocity=111 time=0.11122562500000001\n",
      "note_on channel=9 note=46 velocity=91 time=0.13770791666666668\n",
      "note_on channel=2 note=29 velocity=109 time=0\n",
      "note_off channel=9 note=46 velocity=91 time=0.005296458333333334\n",
      "note_off channel=2 note=29 velocity=109 time=0.11122562500000001\n",
      "note_on channel=2 note=29 velocity=110 time=0.010592916666666667\n",
      "note_off channel=2 note=29 velocity=110 time=0.11652208333333333\n",
      "note_off channel=3 note=63 velocity=93 time=0.010592916666666667\n",
      "note_off channel=3 note=60 velocity=87 time=0\n",
      "note_off channel=3 note=56 velocity=88 time=0\n",
      "note_on channel=9 note=42 velocity=85 time=0\n",
      "note_on channel=9 note=38 velocity=105 time=0\n",
      "note_on channel=9 note=39 velocity=85 time=0\n",
      "note_off channel=9 note=39 velocity=85 time=0.005296458333333334\n",
      "note_off channel=9 note=38 velocity=105 time=0\n",
      "note_off channel=9 note=42 velocity=85 time=0\n",
      "note_on channel=2 note=36 velocity=107 time=0.12181854166666667\n",
      "note_off channel=8 note=75 velocity=96 time=0.0635575\n",
      "note_off channel=2 note=36 velocity=107 time=0.052964583333333336\n",
      "note_on channel=9 note=46 velocity=90 time=0.010592916666666667\n",
      "note_on channel=2 note=34 velocity=111 time=0\n",
      "note_on channel=3 note=61 velocity=91 time=0\n",
      "note_on channel=3 note=58 velocity=89 time=0\n",
      "note_on channel=3 note=65 velocity=90 time=0\n",
      "note_on channel=8 note=77 velocity=95 time=0\n",
      "note_off channel=9 note=46 velocity=90 time=0.005296458333333334\n",
      "note_off channel=2 note=34 velocity=111 time=0.11122562500000001\n",
      "note_on channel=9 note=42 velocity=82 time=0.13770791666666668\n",
      "note_on channel=9 note=36 velocity=102 time=0\n",
      "note_off channel=9 note=36 velocity=102 time=0.005296458333333334\n",
      "note_off channel=9 note=42 velocity=82 time=0\n",
      "note_on channel=9 note=46 velocity=88 time=0.24893354166666667\n",
      "note_on channel=2 note=34 velocity=108 time=0\n",
      "note_off channel=9 note=46 velocity=88 time=0.005296458333333334\n",
      "note_off channel=2 note=34 velocity=108 time=0.11122562500000001\n",
      "note_on channel=2 note=34 velocity=107 time=0.010592916666666667\n",
      "note_off channel=8 note=77 velocity=95 time=0.0635575\n",
      "note_off channel=14 note=65 velocity=82 time=0.04237166666666667\n",
      "note_off channel=2 note=34 velocity=107 time=0.010592916666666667\n",
      "note_on channel=9 note=42 velocity=82 time=0.010592916666666667\n",
      "note_on channel=9 note=38 velocity=105 time=0\n",
      "note_on channel=9 note=39 velocity=82 time=0\n",
      "note_on channel=2 note=34 velocity=108 time=0\n",
      "note_on channel=8 note=80 velocity=98 time=0\n",
      "note_off channel=9 note=39 velocity=82 time=0.005296458333333334\n",
      "note_off channel=9 note=38 velocity=105 time=0\n",
      "note_off channel=9 note=42 velocity=82 time=0\n",
      "note_off channel=8 note=80 velocity=98 time=0.11122562500000001\n",
      "note_off channel=2 note=34 velocity=108 time=0\n",
      "note_on channel=2 note=36 velocity=107 time=0.010592916666666667\n",
      "note_on channel=8 note=78 velocity=95 time=0\n",
      "note_off channel=8 note=78 velocity=95 time=0.11652208333333333\n",
      "note_off channel=2 note=36 velocity=107 time=0\n",
      "note_on channel=9 note=46 velocity=90 time=0.010592916666666667\n",
      "note_on channel=8 note=77 velocity=97 time=0\n",
      "note_off channel=9 note=46 velocity=90 time=0.005296458333333334\n",
      "note_off channel=8 note=77 velocity=97 time=0.11122562500000001\n",
      "note_off channel=3 note=65 velocity=90 time=0.010592916666666667\n",
      "note_off channel=3 note=58 velocity=89 time=0\n",
      "note_off channel=3 note=61 velocity=91 time=0\n",
      "note_on channel=2 note=34 velocity=110 time=0\n",
      "note_on channel=8 note=73 velocity=94 time=0\n",
      "note_off channel=2 note=34 velocity=110 time=0.11652208333333333\n",
      "note_on channel=9 note=42 velocity=81 time=0.010592916666666667\n",
      "note_on channel=9 note=36 velocity=103 time=0\n",
      "note_on channel=2 note=27 velocity=109 time=0\n",
      "note_on channel=3 note=61 velocity=89 time=0\n",
      "note_on channel=3 note=58 velocity=87 time=0\n",
      "note_on channel=3 note=65 velocity=87 time=0\n",
      "note_off channel=9 note=36 velocity=103 time=0.005296458333333334\n",
      "note_off channel=9 note=42 velocity=81 time=0\n",
      "note_off channel=2 note=27 velocity=109 time=0.11122562500000001\n",
      "note_on channel=9 note=46 velocity=91 time=0.13770791666666668\n",
      "note_on channel=2 note=27 velocity=109 time=0\n",
      "note_off channel=9 note=46 velocity=91 time=0.005296458333333334\n",
      "note_off channel=2 note=27 velocity=109 time=0.11122562500000001\n",
      "note_on channel=2 note=27 velocity=111 time=0.010592916666666667\n",
      "note_off channel=2 note=27 velocity=111 time=0.11652208333333333\n",
      "note_off channel=3 note=65 velocity=87 time=0.010592916666666667\n",
      "note_off channel=3 note=58 velocity=87 time=0\n",
      "note_off channel=3 note=61 velocity=89 time=0\n",
      "note_on channel=9 note=42 velocity=82 time=0\n",
      "note_on channel=9 note=38 velocity=106 time=0\n",
      "note_on channel=9 note=39 velocity=81 time=0\n",
      "note_off channel=9 note=39 velocity=81 time=0.005296458333333334\n",
      "note_off channel=9 note=38 velocity=106 time=0\n",
      "note_off channel=9 note=42 velocity=82 time=0\n",
      "note_on channel=2 note=36 velocity=106 time=0.12181854166666667\n",
      "note_off channel=8 note=73 velocity=94 time=0.0635575\n",
      "note_off channel=2 note=36 velocity=106 time=0.052964583333333336\n",
      "note_on channel=9 note=42 velocity=82 time=0.010592916666666667\n",
      "note_on channel=2 note=34 velocity=108 time=0\n",
      "note_on channel=3 note=56 velocity=90 time=0\n",
      "note_on channel=3 note=60 velocity=91 time=0\n",
      "note_on channel=3 note=63 velocity=91 time=0\n",
      "note_on channel=8 note=75 velocity=95 time=0\n",
      "note_off channel=9 note=42 velocity=82 time=0.005296458333333334\n",
      "note_off channel=2 note=34 velocity=108 time=0.11122562500000001\n",
      "note_on channel=9 note=42 velocity=84 time=0.010592916666666667\n",
      "note_off channel=9 note=42 velocity=84 time=0.005296458333333334\n",
      "note_on channel=9 note=42 velocity=84 time=0.12181854166666667\n",
      "note_on channel=9 note=36 velocity=105 time=0\n",
      "note_on channel=2 note=32 velocity=107 time=0\n",
      "note_off channel=9 note=36 velocity=105 time=0.005296458333333334\n",
      "note_off channel=9 note=42 velocity=84 time=0\n",
      "note_off channel=2 note=32 velocity=107 time=0.11122562500000001\n",
      "note_on channel=9 note=46 velocity=92 time=0.13770791666666668\n",
      "note_on channel=2 note=32 velocity=109 time=0\n",
      "note_off channel=9 note=46 velocity=92 time=0.005296458333333334\n",
      "note_off channel=2 note=32 velocity=109 time=0.11122562500000001\n",
      "note_off channel=8 note=75 velocity=95 time=0.07415041666666666\n",
      "note_on channel=9 note=42 velocity=83 time=0.0635575\n",
      "note_on channel=9 note=38 velocity=109 time=0\n",
      "note_on channel=9 note=39 velocity=86 time=0\n",
      "note_on channel=8 note=68 velocity=98 time=0\n",
      "note_off channel=9 note=39 velocity=86 time=0.005296458333333334\n",
      "note_off channel=9 note=38 velocity=109 time=0\n",
      "note_off channel=9 note=42 velocity=83 time=0\n",
      "note_on channel=9 note=46 velocity=90 time=0.24893354166666667\n",
      "note_on channel=2 note=32 velocity=107 time=0\n",
      "note_off channel=9 note=46 velocity=90 time=0.005296458333333334\n",
      "note_off channel=2 note=32 velocity=107 time=0.11122562500000001\n",
      "note_off channel=3 note=63 velocity=91 time=0.010592916666666667\n",
      "note_off channel=3 note=60 velocity=91 time=0\n",
      "note_off channel=3 note=56 velocity=90 time=0\n",
      "note_on channel=2 note=32 velocity=111 time=0\n",
      "note_off channel=2 note=32 velocity=111 time=0.11652208333333333\n",
      "note_on channel=9 note=42 velocity=85 time=0.010592916666666667\n",
      "note_on channel=9 note=36 velocity=106 time=0\n",
      "note_on channel=2 note=29 velocity=110 time=0\n",
      "note_off channel=9 note=36 velocity=106 time=0.005296458333333334\n",
      "note_off channel=9 note=42 velocity=85 time=0\n",
      "note_off channel=2 note=29 velocity=110 time=0.11122562500000001\n",
      "note_on channel=9 note=46 velocity=92 time=0.13770791666666668\n",
      "note_on channel=2 note=29 velocity=108 time=0\n",
      "note_on channel=3 note=58 velocity=89 time=0\n",
      "note_on channel=3 note=61 velocity=90 time=0\n",
      "note_on channel=3 note=65 velocity=91 time=0\n",
      "note_off channel=9 note=46 velocity=92 time=0.005296458333333334\n",
      "note_off channel=2 note=29 velocity=108 time=0.11122562500000001\n",
      "note_off channel=3 note=65 velocity=91 time=0.010592916666666667\n",
      "note_off channel=3 note=61 velocity=90 time=0\n",
      "note_off channel=3 note=58 velocity=89 time=0\n",
      "note_on channel=2 note=29 velocity=109 time=0\n",
      "note_off channel=2 note=29 velocity=109 time=0.11652208333333333\n",
      "note_on channel=9 note=42 velocity=85 time=0.010592916666666667\n",
      "note_on channel=9 note=38 velocity=106 time=0\n",
      "note_on channel=9 note=39 velocity=82 time=0\n",
      "note_on channel=3 note=58 velocity=93 time=0\n",
      "note_on channel=3 note=61 velocity=89 time=0\n",
      "note_on channel=3 note=65 velocity=86 time=0\n",
      "note_off channel=9 note=39 velocity=82 time=0.005296458333333334\n",
      "note_off channel=9 note=38 velocity=106 time=0\n",
      "note_off channel=9 note=42 velocity=85 time=0\n",
      "note_on channel=2 note=36 velocity=106 time=0.12181854166666667\n",
      "note_off channel=2 note=36 velocity=106 time=0.11652208333333333\n",
      "note_on channel=9 note=46 velocity=87 time=0.010592916666666667\n",
      "note_on channel=2 note=34 velocity=107 time=0\n",
      "note_off channel=9 note=46 velocity=87 time=0.005296458333333334\n",
      "note_off channel=2 note=34 velocity=107 time=0.11122562500000001\n",
      "note_on channel=9 note=42 velocity=83 time=0.13770791666666668\n",
      "note_on channel=9 note=36 velocity=101 time=0\n",
      "note_on channel=9 note=45 velocity=80 time=0\n",
      "note_on channel=9 note=39 velocity=82 time=0\n",
      "note_off channel=9 note=39 velocity=82 time=0.005296458333333334\n",
      "note_off channel=9 note=45 velocity=80 time=0\n",
      "note_off channel=9 note=36 velocity=101 time=0\n",
      "note_off channel=9 note=42 velocity=83 time=0\n",
      "note_on channel=9 note=45 velocity=82 time=0.12181854166666667\n",
      "note_on channel=9 note=39 velocity=85 time=0\n",
      "note_off channel=9 note=39 velocity=85 time=0.005296458333333334\n",
      "note_off channel=9 note=45 velocity=82 time=0\n",
      "note_on channel=9 note=46 velocity=90 time=0.12181854166666667\n",
      "note_on channel=9 note=43 velocity=81 time=0\n",
      "note_on channel=2 note=32 velocity=107 time=0\n",
      "note_on channel=7 note=73 velocity=85 time=0\n",
      "note_on channel=7 note=85 velocity=105 time=0\n",
      "note_off channel=9 note=43 velocity=81 time=0.005296458333333334\n",
      "note_off channel=9 note=46 velocity=90 time=0\n",
      "note_off channel=7 note=85 velocity=105 time=0.079446875\n",
      "note_off channel=7 note=73 velocity=85 time=0\n",
      "note_off channel=2 note=32 velocity=107 time=0.03177875\n",
      "note_on channel=9 note=43 velocity=86 time=0.010592916666666667\n",
      "note_on channel=7 note=73 velocity=87 time=0\n",
      "note_on channel=7 note=85 velocity=103 time=0\n",
      "note_off channel=9 note=43 velocity=86 time=0.005296458333333334\n",
      "note_off channel=7 note=85 velocity=103 time=0.079446875\n",
      "note_off channel=7 note=73 velocity=87 time=0\n",
      "note_on channel=9 note=42 velocity=85 time=0.04237166666666667\n",
      "note_on channel=9 note=38 velocity=104 time=0\n",
      "note_on channel=9 note=45 velocity=83 time=0\n",
      "note_on channel=9 note=39 velocity=81 time=0\n",
      "note_on channel=2 note=32 velocity=110 time=0\n",
      "note_on channel=7 note=73 velocity=87 time=0\n",
      "note_on channel=7 note=85 velocity=102 time=0\n",
      "note_off channel=9 note=39 velocity=81 time=0.005296458333333334\n",
      "note_off channel=9 note=45 velocity=83 time=0\n",
      "note_off channel=9 note=38 velocity=104 time=0\n",
      "note_off channel=9 note=42 velocity=85 time=0\n",
      "note_off channel=8 note=68 velocity=98 time=0.058261041666666666\n",
      "note_off channel=7 note=85 velocity=102 time=0.021185833333333334\n",
      "note_off channel=7 note=73 velocity=87 time=0\n",
      "note_off channel=2 note=32 velocity=110 time=0.03177875\n",
      "note_on channel=9 note=45 velocity=80 time=0.010592916666666667\n",
      "note_on channel=9 note=39 velocity=81 time=0\n",
      "note_on channel=2 note=32 velocity=107 time=0\n",
      "note_on channel=7 note=73 velocity=85 time=0\n",
      "note_on channel=7 note=85 velocity=104 time=0\n",
      "note_off channel=9 note=39 velocity=81 time=0.005296458333333334\n",
      "note_off channel=9 note=45 velocity=80 time=0\n",
      "note_off channel=7 note=85 velocity=104 time=0.079446875\n",
      "note_off channel=7 note=73 velocity=85 time=0\n",
      "note_off channel=2 note=32 velocity=107 time=0.03177875\n",
      "note_on channel=9 note=46 velocity=90 time=0.010592916666666667\n",
      "note_on channel=9 note=43 velocity=85 time=0\n",
      "note_off channel=9 note=43 velocity=85 time=0.005296458333333334\n",
      "note_off channel=9 note=46 velocity=90 time=0\n",
      "note_off channel=3 note=65 velocity=86 time=0.12181854166666667\n",
      "note_off channel=3 note=61 velocity=89 time=0\n",
      "note_off channel=3 note=58 velocity=93 time=0\n",
      "note_on channel=9 note=43 velocity=82 time=0\n",
      "note_on channel=2 note=37 velocity=110 time=0\n",
      "note_on channel=7 note=73 velocity=86 time=0\n",
      "note_on channel=7 note=85 velocity=105 time=0\n",
      "note_off channel=9 note=43 velocity=82 time=0.005296458333333334\n",
      "note_off channel=7 note=85 velocity=105 time=0.079446875\n",
      "note_off channel=7 note=73 velocity=86 time=0\n",
      "note_off channel=2 note=37 velocity=110 time=0.03177875\n",
      "note_on channel=9 note=42 velocity=85 time=0.010592916666666667\n",
      "note_on channel=9 note=36 velocity=108 time=0\n",
      "note_on channel=2 note=34 velocity=111 time=0\n",
      "note_on channel=3 note=58 velocity=91 time=0\n",
      "note_on channel=3 note=65 velocity=93 time=0\n",
      "note_on channel=3 note=61 velocity=88 time=0\n",
      "note_on channel=3 note=54 velocity=91 time=0\n",
      "note_off channel=9 note=36 velocity=108 time=0.005296458333333334\n",
      "note_off channel=9 note=42 velocity=85 time=0\n",
      "note_off channel=2 note=34 velocity=111 time=0.11122562500000001\n",
      "note_on channel=9 note=46 velocity=90 time=0.13770791666666668\n",
      "note_on channel=2 note=34 velocity=106 time=0\n",
      "note_on channel=15 note=61 velocity=122 time=0\n",
      "note_off channel=9 note=46 velocity=90 time=0.005296458333333334\n",
      "note_off channel=15 note=61 velocity=122 time=0.11122562500000001\n",
      "note_off channel=2 note=34 velocity=106 time=0\n",
      "note_on channel=2 note=34 velocity=107 time=0.010592916666666667\n",
      "note_off channel=2 note=34 velocity=107 time=0.11652208333333333\n",
      "note_on channel=9 note=42 velocity=82 time=0.010592916666666667\n",
      "note_on channel=9 note=38 velocity=103 time=0\n",
      "note_on channel=9 note=39 velocity=84 time=0\n",
      "note_on channel=15 note=61 velocity=123 time=0\n",
      "note_off channel=9 note=39 velocity=84 time=0.005296458333333334\n",
      "note_off channel=9 note=38 velocity=103 time=0\n",
      "note_off channel=9 note=42 velocity=82 time=0\n",
      "note_on channel=2 note=37 velocity=107 time=0.12181854166666667\n",
      "note_off channel=15 note=61 velocity=123 time=0.10592916666666667\n",
      "note_off channel=2 note=37 velocity=107 time=0.010592916666666667\n",
      "note_on channel=9 note=42 velocity=83 time=0.010592916666666667\n",
      "note_on channel=2 note=36 velocity=107 time=0\n",
      "note_on channel=15 note=58 velocity=123 time=0\n",
      "note_off channel=9 note=42 velocity=83 time=0.005296458333333334\n",
      "note_off channel=2 note=36 velocity=107 time=0.11122562500000001\n",
      "note_on channel=9 note=42 velocity=81 time=0.010592916666666667\n",
      "note_off channel=9 note=42 velocity=81 time=0.005296458333333334\n",
      "note_off channel=15 note=58 velocity=123 time=0.10063270833333333\n",
      "note_on channel=9 note=42 velocity=83 time=0.021185833333333334\n",
      "note_on channel=9 note=36 velocity=105 time=0\n",
      "note_on channel=2 note=32 velocity=110 time=0\n",
      "note_on channel=15 note=61 velocity=121 time=0\n",
      "note_off channel=9 note=36 velocity=105 time=0.005296458333333334\n",
      "note_off channel=9 note=42 velocity=83 time=0\n",
      "note_off channel=15 note=61 velocity=121 time=0.22774770833333335\n",
      "note_off channel=2 note=32 velocity=110 time=0.021185833333333334\n",
      "note_on channel=9 note=46 velocity=87 time=0\n",
      "note_on channel=2 note=34 velocity=111 time=0\n",
      "note_on channel=15 note=63 velocity=120 time=0\n",
      "note_off channel=9 note=46 velocity=87 time=0.005296458333333334\n",
      "note_off channel=2 note=34 velocity=111 time=0.11122562500000001\n",
      "note_on channel=9 note=42 velocity=84 time=0.13770791666666668\n",
      "note_on channel=9 note=38 velocity=101 time=0\n",
      "note_on channel=9 note=39 velocity=81 time=0\n",
      "note_off channel=9 note=39 velocity=81 time=0.005296458333333334\n",
      "note_off channel=9 note=38 velocity=101 time=0\n",
      "note_off channel=9 note=42 velocity=84 time=0\n",
      "note_off channel=15 note=63 velocity=120 time=0.09003979166666667\n",
      "note_off channel=3 note=54 velocity=91 time=0.15889375\n",
      "note_off channel=3 note=61 velocity=88 time=0\n",
      "note_off channel=3 note=65 velocity=93 time=0\n",
      "note_off channel=3 note=58 velocity=91 time=0\n",
      "note_on channel=9 note=46 velocity=88 time=0\n",
      "note_on channel=2 note=29 velocity=108 time=0\n",
      "note_off channel=9 note=46 velocity=88 time=0.005296458333333334\n",
      "note_off channel=2 note=29 velocity=108 time=0.11122562500000001\n",
      "\n"
     ]
    }
   ],
   "source": [
    "channel_map = {4: 1, 5: 1, 16: 2, 3: 3}\n",
    "leftovers_channel = max(channel_map.values()) + 1\n",
    "for x in range(1, 17):\n",
    "    if x not in channel_map:\n",
    "        channel_map[x] = leftovers_channel\n",
    "\n",
    "\n",
    "try:\n",
    "    for x in midi.play():\n",
    "        \n",
    "        channel = channel_map.get(x.dict().get(\"channel\", -2) + 1, None)\n",
    "        print(x)\n",
    "        if channel is not None:\n",
    "            x.channel = channel - 1\n",
    "            outport.send(x)\n",
    "except BaseException as e:\n",
    "    print(e)\n",
    "    outport.reset()"
   ]
  }
 ],
 "metadata": {
  "interpreter": {
   "hash": "a745e65f00ba40f4710b3eb53765bd6a652c39d81dd3857a25c705af3598b4bd"
  },
  "kernelspec": {
   "display_name": "Python 3",
   "language": "python",
   "name": "python3"
  },
  "language_info": {
   "codemirror_mode": {
    "name": "ipython",
    "version": 3
   },
   "file_extension": ".py",
   "mimetype": "text/x-python",
   "name": "python",
   "nbconvert_exporter": "python",
   "pygments_lexer": "ipython3",
   "version": "3.9.7"
  },
  "toc": {
   "base_numbering": 1,
   "nav_menu": {},
   "number_sections": true,
   "sideBar": true,
   "skip_h1_title": false,
   "title_cell": "Table of Contents",
   "title_sidebar": "Contents",
   "toc_cell": false,
   "toc_position": {},
   "toc_section_display": true,
   "toc_window_display": false
  }
 },
 "nbformat": 4,
 "nbformat_minor": 5
}
