{
 "cells": [
  {
   "cell_type": "code",
   "execution_count": 1,
   "metadata": {},
   "outputs": [],
   "source": [
    "%matplotlib ipympl\n",
    "import mido\n",
    "import matplotlib.pyplot as plt\n",
    "import matplotlib.patches as patches\n",
    "import pandas as pd"
   ]
  },
  {
   "cell_type": "code",
   "execution_count": 2,
   "metadata": {},
   "outputs": [
    {
     "name": "stdout",
     "output_type": "stream",
     "text": [
      "=== Track 0\n",
      "MetaMessage('track_name', name='0013GIVE', time=0)\n",
      "MetaMessage('set_tempo', tempo=300000, time=0)\n",
      "MetaMessage('time_signature', numerator=4, denominator=4, clocks_per_click=24, notated_32nd_notes_per_beat=8, time=0)\n",
      "MetaMessage('text', text='0013GIVE\\x00\\x00', time=0)\n",
      "Message('sysex', data=(126, 127, 9, 1), time=10)\n",
      "Message('sysex', data=(65, 16, 66, 18, 64, 0, 127, 0, 65), time=14)\n",
      "Message('sysex', data=(65, 16, 66, 18, 64, 1, 16, 2, 0, 1, 3, 2, 2, 2, 2, 2, 2, 1, 1, 1, 1, 1, 1, 23), time=24)\n",
      "Message('sysex', data=(65, 16, 66, 18, 64, 1, 51, 90, 50), time=24)\n",
      "Message('sysex', data=(65, 16, 66, 18, 64, 1, 58, 90, 43), time=40)\n",
      "Message('control_change', channel=1, control=121, value=0, time=212)\n",
      "Message('control_change', channel=2, control=121, value=0, time=4)\n",
      "Message('control_change', channel=3, control=121, value=0, time=4)\n",
      "Message('control_change', channel=4, control=121, value=0, time=4)\n",
      "Message('control_change', channel=5, control=121, value=0, time=4)\n",
      "Message('control_change', channel=6, control=121, value=0, time=4)\n",
      "Message('control_change', channel=7, control=121, value=0, time=4)\n",
      "Message('control_change', channel=8, control=121, value=0, time=4)\n",
      "Message('control_change', channel=9, control=121, value=0, time=4)\n",
      "Message('control_change', channel=10, control=121, value=0, time=4)\n",
      "Message('control_change', channel=13, control=121, value=0, time=12)\n",
      "Message('control_change', channel=14, control=121, value=0, time=4)\n",
      "Message('control_change', channel=15, control=121, value=0, time=4)\n",
      "Message('control_change', channel=0, control=0, value=0, time=4)\n",
      "Message('control_change', channel=0, control=32, value=0, time=4)\n",
      "Message('program_change', channel=0, program=0, time=4)\n",
      "Message('control_change', channel=1, control=0, value=0, time=12)\n",
      "Message('control_change', channel=1, control=32, value=0, time=4)\n",
      "Message('program_change', channel=1, program=118, time=4)\n",
      "Message('control_change', channel=1, control=7, value=100, time=4)\n",
      "Message('control_change', channel=1, control=10, value=64, time=0)\n",
      "Message('control_change', channel=1, control=11, value=127, time=0)\n",
      "Message('control_change', channel=1, control=91, value=60, time=4)\n",
      "Message('control_change', channel=1, control=93, value=0, time=0)\n",
      "Message('control_change', channel=2, control=0, value=0, time=4)\n",
      "Message('control_change', channel=2, control=32, value=0, time=4)\n",
      "Message('program_change', channel=2, program=39, time=4)\n",
      "Message('control_change', channel=2, control=7, value=100, time=4)\n",
      "Message('control_change', channel=2, control=10, value=64, time=0)\n",
      "Message('control_change', channel=2, control=11, value=127, time=0)\n",
      "Message('control_change', channel=2, control=91, value=20, time=4)\n",
      "Message('control_change', channel=2, control=93, value=35, time=0)\n",
      "Message('control_change', channel=3, control=0, value=0, time=4)\n",
      "Message('control_change', channel=3, control=32, value=0, time=4)\n",
      "Message('program_change', channel=3, program=0, time=4)\n",
      "Message('control_change', channel=3, control=7, value=100, time=4)\n",
      "Message('control_change', channel=3, control=10, value=64, time=0)\n",
      "Message('control_change', channel=3, control=11, value=127, time=0)\n",
      "Message('control_change', channel=3, control=91, value=60, time=4)\n",
      "Message('control_change', channel=3, control=93, value=0, time=0)\n",
      "Message('control_change', channel=4, control=0, value=0, time=4)\n",
      "Message('control_change', channel=4, control=32, value=0, time=4)\n",
      "Message('program_change', channel=4, program=90, time=4)\n",
      "Message('control_change', channel=4, control=7, value=100, time=4)\n",
      "Message('control_change', channel=4, control=10, value=64, time=0)\n",
      "Message('control_change', channel=4, control=11, value=127, time=0)\n",
      "Message('control_change', channel=4, control=91, value=127, time=4)\n",
      "Message('control_change', channel=4, control=93, value=0, time=0)\n",
      "Message('control_change', channel=5, control=0, value=0, time=4)\n",
      "Message('control_change', channel=5, control=32, value=0, time=4)\n",
      "Message('program_change', channel=5, program=28, time=4)\n",
      "Message('control_change', channel=5, control=7, value=100, time=4)\n",
      "Message('control_change', channel=5, control=10, value=34, time=0)\n",
      "Message('control_change', channel=5, control=11, value=127, time=0)\n",
      "Message('control_change', channel=5, control=91, value=50, time=4)\n",
      "Message('control_change', channel=5, control=93, value=60, time=0)\n",
      "Message('control_change', channel=6, control=0, value=0, time=4)\n",
      "Message('control_change', channel=6, control=32, value=0, time=4)\n",
      "Message('program_change', channel=6, program=27, time=4)\n",
      "Message('control_change', channel=6, control=7, value=100, time=4)\n",
      "Message('control_change', channel=6, control=10, value=94, time=0)\n",
      "Message('control_change', channel=6, control=11, value=127, time=0)\n",
      "Message('control_change', channel=6, control=91, value=90, time=4)\n",
      "Message('control_change', channel=6, control=93, value=80, time=0)\n",
      "Message('control_change', channel=7, control=0, value=0, time=4)\n",
      "Message('control_change', channel=7, control=32, value=0, time=4)\n",
      "Message('program_change', channel=7, program=61, time=4)\n",
      "Message('control_change', channel=7, control=7, value=100, time=4)\n",
      "Message('control_change', channel=7, control=10, value=64, time=0)\n",
      "Message('control_change', channel=7, control=11, value=127, time=0)\n",
      "Message('control_change', channel=7, control=91, value=100, time=4)\n",
      "Message('control_change', channel=7, control=93, value=60, time=0)\n",
      "Message('control_change', channel=8, control=0, value=0, time=4)\n",
      "Message('control_change', channel=8, control=32, value=0, time=4)\n",
      "Message('program_change', channel=8, program=48, time=4)\n",
      "Message('control_change', channel=8, control=7, value=100, time=4)\n",
      "Message('control_change', channel=8, control=10, value=64, time=0)\n",
      "Message('control_change', channel=8, control=11, value=127, time=0)\n",
      "Message('control_change', channel=8, control=91, value=100, time=4)\n",
      "Message('control_change', channel=8, control=93, value=0, time=0)\n",
      "Message('control_change', channel=9, control=0, value=0, time=4)\n",
      "Message('control_change', channel=9, control=32, value=0, time=4)\n",
      "Message('program_change', channel=9, program=0, time=4)\n",
      "Message('control_change', channel=9, control=7, value=100, time=4)\n",
      "Message('control_change', channel=9, control=10, value=64, time=0)\n",
      "Message('control_change', channel=9, control=11, value=127, time=0)\n",
      "Message('control_change', channel=9, control=91, value=40, time=4)\n",
      "Message('control_change', channel=9, control=93, value=0, time=0)\n",
      "Message('control_change', channel=10, control=0, value=0, time=4)\n",
      "Message('control_change', channel=10, control=32, value=0, time=4)\n",
      "Message('program_change', channel=10, program=82, time=4)\n",
      "Message('control_change', channel=10, control=7, value=100, time=4)\n",
      "Message('control_change', channel=10, control=10, value=64, time=0)\n",
      "Message('control_change', channel=10, control=11, value=127, time=0)\n",
      "Message('control_change', channel=10, control=91, value=100, time=4)\n",
      "Message('control_change', channel=10, control=93, value=85, time=0)\n",
      "Message('control_change', channel=11, control=0, value=0, time=4)\n",
      "Message('control_change', channel=11, control=32, value=0, time=4)\n",
      "Message('program_change', channel=11, program=0, time=4)\n",
      "Message('control_change', channel=12, control=0, value=0, time=12)\n",
      "Message('control_change', channel=12, control=32, value=0, time=4)\n",
      "Message('program_change', channel=12, program=0, time=4)\n",
      "Message('control_change', channel=13, control=0, value=0, time=12)\n",
      "Message('control_change', channel=13, control=32, value=0, time=4)\n",
      "Message('program_change', channel=13, program=53, time=4)\n",
      "Message('control_change', channel=13, control=7, value=100, time=4)\n",
      "Message('control_change', channel=13, control=10, value=84, time=0)\n",
      "Message('control_change', channel=13, control=11, value=127, time=0)\n",
      "Message('control_change', channel=13, control=91, value=60, time=4)\n",
      "Message('control_change', channel=13, control=93, value=90, time=0)\n",
      "Message('control_change', channel=14, control=0, value=0, time=4)\n",
      "Message('control_change', channel=14, control=32, value=0, time=4)\n",
      "Message('program_change', channel=14, program=53, time=4)\n",
      "Message('control_change', channel=14, control=7, value=100, time=4)\n",
      "Message('control_change', channel=14, control=10, value=44, time=0)\n",
      "Message('control_change', channel=14, control=11, value=127, time=0)\n",
      "Message('control_change', channel=14, control=91, value=60, time=4)\n",
      "Message('control_change', channel=14, control=93, value=80, time=0)\n",
      "Message('control_change', channel=15, control=0, value=0, time=4)\n",
      "Message('control_change', channel=15, control=32, value=0, time=4)\n",
      "Message('program_change', channel=15, program=65, time=4)\n",
      "Message('control_change', channel=15, control=7, value=100, time=4)\n",
      "Message('control_change', channel=15, control=10, value=64, time=0)\n",
      "Message('control_change', channel=15, control=11, value=127, time=0)\n",
      "Message('control_change', channel=15, control=91, value=127, time=4)\n",
      "Message('control_change', channel=15, control=93, value=20, time=0)\n",
      "Message('control_change', channel=1, control=101, value=0, time=88)\n",
      "Message('control_change', channel=1, control=100, value=0, time=4)\n",
      "Message('control_change', channel=1, control=6, value=12, time=4)\n",
      "Message('control_change', channel=1, control=101, value=127, time=4)\n",
      "Message('control_change', channel=1, control=100, value=127, time=4)\n",
      "Message('control_change', channel=2, control=101, value=0, time=4)\n",
      "Message('control_change', channel=2, control=100, value=0, time=4)\n",
      "Message('control_change', channel=2, control=6, value=12, time=4)\n",
      "Message('control_change', channel=2, control=101, value=127, time=4)\n",
      "Message('control_change', channel=2, control=100, value=127, time=4)\n",
      "Message('control_change', channel=3, control=101, value=0, time=4)\n",
      "Message('control_change', channel=3, control=100, value=0, time=4)\n",
      "Message('control_change', channel=3, control=6, value=12, time=4)\n",
      "Message('control_change', channel=3, control=101, value=127, time=4)\n",
      "Message('control_change', channel=3, control=100, value=127, time=4)\n",
      "Message('control_change', channel=4, control=101, value=0, time=4)\n",
      "Message('control_change', channel=4, control=100, value=0, time=4)\n",
      "Message('control_change', channel=4, control=6, value=12, time=4)\n",
      "Message('control_change', channel=4, control=101, value=127, time=4)\n",
      "Message('control_change', channel=4, control=100, value=127, time=4)\n",
      "Message('control_change', channel=5, control=101, value=0, time=4)\n",
      "Message('control_change', channel=5, control=100, value=0, time=4)\n",
      "Message('control_change', channel=5, control=6, value=12, time=4)\n",
      "Message('control_change', channel=5, control=101, value=127, time=4)\n",
      "Message('control_change', channel=5, control=100, value=127, time=4)\n",
      "Message('control_change', channel=6, control=101, value=0, time=4)\n",
      "Message('control_change', channel=6, control=100, value=0, time=4)\n",
      "Message('control_change', channel=6, control=6, value=12, time=4)\n",
      "Message('control_change', channel=6, control=101, value=127, time=4)\n",
      "Message('control_change', channel=6, control=100, value=127, time=4)\n",
      "Message('control_change', channel=7, control=101, value=0, time=4)\n",
      "Message('control_change', channel=7, control=100, value=0, time=4)\n",
      "Message('control_change', channel=7, control=6, value=12, time=4)\n",
      "Message('control_change', channel=7, control=101, value=127, time=4)\n",
      "Message('control_change', channel=7, control=100, value=127, time=4)\n",
      "Message('control_change', channel=8, control=101, value=0, time=4)\n",
      "Message('control_change', channel=8, control=100, value=0, time=4)\n",
      "Message('control_change', channel=8, control=6, value=12, time=4)\n",
      "Message('control_change', channel=8, control=101, value=127, time=4)\n",
      "Message('control_change', channel=8, control=100, value=127, time=4)\n",
      "Message('control_change', channel=9, control=101, value=0, time=4)\n",
      "Message('control_change', channel=9, control=100, value=0, time=4)\n",
      "Message('control_change', channel=9, control=6, value=12, time=4)\n",
      "Message('control_change', channel=9, control=101, value=127, time=4)\n",
      "Message('control_change', channel=9, control=100, value=127, time=4)\n",
      "Message('control_change', channel=10, control=101, value=0, time=4)\n",
      "Message('control_change', channel=10, control=100, value=0, time=4)\n",
      "Message('control_change', channel=10, control=6, value=12, time=4)\n",
      "Message('control_change', channel=10, control=101, value=127, time=4)\n",
      "Message('control_change', channel=10, control=100, value=127, time=4)\n",
      "Message('control_change', channel=13, control=101, value=0, time=44)\n",
      "Message('control_change', channel=13, control=100, value=0, time=4)\n",
      "Message('control_change', channel=13, control=6, value=12, time=4)\n",
      "Message('control_change', channel=13, control=101, value=127, time=4)\n",
      "Message('control_change', channel=13, control=100, value=127, time=4)\n",
      "Message('control_change', channel=14, control=101, value=0, time=4)\n",
      "Message('control_change', channel=14, control=100, value=0, time=4)\n",
      "Message('control_change', channel=14, control=6, value=12, time=4)\n",
      "Message('control_change', channel=14, control=101, value=127, time=4)\n",
      "Message('control_change', channel=14, control=100, value=127, time=4)\n",
      "Message('control_change', channel=15, control=101, value=0, time=4)\n",
      "Message('control_change', channel=15, control=100, value=0, time=4)\n",
      "Message('control_change', channel=15, control=6, value=12, time=4)\n",
      "Message('control_change', channel=15, control=101, value=127, time=4)\n",
      "Message('control_change', channel=15, control=100, value=127, time=4)\n",
      "Message('sysex', data=(65, 16, 69, 18, 16, 0, 0, 80, 114, 111, 103, 114, 97, 109, 109, 101, 100, 32, 98, 121, 32, 72, 97, 110, 100, 115, 32, 79, 110, 46, 32, 32, 14), time=365)\n",
      "MetaMessage('set_tempo', tempo=508460, time=87)\n",
      "Message('sysex', data=(65, 16, 69, 18, 16, 1, 0, 3, 20, 20, 23, 30, 22, 23, 20, 3, 2, 2, 2, 2, 3, 0, 0, 16, 31, 25, 25, 25, 25, 25, 0, 27, 10, 10, 10, 10, 26, 0, 0, 28, 23, 22, 22, 23, 28, 0, 3, 24, 8, 8, 8, 8, 8, 0, 0, 0, 31, 0, 0, 31, 31, 31, 31, 0, 0, 0, 0, 0, 0, 0, 0, 71), time=1440)\n",
      "Message('pitchwheel', channel=1, pitch=2944, time=476)\n",
      "Message('pitchwheel', channel=1, pitch=896, time=188)\n",
      "Message('note_on', channel=9, note=50, velocity=106, time=8)\n",
      "Message('note_on', channel=1, note=71, velocity=111, time=0)\n",
      "Message('note_off', channel=9, note=50, velocity=106, time=4)\n",
      "Message('note_off', channel=1, note=71, velocity=111, time=12)\n",
      "Message('note_on', channel=9, note=50, velocity=103, time=80)\n",
      "Message('note_on', channel=1, note=70, velocity=108, time=0)\n",
      "Message('note_off', channel=9, note=50, velocity=103, time=4)\n",
      "Message('note_off', channel=1, note=70, velocity=108, time=12)\n",
      "Message('pitchwheel', channel=1, pitch=0, time=76)\n",
      "Message('note_on', channel=9, note=50, velocity=109, time=100)\n",
      "Message('note_on', channel=1, note=69, velocity=110, time=0)\n",
      "Message('note_off', channel=9, note=50, velocity=109, time=4)\n",
      "Message('note_off', channel=1, note=69, velocity=110, time=12)\n",
      "Message('note_on', channel=9, note=48, velocity=103, time=80)\n",
      "Message('note_on', channel=1, note=68, velocity=107, time=0)\n",
      "Message('note_off', channel=9, note=48, velocity=103, time=4)\n",
      "Message('note_off', channel=1, note=68, velocity=107, time=12)\n",
      "Message('note_on', channel=9, note=47, velocity=107, time=80)\n",
      "Message('note_on', channel=1, note=67, velocity=106, time=0)\n",
      "Message('note_off', channel=9, note=47, velocity=107, time=4)\n",
      "Message('note_off', channel=1, note=67, velocity=106, time=12)\n",
      "Message('pitchwheel', channel=1, pitch=-1664, time=76)\n",
      "Message('note_on', channel=9, note=45, velocity=111, time=4)\n",
      "Message('note_on', channel=1, note=66, velocity=108, time=0)\n",
      "Message('note_off', channel=9, note=45, velocity=111, time=4)\n",
      "Message('note_off', channel=1, note=66, velocity=108, time=12)\n",
      "Message('note_on', channel=9, note=45, velocity=110, time=80)\n",
      "Message('note_on', channel=1, note=65, velocity=110, time=0)\n",
      "Message('note_off', channel=9, note=45, velocity=110, time=4)\n",
      "Message('note_off', channel=1, note=65, velocity=110, time=12)\n",
      "Message('pitchwheel', channel=1, pitch=-2816, time=76)\n",
      "Message('note_on', channel=9, note=43, velocity=111, time=4)\n",
      "Message('note_on', channel=1, note=64, velocity=106, time=0)\n",
      "Message('note_off', channel=9, note=43, velocity=111, time=4)\n",
      "Message('note_off', channel=1, note=64, velocity=106, time=12)\n",
      "Message('note_on', channel=9, note=41, velocity=101, time=80)\n",
      "Message('note_on', channel=1, note=63, velocity=108, time=0)\n",
      "Message('sysex', data=(65, 16, 69, 18, 16, 1, 0, 28, 11, 11, 8, 1, 9, 8, 11, 31, 28, 29, 29, 29, 29, 28, 31, 16, 32, 6, 6, 6, 6, 6, 22, 31, 4, 21, 21, 21, 21, 5, 31, 3, 8, 9, 9, 8, 11, 3, 28, 31, 7, 23, 23, 23, 23, 23, 31, 31, 0, 31, 31, 0, 0, 0, 0, 31, 31, 31, 31, 31, 31, 31, 31, 83), time=0)\n",
      "Message('note_off', channel=9, note=41, velocity=101, time=4)\n",
      "Message('note_off', channel=1, note=63, velocity=108, time=12)\n",
      "Message('note_on', channel=9, note=42, velocity=82, time=80)\n",
      "Message('note_on', channel=9, note=36, velocity=105, time=0)\n",
      "Message('note_on', channel=2, note=27, velocity=106, time=0)\n",
      "Message('note_on', channel=3, note=61, velocity=87, time=0)\n",
      "Message('note_on', channel=3, note=58, velocity=92, time=0)\n",
      "Message('note_on', channel=3, note=65, velocity=92, time=0)\n",
      "Message('note_on', channel=8, note=73, velocity=96, time=0)\n",
      "Message('note_off', channel=9, note=36, velocity=105, time=4)\n",
      "Message('note_off', channel=9, note=42, velocity=82, time=0)\n",
      "Message('note_off', channel=2, note=27, velocity=106, time=84)\n",
      "Message('note_on', channel=9, note=46, velocity=90, time=104)\n",
      "Message('note_on', channel=2, note=27, velocity=106, time=0)\n",
      "Message('note_off', channel=9, note=46, velocity=90, time=4)\n",
      "Message('note_off', channel=2, note=27, velocity=106, time=84)\n",
      "Message('note_on', channel=2, note=27, velocity=107, time=8)\n",
      "Message('note_off', channel=2, note=27, velocity=107, time=88)\n",
      "Message('note_on', channel=9, note=42, velocity=81, time=8)\n",
      "Message('note_on', channel=9, note=38, velocity=101, time=0)\n",
      "Message('note_on', channel=9, note=39, velocity=86, time=0)\n",
      "Message('note_off', channel=9, note=39, velocity=86, time=4)\n",
      "Message('note_off', channel=9, note=38, velocity=101, time=0)\n",
      "Message('note_off', channel=9, note=42, velocity=81, time=0)\n",
      "Message('note_off', channel=3, note=65, velocity=92, time=92)\n",
      "Message('note_off', channel=3, note=58, velocity=92, time=0)\n",
      "Message('note_off', channel=3, note=61, velocity=87, time=0)\n",
      "Message('note_on', channel=2, note=36, velocity=106, time=0)\n",
      "Message('note_off', channel=8, note=73, velocity=96, time=48)\n",
      "Message('note_off', channel=2, note=36, velocity=106, time=40)\n",
      "Message('note_on', channel=9, note=42, velocity=85, time=8)\n",
      "Message('note_on', channel=2, note=34, velocity=109, time=0)\n",
      "Message('note_on', channel=3, note=56, velocity=91, time=0)\n",
      "Message('note_on', channel=3, note=63, velocity=93, time=0)\n",
      "Message('note_on', channel=3, note=60, velocity=87, time=0)\n",
      "Message('note_on', channel=8, note=75, velocity=98, time=0)\n",
      "Message('note_off', channel=9, note=42, velocity=85, time=4)\n",
      "Message('note_off', channel=2, note=34, velocity=109, time=84)\n",
      "Message('note_on', channel=9, note=42, velocity=83, time=8)\n",
      "Message('note_off', channel=9, note=42, velocity=83, time=4)\n",
      "Message('note_on', channel=9, note=42, velocity=84, time=92)\n",
      "Message('note_on', channel=9, note=36, velocity=104, time=0)\n",
      "Message('note_on', channel=2, note=32, velocity=109, time=0)\n",
      "Message('note_off', channel=9, note=36, velocity=104, time=4)\n",
      "Message('note_off', channel=9, note=42, velocity=84, time=0)\n",
      "Message('note_off', channel=2, note=32, velocity=109, time=84)\n",
      "Message('note_on', channel=9, note=46, velocity=91, time=104)\n",
      "Message('note_on', channel=2, note=32, velocity=110, time=0)\n",
      "Message('note_off', channel=9, note=46, velocity=91, time=4)\n",
      "Message('note_off', channel=2, note=32, velocity=110, time=84)\n",
      "Message('note_off', channel=8, note=75, velocity=98, time=56)\n",
      "Message('note_on', channel=9, note=42, velocity=80, time=48)\n",
      "Message('note_on', channel=9, note=38, velocity=108, time=0)\n",
      "Message('note_on', channel=9, note=39, velocity=82, time=0)\n",
      "Message('note_on', channel=8, note=68, velocity=99, time=0)\n",
      "Message('note_off', channel=9, note=39, velocity=82, time=4)\n",
      "Message('note_off', channel=9, note=38, velocity=108, time=0)\n",
      "Message('note_off', channel=9, note=42, velocity=80, time=0)\n",
      "Message('note_on', channel=9, note=46, velocity=92, time=188)\n",
      "Message('note_on', channel=2, note=29, velocity=110, time=0)\n",
      "Message('note_off', channel=9, note=46, velocity=92, time=4)\n",
      "Message('note_off', channel=2, note=29, velocity=110, time=84)\n",
      "Message('note_off', channel=3, note=60, velocity=87, time=8)\n",
      "Message('note_off', channel=3, note=63, velocity=93, time=0)\n",
      "Message('note_off', channel=3, note=56, velocity=91, time=0)\n",
      "Message('note_on', channel=2, note=32, velocity=106, time=0)\n",
      "Message('sysex', data=(65, 16, 69, 18, 16, 1, 0, 0, 3, 20, 20, 23, 30, 22, 23, 20, 3, 2, 2, 2, 2, 3, 0, 0, 16, 31, 25, 25, 25, 25, 25, 0, 27, 10, 10, 10, 10, 26, 0, 0, 28, 23, 22, 22, 23, 28, 0, 3, 24, 8, 8, 8, 8, 8, 0, 0, 0, 31, 0, 0, 31, 31, 31, 31, 0, 0, 0, 0, 0, 0, 0, 71), time=0)\n",
      "Message('note_off', channel=8, note=68, velocity=99, time=64)\n",
      "Message('note_off', channel=2, note=32, velocity=106, time=24)\n",
      "Message('note_on', channel=9, note=42, velocity=82, time=8)\n",
      "Message('note_on', channel=9, note=36, velocity=102, time=0)\n",
      "Message('note_on', channel=2, note=29, velocity=106, time=0)\n",
      "Message('note_on', channel=3, note=60, velocity=88, time=0)\n",
      "Message('note_on', channel=3, note=56, velocity=93, time=0)\n",
      "Message('note_on', channel=3, note=63, velocity=88, time=0)\n",
      "Message('note_on', channel=8, note=75, velocity=94, time=0)\n",
      "Message('note_off', channel=9, note=36, velocity=102, time=4)\n",
      "Message('note_off', channel=9, note=42, velocity=82, time=0)\n",
      "Message('note_off', channel=2, note=29, velocity=106, time=84)\n",
      "Message('note_on', channel=9, note=46, velocity=87, time=104)\n",
      "Message('note_on', channel=2, note=29, velocity=108, time=0)\n",
      "Message('note_off', channel=9, note=46, velocity=87, time=4)\n",
      "Message('note_off', channel=2, note=29, velocity=108, time=84)\n",
      "Message('note_on', channel=2, note=29, velocity=110, time=8)\n",
      "Message('note_off', channel=2, note=29, velocity=110, time=88)\n",
      "Message('note_on', channel=9, note=42, velocity=85, time=8)\n",
      "Message('note_on', channel=9, note=38, velocity=101, time=0)\n",
      "Message('note_on', channel=9, note=39, velocity=87, time=0)\n",
      "Message('note_off', channel=9, note=39, velocity=87, time=4)\n",
      "Message('note_off', channel=9, note=38, velocity=101, time=0)\n",
      "Message('note_off', channel=9, note=42, velocity=85, time=0)\n",
      "Message('note_off', channel=3, note=63, velocity=88, time=92)\n",
      "Message('note_off', channel=3, note=56, velocity=93, time=0)\n",
      "Message('note_off', channel=3, note=60, velocity=88, time=0)\n",
      "Message('note_on', channel=2, note=36, velocity=106, time=0)\n",
      "Message('note_off', channel=8, note=75, velocity=94, time=48)\n",
      "Message('note_off', channel=2, note=36, velocity=106, time=40)\n",
      "Message('note_on', channel=9, note=46, velocity=90, time=8)\n",
      "Message('note_on', channel=2, note=34, velocity=110, time=0)\n",
      "Message('note_on', channel=3, note=61, velocity=92, time=0)\n",
      "Message('note_on', channel=3, note=65, velocity=90, time=0)\n",
      "Message('note_on', channel=3, note=58, velocity=88, time=0)\n",
      "Message('note_on', channel=8, note=77, velocity=99, time=0)\n",
      "Message('note_off', channel=9, note=46, velocity=90, time=4)\n",
      "Message('note_off', channel=2, note=34, velocity=110, time=84)\n",
      "Message('note_on', channel=9, note=42, velocity=81, time=104)\n",
      "Message('note_on', channel=9, note=36, velocity=103, time=0)\n",
      "Message('note_off', channel=9, note=36, velocity=103, time=4)\n",
      "Message('note_off', channel=9, note=42, velocity=81, time=0)\n",
      "Message('note_on', channel=9, note=46, velocity=92, time=188)\n",
      "Message('note_on', channel=2, note=34, velocity=107, time=0)\n",
      "Message('note_off', channel=9, note=46, velocity=92, time=4)\n",
      "Message('note_off', channel=2, note=34, velocity=107, time=84)\n",
      "Message('note_on', channel=2, note=34, velocity=107, time=8)\n",
      "Message('note_off', channel=8, note=77, velocity=99, time=48)\n",
      "Message('note_off', channel=2, note=34, velocity=107, time=40)\n",
      "Message('note_on', channel=9, note=42, velocity=81, time=8)\n",
      "Message('note_on', channel=9, note=38, velocity=105, time=0)\n",
      "Message('note_on', channel=9, note=39, velocity=85, time=0)\n",
      "Message('note_on', channel=2, note=34, velocity=106, time=0)\n",
      "Message('note_on', channel=8, note=80, velocity=98, time=0)\n",
      "Message('note_off', channel=9, note=39, velocity=85, time=4)\n",
      "Message('note_off', channel=9, note=38, velocity=105, time=0)\n",
      "Message('note_off', channel=9, note=42, velocity=81, time=0)\n",
      "Message('note_off', channel=8, note=80, velocity=98, time=84)\n",
      "Message('note_off', channel=2, note=34, velocity=106, time=0)\n",
      "Message('note_on', channel=2, note=36, velocity=111, time=8)\n",
      "Message('note_on', channel=8, note=78, velocity=97, time=0)\n",
      "Message('note_off', channel=8, note=78, velocity=97, time=88)\n",
      "Message('note_off', channel=2, note=36, velocity=111, time=0)\n",
      "Message('note_on', channel=9, note=46, velocity=87, time=8)\n",
      "Message('note_on', channel=8, note=77, velocity=97, time=0)\n",
      "Message('note_off', channel=9, note=46, velocity=87, time=4)\n",
      "Message('note_off', channel=8, note=77, velocity=97, time=84)\n",
      "Message('note_off', channel=3, note=58, velocity=88, time=8)\n",
      "Message('note_off', channel=3, note=65, velocity=90, time=0)\n",
      "Message('note_off', channel=3, note=61, velocity=92, time=0)\n",
      "Message('note_on', channel=2, note=34, velocity=108, time=0)\n",
      "Message('note_on', channel=8, note=73, velocity=98, time=0)\n",
      "Message('sysex', data=(65, 16, 69, 18, 16, 1, 0, 28, 11, 11, 8, 1, 9, 8, 11, 31, 28, 29, 29, 29, 29, 28, 31, 16, 32, 6, 6, 6, 6, 6, 22, 31, 4, 21, 21, 21, 21, 5, 31, 3, 8, 9, 9, 8, 11, 3, 28, 31, 7, 23, 23, 23, 23, 23, 31, 31, 0, 31, 31, 0, 0, 0, 0, 31, 31, 31, 31, 31, 31, 31, 31, 83), time=0)\n",
      "Message('note_off', channel=2, note=34, velocity=108, time=88)\n",
      "Message('note_on', channel=9, note=42, velocity=81, time=8)\n",
      "Message('note_on', channel=9, note=36, velocity=101, time=0)\n",
      "Message('note_on', channel=2, note=27, velocity=107, time=0)\n",
      "Message('note_on', channel=3, note=61, velocity=91, time=0)\n",
      "Message('note_on', channel=3, note=58, velocity=92, time=0)\n",
      "Message('note_on', channel=3, note=65, velocity=91, time=0)\n",
      "Message('note_off', channel=9, note=36, velocity=101, time=4)\n",
      "Message('note_off', channel=9, note=42, velocity=81, time=0)\n",
      "Message('note_off', channel=2, note=27, velocity=107, time=84)\n",
      "Message('note_on', channel=9, note=46, velocity=87, time=104)\n",
      "Message('note_on', channel=2, note=27, velocity=111, time=0)\n",
      "Message('note_off', channel=9, note=46, velocity=87, time=4)\n",
      "Message('note_off', channel=2, note=27, velocity=111, time=84)\n",
      "Message('note_on', channel=2, note=27, velocity=110, time=8)\n",
      "Message('note_off', channel=2, note=27, velocity=110, time=88)\n",
      "Message('note_on', channel=9, note=42, velocity=82, time=8)\n",
      "Message('note_on', channel=9, note=38, velocity=107, time=0)\n",
      "Message('note_on', channel=9, note=39, velocity=81, time=0)\n",
      "Message('note_off', channel=9, note=39, velocity=81, time=4)\n",
      "Message('note_off', channel=9, note=38, velocity=107, time=0)\n",
      "Message('note_off', channel=9, note=42, velocity=82, time=0)\n",
      "Message('note_off', channel=3, note=65, velocity=91, time=92)\n",
      "Message('note_off', channel=3, note=58, velocity=92, time=0)\n",
      "Message('note_off', channel=3, note=61, velocity=91, time=0)\n",
      "Message('note_on', channel=2, note=36, velocity=110, time=0)\n",
      "Message('note_off', channel=8, note=73, velocity=98, time=48)\n",
      "Message('note_off', channel=2, note=36, velocity=110, time=40)\n",
      "Message('note_on', channel=9, note=42, velocity=82, time=8)\n",
      "Message('note_on', channel=2, note=34, velocity=110, time=0)\n",
      "Message('note_on', channel=3, note=56, velocity=89, time=0)\n",
      "Message('note_on', channel=3, note=63, velocity=93, time=0)\n",
      "Message('note_on', channel=3, note=60, velocity=86, time=0)\n",
      "Message('note_on', channel=8, note=75, velocity=96, time=0)\n",
      "Message('note_off', channel=9, note=42, velocity=82, time=4)\n",
      "Message('note_off', channel=2, note=34, velocity=110, time=84)\n",
      "Message('note_on', channel=9, note=42, velocity=81, time=8)\n",
      "Message('note_off', channel=9, note=42, velocity=81, time=4)\n",
      "Message('note_on', channel=9, note=42, velocity=82, time=92)\n",
      "Message('note_on', channel=9, note=36, velocity=109, time=0)\n",
      "Message('note_on', channel=2, note=32, velocity=108, time=0)\n",
      "Message('note_off', channel=9, note=36, velocity=109, time=4)\n",
      "Message('note_off', channel=9, note=42, velocity=82, time=0)\n",
      "Message('note_off', channel=2, note=32, velocity=108, time=84)\n",
      "Message('note_on', channel=9, note=46, velocity=87, time=104)\n",
      "Message('note_on', channel=2, note=32, velocity=110, time=0)\n",
      "Message('note_off', channel=9, note=46, velocity=87, time=4)\n",
      "Message('note_off', channel=2, note=32, velocity=110, time=84)\n",
      "Message('note_off', channel=8, note=75, velocity=96, time=56)\n",
      "Message('note_on', channel=9, note=42, velocity=85, time=48)\n",
      "Message('note_on', channel=9, note=38, velocity=107, time=0)\n",
      "Message('note_on', channel=9, note=39, velocity=85, time=0)\n",
      "Message('note_on', channel=8, note=68, velocity=96, time=0)\n",
      "Message('note_off', channel=9, note=39, velocity=85, time=4)\n",
      "Message('note_off', channel=9, note=38, velocity=107, time=0)\n",
      "Message('note_off', channel=9, note=42, velocity=85, time=0)\n",
      "Message('note_on', channel=9, note=46, velocity=89, time=188)\n",
      "Message('note_on', channel=2, note=32, velocity=110, time=0)\n",
      "Message('note_off', channel=9, note=46, velocity=89, time=4)\n",
      "Message('note_off', channel=2, note=32, velocity=110, time=84)\n",
      "Message('note_off', channel=3, note=60, velocity=86, time=8)\n",
      "Message('note_off', channel=3, note=63, velocity=93, time=0)\n",
      "Message('note_off', channel=3, note=56, velocity=89, time=0)\n",
      "Message('note_on', channel=2, note=32, velocity=111, time=0)\n",
      "Message('sysex', data=(65, 16, 69, 18, 16, 1, 0, 0, 3, 20, 20, 23, 30, 22, 23, 20, 3, 2, 2, 2, 2, 3, 0, 0, 16, 31, 25, 25, 25, 25, 25, 0, 27, 10, 10, 10, 10, 26, 0, 0, 28, 23, 22, 22, 23, 28, 0, 3, 24, 8, 8, 8, 8, 8, 0, 0, 0, 31, 0, 0, 31, 31, 31, 31, 0, 0, 0, 0, 0, 0, 0, 71), time=0)\n",
      "Message('note_off', channel=2, note=32, velocity=111, time=88)\n",
      "Message('note_on', channel=9, note=42, velocity=82, time=8)\n",
      "Message('note_on', channel=9, note=36, velocity=105, time=0)\n",
      "Message('note_on', channel=2, note=29, velocity=109, time=0)\n",
      "Message('note_on', channel=3, note=56, velocity=91, time=0)\n",
      "Message('note_on', channel=3, note=60, velocity=90, time=0)\n",
      "Message('note_on', channel=3, note=63, velocity=89, time=0)\n",
      "Message('note_off', channel=9, note=36, velocity=105, time=4)\n",
      "Message('note_off', channel=9, note=42, velocity=82, time=0)\n",
      "Message('note_off', channel=2, note=29, velocity=109, time=84)\n",
      "Message('note_on', channel=9, note=46, velocity=88, time=104)\n",
      "Message('note_on', channel=2, note=29, velocity=108, time=0)\n",
      "Message('note_off', channel=9, note=46, velocity=88, time=4)\n",
      "Message('note_off', channel=2, note=29, velocity=108, time=84)\n",
      "Message('note_on', channel=2, note=29, velocity=110, time=8)\n",
      "Message('note_off', channel=2, note=29, velocity=110, time=88)\n",
      "Message('note_on', channel=9, note=42, velocity=80, time=8)\n",
      "Message('note_on', channel=9, note=38, velocity=104, time=0)\n",
      "Message('note_on', channel=9, note=39, velocity=86, time=0)\n",
      "Message('note_off', channel=9, note=39, velocity=86, time=4)\n",
      "Message('note_off', channel=9, note=38, velocity=104, time=0)\n",
      "Message('note_off', channel=9, note=42, velocity=80, time=0)\n",
      "Message('note_off', channel=3, note=63, velocity=89, time=92)\n",
      "Message('note_off', channel=3, note=60, velocity=90, time=0)\n",
      "Message('note_off', channel=3, note=56, velocity=91, time=0)\n",
      "Message('note_on', channel=2, note=36, velocity=111, time=0)\n",
      "Message('note_off', channel=2, note=36, velocity=111, time=88)\n",
      "Message('note_on', channel=9, note=46, velocity=90, time=8)\n",
      "Message('note_on', channel=2, note=34, velocity=111, time=0)\n",
      "Message('note_on', channel=3, note=58, velocity=87, time=0)\n",
      "Message('note_on', channel=3, note=61, velocity=86, time=0)\n",
      "Message('note_on', channel=3, note=65, velocity=88, time=0)\n",
      "Message('note_off', channel=9, note=46, velocity=90, time=4)\n",
      "Message('note_off', channel=2, note=34, velocity=111, time=84)\n",
      "Message('note_on', channel=9, note=42, velocity=82, time=104)\n",
      "Message('note_on', channel=9, note=36, velocity=107, time=0)\n",
      "Message('note_off', channel=9, note=36, velocity=107, time=4)\n",
      "Message('note_off', channel=9, note=42, velocity=82, time=0)\n",
      "Message('note_off', channel=8, note=68, velocity=96, time=140)\n",
      "Message('note_on', channel=9, note=46, velocity=89, time=48)\n",
      "Message('note_on', channel=2, note=32, velocity=111, time=0)\n",
      "Message('note_off', channel=9, note=46, velocity=89, time=4)\n",
      "Message('note_off', channel=2, note=32, velocity=111, time=84)\n",
      "Message('note_on', channel=9, note=42, velocity=82, time=104)\n",
      "Message('note_on', channel=9, note=38, velocity=103, time=0)\n",
      "Message('note_on', channel=9, note=39, velocity=85, time=0)\n",
      "Message('note_on', channel=2, note=32, velocity=107, time=0)\n",
      "Message('note_on', channel=7, note=58, velocity=95, time=0)\n",
      "Message('note_on', channel=7, note=70, velocity=113, time=0)\n",
      "Message('note_on', channel=8, note=80, velocity=94, time=0)\n",
      "Message('note_off', channel=9, note=39, velocity=85, time=4)\n",
      "Message('note_off', channel=9, note=38, velocity=103, time=0)\n",
      "Message('note_off', channel=9, note=42, velocity=82, time=0)\n",
      "Message('note_off', channel=7, note=70, velocity=113, time=60)\n",
      "Message('note_off', channel=7, note=58, velocity=95, time=0)\n",
      "Message('note_off', channel=8, note=80, velocity=94, time=24)\n",
      "Message('note_off', channel=2, note=32, velocity=107, time=0)\n",
      "Message('note_on', channel=2, note=32, velocity=106, time=8)\n",
      "Message('note_on', channel=7, note=61, velocity=89, time=0)\n",
      "Message('note_on', channel=7, note=73, velocity=113, time=0)\n",
      "Message('note_on', channel=8, note=78, velocity=97, time=0)\n",
      "Message('note_off', channel=7, note=73, velocity=113, time=64)\n",
      "Message('note_off', channel=7, note=61, velocity=89, time=0)\n",
      "Message('note_off', channel=8, note=78, velocity=97, time=24)\n",
      "Message('note_off', channel=2, note=32, velocity=106, time=0)\n",
      "Message('note_on', channel=9, note=46, velocity=91, time=8)\n",
      "Message('note_on', channel=7, note=58, velocity=89, time=0)\n",
      "Message('note_on', channel=7, note=70, velocity=117, time=0)\n",
      "Message('note_on', channel=8, note=77, velocity=95, time=0)\n",
      "Message('note_off', channel=9, note=46, velocity=91, time=4)\n",
      "Message('note_off', channel=7, note=70, velocity=117, time=60)\n",
      "Message('note_off', channel=7, note=58, velocity=89, time=0)\n",
      "Message('note_off', channel=8, note=77, velocity=95, time=24)\n",
      "Message('note_off', channel=3, note=65, velocity=88, time=8)\n",
      "Message('note_off', channel=3, note=61, velocity=86, time=0)\n",
      "Message('note_off', channel=3, note=58, velocity=87, time=0)\n",
      "Message('note_on', channel=2, note=37, velocity=111, time=0)\n",
      "Message('note_on', channel=7, note=61, velocity=91, time=0)\n",
      "Message('note_on', channel=7, note=73, velocity=118, time=0)\n",
      "Message('note_on', channel=8, note=73, velocity=98, time=0)\n",
      "Message('note_off', channel=7, note=73, velocity=118, time=64)\n",
      "Message('note_off', channel=7, note=61, velocity=91, time=0)\n",
      "Message('note_off', channel=2, note=37, velocity=111, time=24)\n",
      "Message('note_on', channel=9, note=42, velocity=84, time=8)\n",
      "Message('note_on', channel=9, note=36, velocity=101, time=0)\n",
      "Message('note_on', channel=2, note=27, velocity=107, time=0)\n",
      "Message('note_on', channel=3, note=61, velocity=89, time=0)\n",
      "Message('note_on', channel=3, note=58, velocity=93, time=0)\n",
      "Message('note_on', channel=3, note=65, velocity=90, time=0)\n",
      "Message('note_on', channel=14, note=68, velocity=81, time=0)\n",
      "Message('note_off', channel=9, note=36, velocity=101, time=4)\n",
      "Message('note_off', channel=9, note=42, velocity=84, time=0)\n",
      "Message('note_off', channel=2, note=27, velocity=107, time=84)\n",
      "Message('note_on', channel=9, note=46, velocity=87, time=104)\n",
      "Message('note_on', channel=2, note=27, velocity=107, time=0)\n",
      "Message('note_off', channel=9, note=46, velocity=87, time=4)\n",
      "Message('note_off', channel=2, note=27, velocity=107, time=84)\n",
      "Message('note_on', channel=2, note=27, velocity=110, time=8)\n",
      "Message('note_off', channel=2, note=27, velocity=110, time=88)\n",
      "Message('note_off', channel=3, note=65, velocity=90, time=8)\n",
      "Message('note_off', channel=3, note=58, velocity=93, time=0)\n",
      "Message('note_off', channel=3, note=61, velocity=89, time=0)\n",
      "Message('note_on', channel=9, note=42, velocity=84, time=0)\n",
      "Message('note_on', channel=9, note=38, velocity=104, time=0)\n",
      "Message('note_on', channel=9, note=39, velocity=83, time=0)\n",
      "Message('note_off', channel=9, note=39, velocity=83, time=4)\n",
      "Message('note_off', channel=9, note=38, velocity=104, time=0)\n",
      "Message('note_off', channel=9, note=42, velocity=84, time=0)\n",
      "Message('note_on', channel=2, note=36, velocity=110, time=92)\n",
      "Message('note_off', channel=8, note=73, velocity=98, time=48)\n",
      "Message('note_off', channel=2, note=36, velocity=110, time=40)\n",
      "Message('note_on', channel=9, note=42, velocity=85, time=8)\n",
      "Message('note_on', channel=2, note=34, velocity=111, time=0)\n",
      "Message('note_on', channel=3, note=56, velocity=93, time=0)\n",
      "Message('note_on', channel=3, note=63, velocity=87, time=0)\n",
      "Message('note_on', channel=3, note=60, velocity=93, time=0)\n",
      "Message('note_on', channel=8, note=75, velocity=94, time=0)\n",
      "Message('note_off', channel=9, note=42, velocity=85, time=4)\n",
      "Message('note_off', channel=2, note=34, velocity=111, time=84)\n",
      "Message('note_on', channel=9, note=42, velocity=82, time=8)\n",
      "Message('note_off', channel=9, note=42, velocity=82, time=4)\n",
      "Message('note_on', channel=9, note=42, velocity=82, time=92)\n",
      "Message('note_on', channel=9, note=36, velocity=104, time=0)\n",
      "Message('note_on', channel=2, note=32, velocity=107, time=0)\n",
      "Message('note_off', channel=9, note=36, velocity=104, time=4)\n",
      "Message('note_off', channel=9, note=42, velocity=82, time=0)\n",
      "Message('note_off', channel=2, note=32, velocity=107, time=84)\n",
      "Message('note_on', channel=9, note=46, velocity=89, time=104)\n",
      "Message('note_on', channel=2, note=32, velocity=106, time=0)\n",
      "Message('note_off', channel=9, note=46, velocity=89, time=4)\n",
      "Message('note_off', channel=2, note=32, velocity=106, time=84)\n",
      "Message('note_off', channel=8, note=75, velocity=94, time=56)\n",
      "Message('note_on', channel=9, note=42, velocity=85, time=48)\n",
      "Message('note_on', channel=9, note=38, velocity=103, time=0)\n",
      "Message('note_on', channel=9, note=39, velocity=86, time=0)\n",
      "Message('note_on', channel=8, note=68, velocity=98, time=0)\n",
      "Message('note_off', channel=9, note=39, velocity=86, time=4)\n",
      "Message('note_off', channel=9, note=38, velocity=103, time=0)\n",
      "Message('note_off', channel=9, note=42, velocity=85, time=0)\n",
      "Message('note_off', channel=14, note=68, velocity=81, time=76)\n",
      "Message('note_on', channel=14, note=66, velocity=79, time=16)\n",
      "Message('note_off', channel=14, note=66, velocity=79, time=88)\n",
      "Message('note_on', channel=9, note=46, velocity=92, time=8)\n",
      "Message('note_on', channel=2, note=29, velocity=109, time=0)\n",
      "Message('note_on', channel=14, note=65, velocity=76, time=0)\n",
      "Message('note_off', channel=9, note=46, velocity=92, time=4)\n",
      "Message('note_off', channel=14, note=65, velocity=76, time=84)\n",
      "Message('note_off', channel=2, note=29, velocity=109, time=0)\n",
      "Message('note_off', channel=3, note=60, velocity=93, time=8)\n",
      "Message('note_off', channel=3, note=63, velocity=87, time=0)\n",
      "Message('note_off', channel=3, note=56, velocity=93, time=0)\n",
      "Message('note_on', channel=2, note=32, velocity=111, time=0)\n",
      "Message('note_on', channel=14, note=63, velocity=80, time=0)\n",
      "Message('note_off', channel=8, note=68, velocity=98, time=64)\n",
      "Message('note_off', channel=14, note=63, velocity=80, time=24)\n",
      "Message('note_off', channel=2, note=32, velocity=111, time=0)\n",
      "Message('note_on', channel=9, note=42, velocity=82, time=8)\n",
      "Message('note_on', channel=9, note=36, velocity=108, time=0)\n",
      "Message('note_on', channel=2, note=29, velocity=111, time=0)\n",
      "Message('note_on', channel=3, note=56, velocity=88, time=0)\n",
      "Message('note_on', channel=3, note=60, velocity=87, time=0)\n",
      "Message('note_on', channel=3, note=63, velocity=93, time=0)\n",
      "Message('note_on', channel=8, note=75, velocity=96, time=0)\n",
      "Message('note_on', channel=14, note=65, velocity=82, time=0)\n",
      "Message('note_off', channel=9, note=36, velocity=108, time=4)\n",
      "Message('note_off', channel=9, note=42, velocity=82, time=0)\n",
      "Message('note_off', channel=2, note=29, velocity=111, time=84)\n",
      "Message('note_on', channel=9, note=46, velocity=91, time=104)\n",
      "Message('note_on', channel=2, note=29, velocity=109, time=0)\n",
      "Message('note_off', channel=9, note=46, velocity=91, time=4)\n",
      "Message('note_off', channel=2, note=29, velocity=109, time=84)\n",
      "Message('note_on', channel=2, note=29, velocity=110, time=8)\n",
      "Message('note_off', channel=2, note=29, velocity=110, time=88)\n",
      "Message('note_off', channel=3, note=63, velocity=93, time=8)\n",
      "Message('note_off', channel=3, note=60, velocity=87, time=0)\n",
      "Message('note_off', channel=3, note=56, velocity=88, time=0)\n",
      "Message('note_on', channel=9, note=42, velocity=85, time=0)\n",
      "Message('note_on', channel=9, note=38, velocity=105, time=0)\n",
      "Message('note_on', channel=9, note=39, velocity=85, time=0)\n",
      "Message('note_off', channel=9, note=39, velocity=85, time=4)\n",
      "Message('note_off', channel=9, note=38, velocity=105, time=0)\n",
      "Message('note_off', channel=9, note=42, velocity=85, time=0)\n",
      "Message('note_on', channel=2, note=36, velocity=107, time=92)\n",
      "Message('note_off', channel=8, note=75, velocity=96, time=48)\n",
      "Message('note_off', channel=2, note=36, velocity=107, time=40)\n",
      "Message('note_on', channel=9, note=46, velocity=90, time=8)\n",
      "Message('note_on', channel=2, note=34, velocity=111, time=0)\n",
      "Message('note_on', channel=3, note=61, velocity=91, time=0)\n",
      "Message('note_on', channel=3, note=58, velocity=89, time=0)\n",
      "Message('note_on', channel=3, note=65, velocity=90, time=0)\n",
      "Message('note_on', channel=8, note=77, velocity=95, time=0)\n",
      "Message('note_off', channel=9, note=46, velocity=90, time=4)\n",
      "Message('note_off', channel=2, note=34, velocity=111, time=84)\n",
      "Message('note_on', channel=9, note=42, velocity=82, time=104)\n",
      "Message('note_on', channel=9, note=36, velocity=102, time=0)\n",
      "Message('note_off', channel=9, note=36, velocity=102, time=4)\n",
      "Message('note_off', channel=9, note=42, velocity=82, time=0)\n",
      "Message('note_on', channel=9, note=46, velocity=88, time=188)\n",
      "Message('note_on', channel=2, note=34, velocity=108, time=0)\n",
      "Message('note_off', channel=9, note=46, velocity=88, time=4)\n",
      "Message('note_off', channel=2, note=34, velocity=108, time=84)\n",
      "Message('note_on', channel=2, note=34, velocity=107, time=8)\n",
      "Message('note_off', channel=8, note=77, velocity=95, time=48)\n",
      "Message('note_off', channel=14, note=65, velocity=82, time=32)\n",
      "Message('note_off', channel=2, note=34, velocity=107, time=8)\n",
      "Message('note_on', channel=9, note=42, velocity=82, time=8)\n",
      "Message('note_on', channel=9, note=38, velocity=105, time=0)\n",
      "Message('note_on', channel=9, note=39, velocity=82, time=0)\n",
      "Message('note_on', channel=2, note=34, velocity=108, time=0)\n",
      "Message('note_on', channel=8, note=80, velocity=98, time=0)\n",
      "Message('note_off', channel=9, note=39, velocity=82, time=4)\n",
      "Message('note_off', channel=9, note=38, velocity=105, time=0)\n",
      "Message('note_off', channel=9, note=42, velocity=82, time=0)\n",
      "Message('note_off', channel=8, note=80, velocity=98, time=84)\n",
      "Message('note_off', channel=2, note=34, velocity=108, time=0)\n",
      "Message('note_on', channel=2, note=36, velocity=107, time=8)\n",
      "Message('note_on', channel=8, note=78, velocity=95, time=0)\n",
      "Message('note_off', channel=8, note=78, velocity=95, time=88)\n",
      "Message('note_off', channel=2, note=36, velocity=107, time=0)\n",
      "Message('note_on', channel=9, note=46, velocity=90, time=8)\n",
      "Message('note_on', channel=8, note=77, velocity=97, time=0)\n",
      "Message('note_off', channel=9, note=46, velocity=90, time=4)\n",
      "Message('note_off', channel=8, note=77, velocity=97, time=84)\n",
      "Message('note_off', channel=3, note=65, velocity=90, time=8)\n",
      "Message('note_off', channel=3, note=58, velocity=89, time=0)\n",
      "Message('note_off', channel=3, note=61, velocity=91, time=0)\n",
      "Message('note_on', channel=2, note=34, velocity=110, time=0)\n",
      "Message('note_on', channel=8, note=73, velocity=94, time=0)\n",
      "Message('note_off', channel=2, note=34, velocity=110, time=88)\n",
      "Message('note_on', channel=9, note=42, velocity=81, time=8)\n",
      "Message('note_on', channel=9, note=36, velocity=103, time=0)\n",
      "Message('note_on', channel=2, note=27, velocity=109, time=0)\n",
      "Message('note_on', channel=3, note=61, velocity=89, time=0)\n",
      "Message('note_on', channel=3, note=58, velocity=87, time=0)\n",
      "Message('note_on', channel=3, note=65, velocity=87, time=0)\n",
      "Message('note_off', channel=9, note=36, velocity=103, time=4)\n",
      "Message('note_off', channel=9, note=42, velocity=81, time=0)\n",
      "Message('note_off', channel=2, note=27, velocity=109, time=84)\n",
      "Message('note_on', channel=9, note=46, velocity=91, time=104)\n",
      "Message('note_on', channel=2, note=27, velocity=109, time=0)\n",
      "Message('note_off', channel=9, note=46, velocity=91, time=4)\n",
      "Message('note_off', channel=2, note=27, velocity=109, time=84)\n",
      "Message('note_on', channel=2, note=27, velocity=111, time=8)\n",
      "Message('note_off', channel=2, note=27, velocity=111, time=88)\n",
      "Message('note_off', channel=3, note=65, velocity=87, time=8)\n",
      "Message('note_off', channel=3, note=58, velocity=87, time=0)\n",
      "Message('note_off', channel=3, note=61, velocity=89, time=0)\n",
      "Message('note_on', channel=9, note=42, velocity=82, time=0)\n",
      "Message('note_on', channel=9, note=38, velocity=106, time=0)\n",
      "Message('note_on', channel=9, note=39, velocity=81, time=0)\n",
      "Message('note_off', channel=9, note=39, velocity=81, time=4)\n",
      "Message('note_off', channel=9, note=38, velocity=106, time=0)\n",
      "Message('note_off', channel=9, note=42, velocity=82, time=0)\n",
      "Message('note_on', channel=2, note=36, velocity=106, time=92)\n",
      "Message('note_off', channel=8, note=73, velocity=94, time=48)\n",
      "Message('note_off', channel=2, note=36, velocity=106, time=40)\n",
      "Message('note_on', channel=9, note=42, velocity=82, time=8)\n",
      "Message('note_on', channel=2, note=34, velocity=108, time=0)\n",
      "Message('note_on', channel=3, note=56, velocity=90, time=0)\n",
      "Message('note_on', channel=3, note=60, velocity=91, time=0)\n",
      "Message('note_on', channel=3, note=63, velocity=91, time=0)\n",
      "Message('note_on', channel=8, note=75, velocity=95, time=0)\n",
      "Message('note_off', channel=9, note=42, velocity=82, time=4)\n",
      "Message('note_off', channel=2, note=34, velocity=108, time=84)\n",
      "Message('note_on', channel=9, note=42, velocity=84, time=8)\n",
      "Message('note_off', channel=9, note=42, velocity=84, time=4)\n",
      "Message('note_on', channel=9, note=42, velocity=84, time=92)\n",
      "Message('note_on', channel=9, note=36, velocity=105, time=0)\n",
      "Message('note_on', channel=2, note=32, velocity=107, time=0)\n",
      "Message('note_off', channel=9, note=36, velocity=105, time=4)\n",
      "Message('note_off', channel=9, note=42, velocity=84, time=0)\n",
      "Message('note_off', channel=2, note=32, velocity=107, time=84)\n",
      "Message('note_on', channel=9, note=46, velocity=92, time=104)\n",
      "Message('note_on', channel=2, note=32, velocity=109, time=0)\n",
      "Message('note_off', channel=9, note=46, velocity=92, time=4)\n",
      "Message('note_off', channel=2, note=32, velocity=109, time=84)\n",
      "Message('note_off', channel=8, note=75, velocity=95, time=56)\n",
      "Message('note_on', channel=9, note=42, velocity=83, time=48)\n",
      "Message('note_on', channel=9, note=38, velocity=109, time=0)\n",
      "Message('note_on', channel=9, note=39, velocity=86, time=0)\n",
      "Message('note_on', channel=8, note=68, velocity=98, time=0)\n",
      "Message('note_off', channel=9, note=39, velocity=86, time=4)\n",
      "Message('note_off', channel=9, note=38, velocity=109, time=0)\n",
      "Message('note_off', channel=9, note=42, velocity=83, time=0)\n",
      "Message('note_on', channel=9, note=46, velocity=90, time=188)\n",
      "Message('note_on', channel=2, note=32, velocity=107, time=0)\n",
      "Message('note_off', channel=9, note=46, velocity=90, time=4)\n",
      "Message('note_off', channel=2, note=32, velocity=107, time=84)\n",
      "Message('note_off', channel=3, note=63, velocity=91, time=8)\n",
      "Message('note_off', channel=3, note=60, velocity=91, time=0)\n",
      "Message('note_off', channel=3, note=56, velocity=90, time=0)\n",
      "Message('note_on', channel=2, note=32, velocity=111, time=0)\n",
      "Message('note_off', channel=2, note=32, velocity=111, time=88)\n",
      "Message('note_on', channel=9, note=42, velocity=85, time=8)\n",
      "Message('note_on', channel=9, note=36, velocity=106, time=0)\n",
      "Message('note_on', channel=2, note=29, velocity=110, time=0)\n",
      "Message('note_off', channel=9, note=36, velocity=106, time=4)\n",
      "Message('note_off', channel=9, note=42, velocity=85, time=0)\n",
      "Message('note_off', channel=2, note=29, velocity=110, time=84)\n",
      "Message('note_on', channel=9, note=46, velocity=92, time=104)\n",
      "Message('note_on', channel=2, note=29, velocity=108, time=0)\n",
      "Message('note_on', channel=3, note=58, velocity=89, time=0)\n",
      "Message('note_on', channel=3, note=61, velocity=90, time=0)\n",
      "Message('note_on', channel=3, note=65, velocity=91, time=0)\n",
      "Message('note_off', channel=9, note=46, velocity=92, time=4)\n",
      "Message('note_off', channel=2, note=29, velocity=108, time=84)\n",
      "Message('note_off', channel=3, note=65, velocity=91, time=8)\n",
      "Message('note_off', channel=3, note=61, velocity=90, time=0)\n",
      "Message('note_off', channel=3, note=58, velocity=89, time=0)\n",
      "Message('note_on', channel=2, note=29, velocity=109, time=0)\n",
      "Message('note_off', channel=2, note=29, velocity=109, time=88)\n",
      "Message('note_on', channel=9, note=42, velocity=85, time=8)\n",
      "Message('note_on', channel=9, note=38, velocity=106, time=0)\n",
      "Message('note_on', channel=9, note=39, velocity=82, time=0)\n",
      "Message('note_on', channel=3, note=58, velocity=93, time=0)\n",
      "Message('note_on', channel=3, note=61, velocity=89, time=0)\n",
      "Message('note_on', channel=3, note=65, velocity=86, time=0)\n",
      "Message('note_off', channel=9, note=39, velocity=82, time=4)\n",
      "Message('note_off', channel=9, note=38, velocity=106, time=0)\n",
      "Message('note_off', channel=9, note=42, velocity=85, time=0)\n",
      "Message('note_on', channel=2, note=36, velocity=106, time=92)\n",
      "Message('note_off', channel=2, note=36, velocity=106, time=88)\n",
      "Message('note_on', channel=9, note=46, velocity=87, time=8)\n",
      "Message('note_on', channel=2, note=34, velocity=107, time=0)\n",
      "Message('note_off', channel=9, note=46, velocity=87, time=4)\n",
      "Message('note_off', channel=2, note=34, velocity=107, time=84)\n",
      "Message('note_on', channel=9, note=42, velocity=83, time=104)\n",
      "Message('note_on', channel=9, note=36, velocity=101, time=0)\n",
      "Message('note_on', channel=9, note=45, velocity=80, time=0)\n",
      "Message('note_on', channel=9, note=39, velocity=82, time=0)\n",
      "Message('note_off', channel=9, note=39, velocity=82, time=4)\n",
      "Message('note_off', channel=9, note=45, velocity=80, time=0)\n",
      "Message('note_off', channel=9, note=36, velocity=101, time=0)\n",
      "Message('note_off', channel=9, note=42, velocity=83, time=0)\n",
      "Message('note_on', channel=9, note=45, velocity=82, time=92)\n",
      "Message('note_on', channel=9, note=39, velocity=85, time=0)\n",
      "Message('note_off', channel=9, note=39, velocity=85, time=4)\n",
      "Message('note_off', channel=9, note=45, velocity=82, time=0)\n",
      "Message('note_on', channel=9, note=46, velocity=90, time=92)\n",
      "Message('note_on', channel=9, note=43, velocity=81, time=0)\n",
      "Message('note_on', channel=2, note=32, velocity=107, time=0)\n",
      "Message('note_on', channel=7, note=73, velocity=85, time=0)\n",
      "Message('note_on', channel=7, note=85, velocity=105, time=0)\n",
      "Message('note_off', channel=9, note=43, velocity=81, time=4)\n",
      "Message('note_off', channel=9, note=46, velocity=90, time=0)\n",
      "Message('note_off', channel=7, note=85, velocity=105, time=60)\n",
      "Message('note_off', channel=7, note=73, velocity=85, time=0)\n",
      "Message('note_off', channel=2, note=32, velocity=107, time=24)\n",
      "Message('note_on', channel=9, note=43, velocity=86, time=8)\n",
      "Message('note_on', channel=7, note=73, velocity=87, time=0)\n",
      "Message('note_on', channel=7, note=85, velocity=103, time=0)\n",
      "Message('note_off', channel=9, note=43, velocity=86, time=4)\n",
      "Message('note_off', channel=7, note=85, velocity=103, time=60)\n",
      "Message('note_off', channel=7, note=73, velocity=87, time=0)\n",
      "Message('note_on', channel=9, note=42, velocity=85, time=32)\n",
      "Message('note_on', channel=9, note=38, velocity=104, time=0)\n",
      "Message('note_on', channel=9, note=45, velocity=83, time=0)\n",
      "Message('note_on', channel=9, note=39, velocity=81, time=0)\n",
      "Message('note_on', channel=2, note=32, velocity=110, time=0)\n",
      "Message('note_on', channel=7, note=73, velocity=87, time=0)\n",
      "Message('note_on', channel=7, note=85, velocity=102, time=0)\n",
      "Message('note_off', channel=9, note=39, velocity=81, time=4)\n",
      "Message('note_off', channel=9, note=45, velocity=83, time=0)\n",
      "Message('note_off', channel=9, note=38, velocity=104, time=0)\n",
      "Message('note_off', channel=9, note=42, velocity=85, time=0)\n",
      "Message('note_off', channel=8, note=68, velocity=98, time=44)\n",
      "Message('note_off', channel=7, note=85, velocity=102, time=16)\n",
      "Message('note_off', channel=7, note=73, velocity=87, time=0)\n",
      "Message('note_off', channel=2, note=32, velocity=110, time=24)\n",
      "Message('note_on', channel=9, note=45, velocity=80, time=8)\n",
      "Message('note_on', channel=9, note=39, velocity=81, time=0)\n",
      "Message('note_on', channel=2, note=32, velocity=107, time=0)\n",
      "Message('note_on', channel=7, note=73, velocity=85, time=0)\n",
      "Message('note_on', channel=7, note=85, velocity=104, time=0)\n",
      "Message('note_off', channel=9, note=39, velocity=81, time=4)\n",
      "Message('note_off', channel=9, note=45, velocity=80, time=0)\n",
      "Message('note_off', channel=7, note=85, velocity=104, time=60)\n",
      "Message('note_off', channel=7, note=73, velocity=85, time=0)\n",
      "Message('note_off', channel=2, note=32, velocity=107, time=24)\n",
      "Message('note_on', channel=9, note=46, velocity=90, time=8)\n",
      "Message('note_on', channel=9, note=43, velocity=85, time=0)\n",
      "Message('note_off', channel=9, note=43, velocity=85, time=4)\n",
      "Message('note_off', channel=9, note=46, velocity=90, time=0)\n",
      "Message('note_off', channel=3, note=65, velocity=86, time=92)\n",
      "Message('note_off', channel=3, note=61, velocity=89, time=0)\n",
      "Message('note_off', channel=3, note=58, velocity=93, time=0)\n",
      "Message('note_on', channel=9, note=43, velocity=82, time=0)\n",
      "Message('note_on', channel=2, note=37, velocity=110, time=0)\n",
      "Message('note_on', channel=7, note=73, velocity=86, time=0)\n",
      "Message('note_on', channel=7, note=85, velocity=105, time=0)\n",
      "Message('note_off', channel=9, note=43, velocity=82, time=4)\n",
      "Message('note_off', channel=7, note=85, velocity=105, time=60)\n",
      "Message('note_off', channel=7, note=73, velocity=86, time=0)\n",
      "Message('note_off', channel=2, note=37, velocity=110, time=24)\n",
      "Message('note_on', channel=9, note=42, velocity=85, time=8)\n",
      "Message('note_on', channel=9, note=36, velocity=108, time=0)\n",
      "Message('note_on', channel=2, note=34, velocity=111, time=0)\n",
      "Message('note_on', channel=3, note=58, velocity=91, time=0)\n",
      "Message('note_on', channel=3, note=65, velocity=93, time=0)\n",
      "Message('note_on', channel=3, note=61, velocity=88, time=0)\n",
      "Message('note_on', channel=3, note=54, velocity=91, time=0)\n",
      "Message('note_off', channel=9, note=36, velocity=108, time=4)\n",
      "Message('note_off', channel=9, note=42, velocity=85, time=0)\n",
      "Message('note_off', channel=2, note=34, velocity=111, time=84)\n",
      "Message('note_on', channel=9, note=46, velocity=90, time=104)\n",
      "Message('note_on', channel=2, note=34, velocity=106, time=0)\n",
      "Message('note_on', channel=15, note=61, velocity=122, time=0)\n",
      "Message('note_off', channel=9, note=46, velocity=90, time=4)\n",
      "Message('note_off', channel=15, note=61, velocity=122, time=84)\n",
      "Message('note_off', channel=2, note=34, velocity=106, time=0)\n",
      "Message('note_on', channel=2, note=34, velocity=107, time=8)\n",
      "Message('note_off', channel=2, note=34, velocity=107, time=88)\n",
      "Message('note_on', channel=9, note=42, velocity=82, time=8)\n",
      "Message('note_on', channel=9, note=38, velocity=103, time=0)\n",
      "Message('note_on', channel=9, note=39, velocity=84, time=0)\n",
      "Message('note_on', channel=15, note=61, velocity=123, time=0)\n",
      "Message('note_off', channel=9, note=39, velocity=84, time=4)\n",
      "Message('note_off', channel=9, note=38, velocity=103, time=0)\n",
      "Message('note_off', channel=9, note=42, velocity=82, time=0)\n",
      "Message('note_on', channel=2, note=37, velocity=107, time=92)\n",
      "Message('note_off', channel=15, note=61, velocity=123, time=80)\n",
      "Message('note_off', channel=2, note=37, velocity=107, time=8)\n",
      "Message('note_on', channel=9, note=42, velocity=83, time=8)\n",
      "Message('note_on', channel=2, note=36, velocity=107, time=0)\n",
      "Message('note_on', channel=15, note=58, velocity=123, time=0)\n",
      "Message('note_off', channel=9, note=42, velocity=83, time=4)\n",
      "Message('note_off', channel=2, note=36, velocity=107, time=84)\n",
      "Message('note_on', channel=9, note=42, velocity=81, time=8)\n",
      "Message('note_off', channel=9, note=42, velocity=81, time=4)\n",
      "Message('note_off', channel=15, note=58, velocity=123, time=76)\n",
      "Message('note_on', channel=9, note=42, velocity=83, time=16)\n",
      "Message('note_on', channel=9, note=36, velocity=105, time=0)\n",
      "Message('note_on', channel=2, note=32, velocity=110, time=0)\n",
      "Message('note_on', channel=15, note=61, velocity=121, time=0)\n",
      "Message('note_off', channel=9, note=36, velocity=105, time=4)\n",
      "Message('note_off', channel=9, note=42, velocity=83, time=0)\n",
      "Message('note_off', channel=15, note=61, velocity=121, time=172)\n",
      "Message('note_off', channel=2, note=32, velocity=110, time=16)\n",
      "Message('note_on', channel=9, note=46, velocity=87, time=0)\n",
      "Message('note_on', channel=2, note=34, velocity=111, time=0)\n",
      "Message('note_on', channel=15, note=63, velocity=120, time=0)\n",
      "Message('note_off', channel=9, note=46, velocity=87, time=4)\n",
      "Message('note_off', channel=2, note=34, velocity=111, time=84)\n",
      "Message('note_on', channel=9, note=42, velocity=84, time=104)\n",
      "Message('note_on', channel=9, note=38, velocity=101, time=0)\n",
      "Message('note_on', channel=9, note=39, velocity=81, time=0)\n",
      "Message('note_off', channel=9, note=39, velocity=81, time=4)\n",
      "Message('note_off', channel=9, note=38, velocity=101, time=0)\n",
      "Message('note_off', channel=9, note=42, velocity=84, time=0)\n",
      "Message('note_off', channel=15, note=63, velocity=120, time=68)\n",
      "Message('note_off', channel=3, note=54, velocity=91, time=120)\n",
      "Message('note_off', channel=3, note=61, velocity=88, time=0)\n",
      "Message('note_off', channel=3, note=65, velocity=93, time=0)\n",
      "Message('note_off', channel=3, note=58, velocity=91, time=0)\n",
      "Message('note_on', channel=9, note=46, velocity=88, time=0)\n",
      "Message('note_on', channel=2, note=29, velocity=108, time=0)\n",
      "Message('note_off', channel=9, note=46, velocity=88, time=4)\n",
      "Message('note_off', channel=2, note=29, velocity=108, time=84)\n",
      "Message('note_on', channel=2, note=32, velocity=108, time=8)\n",
      "Message('note_off', channel=2, note=32, velocity=108, time=88)\n",
      "Message('note_on', channel=9, note=42, velocity=85, time=8)\n",
      "Message('note_on', channel=9, note=36, velocity=104, time=0)\n",
      "Message('note_on', channel=2, note=34, velocity=106, time=0)\n",
      "Message('note_on', channel=3, note=60, velocity=91, time=0)\n",
      "Message('note_on', channel=3, note=63, velocity=91, time=0)\n",
      "Message('note_on', channel=3, note=56, velocity=88, time=0)\n",
      "Message('note_off', channel=9, note=36, velocity=104, time=4)\n",
      "Message('note_off', channel=9, note=42, velocity=85, time=0)\n",
      "Message('note_off', channel=2, note=34, velocity=106, time=84)\n",
      "Message('note_on', channel=9, note=46, velocity=87, time=104)\n",
      "Message('note_on', channel=2, note=32, velocity=109, time=0)\n",
      "Message('note_on', channel=15, note=60, velocity=124, time=0)\n",
      "Message('note_off', channel=9, note=46, velocity=87, time=4)\n",
      "Message('note_off', channel=2, note=32, velocity=109, time=84)\n",
      "Message('note_on', channel=2, note=34, velocity=106, time=8)\n",
      "Message('note_off', channel=15, note=60, velocity=124, time=80)\n",
      "Message('note_off', channel=2, note=34, velocity=106, time=8)\n",
      "Message('note_on', channel=9, note=42, velocity=85, time=8)\n",
      "Message('note_on', channel=9, note=38, velocity=106, time=0)\n",
      "Message('note_on', channel=9, note=39, velocity=80, time=0)\n",
      "Message('note_on', channel=15, note=58, velocity=121, time=0)\n",
      "Message('note_off', channel=9, note=39, velocity=80, time=4)\n",
      "Message('note_off', channel=9, note=38, velocity=106, time=0)\n",
      "Message('note_off', channel=9, note=42, velocity=85, time=0)\n",
      "Message('note_on', channel=2, note=37, velocity=107, time=92)\n",
      "Message('note_off', channel=15, note=58, velocity=121, time=80)\n",
      "Message('note_off', channel=2, note=37, velocity=107, time=8)\n",
      "Message('note_on', channel=9, note=46, velocity=87, time=8)\n",
      "Message('note_on', channel=2, note=36, velocity=109, time=0)\n",
      "Message('note_on', channel=15, note=60, velocity=120, time=0)\n",
      "Message('note_off', channel=9, note=46, velocity=87, time=4)\n",
      "Message('note_off', channel=2, note=36, velocity=109, time=84)\n",
      "Message('note_on', channel=9, note=42, velocity=80, time=104)\n",
      "Message('note_on', channel=9, note=36, velocity=107, time=0)\n",
      "Message('note_off', channel=9, note=36, velocity=107, time=4)\n",
      "Message('note_off', channel=9, note=42, velocity=80, time=0)\n",
      "Message('note_off', channel=15, note=60, velocity=120, time=68)\n",
      "Message('note_on', channel=15, note=58, velocity=119, time=24)\n",
      "Message('note_off', channel=15, note=58, velocity=119, time=88)\n",
      "Message('note_on', channel=9, note=46, velocity=92, time=8)\n",
      "Message('note_on', channel=15, note=56, velocity=123, time=0)\n",
      "Message('note_off', channel=9, note=46, velocity=92, time=4)\n",
      "Message('note_on', channel=9, note=42, velocity=85, time=188)\n",
      "Message('note_on', channel=9, note=38, velocity=109, time=0)\n",
      "Message('note_on', channel=9, note=39, velocity=86, time=0)\n",
      "Message('note_off', channel=9, note=39, velocity=86, time=4)\n",
      "Message('note_off', channel=9, note=38, velocity=109, time=0)\n",
      "Message('note_off', channel=9, note=42, velocity=85, time=0)\n",
      "Message('note_off', channel=15, note=56, velocity=123, time=68)\n",
      "Message('note_off', channel=3, note=56, velocity=88, time=120)\n",
      "Message('note_off', channel=3, note=63, velocity=91, time=0)\n",
      "Message('note_off', channel=3, note=60, velocity=91, time=0)\n",
      "Message('note_on', channel=9, note=46, velocity=92, time=0)\n",
      "Message('note_on', channel=2, note=29, velocity=107, time=0)\n",
      "Message('note_off', channel=9, note=46, velocity=92, time=4)\n",
      "Message('note_off', channel=2, note=29, velocity=107, time=84)\n",
      "Message('note_on', channel=2, note=32, velocity=110, time=8)\n",
      "Message('note_off', channel=2, note=32, velocity=110, time=88)\n",
      "Message('note_on', channel=9, note=42, velocity=84, time=8)\n",
      "Message('note_on', channel=9, note=36, velocity=104, time=0)\n",
      "Message('note_on', channel=2, note=34, velocity=109, time=0)\n",
      "Message('note_on', channel=3, note=65, velocity=91, time=0)\n",
      "Message('note_on', channel=3, note=54, velocity=93, time=0)\n",
      "Message('note_on', channel=3, note=58, velocity=93, time=0)\n",
      "Message('note_on', channel=3, note=61, velocity=91, time=0)\n",
      "Message('note_off', channel=9, note=36, velocity=104, time=4)\n",
      "Message('note_off', channel=9, note=42, velocity=84, time=0)\n",
      "Message('note_off', channel=2, note=34, velocity=109, time=84)\n",
      "Message('note_on', channel=9, note=46, velocity=91, time=104)\n",
      "Message('note_on', channel=2, note=34, velocity=109, time=0)\n",
      "Message('note_on', channel=15, note=58, velocity=121, time=0)\n",
      "Message('note_off', channel=9, note=46, velocity=91, time=4)\n",
      "Message('note_off', channel=15, note=58, velocity=121, time=84)\n",
      "Message('note_off', channel=2, note=34, velocity=109, time=0)\n",
      "Message('note_on', channel=2, note=34, velocity=111, time=8)\n",
      "Message('note_off', channel=2, note=34, velocity=111, time=88)\n",
      "Message('note_on', channel=9, note=42, velocity=82, time=8)\n",
      "Message('note_on', channel=9, note=38, velocity=106, time=0)\n",
      "Message('note_on', channel=9, note=39, velocity=86, time=0)\n",
      "Message('note_on', channel=15, note=58, velocity=123, time=0)\n",
      "Message('note_off', channel=9, note=39, velocity=86, time=4)\n",
      "Message('note_off', channel=9, note=38, velocity=106, time=0)\n",
      "Message('note_off', channel=9, note=42, velocity=82, time=0)\n",
      "Message('note_on', channel=2, note=37, velocity=107, time=92)\n",
      "Message('note_off', channel=15, note=58, velocity=123, time=80)\n",
      "Message('note_off', channel=2, note=37, velocity=107, time=8)\n",
      "Message('note_on', channel=9, note=42, velocity=82, time=8)\n",
      "Message('note_on', channel=2, note=36, velocity=107, time=0)\n",
      "Message('note_on', channel=15, note=60, velocity=124, time=0)\n",
      "Message('note_off', channel=9, note=42, velocity=82, time=4)\n",
      "Message('note_off', channel=2, note=36, velocity=107, time=84)\n",
      "Message('note_on', channel=9, note=42, velocity=85, time=8)\n",
      "Message('note_off', channel=9, note=42, velocity=85, time=4)\n",
      "Message('note_off', channel=15, note=60, velocity=124, time=76)\n",
      "Message('note_on', channel=9, note=42, velocity=83, time=16)\n",
      "Message('note_on', channel=9, note=36, velocity=109, time=0)\n",
      "Message('note_on', channel=2, note=32, velocity=111, time=0)\n",
      "Message('note_on', channel=15, note=61, velocity=119, time=0)\n",
      "Message('note_off', channel=9, note=36, velocity=109, time=4)\n",
      "Message('note_off', channel=9, note=42, velocity=83, time=0)\n",
      "Message('note_off', channel=15, note=61, velocity=119, time=172)\n",
      "Message('note_off', channel=2, note=32, velocity=111, time=16)\n",
      "Message('note_on', channel=9, note=46, velocity=88, time=0)\n",
      "Message('note_on', channel=2, note=34, velocity=108, time=0)\n",
      "Message('note_on', channel=15, note=58, velocity=123, time=0)\n",
      "Message('note_off', channel=9, note=46, velocity=88, time=4)\n",
      "Message('note_off', channel=2, note=34, velocity=108, time=84)\n",
      "Message('note_off', channel=15, note=58, velocity=123, time=88)\n",
      "Message('note_on', channel=9, note=42, velocity=84, time=16)\n",
      "Message('note_on', channel=9, note=38, velocity=107, time=0)\n",
      "Message('note_on', channel=9, note=39, velocity=87, time=0)\n",
      "Message('note_off', channel=9, note=39, velocity=87, time=4)\n",
      "Message('note_off', channel=9, note=38, velocity=107, time=0)\n",
      "Message('note_off', channel=9, note=42, velocity=84, time=0)\n",
      "Message('note_off', channel=3, note=61, velocity=91, time=188)\n",
      "Message('note_off', channel=3, note=58, velocity=93, time=0)\n",
      "Message('note_off', channel=3, note=54, velocity=93, time=0)\n",
      "Message('note_off', channel=3, note=65, velocity=91, time=0)\n",
      "Message('note_on', channel=9, note=46, velocity=92, time=0)\n",
      "Message('note_on', channel=2, note=34, velocity=107, time=0)\n",
      "Message('note_on', channel=15, note=56, velocity=123, time=0)\n",
      "Message('note_off', channel=9, note=46, velocity=92, time=4)\n",
      "Message('note_off', channel=2, note=34, velocity=107, time=84)\n",
      "Message('note_on', channel=2, note=34, velocity=110, time=8)\n",
      "Message('note_off', channel=15, note=56, velocity=123, time=80)\n",
      "Message('note_off', channel=2, note=34, velocity=110, time=8)\n",
      "Message('note_on', channel=9, note=42, velocity=81, time=8)\n",
      "Message('note_on', channel=9, note=36, velocity=103, time=0)\n",
      "Message('note_on', channel=2, note=27, velocity=110, time=0)\n",
      "Message('note_on', channel=3, note=61, velocity=87, time=0)\n",
      "Message('note_on', channel=3, note=68, velocity=87, time=0)\n",
      "Message('note_on', channel=3, note=65, velocity=86, time=0)\n",
      "Message('note_on', channel=3, note=58, velocity=89, time=0)\n",
      "Message('note_on', channel=15, note=68, velocity=121, time=0)\n",
      "Message('note_off', channel=9, note=36, velocity=103, time=4)\n",
      "Message('note_off', channel=9, note=42, velocity=81, time=0)\n",
      "Message('note_off', channel=2, note=27, velocity=110, time=84)\n",
      "Message('note_on', channel=9, note=46, velocity=89, time=104)\n",
      "Message('note_on', channel=2, note=27, velocity=106, time=0)\n",
      "Message('note_off', channel=9, note=46, velocity=89, time=4)\n",
      "Message('note_off', channel=15, note=68, velocity=121, time=68)\n",
      "Message('note_off', channel=2, note=27, velocity=106, time=16)\n",
      "Message('note_on', channel=2, note=27, velocity=108, time=8)\n",
      "Message('note_off', channel=2, note=27, velocity=108, time=88)\n",
      "Message('note_on', channel=9, note=42, velocity=81, time=8)\n",
      "Message('note_on', channel=9, note=38, velocity=103, time=0)\n",
      "Message('note_on', channel=9, note=39, velocity=81, time=0)\n",
      "Message('note_on', channel=15, note=68, velocity=122, time=0)\n",
      "Message('note_off', channel=9, note=39, velocity=81, time=4)\n",
      "Message('note_off', channel=9, note=38, velocity=103, time=0)\n",
      "Message('note_off', channel=9, note=42, velocity=81, time=0)\n",
      "Message('note_off', channel=3, note=58, velocity=89, time=92)\n",
      "Message('note_off', channel=3, note=65, velocity=86, time=0)\n",
      "Message('note_off', channel=3, note=68, velocity=87, time=0)\n",
      "Message('note_off', channel=3, note=61, velocity=87, time=0)\n",
      "Message('note_on', channel=2, note=27, velocity=109, time=0)\n",
      "Message('note_off', channel=15, note=68, velocity=122, time=80)\n",
      "Message('note_off', channel=2, note=27, velocity=109, time=8)\n",
      "Message('note_on', channel=9, note=46, velocity=90, time=8)\n",
      "Message('note_on', channel=2, note=32, velocity=110, time=0)\n",
      "Message('note_on', channel=3, note=56, velocity=88, time=0)\n",
      "Message('note_on', channel=3, note=63, velocity=88, time=0)\n",
      "Message('note_on', channel=3, note=60, velocity=90, time=0)\n",
      "Message('note_on', channel=15, note=63, velocity=120, time=0)\n",
      "Message('note_off', channel=9, note=46, velocity=90, time=4)\n",
      "Message('note_off', channel=2, note=32, velocity=110, time=84)\n",
      "Message('note_on', channel=9, note=42, velocity=85, time=104)\n",
      "Message('note_on', channel=9, note=36, velocity=104, time=0)\n",
      "Message('note_off', channel=9, note=36, velocity=104, time=4)\n",
      "Message('note_off', channel=9, note=42, velocity=85, time=0)\n",
      "Message('note_on', channel=9, note=46, velocity=89, time=188)\n",
      "Message('note_on', channel=2, note=32, velocity=107, time=0)\n",
      "Message('note_off', channel=9, note=46, velocity=89, time=4)\n",
      "Message('note_off', channel=2, note=32, velocity=107, time=84)\n",
      "Message('note_on', channel=2, note=32, velocity=106, time=8)\n",
      "Message('note_off', channel=15, note=63, velocity=120, time=64)\n",
      "Message('note_off', channel=2, note=32, velocity=106, time=24)\n",
      "Message('note_on', channel=9, note=42, velocity=83, time=8)\n",
      "Message('note_on', channel=9, note=38, velocity=105, time=0)\n",
      "Message('note_on', channel=9, note=39, velocity=86, time=0)\n",
      "Message('note_on', channel=2, note=32, velocity=109, time=0)\n",
      "Message('note_off', channel=9, note=39, velocity=86, time=4)\n",
      "Message('note_off', channel=9, note=38, velocity=105, time=0)\n",
      "Message('note_off', channel=9, note=42, velocity=83, time=0)\n",
      "Message('note_off', channel=2, note=32, velocity=109, time=84)\n",
      "Message('note_off', channel=3, note=60, velocity=90, time=104)\n",
      "Message('note_off', channel=3, note=63, velocity=88, time=0)\n",
      "Message('note_off', channel=3, note=56, velocity=88, time=0)\n",
      "Message('note_on', channel=9, note=46, velocity=88, time=0)\n",
      "Message('note_on', channel=2, note=29, velocity=106, time=0)\n",
      "Message('note_off', channel=9, note=46, velocity=88, time=4)\n",
      "Message('note_off', channel=2, note=29, velocity=106, time=84)\n",
      "Message('note_on', channel=2, note=32, velocity=110, time=8)\n",
      "Message('note_off', channel=2, note=32, velocity=110, time=88)\n",
      "Message('note_on', channel=9, note=42, velocity=84, time=8)\n",
      "Message('note_on', channel=9, note=36, velocity=107, time=0)\n",
      "Message('note_on', channel=2, note=34, velocity=110, time=0)\n",
      "Message('note_on', channel=3, note=58, velocity=86, time=0)\n",
      "Message('note_on', channel=3, note=54, velocity=89, time=0)\n",
      "Message('note_on', channel=3, note=65, velocity=88, time=0)\n",
      "Message('note_on', channel=3, note=61, velocity=93, time=0)\n",
      "Message('note_off', channel=9, note=36, velocity=107, time=4)\n",
      "Message('note_off', channel=9, note=42, velocity=84, time=0)\n",
      "Message('note_off', channel=2, note=34, velocity=110, time=84)\n",
      "Message('note_on', channel=9, note=46, velocity=89, time=104)\n",
      "Message('note_on', channel=2, note=34, velocity=110, time=0)\n",
      "Message('note_on', channel=15, note=58, velocity=123, time=0)\n",
      "Message('note_off', channel=9, note=46, velocity=89, time=4)\n",
      "Message('note_off', channel=15, note=58, velocity=123, time=84)\n",
      "Message('note_off', channel=2, note=34, velocity=110, time=0)\n",
      "Message('note_on', channel=2, note=34, velocity=106, time=8)\n",
      "Message('note_off', channel=2, note=34, velocity=106, time=88)\n",
      "Message('note_on', channel=9, note=42, velocity=82, time=8)\n",
      "Message('note_on', channel=9, note=38, velocity=109, time=0)\n",
      "Message('note_on', channel=9, note=39, velocity=83, time=0)\n",
      "Message('note_on', channel=15, note=58, velocity=123, time=0)\n",
      "Message('note_off', channel=9, note=39, velocity=83, time=4)\n",
      "Message('note_off', channel=9, note=38, velocity=109, time=0)\n",
      "Message('note_off', channel=9, note=42, velocity=82, time=0)\n",
      "Message('note_on', channel=2, note=37, velocity=110, time=92)\n",
      "Message('note_off', channel=15, note=58, velocity=123, time=80)\n",
      "Message('note_off', channel=2, note=37, velocity=110, time=8)\n",
      "Message('note_on', channel=9, note=42, velocity=84, time=8)\n",
      "Message('note_on', channel=2, note=36, velocity=110, time=0)\n",
      "Message('note_on', channel=15, note=60, velocity=119, time=0)\n",
      "Message('note_off', channel=9, note=42, velocity=84, time=4)\n",
      "Message('note_off', channel=2, note=36, velocity=110, time=84)\n",
      "Message('note_on', channel=9, note=42, velocity=83, time=8)\n",
      "Message('note_off', channel=9, note=42, velocity=83, time=4)\n",
      "Message('note_off', channel=15, note=60, velocity=119, time=76)\n",
      "Message('note_on', channel=9, note=42, velocity=81, time=16)\n",
      "Message('note_on', channel=9, note=36, velocity=107, time=0)\n",
      "Message('note_on', channel=2, note=32, velocity=108, time=0)\n",
      "Message('note_on', channel=15, note=61, velocity=119, time=0)\n",
      "Message('note_off', channel=9, note=36, velocity=107, time=4)\n",
      "Message('note_off', channel=9, note=42, velocity=81, time=0)\n",
      "Message('note_off', channel=15, note=61, velocity=119, time=172)\n",
      "Message('note_off', channel=2, note=32, velocity=108, time=16)\n",
      "Message('note_on', channel=9, note=46, velocity=91, time=0)\n",
      "Message('note_on', channel=2, note=34, velocity=109, time=0)\n",
      "Message('note_on', channel=15, note=58, velocity=124, time=0)\n",
      "Message('note_off', channel=9, note=46, velocity=91, time=4)\n",
      "Message('note_off', channel=2, note=34, velocity=109, time=84)\n",
      "Message('note_off', channel=15, note=58, velocity=124, time=88)\n",
      "Message('note_on', channel=9, note=42, velocity=82, time=16)\n",
      "Message('note_on', channel=9, note=38, velocity=104, time=0)\n",
      "Message('note_on', channel=9, note=39, velocity=84, time=0)\n",
      "Message('note_on', channel=15, note=61, velocity=124, time=0)\n",
      "Message('note_off', channel=9, note=39, velocity=84, time=4)\n",
      "Message('note_off', channel=9, note=38, velocity=104, time=0)\n",
      "Message('note_off', channel=9, note=42, velocity=82, time=0)\n",
      "Message('note_off', channel=15, note=61, velocity=124, time=172)\n",
      "Message('note_off', channel=3, note=61, velocity=93, time=16)\n",
      "Message('note_off', channel=3, note=65, velocity=88, time=0)\n",
      "Message('note_off', channel=3, note=54, velocity=89, time=0)\n",
      "Message('note_off', channel=3, note=58, velocity=86, time=0)\n",
      "Message('note_on', channel=9, note=46, velocity=91, time=0)\n",
      "Message('note_on', channel=2, note=29, velocity=110, time=0)\n",
      "Message('note_on', channel=15, note=63, velocity=120, time=0)\n",
      "Message('note_off', channel=9, note=46, velocity=91, time=4)\n",
      "Message('note_off', channel=2, note=29, velocity=110, time=84)\n",
      "Message('note_on', channel=2, note=32, velocity=108, time=8)\n",
      "Message('note_off', channel=15, note=63, velocity=120, time=80)\n",
      "Message('note_off', channel=2, note=32, velocity=108, time=8)\n",
      "Message('note_on', channel=9, note=42, velocity=83, time=8)\n",
      "Message('note_on', channel=9, note=36, velocity=101, time=0)\n",
      "Message('note_on', channel=2, note=34, velocity=106, time=0)\n",
      "Message('note_on', channel=3, note=56, velocity=87, time=0)\n",
      "Message('note_on', channel=3, note=63, velocity=86, time=0)\n",
      "Message('note_on', channel=3, note=60, velocity=91, time=0)\n",
      "Message('note_off', channel=9, note=36, velocity=101, time=4)\n",
      "Message('note_off', channel=9, note=42, velocity=83, time=0)\n",
      "Message('note_off', channel=2, note=34, velocity=106, time=84)\n",
      "Message('note_on', channel=9, note=46, velocity=91, time=104)\n",
      "Message('note_on', channel=2, note=32, velocity=107, time=0)\n",
      "Message('note_on', channel=15, note=60, velocity=119, time=0)\n",
      "Message('note_off', channel=9, note=46, velocity=91, time=4)\n",
      "Message('note_off', channel=2, note=32, velocity=107, time=84)\n",
      "Message('note_on', channel=2, note=34, velocity=111, time=8)\n",
      "Message('note_off', channel=15, note=60, velocity=119, time=80)\n",
      "Message('note_off', channel=2, note=34, velocity=111, time=8)\n",
      "Message('note_on', channel=9, note=42, velocity=84, time=8)\n",
      "Message('note_on', channel=9, note=38, velocity=102, time=0)\n",
      "Message('note_on', channel=9, note=39, velocity=84, time=0)\n",
      "Message('note_on', channel=15, note=58, velocity=119, time=0)\n",
      "Message('note_off', channel=9, note=39, velocity=84, time=4)\n",
      "Message('note_off', channel=9, note=38, velocity=102, time=0)\n",
      "Message('note_off', channel=9, note=42, velocity=84, time=0)\n",
      "Message('note_on', channel=2, note=37, velocity=110, time=92)\n",
      "Message('note_off', channel=15, note=58, velocity=119, time=80)\n",
      "Message('note_off', channel=2, note=37, velocity=110, time=8)\n",
      "Message('note_on', channel=9, note=46, velocity=90, time=8)\n",
      "Message('note_on', channel=2, note=36, velocity=109, time=0)\n",
      "Message('note_on', channel=15, note=60, velocity=122, time=0)\n",
      "Message('note_off', channel=9, note=46, velocity=90, time=4)\n",
      "Message('note_off', channel=2, note=36, velocity=109, time=84)\n",
      "Message('note_on', channel=9, note=42, velocity=80, time=104)\n",
      "Message('note_on', channel=9, note=36, velocity=109, time=0)\n",
      "Message('note_off', channel=9, note=36, velocity=109, time=4)\n",
      "Message('note_off', channel=9, note=42, velocity=80, time=0)\n",
      "Message('note_off', channel=15, note=60, velocity=122, time=68)\n",
      "Message('note_on', channel=15, note=58, velocity=123, time=24)\n",
      "Message('note_off', channel=15, note=58, velocity=123, time=88)\n",
      "Message('note_on', channel=9, note=46, velocity=89, time=8)\n",
      "Message('note_on', channel=15, note=56, velocity=122, time=0)\n",
      "Message('note_off', channel=9, note=46, velocity=89, time=4)\n",
      "Message('note_on', channel=9, note=42, velocity=84, time=188)\n",
      "Message('note_on', channel=9, note=38, velocity=108, time=0)\n",
      "Message('note_on', channel=9, note=39, velocity=83, time=0)\n",
      "Message('note_off', channel=9, note=39, velocity=83, time=4)\n",
      "Message('note_off', channel=9, note=38, velocity=108, time=0)\n",
      "Message('note_off', channel=9, note=42, velocity=84, time=0)\n",
      "Message('note_off', channel=15, note=56, velocity=122, time=68)\n",
      "Message('note_off', channel=3, note=60, velocity=91, time=120)\n",
      "Message('note_off', channel=3, note=63, velocity=86, time=0)\n",
      "Message('note_off', channel=3, note=56, velocity=87, time=0)\n",
      "Message('note_on', channel=9, note=46, velocity=90, time=0)\n",
      "Message('note_on', channel=2, note=29, velocity=108, time=0)\n",
      "Message('note_off', channel=9, note=46, velocity=90, time=4)\n",
      "Message('note_off', channel=2, note=29, velocity=108, time=84)\n",
      "Message('note_on', channel=2, note=32, velocity=109, time=8)\n",
      "Message('note_off', channel=2, note=32, velocity=109, time=88)\n",
      "Message('note_on', channel=9, note=42, velocity=85, time=8)\n",
      "Message('note_on', channel=9, note=36, velocity=107, time=0)\n",
      "Message('note_on', channel=2, note=34, velocity=109, time=0)\n",
      "Message('note_on', channel=3, note=54, velocity=88, time=0)\n",
      "Message('note_on', channel=3, note=58, velocity=92, time=0)\n",
      "Message('note_on', channel=3, note=65, velocity=86, time=0)\n",
      "Message('note_on', channel=3, note=61, velocity=89, time=0)\n",
      "Message('note_on', channel=7, note=68, velocity=70, time=0)\n",
      "Message('note_on', channel=7, note=80, velocity=85, time=0)\n",
      "Message('note_off', channel=9, note=36, velocity=107, time=4)\n",
      "Message('note_off', channel=9, note=42, velocity=85, time=0)\n",
      "Message('note_off', channel=2, note=34, velocity=109, time=84)\n",
      "Message('note_on', channel=9, note=46, velocity=90, time=104)\n",
      "Message('note_on', channel=2, note=34, velocity=108, time=0)\n",
      "Message('note_on', channel=15, note=58, velocity=120, time=0)\n",
      "Message('note_off', channel=9, note=46, velocity=90, time=4)\n",
      "Message('note_off', channel=15, note=58, velocity=120, time=84)\n",
      "Message('note_off', channel=2, note=34, velocity=108, time=0)\n",
      "Message('note_on', channel=2, note=34, velocity=111, time=8)\n",
      "Message('note_off', channel=2, note=34, velocity=111, time=88)\n",
      "Message('note_on', channel=9, note=42, velocity=84, time=8)\n",
      "Message('note_on', channel=9, note=38, velocity=102, time=0)\n",
      "Message('note_on', channel=9, note=39, velocity=86, time=0)\n",
      "Message('note_on', channel=15, note=58, velocity=124, time=0)\n",
      "Message('note_off', channel=9, note=39, velocity=86, time=4)\n",
      "Message('note_off', channel=9, note=38, velocity=102, time=0)\n",
      "Message('note_off', channel=9, note=42, velocity=84, time=0)\n",
      "Message('note_on', channel=2, note=37, velocity=106, time=92)\n",
      "Message('note_off', channel=15, note=58, velocity=124, time=80)\n",
      "Message('note_off', channel=2, note=37, velocity=106, time=8)\n",
      "Message('note_on', channel=9, note=42, velocity=81, time=8)\n",
      "Message('note_on', channel=2, note=36, velocity=110, time=0)\n",
      "Message('note_on', channel=15, note=60, velocity=120, time=0)\n",
      "Message('note_off', channel=9, note=42, velocity=81, time=4)\n",
      "Message('note_off', channel=2, note=36, velocity=110, time=84)\n",
      "Message('note_on', channel=9, note=42, velocity=81, time=8)\n",
      "Message('note_off', channel=9, note=42, velocity=81, time=4)\n",
      "Message('note_off', channel=15, note=60, velocity=120, time=76)\n",
      "Message('note_on', channel=9, note=42, velocity=85, time=16)\n",
      "Message('note_on', channel=9, note=36, velocity=105, time=0)\n",
      "Message('note_on', channel=2, note=32, velocity=108, time=0)\n",
      "Message('note_on', channel=15, note=61, velocity=123, time=0)\n",
      "Message('note_off', channel=9, note=36, velocity=105, time=4)\n",
      "Message('note_off', channel=9, note=42, velocity=85, time=0)\n",
      "Message('note_off', channel=15, note=61, velocity=123, time=172)\n",
      "Message('note_off', channel=2, note=32, velocity=108, time=16)\n",
      "Message('note_on', channel=9, note=46, velocity=89, time=0)\n",
      "Message('note_on', channel=2, note=34, velocity=111, time=0)\n",
      "Message('note_on', channel=15, note=58, velocity=124, time=0)\n",
      "Message('note_off', channel=9, note=46, velocity=89, time=4)\n",
      "Message('note_off', channel=2, note=34, velocity=111, time=84)\n",
      "Message('note_off', channel=15, note=58, velocity=124, time=88)\n",
      "Message('note_on', channel=9, note=42, velocity=82, time=16)\n",
      "Message('note_on', channel=9, note=38, velocity=103, time=0)\n",
      "Message('note_on', channel=9, note=39, velocity=80, time=0)\n",
      "Message('note_on', channel=15, note=56, velocity=120, time=0)\n",
      "Message('note_off', channel=9, note=39, velocity=80, time=4)\n",
      "Message('note_off', channel=9, note=38, velocity=103, time=0)\n",
      "Message('note_off', channel=9, note=42, velocity=82, time=0)\n",
      "Message('note_off', channel=15, note=56, velocity=120, time=172)\n",
      "Message('note_on', channel=9, note=46, velocity=90, time=16)\n",
      "Message('note_on', channel=2, note=34, velocity=109, time=0)\n",
      "Message('note_off', channel=9, note=46, velocity=90, time=4)\n",
      "Message('note_off', channel=2, note=34, velocity=109, time=84)\n",
      "Message('note_off', channel=3, note=61, velocity=89, time=8)\n",
      "Message('note_off', channel=3, note=65, velocity=86, time=0)\n",
      "Message('note_off', channel=3, note=58, velocity=92, time=0)\n",
      "Message('note_off', channel=3, note=54, velocity=88, time=0)\n",
      "Message('note_on', channel=2, note=34, velocity=111, time=0)\n",
      "Message('note_off', channel=2, note=34, velocity=111, time=88)\n",
      "Message('note_off', channel=7, note=80, velocity=85, time=8)\n",
      "Message('note_off', channel=7, note=68, velocity=70, time=0)\n",
      "Message('note_on', channel=9, note=42, velocity=85, time=0)\n",
      "Message('note_on', channel=9, note=36, velocity=103, time=0)\n",
      "Message('note_on', channel=2, note=27, velocity=110, time=0)\n",
      "Message('note_on', channel=3, note=54, velocity=90, time=0)\n",
      "Message('note_on', channel=3, note=58, velocity=89, time=0)\n",
      "Message('note_on', channel=3, note=65, velocity=93, time=0)\n",
      "Message('note_on', channel=3, note=61, velocity=93, time=0)\n",
      "Message('note_on', channel=15, note=63, velocity=122, time=0)\n",
      "Message('note_off', channel=9, note=36, velocity=103, time=4)\n",
      "Message('note_off', channel=9, note=42, velocity=85, time=0)\n",
      "Message('note_off', channel=15, note=63, velocity=122, time=84)\n",
      "Message('note_off', channel=2, note=27, velocity=110, time=0)\n",
      "Message('note_on', channel=9, note=46, velocity=88, time=104)\n",
      "Message('note_on', channel=2, note=27, velocity=106, time=0)\n",
      "Message('note_on', channel=7, note=65, velocity=73, time=0)\n",
      "Message('note_on', channel=7, note=77, velocity=81, time=0)\n",
      "Message('note_on', channel=15, note=63, velocity=120, time=0)\n",
      "Message('note_off', channel=9, note=46, velocity=88, time=4)\n",
      "Message('note_off', channel=15, note=63, velocity=120, time=84)\n",
      "Message('note_off', channel=2, note=27, velocity=106, time=0)\n",
      "Message('note_on', channel=2, note=27, velocity=110, time=8)\n",
      "Message('note_off', channel=2, note=27, velocity=110, time=88)\n",
      "Message('note_off', channel=7, note=77, velocity=81, time=8)\n",
      "Message('note_off', channel=7, note=65, velocity=73, time=0)\n",
      "Message('note_on', channel=9, note=42, velocity=82, time=0)\n",
      "Message('note_on', channel=9, note=38, velocity=102, time=0)\n",
      "Message('note_on', channel=9, note=39, velocity=85, time=0)\n",
      "Message('note_on', channel=15, note=63, velocity=122, time=0)\n",
      "Message('note_off', channel=9, note=39, velocity=85, time=4)\n",
      "Message('note_off', channel=9, note=38, velocity=102, time=0)\n",
      "Message('note_off', channel=9, note=42, velocity=82, time=0)\n",
      "Message('note_off', channel=3, note=61, velocity=93, time=92)\n",
      "Message('note_off', channel=3, note=65, velocity=93, time=0)\n",
      "Message('note_off', channel=3, note=58, velocity=89, time=0)\n",
      "Message('note_off', channel=3, note=54, velocity=90, time=0)\n",
      "Message('note_on', channel=2, note=27, velocity=108, time=0)\n",
      "Message('note_off', channel=15, note=63, velocity=122, time=80)\n",
      "Message('note_off', channel=2, note=27, velocity=108, time=8)\n",
      "Message('note_on', channel=9, note=46, velocity=87, time=8)\n",
      "Message('note_on', channel=2, note=32, velocity=107, time=0)\n",
      "Message('note_on', channel=3, note=56, velocity=86, time=0)\n",
      "Message('note_on', channel=3, note=60, velocity=92, time=0)\n",
      "Message('note_on', channel=3, note=63, velocity=89, time=0)\n",
      "Message('note_on', channel=7, note=63, velocity=71, time=0)\n",
      "Message('note_on', channel=7, note=75, velocity=85, time=0)\n",
      "Message('note_on', channel=15, note=65, velocity=122, time=0)\n",
      "Message('note_off', channel=9, note=46, velocity=87, time=4)\n",
      "Message('note_off', channel=2, note=32, velocity=107, time=84)\n",
      "Message('note_off', channel=15, note=65, velocity=122, time=88)\n",
      "Message('note_off', channel=7, note=75, velocity=85, time=16)\n",
      "Message('note_off', channel=7, note=63, velocity=71, time=0)\n",
      "Message('note_on', channel=9, note=42, velocity=82, time=0)\n",
      "Message('note_on', channel=9, note=36, velocity=104, time=0)\n",
      "Message('note_on', channel=15, note=63, velocity=119, time=0)\n",
      "Message('note_off', channel=9, note=36, velocity=104, time=4)\n",
      "Message('note_off', channel=9, note=42, velocity=82, time=0)\n",
      "Message('note_on', channel=9, note=45, velocity=80, time=92)\n",
      "Message('note_off', channel=9, note=45, velocity=80, time=4)\n",
      "Message('note_on', channel=9, note=46, velocity=90, time=92)\n",
      "Message('note_on', channel=9, note=43, velocity=87, time=0)\n",
      "Message('note_on', channel=2, note=32, velocity=106, time=0)\n",
      "Message('note_on', channel=7, note=61, velocity=70, time=0)\n",
      "Message('note_on', channel=7, note=73, velocity=83, time=0)\n",
      "Message('note_off', channel=9, note=43, velocity=87, time=4)\n",
      "Message('note_off', channel=9, note=46, velocity=90, time=0)\n",
      "Message('note_off', channel=2, note=32, velocity=106, time=84)\n",
      "Message('note_on', channel=9, note=43, velocity=83, time=8)\n",
      "Message('note_on', channel=2, note=32, velocity=107, time=0)\n",
      "Message('note_off', channel=9, note=43, velocity=83, time=4)\n",
      "Message('note_off', channel=2, note=32, velocity=107, time=84)\n",
      "Message('note_off', channel=7, note=73, velocity=83, time=8)\n",
      "Message('note_off', channel=7, note=61, velocity=70, time=0)\n",
      "Message('note_on', channel=9, note=42, velocity=85, time=0)\n",
      "Message('note_on', channel=9, note=38, velocity=105, time=0)\n",
      "Message('note_on', channel=9, note=43, velocity=80, time=0)\n",
      "Message('note_on', channel=9, note=39, velocity=82, time=0)\n",
      "Message('note_on', channel=2, note=32, velocity=108, time=0)\n",
      "Message('note_off', channel=9, note=39, velocity=82, time=4)\n",
      "Message('note_off', channel=9, note=43, velocity=80, time=0)\n",
      "Message('note_off', channel=9, note=38, velocity=105, time=0)\n",
      "Message('note_off', channel=9, note=42, velocity=85, time=0)\n",
      "Message('note_off', channel=2, note=32, velocity=108, time=84)\n",
      "Message('note_on', channel=9, note=46, velocity=91, time=104)\n",
      "Message('note_on', channel=2, note=29, velocity=106, time=0)\n",
      "Message('note_on', channel=7, note=58, velocity=74, time=0)\n",
      "Message('note_on', channel=7, note=70, velocity=82, time=0)\n",
      "Message('note_off', channel=9, note=46, velocity=91, time=4)\n",
      "Message('note_off', channel=15, note=63, velocity=119, time=60)\n",
      "Message('note_off', channel=2, note=29, velocity=106, time=24)\n",
      "Message('note_off', channel=3, note=63, velocity=89, time=8)\n",
      "Message('note_off', channel=3, note=60, velocity=92, time=0)\n",
      "Message('note_off', channel=3, note=56, velocity=86, time=0)\n",
      "Message('note_on', channel=2, note=32, velocity=110, time=0)\n",
      "Message('note_off', channel=2, note=32, velocity=110, time=88)\n",
      "Message('note_on', channel=9, note=42, velocity=81, time=8)\n",
      "Message('note_on', channel=9, note=36, velocity=103, time=0)\n",
      "Message('note_on', channel=2, note=34, velocity=110, time=0)\n",
      "Message('note_on', channel=3, note=70, velocity=92, time=0)\n",
      "Message('note_on', channel=3, note=63, velocity=93, time=0)\n",
      "Message('note_on', channel=3, note=61, velocity=88, time=0)\n",
      "Message('note_on', channel=3, note=66, velocity=89, time=0)\n",
      "Message('note_on', channel=4, note=70, velocity=87, time=0)\n",
      "Message('note_on', channel=4, note=63, velocity=82, time=0)\n",
      "Message('note_on', channel=4, note=61, velocity=84, time=0)\n",
      "Message('note_on', channel=4, note=66, velocity=83, time=0)\n",
      "Message('note_on', channel=15, note=61, velocity=123, time=0)\n",
      "Message('note_off', channel=9, note=36, velocity=103, time=4)\n",
      "Message('note_off', channel=9, note=42, velocity=81, time=0)\n",
      "Message('note_off', channel=2, note=34, velocity=110, time=84)\n",
      "Message('note_on', channel=9, note=46, velocity=89, time=104)\n",
      "Message('note_on', channel=2, note=34, velocity=111, time=0)\n",
      "Message('note_off', channel=9, note=46, velocity=89, time=4)\n",
      "Message('note_off', channel=2, note=34, velocity=111, time=84)\n",
      "Message('note_on', channel=2, note=34, velocity=110, time=8)\n",
      "Message('note_off', channel=2, note=34, velocity=110, time=88)\n",
      "Message('note_on', channel=9, note=42, velocity=83, time=8)\n",
      "Message('note_on', channel=9, note=38, velocity=108, time=0)\n",
      "Message('note_on', channel=9, note=39, velocity=81, time=0)\n",
      "Message('note_off', channel=9, note=39, velocity=81, time=4)\n",
      "Message('note_off', channel=9, note=38, velocity=108, time=0)\n",
      "Message('note_off', channel=9, note=42, velocity=83, time=0)\n",
      "Message('note_on', channel=2, note=37, velocity=106, time=92)\n",
      "Message('note_off', channel=2, note=37, velocity=106, time=88)\n",
      "Message('note_on', channel=9, note=42, velocity=81, time=8)\n",
      "Message('note_on', channel=2, note=36, velocity=108, time=0)\n",
      "Message('note_off', channel=9, note=42, velocity=81, time=4)\n",
      "Message('note_off', channel=2, note=36, velocity=108, time=84)\n",
      "Message('note_on', channel=9, note=42, velocity=82, time=8)\n",
      "Message('note_off', channel=9, note=42, velocity=82, time=4)\n",
      "Message('note_on', channel=9, note=42, velocity=81, time=92)\n",
      "Message('note_on', channel=9, note=36, velocity=105, time=0)\n",
      "Message('note_on', channel=2, note=32, velocity=109, time=0)\n",
      "Message('note_off', channel=9, note=36, velocity=105, time=4)\n",
      "Message('note_off', channel=9, note=42, velocity=81, time=0)\n",
      "Message('note_off', channel=15, note=61, velocity=123, time=156)\n",
      "Message('note_off', channel=2, note=32, velocity=109, time=32)\n",
      "Message('note_on', channel=9, note=46, velocity=90, time=0)\n",
      "Message('note_on', channel=2, note=34, velocity=109, time=0)\n",
      "Message('note_on', channel=15, note=63, velocity=119, time=0)\n",
      "Message('note_off', channel=9, note=46, velocity=90, time=4)\n",
      "Message('note_off', channel=2, note=34, velocity=109, time=84)\n",
      "Message('note_off', channel=15, note=63, velocity=119, time=88)\n",
      "Message('note_on', channel=9, note=42, velocity=82, time=16)\n",
      "Message('note_on', channel=9, note=38, velocity=104, time=0)\n",
      "Message('note_on', channel=9, note=39, velocity=80, time=0)\n",
      "Message('note_on', channel=15, note=65, velocity=122, time=0)\n",
      "Message('note_off', channel=9, note=39, velocity=80, time=4)\n",
      "Message('note_off', channel=9, note=38, velocity=104, time=0)\n",
      "Message('note_off', channel=9, note=42, velocity=82, time=0)\n",
      "Message('note_off', channel=15, note=65, velocity=122, time=172)\n",
      "Message('note_off', channel=7, note=70, velocity=82, time=16)\n",
      "Message('note_off', channel=7, note=58, velocity=74, time=0)\n",
      "Message('note_on', channel=9, note=46, velocity=91, time=0)\n",
      "Message('note_on', channel=2, note=29, velocity=106, time=0)\n",
      "Message('note_on', channel=15, note=61, velocity=119, time=0)\n",
      "Message('note_off', channel=9, note=46, velocity=91, time=4)\n",
      "Message('note_off', channel=2, note=29, velocity=106, time=84)\n",
      "Message('note_off', channel=4, note=66, velocity=83, time=8)\n",
      "Message('note_off', channel=4, note=61, velocity=84, time=0)\n",
      "Message('note_off', channel=4, note=63, velocity=82, time=0)\n",
      "Message('note_off', channel=4, note=70, velocity=87, time=0)\n",
      "Message('note_off', channel=3, note=66, velocity=89, time=0)\n",
      "Message('note_off', channel=3, note=61, velocity=88, time=0)\n",
      "Message('note_off', channel=3, note=63, velocity=93, time=0)\n",
      "Message('note_off', channel=3, note=70, velocity=92, time=0)\n",
      "Message('note_on', channel=2, note=32, velocity=111, time=0)\n",
      "Message('note_off', channel=15, note=61, velocity=119, time=80)\n",
      "Message('note_off', channel=2, note=32, velocity=111, time=8)\n",
      "Message('note_on', channel=9, note=42, velocity=83, time=8)\n",
      "Message('note_on', channel=9, note=36, velocity=105, time=0)\n",
      "Message('note_on', channel=2, note=34, velocity=111, time=0)\n",
      "Message('note_on', channel=3, note=68, velocity=90, time=0)\n",
      "Message('note_on', channel=3, note=63, velocity=87, time=0)\n",
      "Message('note_on', channel=3, note=65, velocity=92, time=0)\n"
     ]
    },
    {
     "name": "stdout",
     "output_type": "stream",
     "text": [
      "Message('note_on', channel=3, note=60, velocity=92, time=0)\n",
      "Message('note_on', channel=4, note=68, velocity=87, time=0)\n",
      "Message('note_on', channel=4, note=63, velocity=84, time=0)\n",
      "Message('note_on', channel=4, note=65, velocity=86, time=0)\n",
      "Message('note_on', channel=4, note=60, velocity=85, time=0)\n",
      "Message('note_on', channel=15, note=63, velocity=119, time=0)\n",
      "Message('note_off', channel=9, note=36, velocity=105, time=4)\n",
      "Message('note_off', channel=9, note=42, velocity=83, time=0)\n",
      "Message('note_off', channel=15, note=63, velocity=119, time=84)\n",
      "Message('note_off', channel=2, note=34, velocity=111, time=0)\n",
      "Message('note_on', channel=9, note=46, velocity=91, time=104)\n",
      "Message('note_on', channel=2, note=32, velocity=107, time=0)\n",
      "Message('note_on', channel=15, note=63, velocity=119, time=0)\n",
      "Message('note_off', channel=9, note=46, velocity=91, time=4)\n",
      "Message('note_off', channel=15, note=63, velocity=119, time=84)\n",
      "Message('note_off', channel=2, note=32, velocity=107, time=0)\n",
      "Message('note_on', channel=2, note=34, velocity=106, time=8)\n",
      "Message('note_off', channel=2, note=34, velocity=106, time=88)\n",
      "Message('note_on', channel=9, note=42, velocity=83, time=8)\n",
      "Message('note_on', channel=9, note=38, velocity=101, time=0)\n",
      "Message('note_on', channel=9, note=39, velocity=86, time=0)\n",
      "Message('note_on', channel=15, note=63, velocity=123, time=0)\n",
      "Message('note_off', channel=9, note=39, velocity=86, time=4)\n",
      "Message('note_off', channel=9, note=38, velocity=101, time=0)\n",
      "Message('note_off', channel=9, note=42, velocity=83, time=0)\n",
      "Message('note_on', channel=2, note=37, velocity=109, time=92)\n",
      "Message('note_off', channel=15, note=63, velocity=123, time=80)\n",
      "Message('note_off', channel=2, note=37, velocity=109, time=8)\n",
      "Message('note_on', channel=9, note=46, velocity=87, time=8)\n",
      "Message('note_on', channel=2, note=36, velocity=111, time=0)\n",
      "Message('note_on', channel=15, note=65, velocity=120, time=0)\n",
      "Message('note_off', channel=9, note=46, velocity=87, time=4)\n",
      "Message('note_off', channel=2, note=36, velocity=111, time=84)\n",
      "Message('note_off', channel=15, note=65, velocity=120, time=88)\n",
      "Message('note_on', channel=9, note=42, velocity=85, time=16)\n",
      "Message('note_on', channel=9, note=36, velocity=101, time=0)\n",
      "Message('note_on', channel=15, note=63, velocity=119, time=0)\n",
      "Message('note_off', channel=9, note=36, velocity=101, time=4)\n",
      "Message('note_off', channel=9, note=42, velocity=85, time=0)\n",
      "Message('note_off', channel=15, note=63, velocity=119, time=172)\n",
      "Message('note_on', channel=9, note=46, velocity=91, time=16)\n",
      "Message('note_on', channel=15, note=56, velocity=121, time=0)\n",
      "Message('note_off', channel=9, note=46, velocity=91, time=4)\n",
      "Message('note_off', channel=15, note=56, velocity=121, time=172)\n",
      "Message('note_on', channel=9, note=42, velocity=82, time=16)\n",
      "Message('note_on', channel=9, note=38, velocity=105, time=0)\n",
      "Message('note_on', channel=9, note=39, velocity=80, time=0)\n",
      "Message('note_on', channel=15, note=56, velocity=123, time=0)\n",
      "Message('note_off', channel=9, note=39, velocity=80, time=4)\n",
      "Message('note_off', channel=9, note=38, velocity=105, time=0)\n",
      "Message('note_off', channel=9, note=42, velocity=82, time=0)\n",
      "Message('note_on', channel=9, note=46, velocity=92, time=188)\n",
      "Message('note_on', channel=2, note=29, velocity=109, time=0)\n",
      "Message('note_off', channel=9, note=46, velocity=92, time=4)\n",
      "Message('note_off', channel=2, note=29, velocity=109, time=84)\n",
      "Message('note_off', channel=4, note=60, velocity=85, time=8)\n",
      "Message('note_off', channel=4, note=65, velocity=86, time=0)\n",
      "Message('note_off', channel=4, note=63, velocity=84, time=0)\n",
      "Message('note_off', channel=4, note=68, velocity=87, time=0)\n",
      "Message('note_off', channel=3, note=60, velocity=92, time=0)\n",
      "Message('note_off', channel=3, note=65, velocity=92, time=0)\n",
      "Message('note_off', channel=3, note=63, velocity=87, time=0)\n",
      "Message('note_on', channel=2, note=32, velocity=111, time=0)\n",
      "Message('note_off', channel=15, note=56, velocity=123, time=64)\n",
      "Message('note_off', channel=2, note=32, velocity=111, time=24)\n",
      "Message('note_off', channel=3, note=68, velocity=90, time=8)\n",
      "Message('note_on', channel=9, note=42, velocity=81, time=0)\n",
      "Message('note_on', channel=9, note=36, velocity=103, time=0)\n",
      "Message('note_on', channel=2, note=34, velocity=110, time=0)\n",
      "Message('note_on', channel=3, note=70, velocity=87, time=0)\n",
      "Message('note_on', channel=3, note=61, velocity=86, time=0)\n",
      "Message('note_on', channel=3, note=63, velocity=86, time=0)\n",
      "Message('note_on', channel=3, note=66, velocity=90, time=0)\n",
      "Message('note_on', channel=4, note=70, velocity=83, time=0)\n",
      "Message('note_on', channel=4, note=61, velocity=87, time=0)\n",
      "Message('note_on', channel=4, note=63, velocity=86, time=0)\n",
      "Message('note_on', channel=4, note=66, velocity=86, time=0)\n",
      "Message('note_off', channel=9, note=36, velocity=103, time=4)\n",
      "Message('note_off', channel=9, note=42, velocity=81, time=0)\n",
      "Message('note_off', channel=2, note=34, velocity=110, time=84)\n",
      "Message('note_on', channel=9, note=46, velocity=91, time=104)\n",
      "Message('note_on', channel=2, note=34, velocity=109, time=0)\n",
      "Message('note_off', channel=9, note=46, velocity=91, time=4)\n",
      "Message('note_off', channel=2, note=34, velocity=109, time=84)\n",
      "Message('note_on', channel=2, note=34, velocity=109, time=8)\n",
      "Message('note_off', channel=2, note=34, velocity=109, time=88)\n",
      "Message('note_on', channel=9, note=42, velocity=84, time=8)\n",
      "Message('note_on', channel=9, note=38, velocity=107, time=0)\n",
      "Message('note_on', channel=9, note=39, velocity=87, time=0)\n",
      "Message('note_off', channel=9, note=39, velocity=87, time=4)\n",
      "Message('note_off', channel=9, note=38, velocity=107, time=0)\n",
      "Message('note_off', channel=9, note=42, velocity=84, time=0)\n",
      "Message('note_on', channel=2, note=37, velocity=106, time=92)\n",
      "Message('note_off', channel=2, note=37, velocity=106, time=88)\n",
      "Message('note_on', channel=9, note=42, velocity=81, time=8)\n",
      "Message('note_on', channel=2, note=36, velocity=107, time=0)\n",
      "Message('note_off', channel=9, note=42, velocity=81, time=4)\n",
      "Message('note_off', channel=2, note=36, velocity=107, time=84)\n",
      "Message('note_on', channel=9, note=42, velocity=83, time=8)\n",
      "Message('note_off', channel=9, note=42, velocity=83, time=4)\n",
      "Message('note_on', channel=9, note=42, velocity=85, time=92)\n",
      "Message('note_on', channel=9, note=36, velocity=109, time=0)\n",
      "Message('note_on', channel=2, note=32, velocity=110, time=0)\n",
      "Message('note_on', channel=15, note=58, velocity=119, time=0)\n",
      "Message('note_off', channel=9, note=36, velocity=109, time=4)\n",
      "Message('note_off', channel=9, note=42, velocity=85, time=0)\n",
      "Message('note_off', channel=2, note=32, velocity=110, time=84)\n",
      "Message('note_off', channel=15, note=58, velocity=119, time=88)\n",
      "Message('note_on', channel=9, note=46, velocity=92, time=16)\n",
      "Message('note_on', channel=2, note=34, velocity=108, time=0)\n",
      "Message('note_on', channel=15, note=60, velocity=121, time=0)\n",
      "Message('note_off', channel=9, note=46, velocity=92, time=4)\n",
      "Message('note_off', channel=2, note=34, velocity=108, time=84)\n",
      "Message('note_off', channel=15, note=60, velocity=121, time=88)\n",
      "Message('note_on', channel=9, note=42, velocity=83, time=16)\n",
      "Message('note_on', channel=9, note=38, velocity=106, time=0)\n",
      "Message('note_on', channel=9, note=39, velocity=86, time=0)\n",
      "Message('note_on', channel=15, note=61, velocity=122, time=0)\n",
      "Message('note_off', channel=9, note=39, velocity=86, time=4)\n",
      "Message('note_off', channel=9, note=38, velocity=106, time=0)\n",
      "Message('note_off', channel=9, note=42, velocity=83, time=0)\n",
      "Message('note_off', channel=15, note=61, velocity=122, time=172)\n",
      "Message('note_on', channel=9, note=46, velocity=92, time=16)\n",
      "Message('note_on', channel=2, note=29, velocity=110, time=0)\n",
      "Message('note_on', channel=15, note=58, velocity=124, time=0)\n",
      "Message('note_off', channel=9, note=46, velocity=92, time=4)\n",
      "Message('note_off', channel=2, note=29, velocity=110, time=84)\n",
      "Message('note_off', channel=4, note=66, velocity=86, time=8)\n",
      "Message('note_off', channel=4, note=63, velocity=86, time=0)\n",
      "Message('note_off', channel=4, note=61, velocity=87, time=0)\n",
      "Message('note_off', channel=4, note=70, velocity=83, time=0)\n",
      "Message('note_off', channel=3, note=66, velocity=90, time=0)\n",
      "Message('note_off', channel=3, note=63, velocity=86, time=0)\n",
      "Message('note_off', channel=3, note=61, velocity=86, time=0)\n",
      "Message('note_off', channel=3, note=70, velocity=87, time=0)\n",
      "Message('note_on', channel=2, note=32, velocity=108, time=0)\n",
      "Message('note_off', channel=15, note=58, velocity=124, time=80)\n",
      "Message('note_off', channel=2, note=32, velocity=108, time=8)\n",
      "Message('note_on', channel=9, note=42, velocity=80, time=8)\n",
      "Message('note_on', channel=9, note=36, velocity=103, time=0)\n",
      "Message('note_on', channel=2, note=34, velocity=107, time=0)\n",
      "Message('note_on', channel=3, note=70, velocity=88, time=0)\n",
      "Message('note_on', channel=3, note=63, velocity=91, time=0)\n",
      "Message('note_on', channel=3, note=61, velocity=91, time=0)\n",
      "Message('note_on', channel=3, note=66, velocity=88, time=0)\n",
      "Message('note_on', channel=4, note=70, velocity=87, time=0)\n",
      "Message('note_on', channel=4, note=63, velocity=85, time=0)\n",
      "Message('note_on', channel=4, note=61, velocity=84, time=0)\n",
      "Message('note_on', channel=4, note=66, velocity=84, time=0)\n",
      "Message('note_off', channel=9, note=36, velocity=103, time=4)\n",
      "Message('note_off', channel=9, note=42, velocity=80, time=0)\n",
      "Message('note_off', channel=2, note=34, velocity=107, time=84)\n",
      "Message('note_off', channel=4, note=66, velocity=84, time=104)\n",
      "Message('note_off', channel=4, note=61, velocity=84, time=0)\n",
      "Message('note_off', channel=4, note=63, velocity=85, time=0)\n",
      "Message('note_off', channel=4, note=70, velocity=87, time=0)\n",
      "Message('note_off', channel=3, note=66, velocity=88, time=0)\n",
      "Message('note_off', channel=3, note=61, velocity=91, time=0)\n",
      "Message('note_off', channel=3, note=63, velocity=91, time=0)\n",
      "Message('note_off', channel=3, note=70, velocity=88, time=0)\n",
      "Message('note_on', channel=9, note=46, velocity=87, time=0)\n",
      "Message('note_on', channel=2, note=32, velocity=111, time=0)\n",
      "Message('note_on', channel=15, note=63, velocity=119, time=0)\n",
      "Message('note_off', channel=9, note=46, velocity=87, time=4)\n",
      "Message('note_off', channel=2, note=32, velocity=111, time=84)\n",
      "Message('note_on', channel=2, note=34, velocity=107, time=8)\n",
      "Message('note_on', channel=3, note=70, velocity=86, time=0)\n",
      "Message('note_on', channel=3, note=63, velocity=89, time=0)\n",
      "Message('note_on', channel=3, note=61, velocity=93, time=0)\n",
      "Message('note_on', channel=3, note=66, velocity=87, time=0)\n",
      "Message('note_on', channel=4, note=70, velocity=83, time=0)\n",
      "Message('note_on', channel=4, note=63, velocity=83, time=0)\n",
      "Message('note_on', channel=4, note=61, velocity=87, time=0)\n",
      "Message('note_on', channel=4, note=66, velocity=87, time=0)\n",
      "Message('note_off', channel=15, note=63, velocity=119, time=80)\n",
      "Message('note_off', channel=2, note=34, velocity=107, time=8)\n",
      "Message('note_off', channel=4, note=66, velocity=87, time=8)\n",
      "Message('note_off', channel=4, note=61, velocity=87, time=0)\n",
      "Message('note_off', channel=4, note=63, velocity=83, time=0)\n",
      "Message('note_off', channel=4, note=70, velocity=83, time=0)\n",
      "Message('note_off', channel=3, note=66, velocity=87, time=0)\n",
      "Message('note_off', channel=3, note=61, velocity=93, time=0)\n",
      "Message('note_off', channel=3, note=63, velocity=89, time=0)\n",
      "Message('note_off', channel=3, note=70, velocity=86, time=0)\n",
      "Message('note_on', channel=9, note=42, velocity=83, time=0)\n",
      "Message('note_on', channel=9, note=38, velocity=103, time=0)\n",
      "Message('note_on', channel=9, note=39, velocity=80, time=0)\n",
      "Message('note_on', channel=15, note=65, velocity=119, time=0)\n",
      "Message('note_off', channel=9, note=39, velocity=80, time=4)\n",
      "Message('note_off', channel=9, note=38, velocity=103, time=0)\n",
      "Message('note_off', channel=9, note=42, velocity=83, time=0)\n",
      "Message('note_on', channel=2, note=37, velocity=106, time=92)\n",
      "Message('note_off', channel=15, note=65, velocity=119, time=80)\n",
      "Message('note_off', channel=2, note=37, velocity=106, time=8)\n",
      "Message('note_on', channel=9, note=46, velocity=91, time=8)\n",
      "Message('note_on', channel=9, note=45, velocity=85, time=0)\n",
      "Message('note_on', channel=2, note=36, velocity=107, time=0)\n",
      "Message('note_on', channel=3, note=63, velocity=90, time=0)\n",
      "Message('note_on', channel=3, note=68, velocity=92, time=0)\n",
      "Message('note_on', channel=3, note=72, velocity=91, time=0)\n",
      "Message('note_on', channel=4, note=63, velocity=82, time=0)\n",
      "Message('note_on', channel=4, note=68, velocity=87, time=0)\n",
      "Message('note_on', channel=4, note=72, velocity=85, time=0)\n",
      "Message('note_on', channel=15, note=63, velocity=121, time=0)\n",
      "Message('note_off', channel=9, note=45, velocity=85, time=4)\n",
      "Message('note_off', channel=9, note=46, velocity=91, time=0)\n",
      "Message('note_off', channel=2, note=36, velocity=107, time=84)\n",
      "Message('note_on', channel=9, note=45, velocity=80, time=8)\n",
      "Message('note_off', channel=9, note=45, velocity=80, time=4)\n",
      "Message('note_on', channel=9, note=42, velocity=84, time=92)\n",
      "Message('note_on', channel=9, note=36, velocity=104, time=0)\n",
      "Message('note_on', channel=9, note=45, velocity=80, time=0)\n",
      "Message('note_on', channel=9, note=39, velocity=83, time=0)\n",
      "Message('note_off', channel=9, note=39, velocity=83, time=4)\n",
      "Message('note_off', channel=9, note=45, velocity=80, time=0)\n",
      "Message('note_off', channel=9, note=36, velocity=104, time=0)\n",
      "Message('note_off', channel=9, note=42, velocity=84, time=0)\n",
      "Message('note_on', channel=9, note=45, velocity=80, time=92)\n",
      "Message('note_on', channel=9, note=39, velocity=86, time=0)\n",
      "Message('note_off', channel=9, note=39, velocity=86, time=4)\n",
      "Message('note_off', channel=9, note=45, velocity=80, time=0)\n",
      "Message('note_on', channel=9, note=46, velocity=88, time=92)\n",
      "Message('note_on', channel=9, note=43, velocity=85, time=0)\n",
      "Message('note_on', channel=7, note=68, velocity=81, time=0)\n",
      "Message('note_on', channel=7, note=80, velocity=107, time=0)\n",
      "Message('note_on', channel=7, note=56, velocity=82, time=0)\n",
      "Message('note_off', channel=9, note=43, velocity=85, time=4)\n",
      "Message('note_off', channel=9, note=46, velocity=88, time=0)\n",
      "Message('note_off', channel=7, note=56, velocity=82, time=60)\n",
      "Message('note_off', channel=7, note=80, velocity=107, time=0)\n",
      "Message('note_off', channel=7, note=68, velocity=81, time=0)\n",
      "Message('note_off', channel=15, note=63, velocity=121, time=0)\n",
      "Message('note_on', channel=9, note=43, velocity=84, time=32)\n",
      "Message('note_on', channel=7, note=56, velocity=82, time=0)\n",
      "Message('note_on', channel=7, note=68, velocity=109, time=0)\n",
      "Message('note_on', channel=7, note=80, velocity=112, time=0)\n",
      "Message('note_off', channel=9, note=43, velocity=84, time=4)\n",
      "Message('note_off', channel=7, note=80, velocity=112, time=60)\n",
      "Message('note_off', channel=7, note=68, velocity=109, time=0)\n",
      "Message('note_off', channel=7, note=56, velocity=82, time=0)\n",
      "Message('note_on', channel=9, note=42, velocity=84, time=32)\n",
      "Message('note_on', channel=9, note=38, velocity=107, time=0)\n",
      "Message('note_on', channel=9, note=45, velocity=82, time=0)\n",
      "Message('note_on', channel=9, note=39, velocity=85, time=0)\n",
      "Message('note_on', channel=15, note=56, velocity=121, time=0)\n",
      "Message('note_off', channel=9, note=39, velocity=85, time=4)\n",
      "Message('note_off', channel=9, note=45, velocity=82, time=0)\n",
      "Message('note_off', channel=9, note=38, velocity=107, time=0)\n",
      "Message('note_off', channel=9, note=42, velocity=84, time=0)\n",
      "Message('note_off', channel=15, note=56, velocity=121, time=84)\n",
      "Message('note_on', channel=9, note=45, velocity=85, time=8)\n",
      "Message('note_on', channel=9, note=39, velocity=86, time=0)\n",
      "Message('note_on', channel=15, note=58, velocity=119, time=0)\n",
      "Message('note_off', channel=9, note=39, velocity=86, time=4)\n",
      "Message('note_off', channel=9, note=45, velocity=85, time=0)\n",
      "Message('note_off', channel=15, note=58, velocity=119, time=84)\n",
      "Message('note_on', channel=9, note=46, velocity=89, time=8)\n",
      "Message('note_on', channel=9, note=43, velocity=81, time=0)\n",
      "Message('note_on', channel=2, note=29, velocity=111, time=0)\n",
      "Message('note_on', channel=15, note=61, velocity=121, time=0)\n",
      "Message('note_off', channel=9, note=43, velocity=81, time=4)\n",
      "Message('note_off', channel=9, note=46, velocity=89, time=0)\n",
      "Message('note_off', channel=15, note=61, velocity=121, time=84)\n",
      "Message('note_off', channel=2, note=29, velocity=111, time=0)\n",
      "Message('note_off', channel=3, note=72, velocity=91, time=8)\n",
      "Message('note_off', channel=3, note=68, velocity=92, time=0)\n",
      "Message('note_off', channel=3, note=63, velocity=90, time=0)\n",
      "Message('note_on', channel=9, note=43, velocity=86, time=0)\n",
      "Message('note_on', channel=2, note=32, velocity=110, time=0)\n",
      "Message('note_on', channel=15, note=58, velocity=123, time=0)\n",
      "Message('note_off', channel=9, note=43, velocity=86, time=4)\n",
      "Message('note_off', channel=15, note=58, velocity=123, time=84)\n",
      "Message('note_off', channel=2, note=32, velocity=110, time=0)\n",
      "Message('note_off', channel=4, note=72, velocity=85, time=8)\n",
      "Message('note_off', channel=4, note=68, velocity=87, time=0)\n",
      "Message('note_off', channel=4, note=63, velocity=82, time=0)\n",
      "Message('note_on', channel=9, note=42, velocity=83, time=0)\n",
      "Message('note_on', channel=9, note=36, velocity=108, time=0)\n",
      "Message('note_on', channel=2, note=27, velocity=107, time=0)\n",
      "Message('note_on', channel=3, note=61, velocity=93, time=0)\n",
      "Message('note_on', channel=3, note=58, velocity=90, time=0)\n",
      "Message('note_on', channel=3, note=65, velocity=88, time=0)\n",
      "Message('note_on', channel=8, note=85, velocity=99, time=0)\n",
      "Message('note_on', channel=13, note=65, velocity=87, time=0)\n",
      "Message('note_on', channel=13, note=68, velocity=87, time=0)\n",
      "Message('note_on', channel=13, note=73, velocity=84, time=0)\n",
      "Message('note_on', channel=15, note=65, velocity=121, time=0)\n",
      "Message('note_off', channel=9, note=36, velocity=108, time=4)\n",
      "Message('note_off', channel=9, note=42, velocity=83, time=0)\n",
      "Message('note_off', channel=2, note=27, velocity=107, time=84)\n",
      "Message('note_on', channel=9, note=46, velocity=92, time=104)\n",
      "Message('note_on', channel=2, note=27, velocity=106, time=0)\n",
      "Message('note_off', channel=9, note=46, velocity=92, time=4)\n",
      "Message('note_off', channel=15, note=65, velocity=121, time=68)\n",
      "Message('note_off', channel=2, note=27, velocity=106, time=16)\n",
      "Message('note_off', channel=13, note=73, velocity=84, time=0)\n",
      "Message('note_off', channel=13, note=68, velocity=87, time=0)\n",
      "Message('note_off', channel=13, note=65, velocity=87, time=0)\n",
      "Message('note_on', channel=2, note=27, velocity=109, time=8)\n",
      "Message('note_off', channel=2, note=27, velocity=109, time=88)\n",
      "Message('note_on', channel=9, note=42, velocity=82, time=8)\n",
      "Message('note_on', channel=9, note=38, velocity=103, time=0)\n",
      "Message('note_on', channel=9, note=39, velocity=81, time=0)\n",
      "Message('note_on', channel=13, note=65, velocity=87, time=0)\n",
      "Message('note_on', channel=13, note=73, velocity=86, time=0)\n",
      "Message('note_on', channel=13, note=68, velocity=84, time=0)\n",
      "Message('note_on', channel=15, note=65, velocity=120, time=0)\n",
      "Message('note_off', channel=9, note=39, velocity=81, time=4)\n",
      "Message('note_off', channel=9, note=38, velocity=103, time=0)\n",
      "Message('note_off', channel=9, note=42, velocity=82, time=0)\n",
      "Message('note_off', channel=3, note=65, velocity=88, time=92)\n",
      "Message('note_off', channel=3, note=58, velocity=90, time=0)\n",
      "Message('note_off', channel=3, note=61, velocity=93, time=0)\n",
      "Message('note_on', channel=2, note=36, velocity=110, time=0)\n",
      "Message('note_off', channel=8, note=85, velocity=99, time=48)\n",
      "Message('note_off', channel=15, note=65, velocity=120, time=32)\n",
      "Message('note_off', channel=2, note=36, velocity=110, time=8)\n",
      "Message('note_off', channel=13, note=68, velocity=84, time=0)\n",
      "Message('note_off', channel=13, note=73, velocity=86, time=0)\n",
      "Message('note_off', channel=13, note=65, velocity=87, time=0)\n",
      "Message('note_on', channel=9, note=42, velocity=80, time=8)\n",
      "Message('note_on', channel=2, note=34, velocity=109, time=0)\n",
      "Message('note_on', channel=3, note=60, velocity=93, time=0)\n",
      "Message('note_on', channel=3, note=56, velocity=90, time=0)\n",
      "Message('note_on', channel=3, note=63, velocity=92, time=0)\n",
      "Message('note_on', channel=8, note=87, velocity=98, time=0)\n",
      "Message('note_on', channel=13, note=68, velocity=82, time=0)\n",
      "Message('note_on', channel=13, note=63, velocity=83, time=0)\n",
      "Message('note_on', channel=13, note=72, velocity=85, time=0)\n",
      "Message('note_on', channel=15, note=63, velocity=120, time=0)\n",
      "Message('note_off', channel=9, note=42, velocity=80, time=4)\n",
      "Message('note_off', channel=2, note=34, velocity=109, time=84)\n",
      "Message('note_on', channel=9, note=42, velocity=84, time=8)\n",
      "Message('note_off', channel=9, note=42, velocity=84, time=4)\n",
      "Message('note_off', channel=13, note=72, velocity=85, time=84)\n",
      "Message('note_off', channel=13, note=63, velocity=83, time=0)\n",
      "Message('note_off', channel=13, note=68, velocity=82, time=0)\n",
      "Message('note_on', channel=9, note=42, velocity=82, time=8)\n",
      "Message('note_on', channel=9, note=36, velocity=107, time=0)\n",
      "Message('note_on', channel=2, note=32, velocity=108, time=0)\n",
      "Message('note_off', channel=9, note=36, velocity=107, time=4)\n",
      "Message('note_off', channel=9, note=42, velocity=82, time=0)\n",
      "Message('note_off', channel=2, note=32, velocity=108, time=84)\n",
      "Message('note_on', channel=9, note=46, velocity=90, time=104)\n",
      "Message('note_on', channel=2, note=32, velocity=108, time=0)\n",
      "Message('note_off', channel=9, note=46, velocity=90, time=4)\n",
      "Message('note_off', channel=2, note=32, velocity=108, time=84)\n",
      "Message('note_off', channel=8, note=87, velocity=98, time=56)\n",
      "Message('note_off', channel=15, note=63, velocity=120, time=16)\n",
      "Message('note_on', channel=9, note=42, velocity=80, time=32)\n",
      "Message('note_on', channel=9, note=38, velocity=108, time=0)\n",
      "Message('note_on', channel=9, note=39, velocity=85, time=0)\n",
      "Message('note_on', channel=8, note=80, velocity=97, time=0)\n",
      "Message('note_on', channel=15, note=56, velocity=124, time=0)\n",
      "Message('note_off', channel=9, note=39, velocity=85, time=4)\n",
      "Message('note_off', channel=9, note=38, velocity=108, time=0)\n",
      "Message('note_off', channel=9, note=42, velocity=80, time=0)\n",
      "Message('note_off', channel=15, note=56, velocity=124, time=84)\n",
      "Message('note_on', channel=15, note=58, velocity=120, time=8)\n",
      "Message('note_off', channel=15, note=58, velocity=120, time=88)\n",
      "Message('note_on', channel=9, note=46, velocity=89, time=8)\n",
      "Message('note_on', channel=2, note=29, velocity=106, time=0)\n",
      "Message('note_on', channel=15, note=61, velocity=120, time=0)\n",
      "Message('note_off', channel=9, note=46, velocity=89, time=4)\n",
      "Message('note_off', channel=15, note=61, velocity=120, time=84)\n",
      "Message('note_off', channel=2, note=29, velocity=106, time=0)\n",
      "Message('note_off', channel=3, note=63, velocity=92, time=8)\n",
      "Message('note_off', channel=3, note=56, velocity=90, time=0)\n",
      "Message('note_off', channel=3, note=60, velocity=93, time=0)\n",
      "Message('note_on', channel=2, note=32, velocity=109, time=0)\n",
      "Message('note_on', channel=15, note=58, velocity=124, time=0)\n",
      "Message('note_off', channel=8, note=80, velocity=97, time=64)\n",
      "Message('note_off', channel=15, note=58, velocity=124, time=24)\n",
      "Message('note_off', channel=2, note=32, velocity=109, time=0)\n",
      "Message('note_on', channel=9, note=42, velocity=80, time=8)\n",
      "Message('note_on', channel=9, note=36, velocity=101, time=0)\n",
      "Message('note_on', channel=2, note=29, velocity=110, time=0)\n",
      "Message('note_on', channel=3, note=53, velocity=89, time=0)\n",
      "Message('note_on', channel=3, note=56, velocity=86, time=0)\n",
      "Message('note_on', channel=3, note=60, velocity=90, time=0)\n",
      "Message('note_on', channel=8, note=87, velocity=96, time=0)\n",
      "Message('note_on', channel=13, note=63, velocity=89, time=0)\n",
      "Message('note_on', channel=13, note=72, velocity=82, time=0)\n",
      "Message('note_on', channel=13, note=68, velocity=87, time=0)\n",
      "Message('note_on', channel=15, note=63, velocity=123, time=0)\n",
      "Message('note_off', channel=9, note=36, velocity=101, time=4)\n",
      "Message('note_off', channel=9, note=42, velocity=80, time=0)\n",
      "Message('note_off', channel=2, note=29, velocity=110, time=84)\n",
      "Message('note_on', channel=9, note=46, velocity=91, time=104)\n",
      "Message('note_on', channel=2, note=29, velocity=109, time=0)\n",
      "Message('note_off', channel=9, note=46, velocity=91, time=4)\n",
      "Message('note_off', channel=15, note=63, velocity=123, time=68)\n",
      "Message('note_off', channel=2, note=29, velocity=109, time=16)\n",
      "Message('note_off', channel=13, note=68, velocity=87, time=0)\n",
      "Message('note_off', channel=13, note=72, velocity=82, time=0)\n",
      "Message('note_off', channel=13, note=63, velocity=89, time=0)\n",
      "Message('note_on', channel=2, note=29, velocity=109, time=8)\n",
      "Message('note_off', channel=2, note=29, velocity=109, time=88)\n",
      "Message('note_off', channel=3, note=60, velocity=90, time=8)\n",
      "Message('note_off', channel=3, note=56, velocity=86, time=0)\n",
      "Message('note_off', channel=3, note=53, velocity=89, time=0)\n",
      "Message('note_on', channel=9, note=42, velocity=83, time=0)\n",
      "Message('note_on', channel=9, note=38, velocity=108, time=0)\n",
      "Message('note_on', channel=9, note=39, velocity=81, time=0)\n",
      "Message('note_on', channel=13, note=63, velocity=82, time=0)\n",
      "Message('note_on', channel=13, note=72, velocity=87, time=0)\n",
      "Message('note_on', channel=13, note=68, velocity=86, time=0)\n",
      "Message('note_on', channel=15, note=63, velocity=119, time=0)\n",
      "Message('note_off', channel=9, note=39, velocity=81, time=4)\n",
      "Message('note_off', channel=9, note=38, velocity=108, time=0)\n",
      "Message('note_off', channel=9, note=42, velocity=83, time=0)\n",
      "Message('note_on', channel=2, note=36, velocity=108, time=92)\n",
      "Message('note_off', channel=8, note=87, velocity=96, time=48)\n",
      "Message('note_off', channel=15, note=63, velocity=119, time=32)\n",
      "Message('note_off', channel=2, note=36, velocity=108, time=8)\n",
      "Message('note_off', channel=13, note=68, velocity=86, time=0)\n",
      "Message('note_off', channel=13, note=72, velocity=87, time=0)\n",
      "Message('note_off', channel=13, note=63, velocity=82, time=0)\n",
      "Message('note_on', channel=9, note=46, velocity=92, time=8)\n",
      "Message('note_on', channel=2, note=34, velocity=108, time=0)\n",
      "Message('note_on', channel=3, note=58, velocity=92, time=0)\n",
      "Message('note_on', channel=3, note=61, velocity=92, time=0)\n",
      "Message('note_on', channel=3, note=65, velocity=91, time=0)\n",
      "Message('note_on', channel=8, note=89, velocity=99, time=0)\n",
      "Message('note_on', channel=13, note=61, velocity=85, time=0)\n",
      "Message('note_on', channel=13, note=70, velocity=82, time=0)\n",
      "Message('note_on', channel=13, note=65, velocity=89, time=0)\n",
      "Message('note_on', channel=15, note=61, velocity=121, time=0)\n",
      "Message('note_off', channel=9, note=46, velocity=92, time=4)\n",
      "Message('note_off', channel=2, note=34, velocity=108, time=84)\n",
      "Message('note_off', channel=13, note=65, velocity=89, time=96)\n",
      "Message('note_off', channel=13, note=70, velocity=82, time=0)\n",
      "Message('note_off', channel=13, note=61, velocity=85, time=0)\n",
      "Message('note_on', channel=9, note=42, velocity=80, time=8)\n",
      "Message('note_on', channel=9, note=36, velocity=103, time=0)\n",
      "Message('note_off', channel=9, note=36, velocity=103, time=4)\n",
      "Message('note_off', channel=9, note=42, velocity=80, time=0)\n",
      "Message('note_off', channel=15, note=61, velocity=121, time=68)\n",
      "Message('note_on', channel=15, note=60, velocity=120, time=24)\n",
      "Message('note_off', channel=15, note=60, velocity=120, time=88)\n",
      "Message('note_on', channel=9, note=46, velocity=91, time=8)\n",
      "Message('note_on', channel=2, note=34, velocity=106, time=0)\n",
      "Message('note_on', channel=15, note=58, velocity=120, time=0)\n",
      "Message('note_off', channel=9, note=46, velocity=91, time=4)\n",
      "Message('note_off', channel=2, note=34, velocity=106, time=84)\n",
      "Message('note_on', channel=2, note=34, velocity=108, time=8)\n",
      "Message('note_off', channel=8, note=89, velocity=99, time=48)\n",
      "Message('note_off', channel=15, note=58, velocity=120, time=32)\n",
      "Message('note_off', channel=2, note=34, velocity=108, time=8)\n",
      "Message('note_on', channel=9, note=42, velocity=82, time=8)\n",
      "Message('note_on', channel=9, note=38, velocity=106, time=0)\n",
      "Message('note_on', channel=9, note=39, velocity=86, time=0)\n",
      "Message('note_on', channel=2, note=34, velocity=107, time=0)\n",
      "Message('note_on', channel=8, note=92, velocity=96, time=0)\n",
      "Message('note_on', channel=15, note=56, velocity=121, time=0)\n",
      "Message('note_off', channel=9, note=39, velocity=86, time=4)\n",
      "Message('note_off', channel=9, note=38, velocity=106, time=0)\n",
      "Message('note_off', channel=9, note=42, velocity=82, time=0)\n",
      "Message('note_off', channel=15, note=56, velocity=121, time=84)\n",
      "Message('note_off', channel=8, note=92, velocity=96, time=0)\n",
      "Message('note_off', channel=2, note=34, velocity=107, time=0)\n",
      "Message('note_on', channel=2, note=36, velocity=108, time=8)\n",
      "Message('note_on', channel=8, note=90, velocity=99, time=0)\n",
      "Message('note_on', channel=15, note=58, velocity=123, time=0)\n",
      "Message('note_off', channel=15, note=58, velocity=123, time=88)\n",
      "Message('note_off', channel=8, note=90, velocity=99, time=0)\n",
      "Message('note_off', channel=2, note=36, velocity=108, time=0)\n",
      "Message('note_on', channel=9, note=46, velocity=89, time=8)\n",
      "Message('note_on', channel=8, note=89, velocity=96, time=0)\n",
      "Message('note_on', channel=15, note=61, velocity=123, time=0)\n",
      "Message('note_off', channel=9, note=46, velocity=89, time=4)\n",
      "Message('note_off', channel=15, note=61, velocity=123, time=84)\n",
      "Message('note_off', channel=8, note=89, velocity=96, time=0)\n",
      "Message('note_off', channel=3, note=65, velocity=91, time=8)\n",
      "Message('note_off', channel=3, note=61, velocity=92, time=0)\n",
      "Message('note_off', channel=3, note=58, velocity=92, time=0)\n",
      "Message('note_on', channel=2, note=34, velocity=108, time=0)\n",
      "Message('note_on', channel=8, note=85, velocity=97, time=0)\n",
      "Message('note_on', channel=15, note=58, velocity=123, time=0)\n",
      "Message('note_off', channel=15, note=58, velocity=123, time=88)\n",
      "Message('note_off', channel=2, note=34, velocity=108, time=0)\n",
      "Message('note_on', channel=9, note=42, velocity=82, time=8)\n",
      "Message('note_on', channel=9, note=36, velocity=105, time=0)\n",
      "Message('note_on', channel=2, note=27, velocity=109, time=0)\n",
      "Message('note_on', channel=3, note=61, velocity=91, time=0)\n",
      "Message('note_on', channel=3, note=58, velocity=90, time=0)\n",
      "Message('note_on', channel=3, note=65, velocity=86, time=0)\n",
      "Message('note_on', channel=15, note=61, velocity=119, time=0)\n",
      "Message('note_off', channel=9, note=36, velocity=105, time=4)\n",
      "Message('note_off', channel=9, note=42, velocity=82, time=0)\n",
      "Message('note_off', channel=2, note=27, velocity=109, time=84)\n",
      "Message('note_on', channel=9, note=46, velocity=90, time=104)\n",
      "Message('note_on', channel=2, note=27, velocity=111, time=0)\n",
      "Message('note_off', channel=9, note=46, velocity=90, time=4)\n",
      "Message('note_off', channel=2, note=27, velocity=111, time=84)\n",
      "Message('note_on', channel=2, note=27, velocity=109, time=8)\n",
      "Message('note_off', channel=15, note=61, velocity=119, time=64)\n",
      "Message('note_off', channel=2, note=27, velocity=109, time=24)\n",
      "Message('note_on', channel=9, note=42, velocity=80, time=8)\n",
      "Message('note_on', channel=9, note=38, velocity=103, time=0)\n",
      "Message('note_on', channel=9, note=39, velocity=86, time=0)\n",
      "Message('note_on', channel=15, note=63, velocity=119, time=0)\n",
      "Message('note_off', channel=9, note=39, velocity=86, time=4)\n",
      "Message('note_off', channel=9, note=38, velocity=103, time=0)\n",
      "Message('note_off', channel=9, note=42, velocity=80, time=0)\n",
      "Message('note_off', channel=3, note=65, velocity=86, time=92)\n",
      "Message('note_off', channel=3, note=58, velocity=90, time=0)\n",
      "Message('note_off', channel=3, note=61, velocity=91, time=0)\n",
      "Message('note_on', channel=2, note=36, velocity=106, time=0)\n",
      "Message('note_off', channel=8, note=85, velocity=97, time=48)\n",
      "Message('note_off', channel=15, note=63, velocity=119, time=32)\n",
      "Message('note_off', channel=2, note=36, velocity=106, time=8)\n",
      "Message('note_on', channel=9, note=42, velocity=84, time=8)\n",
      "Message('note_on', channel=2, note=34, velocity=107, time=0)\n",
      "Message('note_on', channel=3, note=56, velocity=93, time=0)\n",
      "Message('note_on', channel=3, note=63, velocity=92, time=0)\n",
      "Message('note_on', channel=3, note=60, velocity=92, time=0)\n",
      "Message('note_on', channel=8, note=87, velocity=95, time=0)\n",
      "Message('note_on', channel=15, note=60, velocity=121, time=0)\n",
      "Message('note_off', channel=9, note=42, velocity=84, time=4)\n",
      "Message('note_off', channel=2, note=34, velocity=107, time=84)\n",
      "Message('note_on', channel=9, note=42, velocity=82, time=8)\n",
      "Message('note_off', channel=9, note=42, velocity=82, time=4)\n",
      "Message('note_on', channel=9, note=42, velocity=84, time=92)\n",
      "Message('note_on', channel=9, note=36, velocity=109, time=0)\n",
      "Message('note_on', channel=2, note=32, velocity=107, time=0)\n",
      "Message('note_off', channel=9, note=36, velocity=109, time=4)\n",
      "Message('note_off', channel=9, note=42, velocity=84, time=0)\n",
      "Message('note_off', channel=15, note=60, velocity=121, time=68)\n",
      "Message('note_off', channel=2, note=32, velocity=107, time=16)\n",
      "Message('note_on', channel=15, note=58, velocity=119, time=8)\n",
      "Message('note_off', channel=15, note=58, velocity=119, time=88)\n",
      "Message('note_on', channel=9, note=46, velocity=90, time=8)\n",
      "Message('note_on', channel=2, note=32, velocity=106, time=0)\n",
      "Message('note_on', channel=15, note=56, velocity=121, time=0)\n",
      "Message('note_off', channel=9, note=46, velocity=90, time=4)\n",
      "Message('note_off', channel=2, note=32, velocity=106, time=84)\n",
      "Message('note_off', channel=8, note=87, velocity=95, time=56)\n",
      "Message('note_off', channel=15, note=56, velocity=121, time=32)\n",
      "Message('note_on', channel=9, note=42, velocity=81, time=16)\n",
      "Message('note_on', channel=9, note=38, velocity=107, time=0)\n",
      "Message('note_on', channel=9, note=39, velocity=81, time=0)\n",
      "Message('note_on', channel=8, note=80, velocity=99, time=0)\n",
      "Message('note_on', channel=15, note=56, velocity=121, time=0)\n",
      "Message('note_off', channel=9, note=39, velocity=81, time=4)\n",
      "Message('note_off', channel=9, note=38, velocity=107, time=0)\n",
      "Message('note_off', channel=9, note=42, velocity=81, time=0)\n",
      "Message('note_off', channel=15, note=56, velocity=121, time=172)\n",
      "Message('note_off', channel=3, note=60, velocity=92, time=16)\n",
      "Message('note_off', channel=3, note=63, velocity=92, time=0)\n",
      "Message('note_off', channel=3, note=56, velocity=93, time=0)\n",
      "Message('note_on', channel=9, note=46, velocity=91, time=0)\n",
      "Message('note_on', channel=2, note=32, velocity=110, time=0)\n",
      "Message('note_on', channel=15, note=63, velocity=123, time=0)\n",
      "Message('note_off', channel=9, note=46, velocity=91, time=4)\n",
      "Message('note_off', channel=2, note=32, velocity=110, time=84)\n",
      "Message('note_on', channel=2, note=32, velocity=106, time=8)\n",
      "Message('note_off', channel=2, note=32, velocity=106, time=88)\n",
      "Message('note_on', channel=9, note=42, velocity=80, time=8)\n",
      "Message('note_on', channel=9, note=36, velocity=101, time=0)\n",
      "Message('note_on', channel=2, note=29, velocity=109, time=0)\n",
      "Message('note_on', channel=3, note=60, velocity=90, time=0)\n",
      "Message('note_on', channel=3, note=53, velocity=88, time=0)\n",
      "Message('note_on', channel=3, note=56, velocity=87, time=0)\n",
      "Message('note_on', channel=13, note=63, velocity=89, time=0)\n",
      "Message('note_on', channel=13, note=68, velocity=88, time=0)\n",
      "Message('note_on', channel=13, note=72, velocity=88, time=0)\n",
      "Message('note_off', channel=9, note=36, velocity=101, time=4)\n",
      "Message('note_off', channel=9, note=42, velocity=80, time=0)\n",
      "Message('note_off', channel=2, note=29, velocity=109, time=84)\n",
      "Message('note_on', channel=9, note=46, velocity=91, time=104)\n",
      "Message('note_on', channel=2, note=29, velocity=106, time=0)\n",
      "Message('note_off', channel=9, note=46, velocity=91, time=4)\n",
      "Message('note_off', channel=2, note=29, velocity=106, time=84)\n",
      "Message('note_off', channel=13, note=72, velocity=88, time=0)\n",
      "Message('note_off', channel=13, note=68, velocity=88, time=0)\n",
      "Message('note_off', channel=13, note=63, velocity=89, time=0)\n",
      "Message('note_on', channel=2, note=29, velocity=110, time=8)\n",
      "Message('note_off', channel=15, note=63, velocity=123, time=64)\n",
      "Message('note_off', channel=2, note=29, velocity=110, time=24)\n",
      "Message('note_off', channel=3, note=56, velocity=87, time=8)\n",
      "Message('note_off', channel=3, note=53, velocity=88, time=0)\n",
      "Message('note_off', channel=3, note=60, velocity=90, time=0)\n",
      "Message('note_on', channel=9, note=42, velocity=81, time=0)\n",
      "Message('note_on', channel=9, note=38, velocity=107, time=0)\n",
      "Message('note_on', channel=9, note=39, velocity=80, time=0)\n",
      "Message('note_on', channel=13, note=65, velocity=87, time=0)\n",
      "Message('note_on', channel=13, note=70, velocity=82, time=0)\n",
      "Message('note_on', channel=13, note=73, velocity=82, time=0)\n",
      "Message('note_on', channel=15, note=61, velocity=120, time=0)\n",
      "Message('note_off', channel=9, note=39, velocity=80, time=4)\n",
      "Message('note_off', channel=9, note=38, velocity=107, time=0)\n",
      "Message('note_off', channel=9, note=42, velocity=81, time=0)\n",
      "Message('note_on', channel=2, note=36, velocity=110, time=92)\n",
      "Message('note_off', channel=2, note=36, velocity=110, time=88)\n",
      "Message('note_on', channel=9, note=46, velocity=91, time=8)\n",
      "Message('note_on', channel=2, note=34, velocity=108, time=0)\n",
      "Message('note_on', channel=3, note=65, velocity=93, time=0)\n",
      "Message('note_on', channel=3, note=61, velocity=88, time=0)\n",
      "Message('note_on', channel=3, note=58, velocity=93, time=0)\n",
      "Message('note_off', channel=9, note=46, velocity=91, time=4)\n",
      "Message('note_off', channel=2, note=34, velocity=108, time=84)\n",
      "Message('note_on', channel=9, note=42, velocity=82, time=104)\n",
      "Message('note_on', channel=9, note=36, velocity=109, time=0)\n",
      "Message('note_off', channel=9, note=36, velocity=109, time=4)\n",
      "Message('note_off', channel=9, note=42, velocity=82, time=0)\n",
      "Message('note_off', channel=8, note=80, velocity=99, time=140)\n",
      "Message('note_on', channel=9, note=46, velocity=91, time=48)\n",
      "Message('note_on', channel=2, note=32, velocity=106, time=0)\n",
      "Message('note_on', channel=7, note=68, velocity=85, time=0)\n",
      "Message('note_on', channel=7, note=80, velocity=109, time=0)\n",
      "Message('note_on', channel=7, note=56, velocity=81, time=0)\n",
      "Message('note_off', channel=9, note=46, velocity=91, time=4)\n",
      "Message('note_off', channel=7, note=56, velocity=81, time=60)\n",
      "Message('note_off', channel=7, note=80, velocity=109, time=0)\n",
      "Message('note_off', channel=7, note=68, velocity=85, time=0)\n",
      "Message('note_off', channel=2, note=32, velocity=106, time=24)\n",
      "Message('note_on', channel=7, note=68, velocity=81, time=8)\n",
      "Message('note_on', channel=7, note=80, velocity=108, time=0)\n",
      "Message('note_on', channel=7, note=56, velocity=82, time=0)\n",
      "Message('note_off', channel=7, note=56, velocity=82, time=64)\n",
      "Message('note_off', channel=7, note=80, velocity=108, time=0)\n",
      "Message('note_off', channel=7, note=68, velocity=81, time=0)\n",
      "Message('note_off', channel=15, note=61, velocity=120, time=0)\n",
      "Message('note_on', channel=9, note=42, velocity=83, time=32)\n",
      "Message('note_on', channel=9, note=38, velocity=108, time=0)\n",
      "Message('note_on', channel=9, note=39, velocity=81, time=0)\n",
      "Message('note_on', channel=2, note=32, velocity=111, time=0)\n",
      "Message('note_on', channel=8, note=92, velocity=97, time=0)\n",
      "Message('note_on', channel=15, note=56, velocity=121, time=0)\n",
      "Message('note_off', channel=9, note=39, velocity=81, time=4)\n",
      "Message('note_off', channel=9, note=38, velocity=108, time=0)\n",
      "Message('note_off', channel=9, note=42, velocity=83, time=0)\n",
      "Message('note_off', channel=15, note=56, velocity=121, time=84)\n",
      "Message('note_off', channel=8, note=92, velocity=97, time=0)\n",
      "Message('note_off', channel=2, note=32, velocity=111, time=0)\n",
      "Message('note_off', channel=13, note=73, velocity=82, time=0)\n",
      "Message('note_off', channel=13, note=70, velocity=82, time=0)\n",
      "Message('note_off', channel=13, note=65, velocity=87, time=0)\n",
      "Message('note_on', channel=2, note=32, velocity=111, time=8)\n",
      "Message('note_on', channel=8, note=90, velocity=95, time=0)\n",
      "Message('note_on', channel=15, note=58, velocity=124, time=0)\n",
      "Message('note_off', channel=15, note=58, velocity=124, time=88)\n",
      "Message('note_off', channel=8, note=90, velocity=95, time=0)\n",
      "Message('note_off', channel=2, note=32, velocity=111, time=0)\n",
      "Message('note_on', channel=9, note=46, velocity=92, time=8)\n",
      "Message('note_on', channel=8, note=89, velocity=98, time=0)\n",
      "Message('note_on', channel=15, note=61, velocity=124, time=0)\n",
      "Message('note_off', channel=9, note=46, velocity=92, time=4)\n",
      "Message('note_off', channel=15, note=61, velocity=124, time=84)\n",
      "Message('note_off', channel=8, note=89, velocity=98, time=0)\n",
      "Message('note_off', channel=3, note=58, velocity=93, time=8)\n",
      "Message('note_off', channel=3, note=61, velocity=88, time=0)\n",
      "Message('note_off', channel=3, note=65, velocity=93, time=0)\n",
      "Message('note_on', channel=2, note=37, velocity=111, time=0)\n",
      "Message('note_on', channel=8, note=85, velocity=99, time=0)\n",
      "Message('note_on', channel=15, note=58, velocity=122, time=0)\n",
      "Message('note_off', channel=15, note=58, velocity=122, time=88)\n",
      "Message('note_off', channel=2, note=37, velocity=111, time=0)\n",
      "Message('note_on', channel=9, note=42, velocity=82, time=8)\n",
      "Message('note_on', channel=9, note=36, velocity=107, time=0)\n",
      "Message('note_on', channel=2, note=27, velocity=111, time=0)\n",
      "Message('note_on', channel=3, note=58, velocity=87, time=0)\n",
      "Message('note_on', channel=3, note=61, velocity=88, time=0)\n",
      "Message('note_on', channel=3, note=65, velocity=87, time=0)\n",
      "Message('note_on', channel=13, note=63, velocity=88, time=0)\n",
      "Message('note_on', channel=13, note=73, velocity=83, time=0)\n",
      "Message('note_on', channel=13, note=68, velocity=89, time=0)\n",
      "Message('note_on', channel=15, note=65, velocity=121, time=0)\n",
      "Message('note_off', channel=9, note=36, velocity=107, time=4)\n",
      "Message('note_off', channel=9, note=42, velocity=82, time=0)\n",
      "Message('note_off', channel=2, note=27, velocity=111, time=84)\n",
      "Message('note_on', channel=9, note=46, velocity=89, time=104)\n",
      "Message('note_on', channel=2, note=27, velocity=106, time=0)\n",
      "Message('note_off', channel=9, note=46, velocity=89, time=4)\n",
      "Message('note_off', channel=15, note=65, velocity=121, time=68)\n",
      "Message('note_off', channel=2, note=27, velocity=106, time=16)\n",
      "Message('note_off', channel=13, note=68, velocity=89, time=0)\n",
      "Message('note_off', channel=13, note=73, velocity=83, time=0)\n",
      "Message('note_off', channel=13, note=63, velocity=88, time=0)\n",
      "Message('note_on', channel=2, note=27, velocity=111, time=8)\n",
      "Message('note_off', channel=2, note=27, velocity=111, time=88)\n",
      "Message('note_on', channel=9, note=42, velocity=84, time=8)\n",
      "Message('note_on', channel=9, note=38, velocity=108, time=0)\n",
      "Message('note_on', channel=9, note=39, velocity=83, time=0)\n",
      "Message('note_on', channel=13, note=63, velocity=88, time=0)\n",
      "Message('note_on', channel=13, note=73, velocity=85, time=0)\n",
      "Message('note_on', channel=13, note=68, velocity=89, time=0)\n",
      "Message('note_on', channel=15, note=65, velocity=124, time=0)\n",
      "Message('note_off', channel=9, note=39, velocity=83, time=4)\n",
      "Message('note_off', channel=9, note=38, velocity=108, time=0)\n",
      "Message('note_off', channel=9, note=42, velocity=84, time=0)\n",
      "Message('note_off', channel=3, note=65, velocity=87, time=92)\n",
      "Message('note_off', channel=3, note=61, velocity=88, time=0)\n",
      "Message('note_off', channel=3, note=58, velocity=87, time=0)\n",
      "Message('note_on', channel=2, note=36, velocity=107, time=0)\n",
      "Message('note_off', channel=8, note=85, velocity=99, time=48)\n",
      "Message('note_off', channel=15, note=65, velocity=124, time=32)\n",
      "Message('note_off', channel=2, note=36, velocity=107, time=8)\n",
      "Message('note_off', channel=13, note=68, velocity=89, time=0)\n",
      "Message('note_off', channel=13, note=73, velocity=85, time=0)\n",
      "Message('note_off', channel=13, note=63, velocity=88, time=0)\n",
      "Message('note_on', channel=9, note=42, velocity=83, time=8)\n",
      "Message('note_on', channel=2, note=34, velocity=110, time=0)\n",
      "Message('note_on', channel=3, note=56, velocity=89, time=0)\n",
      "Message('note_on', channel=3, note=63, velocity=87, time=0)\n",
      "Message('note_on', channel=3, note=60, velocity=88, time=0)\n",
      "Message('note_on', channel=8, note=87, velocity=96, time=0)\n",
      "Message('note_on', channel=13, note=68, velocity=84, time=0)\n",
      "Message('note_on', channel=13, note=63, velocity=85, time=0)\n",
      "Message('note_on', channel=13, note=72, velocity=82, time=0)\n",
      "Message('note_on', channel=15, note=63, velocity=120, time=0)\n",
      "Message('note_off', channel=9, note=42, velocity=83, time=4)\n",
      "Message('note_off', channel=2, note=34, velocity=110, time=84)\n",
      "Message('note_on', channel=9, note=42, velocity=82, time=8)\n",
      "Message('note_off', channel=9, note=42, velocity=82, time=4)\n",
      "Message('note_on', channel=9, note=42, velocity=81, time=92)\n",
      "Message('note_on', channel=9, note=36, velocity=105, time=0)\n",
      "Message('note_on', channel=2, note=32, velocity=109, time=0)\n",
      "Message('note_off', channel=9, note=36, velocity=105, time=4)\n",
      "Message('note_off', channel=9, note=42, velocity=81, time=0)\n",
      "Message('note_off', channel=2, note=32, velocity=109, time=84)\n",
      "Message('note_on', channel=9, note=46, velocity=87, time=104)\n",
      "Message('note_on', channel=2, note=32, velocity=106, time=0)\n",
      "Message('note_off', channel=9, note=46, velocity=87, time=4)\n",
      "Message('note_off', channel=2, note=32, velocity=106, time=84)\n",
      "Message('note_off', channel=8, note=87, velocity=96, time=56)\n",
      "Message('note_off', channel=15, note=63, velocity=120, time=16)\n",
      "Message('note_off', channel=13, note=72, velocity=82, time=24)\n",
      "Message('note_off', channel=13, note=63, velocity=85, time=0)\n",
      "Message('note_off', channel=13, note=68, velocity=84, time=0)\n",
      "Message('note_on', channel=9, note=42, velocity=84, time=8)\n",
      "Message('note_on', channel=9, note=38, velocity=109, time=0)\n",
      "Message('note_on', channel=9, note=39, velocity=85, time=0)\n",
      "Message('note_on', channel=8, note=80, velocity=98, time=0)\n",
      "Message('note_on', channel=15, note=56, velocity=121, time=0)\n",
      "Message('note_off', channel=9, note=39, velocity=85, time=4)\n",
      "Message('note_off', channel=9, note=38, velocity=109, time=0)\n",
      "Message('note_off', channel=9, note=42, velocity=84, time=0)\n",
      "Message('note_off', channel=15, note=56, velocity=121, time=84)\n",
      "Message('note_on', channel=15, note=58, velocity=123, time=8)\n",
      "Message('note_off', channel=15, note=58, velocity=123, time=88)\n",
      "Message('note_on', channel=9, note=46, velocity=91, time=8)\n",
      "Message('note_on', channel=2, note=29, velocity=108, time=0)\n",
      "Message('note_on', channel=15, note=61, velocity=124, time=0)\n",
      "Message('note_off', channel=9, note=46, velocity=91, time=4)\n",
      "Message('note_off', channel=15, note=61, velocity=124, time=84)\n",
      "Message('note_off', channel=2, note=29, velocity=108, time=0)\n",
      "Message('note_off', channel=3, note=60, velocity=88, time=8)\n",
      "Message('note_off', channel=3, note=63, velocity=87, time=0)\n",
      "Message('note_off', channel=3, note=56, velocity=89, time=0)\n",
      "Message('note_on', channel=2, note=32, velocity=111, time=0)\n",
      "Message('note_on', channel=15, note=58, velocity=121, time=0)\n",
      "Message('note_off', channel=8, note=80, velocity=98, time=64)\n",
      "Message('note_off', channel=15, note=58, velocity=121, time=24)\n",
      "Message('note_off', channel=2, note=32, velocity=111, time=0)\n",
      "Message('note_on', channel=9, note=42, velocity=81, time=8)\n",
      "Message('note_on', channel=9, note=36, velocity=108, time=0)\n",
      "Message('note_on', channel=2, note=29, velocity=108, time=0)\n",
      "Message('note_on', channel=3, note=53, velocity=90, time=0)\n",
      "Message('note_on', channel=3, note=56, velocity=92, time=0)\n",
      "Message('note_on', channel=3, note=60, velocity=87, time=0)\n",
      "Message('note_on', channel=8, note=87, velocity=96, time=0)\n",
      "Message('note_on', channel=13, note=68, velocity=88, time=0)\n",
      "Message('note_on', channel=13, note=75, velocity=85, time=0)\n",
      "Message('note_on', channel=13, note=72, velocity=85, time=0)\n",
      "Message('note_on', channel=15, note=68, velocity=120, time=0)\n",
      "Message('note_off', channel=9, note=36, velocity=108, time=4)\n",
      "Message('note_off', channel=9, note=42, velocity=81, time=0)\n",
      "Message('note_off', channel=2, note=29, velocity=108, time=84)\n",
      "Message('note_on', channel=9, note=46, velocity=89, time=104)\n",
      "Message('note_on', channel=2, note=29, velocity=108, time=0)\n",
      "Message('note_off', channel=9, note=46, velocity=89, time=4)\n",
      "Message('note_off', channel=2, note=29, velocity=108, time=84)\n",
      "Message('note_off', channel=13, note=72, velocity=85, time=0)\n",
      "Message('note_off', channel=13, note=75, velocity=85, time=0)\n",
      "Message('note_off', channel=13, note=68, velocity=88, time=0)\n",
      "Message('note_on', channel=2, note=29, velocity=109, time=8)\n",
      "Message('note_off', channel=15, note=68, velocity=120, time=64)\n",
      "Message('note_off', channel=2, note=29, velocity=109, time=24)\n",
      "Message('note_off', channel=3, note=60, velocity=87, time=8)\n",
      "Message('note_off', channel=3, note=56, velocity=92, time=0)\n",
      "Message('note_off', channel=3, note=53, velocity=90, time=0)\n",
      "Message('note_on', channel=9, note=42, velocity=82, time=0)\n",
      "Message('note_on', channel=9, note=38, velocity=103, time=0)\n",
      "Message('note_on', channel=9, note=39, velocity=84, time=0)\n",
      "Message('note_on', channel=13, note=68, velocity=87, time=0)\n",
      "Message('note_on', channel=13, note=75, velocity=84, time=0)\n",
      "Message('note_on', channel=13, note=72, velocity=86, time=0)\n",
      "Message('note_on', channel=15, note=60, velocity=123, time=0)\n",
      "Message('note_off', channel=9, note=39, velocity=84, time=4)\n",
      "Message('note_off', channel=9, note=38, velocity=103, time=0)\n",
      "Message('note_off', channel=9, note=42, velocity=82, time=0)\n",
      "Message('note_on', channel=2, note=36, velocity=109, time=92)\n",
      "Message('note_off', channel=8, note=87, velocity=96, time=48)\n",
      "Message('note_off', channel=15, note=60, velocity=123, time=32)\n",
      "Message('note_off', channel=2, note=36, velocity=109, time=8)\n",
      "Message('note_off', channel=13, note=72, velocity=86, time=0)\n",
      "Message('note_off', channel=13, note=75, velocity=84, time=0)\n",
      "Message('note_off', channel=13, note=68, velocity=87, time=0)\n",
      "Message('note_on', channel=9, note=46, velocity=90, time=8)\n",
      "Message('note_on', channel=2, note=34, velocity=110, time=0)\n",
      "Message('note_on', channel=3, note=61, velocity=91, time=0)\n",
      "Message('note_on', channel=3, note=58, velocity=93, time=0)\n",
      "Message('note_on', channel=3, note=65, velocity=88, time=0)\n",
      "Message('note_on', channel=8, note=89, velocity=96, time=0)\n",
      "Message('note_on', channel=13, note=65, velocity=87, time=0)\n",
      "Message('note_on', channel=13, note=70, velocity=84, time=0)\n",
      "Message('note_on', channel=13, note=73, velocity=85, time=0)\n",
      "Message('note_on', channel=15, note=61, velocity=123, time=0)\n",
      "Message('note_off', channel=9, note=46, velocity=90, time=4)\n",
      "Message('note_off', channel=2, note=34, velocity=110, time=84)\n",
      "Message('note_on', channel=9, note=42, velocity=85, time=104)\n",
      "Message('note_on', channel=9, note=36, velocity=104, time=0)\n",
      "Message('note_off', channel=9, note=36, velocity=104, time=4)\n",
      "Message('note_off', channel=9, note=42, velocity=85, time=0)\n",
      "Message('note_off', channel=15, note=61, velocity=123, time=68)\n",
      "Message('note_off', channel=13, note=73, velocity=85, time=16)\n",
      "Message('note_off', channel=13, note=70, velocity=84, time=0)\n",
      "Message('note_off', channel=13, note=65, velocity=87, time=0)\n",
      "Message('note_on', channel=13, note=63, velocity=85, time=8)\n",
      "Message('note_on', channel=13, note=72, velocity=87, time=0)\n",
      "Message('note_on', channel=13, note=68, velocity=83, time=0)\n",
      "Message('note_on', channel=15, note=60, velocity=122, time=0)\n",
      "Message('note_off', channel=15, note=60, velocity=122, time=88)\n",
      "Message('note_off', channel=13, note=68, velocity=83, time=0)\n",
      "Message('note_off', channel=13, note=72, velocity=87, time=0)\n",
      "Message('note_off', channel=13, note=63, velocity=85, time=0)\n",
      "Message('note_on', channel=9, note=46, velocity=92, time=8)\n",
      "Message('note_on', channel=2, note=34, velocity=110, time=0)\n",
      "Message('note_on', channel=13, note=61, velocity=84, time=0)\n",
      "Message('note_on', channel=13, note=70, velocity=83, time=0)\n",
      "Message('note_on', channel=13, note=65, velocity=82, time=0)\n",
      "Message('note_on', channel=15, note=58, velocity=121, time=0)\n",
      "Message('note_off', channel=9, note=46, velocity=92, time=4)\n",
      "Message('note_off', channel=2, note=34, velocity=110, time=84)\n",
      "Message('note_on', channel=2, note=34, velocity=110, time=8)\n",
      "Message('note_off', channel=8, note=89, velocity=96, time=48)\n",
      "Message('note_off', channel=15, note=58, velocity=121, time=32)\n",
      "Message('note_off', channel=2, note=34, velocity=110, time=8)\n",
      "Message('note_off', channel=13, note=65, velocity=82, time=0)\n",
      "Message('note_off', channel=13, note=70, velocity=83, time=0)\n",
      "Message('note_off', channel=13, note=61, velocity=84, time=0)\n",
      "Message('note_on', channel=9, note=42, velocity=83, time=8)\n",
      "Message('note_on', channel=9, note=38, velocity=105, time=0)\n",
      "Message('note_on', channel=9, note=39, velocity=84, time=0)\n",
      "Message('note_on', channel=2, note=34, velocity=110, time=0)\n",
      "Message('note_on', channel=8, note=92, velocity=98, time=0)\n",
      "Message('note_on', channel=15, note=56, velocity=122, time=0)\n",
      "Message('note_off', channel=9, note=39, velocity=84, time=4)\n",
      "Message('note_off', channel=9, note=38, velocity=105, time=0)\n",
      "Message('note_off', channel=9, note=42, velocity=83, time=0)\n",
      "Message('note_off', channel=15, note=56, velocity=122, time=84)\n",
      "Message('note_off', channel=8, note=92, velocity=98, time=0)\n",
      "Message('note_off', channel=2, note=34, velocity=110, time=0)\n",
      "Message('note_on', channel=2, note=36, velocity=107, time=8)\n",
      "Message('note_on', channel=8, note=90, velocity=97, time=0)\n",
      "Message('note_on', channel=15, note=58, velocity=123, time=0)\n",
      "Message('note_off', channel=15, note=58, velocity=123, time=88)\n",
      "Message('note_off', channel=8, note=90, velocity=97, time=0)\n",
      "Message('note_off', channel=2, note=36, velocity=107, time=0)\n",
      "Message('note_on', channel=9, note=46, velocity=89, time=8)\n",
      "Message('note_on', channel=8, note=89, velocity=99, time=0)\n",
      "Message('note_on', channel=15, note=61, velocity=119, time=0)\n",
      "Message('note_off', channel=9, note=46, velocity=89, time=4)\n",
      "Message('note_off', channel=15, note=61, velocity=119, time=84)\n",
      "Message('note_off', channel=8, note=89, velocity=99, time=0)\n",
      "Message('note_off', channel=3, note=65, velocity=88, time=8)\n",
      "Message('note_off', channel=3, note=58, velocity=93, time=0)\n",
      "Message('note_off', channel=3, note=61, velocity=91, time=0)\n",
      "Message('note_on', channel=2, note=34, velocity=109, time=0)\n",
      "Message('note_on', channel=8, note=85, velocity=99, time=0)\n",
      "Message('note_on', channel=15, note=58, velocity=120, time=0)\n",
      "Message('note_off', channel=15, note=58, velocity=120, time=88)\n",
      "Message('note_off', channel=2, note=34, velocity=109, time=0)\n",
      "Message('note_on', channel=9, note=42, velocity=82, time=8)\n",
      "Message('note_on', channel=9, note=36, velocity=104, time=0)\n",
      "Message('note_on', channel=2, note=27, velocity=110, time=0)\n",
      "Message('note_on', channel=3, note=58, velocity=89, time=0)\n",
      "Message('note_on', channel=3, note=61, velocity=90, time=0)\n",
      "Message('note_on', channel=3, note=65, velocity=90, time=0)\n",
      "Message('note_on', channel=15, note=61, velocity=121, time=0)\n",
      "Message('note_off', channel=9, note=36, velocity=104, time=4)\n",
      "Message('note_off', channel=9, note=42, velocity=82, time=0)\n",
      "Message('note_off', channel=2, note=27, velocity=110, time=84)\n",
      "Message('note_on', channel=9, note=46, velocity=91, time=104)\n",
      "Message('note_on', channel=2, note=27, velocity=106, time=0)\n",
      "Message('note_off', channel=9, note=46, velocity=91, time=4)\n",
      "Message('note_off', channel=2, note=27, velocity=106, time=84)\n",
      "Message('note_on', channel=2, note=27, velocity=111, time=8)\n",
      "Message('note_off', channel=15, note=61, velocity=121, time=64)\n",
      "Message('note_off', channel=2, note=27, velocity=111, time=24)\n",
      "Message('note_on', channel=9, note=42, velocity=85, time=8)\n",
      "Message('note_on', channel=9, note=38, velocity=108, time=0)\n",
      "Message('note_on', channel=9, note=39, velocity=82, time=0)\n",
      "Message('note_on', channel=15, note=63, velocity=119, time=0)\n",
      "Message('note_off', channel=9, note=39, velocity=82, time=4)\n",
      "Message('note_off', channel=9, note=38, velocity=108, time=0)\n",
      "Message('note_off', channel=9, note=42, velocity=85, time=0)\n",
      "Message('note_off', channel=3, note=65, velocity=90, time=92)\n",
      "Message('note_off', channel=3, note=61, velocity=90, time=0)\n",
      "Message('note_off', channel=3, note=58, velocity=89, time=0)\n",
      "Message('note_on', channel=2, note=36, velocity=109, time=0)\n",
      "Message('note_off', channel=8, note=85, velocity=99, time=48)\n",
      "Message('note_off', channel=15, note=63, velocity=119, time=32)\n",
      "Message('note_off', channel=2, note=36, velocity=109, time=8)\n",
      "Message('note_on', channel=9, note=42, velocity=82, time=8)\n",
      "Message('note_on', channel=2, note=34, velocity=108, time=0)\n",
      "Message('note_on', channel=3, note=63, velocity=93, time=0)\n",
      "Message('note_on', channel=3, note=56, velocity=87, time=0)\n",
      "Message('note_on', channel=3, note=60, velocity=93, time=0)\n",
      "Message('note_on', channel=8, note=87, velocity=99, time=0)\n",
      "Message('note_on', channel=15, note=60, velocity=120, time=0)\n",
      "Message('note_off', channel=9, note=42, velocity=82, time=4)\n",
      "Message('note_off', channel=2, note=34, velocity=108, time=84)\n",
      "Message('note_on', channel=9, note=42, velocity=84, time=8)\n",
      "Message('note_off', channel=9, note=42, velocity=84, time=4)\n",
      "Message('note_on', channel=9, note=42, velocity=80, time=92)\n",
      "Message('note_on', channel=9, note=36, velocity=103, time=0)\n",
      "Message('note_on', channel=2, note=32, velocity=111, time=0)\n",
      "Message('note_off', channel=9, note=36, velocity=103, time=4)\n",
      "Message('note_off', channel=9, note=42, velocity=80, time=0)\n",
      "Message('note_off', channel=15, note=60, velocity=120, time=68)\n",
      "Message('note_off', channel=2, note=32, velocity=111, time=16)\n",
      "Message('note_on', channel=15, note=58, velocity=123, time=8)\n",
      "Message('note_off', channel=15, note=58, velocity=123, time=88)\n",
      "Message('note_on', channel=9, note=46, velocity=91, time=8)\n",
      "Message('note_on', channel=2, note=32, velocity=107, time=0)\n",
      "Message('note_on', channel=15, note=56, velocity=119, time=0)\n",
      "Message('note_off', channel=9, note=46, velocity=91, time=4)\n",
      "Message('note_off', channel=2, note=32, velocity=107, time=84)\n",
      "Message('note_off', channel=8, note=87, velocity=99, time=56)\n",
      "Message('note_on', channel=9, note=42, velocity=84, time=48)\n",
      "Message('note_on', channel=9, note=38, velocity=104, time=0)\n",
      "Message('note_on', channel=9, note=39, velocity=82, time=0)\n",
      "Message('note_on', channel=8, note=80, velocity=99, time=0)\n",
      "Message('note_off', channel=9, note=39, velocity=82, time=4)\n",
      "Message('note_off', channel=9, note=38, velocity=104, time=0)\n",
      "Message('note_off', channel=9, note=42, velocity=84, time=0)\n",
      "Message('note_off', channel=15, note=56, velocity=119, time=68)\n",
      "Message('note_on', channel=9, note=46, velocity=91, time=120)\n",
      "Message('note_on', channel=2, note=32, velocity=109, time=0)\n",
      "Message('note_on', channel=15, note=56, velocity=120, time=0)\n",
      "Message('note_off', channel=9, note=46, velocity=91, time=4)\n",
      "Message('note_off', channel=2, note=32, velocity=109, time=84)\n",
      "Message('note_off', channel=3, note=60, velocity=93, time=8)\n",
      "Message('note_off', channel=3, note=56, velocity=87, time=0)\n",
      "Message('note_off', channel=3, note=63, velocity=93, time=0)\n",
      "Message('note_on', channel=2, note=32, velocity=111, time=0)\n",
      "Message('note_off', channel=15, note=56, velocity=120, time=80)\n",
      "Message('note_off', channel=2, note=32, velocity=111, time=8)\n",
      "Message('note_on', channel=9, note=42, velocity=83, time=8)\n",
      "Message('note_on', channel=9, note=36, velocity=102, time=0)\n",
      "Message('note_on', channel=2, note=29, velocity=107, time=0)\n",
      "Message('note_on', channel=3, note=56, velocity=92, time=0)\n",
      "Message('note_on', channel=3, note=60, velocity=90, time=0)\n",
      "Message('note_on', channel=3, note=63, velocity=87, time=0)\n",
      "Message('note_on', channel=13, note=63, velocity=85, time=0)\n",
      "Message('note_on', channel=13, note=68, velocity=88, time=0)\n",
      "Message('note_on', channel=13, note=72, velocity=82, time=0)\n",
      "Message('note_on', channel=15, note=63, velocity=123, time=0)\n",
      "Message('note_off', channel=9, note=36, velocity=102, time=4)\n",
      "Message('note_off', channel=9, note=42, velocity=83, time=0)\n",
      "Message('note_off', channel=2, note=29, velocity=107, time=84)\n",
      "Message('note_off', channel=3, note=63, velocity=87, time=8)\n",
      "Message('note_off', channel=3, note=60, velocity=90, time=0)\n",
      "Message('note_off', channel=3, note=56, velocity=92, time=0)\n",
      "Message('note_on', channel=9, note=46, velocity=92, time=96)\n",
      "Message('note_on', channel=2, note=29, velocity=111, time=0)\n",
      "Message('note_off', channel=9, note=46, velocity=92, time=4)\n",
      "Message('note_off', channel=2, note=29, velocity=111, time=84)\n",
      "Message('note_off', channel=13, note=72, velocity=82, time=0)\n",
      "Message('note_off', channel=13, note=68, velocity=88, time=0)\n",
      "Message('note_off', channel=13, note=63, velocity=85, time=0)\n",
      "Message('note_on', channel=2, note=29, velocity=110, time=8)\n",
      "Message('note_off', channel=15, note=63, velocity=123, time=64)\n",
      "Message('note_off', channel=2, note=29, velocity=110, time=24)\n",
      "Message('note_on', channel=9, note=42, velocity=80, time=8)\n",
      "Message('note_on', channel=9, note=38, velocity=107, time=0)\n",
      "Message('note_on', channel=9, note=39, velocity=81, time=0)\n",
      "Message('note_on', channel=3, note=58, velocity=86, time=0)\n",
      "Message('note_on', channel=3, note=61, velocity=91, time=0)\n",
      "Message('note_on', channel=3, note=65, velocity=91, time=0)\n",
      "Message('note_on', channel=13, note=68, velocity=84, time=0)\n",
      "Message('note_on', channel=13, note=65, velocity=86, time=0)\n",
      "Message('note_on', channel=13, note=73, velocity=85, time=0)\n",
      "Message('note_on', channel=15, note=61, velocity=123, time=0)\n",
      "Message('note_off', channel=9, note=39, velocity=81, time=4)\n",
      "Message('note_off', channel=9, note=38, velocity=107, time=0)\n",
      "Message('note_off', channel=9, note=42, velocity=80, time=0)\n",
      "Message('note_on', channel=2, note=36, velocity=109, time=92)\n",
      "Message('note_off', channel=2, note=36, velocity=109, time=88)\n",
      "Message('note_on', channel=9, note=46, velocity=88, time=8)\n",
      "Message('note_on', channel=2, note=34, velocity=107, time=0)\n",
      "Message('note_off', channel=9, note=46, velocity=88, time=4)\n",
      "Message('note_off', channel=2, note=34, velocity=107, time=84)\n",
      "Message('note_on', channel=9, note=42, velocity=80, time=104)\n",
      "Message('note_on', channel=9, note=36, velocity=104, time=0)\n",
      "Message('note_on', channel=9, note=45, velocity=84, time=0)\n"
     ]
    },
    {
     "name": "stdout",
     "output_type": "stream",
     "text": [
      "Message('note_on', channel=9, note=39, velocity=86, time=0)\n",
      "Message('note_off', channel=9, note=39, velocity=86, time=4)\n",
      "Message('note_off', channel=9, note=45, velocity=84, time=0)\n",
      "Message('note_off', channel=9, note=36, velocity=104, time=0)\n",
      "Message('note_off', channel=9, note=42, velocity=80, time=0)\n",
      "Message('note_on', channel=9, note=45, velocity=87, time=92)\n",
      "Message('note_on', channel=9, note=39, velocity=87, time=0)\n",
      "Message('note_off', channel=9, note=39, velocity=87, time=4)\n",
      "Message('note_off', channel=9, note=45, velocity=87, time=0)\n",
      "Message('note_on', channel=9, note=46, velocity=92, time=92)\n",
      "Message('note_on', channel=9, note=43, velocity=80, time=0)\n",
      "Message('note_on', channel=2, note=32, velocity=106, time=0)\n",
      "Message('note_on', channel=7, note=73, velocity=83, time=0)\n",
      "Message('note_on', channel=7, note=85, velocity=110, time=0)\n",
      "Message('note_off', channel=9, note=43, velocity=80, time=4)\n",
      "Message('note_off', channel=9, note=46, velocity=92, time=0)\n",
      "Message('note_off', channel=7, note=85, velocity=110, time=60)\n",
      "Message('note_off', channel=7, note=73, velocity=83, time=0)\n",
      "Message('note_off', channel=2, note=32, velocity=106, time=24)\n",
      "Message('note_on', channel=9, note=43, velocity=80, time=8)\n",
      "Message('note_on', channel=7, note=73, velocity=81, time=0)\n",
      "Message('note_on', channel=7, note=85, velocity=107, time=0)\n",
      "Message('note_off', channel=9, note=43, velocity=80, time=4)\n",
      "Message('note_off', channel=7, note=85, velocity=107, time=60)\n",
      "Message('note_off', channel=7, note=73, velocity=81, time=0)\n",
      "Message('note_off', channel=13, note=73, velocity=85, time=24)\n",
      "Message('note_off', channel=13, note=65, velocity=86, time=0)\n",
      "Message('note_off', channel=13, note=68, velocity=84, time=0)\n",
      "Message('note_on', channel=9, note=42, velocity=85, time=8)\n",
      "Message('note_on', channel=9, note=38, velocity=103, time=0)\n",
      "Message('note_on', channel=9, note=45, velocity=84, time=0)\n",
      "Message('note_on', channel=9, note=39, velocity=87, time=0)\n",
      "Message('note_on', channel=2, note=32, velocity=107, time=0)\n",
      "Message('note_on', channel=7, note=73, velocity=81, time=0)\n",
      "Message('note_on', channel=7, note=85, velocity=109, time=0)\n",
      "Message('note_off', channel=9, note=39, velocity=87, time=4)\n",
      "Message('note_off', channel=9, note=45, velocity=84, time=0)\n",
      "Message('note_off', channel=9, note=38, velocity=103, time=0)\n",
      "Message('note_off', channel=9, note=42, velocity=85, time=0)\n",
      "Message('note_off', channel=8, note=80, velocity=99, time=44)\n",
      "Message('note_off', channel=7, note=85, velocity=109, time=16)\n",
      "Message('note_off', channel=7, note=73, velocity=81, time=0)\n",
      "Message('note_off', channel=15, note=61, velocity=123, time=0)\n",
      "Message('note_off', channel=2, note=32, velocity=107, time=24)\n",
      "Message('note_on', channel=9, note=45, velocity=85, time=8)\n",
      "Message('note_on', channel=9, note=39, velocity=80, time=0)\n",
      "Message('note_on', channel=2, note=32, velocity=107, time=0)\n",
      "Message('note_on', channel=7, note=73, velocity=85, time=0)\n",
      "Message('note_on', channel=7, note=85, velocity=112, time=0)\n",
      "Message('note_off', channel=9, note=39, velocity=80, time=4)\n",
      "Message('note_off', channel=9, note=45, velocity=85, time=0)\n",
      "Message('note_off', channel=7, note=85, velocity=112, time=60)\n",
      "Message('note_off', channel=7, note=73, velocity=85, time=0)\n",
      "Message('note_off', channel=2, note=32, velocity=107, time=24)\n",
      "Message('note_on', channel=9, note=46, velocity=91, time=8)\n",
      "Message('note_on', channel=9, note=43, velocity=85, time=0)\n",
      "Message('note_off', channel=9, note=43, velocity=85, time=4)\n",
      "Message('note_off', channel=9, note=46, velocity=91, time=0)\n",
      "Message('note_off', channel=3, note=65, velocity=91, time=92)\n",
      "Message('note_off', channel=3, note=61, velocity=91, time=0)\n",
      "Message('note_off', channel=3, note=58, velocity=86, time=0)\n",
      "Message('note_on', channel=9, note=43, velocity=84, time=0)\n",
      "Message('note_on', channel=2, note=37, velocity=107, time=0)\n",
      "Message('note_on', channel=7, note=73, velocity=85, time=0)\n",
      "Message('note_on', channel=7, note=85, velocity=109, time=0)\n",
      "Message('note_off', channel=9, note=43, velocity=84, time=4)\n",
      "Message('note_off', channel=7, note=85, velocity=109, time=60)\n",
      "Message('note_off', channel=7, note=73, velocity=85, time=0)\n",
      "Message('note_off', channel=2, note=37, velocity=107, time=24)\n",
      "Message('note_on', channel=9, note=42, velocity=83, time=8)\n",
      "Message('note_on', channel=9, note=36, velocity=108, time=0)\n",
      "Message('note_on', channel=2, note=34, velocity=108, time=0)\n",
      "Message('note_on', channel=3, note=58, velocity=86, time=0)\n",
      "Message('note_on', channel=3, note=65, velocity=92, time=0)\n",
      "Message('note_on', channel=3, note=61, velocity=88, time=0)\n",
      "Message('note_on', channel=3, note=54, velocity=91, time=0)\n",
      "Message('note_off', channel=9, note=36, velocity=108, time=4)\n",
      "Message('note_off', channel=9, note=42, velocity=83, time=0)\n",
      "Message('note_off', channel=2, note=34, velocity=108, time=84)\n",
      "Message('note_on', channel=9, note=46, velocity=88, time=104)\n",
      "Message('note_on', channel=2, note=34, velocity=106, time=0)\n",
      "Message('note_off', channel=9, note=46, velocity=88, time=4)\n",
      "Message('note_off', channel=2, note=34, velocity=106, time=84)\n",
      "Message('note_on', channel=2, note=34, velocity=111, time=8)\n",
      "Message('note_off', channel=2, note=34, velocity=111, time=88)\n",
      "Message('note_on', channel=9, note=42, velocity=80, time=8)\n",
      "Message('note_on', channel=9, note=38, velocity=107, time=0)\n",
      "Message('note_on', channel=9, note=39, velocity=82, time=0)\n",
      "Message('note_on', channel=15, note=58, velocity=120, time=0)\n",
      "Message('note_off', channel=9, note=39, velocity=82, time=4)\n",
      "Message('note_off', channel=9, note=38, velocity=107, time=0)\n",
      "Message('note_off', channel=9, note=42, velocity=80, time=0)\n",
      "Message('note_on', channel=2, note=37, velocity=108, time=92)\n",
      "Message('note_off', channel=15, note=58, velocity=120, time=80)\n",
      "Message('note_off', channel=2, note=37, velocity=108, time=8)\n",
      "Message('note_on', channel=9, note=42, velocity=85, time=8)\n",
      "Message('note_on', channel=2, note=36, velocity=111, time=0)\n",
      "Message('note_on', channel=15, note=60, velocity=119, time=0)\n",
      "Message('note_off', channel=9, note=42, velocity=85, time=4)\n",
      "Message('note_off', channel=2, note=36, velocity=111, time=84)\n",
      "Message('note_on', channel=9, note=42, velocity=81, time=8)\n",
      "Message('note_off', channel=9, note=42, velocity=81, time=4)\n",
      "Message('note_off', channel=15, note=60, velocity=119, time=76)\n",
      "Message('note_on', channel=9, note=42, velocity=84, time=16)\n",
      "Message('note_on', channel=9, note=36, velocity=105, time=0)\n",
      "Message('note_on', channel=2, note=32, velocity=108, time=0)\n",
      "Message('note_on', channel=15, note=61, velocity=119, time=0)\n",
      "Message('note_off', channel=9, note=36, velocity=105, time=4)\n",
      "Message('note_off', channel=9, note=42, velocity=84, time=0)\n",
      "Message('note_off', channel=15, note=61, velocity=119, time=84)\n",
      "Message('note_off', channel=2, note=32, velocity=108, time=104)\n",
      "Message('note_on', channel=9, note=46, velocity=88, time=0)\n",
      "Message('note_on', channel=2, note=34, velocity=107, time=0)\n",
      "Message('note_on', channel=15, note=61, velocity=123, time=0)\n",
      "Message('note_off', channel=9, note=46, velocity=88, time=4)\n",
      "Message('note_off', channel=2, note=34, velocity=107, time=84)\n",
      "Message('note_off', channel=15, note=61, velocity=123, time=88)\n",
      "Message('note_on', channel=9, note=42, velocity=84, time=16)\n",
      "Message('note_on', channel=9, note=38, velocity=105, time=0)\n",
      "Message('note_on', channel=9, note=39, velocity=85, time=0)\n",
      "Message('note_on', channel=15, note=63, velocity=120, time=0)\n",
      "Message('note_off', channel=9, note=39, velocity=85, time=4)\n",
      "Message('note_off', channel=9, note=38, velocity=105, time=0)\n",
      "Message('note_off', channel=9, note=42, velocity=84, time=0)\n",
      "Message('note_off', channel=15, note=63, velocity=120, time=172)\n",
      "Message('note_off', channel=3, note=54, velocity=91, time=16)\n",
      "Message('note_off', channel=3, note=61, velocity=88, time=0)\n",
      "Message('note_off', channel=3, note=65, velocity=92, time=0)\n",
      "Message('note_off', channel=3, note=58, velocity=86, time=0)\n",
      "Message('note_on', channel=9, note=46, velocity=91, time=0)\n",
      "Message('note_on', channel=2, note=29, velocity=110, time=0)\n",
      "Message('note_on', channel=15, note=60, velocity=119, time=0)\n",
      "Message('note_off', channel=9, note=46, velocity=91, time=4)\n",
      "Message('note_off', channel=2, note=29, velocity=110, time=84)\n",
      "Message('note_on', channel=2, note=32, velocity=110, time=8)\n",
      "Message('note_off', channel=2, note=32, velocity=110, time=88)\n",
      "Message('note_on', channel=9, note=42, velocity=80, time=8)\n",
      "Message('note_on', channel=9, note=36, velocity=106, time=0)\n",
      "Message('note_on', channel=2, note=34, velocity=109, time=0)\n",
      "Message('note_on', channel=3, note=60, velocity=92, time=0)\n",
      "Message('note_on', channel=3, note=63, velocity=90, time=0)\n",
      "Message('note_on', channel=3, note=56, velocity=90, time=0)\n",
      "Message('note_off', channel=9, note=36, velocity=106, time=4)\n",
      "Message('note_off', channel=9, note=42, velocity=80, time=0)\n",
      "Message('note_off', channel=15, note=60, velocity=119, time=68)\n",
      "Message('note_off', channel=2, note=34, velocity=109, time=16)\n",
      "Message('note_on', channel=15, note=58, velocity=119, time=8)\n",
      "Message('note_off', channel=15, note=58, velocity=119, time=88)\n",
      "Message('note_on', channel=9, note=46, velocity=92, time=8)\n",
      "Message('note_on', channel=2, note=32, velocity=110, time=0)\n",
      "Message('note_on', channel=15, note=56, velocity=123, time=0)\n",
      "Message('note_off', channel=9, note=46, velocity=92, time=4)\n",
      "Message('note_off', channel=2, note=32, velocity=110, time=84)\n",
      "Message('note_on', channel=2, note=34, velocity=106, time=8)\n",
      "Message('note_off', channel=2, note=34, velocity=106, time=88)\n",
      "Message('note_on', channel=9, note=42, velocity=81, time=8)\n",
      "Message('note_on', channel=9, note=38, velocity=108, time=0)\n",
      "Message('note_on', channel=9, note=39, velocity=81, time=0)\n",
      "Message('note_off', channel=9, note=39, velocity=81, time=4)\n",
      "Message('note_off', channel=9, note=38, velocity=108, time=0)\n",
      "Message('note_off', channel=9, note=42, velocity=81, time=0)\n",
      "Message('note_on', channel=2, note=37, velocity=109, time=92)\n",
      "Message('note_off', channel=2, note=37, velocity=109, time=88)\n",
      "Message('note_on', channel=9, note=46, velocity=88, time=8)\n",
      "Message('note_on', channel=2, note=36, velocity=108, time=0)\n",
      "Message('note_off', channel=9, note=46, velocity=88, time=4)\n",
      "Message('note_off', channel=2, note=36, velocity=108, time=84)\n",
      "Message('note_on', channel=9, note=42, velocity=81, time=104)\n",
      "Message('note_on', channel=9, note=36, velocity=103, time=0)\n",
      "Message('note_off', channel=9, note=36, velocity=103, time=4)\n",
      "Message('note_off', channel=9, note=42, velocity=81, time=0)\n",
      "Message('note_on', channel=9, note=46, velocity=89, time=188)\n",
      "Message('note_off', channel=9, note=46, velocity=89, time=4)\n",
      "Message('note_on', channel=9, note=42, velocity=84, time=188)\n",
      "Message('note_on', channel=9, note=38, velocity=101, time=0)\n",
      "Message('note_on', channel=9, note=39, velocity=83, time=0)\n",
      "Message('note_off', channel=9, note=39, velocity=83, time=4)\n",
      "Message('note_off', channel=9, note=38, velocity=101, time=0)\n",
      "Message('note_off', channel=9, note=42, velocity=84, time=0)\n",
      "Message('note_off', channel=3, note=56, velocity=90, time=188)\n",
      "Message('note_off', channel=3, note=63, velocity=90, time=0)\n",
      "Message('note_off', channel=3, note=60, velocity=92, time=0)\n",
      "Message('note_on', channel=9, note=46, velocity=90, time=0)\n",
      "Message('note_on', channel=2, note=29, velocity=107, time=0)\n",
      "Message('note_off', channel=9, note=46, velocity=90, time=4)\n",
      "Message('note_off', channel=15, note=56, velocity=123, time=60)\n",
      "Message('note_off', channel=2, note=29, velocity=107, time=24)\n",
      "Message('note_on', channel=2, note=32, velocity=106, time=8)\n",
      "Message('note_off', channel=2, note=32, velocity=106, time=88)\n",
      "Message('note_on', channel=9, note=42, velocity=83, time=8)\n",
      "Message('note_on', channel=9, note=36, velocity=107, time=0)\n",
      "Message('note_on', channel=2, note=34, velocity=108, time=0)\n",
      "Message('note_on', channel=3, note=65, velocity=91, time=0)\n",
      "Message('note_on', channel=3, note=54, velocity=93, time=0)\n",
      "Message('note_on', channel=3, note=58, velocity=90, time=0)\n",
      "Message('note_on', channel=3, note=61, velocity=86, time=0)\n",
      "Message('note_off', channel=9, note=36, velocity=107, time=4)\n",
      "Message('note_off', channel=9, note=42, velocity=83, time=0)\n",
      "Message('note_off', channel=2, note=34, velocity=108, time=84)\n",
      "Message('note_on', channel=9, note=46, velocity=87, time=104)\n",
      "Message('note_on', channel=2, note=34, velocity=106, time=0)\n",
      "Message('note_on', channel=15, note=58, velocity=123, time=0)\n",
      "Message('note_off', channel=9, note=46, velocity=87, time=4)\n",
      "Message('note_off', channel=15, note=58, velocity=123, time=84)\n",
      "Message('note_off', channel=2, note=34, velocity=106, time=0)\n",
      "Message('note_on', channel=2, note=34, velocity=107, time=8)\n",
      "Message('note_off', channel=2, note=34, velocity=107, time=88)\n",
      "Message('note_on', channel=9, note=42, velocity=80, time=8)\n",
      "Message('note_on', channel=9, note=38, velocity=101, time=0)\n",
      "Message('note_on', channel=9, note=39, velocity=83, time=0)\n",
      "Message('note_on', channel=15, note=58, velocity=121, time=0)\n",
      "Message('note_off', channel=9, note=39, velocity=83, time=4)\n",
      "Message('note_off', channel=9, note=38, velocity=101, time=0)\n",
      "Message('note_off', channel=9, note=42, velocity=80, time=0)\n",
      "Message('note_on', channel=2, note=37, velocity=111, time=92)\n",
      "Message('note_off', channel=15, note=58, velocity=121, time=80)\n",
      "Message('note_off', channel=2, note=37, velocity=111, time=8)\n",
      "Message('note_on', channel=9, note=42, velocity=84, time=8)\n",
      "Message('note_on', channel=2, note=36, velocity=111, time=0)\n",
      "Message('note_on', channel=15, note=60, velocity=119, time=0)\n",
      "Message('note_off', channel=9, note=42, velocity=84, time=4)\n",
      "Message('note_off', channel=2, note=36, velocity=111, time=84)\n",
      "Message('note_on', channel=9, note=42, velocity=82, time=8)\n",
      "Message('note_off', channel=9, note=42, velocity=82, time=4)\n",
      "Message('note_off', channel=15, note=60, velocity=119, time=76)\n",
      "Message('note_on', channel=9, note=42, velocity=82, time=16)\n",
      "Message('note_on', channel=9, note=36, velocity=108, time=0)\n",
      "Message('note_on', channel=2, note=32, velocity=110, time=0)\n",
      "Message('note_on', channel=15, note=61, velocity=120, time=0)\n",
      "Message('note_off', channel=9, note=36, velocity=108, time=4)\n",
      "Message('note_off', channel=9, note=42, velocity=82, time=0)\n",
      "Message('note_off', channel=15, note=61, velocity=120, time=172)\n",
      "Message('note_off', channel=2, note=32, velocity=110, time=16)\n",
      "Message('note_on', channel=9, note=46, velocity=92, time=0)\n",
      "Message('note_on', channel=2, note=34, velocity=110, time=0)\n",
      "Message('note_on', channel=15, note=58, velocity=122, time=0)\n",
      "Message('note_off', channel=9, note=46, velocity=92, time=4)\n",
      "Message('note_off', channel=2, note=34, velocity=110, time=84)\n",
      "Message('note_off', channel=15, note=58, velocity=122, time=88)\n",
      "Message('note_on', channel=9, note=42, velocity=84, time=16)\n",
      "Message('note_on', channel=9, note=38, velocity=102, time=0)\n",
      "Message('note_on', channel=9, note=39, velocity=87, time=0)\n",
      "Message('note_off', channel=9, note=39, velocity=87, time=4)\n",
      "Message('note_off', channel=9, note=38, velocity=102, time=0)\n",
      "Message('note_off', channel=9, note=42, velocity=84, time=0)\n",
      "Message('note_off', channel=3, note=61, velocity=86, time=188)\n",
      "Message('note_off', channel=3, note=58, velocity=90, time=0)\n",
      "Message('note_off', channel=3, note=54, velocity=93, time=0)\n",
      "Message('note_off', channel=3, note=65, velocity=91, time=0)\n",
      "Message('note_on', channel=9, note=46, velocity=89, time=0)\n",
      "Message('note_on', channel=2, note=34, velocity=111, time=0)\n",
      "Message('note_on', channel=15, note=56, velocity=123, time=0)\n",
      "Message('note_off', channel=9, note=46, velocity=89, time=4)\n",
      "Message('note_off', channel=2, note=34, velocity=111, time=84)\n",
      "Message('note_on', channel=2, note=34, velocity=111, time=8)\n",
      "Message('note_off', channel=15, note=56, velocity=123, time=80)\n",
      "Message('note_off', channel=2, note=34, velocity=111, time=8)\n",
      "Message('note_on', channel=9, note=42, velocity=82, time=8)\n",
      "Message('note_on', channel=9, note=36, velocity=101, time=0)\n",
      "Message('note_on', channel=2, note=27, velocity=108, time=0)\n",
      "Message('note_on', channel=3, note=61, velocity=87, time=0)\n",
      "Message('note_on', channel=3, note=68, velocity=90, time=0)\n",
      "Message('note_on', channel=3, note=65, velocity=86, time=0)\n",
      "Message('note_on', channel=3, note=58, velocity=90, time=0)\n",
      "Message('note_on', channel=15, note=68, velocity=124, time=0)\n",
      "Message('note_off', channel=9, note=36, velocity=101, time=4)\n",
      "Message('note_off', channel=9, note=42, velocity=82, time=0)\n",
      "Message('note_off', channel=2, note=27, velocity=108, time=84)\n",
      "Message('note_on', channel=9, note=46, velocity=91, time=104)\n",
      "Message('note_on', channel=2, note=27, velocity=106, time=0)\n",
      "Message('note_off', channel=9, note=46, velocity=91, time=4)\n",
      "Message('note_off', channel=15, note=68, velocity=124, time=68)\n",
      "Message('note_off', channel=2, note=27, velocity=106, time=16)\n",
      "Message('note_on', channel=2, note=27, velocity=106, time=8)\n",
      "Message('note_off', channel=2, note=27, velocity=106, time=88)\n",
      "Message('note_on', channel=9, note=42, velocity=84, time=8)\n",
      "Message('note_on', channel=9, note=38, velocity=108, time=0)\n",
      "Message('note_on', channel=9, note=39, velocity=85, time=0)\n",
      "Message('note_on', channel=15, note=68, velocity=121, time=0)\n",
      "Message('note_off', channel=9, note=39, velocity=85, time=4)\n",
      "Message('note_off', channel=9, note=38, velocity=108, time=0)\n",
      "Message('note_off', channel=9, note=42, velocity=84, time=0)\n",
      "Message('note_off', channel=3, note=58, velocity=90, time=92)\n",
      "Message('note_off', channel=3, note=65, velocity=86, time=0)\n",
      "Message('note_off', channel=3, note=68, velocity=90, time=0)\n",
      "Message('note_off', channel=3, note=61, velocity=87, time=0)\n",
      "Message('note_on', channel=2, note=27, velocity=106, time=0)\n",
      "Message('note_off', channel=15, note=68, velocity=121, time=80)\n",
      "Message('note_off', channel=2, note=27, velocity=106, time=8)\n",
      "Message('note_on', channel=9, note=46, velocity=90, time=8)\n",
      "Message('note_on', channel=2, note=32, velocity=111, time=0)\n",
      "Message('note_on', channel=3, note=56, velocity=87, time=0)\n",
      "Message('note_on', channel=3, note=63, velocity=92, time=0)\n",
      "Message('note_on', channel=3, note=60, velocity=89, time=0)\n",
      "Message('note_on', channel=15, note=63, velocity=123, time=0)\n",
      "Message('note_off', channel=9, note=46, velocity=90, time=4)\n",
      "Message('note_off', channel=2, note=32, velocity=111, time=84)\n",
      "Message('note_on', channel=9, note=42, velocity=84, time=104)\n",
      "Message('note_on', channel=9, note=36, velocity=103, time=0)\n",
      "Message('note_off', channel=9, note=36, velocity=103, time=4)\n",
      "Message('note_off', channel=9, note=42, velocity=84, time=0)\n",
      "Message('note_off', channel=15, note=63, velocity=123, time=156)\n",
      "Message('note_on', channel=9, note=46, velocity=92, time=32)\n",
      "Message('note_on', channel=2, note=32, velocity=111, time=0)\n",
      "Message('note_on', channel=15, note=65, velocity=119, time=0)\n",
      "Message('note_off', channel=9, note=46, velocity=92, time=4)\n",
      "Message('note_off', channel=2, note=32, velocity=111, time=84)\n",
      "Message('note_on', channel=2, note=32, velocity=106, time=8)\n",
      "Message('note_off', channel=15, note=65, velocity=119, time=80)\n",
      "Message('note_off', channel=2, note=32, velocity=106, time=8)\n",
      "Message('note_on', channel=9, note=42, velocity=80, time=8)\n",
      "Message('note_on', channel=9, note=38, velocity=102, time=0)\n",
      "Message('note_on', channel=9, note=39, velocity=83, time=0)\n",
      "Message('note_on', channel=2, note=32, velocity=106, time=0)\n",
      "Message('note_on', channel=15, note=63, velocity=120, time=0)\n",
      "Message('note_off', channel=9, note=39, velocity=83, time=4)\n",
      "Message('note_off', channel=9, note=38, velocity=102, time=0)\n",
      "Message('note_off', channel=9, note=42, velocity=80, time=0)\n",
      "Message('note_off', channel=2, note=32, velocity=106, time=84)\n",
      "Message('note_off', channel=15, note=63, velocity=120, time=88)\n",
      "Message('note_off', channel=3, note=60, velocity=89, time=16)\n",
      "Message('note_off', channel=3, note=63, velocity=92, time=0)\n",
      "Message('note_off', channel=3, note=56, velocity=87, time=0)\n",
      "Message('note_on', channel=9, note=46, velocity=90, time=0)\n",
      "Message('note_on', channel=2, note=29, velocity=109, time=0)\n",
      "Message('note_on', channel=15, note=61, velocity=119, time=0)\n",
      "Message('note_off', channel=9, note=46, velocity=90, time=4)\n",
      "Message('note_off', channel=2, note=29, velocity=109, time=84)\n",
      "Message('note_on', channel=2, note=32, velocity=106, time=8)\n",
      "Message('note_off', channel=15, note=61, velocity=119, time=80)\n",
      "Message('note_off', channel=2, note=32, velocity=106, time=8)\n",
      "Message('note_on', channel=9, note=42, velocity=84, time=8)\n",
      "Message('note_on', channel=9, note=36, velocity=108, time=0)\n",
      "Message('note_on', channel=2, note=34, velocity=111, time=0)\n",
      "Message('note_on', channel=3, note=58, velocity=87, time=0)\n",
      "Message('note_on', channel=3, note=54, velocity=93, time=0)\n",
      "Message('note_on', channel=3, note=65, velocity=92, time=0)\n",
      "Message('note_on', channel=3, note=61, velocity=87, time=0)\n",
      "Message('note_off', channel=9, note=36, velocity=108, time=4)\n",
      "Message('note_off', channel=9, note=42, velocity=84, time=0)\n",
      "Message('note_off', channel=2, note=34, velocity=111, time=84)\n",
      "Message('note_on', channel=9, note=46, velocity=87, time=104)\n",
      "Message('note_on', channel=2, note=34, velocity=111, time=0)\n",
      "Message('note_on', channel=15, note=58, velocity=123, time=0)\n",
      "Message('note_off', channel=9, note=46, velocity=87, time=4)\n",
      "Message('note_off', channel=15, note=58, velocity=123, time=84)\n",
      "Message('note_off', channel=2, note=34, velocity=111, time=0)\n",
      "Message('note_on', channel=2, note=34, velocity=107, time=8)\n",
      "Message('note_off', channel=2, note=34, velocity=107, time=88)\n",
      "Message('note_on', channel=9, note=42, velocity=84, time=8)\n",
      "Message('note_on', channel=9, note=38, velocity=109, time=0)\n",
      "Message('note_on', channel=9, note=39, velocity=81, time=0)\n",
      "Message('note_on', channel=15, note=58, velocity=122, time=0)\n",
      "Message('note_off', channel=9, note=39, velocity=81, time=4)\n",
      "Message('note_off', channel=9, note=38, velocity=109, time=0)\n",
      "Message('note_off', channel=9, note=42, velocity=84, time=0)\n",
      "Message('note_on', channel=2, note=37, velocity=109, time=92)\n",
      "Message('note_off', channel=15, note=58, velocity=122, time=80)\n",
      "Message('note_off', channel=2, note=37, velocity=109, time=8)\n",
      "Message('note_on', channel=9, note=42, velocity=82, time=8)\n",
      "Message('note_on', channel=2, note=36, velocity=107, time=0)\n",
      "Message('note_on', channel=15, note=60, velocity=119, time=0)\n",
      "Message('note_off', channel=9, note=42, velocity=82, time=4)\n",
      "Message('note_off', channel=2, note=36, velocity=107, time=84)\n",
      "Message('note_on', channel=9, note=42, velocity=85, time=8)\n",
      "Message('note_off', channel=9, note=42, velocity=85, time=4)\n",
      "Message('note_off', channel=15, note=60, velocity=119, time=76)\n",
      "Message('note_on', channel=9, note=42, velocity=84, time=16)\n",
      "Message('note_on', channel=9, note=36, velocity=105, time=0)\n",
      "Message('note_on', channel=2, note=32, velocity=110, time=0)\n",
      "Message('note_on', channel=15, note=61, velocity=121, time=0)\n",
      "Message('note_off', channel=9, note=36, velocity=105, time=4)\n",
      "Message('note_off', channel=9, note=42, velocity=84, time=0)\n",
      "Message('note_off', channel=15, note=61, velocity=121, time=172)\n",
      "Message('note_off', channel=2, note=32, velocity=110, time=16)\n",
      "Message('note_on', channel=9, note=46, velocity=88, time=0)\n",
      "Message('note_on', channel=2, note=34, velocity=108, time=0)\n",
      "Message('note_on', channel=15, note=58, velocity=119, time=0)\n",
      "Message('note_off', channel=9, note=46, velocity=88, time=4)\n",
      "Message('note_off', channel=2, note=34, velocity=108, time=84)\n",
      "Message('note_off', channel=15, note=58, velocity=119, time=88)\n",
      "Message('note_on', channel=9, note=42, velocity=80, time=16)\n",
      "Message('note_on', channel=9, note=38, velocity=102, time=0)\n",
      "Message('note_on', channel=9, note=39, velocity=87, time=0)\n",
      "Message('note_on', channel=15, note=61, velocity=119, time=0)\n",
      "Message('note_off', channel=9, note=39, velocity=87, time=4)\n",
      "Message('note_off', channel=9, note=38, velocity=102, time=0)\n",
      "Message('note_off', channel=9, note=42, velocity=80, time=0)\n",
      "Message('note_off', channel=15, note=61, velocity=119, time=172)\n",
      "Message('note_off', channel=3, note=61, velocity=87, time=16)\n",
      "Message('note_off', channel=3, note=65, velocity=92, time=0)\n",
      "Message('note_off', channel=3, note=54, velocity=93, time=0)\n",
      "Message('note_off', channel=3, note=58, velocity=87, time=0)\n",
      "Message('note_on', channel=9, note=46, velocity=91, time=0)\n",
      "Message('note_on', channel=2, note=29, velocity=110, time=0)\n",
      "Message('note_on', channel=15, note=63, velocity=119, time=0)\n",
      "Message('note_off', channel=9, note=46, velocity=91, time=4)\n",
      "Message('note_off', channel=2, note=29, velocity=110, time=84)\n",
      "Message('note_on', channel=2, note=32, velocity=108, time=8)\n",
      "Message('note_off', channel=15, note=63, velocity=119, time=80)\n",
      "Message('note_off', channel=2, note=32, velocity=108, time=8)\n",
      "Message('note_on', channel=9, note=42, velocity=82, time=8)\n",
      "Message('note_on', channel=9, note=36, velocity=107, time=0)\n",
      "Message('note_on', channel=2, note=34, velocity=111, time=0)\n",
      "Message('note_on', channel=3, note=56, velocity=88, time=0)\n",
      "Message('note_on', channel=3, note=63, velocity=88, time=0)\n",
      "Message('note_on', channel=3, note=60, velocity=87, time=0)\n",
      "Message('note_off', channel=9, note=36, velocity=107, time=4)\n",
      "Message('note_off', channel=9, note=42, velocity=82, time=0)\n",
      "Message('note_off', channel=2, note=34, velocity=111, time=84)\n",
      "Message('note_on', channel=9, note=46, velocity=91, time=104)\n",
      "Message('note_on', channel=2, note=32, velocity=111, time=0)\n",
      "Message('note_on', channel=15, note=60, velocity=121, time=0)\n",
      "Message('note_off', channel=9, note=46, velocity=91, time=4)\n",
      "Message('note_off', channel=2, note=32, velocity=111, time=84)\n",
      "Message('note_on', channel=2, note=34, velocity=107, time=8)\n",
      "Message('note_off', channel=15, note=60, velocity=121, time=80)\n",
      "Message('note_off', channel=2, note=34, velocity=107, time=8)\n",
      "Message('note_on', channel=9, note=42, velocity=85, time=8)\n",
      "Message('note_on', channel=9, note=38, velocity=101, time=0)\n",
      "Message('note_on', channel=9, note=39, velocity=81, time=0)\n",
      "Message('note_on', channel=15, note=58, velocity=121, time=0)\n",
      "Message('note_off', channel=9, note=39, velocity=81, time=4)\n",
      "Message('note_off', channel=9, note=38, velocity=101, time=0)\n",
      "Message('note_off', channel=9, note=42, velocity=85, time=0)\n",
      "Message('note_on', channel=2, note=37, velocity=108, time=92)\n",
      "Message('note_off', channel=15, note=58, velocity=121, time=80)\n",
      "Message('note_off', channel=2, note=37, velocity=108, time=8)\n",
      "Message('note_on', channel=9, note=46, velocity=92, time=8)\n",
      "Message('note_on', channel=2, note=36, velocity=108, time=0)\n",
      "Message('note_on', channel=15, note=60, velocity=119, time=0)\n",
      "Message('note_off', channel=9, note=46, velocity=92, time=4)\n",
      "Message('note_off', channel=2, note=36, velocity=108, time=84)\n",
      "Message('note_on', channel=9, note=42, velocity=83, time=104)\n",
      "Message('note_on', channel=9, note=36, velocity=109, time=0)\n",
      "Message('note_off', channel=9, note=36, velocity=109, time=4)\n",
      "Message('note_off', channel=9, note=42, velocity=83, time=0)\n",
      "Message('note_on', channel=15, note=58, velocity=123, time=92)\n",
      "Message('note_off', channel=15, note=60, velocity=119, time=64)\n",
      "Message('note_off', channel=15, note=58, velocity=123, time=24)\n",
      "Message('note_on', channel=9, note=46, velocity=89, time=8)\n",
      "Message('note_on', channel=15, note=56, velocity=123, time=0)\n",
      "Message('note_off', channel=9, note=46, velocity=89, time=4)\n",
      "Message('note_on', channel=9, note=42, velocity=83, time=188)\n",
      "Message('note_on', channel=9, note=38, velocity=104, time=0)\n",
      "Message('note_on', channel=9, note=39, velocity=84, time=0)\n",
      "Message('note_off', channel=9, note=39, velocity=84, time=4)\n",
      "Message('note_off', channel=9, note=38, velocity=104, time=0)\n",
      "Message('note_off', channel=9, note=42, velocity=83, time=0)\n",
      "Message('note_off', channel=3, note=60, velocity=87, time=188)\n",
      "Message('note_off', channel=3, note=63, velocity=88, time=0)\n",
      "Message('note_off', channel=3, note=56, velocity=88, time=0)\n",
      "Message('note_on', channel=9, note=46, velocity=88, time=0)\n",
      "Message('note_on', channel=2, note=29, velocity=109, time=0)\n",
      "Message('note_off', channel=9, note=46, velocity=88, time=4)\n",
      "Message('note_off', channel=2, note=29, velocity=109, time=84)\n",
      "Message('note_on', channel=2, note=32, velocity=106, time=8)\n",
      "Message('note_off', channel=15, note=56, velocity=123, time=64)\n",
      "Message('note_off', channel=2, note=32, velocity=106, time=24)\n",
      "Message('note_on', channel=9, note=42, velocity=84, time=8)\n",
      "Message('note_on', channel=9, note=36, velocity=103, time=0)\n",
      "Message('note_on', channel=2, note=34, velocity=110, time=0)\n",
      "Message('note_on', channel=3, note=54, velocity=93, time=0)\n",
      "Message('note_on', channel=3, note=58, velocity=91, time=0)\n",
      "Message('note_on', channel=3, note=65, velocity=89, time=0)\n",
      "Message('note_on', channel=3, note=61, velocity=89, time=0)\n",
      "Message('note_on', channel=7, note=68, velocity=71, time=0)\n",
      "Message('note_on', channel=7, note=80, velocity=81, time=0)\n",
      "Message('note_off', channel=9, note=36, velocity=103, time=4)\n",
      "Message('note_off', channel=9, note=42, velocity=84, time=0)\n",
      "Message('note_off', channel=2, note=34, velocity=110, time=84)\n",
      "Message('note_on', channel=9, note=46, velocity=88, time=104)\n",
      "Message('note_on', channel=2, note=34, velocity=109, time=0)\n",
      "Message('note_on', channel=15, note=58, velocity=120, time=0)\n",
      "Message('note_off', channel=9, note=46, velocity=88, time=4)\n",
      "Message('note_off', channel=15, note=58, velocity=120, time=84)\n",
      "Message('note_off', channel=2, note=34, velocity=109, time=0)\n",
      "Message('note_on', channel=2, note=34, velocity=106, time=8)\n",
      "Message('note_off', channel=2, note=34, velocity=106, time=88)\n",
      "Message('note_on', channel=9, note=42, velocity=81, time=8)\n",
      "Message('note_on', channel=9, note=38, velocity=104, time=0)\n",
      "Message('note_on', channel=9, note=39, velocity=85, time=0)\n",
      "Message('note_on', channel=15, note=58, velocity=124, time=0)\n",
      "Message('note_off', channel=9, note=39, velocity=85, time=4)\n",
      "Message('note_off', channel=9, note=38, velocity=104, time=0)\n",
      "Message('note_off', channel=9, note=42, velocity=81, time=0)\n",
      "Message('note_on', channel=2, note=37, velocity=108, time=92)\n",
      "Message('note_off', channel=15, note=58, velocity=124, time=80)\n",
      "Message('note_off', channel=2, note=37, velocity=108, time=8)\n",
      "Message('note_on', channel=9, note=42, velocity=81, time=8)\n",
      "Message('note_on', channel=2, note=36, velocity=110, time=0)\n",
      "Message('note_on', channel=15, note=60, velocity=120, time=0)\n",
      "Message('note_off', channel=9, note=42, velocity=81, time=4)\n",
      "Message('note_off', channel=2, note=36, velocity=110, time=84)\n",
      "Message('note_on', channel=9, note=42, velocity=81, time=8)\n",
      "Message('note_off', channel=9, note=42, velocity=81, time=4)\n",
      "Message('note_off', channel=15, note=60, velocity=120, time=76)\n",
      "Message('note_on', channel=9, note=42, velocity=83, time=16)\n",
      "Message('note_on', channel=9, note=36, velocity=106, time=0)\n",
      "Message('note_on', channel=2, note=32, velocity=109, time=0)\n",
      "Message('note_on', channel=15, note=61, velocity=121, time=0)\n",
      "Message('note_off', channel=9, note=36, velocity=106, time=4)\n",
      "Message('note_off', channel=9, note=42, velocity=83, time=0)\n",
      "Message('note_off', channel=15, note=61, velocity=121, time=172)\n",
      "Message('note_off', channel=2, note=32, velocity=109, time=16)\n",
      "Message('note_on', channel=9, note=46, velocity=89, time=0)\n",
      "Message('note_on', channel=2, note=34, velocity=107, time=0)\n",
      "Message('note_on', channel=15, note=58, velocity=124, time=0)\n",
      "Message('note_off', channel=9, note=46, velocity=89, time=4)\n",
      "Message('note_off', channel=2, note=34, velocity=107, time=84)\n",
      "Message('note_off', channel=15, note=58, velocity=124, time=88)\n",
      "Message('note_on', channel=9, note=42, velocity=83, time=16)\n",
      "Message('note_on', channel=9, note=38, velocity=106, time=0)\n",
      "Message('note_on', channel=9, note=39, velocity=80, time=0)\n",
      "Message('note_on', channel=15, note=56, velocity=119, time=0)\n",
      "Message('note_off', channel=9, note=39, velocity=80, time=4)\n",
      "Message('note_off', channel=9, note=38, velocity=106, time=0)\n",
      "Message('note_off', channel=9, note=42, velocity=83, time=0)\n",
      "Message('note_off', channel=15, note=56, velocity=119, time=172)\n",
      "Message('note_on', channel=9, note=46, velocity=87, time=16)\n",
      "Message('note_on', channel=2, note=34, velocity=109, time=0)\n",
      "Message('note_off', channel=9, note=46, velocity=87, time=4)\n",
      "Message('note_off', channel=2, note=34, velocity=109, time=84)\n",
      "Message('note_off', channel=3, note=61, velocity=89, time=8)\n",
      "Message('note_off', channel=3, note=65, velocity=89, time=0)\n",
      "Message('note_off', channel=3, note=58, velocity=91, time=0)\n",
      "Message('note_off', channel=3, note=54, velocity=93, time=0)\n",
      "Message('note_on', channel=2, note=34, velocity=108, time=0)\n",
      "Message('note_off', channel=2, note=34, velocity=108, time=88)\n",
      "Message('note_off', channel=7, note=80, velocity=81, time=8)\n",
      "Message('note_off', channel=7, note=68, velocity=71, time=0)\n",
      "Message('note_on', channel=9, note=42, velocity=83, time=0)\n",
      "Message('note_on', channel=9, note=36, velocity=103, time=0)\n",
      "Message('note_on', channel=2, note=27, velocity=109, time=0)\n",
      "Message('note_on', channel=3, note=54, velocity=86, time=0)\n",
      "Message('note_on', channel=3, note=58, velocity=87, time=0)\n",
      "Message('note_on', channel=3, note=65, velocity=93, time=0)\n",
      "Message('note_on', channel=3, note=61, velocity=91, time=0)\n",
      "Message('note_on', channel=15, note=63, velocity=124, time=0)\n",
      "Message('note_off', channel=9, note=36, velocity=103, time=4)\n",
      "Message('note_off', channel=9, note=42, velocity=83, time=0)\n",
      "Message('note_off', channel=2, note=27, velocity=109, time=84)\n",
      "Message('note_off', channel=15, note=63, velocity=124, time=88)\n",
      "Message('note_on', channel=9, note=46, velocity=90, time=16)\n",
      "Message('note_on', channel=2, note=27, velocity=108, time=0)\n",
      "Message('note_on', channel=7, note=65, velocity=73, time=0)\n",
      "Message('note_on', channel=7, note=77, velocity=85, time=0)\n",
      "Message('note_on', channel=15, note=63, velocity=119, time=0)\n",
      "Message('note_off', channel=9, note=46, velocity=90, time=4)\n",
      "Message('note_off', channel=15, note=63, velocity=119, time=84)\n",
      "Message('note_off', channel=2, note=27, velocity=108, time=0)\n",
      "Message('note_on', channel=2, note=27, velocity=110, time=8)\n",
      "Message('note_off', channel=2, note=27, velocity=110, time=88)\n",
      "Message('note_off', channel=7, note=77, velocity=85, time=8)\n",
      "Message('note_off', channel=7, note=65, velocity=73, time=0)\n",
      "Message('note_on', channel=9, note=42, velocity=83, time=0)\n",
      "Message('note_on', channel=9, note=38, velocity=105, time=0)\n",
      "Message('note_on', channel=9, note=39, velocity=85, time=0)\n",
      "Message('note_on', channel=15, note=63, velocity=124, time=0)\n",
      "Message('note_off', channel=9, note=39, velocity=85, time=4)\n",
      "Message('note_off', channel=9, note=38, velocity=105, time=0)\n",
      "Message('note_off', channel=9, note=42, velocity=83, time=0)\n",
      "Message('note_off', channel=3, note=61, velocity=91, time=92)\n",
      "Message('note_off', channel=3, note=65, velocity=93, time=0)\n",
      "Message('note_off', channel=3, note=58, velocity=87, time=0)\n",
      "Message('note_off', channel=3, note=54, velocity=86, time=0)\n",
      "Message('note_on', channel=2, note=27, velocity=107, time=0)\n",
      "Message('note_off', channel=15, note=63, velocity=124, time=80)\n",
      "Message('note_off', channel=2, note=27, velocity=107, time=8)\n",
      "Message('note_on', channel=9, note=46, velocity=88, time=8)\n",
      "Message('note_on', channel=2, note=32, velocity=110, time=0)\n",
      "Message('note_on', channel=3, note=56, velocity=91, time=0)\n",
      "Message('note_on', channel=3, note=60, velocity=86, time=0)\n",
      "Message('note_on', channel=3, note=63, velocity=88, time=0)\n",
      "Message('note_on', channel=7, note=63, velocity=72, time=0)\n",
      "Message('note_on', channel=7, note=75, velocity=83, time=0)\n",
      "Message('note_on', channel=15, note=65, velocity=121, time=0)\n",
      "Message('note_off', channel=9, note=46, velocity=88, time=4)\n",
      "Message('note_off', channel=2, note=32, velocity=110, time=84)\n",
      "Message('note_off', channel=15, note=65, velocity=121, time=88)\n",
      "Message('note_off', channel=7, note=75, velocity=83, time=16)\n",
      "Message('note_off', channel=7, note=63, velocity=72, time=0)\n",
      "Message('note_on', channel=9, note=42, velocity=80, time=0)\n",
      "Message('note_on', channel=9, note=36, velocity=108, time=0)\n",
      "Message('note_on', channel=15, note=63, velocity=119, time=0)\n",
      "Message('note_off', channel=9, note=36, velocity=108, time=4)\n",
      "Message('note_off', channel=9, note=42, velocity=80, time=0)\n",
      "Message('note_on', channel=9, note=45, velocity=84, time=92)\n",
      "Message('note_off', channel=9, note=45, velocity=84, time=4)\n",
      "Message('note_on', channel=9, note=46, velocity=87, time=92)\n",
      "Message('note_on', channel=9, note=43, velocity=83, time=0)\n",
      "Message('note_on', channel=2, note=32, velocity=111, time=0)\n",
      "Message('note_on', channel=7, note=61, velocity=71, time=0)\n",
      "Message('note_on', channel=7, note=73, velocity=82, time=0)\n",
      "Message('note_off', channel=9, note=43, velocity=83, time=4)\n",
      "Message('note_off', channel=9, note=46, velocity=87, time=0)\n",
      "Message('note_off', channel=2, note=32, velocity=111, time=84)\n",
      "Message('note_on', channel=9, note=43, velocity=87, time=8)\n",
      "Message('note_on', channel=2, note=32, velocity=110, time=0)\n",
      "Message('note_off', channel=9, note=43, velocity=87, time=4)\n",
      "Message('note_off', channel=2, note=32, velocity=110, time=84)\n",
      "Message('note_off', channel=7, note=73, velocity=82, time=8)\n",
      "Message('note_off', channel=7, note=61, velocity=71, time=0)\n",
      "Message('note_on', channel=9, note=42, velocity=80, time=0)\n",
      "Message('note_on', channel=9, note=38, velocity=105, time=0)\n",
      "Message('note_on', channel=9, note=43, velocity=81, time=0)\n",
      "Message('note_on', channel=9, note=39, velocity=82, time=0)\n",
      "Message('note_on', channel=2, note=32, velocity=108, time=0)\n",
      "Message('note_off', channel=9, note=39, velocity=82, time=4)\n",
      "Message('note_off', channel=9, note=43, velocity=81, time=0)\n",
      "Message('note_off', channel=9, note=38, velocity=105, time=0)\n",
      "Message('note_off', channel=9, note=42, velocity=80, time=0)\n",
      "Message('note_off', channel=2, note=32, velocity=108, time=84)\n",
      "Message('note_on', channel=9, note=46, velocity=92, time=104)\n",
      "Message('note_on', channel=2, note=29, velocity=111, time=0)\n",
      "Message('note_on', channel=7, note=58, velocity=72, time=0)\n",
      "Message('note_on', channel=7, note=70, velocity=83, time=0)\n",
      "Message('note_off', channel=9, note=46, velocity=92, time=4)\n",
      "Message('note_off', channel=15, note=63, velocity=119, time=60)\n",
      "Message('note_off', channel=2, note=29, velocity=111, time=24)\n",
      "Message('note_off', channel=3, note=63, velocity=88, time=8)\n",
      "Message('note_off', channel=3, note=60, velocity=86, time=0)\n",
      "Message('note_off', channel=3, note=56, velocity=91, time=0)\n",
      "Message('note_on', channel=2, note=32, velocity=109, time=0)\n",
      "Message('note_off', channel=2, note=32, velocity=109, time=88)\n",
      "Message('note_on', channel=9, note=42, velocity=81, time=8)\n",
      "Message('note_on', channel=9, note=36, velocity=106, time=0)\n",
      "Message('note_on', channel=2, note=34, velocity=111, time=0)\n",
      "Message('note_on', channel=3, note=70, velocity=91, time=0)\n",
      "Message('note_on', channel=3, note=63, velocity=86, time=0)\n",
      "Message('note_on', channel=3, note=61, velocity=91, time=0)\n",
      "Message('note_on', channel=3, note=66, velocity=93, time=0)\n",
      "Message('note_on', channel=4, note=70, velocity=86, time=0)\n",
      "Message('note_on', channel=4, note=63, velocity=86, time=0)\n",
      "Message('note_on', channel=4, note=61, velocity=86, time=0)\n",
      "Message('note_on', channel=4, note=66, velocity=83, time=0)\n",
      "Message('note_on', channel=15, note=61, velocity=122, time=0)\n",
      "Message('note_off', channel=9, note=36, velocity=106, time=4)\n",
      "Message('note_off', channel=9, note=42, velocity=81, time=0)\n",
      "Message('note_off', channel=2, note=34, velocity=111, time=84)\n",
      "Message('note_on', channel=9, note=46, velocity=87, time=104)\n",
      "Message('note_on', channel=2, note=34, velocity=108, time=0)\n",
      "Message('note_off', channel=9, note=46, velocity=87, time=4)\n",
      "Message('note_off', channel=2, note=34, velocity=108, time=84)\n",
      "Message('note_on', channel=2, note=34, velocity=108, time=8)\n",
      "Message('note_off', channel=2, note=34, velocity=108, time=88)\n",
      "Message('note_on', channel=9, note=42, velocity=80, time=8)\n",
      "Message('note_on', channel=9, note=38, velocity=106, time=0)\n",
      "Message('note_on', channel=9, note=39, velocity=83, time=0)\n",
      "Message('note_off', channel=9, note=39, velocity=83, time=4)\n",
      "Message('note_off', channel=9, note=38, velocity=106, time=0)\n",
      "Message('note_off', channel=9, note=42, velocity=80, time=0)\n",
      "Message('note_on', channel=2, note=37, velocity=108, time=92)\n",
      "Message('note_off', channel=2, note=37, velocity=108, time=88)\n",
      "Message('note_on', channel=9, note=42, velocity=80, time=8)\n",
      "Message('note_on', channel=2, note=36, velocity=107, time=0)\n",
      "Message('note_off', channel=9, note=42, velocity=80, time=4)\n",
      "Message('note_off', channel=2, note=36, velocity=107, time=84)\n",
      "Message('note_on', channel=9, note=42, velocity=83, time=8)\n",
      "Message('note_off', channel=9, note=42, velocity=83, time=4)\n",
      "Message('note_on', channel=9, note=42, velocity=81, time=92)\n",
      "Message('note_on', channel=9, note=36, velocity=107, time=0)\n",
      "Message('note_on', channel=2, note=32, velocity=111, time=0)\n",
      "Message('note_off', channel=9, note=36, velocity=107, time=4)\n",
      "Message('note_off', channel=9, note=42, velocity=81, time=0)\n",
      "Message('note_off', channel=15, note=61, velocity=122, time=156)\n",
      "Message('note_off', channel=2, note=32, velocity=111, time=32)\n",
      "Message('note_on', channel=9, note=46, velocity=92, time=0)\n",
      "Message('note_on', channel=2, note=34, velocity=109, time=0)\n",
      "Message('note_on', channel=15, note=63, velocity=122, time=0)\n",
      "Message('note_off', channel=9, note=46, velocity=92, time=4)\n",
      "Message('note_off', channel=2, note=34, velocity=109, time=84)\n",
      "Message('note_off', channel=15, note=63, velocity=122, time=88)\n",
      "Message('note_on', channel=9, note=42, velocity=82, time=16)\n",
      "Message('note_on', channel=9, note=38, velocity=109, time=0)\n",
      "Message('note_on', channel=9, note=39, velocity=87, time=0)\n",
      "Message('note_on', channel=15, note=65, velocity=123, time=0)\n",
      "Message('note_off', channel=9, note=39, velocity=87, time=4)\n",
      "Message('note_off', channel=9, note=38, velocity=109, time=0)\n",
      "Message('note_off', channel=9, note=42, velocity=82, time=0)\n",
      "Message('note_off', channel=15, note=65, velocity=123, time=172)\n",
      "Message('note_off', channel=7, note=70, velocity=83, time=16)\n",
      "Message('note_off', channel=7, note=58, velocity=72, time=0)\n",
      "Message('note_on', channel=9, note=46, velocity=87, time=0)\n",
      "Message('note_on', channel=2, note=29, velocity=109, time=0)\n",
      "Message('note_on', channel=15, note=61, velocity=119, time=0)\n",
      "Message('note_off', channel=9, note=46, velocity=87, time=4)\n",
      "Message('note_off', channel=2, note=29, velocity=109, time=84)\n",
      "Message('note_off', channel=4, note=66, velocity=83, time=8)\n",
      "Message('note_off', channel=4, note=61, velocity=86, time=0)\n",
      "Message('note_off', channel=4, note=63, velocity=86, time=0)\n",
      "Message('note_off', channel=4, note=70, velocity=86, time=0)\n",
      "Message('note_off', channel=3, note=66, velocity=93, time=0)\n",
      "Message('note_off', channel=3, note=61, velocity=91, time=0)\n",
      "Message('note_off', channel=3, note=63, velocity=86, time=0)\n",
      "Message('note_off', channel=3, note=70, velocity=91, time=0)\n",
      "Message('note_on', channel=2, note=32, velocity=111, time=0)\n",
      "Message('note_off', channel=15, note=61, velocity=119, time=80)\n",
      "Message('note_off', channel=2, note=32, velocity=111, time=8)\n",
      "Message('note_on', channel=9, note=42, velocity=85, time=8)\n",
      "Message('note_on', channel=9, note=36, velocity=104, time=0)\n",
      "Message('note_on', channel=2, note=34, velocity=109, time=0)\n",
      "Message('note_on', channel=3, note=68, velocity=91, time=0)\n",
      "Message('note_on', channel=3, note=63, velocity=90, time=0)\n",
      "Message('note_on', channel=3, note=65, velocity=91, time=0)\n",
      "Message('note_on', channel=3, note=60, velocity=91, time=0)\n",
      "Message('note_on', channel=4, note=68, velocity=82, time=0)\n",
      "Message('note_on', channel=4, note=63, velocity=85, time=0)\n",
      "Message('note_on', channel=4, note=65, velocity=86, time=0)\n",
      "Message('note_on', channel=4, note=60, velocity=82, time=0)\n",
      "Message('note_on', channel=15, note=63, velocity=120, time=0)\n",
      "Message('note_off', channel=9, note=36, velocity=104, time=4)\n",
      "Message('note_off', channel=9, note=42, velocity=85, time=0)\n",
      "Message('note_off', channel=15, note=63, velocity=120, time=84)\n",
      "Message('note_off', channel=2, note=34, velocity=109, time=0)\n",
      "Message('note_on', channel=9, note=46, velocity=89, time=104)\n",
      "Message('note_on', channel=2, note=32, velocity=111, time=0)\n",
      "Message('note_on', channel=15, note=63, velocity=123, time=0)\n",
      "Message('note_off', channel=9, note=46, velocity=89, time=4)\n",
      "Message('note_off', channel=15, note=63, velocity=123, time=84)\n",
      "Message('note_off', channel=2, note=32, velocity=111, time=0)\n",
      "Message('note_on', channel=2, note=34, velocity=109, time=8)\n",
      "Message('note_off', channel=2, note=34, velocity=109, time=88)\n",
      "Message('note_on', channel=9, note=42, velocity=84, time=8)\n",
      "Message('note_on', channel=9, note=38, velocity=104, time=0)\n",
      "Message('note_on', channel=9, note=39, velocity=83, time=0)\n",
      "Message('note_on', channel=15, note=63, velocity=123, time=0)\n",
      "Message('note_off', channel=9, note=39, velocity=83, time=4)\n",
      "Message('note_off', channel=9, note=38, velocity=104, time=0)\n",
      "Message('note_off', channel=9, note=42, velocity=84, time=0)\n",
      "Message('note_on', channel=2, note=37, velocity=111, time=92)\n",
      "Message('note_off', channel=15, note=63, velocity=123, time=80)\n",
      "Message('note_off', channel=2, note=37, velocity=111, time=8)\n",
      "Message('note_on', channel=9, note=46, velocity=91, time=8)\n",
      "Message('note_on', channel=2, note=36, velocity=109, time=0)\n",
      "Message('note_on', channel=15, note=65, velocity=123, time=0)\n",
      "Message('note_off', channel=9, note=46, velocity=91, time=4)\n",
      "Message('note_off', channel=2, note=36, velocity=109, time=84)\n",
      "Message('note_off', channel=15, note=65, velocity=123, time=88)\n",
      "Message('note_on', channel=9, note=42, velocity=82, time=16)\n",
      "Message('note_on', channel=9, note=36, velocity=107, time=0)\n",
      "Message('note_on', channel=15, note=63, velocity=121, time=0)\n",
      "Message('note_off', channel=9, note=36, velocity=107, time=4)\n",
      "Message('note_off', channel=9, note=42, velocity=82, time=0)\n",
      "Message('note_off', channel=15, note=63, velocity=121, time=172)\n",
      "Message('note_on', channel=9, note=46, velocity=90, time=16)\n",
      "Message('note_on', channel=15, note=56, velocity=119, time=0)\n",
      "Message('note_off', channel=9, note=46, velocity=90, time=4)\n",
      "Message('note_off', channel=15, note=56, velocity=119, time=172)\n",
      "Message('note_on', channel=9, note=42, velocity=85, time=16)\n",
      "Message('note_on', channel=9, note=38, velocity=104, time=0)\n",
      "Message('note_on', channel=9, note=39, velocity=87, time=0)\n",
      "Message('note_on', channel=15, note=56, velocity=120, time=0)\n",
      "Message('note_off', channel=9, note=39, velocity=87, time=4)\n",
      "Message('note_off', channel=9, note=38, velocity=104, time=0)\n",
      "Message('note_off', channel=9, note=42, velocity=85, time=0)\n",
      "Message('note_on', channel=9, note=46, velocity=89, time=188)\n",
      "Message('note_on', channel=2, note=29, velocity=109, time=0)\n",
      "Message('note_off', channel=9, note=46, velocity=89, time=4)\n",
      "Message('note_off', channel=2, note=29, velocity=109, time=84)\n",
      "Message('note_off', channel=4, note=60, velocity=82, time=8)\n",
      "Message('note_off', channel=4, note=65, velocity=86, time=0)\n",
      "Message('note_off', channel=4, note=63, velocity=85, time=0)\n",
      "Message('note_off', channel=4, note=68, velocity=82, time=0)\n",
      "Message('note_off', channel=3, note=60, velocity=91, time=0)\n",
      "Message('note_off', channel=3, note=65, velocity=91, time=0)\n",
      "Message('note_off', channel=3, note=63, velocity=90, time=0)\n",
      "Message('note_off', channel=3, note=68, velocity=91, time=0)\n",
      "Message('note_on', channel=2, note=32, velocity=107, time=0)\n",
      "Message('note_off', channel=15, note=56, velocity=120, time=64)\n",
      "Message('note_off', channel=2, note=32, velocity=107, time=24)\n",
      "Message('note_on', channel=9, note=42, velocity=80, time=8)\n",
      "Message('note_on', channel=9, note=36, velocity=101, time=0)\n",
      "Message('note_on', channel=2, note=34, velocity=107, time=0)\n",
      "Message('note_on', channel=3, note=70, velocity=92, time=0)\n",
      "Message('note_on', channel=3, note=61, velocity=92, time=0)\n",
      "Message('note_on', channel=3, note=63, velocity=87, time=0)\n",
      "Message('note_on', channel=3, note=66, velocity=89, time=0)\n",
      "Message('note_on', channel=4, note=70, velocity=85, time=0)\n",
      "Message('note_on', channel=4, note=61, velocity=83, time=0)\n",
      "Message('note_on', channel=4, note=63, velocity=86, time=0)\n",
      "Message('note_on', channel=4, note=66, velocity=82, time=0)\n",
      "Message('note_off', channel=9, note=36, velocity=101, time=4)\n",
      "Message('note_off', channel=9, note=42, velocity=80, time=0)\n",
      "Message('note_off', channel=2, note=34, velocity=107, time=84)\n",
      "Message('note_on', channel=9, note=46, velocity=92, time=104)\n",
      "Message('note_on', channel=2, note=34, velocity=106, time=0)\n",
      "Message('note_off', channel=9, note=46, velocity=92, time=4)\n",
      "Message('note_off', channel=2, note=34, velocity=106, time=84)\n",
      "Message('note_on', channel=2, note=34, velocity=107, time=8)\n",
      "Message('note_off', channel=2, note=34, velocity=107, time=88)\n",
      "Message('note_on', channel=9, note=42, velocity=82, time=8)\n",
      "Message('note_on', channel=9, note=38, velocity=103, time=0)\n",
      "Message('note_on', channel=9, note=39, velocity=83, time=0)\n",
      "Message('note_off', channel=9, note=39, velocity=83, time=4)\n",
      "Message('note_off', channel=9, note=38, velocity=103, time=0)\n",
      "Message('note_off', channel=9, note=42, velocity=82, time=0)\n",
      "Message('note_on', channel=2, note=37, velocity=107, time=92)\n",
      "Message('note_off', channel=2, note=37, velocity=107, time=88)\n",
      "Message('note_on', channel=9, note=42, velocity=85, time=8)\n",
      "Message('note_on', channel=2, note=36, velocity=109, time=0)\n",
      "Message('note_off', channel=9, note=42, velocity=85, time=4)\n",
      "Message('note_off', channel=2, note=36, velocity=109, time=84)\n",
      "Message('note_on', channel=9, note=42, velocity=85, time=8)\n",
      "Message('note_off', channel=9, note=42, velocity=85, time=4)\n",
      "Message('note_on', channel=9, note=42, velocity=82, time=92)\n",
      "Message('note_on', channel=9, note=36, velocity=107, time=0)\n",
      "Message('note_on', channel=2, note=32, velocity=109, time=0)\n",
      "Message('note_on', channel=15, note=58, velocity=121, time=0)\n",
      "Message('note_off', channel=9, note=36, velocity=107, time=4)\n",
      "Message('note_off', channel=9, note=42, velocity=82, time=0)\n",
      "Message('note_off', channel=2, note=32, velocity=109, time=84)\n",
      "Message('note_off', channel=15, note=58, velocity=121, time=88)\n",
      "Message('note_on', channel=9, note=46, velocity=89, time=16)\n",
      "Message('note_on', channel=2, note=34, velocity=108, time=0)\n",
      "Message('note_on', channel=15, note=60, velocity=123, time=0)\n",
      "Message('note_off', channel=9, note=46, velocity=89, time=4)\n",
      "Message('note_off', channel=2, note=34, velocity=108, time=84)\n",
      "Message('note_off', channel=15, note=60, velocity=123, time=88)\n",
      "Message('note_on', channel=9, note=42, velocity=84, time=16)\n",
      "Message('note_on', channel=9, note=38, velocity=102, time=0)\n",
      "Message('note_on', channel=9, note=39, velocity=81, time=0)\n",
      "Message('note_on', channel=15, note=61, velocity=121, time=0)\n",
      "Message('note_off', channel=9, note=39, velocity=81, time=4)\n",
      "Message('note_off', channel=9, note=38, velocity=102, time=0)\n",
      "Message('note_off', channel=9, note=42, velocity=84, time=0)\n",
      "Message('note_off', channel=15, note=61, velocity=121, time=172)\n",
      "Message('note_on', channel=9, note=46, velocity=89, time=16)\n",
      "Message('note_on', channel=2, note=29, velocity=110, time=0)\n",
      "Message('note_on', channel=15, note=58, velocity=120, time=0)\n",
      "Message('note_off', channel=9, note=46, velocity=89, time=4)\n",
      "Message('note_off', channel=2, note=29, velocity=110, time=84)\n",
      "Message('note_off', channel=4, note=66, velocity=82, time=8)\n",
      "Message('note_off', channel=4, note=63, velocity=86, time=0)\n",
      "Message('note_off', channel=4, note=61, velocity=83, time=0)\n",
      "Message('note_off', channel=4, note=70, velocity=85, time=0)\n",
      "Message('note_off', channel=3, note=66, velocity=89, time=0)\n",
      "Message('note_off', channel=3, note=63, velocity=87, time=0)\n",
      "Message('note_off', channel=3, note=61, velocity=92, time=0)\n",
      "Message('note_off', channel=3, note=70, velocity=92, time=0)\n",
      "Message('note_on', channel=2, note=32, velocity=110, time=0)\n",
      "Message('note_off', channel=15, note=58, velocity=120, time=80)\n",
      "Message('note_off', channel=2, note=32, velocity=110, time=8)\n",
      "Message('note_on', channel=9, note=42, velocity=83, time=8)\n",
      "Message('note_on', channel=9, note=36, velocity=101, time=0)\n",
      "Message('note_on', channel=2, note=34, velocity=109, time=0)\n",
      "Message('note_on', channel=3, note=70, velocity=91, time=0)\n",
      "Message('note_on', channel=3, note=63, velocity=89, time=0)\n",
      "Message('note_on', channel=3, note=61, velocity=92, time=0)\n",
      "Message('note_on', channel=3, note=66, velocity=86, time=0)\n",
      "Message('note_on', channel=4, note=70, velocity=86, time=0)\n",
      "Message('note_on', channel=4, note=63, velocity=85, time=0)\n",
      "Message('note_on', channel=4, note=61, velocity=85, time=0)\n",
      "Message('note_on', channel=4, note=66, velocity=86, time=0)\n",
      "Message('note_off', channel=9, note=36, velocity=101, time=4)\n",
      "Message('note_off', channel=9, note=42, velocity=83, time=0)\n",
      "Message('note_off', channel=2, note=34, velocity=109, time=84)\n",
      "Message('note_off', channel=4, note=66, velocity=86, time=104)\n",
      "Message('note_off', channel=4, note=61, velocity=85, time=0)\n",
      "Message('note_off', channel=4, note=63, velocity=85, time=0)\n",
      "Message('note_off', channel=4, note=70, velocity=86, time=0)\n",
      "Message('note_off', channel=3, note=66, velocity=86, time=0)\n",
      "Message('note_off', channel=3, note=61, velocity=92, time=0)\n",
      "Message('note_off', channel=3, note=63, velocity=89, time=0)\n",
      "Message('note_off', channel=3, note=70, velocity=91, time=0)\n",
      "Message('note_on', channel=9, note=46, velocity=89, time=0)\n",
      "Message('note_on', channel=2, note=32, velocity=110, time=0)\n",
      "Message('note_on', channel=15, note=63, velocity=122, time=0)\n",
      "Message('note_off', channel=9, note=46, velocity=89, time=4)\n",
      "Message('note_off', channel=2, note=32, velocity=110, time=84)\n",
      "Message('note_on', channel=2, note=34, velocity=106, time=8)\n",
      "Message('note_on', channel=3, note=70, velocity=89, time=0)\n",
      "Message('note_on', channel=3, note=63, velocity=92, time=0)\n",
      "Message('note_on', channel=3, note=61, velocity=87, time=0)\n",
      "Message('note_on', channel=3, note=66, velocity=86, time=0)\n",
      "Message('note_on', channel=4, note=70, velocity=83, time=0)\n",
      "Message('note_on', channel=4, note=63, velocity=84, time=0)\n",
      "Message('note_on', channel=4, note=61, velocity=86, time=0)\n",
      "Message('note_on', channel=4, note=66, velocity=85, time=0)\n",
      "Message('note_off', channel=15, note=63, velocity=122, time=80)\n",
      "Message('note_off', channel=2, note=34, velocity=106, time=8)\n",
      "Message('note_off', channel=4, note=66, velocity=85, time=8)\n",
      "Message('note_off', channel=4, note=61, velocity=86, time=0)\n",
      "Message('note_off', channel=4, note=63, velocity=84, time=0)\n",
      "Message('note_off', channel=4, note=70, velocity=83, time=0)\n",
      "Message('note_off', channel=3, note=66, velocity=86, time=0)\n",
      "Message('note_off', channel=3, note=61, velocity=87, time=0)\n",
      "Message('note_off', channel=3, note=63, velocity=92, time=0)\n",
      "Message('note_off', channel=3, note=70, velocity=89, time=0)\n",
      "Message('note_on', channel=9, note=42, velocity=83, time=0)\n",
      "Message('note_on', channel=9, note=38, velocity=107, time=0)\n",
      "Message('note_on', channel=9, note=39, velocity=80, time=0)\n",
      "Message('note_on', channel=15, note=65, velocity=122, time=0)\n",
      "Message('note_off', channel=9, note=39, velocity=80, time=4)\n",
      "Message('note_off', channel=9, note=38, velocity=107, time=0)\n",
      "Message('note_off', channel=9, note=42, velocity=83, time=0)\n",
      "Message('note_on', channel=2, note=37, velocity=109, time=92)\n",
      "Message('note_off', channel=15, note=65, velocity=122, time=80)\n",
      "Message('note_off', channel=2, note=37, velocity=109, time=8)\n",
      "Message('note_on', channel=9, note=46, velocity=88, time=8)\n",
      "Message('note_on', channel=9, note=45, velocity=82, time=0)\n",
      "Message('note_on', channel=2, note=36, velocity=111, time=0)\n",
      "Message('note_on', channel=3, note=63, velocity=90, time=0)\n",
      "Message('note_on', channel=3, note=68, velocity=89, time=0)\n",
      "Message('note_on', channel=3, note=72, velocity=87, time=0)\n",
      "Message('note_on', channel=4, note=63, velocity=85, time=0)\n",
      "Message('note_on', channel=4, note=68, velocity=85, time=0)\n",
      "Message('note_on', channel=4, note=72, velocity=86, time=0)\n",
      "Message('note_on', channel=15, note=63, velocity=124, time=0)\n",
      "Message('note_off', channel=9, note=45, velocity=82, time=4)\n",
      "Message('note_off', channel=9, note=46, velocity=88, time=0)\n",
      "Message('note_off', channel=2, note=36, velocity=111, time=84)\n",
      "Message('note_on', channel=9, note=45, velocity=81, time=8)\n",
      "Message('note_off', channel=9, note=45, velocity=81, time=4)\n",
      "Message('note_on', channel=9, note=42, velocity=83, time=92)\n",
      "Message('note_on', channel=9, note=36, velocity=106, time=0)\n",
      "Message('note_on', channel=9, note=45, velocity=83, time=0)\n",
      "Message('note_on', channel=9, note=39, velocity=84, time=0)\n",
      "Message('note_off', channel=9, note=39, velocity=84, time=4)\n",
      "Message('note_off', channel=9, note=45, velocity=83, time=0)\n",
      "Message('note_off', channel=9, note=36, velocity=106, time=0)\n",
      "Message('note_off', channel=9, note=42, velocity=83, time=0)\n",
      "Message('note_on', channel=9, note=45, velocity=87, time=92)\n",
      "Message('note_on', channel=9, note=39, velocity=80, time=0)\n",
      "Message('note_off', channel=9, note=39, velocity=80, time=4)\n",
      "Message('note_off', channel=9, note=45, velocity=87, time=0)\n",
      "Message('note_on', channel=9, note=46, velocity=91, time=92)\n",
      "Message('note_on', channel=9, note=43, velocity=87, time=0)\n",
      "Message('note_on', channel=7, note=68, velocity=82, time=0)\n",
      "Message('note_on', channel=7, note=80, velocity=107, time=0)\n",
      "Message('note_on', channel=7, note=56, velocity=82, time=0)\n",
      "Message('note_off', channel=9, note=43, velocity=87, time=4)\n",
      "Message('note_off', channel=9, note=46, velocity=91, time=0)\n",
      "Message('note_off', channel=7, note=56, velocity=82, time=60)\n",
      "Message('note_off', channel=7, note=80, velocity=107, time=0)\n",
      "Message('note_off', channel=7, note=68, velocity=82, time=0)\n",
      "Message('note_off', channel=15, note=63, velocity=124, time=0)\n",
      "Message('note_on', channel=9, note=43, velocity=86, time=32)\n",
      "Message('note_on', channel=7, note=56, velocity=85, time=0)\n",
      "Message('note_on', channel=7, note=68, velocity=110, time=0)\n",
      "Message('note_on', channel=7, note=80, velocity=108, time=0)\n",
      "Message('note_off', channel=9, note=43, velocity=86, time=4)\n",
      "Message('note_off', channel=7, note=80, velocity=108, time=60)\n",
      "Message('note_off', channel=7, note=68, velocity=110, time=0)\n",
      "Message('note_off', channel=7, note=56, velocity=85, time=0)\n",
      "Message('note_on', channel=9, note=42, velocity=85, time=32)\n",
      "Message('note_on', channel=9, note=38, velocity=101, time=0)\n",
      "Message('note_on', channel=9, note=45, velocity=87, time=0)\n",
      "Message('note_on', channel=9, note=39, velocity=85, time=0)\n",
      "Message('note_on', channel=15, note=56, velocity=124, time=0)\n",
      "Message('note_off', channel=9, note=39, velocity=85, time=4)\n",
      "Message('note_off', channel=9, note=45, velocity=87, time=0)\n",
      "Message('note_off', channel=9, note=38, velocity=101, time=0)\n",
      "Message('note_off', channel=9, note=42, velocity=85, time=0)\n",
      "Message('note_off', channel=15, note=56, velocity=124, time=84)\n",
      "Message('note_on', channel=9, note=45, velocity=80, time=8)\n",
      "Message('note_on', channel=9, note=39, velocity=85, time=0)\n",
      "Message('note_on', channel=15, note=58, velocity=122, time=0)\n",
      "Message('note_off', channel=9, note=39, velocity=85, time=4)\n",
      "Message('note_off', channel=9, note=45, velocity=80, time=0)\n",
      "Message('note_off', channel=15, note=58, velocity=122, time=84)\n",
      "Message('note_on', channel=9, note=46, velocity=90, time=8)\n",
      "Message('note_on', channel=9, note=43, velocity=85, time=0)\n",
      "Message('note_on', channel=2, note=29, velocity=110, time=0)\n",
      "Message('note_on', channel=15, note=61, velocity=119, time=0)\n",
      "Message('note_off', channel=9, note=43, velocity=85, time=4)\n",
      "Message('note_off', channel=9, note=46, velocity=90, time=0)\n",
      "Message('note_off', channel=15, note=61, velocity=119, time=84)\n",
      "Message('note_off', channel=2, note=29, velocity=110, time=0)\n",
      "Message('note_off', channel=3, note=72, velocity=87, time=8)\n",
      "Message('note_off', channel=3, note=68, velocity=89, time=0)\n",
      "Message('note_off', channel=3, note=63, velocity=90, time=0)\n",
      "Message('note_on', channel=9, note=43, velocity=86, time=0)\n",
      "Message('note_on', channel=2, note=32, velocity=106, time=0)\n",
      "Message('note_on', channel=15, note=58, velocity=122, time=0)\n",
      "Message('note_off', channel=9, note=43, velocity=86, time=4)\n",
      "Message('note_off', channel=15, note=58, velocity=122, time=84)\n",
      "Message('note_off', channel=2, note=32, velocity=106, time=0)\n",
      "Message('note_off', channel=4, note=72, velocity=86, time=8)\n",
      "Message('note_off', channel=4, note=68, velocity=85, time=0)\n",
      "Message('note_off', channel=4, note=63, velocity=85, time=0)\n",
      "Message('note_on', channel=9, note=42, velocity=85, time=0)\n",
      "Message('note_on', channel=9, note=36, velocity=103, time=0)\n",
      "Message('note_on', channel=2, note=27, velocity=109, time=0)\n",
      "Message('note_on', channel=3, note=61, velocity=89, time=0)\n",
      "Message('note_on', channel=3, note=65, velocity=91, time=0)\n",
      "Message('note_on', channel=3, note=58, velocity=91, time=0)\n",
      "Message('note_on', channel=8, note=85, velocity=98, time=0)\n",
      "Message('note_on', channel=13, note=65, velocity=88, time=0)\n",
      "Message('note_on', channel=13, note=68, velocity=85, time=0)\n",
      "Message('note_on', channel=13, note=73, velocity=84, time=0)\n",
      "Message('note_on', channel=15, note=65, velocity=122, time=0)\n",
      "Message('note_off', channel=9, note=36, velocity=103, time=4)\n",
      "Message('note_off', channel=9, note=42, velocity=85, time=0)\n",
      "Message('note_off', channel=2, note=27, velocity=109, time=84)\n",
      "Message('note_on', channel=9, note=46, velocity=89, time=104)\n",
      "Message('note_on', channel=2, note=27, velocity=111, time=0)\n",
      "Message('note_off', channel=9, note=46, velocity=89, time=4)\n",
      "Message('note_off', channel=15, note=65, velocity=122, time=68)\n",
      "Message('note_off', channel=2, note=27, velocity=111, time=16)\n",
      "Message('note_off', channel=13, note=73, velocity=84, time=0)\n",
      "Message('note_off', channel=13, note=68, velocity=85, time=0)\n",
      "Message('note_off', channel=13, note=65, velocity=88, time=0)\n",
      "Message('note_on', channel=2, note=27, velocity=107, time=8)\n",
      "Message('note_off', channel=2, note=27, velocity=107, time=88)\n",
      "Message('note_on', channel=9, note=42, velocity=83, time=8)\n",
      "Message('note_on', channel=9, note=38, velocity=108, time=0)\n",
      "Message('note_on', channel=9, note=39, velocity=82, time=0)\n",
      "Message('note_on', channel=13, note=65, velocity=82, time=0)\n",
      "Message('note_on', channel=13, note=73, velocity=88, time=0)\n",
      "Message('note_on', channel=13, note=68, velocity=88, time=0)\n",
      "Message('note_on', channel=15, note=65, velocity=120, time=0)\n",
      "Message('note_off', channel=9, note=39, velocity=82, time=4)\n",
      "Message('note_off', channel=9, note=38, velocity=108, time=0)\n",
      "Message('note_off', channel=9, note=42, velocity=83, time=0)\n",
      "Message('note_off', channel=3, note=58, velocity=91, time=92)\n",
      "Message('note_off', channel=3, note=65, velocity=91, time=0)\n",
      "Message('note_off', channel=3, note=61, velocity=89, time=0)\n",
      "Message('note_on', channel=2, note=36, velocity=111, time=0)\n",
      "Message('note_off', channel=8, note=85, velocity=98, time=48)\n",
      "Message('note_off', channel=15, note=65, velocity=120, time=32)\n",
      "Message('note_off', channel=2, note=36, velocity=111, time=8)\n",
      "Message('note_off', channel=13, note=68, velocity=88, time=0)\n",
      "Message('note_off', channel=13, note=73, velocity=88, time=0)\n",
      "Message('note_off', channel=13, note=65, velocity=82, time=0)\n",
      "Message('note_on', channel=9, note=42, velocity=84, time=8)\n",
      "Message('note_on', channel=2, note=34, velocity=109, time=0)\n",
      "Message('note_on', channel=3, note=63, velocity=93, time=0)\n",
      "Message('note_on', channel=3, note=60, velocity=91, time=0)\n",
      "Message('note_on', channel=3, note=56, velocity=90, time=0)\n",
      "Message('note_on', channel=8, note=87, velocity=99, time=0)\n",
      "Message('note_on', channel=13, note=68, velocity=82, time=0)\n",
      "Message('note_on', channel=13, note=63, velocity=85, time=0)\n",
      "Message('note_on', channel=13, note=72, velocity=84, time=0)\n",
      "Message('note_on', channel=15, note=63, velocity=119, time=0)\n",
      "Message('note_off', channel=9, note=42, velocity=84, time=4)\n",
      "Message('note_off', channel=2, note=34, velocity=109, time=84)\n",
      "Message('note_on', channel=9, note=42, velocity=84, time=8)\n",
      "Message('note_off', channel=9, note=42, velocity=84, time=4)\n",
      "Message('note_off', channel=13, note=72, velocity=84, time=84)\n",
      "Message('note_off', channel=13, note=63, velocity=85, time=0)\n",
      "Message('note_off', channel=13, note=68, velocity=82, time=0)\n",
      "Message('note_on', channel=9, note=42, velocity=81, time=8)\n",
      "Message('note_on', channel=9, note=36, velocity=109, time=0)\n",
      "Message('note_on', channel=2, note=32, velocity=109, time=0)\n",
      "Message('note_off', channel=9, note=36, velocity=109, time=4)\n",
      "Message('note_off', channel=9, note=42, velocity=81, time=0)\n",
      "Message('note_off', channel=2, note=32, velocity=109, time=84)\n",
      "Message('note_on', channel=9, note=46, velocity=89, time=104)\n",
      "Message('note_on', channel=2, note=32, velocity=106, time=0)\n",
      "Message('note_off', channel=9, note=46, velocity=89, time=4)\n",
      "Message('note_off', channel=2, note=32, velocity=106, time=84)\n",
      "Message('note_off', channel=8, note=87, velocity=99, time=56)\n",
      "Message('note_off', channel=15, note=63, velocity=119, time=16)\n",
      "Message('note_on', channel=9, note=42, velocity=84, time=32)\n",
      "Message('note_on', channel=9, note=38, velocity=107, time=0)\n",
      "Message('note_on', channel=9, note=39, velocity=81, time=0)\n",
      "Message('note_on', channel=8, note=80, velocity=99, time=0)\n",
      "Message('note_on', channel=15, note=56, velocity=121, time=0)\n",
      "Message('note_off', channel=9, note=39, velocity=81, time=4)\n",
      "Message('note_off', channel=9, note=38, velocity=107, time=0)\n",
      "Message('note_off', channel=9, note=42, velocity=84, time=0)\n",
      "Message('note_off', channel=15, note=56, velocity=121, time=84)\n",
      "Message('note_on', channel=15, note=58, velocity=124, time=8)\n",
      "Message('note_off', channel=15, note=58, velocity=124, time=88)\n",
      "Message('note_on', channel=9, note=46, velocity=87, time=8)\n",
      "Message('note_on', channel=2, note=29, velocity=109, time=0)\n",
      "Message('note_on', channel=15, note=61, velocity=119, time=0)\n",
      "Message('note_off', channel=9, note=46, velocity=87, time=4)\n",
      "Message('note_off', channel=15, note=61, velocity=119, time=84)\n",
      "Message('note_off', channel=2, note=29, velocity=109, time=0)\n",
      "Message('note_off', channel=3, note=56, velocity=90, time=8)\n",
      "Message('note_off', channel=3, note=60, velocity=91, time=0)\n",
      "Message('note_off', channel=3, note=63, velocity=93, time=0)\n",
      "Message('note_on', channel=2, note=32, velocity=109, time=0)\n",
      "Message('note_on', channel=15, note=58, velocity=123, time=0)\n",
      "Message('note_off', channel=8, note=80, velocity=99, time=64)\n",
      "Message('note_off', channel=15, note=58, velocity=123, time=24)\n",
      "Message('note_off', channel=2, note=32, velocity=109, time=0)\n",
      "Message('note_on', channel=9, note=42, velocity=83, time=8)\n",
      "Message('note_on', channel=9, note=36, velocity=101, time=0)\n",
      "Message('note_on', channel=2, note=29, velocity=111, time=0)\n",
      "Message('note_on', channel=3, note=56, velocity=86, time=0)\n",
      "Message('note_on', channel=3, note=60, velocity=89, time=0)\n",
      "Message('note_on', channel=3, note=53, velocity=92, time=0)\n",
      "Message('note_on', channel=8, note=87, velocity=99, time=0)\n",
      "Message('note_on', channel=13, note=63, velocity=87, time=0)\n",
      "Message('note_on', channel=13, note=72, velocity=82, time=0)\n",
      "Message('note_on', channel=13, note=68, velocity=85, time=0)\n",
      "Message('note_on', channel=15, note=63, velocity=123, time=0)\n",
      "Message('note_off', channel=9, note=36, velocity=101, time=4)\n",
      "Message('note_off', channel=9, note=42, velocity=83, time=0)\n",
      "Message('note_off', channel=2, note=29, velocity=111, time=84)\n",
      "Message('note_on', channel=9, note=46, velocity=88, time=104)\n",
      "Message('note_on', channel=2, note=29, velocity=106, time=0)\n",
      "Message('note_off', channel=9, note=46, velocity=88, time=4)\n",
      "Message('note_off', channel=15, note=63, velocity=123, time=68)\n",
      "Message('note_off', channel=2, note=29, velocity=106, time=16)\n",
      "Message('note_off', channel=13, note=68, velocity=85, time=0)\n",
      "Message('note_off', channel=13, note=72, velocity=82, time=0)\n",
      "Message('note_off', channel=13, note=63, velocity=87, time=0)\n",
      "Message('note_on', channel=2, note=29, velocity=107, time=8)\n",
      "Message('note_off', channel=2, note=29, velocity=107, time=88)\n",
      "Message('note_on', channel=9, note=42, velocity=83, time=8)\n",
      "Message('note_on', channel=9, note=38, velocity=101, time=0)\n",
      "Message('note_on', channel=9, note=39, velocity=83, time=0)\n",
      "Message('note_on', channel=13, note=63, velocity=88, time=0)\n",
      "Message('note_on', channel=13, note=72, velocity=88, time=0)\n",
      "Message('note_on', channel=13, note=68, velocity=83, time=0)\n",
      "Message('note_on', channel=15, note=63, velocity=123, time=0)\n",
      "Message('note_off', channel=9, note=39, velocity=83, time=4)\n",
      "Message('note_off', channel=9, note=38, velocity=101, time=0)\n",
      "Message('note_off', channel=9, note=42, velocity=83, time=0)\n",
      "Message('note_off', channel=3, note=53, velocity=92, time=92)\n",
      "Message('note_off', channel=3, note=60, velocity=89, time=0)\n",
      "Message('note_off', channel=3, note=56, velocity=86, time=0)\n",
      "Message('note_on', channel=2, note=36, velocity=107, time=0)\n",
      "Message('note_off', channel=8, note=87, velocity=99, time=48)\n",
      "Message('note_off', channel=15, note=63, velocity=123, time=32)\n",
      "Message('note_off', channel=2, note=36, velocity=107, time=8)\n",
      "Message('note_off', channel=13, note=68, velocity=83, time=0)\n",
      "Message('note_off', channel=13, note=72, velocity=88, time=0)\n",
      "Message('note_off', channel=13, note=63, velocity=88, time=0)\n",
      "Message('note_on', channel=9, note=46, velocity=88, time=8)\n",
      "Message('note_on', channel=2, note=34, velocity=108, time=0)\n",
      "Message('note_on', channel=3, note=61, velocity=90, time=0)\n",
      "Message('note_on', channel=3, note=65, velocity=90, time=0)\n",
      "Message('note_on', channel=3, note=58, velocity=86, time=0)\n",
      "Message('note_on', channel=8, note=89, velocity=94, time=0)\n",
      "Message('note_on', channel=13, note=61, velocity=88, time=0)\n",
      "Message('note_on', channel=13, note=70, velocity=82, time=0)\n",
      "Message('note_on', channel=13, note=65, velocity=86, time=0)\n",
      "Message('note_on', channel=15, note=61, velocity=124, time=0)\n",
      "Message('note_off', channel=9, note=46, velocity=88, time=4)\n",
      "Message('note_off', channel=2, note=34, velocity=108, time=84)\n",
      "Message('note_off', channel=13, note=65, velocity=86, time=96)\n",
      "Message('note_off', channel=13, note=70, velocity=82, time=0)\n",
      "Message('note_off', channel=13, note=61, velocity=88, time=0)\n",
      "Message('note_on', channel=9, note=42, velocity=80, time=8)\n",
      "Message('note_on', channel=9, note=36, velocity=102, time=0)\n",
      "Message('note_off', channel=9, note=36, velocity=102, time=4)\n",
      "Message('note_off', channel=9, note=42, velocity=80, time=0)\n",
      "Message('note_off', channel=15, note=61, velocity=124, time=68)\n",
      "Message('note_on', channel=15, note=60, velocity=119, time=24)\n",
      "Message('note_off', channel=15, note=60, velocity=119, time=88)\n",
      "Message('note_on', channel=9, note=46, velocity=88, time=8)\n",
      "Message('note_on', channel=2, note=34, velocity=109, time=0)\n",
      "Message('note_on', channel=15, note=58, velocity=123, time=0)\n",
      "Message('note_off', channel=9, note=46, velocity=88, time=4)\n",
      "Message('note_off', channel=2, note=34, velocity=109, time=84)\n",
      "Message('note_on', channel=2, note=34, velocity=106, time=8)\n",
      "Message('note_off', channel=8, note=89, velocity=94, time=48)\n",
      "Message('note_off', channel=15, note=58, velocity=123, time=32)\n",
      "Message('note_off', channel=2, note=34, velocity=106, time=8)\n",
      "Message('note_on', channel=9, note=42, velocity=81, time=8)\n",
      "Message('note_on', channel=9, note=38, velocity=101, time=0)\n",
      "Message('note_on', channel=9, note=39, velocity=81, time=0)\n",
      "Message('note_on', channel=2, note=34, velocity=109, time=0)\n",
      "Message('note_on', channel=8, note=92, velocity=95, time=0)\n",
      "Message('note_on', channel=15, note=56, velocity=122, time=0)\n",
      "Message('note_off', channel=9, note=39, velocity=81, time=4)\n",
      "Message('note_off', channel=9, note=38, velocity=101, time=0)\n",
      "Message('note_off', channel=9, note=42, velocity=81, time=0)\n",
      "Message('note_off', channel=15, note=56, velocity=122, time=84)\n",
      "Message('note_off', channel=8, note=92, velocity=95, time=0)\n",
      "Message('note_off', channel=2, note=34, velocity=109, time=0)\n",
      "Message('note_on', channel=2, note=36, velocity=108, time=8)\n",
      "Message('note_on', channel=8, note=90, velocity=98, time=0)\n",
      "Message('note_on', channel=15, note=58, velocity=122, time=0)\n",
      "Message('note_off', channel=15, note=58, velocity=122, time=88)\n",
      "Message('note_off', channel=8, note=90, velocity=98, time=0)\n",
      "Message('note_off', channel=2, note=36, velocity=108, time=0)\n",
      "Message('note_on', channel=9, note=46, velocity=92, time=8)\n",
      "Message('note_on', channel=8, note=89, velocity=98, time=0)\n",
      "Message('note_on', channel=15, note=61, velocity=119, time=0)\n",
      "Message('note_off', channel=9, note=46, velocity=92, time=4)\n",
      "Message('note_off', channel=15, note=61, velocity=119, time=84)\n",
      "Message('note_off', channel=8, note=89, velocity=98, time=0)\n",
      "Message('note_off', channel=3, note=58, velocity=86, time=8)\n",
      "Message('note_off', channel=3, note=65, velocity=90, time=0)\n",
      "Message('note_off', channel=3, note=61, velocity=90, time=0)\n",
      "Message('note_on', channel=2, note=34, velocity=111, time=0)\n",
      "Message('note_on', channel=8, note=85, velocity=97, time=0)\n",
      "Message('note_on', channel=15, note=58, velocity=122, time=0)\n",
      "Message('note_off', channel=15, note=58, velocity=122, time=88)\n",
      "Message('note_off', channel=2, note=34, velocity=111, time=0)\n",
      "Message('note_on', channel=9, note=42, velocity=84, time=8)\n",
      "Message('note_on', channel=9, note=36, velocity=109, time=0)\n",
      "Message('note_on', channel=2, note=27, velocity=111, time=0)\n",
      "Message('note_on', channel=3, note=61, velocity=88, time=0)\n",
      "Message('note_on', channel=3, note=65, velocity=88, time=0)\n",
      "Message('note_on', channel=3, note=58, velocity=91, time=0)\n",
      "Message('note_on', channel=15, note=61, velocity=124, time=0)\n",
      "Message('note_off', channel=9, note=36, velocity=109, time=4)\n",
      "Message('note_off', channel=9, note=42, velocity=84, time=0)\n",
      "Message('note_off', channel=2, note=27, velocity=111, time=84)\n",
      "Message('note_on', channel=9, note=46, velocity=88, time=104)\n",
      "Message('note_on', channel=2, note=27, velocity=107, time=0)\n",
      "Message('note_off', channel=9, note=46, velocity=88, time=4)\n",
      "Message('note_off', channel=2, note=27, velocity=107, time=84)\n",
      "Message('note_on', channel=2, note=27, velocity=106, time=8)\n",
      "Message('note_off', channel=15, note=61, velocity=124, time=64)\n",
      "Message('note_off', channel=2, note=27, velocity=106, time=24)\n",
      "Message('note_on', channel=9, note=42, velocity=84, time=8)\n",
      "Message('note_on', channel=9, note=38, velocity=107, time=0)\n",
      "Message('note_on', channel=9, note=39, velocity=82, time=0)\n",
      "Message('note_on', channel=15, note=63, velocity=119, time=0)\n",
      "Message('note_off', channel=9, note=39, velocity=82, time=4)\n",
      "Message('note_off', channel=9, note=38, velocity=107, time=0)\n",
      "Message('note_off', channel=9, note=42, velocity=84, time=0)\n",
      "Message('note_off', channel=3, note=58, velocity=91, time=92)\n",
      "Message('note_off', channel=3, note=65, velocity=88, time=0)\n",
      "Message('note_off', channel=3, note=61, velocity=88, time=0)\n",
      "Message('note_on', channel=2, note=36, velocity=106, time=0)\n",
      "Message('note_off', channel=8, note=85, velocity=97, time=48)\n",
      "Message('note_off', channel=15, note=63, velocity=119, time=32)\n",
      "Message('note_off', channel=2, note=36, velocity=106, time=8)\n",
      "Message('note_on', channel=9, note=42, velocity=80, time=8)\n",
      "Message('note_on', channel=2, note=34, velocity=108, time=0)\n",
      "Message('note_on', channel=3, note=63, velocity=92, time=0)\n",
      "Message('note_on', channel=3, note=60, velocity=93, time=0)\n",
      "Message('note_on', channel=3, note=56, velocity=89, time=0)\n",
      "Message('note_on', channel=8, note=87, velocity=96, time=0)\n",
      "Message('note_on', channel=15, note=60, velocity=124, time=0)\n",
      "Message('note_off', channel=9, note=42, velocity=80, time=4)\n",
      "Message('note_off', channel=2, note=34, velocity=108, time=84)\n",
      "Message('note_on', channel=9, note=42, velocity=83, time=8)\n",
      "Message('note_off', channel=9, note=42, velocity=83, time=4)\n",
      "Message('note_on', channel=9, note=42, velocity=83, time=92)\n",
      "Message('note_on', channel=9, note=36, velocity=105, time=0)\n",
      "Message('note_on', channel=2, note=32, velocity=109, time=0)\n",
      "Message('note_off', channel=9, note=36, velocity=105, time=4)\n",
      "Message('note_off', channel=9, note=42, velocity=83, time=0)\n",
      "Message('note_off', channel=15, note=60, velocity=124, time=68)\n",
      "Message('note_off', channel=2, note=32, velocity=109, time=16)\n",
      "Message('note_on', channel=15, note=58, velocity=121, time=8)\n",
      "Message('note_off', channel=15, note=58, velocity=121, time=88)\n",
      "Message('note_on', channel=9, note=46, velocity=90, time=8)\n",
      "Message('note_on', channel=2, note=32, velocity=108, time=0)\n",
      "Message('note_on', channel=15, note=56, velocity=120, time=0)\n",
      "Message('note_off', channel=9, note=46, velocity=90, time=4)\n",
      "Message('note_off', channel=2, note=32, velocity=108, time=84)\n",
      "Message('note_off', channel=8, note=87, velocity=96, time=56)\n",
      "Message('note_off', channel=15, note=56, velocity=120, time=32)\n",
      "Message('note_on', channel=9, note=42, velocity=83, time=16)\n",
      "Message('note_on', channel=9, note=38, velocity=107, time=0)\n",
      "Message('note_on', channel=9, note=39, velocity=85, time=0)\n",
      "Message('note_on', channel=8, note=80, velocity=98, time=0)\n",
      "Message('note_on', channel=15, note=56, velocity=124, time=0)\n",
      "Message('note_off', channel=9, note=39, velocity=85, time=4)\n",
      "Message('note_off', channel=9, note=38, velocity=107, time=0)\n",
      "Message('note_off', channel=9, note=42, velocity=83, time=0)\n",
      "Message('note_off', channel=15, note=56, velocity=124, time=172)\n",
      "Message('note_on', channel=9, note=46, velocity=90, time=16)\n",
      "Message('note_on', channel=2, note=32, velocity=110, time=0)\n",
      "Message('note_on', channel=15, note=63, velocity=120, time=0)\n",
      "Message('note_off', channel=9, note=46, velocity=90, time=4)\n",
      "Message('note_off', channel=2, note=32, velocity=110, time=84)\n",
      "Message('note_off', channel=3, note=56, velocity=89, time=8)\n",
      "Message('note_off', channel=3, note=60, velocity=93, time=0)\n",
      "Message('note_off', channel=3, note=63, velocity=92, time=0)\n",
      "Message('note_on', channel=2, note=32, velocity=109, time=0)\n",
      "Message('note_off', channel=2, note=32, velocity=109, time=88)\n",
      "Message('note_on', channel=9, note=42, velocity=85, time=8)\n",
      "Message('note_on', channel=9, note=36, velocity=107, time=0)\n",
      "Message('note_on', channel=2, note=29, velocity=109, time=0)\n",
      "Message('note_on', channel=3, note=56, velocity=92, time=0)\n",
      "Message('note_on', channel=3, note=60, velocity=90, time=0)\n",
      "Message('note_on', channel=3, note=53, velocity=90, time=0)\n",
      "Message('note_on', channel=13, note=63, velocity=88, time=0)\n",
      "Message('note_on', channel=13, note=68, velocity=86, time=0)\n",
      "Message('note_on', channel=13, note=72, velocity=85, time=0)\n",
      "Message('note_off', channel=9, note=36, velocity=107, time=4)\n",
      "Message('note_off', channel=9, note=42, velocity=85, time=0)\n",
      "Message('note_off', channel=2, note=29, velocity=109, time=84)\n",
      "Message('note_on', channel=9, note=46, velocity=91, time=104)\n",
      "Message('note_on', channel=2, note=29, velocity=107, time=0)\n",
      "Message('note_off', channel=9, note=46, velocity=91, time=4)\n",
      "Message('note_off', channel=2, note=29, velocity=107, time=84)\n",
      "Message('note_off', channel=13, note=72, velocity=85, time=0)\n",
      "Message('note_off', channel=13, note=68, velocity=86, time=0)\n",
      "Message('note_off', channel=13, note=63, velocity=88, time=0)\n",
      "Message('note_on', channel=2, note=29, velocity=110, time=8)\n",
      "Message('note_off', channel=15, note=63, velocity=120, time=64)\n",
      "Message('note_off', channel=2, note=29, velocity=110, time=24)\n",
      "Message('note_on', channel=9, note=42, velocity=82, time=8)\n",
      "Message('note_on', channel=9, note=38, velocity=104, time=0)\n",
      "Message('note_on', channel=9, note=39, velocity=82, time=0)\n",
      "Message('note_on', channel=13, note=65, velocity=83, time=0)\n",
      "Message('note_on', channel=13, note=70, velocity=83, time=0)\n",
      "Message('note_on', channel=13, note=73, velocity=84, time=0)\n",
      "Message('note_on', channel=15, note=61, velocity=123, time=0)\n",
      "Message('note_off', channel=9, note=39, velocity=82, time=4)\n",
      "Message('note_off', channel=9, note=38, velocity=104, time=0)\n",
      "Message('note_off', channel=9, note=42, velocity=82, time=0)\n",
      "Message('note_off', channel=3, note=53, velocity=90, time=92)\n",
      "Message('note_off', channel=3, note=60, velocity=90, time=0)\n",
      "Message('note_off', channel=3, note=56, velocity=92, time=0)\n",
      "Message('note_on', channel=2, note=36, velocity=109, time=0)\n",
      "Message('note_off', channel=2, note=36, velocity=109, time=88)\n",
      "Message('note_on', channel=9, note=46, velocity=88, time=8)\n",
      "Message('note_on', channel=2, note=34, velocity=111, time=0)\n",
      "Message('note_on', channel=3, note=61, velocity=92, time=0)\n",
      "Message('note_on', channel=3, note=65, velocity=86, time=0)\n",
      "Message('note_on', channel=3, note=58, velocity=89, time=0)\n",
      "Message('note_off', channel=9, note=46, velocity=88, time=4)\n",
      "Message('note_off', channel=2, note=34, velocity=111, time=84)\n",
      "Message('note_on', channel=9, note=42, velocity=84, time=104)\n",
      "Message('note_on', channel=9, note=36, velocity=107, time=0)\n",
      "Message('note_off', channel=9, note=36, velocity=107, time=4)\n",
      "Message('note_off', channel=9, note=42, velocity=84, time=0)\n",
      "Message('note_off', channel=8, note=80, velocity=98, time=140)\n",
      "Message('note_on', channel=9, note=46, velocity=92, time=48)\n",
      "Message('note_on', channel=2, note=32, velocity=107, time=0)\n",
      "Message('note_on', channel=7, note=68, velocity=82, time=0)\n",
      "Message('note_on', channel=7, note=80, velocity=108, time=0)\n",
      "Message('note_on', channel=7, note=56, velocity=82, time=0)\n",
      "Message('note_off', channel=9, note=46, velocity=92, time=4)\n",
      "Message('note_off', channel=7, note=56, velocity=82, time=60)\n",
      "Message('note_off', channel=7, note=80, velocity=108, time=0)\n",
      "Message('note_off', channel=7, note=68, velocity=82, time=0)\n",
      "Message('note_off', channel=2, note=32, velocity=107, time=24)\n",
      "Message('note_on', channel=7, note=68, velocity=81, time=8)\n",
      "Message('note_on', channel=7, note=80, velocity=109, time=0)\n",
      "Message('note_on', channel=7, note=56, velocity=82, time=0)\n",
      "Message('note_off', channel=7, note=56, velocity=82, time=64)\n",
      "Message('note_off', channel=7, note=80, velocity=109, time=0)\n",
      "Message('note_off', channel=7, note=68, velocity=81, time=0)\n",
      "Message('note_off', channel=15, note=61, velocity=123, time=0)\n",
      "Message('note_on', channel=9, note=42, velocity=80, time=32)\n",
      "Message('note_on', channel=9, note=38, velocity=102, time=0)\n",
      "Message('note_on', channel=9, note=39, velocity=81, time=0)\n",
      "Message('note_on', channel=2, note=32, velocity=107, time=0)\n",
      "Message('note_on', channel=8, note=92, velocity=96, time=0)\n",
      "Message('note_on', channel=15, note=56, velocity=123, time=0)\n",
      "Message('note_off', channel=9, note=39, velocity=81, time=4)\n",
      "Message('note_off', channel=9, note=38, velocity=102, time=0)\n",
      "Message('note_off', channel=9, note=42, velocity=80, time=0)\n",
      "Message('note_off', channel=15, note=56, velocity=123, time=84)\n",
      "Message('note_off', channel=8, note=92, velocity=96, time=0)\n",
      "Message('note_off', channel=2, note=32, velocity=107, time=0)\n",
      "Message('note_off', channel=13, note=73, velocity=84, time=0)\n",
      "Message('note_off', channel=13, note=70, velocity=83, time=0)\n",
      "Message('note_off', channel=13, note=65, velocity=83, time=0)\n",
      "Message('note_on', channel=2, note=32, velocity=111, time=8)\n",
      "Message('note_on', channel=8, note=90, velocity=94, time=0)\n",
      "Message('note_on', channel=15, note=58, velocity=121, time=0)\n",
      "Message('note_off', channel=15, note=58, velocity=121, time=88)\n",
      "Message('note_off', channel=8, note=90, velocity=94, time=0)\n",
      "Message('note_off', channel=2, note=32, velocity=111, time=0)\n",
      "Message('note_on', channel=9, note=46, velocity=87, time=8)\n",
      "Message('note_on', channel=8, note=89, velocity=97, time=0)\n",
      "Message('note_on', channel=15, note=61, velocity=123, time=0)\n",
      "Message('note_off', channel=9, note=46, velocity=87, time=4)\n",
      "Message('note_off', channel=15, note=61, velocity=123, time=84)\n",
      "Message('note_off', channel=8, note=89, velocity=97, time=0)\n",
      "Message('note_off', channel=3, note=58, velocity=89, time=8)\n",
      "Message('note_off', channel=3, note=65, velocity=86, time=0)\n",
      "Message('note_off', channel=3, note=61, velocity=92, time=0)\n",
      "Message('note_on', channel=2, note=37, velocity=107, time=0)\n",
      "Message('note_on', channel=8, note=85, velocity=96, time=0)\n",
      "Message('note_on', channel=15, note=58, velocity=120, time=0)\n",
      "Message('note_off', channel=15, note=58, velocity=120, time=88)\n",
      "Message('note_off', channel=2, note=37, velocity=107, time=0)\n",
      "Message('note_on', channel=9, note=42, velocity=84, time=8)\n",
      "Message('note_on', channel=9, note=36, velocity=102, time=0)\n",
      "Message('note_on', channel=2, note=27, velocity=106, time=0)\n",
      "Message('note_on', channel=3, note=61, velocity=86, time=0)\n",
      "Message('note_on', channel=3, note=65, velocity=90, time=0)\n",
      "Message('note_on', channel=3, note=58, velocity=90, time=0)\n",
      "Message('note_on', channel=13, note=63, velocity=86, time=0)\n",
      "Message('note_on', channel=13, note=73, velocity=86, time=0)\n",
      "Message('note_on', channel=13, note=68, velocity=83, time=0)\n",
      "Message('note_on', channel=15, note=65, velocity=121, time=0)\n",
      "Message('note_off', channel=9, note=36, velocity=102, time=4)\n",
      "Message('note_off', channel=9, note=42, velocity=84, time=0)\n",
      "Message('note_off', channel=2, note=27, velocity=106, time=84)\n",
      "Message('note_on', channel=9, note=46, velocity=92, time=104)\n",
      "Message('note_on', channel=2, note=27, velocity=107, time=0)\n",
      "Message('note_off', channel=9, note=46, velocity=92, time=4)\n",
      "Message('note_off', channel=15, note=65, velocity=121, time=68)\n",
      "Message('note_off', channel=2, note=27, velocity=107, time=16)\n",
      "Message('note_off', channel=13, note=68, velocity=83, time=0)\n",
      "Message('note_off', channel=13, note=73, velocity=86, time=0)\n",
      "Message('note_off', channel=13, note=63, velocity=86, time=0)\n",
      "Message('note_on', channel=2, note=27, velocity=111, time=8)\n",
      "Message('note_off', channel=2, note=27, velocity=111, time=88)\n",
      "Message('note_on', channel=9, note=42, velocity=82, time=8)\n",
      "Message('note_on', channel=9, note=38, velocity=107, time=0)\n",
      "Message('note_on', channel=9, note=39, velocity=83, time=0)\n",
      "Message('note_on', channel=13, note=63, velocity=89, time=0)\n",
      "Message('note_on', channel=13, note=73, velocity=83, time=0)\n",
      "Message('note_on', channel=13, note=68, velocity=89, time=0)\n",
      "Message('note_on', channel=15, note=65, velocity=124, time=0)\n",
      "Message('note_off', channel=9, note=39, velocity=83, time=4)\n",
      "Message('note_off', channel=9, note=38, velocity=107, time=0)\n",
      "Message('note_off', channel=9, note=42, velocity=82, time=0)\n",
      "Message('note_off', channel=3, note=58, velocity=90, time=92)\n",
      "Message('note_off', channel=3, note=65, velocity=90, time=0)\n",
      "Message('note_off', channel=3, note=61, velocity=86, time=0)\n",
      "Message('note_on', channel=2, note=36, velocity=109, time=0)\n",
      "Message('note_off', channel=8, note=85, velocity=96, time=48)\n",
      "Message('note_off', channel=15, note=65, velocity=124, time=32)\n",
      "Message('note_off', channel=2, note=36, velocity=109, time=8)\n",
      "Message('note_off', channel=13, note=68, velocity=89, time=0)\n",
      "Message('note_off', channel=13, note=73, velocity=83, time=0)\n",
      "Message('note_off', channel=13, note=63, velocity=89, time=0)\n",
      "Message('note_on', channel=9, note=42, velocity=82, time=8)\n",
      "Message('note_on', channel=2, note=34, velocity=106, time=0)\n",
      "Message('note_on', channel=3, note=56, velocity=87, time=0)\n",
      "Message('note_on', channel=3, note=63, velocity=93, time=0)\n",
      "Message('note_on', channel=3, note=60, velocity=88, time=0)\n",
      "Message('note_on', channel=8, note=87, velocity=94, time=0)\n",
      "Message('note_on', channel=13, note=68, velocity=84, time=0)\n",
      "Message('note_on', channel=13, note=63, velocity=84, time=0)\n",
      "Message('note_on', channel=13, note=72, velocity=88, time=0)\n",
      "Message('note_on', channel=15, note=63, velocity=123, time=0)\n",
      "Message('note_off', channel=9, note=42, velocity=82, time=4)\n",
      "Message('note_off', channel=2, note=34, velocity=106, time=84)\n",
      "Message('note_on', channel=9, note=42, velocity=83, time=8)\n",
      "Message('note_off', channel=9, note=42, velocity=83, time=4)\n",
      "Message('note_on', channel=9, note=42, velocity=81, time=92)\n",
      "Message('note_on', channel=9, note=36, velocity=109, time=0)\n",
      "Message('note_on', channel=2, note=32, velocity=106, time=0)\n",
      "Message('note_off', channel=9, note=36, velocity=109, time=4)\n",
      "Message('note_off', channel=9, note=42, velocity=81, time=0)\n",
      "Message('note_off', channel=2, note=32, velocity=106, time=84)\n",
      "Message('note_on', channel=9, note=46, velocity=87, time=104)\n",
      "Message('note_on', channel=2, note=32, velocity=109, time=0)\n"
     ]
    },
    {
     "name": "stdout",
     "output_type": "stream",
     "text": [
      "Message('note_off', channel=9, note=46, velocity=87, time=4)\n",
      "Message('note_off', channel=2, note=32, velocity=109, time=84)\n",
      "Message('note_off', channel=8, note=87, velocity=94, time=56)\n",
      "Message('note_off', channel=15, note=63, velocity=123, time=16)\n",
      "Message('note_off', channel=13, note=72, velocity=88, time=24)\n",
      "Message('note_off', channel=13, note=63, velocity=84, time=0)\n",
      "Message('note_off', channel=13, note=68, velocity=84, time=0)\n",
      "Message('note_on', channel=9, note=42, velocity=83, time=8)\n",
      "Message('note_on', channel=9, note=38, velocity=105, time=0)\n",
      "Message('note_on', channel=9, note=39, velocity=86, time=0)\n",
      "Message('note_on', channel=8, note=80, velocity=94, time=0)\n",
      "Message('note_on', channel=15, note=56, velocity=122, time=0)\n",
      "Message('note_off', channel=9, note=39, velocity=86, time=4)\n",
      "Message('note_off', channel=9, note=38, velocity=105, time=0)\n",
      "Message('note_off', channel=9, note=42, velocity=83, time=0)\n",
      "Message('note_off', channel=15, note=56, velocity=122, time=84)\n",
      "Message('note_on', channel=15, note=58, velocity=119, time=8)\n",
      "Message('note_off', channel=15, note=58, velocity=119, time=88)\n",
      "Message('note_on', channel=9, note=46, velocity=90, time=8)\n",
      "Message('note_on', channel=2, note=29, velocity=107, time=0)\n",
      "Message('note_on', channel=15, note=61, velocity=120, time=0)\n",
      "Message('note_off', channel=9, note=46, velocity=90, time=4)\n",
      "Message('note_off', channel=15, note=61, velocity=120, time=84)\n",
      "Message('note_off', channel=2, note=29, velocity=107, time=0)\n",
      "Message('note_off', channel=3, note=60, velocity=88, time=8)\n",
      "Message('note_off', channel=3, note=63, velocity=93, time=0)\n",
      "Message('note_off', channel=3, note=56, velocity=87, time=0)\n",
      "Message('note_on', channel=2, note=32, velocity=106, time=0)\n",
      "Message('note_on', channel=15, note=58, velocity=120, time=0)\n",
      "Message('note_off', channel=8, note=80, velocity=94, time=64)\n",
      "Message('note_off', channel=15, note=58, velocity=120, time=24)\n",
      "Message('note_off', channel=2, note=32, velocity=106, time=0)\n",
      "Message('note_on', channel=9, note=42, velocity=83, time=8)\n",
      "Message('note_on', channel=9, note=36, velocity=105, time=0)\n",
      "Message('note_on', channel=2, note=29, velocity=106, time=0)\n",
      "Message('note_on', channel=3, note=56, velocity=86, time=0)\n",
      "Message('note_on', channel=3, note=60, velocity=86, time=0)\n",
      "Message('note_on', channel=3, note=53, velocity=87, time=0)\n",
      "Message('note_on', channel=8, note=87, velocity=97, time=0)\n",
      "Message('note_on', channel=13, note=68, velocity=83, time=0)\n",
      "Message('note_on', channel=13, note=75, velocity=87, time=0)\n",
      "Message('note_on', channel=13, note=72, velocity=88, time=0)\n",
      "Message('note_on', channel=15, note=68, velocity=121, time=0)\n",
      "Message('note_off', channel=9, note=36, velocity=105, time=4)\n",
      "Message('note_off', channel=9, note=42, velocity=83, time=0)\n",
      "Message('note_off', channel=2, note=29, velocity=106, time=84)\n",
      "Message('note_on', channel=9, note=46, velocity=90, time=104)\n",
      "Message('note_on', channel=2, note=29, velocity=107, time=0)\n",
      "Message('note_off', channel=9, note=46, velocity=90, time=4)\n",
      "Message('note_off', channel=2, note=29, velocity=107, time=84)\n",
      "Message('note_off', channel=13, note=72, velocity=88, time=0)\n",
      "Message('note_off', channel=13, note=75, velocity=87, time=0)\n",
      "Message('note_off', channel=13, note=68, velocity=83, time=0)\n",
      "Message('note_on', channel=2, note=29, velocity=110, time=8)\n",
      "Message('note_off', channel=15, note=68, velocity=121, time=64)\n",
      "Message('note_off', channel=2, note=29, velocity=110, time=24)\n",
      "Message('note_on', channel=9, note=42, velocity=83, time=8)\n",
      "Message('note_on', channel=9, note=38, velocity=104, time=0)\n",
      "Message('note_on', channel=9, note=39, velocity=83, time=0)\n",
      "Message('note_on', channel=13, note=68, velocity=85, time=0)\n",
      "Message('note_on', channel=13, note=75, velocity=89, time=0)\n",
      "Message('note_on', channel=13, note=72, velocity=86, time=0)\n",
      "Message('note_on', channel=15, note=60, velocity=120, time=0)\n",
      "Message('note_off', channel=9, note=39, velocity=83, time=4)\n",
      "Message('note_off', channel=9, note=38, velocity=104, time=0)\n",
      "Message('note_off', channel=9, note=42, velocity=83, time=0)\n",
      "Message('note_off', channel=3, note=53, velocity=87, time=92)\n",
      "Message('note_off', channel=3, note=60, velocity=86, time=0)\n",
      "Message('note_off', channel=3, note=56, velocity=86, time=0)\n",
      "Message('note_on', channel=2, note=36, velocity=106, time=0)\n",
      "Message('note_off', channel=8, note=87, velocity=97, time=48)\n",
      "Message('note_off', channel=15, note=60, velocity=120, time=32)\n",
      "Message('note_off', channel=2, note=36, velocity=106, time=8)\n",
      "Message('note_off', channel=13, note=72, velocity=86, time=0)\n",
      "Message('note_off', channel=13, note=75, velocity=89, time=0)\n",
      "Message('note_off', channel=13, note=68, velocity=85, time=0)\n",
      "Message('note_on', channel=9, note=46, velocity=87, time=8)\n",
      "Message('note_on', channel=2, note=34, velocity=110, time=0)\n",
      "Message('note_on', channel=3, note=61, velocity=90, time=0)\n",
      "Message('note_on', channel=3, note=65, velocity=93, time=0)\n",
      "Message('note_on', channel=3, note=58, velocity=86, time=0)\n",
      "Message('note_on', channel=8, note=89, velocity=97, time=0)\n",
      "Message('note_on', channel=13, note=65, velocity=85, time=0)\n",
      "Message('note_on', channel=13, note=70, velocity=89, time=0)\n",
      "Message('note_on', channel=13, note=73, velocity=85, time=0)\n",
      "Message('note_on', channel=15, note=61, velocity=123, time=0)\n",
      "Message('note_off', channel=9, note=46, velocity=87, time=4)\n",
      "Message('note_off', channel=2, note=34, velocity=110, time=84)\n",
      "Message('note_on', channel=9, note=42, velocity=81, time=104)\n",
      "Message('note_on', channel=9, note=36, velocity=102, time=0)\n",
      "Message('note_off', channel=9, note=36, velocity=102, time=4)\n",
      "Message('note_off', channel=9, note=42, velocity=81, time=0)\n",
      "Message('note_off', channel=15, note=61, velocity=123, time=68)\n",
      "Message('note_off', channel=13, note=73, velocity=85, time=16)\n",
      "Message('note_off', channel=13, note=70, velocity=89, time=0)\n",
      "Message('note_off', channel=13, note=65, velocity=85, time=0)\n",
      "Message('note_on', channel=13, note=63, velocity=84, time=8)\n",
      "Message('note_on', channel=13, note=72, velocity=84, time=0)\n",
      "Message('note_on', channel=13, note=68, velocity=87, time=0)\n",
      "Message('note_on', channel=15, note=60, velocity=121, time=0)\n",
      "Message('note_off', channel=15, note=60, velocity=121, time=88)\n",
      "Message('note_off', channel=13, note=68, velocity=87, time=0)\n",
      "Message('note_off', channel=13, note=72, velocity=84, time=0)\n",
      "Message('note_off', channel=13, note=63, velocity=84, time=0)\n",
      "Message('note_on', channel=9, note=46, velocity=88, time=8)\n",
      "Message('note_on', channel=2, note=34, velocity=107, time=0)\n",
      "Message('note_on', channel=13, note=61, velocity=85, time=0)\n",
      "Message('note_on', channel=13, note=70, velocity=82, time=0)\n",
      "Message('note_on', channel=13, note=65, velocity=83, time=0)\n",
      "Message('note_on', channel=15, note=58, velocity=123, time=0)\n",
      "Message('note_off', channel=9, note=46, velocity=88, time=4)\n",
      "Message('note_off', channel=2, note=34, velocity=107, time=84)\n",
      "Message('note_on', channel=2, note=34, velocity=107, time=8)\n",
      "Message('note_off', channel=8, note=89, velocity=97, time=48)\n",
      "Message('note_off', channel=15, note=58, velocity=123, time=32)\n",
      "Message('note_off', channel=2, note=34, velocity=107, time=8)\n",
      "Message('note_off', channel=13, note=65, velocity=83, time=0)\n",
      "Message('note_off', channel=13, note=70, velocity=82, time=0)\n",
      "Message('note_off', channel=13, note=61, velocity=85, time=0)\n",
      "Message('note_on', channel=9, note=42, velocity=83, time=8)\n",
      "Message('note_on', channel=9, note=38, velocity=104, time=0)\n",
      "Message('note_on', channel=9, note=39, velocity=86, time=0)\n",
      "Message('note_on', channel=2, note=34, velocity=106, time=0)\n",
      "Message('note_on', channel=8, note=92, velocity=98, time=0)\n",
      "Message('note_on', channel=15, note=56, velocity=119, time=0)\n",
      "Message('note_off', channel=9, note=39, velocity=86, time=4)\n",
      "Message('note_off', channel=9, note=38, velocity=104, time=0)\n",
      "Message('note_off', channel=9, note=42, velocity=83, time=0)\n",
      "Message('note_off', channel=15, note=56, velocity=119, time=84)\n",
      "Message('note_off', channel=8, note=92, velocity=98, time=0)\n",
      "Message('note_off', channel=2, note=34, velocity=106, time=0)\n",
      "Message('note_on', channel=2, note=36, velocity=111, time=8)\n",
      "Message('note_on', channel=8, note=90, velocity=97, time=0)\n",
      "Message('note_on', channel=15, note=58, velocity=123, time=0)\n",
      "Message('note_off', channel=15, note=58, velocity=123, time=88)\n",
      "Message('note_off', channel=8, note=90, velocity=97, time=0)\n",
      "Message('note_off', channel=2, note=36, velocity=111, time=0)\n",
      "Message('note_on', channel=9, note=46, velocity=88, time=8)\n",
      "Message('note_on', channel=8, note=89, velocity=98, time=0)\n",
      "Message('note_on', channel=15, note=61, velocity=121, time=0)\n",
      "Message('note_off', channel=9, note=46, velocity=88, time=4)\n",
      "Message('note_off', channel=15, note=61, velocity=121, time=84)\n",
      "Message('note_off', channel=8, note=89, velocity=98, time=0)\n",
      "Message('note_off', channel=3, note=58, velocity=86, time=8)\n",
      "Message('note_off', channel=3, note=65, velocity=93, time=0)\n",
      "Message('note_off', channel=3, note=61, velocity=90, time=0)\n",
      "Message('note_on', channel=2, note=34, velocity=106, time=0)\n",
      "Message('note_on', channel=8, note=85, velocity=95, time=0)\n",
      "Message('note_on', channel=15, note=58, velocity=122, time=0)\n",
      "Message('note_off', channel=15, note=58, velocity=122, time=88)\n",
      "Message('note_off', channel=2, note=34, velocity=106, time=0)\n",
      "Message('note_on', channel=9, note=42, velocity=83, time=8)\n",
      "Message('note_on', channel=9, note=36, velocity=101, time=0)\n",
      "Message('note_on', channel=2, note=27, velocity=109, time=0)\n",
      "Message('note_on', channel=3, note=61, velocity=90, time=0)\n",
      "Message('note_on', channel=3, note=65, velocity=91, time=0)\n",
      "Message('note_on', channel=3, note=58, velocity=89, time=0)\n",
      "Message('note_on', channel=15, note=61, velocity=122, time=0)\n",
      "Message('note_off', channel=9, note=36, velocity=101, time=4)\n",
      "Message('note_off', channel=9, note=42, velocity=83, time=0)\n",
      "Message('note_off', channel=2, note=27, velocity=109, time=84)\n",
      "Message('note_on', channel=9, note=46, velocity=88, time=104)\n",
      "Message('note_on', channel=2, note=27, velocity=107, time=0)\n",
      "Message('note_off', channel=9, note=46, velocity=88, time=4)\n",
      "Message('note_off', channel=2, note=27, velocity=107, time=84)\n",
      "Message('note_on', channel=2, note=27, velocity=106, time=8)\n",
      "Message('note_off', channel=15, note=61, velocity=122, time=64)\n",
      "Message('note_off', channel=2, note=27, velocity=106, time=24)\n",
      "Message('note_on', channel=9, note=42, velocity=80, time=8)\n",
      "Message('note_on', channel=9, note=38, velocity=107, time=0)\n",
      "Message('note_on', channel=9, note=39, velocity=86, time=0)\n",
      "Message('note_on', channel=15, note=63, velocity=122, time=0)\n",
      "Message('note_off', channel=9, note=39, velocity=86, time=4)\n",
      "Message('note_off', channel=9, note=38, velocity=107, time=0)\n",
      "Message('note_off', channel=9, note=42, velocity=80, time=0)\n",
      "Message('note_off', channel=3, note=58, velocity=89, time=92)\n",
      "Message('note_off', channel=3, note=65, velocity=91, time=0)\n",
      "Message('note_off', channel=3, note=61, velocity=90, time=0)\n",
      "Message('note_on', channel=2, note=36, velocity=108, time=0)\n",
      "Message('note_off', channel=8, note=85, velocity=95, time=48)\n",
      "Message('note_off', channel=15, note=63, velocity=122, time=32)\n",
      "Message('note_off', channel=2, note=36, velocity=108, time=8)\n",
      "Message('note_on', channel=9, note=42, velocity=81, time=8)\n",
      "Message('note_on', channel=2, note=34, velocity=108, time=0)\n",
      "Message('note_on', channel=3, note=63, velocity=87, time=0)\n",
      "Message('note_on', channel=3, note=60, velocity=87, time=0)\n",
      "Message('note_on', channel=3, note=56, velocity=91, time=0)\n",
      "Message('note_on', channel=8, note=87, velocity=96, time=0)\n",
      "Message('note_on', channel=15, note=60, velocity=123, time=0)\n",
      "Message('note_off', channel=9, note=42, velocity=81, time=4)\n",
      "Message('note_off', channel=2, note=34, velocity=108, time=84)\n",
      "Message('note_on', channel=9, note=42, velocity=83, time=8)\n",
      "Message('note_off', channel=9, note=42, velocity=83, time=4)\n",
      "Message('note_on', channel=9, note=42, velocity=80, time=92)\n",
      "Message('note_on', channel=9, note=36, velocity=102, time=0)\n",
      "Message('note_on', channel=2, note=32, velocity=108, time=0)\n",
      "Message('note_off', channel=9, note=36, velocity=102, time=4)\n",
      "Message('note_off', channel=9, note=42, velocity=80, time=0)\n",
      "Message('note_off', channel=15, note=60, velocity=123, time=68)\n",
      "Message('note_off', channel=2, note=32, velocity=108, time=16)\n",
      "Message('note_on', channel=15, note=58, velocity=124, time=8)\n",
      "Message('note_off', channel=15, note=58, velocity=124, time=88)\n",
      "Message('note_on', channel=9, note=46, velocity=92, time=8)\n",
      "Message('note_on', channel=2, note=32, velocity=110, time=0)\n",
      "Message('note_on', channel=15, note=56, velocity=120, time=0)\n",
      "Message('note_off', channel=9, note=46, velocity=92, time=4)\n",
      "Message('note_off', channel=2, note=32, velocity=110, time=84)\n",
      "Message('note_off', channel=8, note=87, velocity=96, time=56)\n",
      "Message('note_on', channel=9, note=42, velocity=80, time=48)\n",
      "Message('note_on', channel=9, note=38, velocity=107, time=0)\n",
      "Message('note_on', channel=9, note=39, velocity=84, time=0)\n",
      "Message('note_on', channel=8, note=80, velocity=96, time=0)\n",
      "Message('note_off', channel=9, note=39, velocity=84, time=4)\n",
      "Message('note_off', channel=9, note=38, velocity=107, time=0)\n",
      "Message('note_off', channel=9, note=42, velocity=80, time=0)\n",
      "Message('note_off', channel=15, note=56, velocity=120, time=68)\n",
      "Message('note_on', channel=9, note=46, velocity=87, time=120)\n",
      "Message('note_on', channel=2, note=32, velocity=110, time=0)\n",
      "Message('note_on', channel=15, note=56, velocity=121, time=0)\n",
      "Message('note_off', channel=9, note=46, velocity=87, time=4)\n",
      "Message('note_off', channel=2, note=32, velocity=110, time=84)\n",
      "Message('note_off', channel=3, note=56, velocity=91, time=8)\n",
      "Message('note_off', channel=3, note=60, velocity=87, time=0)\n",
      "Message('note_off', channel=3, note=63, velocity=87, time=0)\n",
      "Message('note_on', channel=2, note=32, velocity=107, time=0)\n",
      "Message('note_off', channel=15, note=56, velocity=121, time=80)\n",
      "Message('note_off', channel=2, note=32, velocity=107, time=8)\n",
      "Message('note_on', channel=9, note=42, velocity=83, time=8)\n",
      "Message('note_on', channel=9, note=36, velocity=105, time=0)\n",
      "Message('note_on', channel=2, note=29, velocity=109, time=0)\n",
      "Message('note_on', channel=3, note=63, velocity=87, time=0)\n",
      "Message('note_on', channel=3, note=60, velocity=91, time=0)\n",
      "Message('note_on', channel=3, note=56, velocity=92, time=0)\n",
      "Message('note_on', channel=13, note=63, velocity=83, time=0)\n",
      "Message('note_on', channel=13, note=68, velocity=88, time=0)\n",
      "Message('note_on', channel=13, note=72, velocity=87, time=0)\n",
      "Message('note_on', channel=15, note=63, velocity=119, time=0)\n",
      "Message('note_off', channel=9, note=36, velocity=105, time=4)\n",
      "Message('note_off', channel=9, note=42, velocity=83, time=0)\n",
      "Message('note_off', channel=2, note=29, velocity=109, time=84)\n",
      "Message('note_off', channel=3, note=56, velocity=92, time=104)\n",
      "Message('note_off', channel=3, note=60, velocity=91, time=0)\n",
      "Message('note_off', channel=3, note=63, velocity=87, time=0)\n",
      "Message('note_on', channel=9, note=46, velocity=89, time=0)\n",
      "Message('note_on', channel=2, note=29, velocity=107, time=0)\n",
      "Message('note_off', channel=9, note=46, velocity=89, time=4)\n",
      "Message('note_off', channel=2, note=29, velocity=107, time=84)\n",
      "Message('note_off', channel=13, note=72, velocity=87, time=0)\n",
      "Message('note_off', channel=13, note=68, velocity=88, time=0)\n",
      "Message('note_off', channel=13, note=63, velocity=83, time=0)\n",
      "Message('note_on', channel=2, note=29, velocity=111, time=8)\n",
      "Message('note_off', channel=15, note=63, velocity=119, time=64)\n",
      "Message('note_off', channel=2, note=29, velocity=111, time=24)\n",
      "Message('note_on', channel=9, note=42, velocity=81, time=8)\n",
      "Message('note_on', channel=9, note=38, velocity=105, time=0)\n",
      "Message('note_on', channel=9, note=39, velocity=85, time=0)\n",
      "Message('note_on', channel=3, note=61, velocity=92, time=0)\n",
      "Message('note_on', channel=3, note=65, velocity=92, time=0)\n",
      "Message('note_on', channel=3, note=58, velocity=87, time=0)\n",
      "Message('note_on', channel=13, note=68, velocity=89, time=0)\n",
      "Message('note_on', channel=13, note=65, velocity=86, time=0)\n",
      "Message('note_on', channel=13, note=73, velocity=86, time=0)\n",
      "Message('note_on', channel=15, note=61, velocity=122, time=0)\n",
      "Message('note_off', channel=9, note=39, velocity=85, time=4)\n",
      "Message('note_off', channel=9, note=38, velocity=105, time=0)\n",
      "Message('note_off', channel=9, note=42, velocity=81, time=0)\n",
      "Message('note_on', channel=2, note=36, velocity=107, time=92)\n",
      "Message('note_off', channel=2, note=36, velocity=107, time=88)\n",
      "Message('note_on', channel=9, note=46, velocity=88, time=8)\n",
      "Message('note_on', channel=2, note=34, velocity=109, time=0)\n",
      "Message('note_off', channel=9, note=46, velocity=88, time=4)\n",
      "Message('note_off', channel=2, note=34, velocity=109, time=84)\n",
      "Message('note_on', channel=9, note=42, velocity=82, time=104)\n",
      "Message('note_on', channel=9, note=36, velocity=108, time=0)\n",
      "Message('note_on', channel=9, note=45, velocity=86, time=0)\n",
      "Message('note_off', channel=9, note=45, velocity=86, time=4)\n",
      "Message('note_off', channel=9, note=36, velocity=108, time=0)\n",
      "Message('note_off', channel=9, note=42, velocity=82, time=0)\n",
      "Message('note_on', channel=9, note=45, velocity=87, time=92)\n",
      "Message('note_off', channel=9, note=45, velocity=87, time=4)\n",
      "Message('note_on', channel=9, note=46, velocity=91, time=92)\n",
      "Message('note_on', channel=9, note=43, velocity=88, time=0)\n",
      "Message('note_on', channel=2, note=32, velocity=110, time=0)\n",
      "Message('note_on', channel=7, note=73, velocity=85, time=0)\n",
      "Message('note_on', channel=7, note=85, velocity=108, time=0)\n",
      "Message('note_off', channel=9, note=43, velocity=88, time=4)\n",
      "Message('note_off', channel=9, note=46, velocity=91, time=0)\n",
      "Message('note_off', channel=7, note=85, velocity=108, time=60)\n",
      "Message('note_off', channel=7, note=73, velocity=85, time=0)\n",
      "Message('note_off', channel=2, note=32, velocity=110, time=24)\n",
      "Message('note_on', channel=9, note=43, velocity=85, time=8)\n",
      "Message('note_on', channel=7, note=73, velocity=82, time=0)\n",
      "Message('note_on', channel=7, note=85, velocity=111, time=0)\n",
      "Message('note_off', channel=9, note=43, velocity=85, time=4)\n",
      "Message('note_off', channel=7, note=85, velocity=111, time=60)\n",
      "Message('note_off', channel=7, note=73, velocity=82, time=0)\n",
      "Message('note_off', channel=13, note=73, velocity=86, time=24)\n",
      "Message('note_off', channel=13, note=65, velocity=86, time=0)\n",
      "Message('note_off', channel=13, note=68, velocity=89, time=0)\n",
      "Message('note_on', channel=9, note=42, velocity=85, time=8)\n",
      "Message('note_on', channel=9, note=38, velocity=109, time=0)\n",
      "Message('note_on', channel=9, note=45, velocity=84, time=0)\n",
      "Message('note_on', channel=9, note=39, velocity=86, time=0)\n",
      "Message('note_on', channel=2, note=32, velocity=108, time=0)\n",
      "Message('note_on', channel=7, note=73, velocity=81, time=0)\n",
      "Message('note_on', channel=7, note=85, velocity=111, time=0)\n",
      "Message('note_on', channel=15, note=56, velocity=123, time=0)\n",
      "Message('note_off', channel=9, note=39, velocity=86, time=4)\n",
      "Message('note_off', channel=9, note=45, velocity=84, time=0)\n",
      "Message('note_off', channel=9, note=38, velocity=109, time=0)\n",
      "Message('note_off', channel=9, note=42, velocity=85, time=0)\n",
      "Message('note_off', channel=8, note=80, velocity=96, time=44)\n",
      "Message('note_off', channel=7, note=85, velocity=111, time=16)\n",
      "Message('note_off', channel=7, note=73, velocity=81, time=0)\n",
      "Message('note_off', channel=15, note=61, velocity=122, time=0)\n",
      "Message('note_off', channel=15, note=56, velocity=123, time=24)\n",
      "Message('note_off', channel=2, note=32, velocity=108, time=0)\n",
      "Message('note_on', channel=9, note=45, velocity=85, time=8)\n",
      "Message('note_on', channel=2, note=32, velocity=108, time=0)\n",
      "Message('note_on', channel=7, note=73, velocity=81, time=0)\n",
      "Message('note_on', channel=7, note=85, velocity=107, time=0)\n",
      "Message('note_on', channel=15, note=58, velocity=122, time=0)\n",
      "Message('note_off', channel=9, note=45, velocity=85, time=4)\n",
      "Message('note_off', channel=7, note=85, velocity=107, time=60)\n",
      "Message('note_off', channel=7, note=73, velocity=81, time=0)\n",
      "Message('note_off', channel=15, note=58, velocity=122, time=24)\n",
      "Message('note_off', channel=2, note=32, velocity=108, time=0)\n",
      "Message('note_on', channel=9, note=46, velocity=92, time=8)\n",
      "Message('note_on', channel=9, note=43, velocity=88, time=0)\n",
      "Message('note_on', channel=15, note=61, velocity=119, time=0)\n",
      "Message('note_off', channel=9, note=43, velocity=88, time=4)\n",
      "Message('note_off', channel=9, note=46, velocity=92, time=0)\n",
      "Message('note_off', channel=15, note=61, velocity=119, time=84)\n",
      "Message('note_off', channel=3, note=58, velocity=87, time=8)\n",
      "Message('note_off', channel=3, note=65, velocity=92, time=0)\n",
      "Message('note_off', channel=3, note=61, velocity=92, time=0)\n",
      "Message('note_on', channel=9, note=43, velocity=89, time=0)\n",
      "Message('note_on', channel=2, note=37, velocity=107, time=0)\n",
      "Message('note_on', channel=7, note=73, velocity=83, time=0)\n",
      "Message('note_on', channel=7, note=85, velocity=107, time=0)\n",
      "Message('note_on', channel=15, note=58, velocity=120, time=0)\n",
      "Message('note_off', channel=9, note=43, velocity=89, time=4)\n",
      "Message('note_off', channel=7, note=85, velocity=107, time=60)\n",
      "Message('note_off', channel=7, note=73, velocity=83, time=0)\n",
      "Message('note_off', channel=15, note=58, velocity=120, time=24)\n",
      "Message('note_off', channel=2, note=37, velocity=107, time=0)\n",
      "Message('note_on', channel=9, note=42, velocity=82, time=8)\n",
      "Message('note_on', channel=9, note=36, velocity=101, time=0)\n",
      "Message('note_on', channel=2, note=27, velocity=111, time=0)\n",
      "Message('note_on', channel=3, note=61, velocity=90, time=0)\n",
      "Message('note_on', channel=3, note=65, velocity=93, time=0)\n",
      "Message('note_on', channel=3, note=58, velocity=93, time=0)\n",
      "Message('note_on', channel=8, note=85, velocity=97, time=0)\n",
      "Message('note_on', channel=13, note=65, velocity=89, time=0)\n",
      "Message('note_on', channel=13, note=68, velocity=82, time=0)\n",
      "Message('note_on', channel=13, note=73, velocity=86, time=0)\n",
      "Message('note_on', channel=15, note=65, velocity=120, time=0)\n",
      "Message('note_off', channel=9, note=36, velocity=101, time=4)\n",
      "Message('note_off', channel=9, note=42, velocity=82, time=0)\n",
      "Message('note_off', channel=2, note=27, velocity=111, time=84)\n",
      "Message('note_on', channel=9, note=46, velocity=89, time=104)\n",
      "Message('note_on', channel=2, note=27, velocity=106, time=0)\n",
      "Message('note_off', channel=9, note=46, velocity=89, time=4)\n",
      "Message('note_off', channel=15, note=65, velocity=120, time=68)\n",
      "Message('note_off', channel=2, note=27, velocity=106, time=16)\n",
      "Message('note_off', channel=13, note=73, velocity=86, time=0)\n",
      "Message('note_off', channel=13, note=68, velocity=82, time=0)\n",
      "Message('note_off', channel=13, note=65, velocity=89, time=0)\n",
      "Message('note_on', channel=2, note=27, velocity=109, time=8)\n",
      "Message('note_off', channel=2, note=27, velocity=109, time=88)\n",
      "Message('note_on', channel=9, note=42, velocity=85, time=8)\n",
      "Message('note_on', channel=9, note=38, velocity=106, time=0)\n",
      "Message('note_on', channel=9, note=39, velocity=81, time=0)\n",
      "Message('note_on', channel=13, note=65, velocity=82, time=0)\n",
      "Message('note_on', channel=13, note=73, velocity=82, time=0)\n",
      "Message('note_on', channel=13, note=68, velocity=83, time=0)\n",
      "Message('note_on', channel=15, note=65, velocity=123, time=0)\n",
      "Message('note_off', channel=9, note=39, velocity=81, time=4)\n",
      "Message('note_off', channel=9, note=38, velocity=106, time=0)\n",
      "Message('note_off', channel=9, note=42, velocity=85, time=0)\n",
      "Message('note_off', channel=3, note=58, velocity=93, time=92)\n",
      "Message('note_off', channel=3, note=65, velocity=93, time=0)\n",
      "Message('note_off', channel=3, note=61, velocity=90, time=0)\n",
      "Message('note_on', channel=2, note=36, velocity=109, time=0)\n",
      "Message('note_off', channel=8, note=85, velocity=97, time=48)\n",
      "Message('note_off', channel=15, note=65, velocity=123, time=32)\n",
      "Message('note_off', channel=2, note=36, velocity=109, time=8)\n",
      "Message('note_off', channel=13, note=68, velocity=83, time=0)\n",
      "Message('note_off', channel=13, note=73, velocity=82, time=0)\n",
      "Message('note_off', channel=13, note=65, velocity=82, time=0)\n",
      "Message('note_on', channel=9, note=42, velocity=83, time=8)\n",
      "Message('note_on', channel=2, note=34, velocity=111, time=0)\n",
      "Message('note_on', channel=3, note=63, velocity=86, time=0)\n",
      "Message('note_on', channel=3, note=60, velocity=88, time=0)\n",
      "Message('note_on', channel=3, note=56, velocity=86, time=0)\n",
      "Message('note_on', channel=8, note=87, velocity=97, time=0)\n",
      "Message('note_on', channel=13, note=68, velocity=86, time=0)\n",
      "Message('note_on', channel=13, note=63, velocity=88, time=0)\n",
      "Message('note_on', channel=13, note=72, velocity=89, time=0)\n",
      "Message('note_on', channel=15, note=63, velocity=121, time=0)\n",
      "Message('note_off', channel=9, note=42, velocity=83, time=4)\n",
      "Message('note_off', channel=2, note=34, velocity=111, time=84)\n",
      "Message('note_on', channel=9, note=42, velocity=82, time=8)\n",
      "Message('note_off', channel=9, note=42, velocity=82, time=4)\n",
      "Message('note_off', channel=13, note=72, velocity=89, time=84)\n",
      "Message('note_off', channel=13, note=63, velocity=88, time=0)\n",
      "Message('note_off', channel=13, note=68, velocity=86, time=0)\n",
      "Message('note_on', channel=9, note=42, velocity=80, time=8)\n",
      "Message('note_on', channel=9, note=36, velocity=103, time=0)\n",
      "Message('note_on', channel=2, note=32, velocity=108, time=0)\n",
      "Message('note_off', channel=9, note=36, velocity=103, time=4)\n",
      "Message('note_off', channel=9, note=42, velocity=80, time=0)\n",
      "Message('note_off', channel=2, note=32, velocity=108, time=84)\n",
      "Message('note_on', channel=9, note=46, velocity=89, time=104)\n",
      "Message('note_on', channel=2, note=32, velocity=106, time=0)\n",
      "Message('note_off', channel=9, note=46, velocity=89, time=4)\n",
      "Message('note_off', channel=2, note=32, velocity=106, time=84)\n",
      "Message('note_off', channel=8, note=87, velocity=97, time=56)\n",
      "Message('note_off', channel=15, note=63, velocity=121, time=16)\n",
      "Message('note_on', channel=9, note=42, velocity=80, time=32)\n",
      "Message('note_on', channel=9, note=38, velocity=106, time=0)\n",
      "Message('note_on', channel=9, note=39, velocity=86, time=0)\n",
      "Message('note_on', channel=8, note=80, velocity=95, time=0)\n",
      "Message('note_on', channel=15, note=56, velocity=119, time=0)\n",
      "Message('note_off', channel=9, note=39, velocity=86, time=4)\n",
      "Message('note_off', channel=9, note=38, velocity=106, time=0)\n",
      "Message('note_off', channel=9, note=42, velocity=80, time=0)\n",
      "Message('note_off', channel=15, note=56, velocity=119, time=84)\n",
      "Message('note_on', channel=15, note=58, velocity=121, time=8)\n",
      "Message('note_off', channel=15, note=58, velocity=121, time=88)\n",
      "Message('note_on', channel=9, note=46, velocity=90, time=8)\n",
      "Message('note_on', channel=2, note=29, velocity=111, time=0)\n",
      "Message('note_on', channel=15, note=61, velocity=120, time=0)\n",
      "Message('note_off', channel=9, note=46, velocity=90, time=4)\n",
      "Message('note_off', channel=15, note=61, velocity=120, time=84)\n",
      "Message('note_off', channel=2, note=29, velocity=111, time=0)\n",
      "Message('note_off', channel=3, note=56, velocity=86, time=8)\n",
      "Message('note_off', channel=3, note=60, velocity=88, time=0)\n",
      "Message('note_off', channel=3, note=63, velocity=86, time=0)\n",
      "Message('note_on', channel=2, note=32, velocity=111, time=0)\n",
      "Message('note_on', channel=15, note=58, velocity=124, time=0)\n",
      "Message('note_off', channel=8, note=80, velocity=95, time=64)\n",
      "Message('note_off', channel=15, note=58, velocity=124, time=24)\n",
      "Message('note_off', channel=2, note=32, velocity=111, time=0)\n",
      "Message('note_on', channel=9, note=42, velocity=80, time=8)\n",
      "Message('note_on', channel=9, note=36, velocity=106, time=0)\n",
      "Message('note_on', channel=2, note=29, velocity=109, time=0)\n",
      "Message('note_on', channel=3, note=60, velocity=87, time=0)\n",
      "Message('note_on', channel=3, note=63, velocity=92, time=0)\n",
      "Message('note_on', channel=3, note=56, velocity=88, time=0)\n",
      "Message('note_on', channel=8, note=87, velocity=98, time=0)\n",
      "Message('note_on', channel=13, note=63, velocity=86, time=0)\n",
      "Message('note_on', channel=13, note=72, velocity=89, time=0)\n",
      "Message('note_on', channel=13, note=68, velocity=83, time=0)\n",
      "Message('note_on', channel=15, note=63, velocity=122, time=0)\n",
      "Message('note_off', channel=9, note=36, velocity=106, time=4)\n",
      "Message('note_off', channel=9, note=42, velocity=80, time=0)\n",
      "Message('note_off', channel=2, note=29, velocity=109, time=84)\n",
      "Message('note_on', channel=9, note=46, velocity=92, time=104)\n",
      "Message('note_on', channel=2, note=29, velocity=108, time=0)\n",
      "Message('note_off', channel=9, note=46, velocity=92, time=4)\n",
      "Message('note_off', channel=15, note=63, velocity=122, time=68)\n",
      "Message('note_off', channel=2, note=29, velocity=108, time=16)\n",
      "Message('note_off', channel=13, note=68, velocity=83, time=0)\n",
      "Message('note_off', channel=13, note=72, velocity=89, time=0)\n",
      "Message('note_off', channel=13, note=63, velocity=86, time=0)\n",
      "Message('note_on', channel=2, note=29, velocity=109, time=8)\n",
      "Message('note_off', channel=2, note=29, velocity=109, time=88)\n",
      "Message('note_on', channel=9, note=42, velocity=83, time=8)\n",
      "Message('note_on', channel=9, note=38, velocity=104, time=0)\n",
      "Message('note_on', channel=9, note=39, velocity=87, time=0)\n",
      "Message('note_on', channel=13, note=63, velocity=88, time=0)\n",
      "Message('note_on', channel=13, note=72, velocity=84, time=0)\n",
      "Message('note_on', channel=13, note=68, velocity=84, time=0)\n",
      "Message('note_on', channel=15, note=63, velocity=120, time=0)\n",
      "Message('note_off', channel=9, note=39, velocity=87, time=4)\n",
      "Message('note_off', channel=9, note=38, velocity=104, time=0)\n",
      "Message('note_off', channel=9, note=42, velocity=83, time=0)\n",
      "Message('note_off', channel=3, note=56, velocity=88, time=92)\n",
      "Message('note_off', channel=3, note=63, velocity=92, time=0)\n",
      "Message('note_off', channel=3, note=60, velocity=87, time=0)\n",
      "Message('note_on', channel=2, note=36, velocity=111, time=0)\n",
      "Message('note_off', channel=8, note=87, velocity=98, time=48)\n",
      "Message('note_off', channel=15, note=63, velocity=120, time=32)\n",
      "Message('note_off', channel=2, note=36, velocity=111, time=8)\n",
      "Message('note_off', channel=13, note=68, velocity=84, time=0)\n",
      "Message('note_off', channel=13, note=72, velocity=84, time=0)\n",
      "Message('note_off', channel=13, note=63, velocity=88, time=0)\n",
      "Message('note_on', channel=9, note=46, velocity=89, time=8)\n",
      "Message('note_on', channel=2, note=34, velocity=110, time=0)\n",
      "Message('note_on', channel=3, note=61, velocity=92, time=0)\n",
      "Message('note_on', channel=3, note=65, velocity=88, time=0)\n",
      "Message('note_on', channel=3, note=58, velocity=92, time=0)\n",
      "Message('note_on', channel=8, note=89, velocity=94, time=0)\n",
      "Message('note_on', channel=13, note=61, velocity=87, time=0)\n",
      "Message('note_on', channel=13, note=70, velocity=88, time=0)\n",
      "Message('note_on', channel=13, note=65, velocity=84, time=0)\n",
      "Message('note_on', channel=15, note=61, velocity=124, time=0)\n",
      "Message('note_off', channel=9, note=46, velocity=89, time=4)\n",
      "Message('note_off', channel=2, note=34, velocity=110, time=84)\n",
      "Message('note_off', channel=13, note=65, velocity=84, time=96)\n",
      "Message('note_off', channel=13, note=70, velocity=88, time=0)\n",
      "Message('note_off', channel=13, note=61, velocity=87, time=0)\n",
      "Message('note_on', channel=9, note=42, velocity=85, time=8)\n",
      "Message('note_on', channel=9, note=36, velocity=106, time=0)\n",
      "Message('note_off', channel=9, note=36, velocity=106, time=4)\n",
      "Message('note_off', channel=9, note=42, velocity=85, time=0)\n",
      "Message('note_off', channel=15, note=61, velocity=124, time=68)\n",
      "Message('note_on', channel=15, note=60, velocity=122, time=24)\n",
      "Message('note_off', channel=15, note=60, velocity=122, time=88)\n",
      "Message('note_on', channel=9, note=46, velocity=91, time=8)\n",
      "Message('note_on', channel=2, note=34, velocity=111, time=0)\n",
      "Message('note_on', channel=15, note=58, velocity=120, time=0)\n",
      "Message('note_off', channel=9, note=46, velocity=91, time=4)\n",
      "Message('note_off', channel=2, note=34, velocity=111, time=84)\n",
      "Message('note_on', channel=2, note=34, velocity=108, time=8)\n",
      "Message('note_off', channel=8, note=89, velocity=94, time=48)\n",
      "Message('note_off', channel=15, note=58, velocity=120, time=32)\n",
      "Message('note_off', channel=2, note=34, velocity=108, time=8)\n",
      "Message('note_on', channel=9, note=42, velocity=81, time=8)\n",
      "Message('note_on', channel=9, note=38, velocity=104, time=0)\n",
      "Message('note_on', channel=9, note=39, velocity=81, time=0)\n",
      "Message('note_on', channel=2, note=34, velocity=111, time=0)\n",
      "Message('note_on', channel=8, note=92, velocity=95, time=0)\n",
      "Message('note_on', channel=15, note=56, velocity=120, time=0)\n",
      "Message('note_off', channel=9, note=39, velocity=81, time=4)\n",
      "Message('note_off', channel=9, note=38, velocity=104, time=0)\n",
      "Message('note_off', channel=9, note=42, velocity=81, time=0)\n",
      "Message('note_off', channel=15, note=56, velocity=120, time=84)\n",
      "Message('note_off', channel=8, note=92, velocity=95, time=0)\n",
      "Message('note_off', channel=2, note=34, velocity=111, time=0)\n",
      "Message('note_on', channel=2, note=36, velocity=106, time=8)\n",
      "Message('note_on', channel=8, note=90, velocity=97, time=0)\n",
      "Message('note_on', channel=15, note=58, velocity=123, time=0)\n",
      "Message('note_off', channel=15, note=58, velocity=123, time=88)\n",
      "Message('note_off', channel=8, note=90, velocity=97, time=0)\n",
      "Message('note_off', channel=2, note=36, velocity=106, time=0)\n",
      "Message('note_on', channel=9, note=46, velocity=92, time=8)\n",
      "Message('note_on', channel=8, note=89, velocity=98, time=0)\n",
      "Message('note_on', channel=15, note=61, velocity=123, time=0)\n",
      "Message('note_off', channel=9, note=46, velocity=92, time=4)\n",
      "Message('note_off', channel=15, note=61, velocity=123, time=84)\n",
      "Message('note_off', channel=8, note=89, velocity=98, time=0)\n",
      "Message('note_off', channel=3, note=58, velocity=92, time=8)\n",
      "Message('note_off', channel=3, note=65, velocity=88, time=0)\n",
      "Message('note_off', channel=3, note=61, velocity=92, time=0)\n",
      "Message('note_on', channel=2, note=34, velocity=106, time=0)\n",
      "Message('note_on', channel=8, note=85, velocity=98, time=0)\n",
      "Message('note_on', channel=15, note=58, velocity=119, time=0)\n",
      "Message('note_off', channel=15, note=58, velocity=119, time=88)\n",
      "Message('note_off', channel=2, note=34, velocity=106, time=0)\n",
      "Message('note_on', channel=9, note=42, velocity=84, time=8)\n",
      "Message('note_on', channel=9, note=36, velocity=104, time=0)\n",
      "Message('note_on', channel=2, note=27, velocity=108, time=0)\n",
      "Message('note_on', channel=3, note=61, velocity=92, time=0)\n",
      "Message('note_on', channel=3, note=65, velocity=89, time=0)\n",
      "Message('note_on', channel=3, note=58, velocity=87, time=0)\n",
      "Message('note_on', channel=15, note=61, velocity=121, time=0)\n",
      "Message('note_off', channel=9, note=36, velocity=104, time=4)\n",
      "Message('note_off', channel=9, note=42, velocity=84, time=0)\n",
      "Message('note_off', channel=2, note=27, velocity=108, time=84)\n",
      "Message('note_on', channel=9, note=46, velocity=89, time=104)\n",
      "Message('note_on', channel=2, note=27, velocity=107, time=0)\n",
      "Message('note_off', channel=9, note=46, velocity=89, time=4)\n",
      "Message('note_off', channel=2, note=27, velocity=107, time=84)\n",
      "Message('note_on', channel=2, note=27, velocity=108, time=8)\n",
      "Message('note_off', channel=15, note=61, velocity=121, time=64)\n",
      "Message('note_off', channel=2, note=27, velocity=108, time=24)\n",
      "Message('note_on', channel=9, note=42, velocity=85, time=8)\n",
      "Message('note_on', channel=9, note=38, velocity=107, time=0)\n",
      "Message('note_on', channel=9, note=39, velocity=83, time=0)\n",
      "Message('note_on', channel=15, note=63, velocity=122, time=0)\n",
      "Message('note_off', channel=9, note=39, velocity=83, time=4)\n",
      "Message('note_off', channel=9, note=38, velocity=107, time=0)\n",
      "Message('note_off', channel=9, note=42, velocity=85, time=0)\n",
      "Message('note_off', channel=3, note=58, velocity=87, time=92)\n",
      "Message('note_off', channel=3, note=65, velocity=89, time=0)\n",
      "Message('note_off', channel=3, note=61, velocity=92, time=0)\n",
      "Message('note_on', channel=2, note=36, velocity=106, time=0)\n",
      "Message('note_off', channel=8, note=85, velocity=98, time=48)\n",
      "Message('note_off', channel=15, note=63, velocity=122, time=32)\n",
      "Message('note_off', channel=2, note=36, velocity=106, time=8)\n",
      "Message('note_on', channel=9, note=42, velocity=80, time=8)\n",
      "Message('note_on', channel=2, note=34, velocity=110, time=0)\n",
      "Message('note_on', channel=3, note=60, velocity=86, time=0)\n",
      "Message('note_on', channel=3, note=63, velocity=92, time=0)\n",
      "Message('note_on', channel=3, note=56, velocity=89, time=0)\n",
      "Message('note_on', channel=8, note=87, velocity=98, time=0)\n",
      "Message('note_on', channel=15, note=60, velocity=119, time=0)\n",
      "Message('note_off', channel=9, note=42, velocity=80, time=4)\n",
      "Message('note_off', channel=2, note=34, velocity=110, time=84)\n",
      "Message('note_on', channel=9, note=42, velocity=83, time=8)\n",
      "Message('note_off', channel=9, note=42, velocity=83, time=4)\n",
      "Message('note_on', channel=9, note=42, velocity=81, time=92)\n",
      "Message('note_on', channel=9, note=36, velocity=104, time=0)\n",
      "Message('note_on', channel=2, note=32, velocity=110, time=0)\n",
      "Message('note_off', channel=9, note=36, velocity=104, time=4)\n",
      "Message('note_off', channel=9, note=42, velocity=81, time=0)\n",
      "Message('note_off', channel=15, note=60, velocity=119, time=68)\n",
      "Message('note_off', channel=2, note=32, velocity=110, time=16)\n",
      "Message('note_on', channel=15, note=58, velocity=123, time=8)\n",
      "Message('note_off', channel=15, note=58, velocity=123, time=88)\n",
      "Message('note_on', channel=9, note=46, velocity=89, time=8)\n",
      "Message('note_on', channel=2, note=32, velocity=111, time=0)\n",
      "Message('note_on', channel=15, note=56, velocity=124, time=0)\n",
      "Message('note_off', channel=9, note=46, velocity=89, time=4)\n",
      "Message('note_off', channel=15, note=56, velocity=124, time=84)\n",
      "Message('note_off', channel=2, note=32, velocity=111, time=0)\n",
      "Message('note_off', channel=8, note=87, velocity=98, time=56)\n",
      "Message('note_on', channel=9, note=42, velocity=81, time=48)\n",
      "Message('note_on', channel=9, note=38, velocity=108, time=0)\n",
      "Message('note_on', channel=9, note=39, velocity=87, time=0)\n",
      "Message('note_on', channel=8, note=80, velocity=97, time=0)\n",
      "Message('note_on', channel=15, note=56, velocity=124, time=0)\n",
      "Message('note_off', channel=9, note=39, velocity=87, time=4)\n",
      "Message('note_off', channel=9, note=38, velocity=108, time=0)\n",
      "Message('note_off', channel=9, note=42, velocity=81, time=0)\n",
      "Message('note_off', channel=15, note=56, velocity=124, time=172)\n",
      "Message('note_on', channel=9, note=46, velocity=92, time=16)\n",
      "Message('note_on', channel=2, note=32, velocity=107, time=0)\n",
      "Message('note_on', channel=15, note=63, velocity=121, time=0)\n",
      "Message('note_off', channel=9, note=46, velocity=92, time=4)\n",
      "Message('note_off', channel=2, note=32, velocity=107, time=84)\n",
      "Message('note_off', channel=3, note=56, velocity=89, time=8)\n",
      "Message('note_off', channel=3, note=63, velocity=92, time=0)\n",
      "Message('note_off', channel=3, note=60, velocity=86, time=0)\n",
      "Message('note_on', channel=2, note=32, velocity=106, time=0)\n",
      "Message('note_off', channel=2, note=32, velocity=106, time=88)\n",
      "Message('note_on', channel=9, note=42, velocity=80, time=8)\n",
      "Message('note_on', channel=9, note=36, velocity=105, time=0)\n",
      "Message('note_on', channel=2, note=29, velocity=110, time=0)\n",
      "Message('note_on', channel=3, note=63, velocity=87, time=0)\n",
      "Message('note_on', channel=3, note=60, velocity=93, time=0)\n",
      "Message('note_on', channel=3, note=56, velocity=91, time=0)\n",
      "Message('note_on', channel=13, note=63, velocity=89, time=0)\n",
      "Message('note_on', channel=13, note=68, velocity=87, time=0)\n",
      "Message('note_on', channel=13, note=72, velocity=85, time=0)\n",
      "Message('note_off', channel=9, note=36, velocity=105, time=4)\n",
      "Message('note_off', channel=9, note=42, velocity=80, time=0)\n",
      "Message('note_off', channel=2, note=29, velocity=110, time=84)\n",
      "Message('note_on', channel=9, note=46, velocity=88, time=104)\n",
      "Message('note_on', channel=2, note=29, velocity=108, time=0)\n",
      "Message('note_off', channel=9, note=46, velocity=88, time=4)\n",
      "Message('note_off', channel=2, note=29, velocity=108, time=84)\n",
      "Message('note_off', channel=13, note=72, velocity=85, time=0)\n",
      "Message('note_off', channel=13, note=68, velocity=87, time=0)\n",
      "Message('note_off', channel=13, note=63, velocity=89, time=0)\n",
      "Message('note_on', channel=2, note=29, velocity=107, time=8)\n",
      "Message('note_off', channel=15, note=63, velocity=121, time=64)\n",
      "Message('note_off', channel=2, note=29, velocity=107, time=24)\n",
      "Message('note_on', channel=9, note=42, velocity=85, time=8)\n",
      "Message('note_on', channel=9, note=38, velocity=106, time=0)\n",
      "Message('note_on', channel=9, note=39, velocity=80, time=0)\n",
      "Message('note_on', channel=13, note=65, velocity=82, time=0)\n",
      "Message('note_on', channel=13, note=70, velocity=86, time=0)\n",
      "Message('note_on', channel=13, note=73, velocity=86, time=0)\n",
      "Message('note_on', channel=15, note=61, velocity=122, time=0)\n",
      "Message('note_off', channel=9, note=39, velocity=80, time=4)\n",
      "Message('note_off', channel=9, note=38, velocity=106, time=0)\n",
      "Message('note_off', channel=9, note=42, velocity=85, time=0)\n",
      "Message('note_off', channel=3, note=56, velocity=91, time=92)\n",
      "Message('note_off', channel=3, note=60, velocity=93, time=0)\n",
      "Message('note_off', channel=3, note=63, velocity=87, time=0)\n",
      "Message('note_on', channel=2, note=36, velocity=107, time=0)\n",
      "Message('note_off', channel=2, note=36, velocity=107, time=88)\n",
      "Message('note_on', channel=9, note=46, velocity=88, time=8)\n",
      "Message('note_on', channel=2, note=34, velocity=109, time=0)\n",
      "Message('note_on', channel=3, note=61, velocity=93, time=0)\n",
      "Message('note_on', channel=3, note=65, velocity=90, time=0)\n",
      "Message('note_on', channel=3, note=58, velocity=87, time=0)\n",
      "Message('note_off', channel=9, note=46, velocity=88, time=4)\n",
      "Message('note_off', channel=2, note=34, velocity=109, time=84)\n",
      "Message('note_on', channel=9, note=42, velocity=81, time=104)\n",
      "Message('note_on', channel=9, note=36, velocity=102, time=0)\n",
      "Message('note_off', channel=9, note=36, velocity=102, time=4)\n",
      "Message('note_off', channel=9, note=42, velocity=81, time=0)\n",
      "Message('note_off', channel=8, note=80, velocity=97, time=140)\n",
      "Message('note_on', channel=9, note=46, velocity=90, time=48)\n",
      "Message('note_on', channel=2, note=32, velocity=110, time=0)\n",
      "Message('note_on', channel=7, note=68, velocity=82, time=0)\n",
      "Message('note_on', channel=7, note=80, velocity=108, time=0)\n",
      "Message('note_on', channel=7, note=56, velocity=82, time=0)\n",
      "Message('note_off', channel=9, note=46, velocity=90, time=4)\n",
      "Message('note_off', channel=7, note=56, velocity=82, time=60)\n",
      "Message('note_off', channel=7, note=80, velocity=108, time=0)\n",
      "Message('note_off', channel=7, note=68, velocity=82, time=0)\n",
      "Message('note_off', channel=15, note=61, velocity=122, time=0)\n",
      "Message('note_off', channel=2, note=32, velocity=110, time=24)\n",
      "Message('note_on', channel=7, note=68, velocity=83, time=8)\n",
      "Message('note_on', channel=7, note=80, velocity=107, time=0)\n",
      "Message('note_on', channel=7, note=56, velocity=82, time=0)\n",
      "Message('note_off', channel=7, note=56, velocity=82, time=64)\n",
      "Message('note_off', channel=7, note=80, velocity=107, time=0)\n",
      "Message('note_off', channel=7, note=68, velocity=83, time=0)\n",
      "Message('note_on', channel=9, note=42, velocity=81, time=32)\n",
      "Message('note_on', channel=9, note=38, velocity=104, time=0)\n",
      "Message('note_on', channel=9, note=39, velocity=80, time=0)\n",
      "Message('note_on', channel=2, note=32, velocity=106, time=0)\n",
      "Message('note_on', channel=8, note=92, velocity=99, time=0)\n",
      "Message('note_on', channel=15, note=56, velocity=122, time=0)\n",
      "Message('note_off', channel=9, note=39, velocity=80, time=4)\n",
      "Message('note_off', channel=9, note=38, velocity=104, time=0)\n",
      "Message('note_off', channel=9, note=42, velocity=81, time=0)\n",
      "Message('note_off', channel=15, note=56, velocity=122, time=84)\n",
      "Message('note_off', channel=8, note=92, velocity=99, time=0)\n",
      "Message('note_off', channel=2, note=32, velocity=106, time=0)\n",
      "Message('note_off', channel=13, note=73, velocity=86, time=0)\n",
      "Message('note_off', channel=13, note=70, velocity=86, time=0)\n",
      "Message('note_off', channel=13, note=65, velocity=82, time=0)\n",
      "Message('note_on', channel=2, note=32, velocity=111, time=8)\n",
      "Message('note_on', channel=8, note=90, velocity=96, time=0)\n",
      "Message('note_on', channel=15, note=58, velocity=121, time=0)\n",
      "Message('note_off', channel=15, note=58, velocity=121, time=88)\n",
      "Message('note_off', channel=8, note=90, velocity=96, time=0)\n",
      "Message('note_off', channel=2, note=32, velocity=111, time=0)\n",
      "Message('note_on', channel=9, note=46, velocity=88, time=8)\n",
      "Message('note_on', channel=8, note=89, velocity=97, time=0)\n",
      "Message('note_on', channel=15, note=61, velocity=123, time=0)\n",
      "Message('note_off', channel=9, note=46, velocity=88, time=4)\n",
      "Message('note_off', channel=15, note=61, velocity=123, time=84)\n",
      "Message('note_off', channel=8, note=89, velocity=97, time=0)\n",
      "Message('note_off', channel=3, note=58, velocity=87, time=8)\n",
      "Message('note_off', channel=3, note=65, velocity=90, time=0)\n",
      "Message('note_off', channel=3, note=61, velocity=93, time=0)\n",
      "Message('note_on', channel=2, note=37, velocity=108, time=0)\n",
      "Message('note_on', channel=8, note=85, velocity=98, time=0)\n",
      "Message('note_on', channel=15, note=58, velocity=120, time=0)\n",
      "Message('note_off', channel=15, note=58, velocity=120, time=88)\n",
      "Message('note_off', channel=2, note=37, velocity=108, time=0)\n",
      "Message('note_on', channel=9, note=42, velocity=82, time=8)\n",
      "Message('note_on', channel=9, note=36, velocity=101, time=0)\n",
      "Message('note_on', channel=2, note=27, velocity=108, time=0)\n",
      "Message('note_on', channel=3, note=61, velocity=87, time=0)\n",
      "Message('note_on', channel=3, note=65, velocity=90, time=0)\n",
      "Message('note_on', channel=3, note=58, velocity=93, time=0)\n",
      "Message('note_on', channel=13, note=63, velocity=86, time=0)\n",
      "Message('note_on', channel=13, note=73, velocity=85, time=0)\n",
      "Message('note_on', channel=13, note=68, velocity=89, time=0)\n",
      "Message('note_on', channel=15, note=65, velocity=119, time=0)\n",
      "Message('note_off', channel=9, note=36, velocity=101, time=4)\n",
      "Message('note_off', channel=9, note=42, velocity=82, time=0)\n",
      "Message('note_off', channel=2, note=27, velocity=108, time=84)\n",
      "Message('note_on', channel=9, note=46, velocity=92, time=104)\n",
      "Message('note_on', channel=2, note=27, velocity=111, time=0)\n",
      "Message('note_off', channel=9, note=46, velocity=92, time=4)\n",
      "Message('note_off', channel=15, note=65, velocity=119, time=68)\n",
      "Message('note_off', channel=2, note=27, velocity=111, time=16)\n",
      "Message('note_off', channel=13, note=68, velocity=89, time=0)\n",
      "Message('note_off', channel=13, note=73, velocity=85, time=0)\n",
      "Message('note_off', channel=13, note=63, velocity=86, time=0)\n",
      "Message('note_on', channel=2, note=27, velocity=106, time=8)\n",
      "Message('note_off', channel=2, note=27, velocity=106, time=88)\n",
      "Message('note_on', channel=9, note=42, velocity=80, time=8)\n",
      "Message('note_on', channel=9, note=38, velocity=108, time=0)\n",
      "Message('note_on', channel=9, note=39, velocity=81, time=0)\n",
      "Message('note_on', channel=13, note=63, velocity=84, time=0)\n",
      "Message('note_on', channel=13, note=73, velocity=84, time=0)\n",
      "Message('note_on', channel=13, note=68, velocity=83, time=0)\n",
      "Message('note_on', channel=15, note=65, velocity=120, time=0)\n",
      "Message('note_off', channel=9, note=39, velocity=81, time=4)\n",
      "Message('note_off', channel=9, note=38, velocity=108, time=0)\n",
      "Message('note_off', channel=9, note=42, velocity=80, time=0)\n",
      "Message('note_off', channel=3, note=58, velocity=93, time=92)\n",
      "Message('note_off', channel=3, note=65, velocity=90, time=0)\n",
      "Message('note_off', channel=3, note=61, velocity=87, time=0)\n",
      "Message('note_on', channel=2, note=36, velocity=108, time=0)\n",
      "Message('note_off', channel=8, note=85, velocity=98, time=48)\n",
      "Message('note_off', channel=15, note=65, velocity=120, time=32)\n",
      "Message('note_off', channel=2, note=36, velocity=108, time=8)\n",
      "Message('note_off', channel=13, note=68, velocity=83, time=0)\n",
      "Message('note_off', channel=13, note=73, velocity=84, time=0)\n",
      "Message('note_off', channel=13, note=63, velocity=84, time=0)\n",
      "Message('note_on', channel=9, note=42, velocity=80, time=8)\n",
      "Message('note_on', channel=2, note=34, velocity=106, time=0)\n",
      "Message('note_on', channel=3, note=60, velocity=92, time=0)\n",
      "Message('note_on', channel=3, note=63, velocity=88, time=0)\n",
      "Message('note_on', channel=3, note=56, velocity=86, time=0)\n",
      "Message('note_on', channel=8, note=87, velocity=96, time=0)\n",
      "Message('note_on', channel=13, note=68, velocity=89, time=0)\n",
      "Message('note_on', channel=13, note=63, velocity=84, time=0)\n",
      "Message('note_on', channel=13, note=72, velocity=86, time=0)\n",
      "Message('note_on', channel=15, note=63, velocity=121, time=0)\n",
      "Message('note_off', channel=9, note=42, velocity=80, time=4)\n",
      "Message('note_off', channel=2, note=34, velocity=106, time=84)\n",
      "Message('note_on', channel=9, note=42, velocity=85, time=8)\n",
      "Message('note_off', channel=9, note=42, velocity=85, time=4)\n",
      "Message('note_on', channel=9, note=42, velocity=85, time=92)\n",
      "Message('note_on', channel=9, note=36, velocity=105, time=0)\n",
      "Message('note_on', channel=2, note=32, velocity=109, time=0)\n",
      "Message('note_off', channel=9, note=36, velocity=105, time=4)\n",
      "Message('note_off', channel=9, note=42, velocity=85, time=0)\n",
      "Message('note_off', channel=2, note=32, velocity=109, time=84)\n",
      "Message('note_on', channel=9, note=46, velocity=88, time=104)\n",
      "Message('note_on', channel=2, note=32, velocity=109, time=0)\n",
      "Message('note_off', channel=9, note=46, velocity=88, time=4)\n",
      "Message('note_off', channel=2, note=32, velocity=109, time=84)\n",
      "Message('note_off', channel=8, note=87, velocity=96, time=56)\n",
      "Message('note_off', channel=15, note=63, velocity=121, time=16)\n",
      "Message('note_off', channel=13, note=72, velocity=86, time=24)\n",
      "Message('note_off', channel=13, note=63, velocity=84, time=0)\n",
      "Message('note_off', channel=13, note=68, velocity=89, time=0)\n",
      "Message('note_on', channel=9, note=42, velocity=83, time=8)\n",
      "Message('note_on', channel=9, note=38, velocity=103, time=0)\n",
      "Message('note_on', channel=9, note=39, velocity=87, time=0)\n",
      "Message('note_on', channel=8, note=80, velocity=95, time=0)\n",
      "Message('note_on', channel=15, note=56, velocity=120, time=0)\n",
      "Message('note_off', channel=9, note=39, velocity=87, time=4)\n",
      "Message('note_off', channel=9, note=38, velocity=103, time=0)\n",
      "Message('note_off', channel=9, note=42, velocity=83, time=0)\n",
      "Message('note_off', channel=15, note=56, velocity=120, time=84)\n",
      "Message('note_on', channel=15, note=58, velocity=123, time=8)\n",
      "Message('note_off', channel=15, note=58, velocity=123, time=88)\n",
      "Message('note_on', channel=9, note=46, velocity=87, time=8)\n",
      "Message('note_on', channel=2, note=29, velocity=108, time=0)\n",
      "Message('note_on', channel=15, note=61, velocity=121, time=0)\n",
      "Message('note_off', channel=9, note=46, velocity=87, time=4)\n",
      "Message('note_off', channel=15, note=61, velocity=121, time=84)\n",
      "Message('note_off', channel=2, note=29, velocity=108, time=0)\n",
      "Message('note_off', channel=3, note=56, velocity=86, time=8)\n",
      "Message('note_off', channel=3, note=63, velocity=88, time=0)\n",
      "Message('note_off', channel=3, note=60, velocity=92, time=0)\n",
      "Message('note_on', channel=2, note=32, velocity=111, time=0)\n",
      "Message('note_on', channel=15, note=58, velocity=120, time=0)\n",
      "Message('note_off', channel=8, note=80, velocity=95, time=64)\n",
      "Message('note_off', channel=15, note=58, velocity=120, time=24)\n",
      "Message('note_off', channel=2, note=32, velocity=111, time=0)\n",
      "Message('note_on', channel=9, note=42, velocity=83, time=8)\n",
      "Message('note_on', channel=9, note=36, velocity=102, time=0)\n",
      "Message('note_on', channel=2, note=29, velocity=111, time=0)\n",
      "Message('note_on', channel=3, note=60, velocity=88, time=0)\n",
      "Message('note_on', channel=3, note=63, velocity=89, time=0)\n",
      "Message('note_on', channel=3, note=56, velocity=92, time=0)\n",
      "Message('note_on', channel=8, note=87, velocity=97, time=0)\n",
      "Message('note_on', channel=13, note=68, velocity=88, time=0)\n",
      "Message('note_on', channel=13, note=75, velocity=89, time=0)\n",
      "Message('note_on', channel=13, note=72, velocity=85, time=0)\n",
      "Message('note_on', channel=15, note=68, velocity=121, time=0)\n",
      "Message('note_off', channel=9, note=36, velocity=102, time=4)\n",
      "Message('note_off', channel=9, note=42, velocity=83, time=0)\n",
      "Message('note_off', channel=2, note=29, velocity=111, time=84)\n",
      "Message('note_on', channel=9, note=46, velocity=87, time=104)\n",
      "Message('note_on', channel=2, note=29, velocity=109, time=0)\n",
      "Message('note_off', channel=9, note=46, velocity=87, time=4)\n",
      "Message('note_off', channel=2, note=29, velocity=109, time=84)\n",
      "Message('note_off', channel=13, note=72, velocity=85, time=0)\n",
      "Message('note_off', channel=13, note=75, velocity=89, time=0)\n",
      "Message('note_off', channel=13, note=68, velocity=88, time=0)\n",
      "Message('note_on', channel=2, note=29, velocity=106, time=8)\n",
      "Message('note_off', channel=15, note=68, velocity=121, time=64)\n",
      "Message('note_off', channel=2, note=29, velocity=106, time=24)\n",
      "Message('note_on', channel=9, note=42, velocity=82, time=8)\n",
      "Message('note_on', channel=9, note=38, velocity=103, time=0)\n",
      "Message('note_on', channel=9, note=39, velocity=87, time=0)\n",
      "Message('note_on', channel=13, note=68, velocity=87, time=0)\n",
      "Message('note_on', channel=13, note=75, velocity=83, time=0)\n",
      "Message('note_on', channel=13, note=72, velocity=85, time=0)\n",
      "Message('note_on', channel=15, note=60, velocity=122, time=0)\n",
      "Message('note_off', channel=9, note=39, velocity=87, time=4)\n",
      "Message('note_off', channel=9, note=38, velocity=103, time=0)\n",
      "Message('note_off', channel=9, note=42, velocity=82, time=0)\n",
      "Message('note_off', channel=3, note=56, velocity=92, time=92)\n",
      "Message('note_off', channel=3, note=63, velocity=89, time=0)\n",
      "Message('note_off', channel=3, note=60, velocity=88, time=0)\n",
      "Message('note_on', channel=2, note=36, velocity=108, time=0)\n",
      "Message('note_off', channel=8, note=87, velocity=97, time=48)\n",
      "Message('note_off', channel=15, note=60, velocity=122, time=32)\n",
      "Message('note_off', channel=2, note=36, velocity=108, time=8)\n",
      "Message('note_off', channel=13, note=72, velocity=85, time=0)\n",
      "Message('note_off', channel=13, note=75, velocity=83, time=0)\n",
      "Message('note_off', channel=13, note=68, velocity=87, time=0)\n",
      "Message('note_on', channel=9, note=46, velocity=88, time=8)\n",
      "Message('note_on', channel=2, note=34, velocity=108, time=0)\n",
      "Message('note_on', channel=3, note=61, velocity=90, time=0)\n",
      "Message('note_on', channel=3, note=65, velocity=90, time=0)\n",
      "Message('note_on', channel=3, note=58, velocity=92, time=0)\n",
      "Message('note_on', channel=8, note=89, velocity=98, time=0)\n",
      "Message('note_on', channel=13, note=65, velocity=87, time=0)\n",
      "Message('note_on', channel=13, note=70, velocity=87, time=0)\n",
      "Message('note_on', channel=13, note=73, velocity=85, time=0)\n",
      "Message('note_on', channel=15, note=61, velocity=123, time=0)\n",
      "Message('note_off', channel=9, note=46, velocity=88, time=4)\n",
      "Message('note_off', channel=2, note=34, velocity=108, time=84)\n",
      "Message('note_on', channel=9, note=42, velocity=83, time=104)\n",
      "Message('note_on', channel=9, note=36, velocity=109, time=0)\n",
      "Message('note_off', channel=9, note=36, velocity=109, time=4)\n",
      "Message('note_off', channel=9, note=42, velocity=83, time=0)\n",
      "Message('note_off', channel=15, note=61, velocity=123, time=68)\n",
      "Message('note_off', channel=13, note=73, velocity=85, time=16)\n",
      "Message('note_off', channel=13, note=70, velocity=87, time=0)\n",
      "Message('note_off', channel=13, note=65, velocity=87, time=0)\n",
      "Message('note_on', channel=13, note=63, velocity=83, time=8)\n",
      "Message('note_on', channel=13, note=72, velocity=85, time=0)\n",
      "Message('note_on', channel=13, note=68, velocity=82, time=0)\n",
      "Message('note_on', channel=15, note=60, velocity=122, time=0)\n",
      "Message('note_off', channel=15, note=60, velocity=122, time=88)\n",
      "Message('note_off', channel=13, note=68, velocity=82, time=0)\n",
      "Message('note_off', channel=13, note=72, velocity=85, time=0)\n",
      "Message('note_off', channel=13, note=63, velocity=83, time=0)\n",
      "Message('note_on', channel=9, note=46, velocity=88, time=8)\n",
      "Message('note_on', channel=2, note=34, velocity=107, time=0)\n",
      "Message('note_on', channel=13, note=61, velocity=89, time=0)\n",
      "Message('note_on', channel=13, note=70, velocity=87, time=0)\n",
      "Message('note_on', channel=13, note=65, velocity=86, time=0)\n",
      "Message('note_on', channel=15, note=58, velocity=122, time=0)\n",
      "Message('note_off', channel=9, note=46, velocity=88, time=4)\n",
      "Message('note_off', channel=2, note=34, velocity=107, time=84)\n",
      "Message('note_on', channel=2, note=34, velocity=110, time=8)\n",
      "Message('note_off', channel=8, note=89, velocity=98, time=48)\n",
      "Message('note_off', channel=15, note=58, velocity=122, time=32)\n",
      "Message('note_off', channel=2, note=34, velocity=110, time=8)\n",
      "Message('note_off', channel=13, note=65, velocity=86, time=0)\n",
      "Message('note_off', channel=13, note=70, velocity=87, time=0)\n",
      "Message('note_off', channel=13, note=61, velocity=89, time=0)\n",
      "Message('note_on', channel=9, note=42, velocity=82, time=8)\n",
      "Message('note_on', channel=9, note=38, velocity=109, time=0)\n",
      "Message('note_on', channel=9, note=39, velocity=85, time=0)\n",
      "Message('note_on', channel=2, note=34, velocity=106, time=0)\n",
      "Message('note_on', channel=8, note=92, velocity=94, time=0)\n",
      "Message('note_on', channel=15, note=56, velocity=123, time=0)\n",
      "Message('note_off', channel=9, note=39, velocity=85, time=4)\n",
      "Message('note_off', channel=9, note=38, velocity=109, time=0)\n",
      "Message('note_off', channel=9, note=42, velocity=82, time=0)\n",
      "Message('note_off', channel=15, note=56, velocity=123, time=84)\n",
      "Message('note_off', channel=8, note=92, velocity=94, time=0)\n",
      "Message('note_off', channel=2, note=34, velocity=106, time=0)\n",
      "Message('note_on', channel=2, note=36, velocity=108, time=8)\n",
      "Message('note_on', channel=8, note=90, velocity=98, time=0)\n",
      "Message('note_on', channel=15, note=58, velocity=121, time=0)\n",
      "Message('note_off', channel=15, note=58, velocity=121, time=88)\n",
      "Message('note_off', channel=8, note=90, velocity=98, time=0)\n",
      "Message('note_off', channel=2, note=36, velocity=108, time=0)\n",
      "Message('note_on', channel=9, note=46, velocity=91, time=8)\n",
      "Message('note_on', channel=8, note=89, velocity=99, time=0)\n",
      "Message('note_on', channel=15, note=61, velocity=121, time=0)\n",
      "Message('note_off', channel=9, note=46, velocity=91, time=4)\n",
      "Message('note_off', channel=15, note=61, velocity=121, time=84)\n",
      "Message('note_off', channel=8, note=89, velocity=99, time=0)\n",
      "Message('note_off', channel=3, note=58, velocity=92, time=8)\n",
      "Message('note_off', channel=3, note=65, velocity=90, time=0)\n",
      "Message('note_off', channel=3, note=61, velocity=90, time=0)\n",
      "Message('note_on', channel=2, note=34, velocity=106, time=0)\n",
      "Message('note_on', channel=8, note=85, velocity=95, time=0)\n",
      "Message('note_on', channel=15, note=58, velocity=124, time=0)\n",
      "Message('note_off', channel=15, note=58, velocity=124, time=88)\n",
      "Message('note_off', channel=2, note=34, velocity=106, time=0)\n",
      "Message('note_on', channel=9, note=42, velocity=81, time=8)\n",
      "Message('note_on', channel=9, note=36, velocity=101, time=0)\n",
      "Message('note_on', channel=2, note=27, velocity=108, time=0)\n",
      "Message('note_on', channel=3, note=61, velocity=90, time=0)\n",
      "Message('note_on', channel=3, note=65, velocity=90, time=0)\n",
      "Message('note_on', channel=3, note=58, velocity=87, time=0)\n",
      "Message('note_on', channel=15, note=61, velocity=120, time=0)\n",
      "Message('note_off', channel=9, note=36, velocity=101, time=4)\n",
      "Message('note_off', channel=9, note=42, velocity=81, time=0)\n",
      "Message('note_off', channel=2, note=27, velocity=108, time=84)\n",
      "Message('note_on', channel=9, note=46, velocity=90, time=104)\n",
      "Message('note_on', channel=2, note=27, velocity=107, time=0)\n",
      "Message('note_off', channel=9, note=46, velocity=90, time=4)\n",
      "Message('note_off', channel=2, note=27, velocity=107, time=84)\n",
      "Message('note_on', channel=2, note=27, velocity=108, time=8)\n",
      "Message('note_off', channel=15, note=61, velocity=120, time=64)\n",
      "Message('note_off', channel=2, note=27, velocity=108, time=24)\n",
      "Message('note_on', channel=9, note=42, velocity=84, time=8)\n",
      "Message('note_on', channel=9, note=38, velocity=106, time=0)\n",
      "Message('note_on', channel=9, note=39, velocity=85, time=0)\n",
      "Message('note_on', channel=15, note=63, velocity=120, time=0)\n",
      "Message('note_off', channel=9, note=39, velocity=85, time=4)\n",
      "Message('note_off', channel=9, note=38, velocity=106, time=0)\n",
      "Message('note_off', channel=9, note=42, velocity=84, time=0)\n",
      "Message('note_off', channel=3, note=58, velocity=87, time=92)\n",
      "Message('note_off', channel=3, note=65, velocity=90, time=0)\n",
      "Message('note_off', channel=3, note=61, velocity=90, time=0)\n",
      "Message('note_on', channel=2, note=36, velocity=109, time=0)\n",
      "Message('note_off', channel=8, note=85, velocity=95, time=48)\n",
      "Message('note_off', channel=15, note=63, velocity=120, time=32)\n",
      "Message('note_off', channel=2, note=36, velocity=109, time=8)\n",
      "Message('note_on', channel=9, note=42, velocity=83, time=8)\n",
      "Message('note_on', channel=2, note=34, velocity=107, time=0)\n",
      "Message('note_on', channel=3, note=63, velocity=92, time=0)\n",
      "Message('note_on', channel=3, note=60, velocity=87, time=0)\n",
      "Message('note_on', channel=3, note=56, velocity=90, time=0)\n",
      "Message('note_on', channel=8, note=87, velocity=98, time=0)\n",
      "Message('note_on', channel=15, note=60, velocity=121, time=0)\n",
      "Message('note_off', channel=9, note=42, velocity=83, time=4)\n",
      "Message('note_off', channel=2, note=34, velocity=107, time=84)\n",
      "Message('note_on', channel=9, note=42, velocity=85, time=8)\n",
      "Message('note_off', channel=9, note=42, velocity=85, time=4)\n",
      "Message('note_on', channel=9, note=42, velocity=84, time=92)\n",
      "Message('note_on', channel=9, note=36, velocity=104, time=0)\n",
      "Message('note_on', channel=2, note=32, velocity=111, time=0)\n",
      "Message('note_off', channel=9, note=36, velocity=104, time=4)\n",
      "Message('note_off', channel=9, note=42, velocity=84, time=0)\n",
      "Message('note_off', channel=15, note=60, velocity=121, time=68)\n",
      "Message('note_off', channel=2, note=32, velocity=111, time=16)\n",
      "Message('note_on', channel=15, note=58, velocity=124, time=8)\n",
      "Message('note_off', channel=15, note=58, velocity=124, time=88)\n",
      "Message('note_on', channel=9, note=46, velocity=89, time=8)\n",
      "Message('note_on', channel=2, note=32, velocity=109, time=0)\n",
      "Message('note_on', channel=15, note=56, velocity=123, time=0)\n",
      "Message('note_off', channel=9, note=46, velocity=89, time=4)\n",
      "Message('note_off', channel=2, note=32, velocity=109, time=84)\n",
      "Message('note_off', channel=8, note=87, velocity=98, time=56)\n",
      "Message('note_on', channel=9, note=42, velocity=84, time=48)\n",
      "Message('note_on', channel=9, note=38, velocity=101, time=0)\n",
      "Message('note_on', channel=9, note=39, velocity=83, time=0)\n",
      "Message('note_on', channel=8, note=80, velocity=97, time=0)\n",
      "Message('note_off', channel=9, note=39, velocity=83, time=4)\n",
      "Message('note_off', channel=9, note=38, velocity=101, time=0)\n",
      "Message('note_off', channel=9, note=42, velocity=84, time=0)\n",
      "Message('note_off', channel=15, note=56, velocity=123, time=68)\n",
      "Message('note_on', channel=9, note=46, velocity=90, time=120)\n",
      "Message('note_on', channel=2, note=32, velocity=108, time=0)\n",
      "Message('note_on', channel=15, note=56, velocity=120, time=0)\n",
      "Message('note_off', channel=9, note=46, velocity=90, time=4)\n",
      "Message('note_off', channel=2, note=32, velocity=108, time=84)\n",
      "Message('note_off', channel=3, note=56, velocity=90, time=8)\n",
      "Message('note_off', channel=3, note=60, velocity=87, time=0)\n",
      "Message('note_off', channel=3, note=63, velocity=92, time=0)\n",
      "Message('note_on', channel=2, note=32, velocity=107, time=0)\n",
      "Message('note_off', channel=15, note=56, velocity=120, time=80)\n",
      "Message('note_off', channel=2, note=32, velocity=107, time=8)\n",
      "Message('note_on', channel=9, note=42, velocity=84, time=8)\n",
      "Message('note_on', channel=9, note=36, velocity=106, time=0)\n",
      "Message('note_on', channel=2, note=29, velocity=111, time=0)\n",
      "Message('note_on', channel=3, note=63, velocity=89, time=0)\n",
      "Message('note_on', channel=3, note=60, velocity=93, time=0)\n",
      "Message('note_on', channel=3, note=56, velocity=90, time=0)\n",
      "Message('note_on', channel=13, note=63, velocity=83, time=0)\n",
      "Message('note_on', channel=13, note=68, velocity=82, time=0)\n",
      "Message('note_on', channel=13, note=72, velocity=84, time=0)\n",
      "Message('note_on', channel=15, note=63, velocity=123, time=0)\n",
      "Message('note_off', channel=9, note=36, velocity=106, time=4)\n",
      "Message('note_off', channel=9, note=42, velocity=84, time=0)\n",
      "Message('note_off', channel=2, note=29, velocity=111, time=84)\n",
      "Message('note_off', channel=15, note=63, velocity=123, time=88)\n",
      "Message('note_off', channel=3, note=56, velocity=90, time=16)\n",
      "Message('note_off', channel=3, note=60, velocity=93, time=0)\n",
      "Message('note_off', channel=3, note=63, velocity=89, time=0)\n",
      "Message('note_on', channel=9, note=46, velocity=92, time=0)\n",
      "Message('note_on', channel=9, note=45, velocity=85, time=0)\n",
      "Message('note_on', channel=2, note=29, velocity=110, time=0)\n",
      "Message('note_on', channel=15, note=61, velocity=119, time=0)\n",
      "Message('note_off', channel=9, note=45, velocity=85, time=4)\n",
      "Message('note_off', channel=9, note=46, velocity=92, time=0)\n",
      "Message('note_off', channel=15, note=61, velocity=119, time=84)\n",
      "Message('note_off', channel=2, note=29, velocity=110, time=0)\n",
      "Message('note_off', channel=13, note=72, velocity=84, time=0)\n",
      "Message('note_off', channel=13, note=68, velocity=82, time=0)\n",
      "Message('note_off', channel=13, note=63, velocity=83, time=0)\n",
      "Message('note_on', channel=2, note=29, velocity=106, time=8)\n",
      "Message('note_off', channel=2, note=29, velocity=106, time=88)\n",
      "Message('note_on', channel=9, note=42, velocity=82, time=8)\n",
      "Message('note_on', channel=9, note=38, velocity=102, time=0)\n",
      "Message('note_on', channel=9, note=39, velocity=84, time=0)\n",
      "Message('note_on', channel=3, note=61, velocity=93, time=0)\n",
      "Message('note_on', channel=3, note=65, velocity=91, time=0)\n",
      "Message('note_on', channel=3, note=58, velocity=92, time=0)\n",
      "Message('note_on', channel=13, note=68, velocity=84, time=0)\n",
      "Message('note_on', channel=13, note=65, velocity=89, time=0)\n",
      "Message('note_on', channel=13, note=73, velocity=85, time=0)\n",
      "Message('note_on', channel=15, note=61, velocity=119, time=0)\n",
      "Message('note_off', channel=9, note=39, velocity=84, time=4)\n",
      "Message('note_off', channel=9, note=38, velocity=102, time=0)\n",
      "Message('note_off', channel=9, note=42, velocity=82, time=0)\n",
      "Message('note_on', channel=2, note=36, velocity=108, time=92)\n",
      "Message('note_off', channel=2, note=36, velocity=108, time=88)\n",
      "Message('note_on', channel=9, note=46, velocity=89, time=8)\n",
      "Message('note_on', channel=2, note=34, velocity=110, time=0)\n",
      "Message('note_off', channel=9, note=46, velocity=89, time=4)\n",
      "Message('note_off', channel=2, note=34, velocity=110, time=84)\n"
     ]
    },
    {
     "name": "stdout",
     "output_type": "stream",
     "text": [
      "Message('note_on', channel=9, note=42, velocity=81, time=104)\n",
      "Message('note_on', channel=9, note=36, velocity=109, time=0)\n",
      "Message('note_on', channel=9, note=39, velocity=81, time=0)\n",
      "Message('note_off', channel=9, note=39, velocity=81, time=4)\n",
      "Message('note_off', channel=9, note=36, velocity=109, time=0)\n",
      "Message('note_off', channel=9, note=42, velocity=81, time=0)\n",
      "Message('note_on', channel=9, note=39, velocity=80, time=92)\n",
      "Message('note_off', channel=9, note=39, velocity=80, time=4)\n",
      "Message('note_on', channel=9, note=46, velocity=92, time=92)\n",
      "Message('note_on', channel=2, note=32, velocity=110, time=0)\n",
      "Message('note_on', channel=7, note=73, velocity=82, time=0)\n",
      "Message('note_on', channel=7, note=85, velocity=109, time=0)\n",
      "Message('note_off', channel=9, note=46, velocity=92, time=4)\n",
      "Message('note_off', channel=7, note=85, velocity=109, time=60)\n",
      "Message('note_off', channel=7, note=73, velocity=82, time=0)\n",
      "Message('note_off', channel=2, note=32, velocity=110, time=24)\n",
      "Message('note_on', channel=7, note=73, velocity=81, time=8)\n",
      "Message('note_on', channel=7, note=85, velocity=110, time=0)\n",
      "Message('note_off', channel=7, note=85, velocity=110, time=64)\n",
      "Message('note_off', channel=7, note=73, velocity=81, time=0)\n",
      "Message('note_off', channel=13, note=73, velocity=85, time=24)\n",
      "Message('note_off', channel=13, note=65, velocity=89, time=0)\n",
      "Message('note_off', channel=13, note=68, velocity=84, time=0)\n",
      "Message('note_on', channel=9, note=42, velocity=85, time=8)\n",
      "Message('note_on', channel=9, note=38, velocity=108, time=0)\n",
      "Message('note_on', channel=9, note=39, velocity=86, time=0)\n",
      "Message('note_on', channel=2, note=32, velocity=106, time=0)\n",
      "Message('note_on', channel=7, note=73, velocity=85, time=0)\n",
      "Message('note_on', channel=7, note=85, velocity=107, time=0)\n",
      "Message('note_off', channel=9, note=39, velocity=86, time=4)\n",
      "Message('note_off', channel=9, note=38, velocity=108, time=0)\n",
      "Message('note_off', channel=9, note=42, velocity=85, time=0)\n",
      "Message('note_off', channel=8, note=80, velocity=97, time=44)\n",
      "Message('note_off', channel=7, note=85, velocity=107, time=16)\n",
      "Message('note_off', channel=7, note=73, velocity=85, time=0)\n",
      "Message('note_off', channel=15, note=61, velocity=119, time=0)\n",
      "Message('note_off', channel=2, note=32, velocity=106, time=24)\n",
      "Message('note_on', channel=9, note=39, velocity=86, time=8)\n",
      "Message('note_on', channel=2, note=32, velocity=107, time=0)\n",
      "Message('note_on', channel=7, note=73, velocity=82, time=0)\n",
      "Message('note_on', channel=7, note=85, velocity=109, time=0)\n",
      "Message('note_off', channel=9, note=39, velocity=86, time=4)\n",
      "Message('note_off', channel=7, note=85, velocity=109, time=60)\n",
      "Message('note_off', channel=7, note=73, velocity=82, time=0)\n",
      "Message('note_off', channel=2, note=32, velocity=107, time=24)\n",
      "Message('note_on', channel=9, note=46, velocity=89, time=8)\n",
      "Message('note_on', channel=9, note=45, velocity=85, time=0)\n",
      "Message('note_off', channel=9, note=45, velocity=85, time=4)\n",
      "Message('note_off', channel=9, note=46, velocity=89, time=0)\n",
      "Message('note_on', channel=9, note=45, velocity=81, time=92)\n",
      "Message('note_on', channel=2, note=37, velocity=106, time=0)\n",
      "Message('note_on', channel=7, note=73, velocity=82, time=0)\n",
      "Message('note_on', channel=7, note=85, velocity=108, time=0)\n",
      "Message('note_off', channel=9, note=45, velocity=81, time=4)\n",
      "Message('note_off', channel=7, note=85, velocity=108, time=60)\n",
      "Message('note_off', channel=7, note=73, velocity=82, time=0)\n",
      "Message('note_off', channel=2, note=37, velocity=106, time=24)\n",
      "Message('note_off', channel=3, note=58, velocity=92, time=8)\n",
      "Message('note_off', channel=3, note=65, velocity=91, time=0)\n",
      "Message('note_off', channel=3, note=61, velocity=93, time=0)\n",
      "Message('note_on', channel=9, note=42, velocity=80, time=0)\n",
      "Message('note_on', channel=9, note=36, velocity=104, time=0)\n",
      "Message('note_on', channel=2, note=39, velocity=110, time=0)\n",
      "Message('note_on', channel=6, note=58, velocity=85, time=0)\n",
      "Message('note_on', channel=6, note=61, velocity=86, time=0)\n",
      "Message('note_on', channel=6, note=65, velocity=87, time=0)\n",
      "Message('note_on', channel=13, note=68, velocity=87, time=0)\n",
      "Message('note_off', channel=9, note=36, velocity=104, time=4)\n",
      "Message('note_off', channel=9, note=42, velocity=80, time=0)\n",
      "Message('note_off', channel=2, note=39, velocity=110, time=84)\n",
      "Message('note_off', channel=6, note=65, velocity=87, time=80)\n",
      "Message('note_off', channel=6, note=61, velocity=86, time=0)\n",
      "Message('note_off', channel=6, note=58, velocity=85, time=0)\n",
      "Message('note_on', channel=9, note=46, velocity=91, time=24)\n",
      "Message('note_on', channel=2, note=37, velocity=106, time=0)\n",
      "Message('note_off', channel=9, note=46, velocity=91, time=4)\n",
      "Message('note_off', channel=2, note=37, velocity=106, time=84)\n",
      "Message('note_on', channel=2, note=39, velocity=106, time=8)\n",
      "Message('note_on', channel=6, note=65, velocity=84, time=0)\n",
      "Message('note_on', channel=6, note=61, velocity=84, time=0)\n",
      "Message('note_on', channel=6, note=58, velocity=88, time=0)\n",
      "Message('note_off', channel=6, note=58, velocity=88, time=48)\n",
      "Message('note_off', channel=6, note=61, velocity=84, time=0)\n",
      "Message('note_off', channel=6, note=65, velocity=84, time=0)\n",
      "Message('note_off', channel=2, note=39, velocity=106, time=40)\n",
      "Message('note_on', channel=9, note=42, velocity=81, time=8)\n",
      "Message('note_on', channel=9, note=38, velocity=106, time=0)\n",
      "Message('note_on', channel=9, note=39, velocity=82, time=0)\n",
      "Message('note_off', channel=9, note=39, velocity=82, time=4)\n",
      "Message('note_off', channel=9, note=38, velocity=106, time=0)\n",
      "Message('note_off', channel=9, note=42, velocity=81, time=0)\n",
      "Message('note_on', channel=2, note=42, velocity=108, time=92)\n",
      "Message('note_off', channel=2, note=42, velocity=108, time=88)\n",
      "Message('note_on', channel=9, note=42, velocity=85, time=8)\n",
      "Message('note_on', channel=2, note=41, velocity=106, time=0)\n",
      "Message('note_on', channel=6, note=58, velocity=84, time=0)\n",
      "Message('note_on', channel=6, note=65, velocity=87, time=0)\n",
      "Message('note_on', channel=6, note=61, velocity=87, time=0)\n",
      "Message('note_off', channel=9, note=42, velocity=85, time=4)\n",
      "Message('note_off', channel=6, note=61, velocity=87, time=44)\n",
      "Message('note_off', channel=6, note=65, velocity=87, time=0)\n",
      "Message('note_off', channel=6, note=58, velocity=84, time=0)\n",
      "Message('note_off', channel=2, note=41, velocity=106, time=40)\n",
      "Message('note_on', channel=9, note=42, velocity=81, time=8)\n",
      "Message('note_off', channel=9, note=42, velocity=81, time=4)\n",
      "Message('note_on', channel=9, note=42, velocity=80, time=92)\n",
      "Message('note_on', channel=9, note=36, velocity=107, time=0)\n",
      "Message('note_on', channel=2, note=37, velocity=106, time=0)\n",
      "Message('note_on', channel=6, note=58, velocity=88, time=0)\n",
      "Message('note_on', channel=6, note=61, velocity=84, time=0)\n",
      "Message('note_on', channel=6, note=65, velocity=88, time=0)\n",
      "Message('note_off', channel=9, note=36, velocity=107, time=4)\n",
      "Message('note_off', channel=9, note=42, velocity=80, time=0)\n",
      "Message('note_on', channel=5, note=41, velocity=79, time=92)\n",
      "Message('note_off', channel=5, note=41, velocity=79, time=40)\n",
      "Message('note_off', channel=6, note=65, velocity=88, time=32)\n",
      "Message('note_off', channel=6, note=61, velocity=84, time=0)\n",
      "Message('note_off', channel=6, note=58, velocity=88, time=0)\n",
      "Message('note_off', channel=2, note=37, velocity=106, time=24)\n",
      "Message('note_on', channel=9, note=46, velocity=88, time=0)\n",
      "Message('note_on', channel=2, note=39, velocity=111, time=0)\n",
      "Message('note_on', channel=5, note=41, velocity=80, time=0)\n",
      "Message('note_off', channel=9, note=46, velocity=88, time=4)\n",
      "Message('note_off', channel=5, note=41, velocity=80, time=36)\n",
      "Message('note_off', channel=2, note=39, velocity=111, time=48)\n",
      "Message('note_on', channel=5, note=41, velocity=81, time=8)\n",
      "Message('note_on', channel=6, note=61, velocity=84, time=0)\n",
      "Message('note_on', channel=6, note=58, velocity=88, time=0)\n",
      "Message('note_on', channel=6, note=65, velocity=86, time=0)\n",
      "Message('note_off', channel=5, note=41, velocity=81, time=40)\n",
      "Message('note_off', channel=6, note=65, velocity=86, time=8)\n",
      "Message('note_off', channel=6, note=58, velocity=88, time=0)\n",
      "Message('note_off', channel=6, note=61, velocity=84, time=0)\n",
      "Message('note_on', channel=9, note=42, velocity=82, time=48)\n",
      "Message('note_on', channel=9, note=38, velocity=108, time=0)\n",
      "Message('note_on', channel=9, note=39, velocity=84, time=0)\n",
      "Message('note_on', channel=5, note=44, velocity=80, time=0)\n",
      "Message('note_off', channel=9, note=39, velocity=84, time=4)\n",
      "Message('note_off', channel=9, note=38, velocity=108, time=0)\n",
      "Message('note_off', channel=9, note=42, velocity=82, time=0)\n",
      "Message('note_off', channel=5, note=44, velocity=80, time=36)\n",
      "Message('note_off', channel=13, note=68, velocity=87, time=48)\n",
      "Message('note_on', channel=5, note=46, velocity=80, time=8)\n",
      "Message('note_on', channel=13, note=66, velocity=89, time=0)\n",
      "Message('note_off', channel=5, note=46, velocity=80, time=40)\n",
      "Message('note_off', channel=13, note=66, velocity=89, time=48)\n",
      "Message('note_on', channel=9, note=46, velocity=87, time=8)\n",
      "Message('note_on', channel=2, note=29, velocity=111, time=0)\n",
      "Message('note_on', channel=6, note=58, velocity=84, time=0)\n",
      "Message('note_on', channel=6, note=61, velocity=84, time=0)\n",
      "Message('note_on', channel=6, note=65, velocity=86, time=0)\n",
      "Message('note_on', channel=13, note=65, velocity=87, time=0)\n",
      "Message('note_off', channel=9, note=46, velocity=87, time=4)\n",
      "Message('note_off', channel=6, note=65, velocity=86, time=44)\n",
      "Message('note_off', channel=6, note=61, velocity=84, time=0)\n",
      "Message('note_off', channel=6, note=58, velocity=84, time=0)\n",
      "Message('note_off', channel=13, note=65, velocity=87, time=40)\n",
      "Message('note_off', channel=2, note=29, velocity=111, time=0)\n",
      "Message('note_on', channel=2, note=32, velocity=107, time=8)\n",
      "Message('note_on', channel=5, note=46, velocity=80, time=0)\n",
      "Message('note_on', channel=13, note=63, velocity=89, time=0)\n",
      "Message('note_off', channel=5, note=46, velocity=80, time=40)\n",
      "Message('note_off', channel=13, note=63, velocity=89, time=48)\n",
      "Message('note_off', channel=2, note=32, velocity=107, time=0)\n",
      "Message('note_on', channel=9, note=42, velocity=84, time=8)\n",
      "Message('note_on', channel=9, note=36, velocity=107, time=0)\n",
      "Message('note_on', channel=2, note=34, velocity=111, time=0)\n",
      "Message('note_on', channel=13, note=65, velocity=89, time=0)\n",
      "Message('note_on', channel=14, note=65, velocity=81, time=0)\n",
      "Message('note_on', channel=14, note=68, velocity=78, time=0)\n",
      "Message('note_on', channel=14, note=73, velocity=79, time=0)\n",
      "Message('note_off', channel=9, note=36, velocity=107, time=4)\n",
      "Message('note_off', channel=9, note=42, velocity=84, time=0)\n",
      "Message('note_off', channel=2, note=34, velocity=111, time=84)\n",
      "Message('note_off', channel=13, note=65, velocity=89, time=96)\n",
      "Message('note_on', channel=9, note=46, velocity=89, time=8)\n",
      "Message('note_on', channel=2, note=32, velocity=106, time=0)\n",
      "Message('note_on', channel=6, note=58, velocity=84, time=0)\n",
      "Message('note_on', channel=6, note=61, velocity=88, time=0)\n",
      "Message('note_on', channel=6, note=65, velocity=85, time=0)\n",
      "Message('note_off', channel=9, note=46, velocity=89, time=4)\n",
      "Message('note_off', channel=6, note=65, velocity=85, time=44)\n",
      "Message('note_off', channel=6, note=61, velocity=88, time=0)\n",
      "Message('note_off', channel=6, note=58, velocity=84, time=0)\n",
      "Message('note_off', channel=14, note=73, velocity=79, time=32)\n",
      "Message('note_off', channel=14, note=68, velocity=78, time=0)\n",
      "Message('note_off', channel=14, note=65, velocity=81, time=0)\n",
      "Message('note_off', channel=2, note=32, velocity=106, time=8)\n",
      "Message('note_on', channel=2, note=34, velocity=109, time=8)\n",
      "Message('note_on', channel=6, note=58, velocity=86, time=0)\n",
      "Message('note_on', channel=6, note=61, velocity=86, time=0)\n",
      "Message('note_on', channel=6, note=65, velocity=86, time=0)\n",
      "Message('note_on', channel=14, note=65, velocity=78, time=0)\n",
      "Message('note_on', channel=14, note=68, velocity=80, time=0)\n",
      "Message('note_on', channel=14, note=73, velocity=76, time=0)\n",
      "Message('note_off', channel=6, note=65, velocity=86, time=48)\n",
      "Message('note_off', channel=6, note=61, velocity=86, time=0)\n",
      "Message('note_off', channel=6, note=58, velocity=86, time=0)\n",
      "Message('note_off', channel=2, note=34, velocity=109, time=40)\n",
      "Message('note_on', channel=9, note=42, velocity=85, time=8)\n",
      "Message('note_on', channel=9, note=38, velocity=101, time=0)\n",
      "Message('note_on', channel=9, note=39, velocity=86, time=0)\n",
      "Message('note_on', channel=6, note=61, velocity=87, time=0)\n",
      "Message('note_on', channel=6, note=58, velocity=88, time=0)\n",
      "Message('note_on', channel=6, note=65, velocity=87, time=0)\n",
      "Message('note_off', channel=9, note=39, velocity=86, time=4)\n",
      "Message('note_off', channel=9, note=38, velocity=101, time=0)\n",
      "Message('note_off', channel=9, note=42, velocity=85, time=0)\n",
      "Message('note_on', channel=2, note=37, velocity=111, time=92)\n",
      "Message('note_off', channel=6, note=65, velocity=87, time=72)\n",
      "Message('note_off', channel=6, note=58, velocity=88, time=0)\n",
      "Message('note_off', channel=6, note=61, velocity=87, time=0)\n",
      "Message('note_off', channel=14, note=73, velocity=76, time=8)\n",
      "Message('note_off', channel=14, note=68, velocity=80, time=0)\n",
      "Message('note_off', channel=14, note=65, velocity=78, time=0)\n",
      "Message('note_off', channel=2, note=37, velocity=111, time=8)\n",
      "Message('note_on', channel=9, note=46, velocity=87, time=8)\n",
      "Message('note_on', channel=2, note=36, velocity=106, time=0)\n",
      "Message('note_on', channel=6, note=56, velocity=88, time=0)\n",
      "Message('note_on', channel=6, note=60, velocity=87, time=0)\n",
      "Message('note_on', channel=6, note=63, velocity=84, time=0)\n",
      "Message('note_on', channel=14, note=72, velocity=79, time=0)\n",
      "Message('note_on', channel=14, note=68, velocity=79, time=0)\n",
      "Message('note_on', channel=14, note=63, velocity=78, time=0)\n",
      "Message('note_off', channel=9, note=46, velocity=87, time=4)\n",
      "Message('note_off', channel=6, note=63, velocity=84, time=44)\n",
      "Message('note_off', channel=6, note=60, velocity=87, time=0)\n",
      "Message('note_off', channel=6, note=56, velocity=88, time=0)\n",
      "Message('note_off', channel=2, note=36, velocity=106, time=40)\n",
      "Message('note_on', channel=9, note=42, velocity=81, time=104)\n",
      "Message('note_on', channel=9, note=36, velocity=105, time=0)\n",
      "Message('note_off', channel=9, note=36, velocity=105, time=4)\n",
      "Message('note_off', channel=9, note=42, velocity=81, time=0)\n",
      "Message('note_off', channel=14, note=63, velocity=78, time=76)\n",
      "Message('note_off', channel=14, note=68, velocity=79, time=0)\n",
      "Message('note_off', channel=14, note=72, velocity=79, time=0)\n",
      "Message('note_on', channel=5, note=46, velocity=79, time=16)\n",
      "Message('note_off', channel=5, note=46, velocity=79, time=40)\n",
      "Message('note_on', channel=9, note=46, velocity=91, time=56)\n",
      "Message('note_on', channel=5, note=46, velocity=81, time=0)\n",
      "Message('note_off', channel=9, note=46, velocity=91, time=4)\n",
      "Message('note_off', channel=5, note=46, velocity=81, time=36)\n",
      "Message('note_on', channel=5, note=46, velocity=82, time=56)\n",
      "Message('note_off', channel=5, note=46, velocity=82, time=40)\n",
      "Message('note_on', channel=9, note=42, velocity=80, time=56)\n",
      "Message('note_on', channel=9, note=38, velocity=109, time=0)\n",
      "Message('note_on', channel=9, note=39, velocity=83, time=0)\n",
      "Message('note_on', channel=5, note=49, velocity=80, time=0)\n",
      "Message('note_off', channel=9, note=39, velocity=83, time=4)\n",
      "Message('note_off', channel=9, note=38, velocity=109, time=0)\n",
      "Message('note_off', channel=9, note=42, velocity=80, time=0)\n",
      "Message('note_off', channel=5, note=49, velocity=80, time=36)\n",
      "Message('note_on', channel=5, note=51, velocity=79, time=56)\n",
      "Message('note_off', channel=5, note=51, velocity=79, time=40)\n",
      "Message('note_on', channel=9, note=46, velocity=91, time=56)\n",
      "Message('note_on', channel=2, note=34, velocity=110, time=0)\n",
      "Message('note_off', channel=9, note=46, velocity=91, time=4)\n",
      "Message('note_off', channel=2, note=34, velocity=110, time=84)\n",
      "Message('note_on', channel=2, note=37, velocity=106, time=8)\n",
      "Message('note_on', channel=5, note=51, velocity=79, time=0)\n",
      "Message('note_off', channel=5, note=51, velocity=79, time=40)\n",
      "Message('note_off', channel=2, note=37, velocity=106, time=48)\n",
      "Message('note_on', channel=9, note=42, velocity=84, time=8)\n",
      "Message('note_on', channel=9, note=36, velocity=103, time=0)\n",
      "Message('note_on', channel=2, note=39, velocity=107, time=0)\n",
      "Message('note_on', channel=6, note=58, velocity=86, time=0)\n",
      "Message('note_on', channel=6, note=61, velocity=87, time=0)\n",
      "Message('note_on', channel=6, note=65, velocity=85, time=0)\n",
      "Message('note_on', channel=13, note=68, velocity=83, time=0)\n",
      "Message('note_off', channel=9, note=36, velocity=103, time=4)\n",
      "Message('note_off', channel=9, note=42, velocity=84, time=0)\n",
      "Message('note_off', channel=2, note=39, velocity=107, time=84)\n",
      "Message('note_off', channel=6, note=65, velocity=85, time=80)\n",
      "Message('note_off', channel=6, note=61, velocity=87, time=0)\n",
      "Message('note_off', channel=6, note=58, velocity=86, time=0)\n",
      "Message('note_on', channel=9, note=46, velocity=89, time=24)\n",
      "Message('note_on', channel=2, note=37, velocity=111, time=0)\n",
      "Message('note_off', channel=9, note=46, velocity=89, time=4)\n",
      "Message('note_off', channel=2, note=37, velocity=111, time=84)\n",
      "Message('note_on', channel=2, note=39, velocity=110, time=8)\n",
      "Message('note_on', channel=6, note=65, velocity=85, time=0)\n",
      "Message('note_on', channel=6, note=61, velocity=86, time=0)\n",
      "Message('note_on', channel=6, note=58, velocity=88, time=0)\n",
      "Message('note_off', channel=6, note=58, velocity=88, time=48)\n",
      "Message('note_off', channel=6, note=61, velocity=86, time=0)\n",
      "Message('note_off', channel=6, note=65, velocity=85, time=0)\n",
      "Message('note_off', channel=2, note=39, velocity=110, time=40)\n",
      "Message('note_on', channel=9, note=42, velocity=83, time=8)\n",
      "Message('note_on', channel=9, note=38, velocity=103, time=0)\n",
      "Message('note_on', channel=9, note=39, velocity=85, time=0)\n",
      "Message('note_off', channel=9, note=39, velocity=85, time=4)\n",
      "Message('note_off', channel=9, note=38, velocity=103, time=0)\n",
      "Message('note_off', channel=9, note=42, velocity=83, time=0)\n",
      "Message('note_on', channel=2, note=42, velocity=108, time=92)\n",
      "Message('note_off', channel=2, note=42, velocity=108, time=88)\n",
      "Message('note_on', channel=9, note=42, velocity=83, time=8)\n",
      "Message('note_on', channel=2, note=41, velocity=109, time=0)\n",
      "Message('note_on', channel=6, note=58, velocity=87, time=0)\n",
      "Message('note_on', channel=6, note=65, velocity=86, time=0)\n",
      "Message('note_on', channel=6, note=61, velocity=88, time=0)\n",
      "Message('note_off', channel=9, note=42, velocity=83, time=4)\n",
      "Message('note_off', channel=6, note=61, velocity=88, time=44)\n",
      "Message('note_off', channel=6, note=65, velocity=86, time=0)\n",
      "Message('note_off', channel=6, note=58, velocity=87, time=0)\n",
      "Message('note_off', channel=2, note=41, velocity=109, time=40)\n",
      "Message('note_on', channel=9, note=42, velocity=83, time=8)\n",
      "Message('note_off', channel=9, note=42, velocity=83, time=4)\n",
      "Message('note_on', channel=9, note=42, velocity=81, time=92)\n",
      "Message('note_on', channel=9, note=36, velocity=101, time=0)\n",
      "Message('note_on', channel=2, note=37, velocity=107, time=0)\n",
      "Message('note_on', channel=6, note=58, velocity=86, time=0)\n",
      "Message('note_on', channel=6, note=61, velocity=87, time=0)\n",
      "Message('note_on', channel=6, note=65, velocity=86, time=0)\n",
      "Message('note_off', channel=9, note=36, velocity=101, time=4)\n",
      "Message('note_off', channel=9, note=42, velocity=81, time=0)\n",
      "Message('note_on', channel=5, note=41, velocity=79, time=92)\n",
      "Message('note_off', channel=5, note=41, velocity=79, time=40)\n",
      "Message('note_off', channel=6, note=65, velocity=86, time=32)\n",
      "Message('note_off', channel=6, note=61, velocity=87, time=0)\n",
      "Message('note_off', channel=6, note=58, velocity=86, time=0)\n",
      "Message('note_off', channel=2, note=37, velocity=107, time=24)\n",
      "Message('note_on', channel=9, note=46, velocity=92, time=0)\n",
      "Message('note_on', channel=2, note=39, velocity=107, time=0)\n",
      "Message('note_on', channel=5, note=41, velocity=80, time=0)\n",
      "Message('note_off', channel=9, note=46, velocity=92, time=4)\n",
      "Message('note_off', channel=5, note=41, velocity=80, time=36)\n",
      "Message('note_off', channel=2, note=39, velocity=107, time=48)\n",
      "Message('note_on', channel=5, note=41, velocity=81, time=8)\n",
      "Message('note_on', channel=6, note=61, velocity=85, time=0)\n",
      "Message('note_on', channel=6, note=58, velocity=84, time=0)\n",
      "Message('note_on', channel=6, note=65, velocity=88, time=0)\n",
      "Message('note_off', channel=5, note=41, velocity=81, time=40)\n",
      "Message('note_off', channel=6, note=65, velocity=88, time=8)\n",
      "Message('note_off', channel=6, note=58, velocity=84, time=0)\n",
      "Message('note_off', channel=6, note=61, velocity=85, time=0)\n",
      "Message('note_on', channel=9, note=42, velocity=85, time=48)\n",
      "Message('note_on', channel=9, note=38, velocity=107, time=0)\n",
      "Message('note_on', channel=9, note=39, velocity=82, time=0)\n",
      "Message('note_on', channel=5, note=44, velocity=82, time=0)\n",
      "Message('note_off', channel=9, note=39, velocity=82, time=4)\n",
      "Message('note_off', channel=9, note=38, velocity=107, time=0)\n",
      "Message('note_off', channel=9, note=42, velocity=85, time=0)\n",
      "Message('note_off', channel=5, note=44, velocity=82, time=36)\n",
      "Message('note_off', channel=13, note=68, velocity=83, time=48)\n",
      "Message('note_on', channel=5, note=46, velocity=79, time=8)\n",
      "Message('note_on', channel=13, note=66, velocity=86, time=0)\n",
      "Message('note_off', channel=5, note=46, velocity=79, time=40)\n",
      "Message('note_off', channel=13, note=66, velocity=86, time=48)\n",
      "Message('note_on', channel=9, note=46, velocity=87, time=8)\n",
      "Message('note_on', channel=2, note=29, velocity=111, time=0)\n",
      "Message('note_on', channel=6, note=58, velocity=86, time=0)\n",
      "Message('note_on', channel=6, note=61, velocity=87, time=0)\n",
      "Message('note_on', channel=6, note=65, velocity=84, time=0)\n",
      "Message('note_on', channel=13, note=65, velocity=84, time=0)\n",
      "Message('note_off', channel=9, note=46, velocity=87, time=4)\n",
      "Message('note_off', channel=6, note=65, velocity=84, time=44)\n",
      "Message('note_off', channel=6, note=61, velocity=87, time=0)\n",
      "Message('note_off', channel=6, note=58, velocity=86, time=0)\n",
      "Message('note_off', channel=13, note=65, velocity=84, time=40)\n",
      "Message('note_off', channel=2, note=29, velocity=111, time=0)\n",
      "Message('note_on', channel=2, note=32, velocity=107, time=8)\n",
      "Message('note_on', channel=5, note=46, velocity=80, time=0)\n",
      "Message('note_on', channel=13, note=63, velocity=83, time=0)\n",
      "Message('note_off', channel=5, note=46, velocity=80, time=40)\n",
      "Message('note_off', channel=13, note=63, velocity=83, time=48)\n",
      "Message('note_off', channel=2, note=32, velocity=107, time=0)\n",
      "Message('note_on', channel=9, note=42, velocity=85, time=8)\n",
      "Message('note_on', channel=9, note=36, velocity=101, time=0)\n",
      "Message('note_on', channel=2, note=34, velocity=111, time=0)\n",
      "Message('note_on', channel=13, note=65, velocity=89, time=0)\n",
      "Message('note_on', channel=14, note=65, velocity=78, time=0)\n",
      "Message('note_on', channel=14, note=68, velocity=81, time=0)\n",
      "Message('note_on', channel=14, note=73, velocity=76, time=0)\n",
      "Message('note_off', channel=9, note=36, velocity=101, time=4)\n",
      "Message('note_off', channel=9, note=42, velocity=85, time=0)\n",
      "Message('note_off', channel=2, note=34, velocity=111, time=84)\n",
      "Message('note_off', channel=13, note=65, velocity=89, time=96)\n",
      "Message('note_on', channel=9, note=46, velocity=87, time=8)\n",
      "Message('note_on', channel=2, note=32, velocity=108, time=0)\n",
      "Message('note_on', channel=6, note=58, velocity=84, time=0)\n",
      "Message('note_on', channel=6, note=61, velocity=87, time=0)\n",
      "Message('note_on', channel=6, note=65, velocity=85, time=0)\n",
      "Message('note_off', channel=9, note=46, velocity=87, time=4)\n",
      "Message('note_off', channel=6, note=65, velocity=85, time=44)\n",
      "Message('note_off', channel=6, note=61, velocity=87, time=0)\n",
      "Message('note_off', channel=6, note=58, velocity=84, time=0)\n",
      "Message('note_off', channel=14, note=73, velocity=76, time=32)\n",
      "Message('note_off', channel=14, note=68, velocity=81, time=0)\n",
      "Message('note_off', channel=14, note=65, velocity=78, time=0)\n",
      "Message('note_off', channel=2, note=32, velocity=108, time=8)\n",
      "Message('note_on', channel=2, note=34, velocity=108, time=8)\n",
      "Message('note_on', channel=6, note=58, velocity=86, time=0)\n",
      "Message('note_on', channel=6, note=61, velocity=85, time=0)\n",
      "Message('note_on', channel=6, note=65, velocity=87, time=0)\n",
      "Message('note_on', channel=14, note=65, velocity=77, time=0)\n",
      "Message('note_on', channel=14, note=68, velocity=82, time=0)\n",
      "Message('note_on', channel=14, note=73, velocity=82, time=0)\n",
      "Message('note_off', channel=6, note=65, velocity=87, time=48)\n",
      "Message('note_off', channel=6, note=61, velocity=85, time=0)\n",
      "Message('note_off', channel=6, note=58, velocity=86, time=0)\n",
      "Message('note_off', channel=2, note=34, velocity=108, time=40)\n",
      "Message('note_on', channel=9, note=42, velocity=85, time=8)\n",
      "Message('note_on', channel=9, note=38, velocity=106, time=0)\n",
      "Message('note_on', channel=9, note=39, velocity=80, time=0)\n",
      "Message('note_on', channel=6, note=61, velocity=88, time=0)\n",
      "Message('note_on', channel=6, note=58, velocity=84, time=0)\n",
      "Message('note_on', channel=6, note=65, velocity=86, time=0)\n",
      "Message('note_off', channel=9, note=39, velocity=80, time=4)\n",
      "Message('note_off', channel=9, note=38, velocity=106, time=0)\n",
      "Message('note_off', channel=9, note=42, velocity=85, time=0)\n",
      "Message('note_on', channel=2, note=37, velocity=110, time=92)\n",
      "Message('note_off', channel=6, note=65, velocity=86, time=72)\n",
      "Message('note_off', channel=6, note=58, velocity=84, time=0)\n",
      "Message('note_off', channel=6, note=61, velocity=88, time=0)\n",
      "Message('note_off', channel=14, note=73, velocity=82, time=8)\n",
      "Message('note_off', channel=14, note=68, velocity=82, time=0)\n",
      "Message('note_off', channel=14, note=65, velocity=77, time=0)\n",
      "Message('note_off', channel=2, note=37, velocity=110, time=8)\n",
      "Message('note_on', channel=9, note=46, velocity=92, time=8)\n",
      "Message('note_on', channel=2, note=36, velocity=109, time=0)\n",
      "Message('note_on', channel=6, note=56, velocity=88, time=0)\n",
      "Message('note_on', channel=6, note=60, velocity=85, time=0)\n",
      "Message('note_on', channel=6, note=63, velocity=88, time=0)\n",
      "Message('note_on', channel=14, note=72, velocity=78, time=0)\n",
      "Message('note_on', channel=14, note=68, velocity=77, time=0)\n",
      "Message('note_on', channel=14, note=63, velocity=78, time=0)\n",
      "Message('note_off', channel=9, note=46, velocity=92, time=4)\n",
      "Message('note_off', channel=6, note=63, velocity=88, time=44)\n",
      "Message('note_off', channel=6, note=60, velocity=85, time=0)\n",
      "Message('note_off', channel=6, note=56, velocity=88, time=0)\n",
      "Message('note_off', channel=2, note=36, velocity=109, time=40)\n",
      "Message('note_on', channel=9, note=42, velocity=85, time=104)\n",
      "Message('note_on', channel=9, note=36, velocity=106, time=0)\n",
      "Message('note_off', channel=9, note=36, velocity=106, time=4)\n",
      "Message('note_off', channel=9, note=42, velocity=85, time=0)\n",
      "Message('note_off', channel=14, note=63, velocity=78, time=76)\n",
      "Message('note_off', channel=14, note=68, velocity=77, time=0)\n",
      "Message('note_off', channel=14, note=72, velocity=78, time=0)\n",
      "Message('note_on', channel=5, note=46, velocity=79, time=16)\n",
      "Message('note_off', channel=5, note=46, velocity=79, time=40)\n",
      "Message('note_on', channel=9, note=46, velocity=87, time=56)\n",
      "Message('note_on', channel=5, note=46, velocity=80, time=0)\n",
      "Message('note_off', channel=9, note=46, velocity=87, time=4)\n",
      "Message('note_off', channel=5, note=46, velocity=80, time=36)\n",
      "Message('note_on', channel=5, note=46, velocity=80, time=56)\n",
      "Message('note_off', channel=5, note=46, velocity=80, time=40)\n",
      "Message('note_on', channel=9, note=42, velocity=83, time=56)\n",
      "Message('note_on', channel=9, note=38, velocity=101, time=0)\n",
      "Message('note_on', channel=9, note=39, velocity=83, time=0)\n",
      "Message('note_on', channel=5, note=49, velocity=82, time=0)\n",
      "Message('note_off', channel=9, note=39, velocity=83, time=4)\n",
      "Message('note_off', channel=9, note=38, velocity=101, time=0)\n",
      "Message('note_off', channel=9, note=42, velocity=83, time=0)\n",
      "Message('note_off', channel=5, note=49, velocity=82, time=36)\n",
      "Message('note_on', channel=5, note=51, velocity=80, time=56)\n",
      "Message('note_off', channel=5, note=51, velocity=80, time=40)\n",
      "Message('note_on', channel=9, note=46, velocity=89, time=56)\n",
      "Message('note_on', channel=2, note=34, velocity=109, time=0)\n",
      "Message('note_off', channel=9, note=46, velocity=89, time=4)\n",
      "Message('note_off', channel=2, note=34, velocity=109, time=84)\n",
      "Message('note_on', channel=2, note=37, velocity=109, time=8)\n",
      "Message('note_on', channel=5, note=51, velocity=79, time=0)\n",
      "Message('note_off', channel=5, note=51, velocity=79, time=40)\n",
      "Message('note_off', channel=2, note=37, velocity=109, time=48)\n",
      "Message('note_on', channel=9, note=42, velocity=80, time=8)\n",
      "Message('note_on', channel=9, note=36, velocity=106, time=0)\n",
      "Message('note_on', channel=2, note=39, velocity=109, time=0)\n",
      "Message('note_on', channel=6, note=58, velocity=84, time=0)\n",
      "Message('note_on', channel=6, note=61, velocity=88, time=0)\n",
      "Message('note_on', channel=6, note=65, velocity=86, time=0)\n",
      "Message('note_on', channel=13, note=68, velocity=84, time=0)\n",
      "Message('note_off', channel=9, note=36, velocity=106, time=4)\n",
      "Message('note_off', channel=9, note=42, velocity=80, time=0)\n",
      "Message('note_off', channel=2, note=39, velocity=109, time=84)\n",
      "Message('note_off', channel=6, note=65, velocity=86, time=80)\n",
      "Message('note_off', channel=6, note=61, velocity=88, time=0)\n",
      "Message('note_off', channel=6, note=58, velocity=84, time=0)\n",
      "Message('note_on', channel=9, note=46, velocity=92, time=24)\n",
      "Message('note_on', channel=2, note=37, velocity=110, time=0)\n",
      "Message('note_on', channel=15, note=56, velocity=123, time=0)\n",
      "Message('note_off', channel=9, note=46, velocity=92, time=4)\n",
      "Message('note_off', channel=15, note=56, velocity=123, time=84)\n",
      "Message('note_off', channel=2, note=37, velocity=110, time=0)\n",
      "Message('note_on', channel=2, note=39, velocity=108, time=8)\n",
      "Message('note_on', channel=6, note=65, velocity=84, time=0)\n",
      "Message('note_on', channel=6, note=61, velocity=87, time=0)\n",
      "Message('note_on', channel=6, note=58, velocity=88, time=0)\n",
      "Message('note_on', channel=15, note=58, velocity=119, time=0)\n",
      "Message('note_off', channel=6, note=58, velocity=88, time=48)\n",
      "Message('note_off', channel=6, note=61, velocity=87, time=0)\n",
      "Message('note_off', channel=6, note=65, velocity=84, time=0)\n",
      "Message('note_off', channel=15, note=58, velocity=119, time=40)\n",
      "Message('note_off', channel=2, note=39, velocity=108, time=0)\n",
      "Message('note_on', channel=9, note=42, velocity=80, time=8)\n",
      "Message('note_on', channel=9, note=38, velocity=103, time=0)\n",
      "Message('note_on', channel=9, note=39, velocity=82, time=0)\n",
      "Message('note_on', channel=15, note=61, velocity=124, time=0)\n",
      "Message('note_off', channel=9, note=39, velocity=82, time=4)\n",
      "Message('note_off', channel=9, note=38, velocity=103, time=0)\n",
      "Message('note_off', channel=9, note=42, velocity=80, time=0)\n",
      "Message('note_off', channel=15, note=61, velocity=124, time=84)\n",
      "Message('note_on', channel=2, note=42, velocity=110, time=8)\n",
      "Message('note_on', channel=15, note=58, velocity=124, time=0)\n",
      "Message('note_off', channel=15, note=58, velocity=124, time=88)\n",
      "Message('note_off', channel=2, note=42, velocity=110, time=0)\n",
      "Message('note_on', channel=9, note=42, velocity=83, time=8)\n",
      "Message('note_on', channel=2, note=41, velocity=109, time=0)\n",
      "Message('note_on', channel=6, note=58, velocity=87, time=0)\n",
      "Message('note_on', channel=6, note=65, velocity=87, time=0)\n",
      "Message('note_on', channel=6, note=61, velocity=88, time=0)\n",
      "Message('note_on', channel=15, note=65, velocity=119, time=0)\n",
      "Message('note_off', channel=9, note=42, velocity=83, time=4)\n",
      "Message('note_off', channel=6, note=61, velocity=88, time=44)\n",
      "Message('note_off', channel=6, note=65, velocity=87, time=0)\n",
      "Message('note_off', channel=6, note=58, velocity=87, time=0)\n",
      "Message('note_off', channel=15, note=65, velocity=119, time=40)\n",
      "Message('note_off', channel=2, note=41, velocity=109, time=0)\n",
      "Message('note_on', channel=9, note=42, velocity=85, time=8)\n",
      "Message('note_off', channel=9, note=42, velocity=85, time=4)\n",
      "Message('note_on', channel=9, note=42, velocity=85, time=92)\n",
      "Message('note_on', channel=9, note=36, velocity=103, time=0)\n",
      "Message('note_on', channel=2, note=37, velocity=108, time=0)\n",
      "Message('note_on', channel=6, note=58, velocity=87, time=0)\n",
      "Message('note_on', channel=6, note=61, velocity=87, time=0)\n",
      "Message('note_on', channel=6, note=65, velocity=85, time=0)\n",
      "Message('note_on', channel=15, note=56, velocity=120, time=0)\n",
      "Message('note_off', channel=9, note=36, velocity=103, time=4)\n",
      "Message('note_off', channel=9, note=42, velocity=85, time=0)\n",
      "Message('note_off', channel=15, note=56, velocity=120, time=84)\n",
      "Message('note_on', channel=5, note=41, velocity=79, time=8)\n",
      "Message('note_on', channel=15, note=58, velocity=119, time=0)\n",
      "Message('note_off', channel=5, note=41, velocity=79, time=40)\n",
      "Message('note_off', channel=6, note=65, velocity=85, time=32)\n",
      "Message('note_off', channel=6, note=61, velocity=87, time=0)\n",
      "Message('note_off', channel=6, note=58, velocity=87, time=0)\n",
      "Message('note_off', channel=15, note=58, velocity=119, time=16)\n",
      "Message('note_off', channel=2, note=37, velocity=108, time=8)\n",
      "Message('note_on', channel=9, note=46, velocity=89, time=0)\n",
      "Message('note_on', channel=2, note=39, velocity=108, time=0)\n",
      "Message('note_on', channel=5, note=41, velocity=80, time=0)\n",
      "Message('note_on', channel=15, note=61, velocity=122, time=0)\n",
      "Message('note_off', channel=9, note=46, velocity=89, time=4)\n",
      "Message('note_off', channel=5, note=41, velocity=80, time=36)\n",
      "Message('note_off', channel=15, note=61, velocity=122, time=48)\n",
      "Message('note_off', channel=2, note=39, velocity=108, time=0)\n",
      "Message('note_on', channel=5, note=41, velocity=79, time=8)\n",
      "Message('note_on', channel=6, note=61, velocity=86, time=0)\n",
      "Message('note_on', channel=6, note=58, velocity=84, time=0)\n",
      "Message('note_on', channel=6, note=65, velocity=87, time=0)\n",
      "Message('note_on', channel=15, note=58, velocity=120, time=0)\n",
      "Message('note_off', channel=5, note=41, velocity=79, time=40)\n",
      "Message('note_off', channel=6, note=65, velocity=87, time=8)\n",
      "Message('note_off', channel=6, note=58, velocity=84, time=0)\n",
      "Message('note_off', channel=6, note=61, velocity=86, time=0)\n",
      "Message('note_off', channel=15, note=58, velocity=120, time=40)\n",
      "Message('note_on', channel=9, note=42, velocity=81, time=8)\n",
      "Message('note_on', channel=9, note=38, velocity=109, time=0)\n",
      "Message('note_on', channel=9, note=39, velocity=85, time=0)\n",
      "Message('note_on', channel=5, note=44, velocity=80, time=0)\n",
      "Message('note_on', channel=15, note=65, velocity=120, time=0)\n",
      "Message('note_off', channel=9, note=39, velocity=85, time=4)\n",
      "Message('note_off', channel=9, note=38, velocity=109, time=0)\n",
      "Message('note_off', channel=9, note=42, velocity=81, time=0)\n",
      "Message('note_off', channel=5, note=44, velocity=80, time=36)\n",
      "Message('note_off', channel=13, note=68, velocity=84, time=48)\n",
      "Message('note_on', channel=5, note=46, velocity=79, time=8)\n",
      "Message('note_on', channel=13, note=66, velocity=86, time=0)\n",
      "Message('note_off', channel=5, note=46, velocity=79, time=40)\n",
      "Message('note_off', channel=15, note=65, velocity=120, time=40)\n",
      "Message('note_off', channel=13, note=66, velocity=86, time=8)\n",
      "Message('note_on', channel=9, note=46, velocity=92, time=8)\n",
      "Message('note_on', channel=2, note=29, velocity=110, time=0)\n",
      "Message('note_on', channel=6, note=58, velocity=85, time=0)\n",
      "Message('note_on', channel=6, note=61, velocity=86, time=0)\n",
      "Message('note_on', channel=6, note=65, velocity=85, time=0)\n",
      "Message('note_on', channel=13, note=65, velocity=86, time=0)\n",
      "Message('note_off', channel=9, note=46, velocity=92, time=4)\n",
      "Message('note_off', channel=6, note=65, velocity=85, time=44)\n",
      "Message('note_off', channel=6, note=61, velocity=86, time=0)\n",
      "Message('note_off', channel=6, note=58, velocity=85, time=0)\n",
      "Message('note_off', channel=13, note=65, velocity=86, time=40)\n",
      "Message('note_off', channel=2, note=29, velocity=110, time=0)\n",
      "Message('note_on', channel=2, note=32, velocity=108, time=8)\n",
      "Message('note_on', channel=5, note=46, velocity=79, time=0)\n",
      "Message('note_on', channel=13, note=63, velocity=88, time=0)\n",
      "Message('note_off', channel=5, note=46, velocity=79, time=40)\n",
      "Message('note_off', channel=13, note=63, velocity=88, time=48)\n",
      "Message('note_off', channel=2, note=32, velocity=108, time=0)\n",
      "Message('note_on', channel=9, note=42, velocity=85, time=8)\n",
      "Message('note_on', channel=9, note=36, velocity=103, time=0)\n",
      "Message('note_on', channel=2, note=34, velocity=108, time=0)\n",
      "Message('note_on', channel=13, note=65, velocity=85, time=0)\n",
      "Message('note_on', channel=14, note=65, velocity=77, time=0)\n",
      "Message('note_on', channel=14, note=68, velocity=81, time=0)\n",
      "Message('note_on', channel=14, note=73, velocity=78, time=0)\n",
      "Message('note_off', channel=9, note=36, velocity=103, time=4)\n",
      "Message('note_off', channel=9, note=42, velocity=85, time=0)\n",
      "Message('note_off', channel=2, note=34, velocity=108, time=84)\n",
      "Message('note_off', channel=13, note=65, velocity=85, time=96)\n",
      "Message('note_on', channel=9, note=46, velocity=87, time=8)\n",
      "Message('note_on', channel=2, note=32, velocity=109, time=0)\n",
      "Message('note_on', channel=6, note=58, velocity=85, time=0)\n",
      "Message('note_on', channel=6, note=61, velocity=86, time=0)\n",
      "Message('note_on', channel=6, note=65, velocity=85, time=0)\n",
      "Message('note_off', channel=9, note=46, velocity=87, time=4)\n",
      "Message('note_off', channel=6, note=65, velocity=85, time=44)\n",
      "Message('note_off', channel=6, note=61, velocity=86, time=0)\n",
      "Message('note_off', channel=6, note=58, velocity=85, time=0)\n",
      "Message('note_off', channel=14, note=73, velocity=78, time=32)\n",
      "Message('note_off', channel=14, note=68, velocity=81, time=0)\n",
      "Message('note_off', channel=14, note=65, velocity=77, time=0)\n",
      "Message('note_off', channel=2, note=32, velocity=109, time=8)\n",
      "Message('note_on', channel=2, note=34, velocity=110, time=8)\n",
      "Message('note_on', channel=6, note=58, velocity=87, time=0)\n",
      "Message('note_on', channel=6, note=61, velocity=86, time=0)\n",
      "Message('note_on', channel=6, note=65, velocity=85, time=0)\n",
      "Message('note_on', channel=14, note=65, velocity=79, time=0)\n",
      "Message('note_on', channel=14, note=68, velocity=79, time=0)\n",
      "Message('note_on', channel=14, note=73, velocity=83, time=0)\n",
      "Message('note_off', channel=6, note=65, velocity=85, time=48)\n",
      "Message('note_off', channel=6, note=61, velocity=86, time=0)\n",
      "Message('note_off', channel=6, note=58, velocity=87, time=0)\n",
      "Message('note_off', channel=2, note=34, velocity=110, time=40)\n",
      "Message('note_on', channel=9, note=42, velocity=85, time=8)\n",
      "Message('note_on', channel=9, note=38, velocity=106, time=0)\n",
      "Message('note_on', channel=9, note=39, velocity=81, time=0)\n",
      "Message('note_on', channel=6, note=61, velocity=85, time=0)\n",
      "Message('note_on', channel=6, note=58, velocity=88, time=0)\n",
      "Message('note_on', channel=6, note=65, velocity=87, time=0)\n",
      "Message('note_off', channel=9, note=39, velocity=81, time=4)\n",
      "Message('note_off', channel=9, note=38, velocity=106, time=0)\n",
      "Message('note_off', channel=9, note=42, velocity=85, time=0)\n",
      "Message('note_on', channel=2, note=37, velocity=111, time=92)\n",
      "Message('note_off', channel=6, note=65, velocity=87, time=72)\n",
      "Message('note_off', channel=6, note=58, velocity=88, time=0)\n",
      "Message('note_off', channel=6, note=61, velocity=85, time=0)\n",
      "Message('note_off', channel=14, note=73, velocity=83, time=8)\n",
      "Message('note_off', channel=14, note=68, velocity=79, time=0)\n",
      "Message('note_off', channel=14, note=65, velocity=79, time=0)\n",
      "Message('note_off', channel=2, note=37, velocity=111, time=8)\n",
      "Message('note_on', channel=9, note=46, velocity=90, time=8)\n",
      "Message('note_on', channel=2, note=36, velocity=106, time=0)\n",
      "Message('note_on', channel=6, note=56, velocity=84, time=0)\n",
      "Message('note_on', channel=6, note=60, velocity=84, time=0)\n",
      "Message('note_on', channel=6, note=63, velocity=88, time=0)\n",
      "Message('note_on', channel=14, note=72, velocity=78, time=0)\n",
      "Message('note_on', channel=14, note=68, velocity=81, time=0)\n",
      "Message('note_on', channel=14, note=63, velocity=81, time=0)\n",
      "Message('note_off', channel=9, note=46, velocity=90, time=4)\n",
      "Message('note_off', channel=6, note=63, velocity=88, time=44)\n",
      "Message('note_off', channel=6, note=60, velocity=84, time=0)\n",
      "Message('note_off', channel=6, note=56, velocity=84, time=0)\n",
      "Message('note_off', channel=2, note=36, velocity=106, time=40)\n",
      "Message('note_on', channel=9, note=42, velocity=85, time=104)\n",
      "Message('note_on', channel=9, note=36, velocity=103, time=0)\n",
      "Message('note_off', channel=9, note=36, velocity=103, time=4)\n",
      "Message('note_off', channel=9, note=42, velocity=85, time=0)\n",
      "Message('note_off', channel=14, note=63, velocity=81, time=76)\n",
      "Message('note_off', channel=14, note=68, velocity=81, time=0)\n",
      "Message('note_off', channel=14, note=72, velocity=78, time=0)\n",
      "Message('note_on', channel=5, note=46, velocity=82, time=16)\n",
      "Message('note_off', channel=5, note=46, velocity=82, time=40)\n",
      "Message('note_on', channel=9, note=46, velocity=87, time=56)\n",
      "Message('note_on', channel=5, note=46, velocity=80, time=0)\n",
      "Message('note_off', channel=9, note=46, velocity=87, time=4)\n",
      "Message('note_off', channel=5, note=46, velocity=80, time=36)\n",
      "Message('note_on', channel=5, note=46, velocity=79, time=56)\n",
      "Message('note_off', channel=5, note=46, velocity=79, time=40)\n",
      "Message('note_on', channel=9, note=42, velocity=81, time=56)\n",
      "Message('note_on', channel=9, note=38, velocity=103, time=0)\n",
      "Message('note_on', channel=9, note=39, velocity=86, time=0)\n",
      "Message('note_on', channel=5, note=49, velocity=82, time=0)\n",
      "Message('note_off', channel=9, note=39, velocity=86, time=4)\n",
      "Message('note_off', channel=9, note=38, velocity=103, time=0)\n",
      "Message('note_off', channel=9, note=42, velocity=81, time=0)\n",
      "Message('note_off', channel=5, note=49, velocity=82, time=36)\n",
      "Message('note_on', channel=5, note=51, velocity=82, time=56)\n",
      "Message('note_off', channel=5, note=51, velocity=82, time=40)\n",
      "Message('note_on', channel=9, note=46, velocity=90, time=56)\n",
      "Message('note_on', channel=2, note=34, velocity=109, time=0)\n",
      "Message('note_off', channel=9, note=46, velocity=90, time=4)\n",
      "Message('note_off', channel=2, note=34, velocity=109, time=84)\n",
      "Message('note_on', channel=2, note=37, velocity=110, time=8)\n",
      "Message('note_on', channel=5, note=51, velocity=81, time=0)\n",
      "Message('note_off', channel=5, note=51, velocity=81, time=40)\n",
      "Message('note_off', channel=2, note=37, velocity=110, time=48)\n",
      "Message('note_on', channel=9, note=42, velocity=81, time=8)\n",
      "Message('note_on', channel=9, note=36, velocity=102, time=0)\n",
      "Message('note_on', channel=2, note=39, velocity=110, time=0)\n",
      "Message('note_on', channel=6, note=58, velocity=86, time=0)\n",
      "Message('note_on', channel=6, note=61, velocity=85, time=0)\n",
      "Message('note_on', channel=6, note=65, velocity=85, time=0)\n",
      "Message('note_on', channel=13, note=68, velocity=87, time=0)\n",
      "Message('note_off', channel=9, note=36, velocity=102, time=4)\n",
      "Message('note_off', channel=9, note=42, velocity=81, time=0)\n",
      "Message('note_off', channel=2, note=39, velocity=110, time=84)\n",
      "Message('note_off', channel=6, note=65, velocity=85, time=80)\n",
      "Message('note_off', channel=6, note=61, velocity=85, time=0)\n",
      "Message('note_off', channel=6, note=58, velocity=86, time=0)\n",
      "Message('note_on', channel=9, note=46, velocity=89, time=24)\n",
      "Message('note_on', channel=2, note=37, velocity=106, time=0)\n",
      "Message('note_on', channel=15, note=56, velocity=123, time=0)\n",
      "Message('note_off', channel=9, note=46, velocity=89, time=4)\n",
      "Message('note_off', channel=15, note=56, velocity=123, time=84)\n",
      "Message('note_off', channel=2, note=37, velocity=106, time=0)\n",
      "Message('note_on', channel=2, note=39, velocity=110, time=8)\n",
      "Message('note_on', channel=6, note=65, velocity=88, time=0)\n",
      "Message('note_on', channel=6, note=61, velocity=87, time=0)\n",
      "Message('note_on', channel=6, note=58, velocity=88, time=0)\n",
      "Message('note_on', channel=15, note=58, velocity=124, time=0)\n",
      "Message('note_off', channel=6, note=58, velocity=88, time=48)\n",
      "Message('note_off', channel=6, note=61, velocity=87, time=0)\n",
      "Message('note_off', channel=6, note=65, velocity=88, time=0)\n",
      "Message('note_off', channel=15, note=58, velocity=124, time=40)\n",
      "Message('note_off', channel=2, note=39, velocity=110, time=0)\n",
      "Message('note_on', channel=9, note=42, velocity=80, time=8)\n",
      "Message('note_on', channel=9, note=38, velocity=101, time=0)\n",
      "Message('note_on', channel=9, note=39, velocity=81, time=0)\n",
      "Message('note_on', channel=15, note=61, velocity=122, time=0)\n",
      "Message('note_off', channel=9, note=39, velocity=81, time=4)\n",
      "Message('note_off', channel=9, note=38, velocity=101, time=0)\n",
      "Message('note_off', channel=9, note=42, velocity=80, time=0)\n",
      "Message('note_off', channel=15, note=61, velocity=122, time=84)\n",
      "Message('note_on', channel=2, note=42, velocity=111, time=8)\n",
      "Message('note_on', channel=15, note=58, velocity=123, time=0)\n",
      "Message('note_off', channel=15, note=58, velocity=123, time=88)\n",
      "Message('note_off', channel=2, note=42, velocity=111, time=0)\n",
      "Message('note_on', channel=9, note=42, velocity=84, time=8)\n",
      "Message('note_on', channel=2, note=41, velocity=110, time=0)\n",
      "Message('note_on', channel=6, note=58, velocity=86, time=0)\n",
      "Message('note_on', channel=6, note=65, velocity=84, time=0)\n",
      "Message('note_on', channel=6, note=61, velocity=85, time=0)\n",
      "Message('note_on', channel=15, note=65, velocity=122, time=0)\n",
      "Message('note_off', channel=9, note=42, velocity=84, time=4)\n",
      "Message('note_off', channel=6, note=61, velocity=85, time=44)\n",
      "Message('note_off', channel=6, note=65, velocity=84, time=0)\n",
      "Message('note_off', channel=6, note=58, velocity=86, time=0)\n",
      "Message('note_off', channel=15, note=65, velocity=122, time=40)\n",
      "Message('note_off', channel=2, note=41, velocity=110, time=0)\n",
      "Message('note_on', channel=9, note=42, velocity=83, time=8)\n",
      "Message('note_off', channel=9, note=42, velocity=83, time=4)\n",
      "Message('note_on', channel=9, note=42, velocity=84, time=92)\n",
      "Message('note_on', channel=9, note=36, velocity=102, time=0)\n",
      "Message('note_on', channel=2, note=37, velocity=106, time=0)\n",
      "Message('note_on', channel=6, note=58, velocity=85, time=0)\n",
      "Message('note_on', channel=6, note=61, velocity=87, time=0)\n",
      "Message('note_on', channel=6, note=65, velocity=88, time=0)\n",
      "Message('note_on', channel=15, note=56, velocity=120, time=0)\n",
      "Message('note_off', channel=9, note=36, velocity=102, time=4)\n",
      "Message('note_off', channel=9, note=42, velocity=84, time=0)\n",
      "Message('note_off', channel=15, note=56, velocity=120, time=84)\n",
      "Message('note_on', channel=5, note=41, velocity=79, time=8)\n",
      "Message('note_on', channel=15, note=58, velocity=120, time=0)\n",
      "Message('note_off', channel=5, note=41, velocity=79, time=40)\n",
      "Message('note_off', channel=6, note=65, velocity=88, time=32)\n",
      "Message('note_off', channel=6, note=61, velocity=87, time=0)\n",
      "Message('note_off', channel=6, note=58, velocity=85, time=0)\n",
      "Message('note_off', channel=15, note=58, velocity=120, time=16)\n",
      "Message('note_off', channel=2, note=37, velocity=106, time=8)\n",
      "Message('note_on', channel=9, note=46, velocity=92, time=0)\n",
      "Message('note_on', channel=2, note=39, velocity=107, time=0)\n",
      "Message('note_on', channel=5, note=41, velocity=82, time=0)\n",
      "Message('note_on', channel=15, note=61, velocity=119, time=0)\n",
      "Message('note_off', channel=9, note=46, velocity=92, time=4)\n",
      "Message('note_off', channel=5, note=41, velocity=82, time=36)\n",
      "Message('note_off', channel=15, note=61, velocity=119, time=48)\n",
      "Message('note_off', channel=2, note=39, velocity=107, time=0)\n",
      "Message('note_on', channel=5, note=41, velocity=82, time=8)\n",
      "Message('note_on', channel=6, note=61, velocity=85, time=0)\n",
      "Message('note_on', channel=6, note=58, velocity=88, time=0)\n",
      "Message('note_on', channel=6, note=65, velocity=85, time=0)\n",
      "Message('note_on', channel=15, note=58, velocity=123, time=0)\n",
      "Message('note_off', channel=5, note=41, velocity=82, time=40)\n",
      "Message('note_off', channel=6, note=65, velocity=85, time=8)\n",
      "Message('note_off', channel=6, note=58, velocity=88, time=0)\n",
      "Message('note_off', channel=6, note=61, velocity=85, time=0)\n",
      "Message('note_off', channel=15, note=58, velocity=123, time=40)\n",
      "Message('note_on', channel=9, note=42, velocity=85, time=8)\n",
      "Message('note_on', channel=9, note=38, velocity=107, time=0)\n",
      "Message('note_on', channel=9, note=39, velocity=83, time=0)\n",
      "Message('note_on', channel=5, note=44, velocity=81, time=0)\n",
      "Message('note_on', channel=15, note=65, velocity=123, time=0)\n",
      "Message('note_off', channel=9, note=39, velocity=83, time=4)\n",
      "Message('note_off', channel=9, note=38, velocity=107, time=0)\n",
      "Message('note_off', channel=9, note=42, velocity=85, time=0)\n",
      "Message('note_off', channel=5, note=44, velocity=81, time=36)\n",
      "Message('note_off', channel=13, note=68, velocity=87, time=48)\n",
      "Message('note_on', channel=5, note=46, velocity=80, time=8)\n",
      "Message('note_on', channel=13, note=66, velocity=84, time=0)\n",
      "Message('note_off', channel=5, note=46, velocity=80, time=40)\n",
      "Message('note_off', channel=15, note=65, velocity=123, time=40)\n",
      "Message('note_off', channel=13, note=66, velocity=84, time=8)\n",
      "Message('note_on', channel=9, note=46, velocity=90, time=8)\n",
      "Message('note_on', channel=2, note=29, velocity=109, time=0)\n",
      "Message('note_on', channel=6, note=58, velocity=85, time=0)\n",
      "Message('note_on', channel=6, note=61, velocity=87, time=0)\n",
      "Message('note_on', channel=6, note=65, velocity=84, time=0)\n",
      "Message('note_on', channel=13, note=65, velocity=89, time=0)\n",
      "Message('note_off', channel=9, note=46, velocity=90, time=4)\n",
      "Message('note_off', channel=6, note=65, velocity=84, time=44)\n",
      "Message('note_off', channel=6, note=61, velocity=87, time=0)\n",
      "Message('note_off', channel=6, note=58, velocity=85, time=0)\n",
      "Message('note_off', channel=13, note=65, velocity=89, time=40)\n",
      "Message('note_off', channel=2, note=29, velocity=109, time=0)\n",
      "Message('note_on', channel=2, note=32, velocity=109, time=8)\n",
      "Message('note_on', channel=5, note=46, velocity=80, time=0)\n",
      "Message('note_on', channel=13, note=63, velocity=86, time=0)\n",
      "Message('note_off', channel=5, note=46, velocity=80, time=40)\n",
      "Message('note_off', channel=13, note=63, velocity=86, time=48)\n",
      "Message('note_off', channel=2, note=32, velocity=109, time=0)\n",
      "Message('note_on', channel=9, note=42, velocity=80, time=8)\n",
      "Message('note_on', channel=9, note=36, velocity=105, time=0)\n",
      "Message('note_on', channel=2, note=34, velocity=109, time=0)\n",
      "Message('note_on', channel=13, note=65, velocity=83, time=0)\n",
      "Message('note_on', channel=14, note=65, velocity=82, time=0)\n",
      "Message('note_on', channel=14, note=68, velocity=80, time=0)\n",
      "Message('note_on', channel=14, note=73, velocity=83, time=0)\n",
      "Message('note_off', channel=9, note=36, velocity=105, time=4)\n",
      "Message('note_off', channel=9, note=42, velocity=80, time=0)\n",
      "Message('note_off', channel=2, note=34, velocity=109, time=84)\n",
      "Message('note_on', channel=9, note=45, velocity=87, time=8)\n",
      "Message('note_off', channel=9, note=45, velocity=87, time=4)\n",
      "Message('note_off', channel=13, note=65, velocity=83, time=84)\n",
      "Message('note_on', channel=9, note=46, velocity=92, time=8)\n",
      "Message('note_on', channel=2, note=32, velocity=111, time=0)\n",
      "Message('note_on', channel=6, note=58, velocity=84, time=0)\n",
      "Message('note_on', channel=6, note=61, velocity=87, time=0)\n",
      "Message('note_on', channel=6, note=65, velocity=88, time=0)\n",
      "Message('note_off', channel=9, note=46, velocity=92, time=4)\n",
      "Message('note_off', channel=6, note=65, velocity=88, time=44)\n",
      "Message('note_off', channel=6, note=61, velocity=87, time=0)\n",
      "Message('note_off', channel=6, note=58, velocity=84, time=0)\n",
      "Message('note_off', channel=14, note=73, velocity=83, time=32)\n",
      "Message('note_off', channel=14, note=68, velocity=80, time=0)\n",
      "Message('note_off', channel=14, note=65, velocity=82, time=0)\n",
      "Message('note_off', channel=2, note=32, velocity=111, time=8)\n",
      "Message('note_on', channel=2, note=34, velocity=111, time=8)\n",
      "Message('note_on', channel=6, note=58, velocity=88, time=0)\n",
      "Message('note_on', channel=6, note=61, velocity=86, time=0)\n",
      "Message('note_on', channel=6, note=65, velocity=86, time=0)\n",
      "Message('note_on', channel=14, note=65, velocity=79, time=0)\n",
      "Message('note_on', channel=14, note=68, velocity=80, time=0)\n",
      "Message('note_on', channel=14, note=73, velocity=81, time=0)\n",
      "Message('note_off', channel=6, note=65, velocity=86, time=48)\n",
      "Message('note_off', channel=6, note=61, velocity=86, time=0)\n",
      "Message('note_off', channel=6, note=58, velocity=88, time=0)\n",
      "Message('note_off', channel=2, note=34, velocity=111, time=40)\n",
      "Message('note_on', channel=9, note=42, velocity=83, time=8)\n",
      "Message('note_on', channel=9, note=38, velocity=101, time=0)\n",
      "Message('note_on', channel=9, note=45, velocity=80, time=0)\n",
      "Message('note_on', channel=9, note=39, velocity=82, time=0)\n",
      "Message('note_on', channel=6, note=61, velocity=88, time=0)\n",
      "Message('note_on', channel=6, note=58, velocity=88, time=0)\n",
      "Message('note_on', channel=6, note=65, velocity=85, time=0)\n",
      "Message('note_off', channel=9, note=39, velocity=82, time=4)\n",
      "Message('note_off', channel=9, note=45, velocity=80, time=0)\n",
      "Message('note_off', channel=9, note=38, velocity=101, time=0)\n",
      "Message('note_off', channel=9, note=42, velocity=83, time=0)\n",
      "Message('note_on', channel=2, note=37, velocity=108, time=92)\n",
      "Message('note_off', channel=6, note=65, velocity=85, time=72)\n",
      "Message('note_off', channel=6, note=58, velocity=88, time=0)\n",
      "Message('note_off', channel=6, note=61, velocity=88, time=0)\n",
      "Message('note_off', channel=14, note=73, velocity=81, time=8)\n",
      "Message('note_off', channel=14, note=68, velocity=80, time=0)\n",
      "Message('note_off', channel=14, note=65, velocity=79, time=0)\n",
      "Message('note_off', channel=2, note=37, velocity=108, time=8)\n",
      "Message('note_on', channel=9, note=46, velocity=90, time=8)\n",
      "Message('note_on', channel=2, note=36, velocity=110, time=0)\n",
      "Message('note_on', channel=6, note=56, velocity=87, time=0)\n",
      "Message('note_on', channel=6, note=60, velocity=86, time=0)\n",
      "Message('note_on', channel=6, note=63, velocity=85, time=0)\n",
      "Message('note_on', channel=14, note=72, velocity=80, time=0)\n",
      "Message('note_on', channel=14, note=68, velocity=83, time=0)\n",
      "Message('note_on', channel=14, note=63, velocity=81, time=0)\n",
      "Message('note_off', channel=9, note=46, velocity=90, time=4)\n",
      "Message('note_off', channel=6, note=63, velocity=85, time=44)\n",
      "Message('note_off', channel=6, note=60, velocity=86, time=0)\n",
      "Message('note_off', channel=6, note=56, velocity=87, time=0)\n",
      "Message('note_off', channel=2, note=36, velocity=110, time=40)\n",
      "Message('note_on', channel=9, note=42, velocity=82, time=104)\n",
      "Message('note_on', channel=9, note=36, velocity=104, time=0)\n",
      "Message('note_on', channel=9, note=45, velocity=83, time=0)\n",
      "Message('note_on', channel=9, note=39, velocity=84, time=0)\n",
      "Message('note_off', channel=9, note=39, velocity=84, time=4)\n",
      "Message('note_off', channel=9, note=45, velocity=83, time=0)\n",
      "Message('note_off', channel=9, note=36, velocity=104, time=0)\n",
      "Message('note_off', channel=9, note=42, velocity=82, time=0)\n",
      "Message('note_off', channel=14, note=63, velocity=81, time=76)\n",
      "Message('note_off', channel=14, note=68, velocity=83, time=0)\n",
      "Message('note_off', channel=14, note=72, velocity=80, time=0)\n",
      "Message('note_on', channel=9, note=45, velocity=82, time=16)\n",
      "Message('note_on', channel=9, note=39, velocity=80, time=0)\n",
      "Message('note_on', channel=5, note=46, velocity=82, time=0)\n",
      "Message('note_off', channel=9, note=39, velocity=80, time=4)\n",
      "Message('note_off', channel=9, note=45, velocity=82, time=0)\n",
      "Message('note_off', channel=5, note=46, velocity=82, time=36)\n",
      "Message('note_on', channel=9, note=46, velocity=87, time=56)\n",
      "Message('note_on', channel=9, note=43, velocity=81, time=0)\n",
      "Message('note_on', channel=9, note=39, velocity=82, time=0)\n",
      "Message('note_on', channel=5, note=46, velocity=80, time=0)\n",
      "Message('note_off', channel=9, note=39, velocity=82, time=4)\n",
      "Message('note_off', channel=9, note=43, velocity=81, time=0)\n",
      "Message('note_off', channel=9, note=46, velocity=87, time=0)\n",
      "Message('note_off', channel=5, note=46, velocity=80, time=36)\n",
      "Message('note_on', channel=9, note=43, velocity=83, time=56)\n",
      "Message('note_on', channel=9, note=39, velocity=86, time=0)\n",
      "Message('note_on', channel=5, note=46, velocity=82, time=0)\n",
      "Message('note_off', channel=9, note=39, velocity=86, time=4)\n",
      "Message('note_off', channel=9, note=43, velocity=83, time=0)\n",
      "Message('note_off', channel=5, note=46, velocity=82, time=36)\n",
      "Message('note_on', channel=9, note=42, velocity=84, time=56)\n",
      "Message('note_on', channel=9, note=38, velocity=107, time=0)\n",
      "Message('note_on', channel=9, note=45, velocity=80, time=0)\n",
      "Message('note_on', channel=9, note=39, velocity=82, time=0)\n",
      "Message('note_on', channel=5, note=49, velocity=82, time=0)\n",
      "Message('note_off', channel=9, note=39, velocity=82, time=4)\n",
      "Message('note_off', channel=9, note=45, velocity=80, time=0)\n",
      "Message('note_off', channel=9, note=38, velocity=107, time=0)\n",
      "Message('note_off', channel=9, note=42, velocity=84, time=0)\n",
      "Message('note_off', channel=5, note=49, velocity=82, time=36)\n",
      "Message('note_on', channel=9, note=45, velocity=80, time=56)\n",
      "Message('note_on', channel=5, note=51, velocity=81, time=0)\n",
      "Message('note_off', channel=9, note=45, velocity=80, time=4)\n",
      "Message('note_off', channel=5, note=51, velocity=81, time=36)\n",
      "Message('note_on', channel=9, note=46, velocity=88, time=56)\n",
      "Message('note_on', channel=9, note=43, velocity=86, time=0)\n",
      "Message('note_on', channel=2, note=34, velocity=109, time=0)\n",
      "Message('note_off', channel=9, note=43, velocity=86, time=4)\n",
      "Message('note_off', channel=9, note=46, velocity=88, time=0)\n",
      "Message('note_off', channel=2, note=34, velocity=109, time=84)\n",
      "Message('note_on', channel=9, note=43, velocity=84, time=8)\n",
      "Message('note_on', channel=2, note=37, velocity=106, time=0)\n",
      "Message('note_off', channel=9, note=43, velocity=84, time=4)\n",
      "Message('note_off', channel=2, note=37, velocity=106, time=84)\n",
      "Message('note_on', channel=9, note=42, velocity=80, time=8)\n",
      "Message('note_on', channel=9, note=36, velocity=108, time=0)\n",
      "Message('note_off', channel=9, note=36, velocity=108, time=4)\n",
      "Message('note_off', channel=9, note=42, velocity=80, time=0)\n",
      "Message('note_on', channel=9, note=46, velocity=88, time=188)\n",
      "Message('note_on', channel=15, note=61, velocity=123, time=0)\n",
      "Message('note_off', channel=9, note=46, velocity=88, time=4)\n",
      "Message('note_off', channel=15, note=61, velocity=123, time=172)\n",
      "Message('note_on', channel=9, note=42, velocity=81, time=16)\n",
      "Message('note_on', channel=9, note=38, velocity=103, time=0)\n",
      "Message('note_on', channel=9, note=39, velocity=82, time=0)\n",
      "Message('note_on', channel=15, note=61, velocity=122, time=0)\n",
      "Message('note_off', channel=9, note=39, velocity=82, time=4)\n",
      "Message('note_off', channel=9, note=38, velocity=103, time=0)\n",
      "Message('note_off', channel=9, note=42, velocity=81, time=0)\n",
      "Message('note_off', channel=15, note=61, velocity=122, time=172)\n",
      "Message('note_on', channel=9, note=42, velocity=84, time=16)\n",
      "Message('note_on', channel=15, note=58, velocity=120, time=0)\n",
      "Message('note_off', channel=9, note=42, velocity=84, time=4)\n",
      "Message('note_on', channel=9, note=42, velocity=85, time=92)\n",
      "Message('note_off', channel=9, note=42, velocity=85, time=4)\n",
      "Message('note_off', channel=15, note=58, velocity=120, time=76)\n",
      "Message('note_on', channel=9, note=42, velocity=82, time=16)\n",
      "Message('note_on', channel=9, note=36, velocity=109, time=0)\n",
      "Message('note_on', channel=15, note=61, velocity=123, time=0)\n",
      "Message('note_off', channel=9, note=36, velocity=109, time=4)\n",
      "Message('note_off', channel=9, note=42, velocity=82, time=0)\n",
      "Message('note_off', channel=15, note=61, velocity=123, time=172)\n",
      "Message('note_on', channel=9, note=46, velocity=91, time=16)\n",
      "Message('note_on', channel=15, note=63, velocity=124, time=0)\n",
      "Message('note_off', channel=9, note=46, velocity=91, time=4)\n",
      "Message('note_on', channel=9, note=42, velocity=80, time=188)\n",
      "Message('note_on', channel=9, note=38, velocity=101, time=0)\n",
      "Message('note_on', channel=9, note=39, velocity=86, time=0)\n",
      "Message('note_off', channel=9, note=39, velocity=86, time=4)\n",
      "Message('note_off', channel=9, note=38, velocity=101, time=0)\n",
      "Message('note_off', channel=9, note=42, velocity=80, time=0)\n",
      "Message('note_off', channel=15, note=63, velocity=124, time=156)\n",
      "Message('note_on', channel=9, note=46, velocity=91, time=32)\n",
      "Message('note_off', channel=9, note=46, velocity=91, time=4)\n",
      "Message('note_on', channel=9, note=42, velocity=82, time=188)\n",
      "Message('note_on', channel=9, note=36, velocity=106, time=0)\n",
      "Message('note_off', channel=9, note=36, velocity=106, time=4)\n",
      "Message('note_off', channel=9, note=42, velocity=82, time=0)\n",
      "Message('note_on', channel=9, note=46, velocity=89, time=188)\n",
      "Message('note_on', channel=15, note=60, velocity=122, time=0)\n",
      "Message('note_off', channel=9, note=46, velocity=89, time=4)\n",
      "Message('note_off', channel=15, note=60, velocity=122, time=172)\n",
      "Message('note_on', channel=9, note=42, velocity=83, time=16)\n",
      "Message('note_on', channel=9, note=38, velocity=108, time=0)\n",
      "Message('note_on', channel=9, note=39, velocity=80, time=0)\n",
      "Message('note_on', channel=15, note=58, velocity=122, time=0)\n",
      "Message('note_off', channel=9, note=39, velocity=80, time=4)\n",
      "Message('note_off', channel=9, note=38, velocity=108, time=0)\n",
      "Message('note_off', channel=9, note=42, velocity=83, time=0)\n",
      "Message('note_off', channel=15, note=58, velocity=122, time=172)\n",
      "Message('note_on', channel=9, note=46, velocity=87, time=16)\n",
      "Message('note_on', channel=15, note=60, velocity=122, time=0)\n",
      "Message('note_off', channel=9, note=46, velocity=87, time=4)\n",
      "Message('note_on', channel=9, note=42, velocity=83, time=188)\n",
      "Message('note_on', channel=9, note=36, velocity=109, time=0)\n",
      "Message('note_off', channel=9, note=36, velocity=109, time=4)\n",
      "Message('note_off', channel=9, note=42, velocity=83, time=0)\n",
      "Message('note_off', channel=15, note=60, velocity=122, time=68)\n",
      "Message('note_on', channel=15, note=58, velocity=124, time=24)\n",
      "Message('note_off', channel=15, note=58, velocity=124, time=88)\n"
     ]
    },
    {
     "name": "stdout",
     "output_type": "stream",
     "text": [
      "Message('note_on', channel=9, note=46, velocity=90, time=8)\n",
      "Message('note_on', channel=15, note=56, velocity=124, time=0)\n",
      "Message('note_off', channel=9, note=46, velocity=90, time=4)\n",
      "Message('note_on', channel=9, note=42, velocity=84, time=188)\n",
      "Message('note_on', channel=9, note=38, velocity=108, time=0)\n",
      "Message('note_on', channel=9, note=39, velocity=84, time=0)\n",
      "Message('note_off', channel=9, note=39, velocity=84, time=4)\n",
      "Message('note_off', channel=9, note=38, velocity=108, time=0)\n",
      "Message('note_off', channel=9, note=42, velocity=84, time=0)\n",
      "Message('note_on', channel=9, note=46, velocity=88, time=188)\n",
      "Message('note_off', channel=9, note=46, velocity=88, time=4)\n",
      "Message('note_off', channel=15, note=56, velocity=124, time=60)\n",
      "Message('note_on', channel=9, note=42, velocity=81, time=128)\n",
      "Message('note_on', channel=9, note=36, velocity=109, time=0)\n",
      "Message('note_off', channel=9, note=36, velocity=109, time=4)\n",
      "Message('note_off', channel=9, note=42, velocity=81, time=0)\n",
      "Message('note_on', channel=9, note=46, velocity=88, time=188)\n",
      "Message('note_on', channel=15, note=58, velocity=120, time=0)\n",
      "Message('note_off', channel=9, note=46, velocity=88, time=4)\n",
      "Message('note_off', channel=15, note=58, velocity=120, time=84)\n",
      "Message('note_on', channel=9, note=42, velocity=84, time=104)\n",
      "Message('note_on', channel=9, note=38, velocity=106, time=0)\n",
      "Message('note_on', channel=9, note=39, velocity=85, time=0)\n",
      "Message('note_on', channel=15, note=58, velocity=120, time=0)\n",
      "Message('note_off', channel=9, note=39, velocity=85, time=4)\n",
      "Message('note_off', channel=9, note=38, velocity=106, time=0)\n",
      "Message('note_off', channel=9, note=42, velocity=84, time=0)\n",
      "Message('note_off', channel=15, note=58, velocity=120, time=172)\n",
      "Message('note_on', channel=9, note=42, velocity=82, time=16)\n",
      "Message('note_on', channel=15, note=60, velocity=123, time=0)\n",
      "Message('note_off', channel=9, note=42, velocity=82, time=4)\n",
      "Message('note_on', channel=9, note=42, velocity=84, time=92)\n",
      "Message('note_off', channel=9, note=42, velocity=84, time=4)\n",
      "Message('note_off', channel=15, note=60, velocity=123, time=76)\n",
      "Message('note_on', channel=9, note=42, velocity=83, time=16)\n",
      "Message('note_on', channel=9, note=36, velocity=106, time=0)\n",
      "Message('note_on', channel=15, note=61, velocity=120, time=0)\n",
      "Message('note_off', channel=9, note=36, velocity=106, time=4)\n",
      "Message('note_off', channel=9, note=42, velocity=83, time=0)\n",
      "Message('note_off', channel=15, note=61, velocity=120, time=172)\n",
      "Message('note_on', channel=9, note=46, velocity=90, time=16)\n",
      "Message('note_on', channel=15, note=58, velocity=119, time=0)\n",
      "Message('note_off', channel=9, note=46, velocity=90, time=4)\n",
      "Message('note_off', channel=15, note=58, velocity=119, time=172)\n",
      "Message('note_on', channel=9, note=42, velocity=83, time=16)\n",
      "Message('note_on', channel=9, note=38, velocity=102, time=0)\n",
      "Message('note_on', channel=9, note=39, velocity=84, time=0)\n",
      "Message('note_on', channel=15, note=56, velocity=124, time=0)\n",
      "Message('note_off', channel=9, note=39, velocity=84, time=4)\n",
      "Message('note_off', channel=9, note=38, velocity=102, time=0)\n",
      "Message('note_off', channel=9, note=42, velocity=83, time=0)\n",
      "Message('note_on', channel=9, note=46, velocity=87, time=188)\n",
      "Message('note_off', channel=9, note=46, velocity=87, time=4)\n",
      "Message('note_off', channel=15, note=56, velocity=124, time=156)\n",
      "Message('note_on', channel=9, note=42, velocity=82, time=32)\n",
      "Message('note_on', channel=9, note=36, velocity=109, time=0)\n",
      "Message('note_on', channel=10, note=54, velocity=60, time=0)\n",
      "Message('note_on', channel=10, note=58, velocity=61, time=0)\n",
      "Message('note_on', channel=10, note=65, velocity=58, time=0)\n",
      "Message('note_on', channel=10, note=61, velocity=60, time=0)\n",
      "Message('note_off', channel=9, note=36, velocity=109, time=4)\n",
      "Message('note_off', channel=9, note=42, velocity=82, time=0)\n",
      "Message('note_on', channel=9, note=46, velocity=88, time=188)\n",
      "Message('note_on', channel=15, note=68, velocity=122, time=0)\n",
      "Message('note_off', channel=9, note=46, velocity=88, time=4)\n",
      "Message('note_off', channel=15, note=68, velocity=122, time=84)\n",
      "Message('note_on', channel=9, note=42, velocity=82, time=104)\n",
      "Message('note_on', channel=9, note=38, velocity=103, time=0)\n",
      "Message('note_on', channel=9, note=39, velocity=82, time=0)\n",
      "Message('note_on', channel=15, note=68, velocity=122, time=0)\n",
      "Message('note_off', channel=9, note=39, velocity=82, time=4)\n",
      "Message('note_off', channel=9, note=38, velocity=103, time=0)\n",
      "Message('note_off', channel=9, note=42, velocity=82, time=0)\n",
      "Message('note_off', channel=10, note=61, velocity=60, time=92)\n",
      "Message('note_off', channel=10, note=65, velocity=58, time=0)\n",
      "Message('note_off', channel=10, note=58, velocity=61, time=0)\n",
      "Message('note_off', channel=10, note=54, velocity=60, time=0)\n",
      "Message('note_off', channel=15, note=68, velocity=122, time=80)\n",
      "Message('note_on', channel=9, note=46, velocity=87, time=16)\n",
      "Message('note_on', channel=10, note=53, velocity=61, time=0)\n",
      "Message('note_on', channel=10, note=60, velocity=61, time=0)\n",
      "Message('note_on', channel=10, note=56, velocity=61, time=0)\n",
      "Message('note_on', channel=10, note=63, velocity=57, time=0)\n",
      "Message('note_on', channel=15, note=63, velocity=123, time=0)\n",
      "Message('note_off', channel=9, note=46, velocity=87, time=4)\n",
      "Message('note_on', channel=9, note=42, velocity=80, time=188)\n",
      "Message('note_on', channel=9, note=36, velocity=106, time=0)\n",
      "Message('note_off', channel=9, note=36, velocity=106, time=4)\n",
      "Message('note_off', channel=9, note=42, velocity=80, time=0)\n",
      "Message('note_off', channel=15, note=63, velocity=123, time=156)\n",
      "Message('note_on', channel=9, note=46, velocity=90, time=32)\n",
      "Message('note_on', channel=15, note=65, velocity=123, time=0)\n",
      "Message('note_off', channel=9, note=46, velocity=90, time=4)\n",
      "Message('note_off', channel=15, note=65, velocity=123, time=172)\n",
      "Message('note_on', channel=9, note=42, velocity=85, time=16)\n",
      "Message('note_on', channel=9, note=38, velocity=109, time=0)\n",
      "Message('note_on', channel=9, note=39, velocity=87, time=0)\n",
      "Message('note_on', channel=15, note=63, velocity=119, time=0)\n",
      "Message('note_off', channel=9, note=39, velocity=87, time=4)\n",
      "Message('note_off', channel=9, note=38, velocity=109, time=0)\n",
      "Message('note_off', channel=9, note=42, velocity=85, time=0)\n",
      "Message('note_off', channel=15, note=63, velocity=119, time=172)\n",
      "Message('note_on', channel=9, note=46, velocity=87, time=16)\n",
      "Message('note_on', channel=15, note=61, velocity=123, time=0)\n",
      "Message('note_off', channel=9, note=46, velocity=87, time=4)\n",
      "Message('note_off', channel=15, note=61, velocity=123, time=172)\n",
      "Message('note_off', channel=10, note=63, velocity=57, time=16)\n",
      "Message('note_off', channel=10, note=56, velocity=61, time=0)\n",
      "Message('note_off', channel=10, note=60, velocity=61, time=0)\n",
      "Message('note_off', channel=10, note=53, velocity=61, time=0)\n",
      "Message('note_on', channel=9, note=42, velocity=85, time=0)\n",
      "Message('note_on', channel=9, note=36, velocity=101, time=0)\n",
      "Message('note_off', channel=9, note=36, velocity=101, time=4)\n",
      "Message('note_off', channel=9, note=42, velocity=85, time=0)\n",
      "Message('note_on', channel=9, note=46, velocity=88, time=188)\n",
      "Message('note_on', channel=15, note=61, velocity=119, time=0)\n",
      "Message('note_off', channel=9, note=46, velocity=88, time=4)\n",
      "Message('note_off', channel=15, note=61, velocity=119, time=172)\n",
      "Message('note_on', channel=9, note=42, velocity=80, time=16)\n",
      "Message('note_on', channel=9, note=38, velocity=103, time=0)\n",
      "Message('note_on', channel=9, note=39, velocity=80, time=0)\n",
      "Message('note_on', channel=15, note=61, velocity=122, time=0)\n",
      "Message('note_off', channel=9, note=39, velocity=80, time=4)\n",
      "Message('note_off', channel=9, note=38, velocity=103, time=0)\n",
      "Message('note_off', channel=9, note=42, velocity=80, time=0)\n",
      "Message('note_off', channel=15, note=61, velocity=122, time=172)\n",
      "Message('note_on', channel=9, note=42, velocity=83, time=16)\n",
      "Message('note_on', channel=15, note=58, velocity=119, time=0)\n",
      "Message('note_off', channel=9, note=42, velocity=83, time=4)\n",
      "Message('note_on', channel=9, note=42, velocity=84, time=92)\n",
      "Message('note_off', channel=9, note=42, velocity=84, time=4)\n",
      "Message('note_off', channel=15, note=58, velocity=119, time=76)\n",
      "Message('note_on', channel=9, note=42, velocity=85, time=16)\n",
      "Message('note_on', channel=9, note=36, velocity=109, time=0)\n",
      "Message('note_on', channel=15, note=61, velocity=123, time=0)\n",
      "Message('note_off', channel=9, note=36, velocity=109, time=4)\n",
      "Message('note_off', channel=9, note=42, velocity=85, time=0)\n",
      "Message('note_off', channel=15, note=61, velocity=123, time=172)\n",
      "Message('note_on', channel=9, note=46, velocity=90, time=16)\n",
      "Message('note_on', channel=15, note=58, velocity=121, time=0)\n",
      "Message('note_off', channel=9, note=46, velocity=90, time=4)\n",
      "Message('note_off', channel=15, note=58, velocity=121, time=172)\n",
      "Message('note_on', channel=9, note=42, velocity=84, time=16)\n",
      "Message('note_on', channel=9, note=38, velocity=102, time=0)\n",
      "Message('note_on', channel=9, note=39, velocity=84, time=0)\n",
      "Message('note_on', channel=15, note=61, velocity=122, time=0)\n",
      "Message('note_off', channel=9, note=39, velocity=84, time=4)\n",
      "Message('note_off', channel=9, note=38, velocity=102, time=0)\n",
      "Message('note_off', channel=9, note=42, velocity=84, time=0)\n",
      "Message('note_off', channel=15, note=61, velocity=122, time=172)\n",
      "Message('note_on', channel=9, note=46, velocity=92, time=16)\n",
      "Message('note_on', channel=15, note=63, velocity=119, time=0)\n",
      "Message('note_off', channel=9, note=46, velocity=92, time=4)\n",
      "Message('note_off', channel=15, note=63, velocity=119, time=172)\n",
      "Message('note_on', channel=9, note=42, velocity=83, time=16)\n",
      "Message('note_on', channel=9, note=36, velocity=102, time=0)\n",
      "Message('note_off', channel=9, note=36, velocity=102, time=4)\n",
      "Message('note_off', channel=9, note=42, velocity=83, time=0)\n",
      "Message('note_on', channel=9, note=46, velocity=90, time=188)\n",
      "Message('note_on', channel=15, note=60, velocity=120, time=0)\n",
      "Message('note_off', channel=9, note=46, velocity=90, time=4)\n",
      "Message('note_off', channel=15, note=60, velocity=120, time=172)\n",
      "Message('note_on', channel=9, note=42, velocity=85, time=16)\n",
      "Message('note_on', channel=9, note=38, velocity=106, time=0)\n",
      "Message('note_on', channel=9, note=39, velocity=87, time=0)\n",
      "Message('note_on', channel=15, note=58, velocity=122, time=0)\n",
      "Message('note_off', channel=9, note=39, velocity=87, time=4)\n",
      "Message('note_off', channel=9, note=38, velocity=106, time=0)\n",
      "Message('note_off', channel=9, note=42, velocity=85, time=0)\n",
      "Message('note_off', channel=15, note=58, velocity=122, time=172)\n",
      "Message('note_on', channel=9, note=46, velocity=87, time=16)\n",
      "Message('note_on', channel=15, note=60, velocity=124, time=0)\n",
      "Message('note_off', channel=9, note=46, velocity=87, time=4)\n",
      "Message('note_on', channel=9, note=42, velocity=85, time=188)\n",
      "Message('note_on', channel=9, note=36, velocity=108, time=0)\n",
      "Message('note_off', channel=9, note=36, velocity=108, time=4)\n",
      "Message('note_off', channel=9, note=42, velocity=85, time=0)\n",
      "Message('note_off', channel=15, note=60, velocity=124, time=68)\n",
      "Message('note_on', channel=15, note=58, velocity=123, time=24)\n",
      "Message('note_off', channel=15, note=58, velocity=123, time=88)\n",
      "Message('note_on', channel=9, note=46, velocity=90, time=8)\n",
      "Message('note_on', channel=15, note=56, velocity=123, time=0)\n",
      "Message('note_off', channel=9, note=46, velocity=90, time=4)\n",
      "Message('note_on', channel=9, note=42, velocity=83, time=188)\n",
      "Message('note_on', channel=9, note=38, velocity=106, time=0)\n",
      "Message('note_on', channel=9, note=39, velocity=87, time=0)\n",
      "Message('note_off', channel=9, note=39, velocity=87, time=4)\n",
      "Message('note_off', channel=9, note=38, velocity=106, time=0)\n",
      "Message('note_off', channel=9, note=42, velocity=83, time=0)\n",
      "Message('note_on', channel=9, note=46, velocity=88, time=188)\n",
      "Message('note_off', channel=9, note=46, velocity=88, time=4)\n",
      "Message('note_off', channel=15, note=56, velocity=123, time=60)\n",
      "Message('note_on', channel=9, note=42, velocity=82, time=128)\n",
      "Message('note_on', channel=9, note=36, velocity=101, time=0)\n",
      "Message('note_off', channel=9, note=36, velocity=101, time=4)\n",
      "Message('note_off', channel=9, note=42, velocity=82, time=0)\n",
      "Message('note_on', channel=9, note=46, velocity=90, time=188)\n",
      "Message('note_on', channel=15, note=58, velocity=124, time=0)\n",
      "Message('note_off', channel=9, note=46, velocity=90, time=4)\n",
      "Message('note_off', channel=15, note=58, velocity=124, time=172)\n",
      "Message('note_on', channel=9, note=42, velocity=83, time=16)\n",
      "Message('note_on', channel=9, note=38, velocity=108, time=0)\n",
      "Message('note_on', channel=9, note=39, velocity=84, time=0)\n",
      "Message('note_on', channel=15, note=58, velocity=124, time=0)\n",
      "Message('note_off', channel=9, note=39, velocity=84, time=4)\n",
      "Message('note_off', channel=9, note=38, velocity=108, time=0)\n",
      "Message('note_off', channel=9, note=42, velocity=83, time=0)\n",
      "Message('note_off', channel=15, note=58, velocity=124, time=172)\n",
      "Message('note_on', channel=9, note=42, velocity=84, time=16)\n",
      "Message('note_on', channel=15, note=60, velocity=119, time=0)\n",
      "Message('note_off', channel=9, note=42, velocity=84, time=4)\n",
      "Message('note_on', channel=9, note=42, velocity=85, time=92)\n",
      "Message('note_off', channel=9, note=42, velocity=85, time=4)\n",
      "Message('note_off', channel=15, note=60, velocity=119, time=76)\n",
      "Message('note_on', channel=9, note=42, velocity=85, time=16)\n",
      "Message('note_on', channel=9, note=36, velocity=103, time=0)\n",
      "Message('note_on', channel=15, note=61, velocity=122, time=0)\n",
      "Message('note_off', channel=9, note=36, velocity=103, time=4)\n",
      "Message('note_off', channel=9, note=42, velocity=85, time=0)\n",
      "Message('note_off', channel=15, note=61, velocity=122, time=172)\n",
      "Message('note_on', channel=9, note=46, velocity=88, time=16)\n",
      "Message('note_on', channel=15, note=58, velocity=119, time=0)\n",
      "Message('note_off', channel=9, note=46, velocity=88, time=4)\n",
      "Message('note_off', channel=15, note=58, velocity=119, time=172)\n",
      "Message('note_on', channel=9, note=42, velocity=84, time=16)\n",
      "Message('note_on', channel=9, note=38, velocity=104, time=0)\n",
      "Message('note_on', channel=9, note=39, velocity=81, time=0)\n",
      "Message('note_on', channel=15, note=56, velocity=124, time=0)\n",
      "Message('note_off', channel=9, note=39, velocity=81, time=4)\n",
      "Message('note_off', channel=9, note=38, velocity=104, time=0)\n",
      "Message('note_off', channel=9, note=42, velocity=84, time=0)\n",
      "Message('note_on', channel=9, note=46, velocity=89, time=188)\n",
      "Message('note_off', channel=9, note=46, velocity=89, time=4)\n",
      "Message('note_off', channel=15, note=56, velocity=124, time=156)\n",
      "Message('note_on', channel=9, note=42, velocity=84, time=32)\n",
      "Message('note_on', channel=9, note=36, velocity=109, time=0)\n",
      "Message('note_on', channel=10, note=65, velocity=61, time=0)\n",
      "Message('note_on', channel=10, note=54, velocity=60, time=0)\n",
      "Message('note_on', channel=10, note=58, velocity=61, time=0)\n",
      "Message('note_on', channel=10, note=61, velocity=60, time=0)\n",
      "Message('note_off', channel=9, note=36, velocity=109, time=4)\n",
      "Message('note_off', channel=9, note=42, velocity=84, time=0)\n",
      "Message('note_on', channel=9, note=46, velocity=92, time=188)\n",
      "Message('note_on', channel=15, note=63, velocity=120, time=0)\n",
      "Message('note_off', channel=9, note=46, velocity=92, time=4)\n",
      "Message('note_off', channel=15, note=63, velocity=120, time=172)\n",
      "Message('note_on', channel=9, note=42, velocity=80, time=16)\n",
      "Message('note_on', channel=9, note=38, velocity=105, time=0)\n",
      "Message('note_on', channel=9, note=39, velocity=81, time=0)\n",
      "Message('note_on', channel=15, note=65, velocity=120, time=0)\n",
      "Message('note_off', channel=9, note=39, velocity=81, time=4)\n",
      "Message('note_off', channel=9, note=38, velocity=105, time=0)\n",
      "Message('note_off', channel=9, note=42, velocity=80, time=0)\n",
      "Message('note_off', channel=10, note=61, velocity=60, time=92)\n",
      "Message('note_off', channel=10, note=58, velocity=61, time=0)\n",
      "Message('note_off', channel=10, note=54, velocity=60, time=0)\n",
      "Message('note_off', channel=10, note=65, velocity=61, time=0)\n",
      "Message('note_off', channel=15, note=65, velocity=120, time=80)\n",
      "Message('note_on', channel=9, note=46, velocity=91, time=16)\n",
      "Message('note_on', channel=10, note=53, velocity=59, time=0)\n",
      "Message('note_on', channel=10, note=56, velocity=62, time=0)\n",
      "Message('note_on', channel=10, note=60, velocity=58, time=0)\n",
      "Message('note_on', channel=10, note=63, velocity=60, time=0)\n",
      "Message('note_on', channel=15, note=65, velocity=119, time=0)\n",
      "Message('note_off', channel=9, note=46, velocity=91, time=4)\n",
      "Message('note_on', channel=9, note=42, velocity=80, time=188)\n",
      "Message('note_on', channel=9, note=36, velocity=105, time=0)\n",
      "Message('note_on', channel=9, note=45, velocity=82, time=0)\n",
      "Message('note_off', channel=9, note=45, velocity=82, time=4)\n",
      "Message('note_off', channel=9, note=36, velocity=105, time=0)\n",
      "Message('note_off', channel=9, note=42, velocity=80, time=0)\n",
      "Message('note_on', channel=9, note=45, velocity=83, time=92)\n",
      "Message('note_off', channel=9, note=45, velocity=83, time=4)\n",
      "Message('note_off', channel=15, note=65, velocity=119, time=60)\n",
      "Message('note_on', channel=9, note=46, velocity=87, time=32)\n",
      "Message('note_on', channel=9, note=43, velocity=87, time=0)\n",
      "Message('note_on', channel=15, note=63, velocity=124, time=0)\n",
      "Message('note_off', channel=9, note=43, velocity=87, time=4)\n",
      "Message('note_off', channel=9, note=46, velocity=87, time=0)\n",
      "Message('note_on', channel=9, note=43, velocity=86, time=92)\n",
      "Message('note_off', channel=9, note=43, velocity=86, time=4)\n",
      "Message('note_on', channel=9, note=42, velocity=81, time=92)\n",
      "Message('note_on', channel=9, note=38, velocity=101, time=0)\n",
      "Message('note_on', channel=9, note=45, velocity=84, time=0)\n",
      "Message('note_on', channel=9, note=39, velocity=83, time=0)\n",
      "Message('note_off', channel=9, note=39, velocity=83, time=4)\n",
      "Message('note_off', channel=9, note=45, velocity=84, time=0)\n",
      "Message('note_off', channel=9, note=38, velocity=101, time=0)\n",
      "Message('note_off', channel=9, note=42, velocity=81, time=0)\n",
      "Message('note_on', channel=9, note=45, velocity=86, time=92)\n",
      "Message('note_off', channel=9, note=45, velocity=86, time=4)\n",
      "Message('note_off', channel=15, note=63, velocity=124, time=60)\n",
      "Message('note_on', channel=9, note=46, velocity=90, time=32)\n",
      "Message('note_on', channel=9, note=43, velocity=86, time=0)\n",
      "Message('note_off', channel=9, note=43, velocity=86, time=4)\n",
      "Message('note_off', channel=9, note=46, velocity=90, time=0)\n",
      "Message('note_off', channel=10, note=63, velocity=60, time=92)\n",
      "Message('note_off', channel=10, note=60, velocity=58, time=0)\n",
      "Message('note_off', channel=10, note=56, velocity=62, time=0)\n",
      "Message('note_off', channel=10, note=53, velocity=59, time=0)\n",
      "Message('note_on', channel=9, note=43, velocity=82, time=0)\n",
      "Message('note_off', channel=9, note=43, velocity=82, time=4)\n",
      "Message('note_on', channel=9, note=42, velocity=83, time=92)\n",
      "Message('note_on', channel=9, note=36, velocity=109, time=0)\n",
      "Message('note_on', channel=2, note=34, velocity=111, time=0)\n",
      "Message('note_on', channel=3, note=66, velocity=91, time=0)\n",
      "Message('note_on', channel=3, note=70, velocity=92, time=0)\n",
      "Message('note_on', channel=3, note=61, velocity=87, time=0)\n",
      "Message('note_on', channel=3, note=63, velocity=90, time=0)\n",
      "Message('note_on', channel=4, note=70, velocity=84, time=0)\n",
      "Message('note_on', channel=4, note=63, velocity=82, time=0)\n",
      "Message('note_on', channel=4, note=61, velocity=84, time=0)\n",
      "Message('note_on', channel=4, note=66, velocity=87, time=0)\n",
      "Message('note_on', channel=8, note=82, velocity=98, time=0)\n",
      "Message('note_on', channel=15, note=61, velocity=119, time=0)\n",
      "Message('note_off', channel=9, note=36, velocity=109, time=4)\n",
      "Message('note_off', channel=9, note=42, velocity=83, time=0)\n",
      "Message('note_off', channel=2, note=34, velocity=111, time=84)\n",
      "Message('note_on', channel=9, note=46, velocity=91, time=104)\n",
      "Message('note_on', channel=2, note=34, velocity=111, time=0)\n",
      "Message('note_off', channel=9, note=46, velocity=91, time=4)\n",
      "Message('note_off', channel=2, note=34, velocity=111, time=84)\n",
      "Message('note_on', channel=2, note=34, velocity=107, time=8)\n",
      "Message('note_off', channel=2, note=34, velocity=107, time=88)\n",
      "Message('note_on', channel=9, note=42, velocity=82, time=8)\n",
      "Message('note_on', channel=9, note=38, velocity=105, time=0)\n",
      "Message('note_on', channel=9, note=39, velocity=81, time=0)\n",
      "Message('note_off', channel=9, note=39, velocity=81, time=4)\n",
      "Message('note_off', channel=9, note=38, velocity=105, time=0)\n",
      "Message('note_off', channel=9, note=42, velocity=82, time=0)\n",
      "Message('note_on', channel=2, note=37, velocity=111, time=92)\n",
      "Message('note_off', channel=2, note=37, velocity=111, time=88)\n",
      "Message('note_on', channel=9, note=42, velocity=80, time=8)\n",
      "Message('note_on', channel=2, note=36, velocity=111, time=0)\n",
      "Message('note_off', channel=9, note=42, velocity=80, time=4)\n",
      "Message('note_off', channel=2, note=36, velocity=111, time=84)\n",
      "Message('note_on', channel=9, note=42, velocity=84, time=8)\n",
      "Message('note_off', channel=9, note=42, velocity=84, time=4)\n",
      "Message('note_on', channel=9, note=42, velocity=81, time=92)\n",
      "Message('note_on', channel=9, note=36, velocity=108, time=0)\n",
      "Message('note_on', channel=2, note=32, velocity=106, time=0)\n",
      "Message('note_off', channel=9, note=36, velocity=108, time=4)\n",
      "Message('note_off', channel=9, note=42, velocity=81, time=0)\n",
      "Message('note_off', channel=15, note=61, velocity=119, time=60)\n",
      "Message('note_off', channel=2, note=32, velocity=106, time=128)\n",
      "Message('note_on', channel=9, note=46, velocity=92, time=0)\n",
      "Message('note_on', channel=2, note=34, velocity=109, time=0)\n",
      "Message('note_on', channel=15, note=63, velocity=122, time=0)\n",
      "Message('note_off', channel=9, note=46, velocity=92, time=4)\n",
      "Message('note_off', channel=2, note=34, velocity=109, time=84)\n",
      "Message('note_off', channel=15, note=63, velocity=122, time=88)\n",
      "Message('note_on', channel=9, note=42, velocity=82, time=16)\n",
      "Message('note_on', channel=9, note=38, velocity=108, time=0)\n",
      "Message('note_on', channel=9, note=39, velocity=80, time=0)\n",
      "Message('note_on', channel=15, note=65, velocity=122, time=0)\n",
      "Message('note_off', channel=9, note=39, velocity=80, time=4)\n",
      "Message('note_off', channel=9, note=38, velocity=108, time=0)\n",
      "Message('note_off', channel=9, note=42, velocity=82, time=0)\n",
      "Message('note_off', channel=15, note=65, velocity=122, time=172)\n",
      "Message('note_on', channel=9, note=46, velocity=90, time=16)\n",
      "Message('note_on', channel=2, note=29, velocity=106, time=0)\n",
      "Message('note_on', channel=15, note=61, velocity=122, time=0)\n",
      "Message('note_off', channel=9, note=46, velocity=90, time=4)\n",
      "Message('note_off', channel=2, note=29, velocity=106, time=84)\n",
      "Message('note_off', channel=4, note=66, velocity=87, time=8)\n",
      "Message('note_off', channel=4, note=61, velocity=84, time=0)\n",
      "Message('note_off', channel=4, note=63, velocity=82, time=0)\n",
      "Message('note_off', channel=4, note=70, velocity=84, time=0)\n",
      "Message('note_off', channel=3, note=63, velocity=90, time=0)\n",
      "Message('note_off', channel=3, note=61, velocity=87, time=0)\n",
      "Message('note_off', channel=3, note=70, velocity=92, time=0)\n",
      "Message('note_off', channel=3, note=66, velocity=91, time=0)\n",
      "Message('note_on', channel=2, note=32, velocity=110, time=0)\n",
      "Message('note_off', channel=8, note=82, velocity=98, time=48)\n",
      "Message('note_off', channel=15, note=61, velocity=122, time=32)\n",
      "Message('note_off', channel=2, note=32, velocity=110, time=8)\n",
      "Message('note_on', channel=9, note=42, velocity=84, time=8)\n",
      "Message('note_on', channel=9, note=36, velocity=102, time=0)\n",
      "Message('note_on', channel=2, note=34, velocity=108, time=0)\n",
      "Message('note_on', channel=3, note=65, velocity=90, time=0)\n",
      "Message('note_on', channel=3, note=68, velocity=89, time=0)\n",
      "Message('note_on', channel=3, note=60, velocity=93, time=0)\n",
      "Message('note_on', channel=3, note=63, velocity=93, time=0)\n",
      "Message('note_on', channel=4, note=68, velocity=83, time=0)\n",
      "Message('note_on', channel=4, note=63, velocity=85, time=0)\n",
      "Message('note_on', channel=4, note=65, velocity=85, time=0)\n",
      "Message('note_on', channel=4, note=60, velocity=87, time=0)\n",
      "Message('note_on', channel=8, note=87, velocity=97, time=0)\n",
      "Message('note_on', channel=15, note=63, velocity=123, time=0)\n",
      "Message('note_off', channel=9, note=36, velocity=102, time=4)\n",
      "Message('note_off', channel=9, note=42, velocity=84, time=0)\n",
      "Message('note_off', channel=2, note=34, velocity=108, time=84)\n",
      "Message('note_off', channel=15, note=63, velocity=123, time=88)\n",
      "Message('note_on', channel=9, note=46, velocity=89, time=16)\n",
      "Message('note_on', channel=2, note=32, velocity=111, time=0)\n",
      "Message('note_on', channel=15, note=63, velocity=124, time=0)\n",
      "Message('note_off', channel=9, note=46, velocity=89, time=4)\n",
      "Message('note_off', channel=2, note=32, velocity=111, time=84)\n",
      "Message('note_on', channel=2, note=34, velocity=106, time=8)\n",
      "Message('note_off', channel=15, note=63, velocity=124, time=72)\n",
      "Message('note_off', channel=2, note=34, velocity=106, time=16)\n",
      "Message('note_on', channel=9, note=42, velocity=81, time=8)\n",
      "Message('note_on', channel=9, note=38, velocity=104, time=0)\n",
      "Message('note_on', channel=9, note=39, velocity=83, time=0)\n",
      "Message('note_on', channel=15, note=63, velocity=120, time=0)\n",
      "Message('note_off', channel=9, note=39, velocity=83, time=4)\n",
      "Message('note_off', channel=9, note=38, velocity=104, time=0)\n",
      "Message('note_off', channel=9, note=42, velocity=81, time=0)\n",
      "Message('note_on', channel=2, note=37, velocity=109, time=92)\n",
      "Message('note_off', channel=15, note=63, velocity=120, time=80)\n",
      "Message('note_off', channel=2, note=37, velocity=109, time=8)\n",
      "Message('note_on', channel=9, note=46, velocity=91, time=8)\n",
      "Message('note_on', channel=2, note=36, velocity=109, time=0)\n",
      "Message('note_on', channel=15, note=65, velocity=124, time=0)\n",
      "Message('note_off', channel=9, note=46, velocity=91, time=4)\n",
      "Message('note_off', channel=2, note=36, velocity=109, time=84)\n",
      "Message('note_off', channel=8, note=87, velocity=97, time=56)\n",
      "Message('note_off', channel=15, note=65, velocity=124, time=32)\n",
      "Message('note_on', channel=9, note=42, velocity=80, time=16)\n",
      "Message('note_on', channel=9, note=36, velocity=104, time=0)\n",
      "Message('note_on', channel=8, note=89, velocity=94, time=0)\n",
      "Message('note_on', channel=15, note=63, velocity=120, time=0)\n",
      "Message('note_off', channel=9, note=36, velocity=104, time=4)\n",
      "Message('note_off', channel=9, note=42, velocity=80, time=0)\n",
      "Message('note_off', channel=15, note=63, velocity=120, time=172)\n",
      "Message('note_on', channel=9, note=46, velocity=88, time=16)\n",
      "Message('note_on', channel=15, note=56, velocity=123, time=0)\n",
      "Message('note_off', channel=9, note=46, velocity=88, time=4)\n",
      "Message('note_off', channel=15, note=56, velocity=123, time=172)\n",
      "Message('note_on', channel=9, note=42, velocity=83, time=16)\n",
      "Message('note_on', channel=9, note=38, velocity=103, time=0)\n",
      "Message('note_on', channel=9, note=39, velocity=85, time=0)\n",
      "Message('note_on', channel=15, note=56, velocity=122, time=0)\n",
      "Message('note_off', channel=9, note=39, velocity=85, time=4)\n",
      "Message('note_off', channel=9, note=38, velocity=103, time=0)\n",
      "Message('note_off', channel=9, note=42, velocity=83, time=0)\n",
      "Message('note_on', channel=9, note=46, velocity=87, time=188)\n",
      "Message('note_on', channel=2, note=29, velocity=106, time=0)\n",
      "Message('note_off', channel=9, note=46, velocity=87, time=4)\n",
      "Message('note_off', channel=2, note=29, velocity=106, time=84)\n",
      "Message('note_off', channel=4, note=60, velocity=87, time=8)\n",
      "Message('note_off', channel=4, note=65, velocity=85, time=0)\n",
      "Message('note_off', channel=4, note=63, velocity=85, time=0)\n",
      "Message('note_off', channel=4, note=68, velocity=83, time=0)\n",
      "Message('note_off', channel=3, note=63, velocity=93, time=0)\n",
      "Message('note_off', channel=3, note=60, velocity=93, time=0)\n",
      "Message('note_off', channel=3, note=68, velocity=89, time=0)\n",
      "Message('note_off', channel=3, note=65, velocity=90, time=0)\n",
      "Message('note_on', channel=2, note=32, velocity=107, time=0)\n",
      "Message('note_off', channel=8, note=89, velocity=94, time=48)\n",
      "Message('note_off', channel=2, note=32, velocity=107, time=40)\n",
      "Message('note_on', channel=9, note=42, velocity=85, time=8)\n",
      "Message('note_on', channel=9, note=36, velocity=107, time=0)\n",
      "Message('note_on', channel=2, note=34, velocity=111, time=0)\n",
      "Message('note_on', channel=3, note=66, velocity=92, time=0)\n",
      "Message('note_on', channel=3, note=63, velocity=92, time=0)\n",
      "Message('note_on', channel=3, note=70, velocity=86, time=0)\n",
      "Message('note_on', channel=3, note=61, velocity=92, time=0)\n",
      "Message('note_on', channel=4, note=70, velocity=84, time=0)\n",
      "Message('note_on', channel=4, note=61, velocity=83, time=0)\n",
      "Message('note_on', channel=4, note=63, velocity=84, time=0)\n",
      "Message('note_on', channel=4, note=66, velocity=85, time=0)\n",
      "Message('note_on', channel=8, note=82, velocity=95, time=0)\n",
      "Message('note_off', channel=9, note=36, velocity=107, time=4)\n",
      "Message('note_off', channel=9, note=42, velocity=85, time=0)\n",
      "Message('note_off', channel=2, note=34, velocity=111, time=84)\n",
      "Message('note_on', channel=9, note=46, velocity=92, time=104)\n",
      "Message('note_on', channel=2, note=34, velocity=106, time=0)\n",
      "Message('note_off', channel=9, note=46, velocity=92, time=4)\n",
      "Message('note_off', channel=2, note=34, velocity=106, time=84)\n",
      "Message('note_on', channel=2, note=34, velocity=111, time=8)\n",
      "Message('note_off', channel=15, note=56, velocity=122, time=64)\n",
      "Message('note_off', channel=2, note=34, velocity=111, time=24)\n",
      "Message('note_on', channel=9, note=42, velocity=83, time=8)\n",
      "Message('note_on', channel=9, note=38, velocity=102, time=0)\n",
      "Message('note_on', channel=9, note=39, velocity=80, time=0)\n",
      "Message('note_off', channel=9, note=39, velocity=80, time=4)\n",
      "Message('note_off', channel=9, note=38, velocity=102, time=0)\n",
      "Message('note_off', channel=9, note=42, velocity=83, time=0)\n",
      "Message('note_on', channel=2, note=37, velocity=111, time=92)\n",
      "Message('note_off', channel=2, note=37, velocity=111, time=88)\n",
      "Message('note_on', channel=9, note=42, velocity=83, time=8)\n",
      "Message('note_on', channel=2, note=36, velocity=108, time=0)\n",
      "Message('note_off', channel=9, note=42, velocity=83, time=4)\n",
      "Message('note_off', channel=2, note=36, velocity=108, time=84)\n",
      "Message('note_on', channel=9, note=42, velocity=80, time=8)\n",
      "Message('note_off', channel=9, note=42, velocity=80, time=4)\n",
      "Message('note_on', channel=9, note=42, velocity=82, time=92)\n",
      "Message('note_on', channel=9, note=36, velocity=104, time=0)\n",
      "Message('note_on', channel=2, note=32, velocity=108, time=0)\n",
      "Message('note_on', channel=15, note=58, velocity=123, time=0)\n",
      "Message('note_off', channel=9, note=36, velocity=104, time=4)\n",
      "Message('note_off', channel=9, note=42, velocity=82, time=0)\n",
      "Message('note_off', channel=2, note=32, velocity=108, time=84)\n",
      "Message('note_off', channel=15, note=58, velocity=123, time=88)\n",
      "Message('note_on', channel=9, note=46, velocity=91, time=16)\n",
      "Message('note_on', channel=2, note=34, velocity=110, time=0)\n",
      "Message('note_on', channel=15, note=60, velocity=124, time=0)\n",
      "Message('note_off', channel=9, note=46, velocity=91, time=4)\n",
      "Message('note_off', channel=2, note=34, velocity=110, time=84)\n",
      "Message('note_off', channel=15, note=60, velocity=124, time=88)\n",
      "Message('note_on', channel=9, note=42, velocity=81, time=16)\n",
      "Message('note_on', channel=9, note=38, velocity=104, time=0)\n",
      "Message('note_on', channel=9, note=39, velocity=83, time=0)\n",
      "Message('note_on', channel=15, note=61, velocity=122, time=0)\n",
      "Message('note_off', channel=9, note=39, velocity=83, time=4)\n",
      "Message('note_off', channel=9, note=38, velocity=104, time=0)\n",
      "Message('note_off', channel=9, note=42, velocity=81, time=0)\n",
      "Message('note_off', channel=15, note=61, velocity=122, time=172)\n",
      "Message('note_on', channel=9, note=46, velocity=87, time=16)\n",
      "Message('note_on', channel=2, note=29, velocity=109, time=0)\n",
      "Message('note_on', channel=15, note=58, velocity=123, time=0)\n",
      "Message('note_off', channel=9, note=46, velocity=87, time=4)\n",
      "Message('note_off', channel=2, note=29, velocity=109, time=84)\n",
      "Message('note_off', channel=4, note=66, velocity=85, time=8)\n",
      "Message('note_off', channel=4, note=63, velocity=84, time=0)\n",
      "Message('note_off', channel=4, note=61, velocity=83, time=0)\n",
      "Message('note_off', channel=4, note=70, velocity=84, time=0)\n",
      "Message('note_off', channel=3, note=61, velocity=92, time=0)\n",
      "Message('note_off', channel=3, note=70, velocity=86, time=0)\n",
      "Message('note_off', channel=3, note=63, velocity=92, time=0)\n",
      "Message('note_off', channel=3, note=66, velocity=92, time=0)\n",
      "Message('note_on', channel=2, note=32, velocity=108, time=0)\n",
      "Message('note_off', channel=8, note=82, velocity=95, time=48)\n",
      "Message('note_off', channel=15, note=58, velocity=123, time=32)\n",
      "Message('note_off', channel=2, note=32, velocity=108, time=8)\n",
      "Message('note_on', channel=9, note=42, velocity=84, time=8)\n",
      "Message('note_on', channel=9, note=36, velocity=103, time=0)\n",
      "Message('note_on', channel=2, note=34, velocity=111, time=0)\n",
      "Message('note_on', channel=3, note=66, velocity=90, time=0)\n",
      "Message('note_on', channel=3, note=70, velocity=87, time=0)\n",
      "Message('note_on', channel=3, note=61, velocity=92, time=0)\n",
      "Message('note_on', channel=3, note=63, velocity=89, time=0)\n",
      "Message('note_on', channel=4, note=70, velocity=84, time=0)\n",
      "Message('note_on', channel=4, note=63, velocity=86, time=0)\n",
      "Message('note_on', channel=4, note=61, velocity=85, time=0)\n",
      "Message('note_on', channel=4, note=66, velocity=85, time=0)\n",
      "Message('note_off', channel=9, note=36, velocity=103, time=4)\n",
      "Message('note_off', channel=9, note=42, velocity=84, time=0)\n",
      "Message('note_off', channel=2, note=34, velocity=111, time=84)\n",
      "Message('note_off', channel=3, note=63, velocity=89, time=8)\n",
      "Message('note_off', channel=3, note=61, velocity=92, time=0)\n",
      "Message('note_off', channel=3, note=70, velocity=87, time=0)\n",
      "Message('note_off', channel=3, note=66, velocity=90, time=0)\n",
      "Message('note_off', channel=4, note=66, velocity=85, time=96)\n",
      "Message('note_off', channel=4, note=61, velocity=85, time=0)\n",
      "Message('note_off', channel=4, note=63, velocity=86, time=0)\n",
      "Message('note_off', channel=4, note=70, velocity=84, time=0)\n",
      "Message('note_on', channel=9, note=46, velocity=92, time=0)\n",
      "Message('note_on', channel=2, note=32, velocity=109, time=0)\n",
      "Message('note_on', channel=15, note=63, velocity=120, time=0)\n",
      "Message('note_off', channel=9, note=46, velocity=92, time=4)\n",
      "Message('note_off', channel=2, note=32, velocity=109, time=84)\n",
      "Message('note_on', channel=2, note=34, velocity=106, time=8)\n",
      "Message('note_on', channel=3, note=66, velocity=86, time=0)\n",
      "Message('note_on', channel=3, note=70, velocity=86, time=0)\n",
      "Message('note_on', channel=3, note=63, velocity=90, time=0)\n",
      "Message('note_on', channel=3, note=61, velocity=93, time=0)\n",
      "Message('note_on', channel=4, note=70, velocity=86, time=0)\n",
      "Message('note_on', channel=4, note=63, velocity=87, time=0)\n",
      "Message('note_on', channel=4, note=61, velocity=82, time=0)\n",
      "Message('note_on', channel=4, note=66, velocity=84, time=0)\n",
      "Message('note_off', channel=15, note=63, velocity=120, time=80)\n",
      "Message('note_off', channel=2, note=34, velocity=106, time=8)\n",
      "Message('note_off', channel=4, note=66, velocity=84, time=8)\n",
      "Message('note_off', channel=4, note=61, velocity=82, time=0)\n",
      "Message('note_off', channel=4, note=63, velocity=87, time=0)\n",
      "Message('note_off', channel=4, note=70, velocity=86, time=0)\n",
      "Message('note_off', channel=3, note=61, velocity=93, time=0)\n",
      "Message('note_off', channel=3, note=63, velocity=90, time=0)\n",
      "Message('note_off', channel=3, note=70, velocity=86, time=0)\n",
      "Message('note_off', channel=3, note=66, velocity=86, time=0)\n",
      "Message('note_on', channel=9, note=42, velocity=83, time=0)\n",
      "Message('note_on', channel=9, note=38, velocity=103, time=0)\n",
      "Message('note_on', channel=9, note=39, velocity=86, time=0)\n",
      "Message('note_on', channel=15, note=65, velocity=122, time=0)\n",
      "Message('note_off', channel=9, note=39, velocity=86, time=4)\n",
      "Message('note_off', channel=9, note=38, velocity=103, time=0)\n",
      "Message('note_off', channel=9, note=42, velocity=83, time=0)\n",
      "Message('note_on', channel=9, note=45, velocity=86, time=92)\n",
      "Message('note_on', channel=2, note=37, velocity=111, time=0)\n",
      "Message('note_off', channel=9, note=45, velocity=86, time=4)\n",
      "Message('note_off', channel=15, note=65, velocity=122, time=76)\n",
      "Message('note_off', channel=2, note=37, velocity=111, time=8)\n",
      "Message('note_on', channel=9, note=46, velocity=90, time=8)\n",
      "Message('note_on', channel=9, note=45, velocity=81, time=0)\n",
      "Message('note_on', channel=2, note=36, velocity=107, time=0)\n",
      "Message('note_on', channel=3, note=68, velocity=87, time=0)\n",
      "Message('note_on', channel=3, note=72, velocity=88, time=0)\n",
      "Message('note_on', channel=3, note=63, velocity=92, time=0)\n",
      "Message('note_on', channel=4, note=63, velocity=86, time=0)\n",
      "Message('note_on', channel=4, note=68, velocity=86, time=0)\n",
      "Message('note_on', channel=4, note=72, velocity=83, time=0)\n",
      "Message('note_on', channel=15, note=63, velocity=120, time=0)\n",
      "Message('note_off', channel=9, note=45, velocity=81, time=4)\n",
      "Message('note_off', channel=9, note=46, velocity=90, time=0)\n",
      "Message('note_off', channel=2, note=36, velocity=107, time=84)\n",
      "Message('note_on', channel=9, note=42, velocity=84, time=104)\n",
      "Message('note_on', channel=9, note=36, velocity=102, time=0)\n",
      "Message('note_on', channel=9, note=39, velocity=87, time=0)\n",
      "Message('note_off', channel=9, note=39, velocity=87, time=4)\n",
      "Message('note_off', channel=9, note=36, velocity=102, time=0)\n",
      "Message('note_off', channel=9, note=42, velocity=84, time=0)\n",
      "Message('note_on', channel=9, note=45, velocity=81, time=92)\n",
      "Message('note_on', channel=9, note=39, velocity=85, time=0)\n",
      "Message('note_off', channel=9, note=39, velocity=85, time=4)\n",
      "Message('note_off', channel=9, note=45, velocity=81, time=0)\n",
      "Message('note_on', channel=9, note=46, velocity=91, time=92)\n",
      "Message('note_on', channel=9, note=45, velocity=82, time=0)\n",
      "Message('note_on', channel=7, note=56, velocity=82, time=0)\n",
      "Message('note_on', channel=7, note=68, velocity=111, time=0)\n",
      "Message('note_on', channel=7, note=80, velocity=109, time=0)\n",
      "Message('note_off', channel=9, note=45, velocity=82, time=4)\n",
      "Message('note_off', channel=9, note=46, velocity=91, time=0)\n",
      "Message('note_off', channel=7, note=80, velocity=109, time=60)\n",
      "Message('note_off', channel=7, note=68, velocity=111, time=0)\n",
      "Message('note_off', channel=7, note=56, velocity=82, time=0)\n",
      "Message('note_on', channel=7, note=68, velocity=83, time=32)\n",
      "Message('note_on', channel=7, note=80, velocity=112, time=0)\n",
      "Message('note_on', channel=7, note=56, velocity=81, time=0)\n",
      "Message('note_off', channel=7, note=56, velocity=81, time=64)\n",
      "Message('note_off', channel=7, note=80, velocity=112, time=0)\n",
      "Message('note_off', channel=7, note=68, velocity=83, time=0)\n",
      "Message('note_off', channel=15, note=63, velocity=120, time=0)\n",
      "Message('note_on', channel=9, note=42, velocity=82, time=32)\n",
      "Message('note_on', channel=9, note=38, velocity=105, time=0)\n",
      "Message('note_on', channel=9, note=45, velocity=81, time=0)\n",
      "Message('note_on', channel=9, note=39, velocity=83, time=0)\n",
      "Message('note_on', channel=15, note=56, velocity=120, time=0)\n",
      "Message('note_off', channel=9, note=39, velocity=83, time=4)\n",
      "Message('note_off', channel=9, note=45, velocity=81, time=0)\n",
      "Message('note_off', channel=9, note=38, velocity=105, time=0)\n",
      "Message('note_off', channel=9, note=42, velocity=82, time=0)\n",
      "Message('note_off', channel=15, note=56, velocity=120, time=84)\n",
      "Message('note_on', channel=9, note=45, velocity=87, time=8)\n",
      "Message('note_on', channel=9, note=39, velocity=82, time=0)\n",
      "Message('note_on', channel=15, note=58, velocity=119, time=0)\n",
      "Message('note_off', channel=9, note=39, velocity=82, time=4)\n",
      "Message('note_off', channel=9, note=45, velocity=87, time=0)\n",
      "Message('note_off', channel=15, note=58, velocity=119, time=84)\n",
      "Message('note_on', channel=9, note=46, velocity=91, time=8)\n",
      "Message('note_on', channel=9, note=43, velocity=83, time=0)\n",
      "Message('note_on', channel=2, note=29, velocity=108, time=0)\n",
      "Message('note_on', channel=15, note=61, velocity=120, time=0)\n",
      "Message('note_off', channel=9, note=43, velocity=83, time=4)\n",
      "Message('note_off', channel=9, note=46, velocity=91, time=0)\n",
      "Message('note_off', channel=15, note=61, velocity=120, time=84)\n",
      "Message('note_off', channel=2, note=29, velocity=108, time=0)\n",
      "Message('note_off', channel=3, note=63, velocity=92, time=8)\n",
      "Message('note_off', channel=3, note=72, velocity=88, time=0)\n",
      "Message('note_off', channel=3, note=68, velocity=87, time=0)\n",
      "Message('note_on', channel=9, note=43, velocity=86, time=0)\n",
      "Message('note_on', channel=2, note=32, velocity=109, time=0)\n",
      "Message('note_on', channel=15, note=58, velocity=120, time=0)\n",
      "Message('note_off', channel=9, note=43, velocity=86, time=4)\n",
      "Message('note_off', channel=15, note=58, velocity=120, time=84)\n",
      "Message('note_off', channel=2, note=32, velocity=109, time=0)\n",
      "Message('note_off', channel=4, note=72, velocity=83, time=8)\n",
      "Message('note_off', channel=4, note=68, velocity=86, time=0)\n",
      "Message('note_off', channel=4, note=63, velocity=86, time=0)\n",
      "Message('note_on', channel=9, note=42, velocity=80, time=0)\n",
      "Message('note_on', channel=9, note=36, velocity=102, time=0)\n",
      "Message('note_on', channel=2, note=27, velocity=111, time=0)\n",
      "Message('note_on', channel=3, note=61, velocity=92, time=0)\n",
      "Message('note_on', channel=3, note=58, velocity=86, time=0)\n",
      "Message('note_on', channel=3, note=65, velocity=88, time=0)\n",
      "Message('note_on', channel=8, note=85, velocity=99, time=0)\n",
      "Message('note_on', channel=13, note=65, velocity=83, time=0)\n",
      "Message('note_on', channel=13, note=68, velocity=89, time=0)\n",
      "Message('note_on', channel=13, note=73, velocity=82, time=0)\n",
      "Message('note_on', channel=15, note=65, velocity=121, time=0)\n",
      "Message('note_off', channel=9, note=36, velocity=102, time=4)\n",
      "Message('note_off', channel=9, note=42, velocity=80, time=0)\n",
      "Message('note_off', channel=2, note=27, velocity=111, time=84)\n",
      "Message('note_on', channel=9, note=46, velocity=89, time=104)\n",
      "Message('note_on', channel=2, note=27, velocity=108, time=0)\n",
      "Message('note_off', channel=9, note=46, velocity=89, time=4)\n",
      "Message('note_off', channel=15, note=65, velocity=121, time=68)\n",
      "Message('note_off', channel=2, note=27, velocity=108, time=16)\n",
      "Message('note_off', channel=13, note=73, velocity=82, time=0)\n",
      "Message('note_off', channel=13, note=68, velocity=89, time=0)\n",
      "Message('note_off', channel=13, note=65, velocity=83, time=0)\n",
      "Message('note_on', channel=2, note=27, velocity=111, time=8)\n",
      "Message('note_off', channel=2, note=27, velocity=111, time=88)\n",
      "Message('note_on', channel=9, note=42, velocity=82, time=8)\n",
      "Message('note_on', channel=9, note=38, velocity=107, time=0)\n",
      "Message('note_on', channel=9, note=39, velocity=86, time=0)\n",
      "Message('note_on', channel=13, note=65, velocity=87, time=0)\n",
      "Message('note_on', channel=13, note=73, velocity=89, time=0)\n",
      "Message('note_on', channel=13, note=68, velocity=89, time=0)\n",
      "Message('note_on', channel=15, note=65, velocity=120, time=0)\n",
      "Message('note_off', channel=9, note=39, velocity=86, time=4)\n",
      "Message('note_off', channel=9, note=38, velocity=107, time=0)\n",
      "Message('note_off', channel=9, note=42, velocity=82, time=0)\n",
      "Message('note_off', channel=3, note=65, velocity=88, time=92)\n",
      "Message('note_off', channel=3, note=58, velocity=86, time=0)\n",
      "Message('note_off', channel=3, note=61, velocity=92, time=0)\n",
      "Message('note_on', channel=2, note=36, velocity=109, time=0)\n",
      "Message('note_off', channel=8, note=85, velocity=99, time=48)\n",
      "Message('note_off', channel=15, note=65, velocity=120, time=32)\n",
      "Message('note_off', channel=2, note=36, velocity=109, time=8)\n",
      "Message('note_off', channel=13, note=68, velocity=89, time=0)\n",
      "Message('note_off', channel=13, note=73, velocity=89, time=0)\n",
      "Message('note_off', channel=13, note=65, velocity=87, time=0)\n",
      "Message('note_on', channel=9, note=42, velocity=81, time=8)\n",
      "Message('note_on', channel=2, note=34, velocity=108, time=0)\n",
      "Message('note_on', channel=3, note=60, velocity=93, time=0)\n",
      "Message('note_on', channel=3, note=56, velocity=86, time=0)\n",
      "Message('note_on', channel=3, note=63, velocity=93, time=0)\n",
      "Message('note_on', channel=8, note=87, velocity=98, time=0)\n",
      "Message('note_on', channel=13, note=68, velocity=86, time=0)\n",
      "Message('note_on', channel=13, note=63, velocity=83, time=0)\n",
      "Message('note_on', channel=13, note=72, velocity=88, time=0)\n",
      "Message('note_on', channel=15, note=63, velocity=120, time=0)\n",
      "Message('note_off', channel=9, note=42, velocity=81, time=4)\n",
      "Message('note_off', channel=2, note=34, velocity=108, time=84)\n",
      "Message('note_on', channel=9, note=42, velocity=84, time=8)\n",
      "Message('note_off', channel=9, note=42, velocity=84, time=4)\n",
      "Message('note_off', channel=13, note=72, velocity=88, time=84)\n",
      "Message('note_off', channel=13, note=63, velocity=83, time=0)\n",
      "Message('note_off', channel=13, note=68, velocity=86, time=0)\n",
      "Message('note_on', channel=9, note=42, velocity=85, time=8)\n",
      "Message('note_on', channel=9, note=36, velocity=102, time=0)\n",
      "Message('note_on', channel=2, note=32, velocity=109, time=0)\n",
      "Message('note_off', channel=9, note=36, velocity=102, time=4)\n",
      "Message('note_off', channel=9, note=42, velocity=85, time=0)\n",
      "Message('note_off', channel=2, note=32, velocity=109, time=84)\n",
      "Message('note_on', channel=9, note=46, velocity=90, time=104)\n",
      "Message('note_on', channel=2, note=32, velocity=110, time=0)\n",
      "Message('note_off', channel=9, note=46, velocity=90, time=4)\n",
      "Message('note_off', channel=2, note=32, velocity=110, time=84)\n",
      "Message('note_off', channel=8, note=87, velocity=98, time=56)\n",
      "Message('note_off', channel=15, note=63, velocity=120, time=16)\n",
      "Message('note_on', channel=9, note=42, velocity=85, time=32)\n",
      "Message('note_on', channel=9, note=38, velocity=102, time=0)\n",
      "Message('note_on', channel=9, note=39, velocity=84, time=0)\n",
      "Message('note_on', channel=8, note=80, velocity=94, time=0)\n",
      "Message('note_on', channel=15, note=56, velocity=119, time=0)\n",
      "Message('note_off', channel=9, note=39, velocity=84, time=4)\n",
      "Message('note_off', channel=9, note=38, velocity=102, time=0)\n",
      "Message('note_off', channel=9, note=42, velocity=85, time=0)\n",
      "Message('note_off', channel=15, note=56, velocity=119, time=84)\n",
      "Message('note_on', channel=15, note=58, velocity=123, time=8)\n",
      "Message('note_off', channel=15, note=58, velocity=123, time=88)\n",
      "Message('note_on', channel=9, note=46, velocity=91, time=8)\n",
      "Message('note_on', channel=2, note=29, velocity=107, time=0)\n",
      "Message('note_on', channel=15, note=61, velocity=122, time=0)\n",
      "Message('note_off', channel=9, note=46, velocity=91, time=4)\n",
      "Message('note_off', channel=15, note=61, velocity=122, time=84)\n",
      "Message('note_off', channel=2, note=29, velocity=107, time=0)\n",
      "Message('note_off', channel=3, note=63, velocity=93, time=8)\n",
      "Message('note_off', channel=3, note=56, velocity=86, time=0)\n",
      "Message('note_off', channel=3, note=60, velocity=93, time=0)\n",
      "Message('note_on', channel=2, note=32, velocity=106, time=0)\n",
      "Message('note_on', channel=15, note=58, velocity=121, time=0)\n",
      "Message('note_off', channel=8, note=80, velocity=94, time=64)\n",
      "Message('note_off', channel=15, note=58, velocity=121, time=24)\n",
      "Message('note_off', channel=2, note=32, velocity=106, time=0)\n",
      "Message('note_on', channel=9, note=42, velocity=82, time=8)\n",
      "Message('note_on', channel=9, note=36, velocity=104, time=0)\n",
      "Message('note_on', channel=2, note=29, velocity=107, time=0)\n",
      "Message('note_on', channel=3, note=53, velocity=90, time=0)\n",
      "Message('note_on', channel=3, note=56, velocity=93, time=0)\n",
      "Message('note_on', channel=3, note=60, velocity=86, time=0)\n",
      "Message('note_on', channel=8, note=87, velocity=95, time=0)\n",
      "Message('note_on', channel=13, note=63, velocity=83, time=0)\n",
      "Message('note_on', channel=13, note=72, velocity=86, time=0)\n",
      "Message('note_on', channel=13, note=68, velocity=84, time=0)\n",
      "Message('note_on', channel=15, note=63, velocity=120, time=0)\n",
      "Message('note_off', channel=9, note=36, velocity=104, time=4)\n",
      "Message('note_off', channel=9, note=42, velocity=82, time=0)\n",
      "Message('note_off', channel=2, note=29, velocity=107, time=84)\n",
      "Message('note_on', channel=9, note=46, velocity=89, time=104)\n",
      "Message('note_on', channel=2, note=29, velocity=111, time=0)\n",
      "Message('note_off', channel=9, note=46, velocity=89, time=4)\n",
      "Message('note_off', channel=15, note=63, velocity=120, time=68)\n",
      "Message('note_off', channel=2, note=29, velocity=111, time=16)\n",
      "Message('note_off', channel=13, note=68, velocity=84, time=0)\n",
      "Message('note_off', channel=13, note=72, velocity=86, time=0)\n",
      "Message('note_off', channel=13, note=63, velocity=83, time=0)\n",
      "Message('note_on', channel=2, note=29, velocity=108, time=8)\n",
      "Message('note_off', channel=2, note=29, velocity=108, time=88)\n",
      "Message('note_off', channel=3, note=60, velocity=86, time=8)\n",
      "Message('note_off', channel=3, note=56, velocity=93, time=0)\n",
      "Message('note_off', channel=3, note=53, velocity=90, time=0)\n",
      "Message('note_on', channel=9, note=42, velocity=82, time=0)\n",
      "Message('note_on', channel=9, note=38, velocity=109, time=0)\n",
      "Message('note_on', channel=9, note=39, velocity=82, time=0)\n",
      "Message('note_on', channel=13, note=63, velocity=84, time=0)\n",
      "Message('note_on', channel=13, note=72, velocity=88, time=0)\n",
      "Message('note_on', channel=13, note=68, velocity=85, time=0)\n",
      "Message('note_on', channel=15, note=63, velocity=119, time=0)\n",
      "Message('note_off', channel=9, note=39, velocity=82, time=4)\n",
      "Message('note_off', channel=9, note=38, velocity=109, time=0)\n",
      "Message('note_off', channel=9, note=42, velocity=82, time=0)\n",
      "Message('note_on', channel=2, note=36, velocity=107, time=92)\n",
      "Message('note_off', channel=8, note=87, velocity=95, time=48)\n",
      "Message('note_off', channel=15, note=63, velocity=119, time=32)\n",
      "Message('note_off', channel=2, note=36, velocity=107, time=8)\n",
      "Message('note_off', channel=13, note=68, velocity=85, time=0)\n",
      "Message('note_off', channel=13, note=72, velocity=88, time=0)\n",
      "Message('note_off', channel=13, note=63, velocity=84, time=0)\n",
      "Message('note_on', channel=9, note=46, velocity=88, time=8)\n",
      "Message('note_on', channel=2, note=34, velocity=107, time=0)\n",
      "Message('note_on', channel=3, note=58, velocity=88, time=0)\n",
      "Message('note_on', channel=3, note=61, velocity=87, time=0)\n",
      "Message('note_on', channel=3, note=65, velocity=87, time=0)\n",
      "Message('note_on', channel=8, note=89, velocity=95, time=0)\n",
      "Message('note_on', channel=13, note=61, velocity=88, time=0)\n",
      "Message('note_on', channel=13, note=70, velocity=84, time=0)\n",
      "Message('note_on', channel=13, note=65, velocity=83, time=0)\n",
      "Message('note_on', channel=15, note=61, velocity=121, time=0)\n",
      "Message('note_off', channel=9, note=46, velocity=88, time=4)\n",
      "Message('note_off', channel=2, note=34, velocity=107, time=84)\n",
      "Message('note_off', channel=13, note=65, velocity=83, time=96)\n",
      "Message('note_off', channel=13, note=70, velocity=84, time=0)\n",
      "Message('note_off', channel=13, note=61, velocity=88, time=0)\n",
      "Message('note_on', channel=9, note=42, velocity=84, time=8)\n",
      "Message('note_on', channel=9, note=36, velocity=104, time=0)\n",
      "Message('note_off', channel=9, note=36, velocity=104, time=4)\n",
      "Message('note_off', channel=9, note=42, velocity=84, time=0)\n",
      "Message('note_off', channel=15, note=61, velocity=121, time=68)\n",
      "Message('note_on', channel=15, note=60, velocity=122, time=24)\n",
      "Message('note_off', channel=15, note=60, velocity=122, time=88)\n",
      "Message('note_on', channel=9, note=46, velocity=89, time=8)\n",
      "Message('note_on', channel=2, note=34, velocity=107, time=0)\n",
      "Message('note_on', channel=15, note=58, velocity=120, time=0)\n",
      "Message('note_off', channel=9, note=46, velocity=89, time=4)\n",
      "Message('note_off', channel=2, note=34, velocity=107, time=84)\n",
      "Message('note_on', channel=2, note=34, velocity=111, time=8)\n",
      "Message('note_off', channel=8, note=89, velocity=95, time=48)\n",
      "Message('note_off', channel=15, note=58, velocity=120, time=32)\n",
      "Message('note_off', channel=2, note=34, velocity=111, time=8)\n",
      "Message('note_on', channel=9, note=42, velocity=81, time=8)\n",
      "Message('note_on', channel=9, note=38, velocity=107, time=0)\n",
      "Message('note_on', channel=9, note=39, velocity=87, time=0)\n",
      "Message('note_on', channel=2, note=34, velocity=107, time=0)\n",
      "Message('note_on', channel=8, note=92, velocity=95, time=0)\n",
      "Message('note_on', channel=15, note=56, velocity=120, time=0)\n",
      "Message('note_off', channel=9, note=39, velocity=87, time=4)\n",
      "Message('note_off', channel=9, note=38, velocity=107, time=0)\n",
      "Message('note_off', channel=9, note=42, velocity=81, time=0)\n",
      "Message('note_off', channel=15, note=56, velocity=120, time=84)\n",
      "Message('note_off', channel=8, note=92, velocity=95, time=0)\n",
      "Message('note_off', channel=2, note=34, velocity=107, time=0)\n",
      "Message('note_on', channel=2, note=36, velocity=111, time=8)\n",
      "Message('note_on', channel=8, note=90, velocity=95, time=0)\n",
      "Message('note_on', channel=15, note=58, velocity=123, time=0)\n",
      "Message('note_off', channel=15, note=58, velocity=123, time=88)\n",
      "Message('note_off', channel=8, note=90, velocity=95, time=0)\n",
      "Message('note_off', channel=2, note=36, velocity=111, time=0)\n",
      "Message('note_on', channel=9, note=46, velocity=88, time=8)\n",
      "Message('note_on', channel=8, note=89, velocity=99, time=0)\n",
      "Message('note_on', channel=15, note=61, velocity=122, time=0)\n",
      "Message('note_off', channel=9, note=46, velocity=88, time=4)\n",
      "Message('note_off', channel=15, note=61, velocity=122, time=84)\n",
      "Message('note_off', channel=8, note=89, velocity=99, time=0)\n",
      "Message('note_off', channel=3, note=65, velocity=87, time=8)\n",
      "Message('note_off', channel=3, note=61, velocity=87, time=0)\n",
      "Message('note_off', channel=3, note=58, velocity=88, time=0)\n",
      "Message('note_on', channel=2, note=34, velocity=110, time=0)\n",
      "Message('note_on', channel=8, note=85, velocity=95, time=0)\n",
      "Message('note_on', channel=15, note=58, velocity=124, time=0)\n",
      "Message('note_off', channel=15, note=58, velocity=124, time=88)\n",
      "Message('note_off', channel=2, note=34, velocity=110, time=0)\n",
      "Message('note_on', channel=9, note=42, velocity=82, time=8)\n",
      "Message('note_on', channel=9, note=36, velocity=103, time=0)\n",
      "Message('note_on', channel=2, note=27, velocity=107, time=0)\n",
      "Message('note_on', channel=3, note=61, velocity=88, time=0)\n",
      "Message('note_on', channel=3, note=58, velocity=88, time=0)\n",
      "Message('note_on', channel=3, note=65, velocity=93, time=0)\n",
      "Message('note_on', channel=15, note=61, velocity=124, time=0)\n",
      "Message('note_off', channel=9, note=36, velocity=103, time=4)\n",
      "Message('note_off', channel=9, note=42, velocity=82, time=0)\n",
      "Message('note_off', channel=2, note=27, velocity=107, time=84)\n",
      "Message('note_on', channel=9, note=46, velocity=91, time=104)\n",
      "Message('note_on', channel=2, note=27, velocity=111, time=0)\n",
      "Message('note_off', channel=9, note=46, velocity=91, time=4)\n",
      "Message('note_off', channel=2, note=27, velocity=111, time=84)\n",
      "Message('note_on', channel=2, note=27, velocity=110, time=8)\n",
      "Message('note_off', channel=15, note=61, velocity=124, time=64)\n",
      "Message('note_off', channel=2, note=27, velocity=110, time=24)\n",
      "Message('note_on', channel=9, note=42, velocity=83, time=8)\n",
      "Message('note_on', channel=9, note=38, velocity=108, time=0)\n",
      "Message('note_on', channel=9, note=39, velocity=81, time=0)\n",
      "Message('note_on', channel=15, note=63, velocity=120, time=0)\n",
      "Message('note_off', channel=9, note=39, velocity=81, time=4)\n",
      "Message('note_off', channel=9, note=38, velocity=108, time=0)\n",
      "Message('note_off', channel=9, note=42, velocity=83, time=0)\n",
      "Message('note_off', channel=3, note=65, velocity=93, time=92)\n",
      "Message('note_off', channel=3, note=58, velocity=88, time=0)\n",
      "Message('note_off', channel=3, note=61, velocity=88, time=0)\n",
      "Message('note_on', channel=2, note=36, velocity=109, time=0)\n",
      "Message('note_off', channel=8, note=85, velocity=95, time=48)\n",
      "Message('note_off', channel=15, note=63, velocity=120, time=32)\n",
      "Message('note_off', channel=2, note=36, velocity=109, time=8)\n",
      "Message('note_on', channel=9, note=42, velocity=82, time=8)\n",
      "Message('note_on', channel=2, note=34, velocity=111, time=0)\n",
      "Message('note_on', channel=3, note=56, velocity=87, time=0)\n",
      "Message('note_on', channel=3, note=63, velocity=88, time=0)\n",
      "Message('note_on', channel=3, note=60, velocity=90, time=0)\n",
      "Message('note_on', channel=8, note=87, velocity=95, time=0)\n",
      "Message('note_on', channel=15, note=60, velocity=119, time=0)\n",
      "Message('note_off', channel=9, note=42, velocity=82, time=4)\n",
      "Message('note_off', channel=2, note=34, velocity=111, time=84)\n",
      "Message('note_on', channel=9, note=42, velocity=85, time=8)\n",
      "Message('note_off', channel=9, note=42, velocity=85, time=4)\n",
      "Message('note_on', channel=9, note=42, velocity=82, time=92)\n",
      "Message('note_on', channel=9, note=36, velocity=102, time=0)\n",
      "Message('note_on', channel=2, note=32, velocity=109, time=0)\n",
      "Message('note_off', channel=9, note=36, velocity=102, time=4)\n",
      "Message('note_off', channel=9, note=42, velocity=82, time=0)\n",
      "Message('note_off', channel=15, note=60, velocity=119, time=68)\n",
      "Message('note_off', channel=2, note=32, velocity=109, time=16)\n",
      "Message('note_on', channel=15, note=58, velocity=123, time=8)\n",
      "Message('note_off', channel=15, note=58, velocity=123, time=88)\n",
      "Message('note_on', channel=9, note=46, velocity=88, time=8)\n",
      "Message('note_on', channel=2, note=32, velocity=111, time=0)\n",
      "Message('note_on', channel=15, note=56, velocity=120, time=0)\n",
      "Message('note_off', channel=9, note=46, velocity=88, time=4)\n",
      "Message('note_off', channel=2, note=32, velocity=111, time=84)\n",
      "Message('note_off', channel=8, note=87, velocity=95, time=56)\n",
      "Message('note_off', channel=15, note=56, velocity=120, time=32)\n",
      "Message('note_on', channel=9, note=42, velocity=84, time=16)\n",
      "Message('note_on', channel=9, note=38, velocity=103, time=0)\n",
      "Message('note_on', channel=9, note=39, velocity=86, time=0)\n",
      "Message('note_on', channel=8, note=80, velocity=98, time=0)\n",
      "Message('note_on', channel=15, note=56, velocity=120, time=0)\n",
      "Message('note_off', channel=9, note=39, velocity=86, time=4)\n",
      "Message('note_off', channel=9, note=38, velocity=103, time=0)\n",
      "Message('note_off', channel=9, note=42, velocity=84, time=0)\n",
      "Message('note_off', channel=15, note=56, velocity=120, time=172)\n",
      "Message('note_off', channel=3, note=60, velocity=90, time=16)\n",
      "Message('note_off', channel=3, note=63, velocity=88, time=0)\n",
      "Message('note_off', channel=3, note=56, velocity=87, time=0)\n",
      "Message('note_on', channel=9, note=46, velocity=91, time=0)\n",
      "Message('note_on', channel=2, note=32, velocity=111, time=0)\n",
      "Message('note_on', channel=15, note=63, velocity=124, time=0)\n",
      "Message('note_off', channel=9, note=46, velocity=91, time=4)\n",
      "Message('note_off', channel=2, note=32, velocity=111, time=84)\n",
      "Message('note_on', channel=2, note=32, velocity=109, time=8)\n",
      "Message('note_off', channel=2, note=32, velocity=109, time=88)\n",
      "Message('note_on', channel=9, note=42, velocity=82, time=8)\n",
      "Message('note_on', channel=9, note=36, velocity=103, time=0)\n",
      "Message('note_on', channel=2, note=29, velocity=110, time=0)\n",
      "Message('note_on', channel=3, note=60, velocity=91, time=0)\n",
      "Message('note_on', channel=3, note=53, velocity=90, time=0)\n",
      "Message('note_on', channel=3, note=56, velocity=92, time=0)\n",
      "Message('note_on', channel=13, note=63, velocity=88, time=0)\n",
      "Message('note_on', channel=13, note=68, velocity=87, time=0)\n",
      "Message('note_on', channel=13, note=72, velocity=85, time=0)\n",
      "Message('note_off', channel=9, note=36, velocity=103, time=4)\n",
      "Message('note_off', channel=9, note=42, velocity=82, time=0)\n",
      "Message('note_off', channel=2, note=29, velocity=110, time=84)\n",
      "Message('note_on', channel=9, note=46, velocity=92, time=104)\n",
      "Message('note_on', channel=2, note=29, velocity=109, time=0)\n",
      "Message('note_off', channel=9, note=46, velocity=92, time=4)\n",
      "Message('note_off', channel=2, note=29, velocity=109, time=84)\n",
      "Message('note_off', channel=13, note=72, velocity=85, time=0)\n",
      "Message('note_off', channel=13, note=68, velocity=87, time=0)\n",
      "Message('note_off', channel=13, note=63, velocity=88, time=0)\n",
      "Message('note_on', channel=2, note=29, velocity=111, time=8)\n",
      "Message('note_off', channel=15, note=63, velocity=124, time=64)\n",
      "Message('note_off', channel=2, note=29, velocity=111, time=24)\n",
      "Message('note_off', channel=3, note=56, velocity=92, time=8)\n",
      "Message('note_off', channel=3, note=53, velocity=90, time=0)\n",
      "Message('note_off', channel=3, note=60, velocity=91, time=0)\n",
      "Message('note_on', channel=9, note=42, velocity=83, time=0)\n",
      "Message('note_on', channel=9, note=38, velocity=108, time=0)\n",
      "Message('note_on', channel=9, note=39, velocity=86, time=0)\n",
      "Message('note_on', channel=13, note=65, velocity=89, time=0)\n",
      "Message('note_on', channel=13, note=70, velocity=83, time=0)\n",
      "Message('note_on', channel=13, note=73, velocity=87, time=0)\n",
      "Message('note_on', channel=15, note=61, velocity=124, time=0)\n",
      "Message('note_off', channel=9, note=39, velocity=86, time=4)\n",
      "Message('note_off', channel=9, note=38, velocity=108, time=0)\n",
      "Message('note_off', channel=9, note=42, velocity=83, time=0)\n",
      "Message('note_on', channel=2, note=36, velocity=107, time=92)\n",
      "Message('note_off', channel=2, note=36, velocity=107, time=88)\n",
      "Message('note_on', channel=9, note=46, velocity=88, time=8)\n",
      "Message('note_on', channel=2, note=34, velocity=106, time=0)\n",
      "Message('note_on', channel=3, note=65, velocity=88, time=0)\n",
      "Message('note_on', channel=3, note=61, velocity=93, time=0)\n",
      "Message('note_on', channel=3, note=58, velocity=93, time=0)\n",
      "Message('note_off', channel=9, note=46, velocity=88, time=4)\n",
      "Message('note_off', channel=2, note=34, velocity=106, time=84)\n",
      "Message('note_on', channel=9, note=42, velocity=82, time=104)\n",
      "Message('note_on', channel=9, note=36, velocity=102, time=0)\n",
      "Message('note_off', channel=9, note=36, velocity=102, time=4)\n",
      "Message('note_off', channel=9, note=42, velocity=82, time=0)\n",
      "Message('note_off', channel=8, note=80, velocity=98, time=140)\n",
      "Message('note_on', channel=9, note=46, velocity=91, time=48)\n",
      "Message('note_on', channel=2, note=32, velocity=106, time=0)\n",
      "Message('note_on', channel=7, note=68, velocity=81, time=0)\n",
      "Message('note_on', channel=7, note=80, velocity=108, time=0)\n",
      "Message('note_on', channel=7, note=56, velocity=82, time=0)\n",
      "Message('note_off', channel=9, note=46, velocity=91, time=4)\n",
      "Message('note_off', channel=7, note=56, velocity=82, time=60)\n",
      "Message('note_off', channel=7, note=80, velocity=108, time=0)\n"
     ]
    },
    {
     "name": "stdout",
     "output_type": "stream",
     "text": [
      "Message('note_off', channel=7, note=68, velocity=81, time=0)\n",
      "Message('note_off', channel=2, note=32, velocity=106, time=24)\n",
      "Message('note_on', channel=7, note=68, velocity=81, time=8)\n",
      "Message('note_on', channel=7, note=80, velocity=110, time=0)\n",
      "Message('note_on', channel=7, note=56, velocity=83, time=0)\n",
      "Message('note_off', channel=7, note=56, velocity=83, time=64)\n",
      "Message('note_off', channel=7, note=80, velocity=110, time=0)\n",
      "Message('note_off', channel=7, note=68, velocity=81, time=0)\n",
      "Message('note_off', channel=15, note=61, velocity=124, time=0)\n",
      "Message('note_on', channel=9, note=42, velocity=83, time=32)\n",
      "Message('note_on', channel=9, note=38, velocity=102, time=0)\n",
      "Message('note_on', channel=9, note=39, velocity=86, time=0)\n",
      "Message('note_on', channel=2, note=32, velocity=106, time=0)\n",
      "Message('note_on', channel=8, note=92, velocity=98, time=0)\n",
      "Message('note_on', channel=15, note=56, velocity=120, time=0)\n",
      "Message('note_off', channel=9, note=39, velocity=86, time=4)\n",
      "Message('note_off', channel=9, note=38, velocity=102, time=0)\n",
      "Message('note_off', channel=9, note=42, velocity=83, time=0)\n",
      "Message('note_off', channel=15, note=56, velocity=120, time=84)\n",
      "Message('note_off', channel=8, note=92, velocity=98, time=0)\n",
      "Message('note_off', channel=2, note=32, velocity=106, time=0)\n",
      "Message('note_off', channel=13, note=73, velocity=87, time=0)\n",
      "Message('note_off', channel=13, note=70, velocity=83, time=0)\n",
      "Message('note_off', channel=13, note=65, velocity=89, time=0)\n",
      "Message('note_on', channel=2, note=32, velocity=107, time=8)\n",
      "Message('note_on', channel=8, note=90, velocity=99, time=0)\n",
      "Message('note_on', channel=15, note=58, velocity=120, time=0)\n",
      "Message('note_off', channel=15, note=58, velocity=120, time=88)\n",
      "Message('note_off', channel=8, note=90, velocity=99, time=0)\n",
      "Message('note_off', channel=2, note=32, velocity=107, time=0)\n",
      "Message('note_on', channel=9, note=46, velocity=90, time=8)\n",
      "Message('note_on', channel=8, note=89, velocity=96, time=0)\n",
      "Message('note_on', channel=15, note=61, velocity=121, time=0)\n",
      "Message('note_off', channel=9, note=46, velocity=90, time=4)\n",
      "Message('note_off', channel=15, note=61, velocity=121, time=84)\n",
      "Message('note_off', channel=8, note=89, velocity=96, time=0)\n",
      "Message('note_off', channel=3, note=58, velocity=93, time=8)\n",
      "Message('note_off', channel=3, note=61, velocity=93, time=0)\n",
      "Message('note_off', channel=3, note=65, velocity=88, time=0)\n",
      "Message('note_on', channel=2, note=37, velocity=108, time=0)\n",
      "Message('note_on', channel=8, note=85, velocity=95, time=0)\n",
      "Message('note_on', channel=15, note=58, velocity=120, time=0)\n",
      "Message('note_off', channel=15, note=58, velocity=120, time=88)\n",
      "Message('note_off', channel=2, note=37, velocity=108, time=0)\n",
      "Message('note_on', channel=9, note=42, velocity=85, time=8)\n",
      "Message('note_on', channel=9, note=36, velocity=109, time=0)\n",
      "Message('note_on', channel=2, note=27, velocity=107, time=0)\n",
      "Message('note_on', channel=3, note=58, velocity=91, time=0)\n",
      "Message('note_on', channel=3, note=61, velocity=90, time=0)\n",
      "Message('note_on', channel=3, note=65, velocity=92, time=0)\n",
      "Message('note_on', channel=13, note=63, velocity=83, time=0)\n",
      "Message('note_on', channel=13, note=73, velocity=89, time=0)\n",
      "Message('note_on', channel=13, note=68, velocity=82, time=0)\n",
      "Message('note_on', channel=15, note=65, velocity=123, time=0)\n",
      "Message('note_off', channel=9, note=36, velocity=109, time=4)\n",
      "Message('note_off', channel=9, note=42, velocity=85, time=0)\n",
      "Message('note_off', channel=2, note=27, velocity=107, time=84)\n",
      "Message('note_on', channel=9, note=46, velocity=89, time=104)\n",
      "Message('note_on', channel=2, note=27, velocity=110, time=0)\n",
      "Message('note_off', channel=9, note=46, velocity=89, time=4)\n",
      "Message('note_off', channel=15, note=65, velocity=123, time=68)\n",
      "Message('note_off', channel=2, note=27, velocity=110, time=16)\n",
      "Message('note_off', channel=13, note=68, velocity=82, time=0)\n",
      "Message('note_off', channel=13, note=73, velocity=89, time=0)\n",
      "Message('note_off', channel=13, note=63, velocity=83, time=0)\n",
      "Message('note_on', channel=2, note=27, velocity=107, time=8)\n",
      "Message('note_off', channel=2, note=27, velocity=107, time=88)\n",
      "Message('note_on', channel=9, note=42, velocity=84, time=8)\n",
      "Message('note_on', channel=9, note=38, velocity=103, time=0)\n",
      "Message('note_on', channel=9, note=39, velocity=86, time=0)\n",
      "Message('note_on', channel=13, note=63, velocity=85, time=0)\n",
      "Message('note_on', channel=13, note=73, velocity=85, time=0)\n",
      "Message('note_on', channel=13, note=68, velocity=89, time=0)\n",
      "Message('note_on', channel=15, note=65, velocity=124, time=0)\n",
      "Message('note_off', channel=9, note=39, velocity=86, time=4)\n",
      "Message('note_off', channel=9, note=38, velocity=103, time=0)\n",
      "Message('note_off', channel=9, note=42, velocity=84, time=0)\n",
      "Message('note_off', channel=3, note=65, velocity=92, time=92)\n",
      "Message('note_off', channel=3, note=61, velocity=90, time=0)\n",
      "Message('note_off', channel=3, note=58, velocity=91, time=0)\n",
      "Message('note_on', channel=2, note=36, velocity=107, time=0)\n",
      "Message('note_off', channel=8, note=85, velocity=95, time=48)\n",
      "Message('note_off', channel=15, note=65, velocity=124, time=32)\n",
      "Message('note_off', channel=2, note=36, velocity=107, time=8)\n",
      "Message('note_off', channel=13, note=68, velocity=89, time=0)\n",
      "Message('note_off', channel=13, note=73, velocity=85, time=0)\n",
      "Message('note_off', channel=13, note=63, velocity=85, time=0)\n",
      "Message('note_on', channel=9, note=42, velocity=82, time=8)\n",
      "Message('note_on', channel=2, note=34, velocity=110, time=0)\n",
      "Message('note_on', channel=3, note=56, velocity=87, time=0)\n",
      "Message('note_on', channel=3, note=63, velocity=92, time=0)\n",
      "Message('note_on', channel=3, note=60, velocity=86, time=0)\n",
      "Message('note_on', channel=8, note=87, velocity=99, time=0)\n",
      "Message('note_on', channel=13, note=68, velocity=88, time=0)\n",
      "Message('note_on', channel=13, note=63, velocity=88, time=0)\n",
      "Message('note_on', channel=13, note=72, velocity=88, time=0)\n",
      "Message('note_on', channel=15, note=63, velocity=122, time=0)\n",
      "Message('note_off', channel=9, note=42, velocity=82, time=4)\n",
      "Message('note_off', channel=2, note=34, velocity=110, time=84)\n",
      "Message('note_on', channel=9, note=42, velocity=80, time=8)\n",
      "Message('note_off', channel=9, note=42, velocity=80, time=4)\n",
      "Message('note_on', channel=9, note=42, velocity=83, time=92)\n",
      "Message('note_on', channel=9, note=36, velocity=105, time=0)\n",
      "Message('note_on', channel=2, note=32, velocity=110, time=0)\n",
      "Message('note_off', channel=9, note=36, velocity=105, time=4)\n",
      "Message('note_off', channel=9, note=42, velocity=83, time=0)\n",
      "Message('note_off', channel=2, note=32, velocity=110, time=84)\n",
      "Message('note_on', channel=9, note=46, velocity=89, time=104)\n",
      "Message('note_on', channel=2, note=32, velocity=108, time=0)\n",
      "Message('note_off', channel=9, note=46, velocity=89, time=4)\n",
      "Message('note_off', channel=2, note=32, velocity=108, time=84)\n",
      "Message('note_off', channel=8, note=87, velocity=99, time=56)\n",
      "Message('note_off', channel=15, note=63, velocity=122, time=16)\n",
      "Message('note_off', channel=13, note=72, velocity=88, time=24)\n",
      "Message('note_off', channel=13, note=63, velocity=88, time=0)\n",
      "Message('note_off', channel=13, note=68, velocity=88, time=0)\n",
      "Message('note_on', channel=9, note=42, velocity=83, time=8)\n",
      "Message('note_on', channel=9, note=38, velocity=102, time=0)\n",
      "Message('note_on', channel=9, note=39, velocity=80, time=0)\n",
      "Message('note_on', channel=8, note=80, velocity=99, time=0)\n",
      "Message('note_on', channel=15, note=56, velocity=124, time=0)\n",
      "Message('note_off', channel=9, note=39, velocity=80, time=4)\n",
      "Message('note_off', channel=9, note=38, velocity=102, time=0)\n",
      "Message('note_off', channel=9, note=42, velocity=83, time=0)\n",
      "Message('note_off', channel=15, note=56, velocity=124, time=84)\n",
      "Message('note_on', channel=15, note=58, velocity=123, time=8)\n",
      "Message('note_off', channel=15, note=58, velocity=123, time=88)\n",
      "Message('note_on', channel=9, note=46, velocity=87, time=8)\n",
      "Message('note_on', channel=2, note=29, velocity=108, time=0)\n",
      "Message('note_on', channel=15, note=61, velocity=124, time=0)\n",
      "Message('note_off', channel=9, note=46, velocity=87, time=4)\n",
      "Message('note_off', channel=15, note=61, velocity=124, time=84)\n",
      "Message('note_off', channel=2, note=29, velocity=108, time=0)\n",
      "Message('note_off', channel=3, note=60, velocity=86, time=8)\n",
      "Message('note_off', channel=3, note=63, velocity=92, time=0)\n",
      "Message('note_off', channel=3, note=56, velocity=87, time=0)\n",
      "Message('note_on', channel=2, note=32, velocity=107, time=0)\n",
      "Message('note_on', channel=15, note=58, velocity=124, time=0)\n",
      "Message('note_off', channel=8, note=80, velocity=99, time=64)\n",
      "Message('note_off', channel=15, note=58, velocity=124, time=24)\n",
      "Message('note_off', channel=2, note=32, velocity=107, time=0)\n",
      "Message('note_on', channel=9, note=42, velocity=80, time=8)\n",
      "Message('note_on', channel=9, note=36, velocity=103, time=0)\n",
      "Message('note_on', channel=2, note=29, velocity=108, time=0)\n",
      "Message('note_on', channel=3, note=53, velocity=86, time=0)\n",
      "Message('note_on', channel=3, note=56, velocity=89, time=0)\n",
      "Message('note_on', channel=3, note=60, velocity=93, time=0)\n",
      "Message('note_on', channel=8, note=87, velocity=96, time=0)\n",
      "Message('note_on', channel=13, note=68, velocity=87, time=0)\n",
      "Message('note_on', channel=13, note=75, velocity=86, time=0)\n",
      "Message('note_on', channel=13, note=72, velocity=84, time=0)\n",
      "Message('note_on', channel=15, note=68, velocity=123, time=0)\n",
      "Message('note_off', channel=9, note=36, velocity=103, time=4)\n",
      "Message('note_off', channel=9, note=42, velocity=80, time=0)\n",
      "Message('note_off', channel=2, note=29, velocity=108, time=84)\n",
      "Message('note_on', channel=9, note=46, velocity=90, time=104)\n",
      "Message('note_on', channel=2, note=29, velocity=106, time=0)\n",
      "Message('note_off', channel=9, note=46, velocity=90, time=4)\n",
      "Message('note_off', channel=2, note=29, velocity=106, time=84)\n",
      "Message('note_off', channel=13, note=72, velocity=84, time=0)\n",
      "Message('note_off', channel=13, note=75, velocity=86, time=0)\n",
      "Message('note_off', channel=13, note=68, velocity=87, time=0)\n",
      "Message('note_on', channel=2, note=29, velocity=111, time=8)\n",
      "Message('note_off', channel=15, note=68, velocity=123, time=64)\n",
      "Message('note_off', channel=2, note=29, velocity=111, time=24)\n",
      "Message('note_off', channel=3, note=60, velocity=93, time=8)\n",
      "Message('note_off', channel=3, note=56, velocity=89, time=0)\n",
      "Message('note_off', channel=3, note=53, velocity=86, time=0)\n",
      "Message('note_on', channel=9, note=42, velocity=85, time=0)\n",
      "Message('note_on', channel=9, note=38, velocity=107, time=0)\n",
      "Message('note_on', channel=9, note=39, velocity=86, time=0)\n",
      "Message('note_on', channel=13, note=68, velocity=86, time=0)\n",
      "Message('note_on', channel=13, note=75, velocity=86, time=0)\n",
      "Message('note_on', channel=13, note=72, velocity=82, time=0)\n",
      "Message('note_on', channel=15, note=60, velocity=123, time=0)\n",
      "Message('note_off', channel=9, note=39, velocity=86, time=4)\n",
      "Message('note_off', channel=9, note=38, velocity=107, time=0)\n",
      "Message('note_off', channel=9, note=42, velocity=85, time=0)\n",
      "Message('note_on', channel=2, note=36, velocity=109, time=92)\n",
      "Message('note_off', channel=8, note=87, velocity=96, time=48)\n",
      "Message('note_off', channel=15, note=60, velocity=123, time=32)\n",
      "Message('note_off', channel=2, note=36, velocity=109, time=8)\n",
      "Message('note_off', channel=13, note=72, velocity=82, time=0)\n",
      "Message('note_off', channel=13, note=75, velocity=86, time=0)\n",
      "Message('note_off', channel=13, note=68, velocity=86, time=0)\n",
      "Message('note_on', channel=9, note=46, velocity=89, time=8)\n",
      "Message('note_on', channel=2, note=34, velocity=106, time=0)\n",
      "Message('note_on', channel=3, note=61, velocity=86, time=0)\n",
      "Message('note_on', channel=3, note=58, velocity=89, time=0)\n",
      "Message('note_on', channel=3, note=65, velocity=92, time=0)\n",
      "Message('note_on', channel=8, note=89, velocity=96, time=0)\n",
      "Message('note_on', channel=13, note=65, velocity=87, time=0)\n",
      "Message('note_on', channel=13, note=70, velocity=84, time=0)\n",
      "Message('note_on', channel=13, note=73, velocity=86, time=0)\n",
      "Message('note_on', channel=15, note=61, velocity=121, time=0)\n",
      "Message('note_off', channel=9, note=46, velocity=89, time=4)\n",
      "Message('note_off', channel=2, note=34, velocity=106, time=84)\n",
      "Message('note_on', channel=9, note=42, velocity=81, time=104)\n",
      "Message('note_on', channel=9, note=36, velocity=105, time=0)\n",
      "Message('note_off', channel=9, note=36, velocity=105, time=4)\n",
      "Message('note_off', channel=9, note=42, velocity=81, time=0)\n",
      "Message('note_off', channel=15, note=61, velocity=121, time=68)\n",
      "Message('note_off', channel=13, note=73, velocity=86, time=16)\n",
      "Message('note_off', channel=13, note=70, velocity=84, time=0)\n",
      "Message('note_off', channel=13, note=65, velocity=87, time=0)\n",
      "Message('note_on', channel=13, note=63, velocity=89, time=8)\n",
      "Message('note_on', channel=13, note=72, velocity=82, time=0)\n",
      "Message('note_on', channel=13, note=68, velocity=82, time=0)\n",
      "Message('note_on', channel=15, note=60, velocity=121, time=0)\n",
      "Message('note_off', channel=15, note=60, velocity=121, time=88)\n",
      "Message('note_off', channel=13, note=68, velocity=82, time=0)\n",
      "Message('note_off', channel=13, note=72, velocity=82, time=0)\n",
      "Message('note_off', channel=13, note=63, velocity=89, time=0)\n",
      "Message('note_on', channel=9, note=46, velocity=88, time=8)\n",
      "Message('note_on', channel=2, note=34, velocity=109, time=0)\n",
      "Message('note_on', channel=13, note=61, velocity=88, time=0)\n",
      "Message('note_on', channel=13, note=70, velocity=82, time=0)\n",
      "Message('note_on', channel=13, note=65, velocity=85, time=0)\n",
      "Message('note_on', channel=15, note=58, velocity=123, time=0)\n",
      "Message('note_off', channel=9, note=46, velocity=88, time=4)\n",
      "Message('note_off', channel=2, note=34, velocity=109, time=84)\n",
      "Message('note_on', channel=2, note=34, velocity=108, time=8)\n",
      "Message('note_off', channel=8, note=89, velocity=96, time=48)\n",
      "Message('note_off', channel=15, note=58, velocity=123, time=32)\n",
      "Message('note_off', channel=2, note=34, velocity=108, time=8)\n",
      "Message('note_off', channel=13, note=65, velocity=85, time=0)\n",
      "Message('note_off', channel=13, note=70, velocity=82, time=0)\n",
      "Message('note_off', channel=13, note=61, velocity=88, time=0)\n",
      "Message('note_on', channel=9, note=42, velocity=83, time=8)\n",
      "Message('note_on', channel=9, note=38, velocity=109, time=0)\n",
      "Message('note_on', channel=9, note=39, velocity=83, time=0)\n",
      "Message('note_on', channel=2, note=34, velocity=109, time=0)\n",
      "Message('note_on', channel=8, note=92, velocity=99, time=0)\n",
      "Message('note_on', channel=15, note=56, velocity=119, time=0)\n",
      "Message('note_off', channel=9, note=39, velocity=83, time=4)\n",
      "Message('note_off', channel=9, note=38, velocity=109, time=0)\n",
      "Message('note_off', channel=9, note=42, velocity=83, time=0)\n",
      "Message('note_off', channel=15, note=56, velocity=119, time=84)\n",
      "Message('note_off', channel=8, note=92, velocity=99, time=0)\n",
      "Message('note_off', channel=2, note=34, velocity=109, time=0)\n",
      "Message('note_on', channel=2, note=36, velocity=111, time=8)\n",
      "Message('note_on', channel=8, note=90, velocity=98, time=0)\n",
      "Message('note_on', channel=15, note=58, velocity=119, time=0)\n",
      "Message('note_off', channel=15, note=58, velocity=119, time=88)\n",
      "Message('note_off', channel=8, note=90, velocity=98, time=0)\n",
      "Message('note_off', channel=2, note=36, velocity=111, time=0)\n",
      "Message('note_on', channel=9, note=46, velocity=91, time=8)\n",
      "Message('note_on', channel=8, note=89, velocity=94, time=0)\n",
      "Message('note_on', channel=15, note=61, velocity=122, time=0)\n",
      "Message('note_off', channel=9, note=46, velocity=91, time=4)\n",
      "Message('note_off', channel=15, note=61, velocity=122, time=84)\n",
      "Message('note_off', channel=8, note=89, velocity=94, time=0)\n",
      "Message('note_off', channel=3, note=65, velocity=92, time=8)\n",
      "Message('note_off', channel=3, note=58, velocity=89, time=0)\n",
      "Message('note_off', channel=3, note=61, velocity=86, time=0)\n",
      "Message('note_on', channel=2, note=34, velocity=110, time=0)\n",
      "Message('note_on', channel=8, note=85, velocity=94, time=0)\n",
      "Message('note_on', channel=15, note=58, velocity=121, time=0)\n",
      "Message('note_off', channel=15, note=58, velocity=121, time=88)\n",
      "Message('note_off', channel=2, note=34, velocity=110, time=0)\n",
      "Message('note_on', channel=9, note=42, velocity=83, time=8)\n",
      "Message('note_on', channel=9, note=36, velocity=104, time=0)\n",
      "Message('note_on', channel=2, note=27, velocity=107, time=0)\n",
      "Message('note_on', channel=3, note=58, velocity=88, time=0)\n",
      "Message('note_on', channel=3, note=61, velocity=93, time=0)\n",
      "Message('note_on', channel=3, note=65, velocity=90, time=0)\n",
      "Message('note_on', channel=15, note=61, velocity=122, time=0)\n",
      "Message('note_off', channel=9, note=36, velocity=104, time=4)\n",
      "Message('note_off', channel=9, note=42, velocity=83, time=0)\n",
      "Message('note_off', channel=2, note=27, velocity=107, time=84)\n",
      "Message('note_on', channel=9, note=46, velocity=90, time=104)\n",
      "Message('note_on', channel=2, note=27, velocity=108, time=0)\n",
      "Message('note_off', channel=9, note=46, velocity=90, time=4)\n",
      "Message('note_off', channel=2, note=27, velocity=108, time=84)\n",
      "Message('note_on', channel=2, note=27, velocity=110, time=8)\n",
      "Message('note_off', channel=15, note=61, velocity=122, time=64)\n",
      "Message('note_off', channel=2, note=27, velocity=110, time=24)\n",
      "Message('note_on', channel=9, note=42, velocity=81, time=8)\n",
      "Message('note_on', channel=9, note=38, velocity=108, time=0)\n",
      "Message('note_on', channel=9, note=39, velocity=84, time=0)\n",
      "Message('note_on', channel=15, note=63, velocity=119, time=0)\n",
      "Message('note_off', channel=9, note=39, velocity=84, time=4)\n",
      "Message('note_off', channel=9, note=38, velocity=108, time=0)\n",
      "Message('note_off', channel=9, note=42, velocity=81, time=0)\n",
      "Message('note_off', channel=3, note=65, velocity=90, time=92)\n",
      "Message('note_off', channel=3, note=61, velocity=93, time=0)\n",
      "Message('note_off', channel=3, note=58, velocity=88, time=0)\n",
      "Message('note_on', channel=2, note=36, velocity=106, time=0)\n",
      "Message('note_off', channel=8, note=85, velocity=94, time=48)\n",
      "Message('note_off', channel=15, note=63, velocity=119, time=32)\n",
      "Message('note_off', channel=2, note=36, velocity=106, time=8)\n",
      "Message('note_on', channel=9, note=42, velocity=80, time=8)\n",
      "Message('note_on', channel=2, note=34, velocity=106, time=0)\n",
      "Message('note_on', channel=3, note=63, velocity=90, time=0)\n",
      "Message('note_on', channel=3, note=56, velocity=90, time=0)\n",
      "Message('note_on', channel=3, note=60, velocity=93, time=0)\n",
      "Message('note_on', channel=8, note=87, velocity=96, time=0)\n",
      "Message('note_on', channel=15, note=60, velocity=119, time=0)\n",
      "Message('note_off', channel=9, note=42, velocity=80, time=4)\n",
      "Message('note_off', channel=2, note=34, velocity=106, time=84)\n",
      "Message('note_on', channel=9, note=42, velocity=83, time=8)\n",
      "Message('note_off', channel=9, note=42, velocity=83, time=4)\n",
      "Message('note_on', channel=9, note=42, velocity=81, time=92)\n",
      "Message('note_on', channel=9, note=36, velocity=108, time=0)\n",
      "Message('note_on', channel=2, note=32, velocity=106, time=0)\n",
      "Message('note_off', channel=9, note=36, velocity=108, time=4)\n",
      "Message('note_off', channel=9, note=42, velocity=81, time=0)\n",
      "Message('note_off', channel=15, note=60, velocity=119, time=68)\n",
      "Message('note_off', channel=2, note=32, velocity=106, time=16)\n",
      "Message('note_on', channel=15, note=58, velocity=121, time=8)\n",
      "Message('note_off', channel=15, note=58, velocity=121, time=88)\n",
      "Message('note_on', channel=9, note=46, velocity=87, time=8)\n",
      "Message('note_on', channel=2, note=32, velocity=107, time=0)\n",
      "Message('note_on', channel=15, note=56, velocity=123, time=0)\n",
      "Message('note_off', channel=9, note=46, velocity=87, time=4)\n",
      "Message('note_off', channel=2, note=32, velocity=107, time=84)\n",
      "Message('note_off', channel=8, note=87, velocity=96, time=56)\n",
      "Message('note_on', channel=9, note=42, velocity=83, time=48)\n",
      "Message('note_on', channel=9, note=38, velocity=106, time=0)\n",
      "Message('note_on', channel=9, note=39, velocity=86, time=0)\n",
      "Message('note_on', channel=8, note=80, velocity=96, time=0)\n",
      "Message('note_off', channel=9, note=39, velocity=86, time=4)\n",
      "Message('note_off', channel=9, note=38, velocity=106, time=0)\n",
      "Message('note_off', channel=9, note=42, velocity=83, time=0)\n",
      "Message('note_off', channel=15, note=56, velocity=123, time=68)\n",
      "Message('note_on', channel=9, note=46, velocity=89, time=120)\n",
      "Message('note_on', channel=2, note=32, velocity=108, time=0)\n",
      "Message('note_on', channel=15, note=56, velocity=119, time=0)\n",
      "Message('note_off', channel=9, note=46, velocity=89, time=4)\n",
      "Message('note_off', channel=2, note=32, velocity=108, time=84)\n",
      "Message('note_off', channel=3, note=60, velocity=93, time=8)\n",
      "Message('note_off', channel=3, note=56, velocity=90, time=0)\n",
      "Message('note_off', channel=3, note=63, velocity=90, time=0)\n",
      "Message('note_on', channel=2, note=32, velocity=107, time=0)\n",
      "Message('note_off', channel=15, note=56, velocity=119, time=80)\n",
      "Message('note_off', channel=2, note=32, velocity=107, time=8)\n",
      "Message('note_on', channel=9, note=42, velocity=80, time=8)\n",
      "Message('note_on', channel=9, note=36, velocity=108, time=0)\n",
      "Message('note_on', channel=2, note=29, velocity=106, time=0)\n",
      "Message('note_on', channel=3, note=56, velocity=86, time=0)\n",
      "Message('note_on', channel=3, note=60, velocity=88, time=0)\n",
      "Message('note_on', channel=3, note=63, velocity=88, time=0)\n",
      "Message('note_on', channel=13, note=63, velocity=88, time=0)\n",
      "Message('note_on', channel=13, note=68, velocity=85, time=0)\n",
      "Message('note_on', channel=13, note=72, velocity=88, time=0)\n",
      "Message('note_on', channel=15, note=63, velocity=120, time=0)\n",
      "Message('note_off', channel=9, note=36, velocity=108, time=4)\n",
      "Message('note_off', channel=9, note=42, velocity=80, time=0)\n",
      "Message('note_off', channel=2, note=29, velocity=106, time=84)\n",
      "Message('note_off', channel=3, note=63, velocity=88, time=8)\n",
      "Message('note_off', channel=3, note=60, velocity=88, time=0)\n",
      "Message('note_off', channel=3, note=56, velocity=86, time=0)\n",
      "Message('note_on', channel=9, note=46, velocity=91, time=96)\n",
      "Message('note_on', channel=2, note=29, velocity=108, time=0)\n",
      "Message('note_off', channel=9, note=46, velocity=91, time=4)\n",
      "Message('note_off', channel=2, note=29, velocity=108, time=84)\n",
      "Message('note_off', channel=13, note=72, velocity=88, time=0)\n",
      "Message('note_off', channel=13, note=68, velocity=85, time=0)\n",
      "Message('note_off', channel=13, note=63, velocity=88, time=0)\n",
      "Message('note_on', channel=2, note=29, velocity=111, time=8)\n",
      "Message('note_off', channel=15, note=63, velocity=120, time=64)\n",
      "Message('note_off', channel=2, note=29, velocity=111, time=24)\n",
      "Message('note_on', channel=9, note=42, velocity=84, time=8)\n",
      "Message('note_on', channel=9, note=38, velocity=101, time=0)\n",
      "Message('note_on', channel=9, note=39, velocity=87, time=0)\n",
      "Message('note_on', channel=3, note=58, velocity=91, time=0)\n",
      "Message('note_on', channel=3, note=61, velocity=91, time=0)\n",
      "Message('note_on', channel=3, note=65, velocity=92, time=0)\n",
      "Message('note_on', channel=13, note=68, velocity=83, time=0)\n",
      "Message('note_on', channel=13, note=65, velocity=82, time=0)\n",
      "Message('note_on', channel=13, note=73, velocity=86, time=0)\n",
      "Message('note_on', channel=15, note=61, velocity=122, time=0)\n",
      "Message('note_off', channel=9, note=39, velocity=87, time=4)\n",
      "Message('note_off', channel=9, note=38, velocity=101, time=0)\n",
      "Message('note_off', channel=9, note=42, velocity=84, time=0)\n",
      "Message('note_on', channel=2, note=36, velocity=107, time=92)\n",
      "Message('note_off', channel=2, note=36, velocity=107, time=88)\n",
      "Message('note_on', channel=9, note=46, velocity=91, time=8)\n",
      "Message('note_on', channel=2, note=34, velocity=109, time=0)\n",
      "Message('note_off', channel=9, note=46, velocity=91, time=4)\n",
      "Message('note_off', channel=2, note=34, velocity=109, time=84)\n",
      "Message('note_on', channel=9, note=42, velocity=84, time=104)\n",
      "Message('note_on', channel=9, note=36, velocity=104, time=0)\n",
      "Message('note_on', channel=9, note=45, velocity=83, time=0)\n",
      "Message('note_off', channel=9, note=45, velocity=83, time=4)\n",
      "Message('note_off', channel=9, note=36, velocity=104, time=0)\n",
      "Message('note_off', channel=9, note=42, velocity=84, time=0)\n",
      "Message('note_on', channel=9, note=45, velocity=84, time=92)\n",
      "Message('note_off', channel=9, note=45, velocity=84, time=4)\n",
      "Message('note_on', channel=9, note=46, velocity=90, time=92)\n",
      "Message('note_on', channel=9, note=43, velocity=85, time=0)\n",
      "Message('note_on', channel=2, note=32, velocity=111, time=0)\n",
      "Message('note_on', channel=7, note=73, velocity=81, time=0)\n",
      "Message('note_on', channel=7, note=85, velocity=108, time=0)\n",
      "Message('note_off', channel=9, note=43, velocity=85, time=4)\n",
      "Message('note_off', channel=9, note=46, velocity=90, time=0)\n",
      "Message('note_off', channel=7, note=85, velocity=108, time=60)\n",
      "Message('note_off', channel=7, note=73, velocity=81, time=0)\n",
      "Message('note_off', channel=2, note=32, velocity=111, time=24)\n",
      "Message('note_on', channel=9, note=43, velocity=83, time=8)\n",
      "Message('note_on', channel=7, note=73, velocity=81, time=0)\n",
      "Message('note_on', channel=7, note=85, velocity=111, time=0)\n",
      "Message('note_off', channel=9, note=43, velocity=83, time=4)\n",
      "Message('note_off', channel=7, note=85, velocity=111, time=60)\n",
      "Message('note_off', channel=7, note=73, velocity=81, time=0)\n",
      "Message('note_off', channel=13, note=73, velocity=86, time=24)\n",
      "Message('note_off', channel=13, note=65, velocity=82, time=0)\n",
      "Message('note_off', channel=13, note=68, velocity=83, time=0)\n",
      "Message('note_on', channel=9, note=42, velocity=85, time=8)\n",
      "Message('note_on', channel=9, note=38, velocity=109, time=0)\n",
      "Message('note_on', channel=9, note=45, velocity=86, time=0)\n",
      "Message('note_on', channel=9, note=39, velocity=85, time=0)\n",
      "Message('note_on', channel=2, note=32, velocity=108, time=0)\n",
      "Message('note_on', channel=7, note=73, velocity=82, time=0)\n",
      "Message('note_on', channel=7, note=85, velocity=110, time=0)\n",
      "Message('note_on', channel=15, note=56, velocity=122, time=0)\n",
      "Message('note_off', channel=9, note=39, velocity=85, time=4)\n",
      "Message('note_off', channel=9, note=45, velocity=86, time=0)\n",
      "Message('note_off', channel=9, note=38, velocity=109, time=0)\n",
      "Message('note_off', channel=9, note=42, velocity=85, time=0)\n",
      "Message('note_off', channel=8, note=80, velocity=96, time=44)\n",
      "Message('note_off', channel=7, note=85, velocity=110, time=16)\n",
      "Message('note_off', channel=7, note=73, velocity=82, time=0)\n",
      "Message('note_off', channel=15, note=61, velocity=122, time=0)\n",
      "Message('note_off', channel=15, note=56, velocity=122, time=24)\n",
      "Message('note_off', channel=2, note=32, velocity=108, time=0)\n",
      "Message('note_on', channel=9, note=45, velocity=85, time=8)\n",
      "Message('note_on', channel=2, note=32, velocity=107, time=0)\n",
      "Message('note_on', channel=7, note=73, velocity=82, time=0)\n",
      "Message('note_on', channel=7, note=85, velocity=107, time=0)\n",
      "Message('note_on', channel=15, note=58, velocity=123, time=0)\n",
      "Message('note_off', channel=9, note=45, velocity=85, time=4)\n",
      "Message('note_off', channel=7, note=85, velocity=107, time=60)\n",
      "Message('note_off', channel=7, note=73, velocity=82, time=0)\n",
      "Message('note_off', channel=15, note=58, velocity=123, time=24)\n",
      "Message('note_off', channel=2, note=32, velocity=107, time=0)\n",
      "Message('note_on', channel=9, note=46, velocity=92, time=8)\n",
      "Message('note_on', channel=9, note=43, velocity=82, time=0)\n",
      "Message('note_on', channel=15, note=61, velocity=120, time=0)\n",
      "Message('note_off', channel=9, note=43, velocity=82, time=4)\n",
      "Message('note_off', channel=9, note=46, velocity=92, time=0)\n",
      "Message('note_off', channel=15, note=61, velocity=120, time=84)\n",
      "Message('note_off', channel=3, note=65, velocity=92, time=8)\n",
      "Message('note_off', channel=3, note=61, velocity=91, time=0)\n",
      "Message('note_off', channel=3, note=58, velocity=91, time=0)\n",
      "Message('note_on', channel=9, note=43, velocity=80, time=0)\n",
      "Message('note_on', channel=2, note=37, velocity=110, time=0)\n",
      "Message('note_on', channel=7, note=73, velocity=82, time=0)\n",
      "Message('note_on', channel=7, note=85, velocity=110, time=0)\n",
      "Message('note_on', channel=15, note=58, velocity=121, time=0)\n",
      "Message('note_off', channel=9, note=43, velocity=80, time=4)\n",
      "Message('note_off', channel=7, note=85, velocity=110, time=60)\n",
      "Message('note_off', channel=7, note=73, velocity=82, time=0)\n",
      "Message('note_off', channel=15, note=58, velocity=121, time=24)\n",
      "Message('note_off', channel=2, note=37, velocity=110, time=0)\n",
      "Message('note_on', channel=9, note=42, velocity=81, time=8)\n",
      "Message('note_on', channel=9, note=36, velocity=106, time=0)\n",
      "Message('note_on', channel=2, note=27, velocity=107, time=0)\n",
      "Message('note_on', channel=3, note=61, velocity=93, time=0)\n",
      "Message('note_on', channel=3, note=65, velocity=92, time=0)\n",
      "Message('note_on', channel=3, note=58, velocity=92, time=0)\n",
      "Message('note_on', channel=8, note=85, velocity=98, time=0)\n",
      "Message('note_on', channel=13, note=65, velocity=83, time=0)\n",
      "Message('note_on', channel=13, note=68, velocity=85, time=0)\n",
      "Message('note_on', channel=13, note=73, velocity=88, time=0)\n",
      "Message('note_on', channel=15, note=65, velocity=122, time=0)\n",
      "Message('note_off', channel=9, note=36, velocity=106, time=4)\n",
      "Message('note_off', channel=9, note=42, velocity=81, time=0)\n",
      "Message('note_off', channel=2, note=27, velocity=107, time=84)\n",
      "Message('note_on', channel=9, note=46, velocity=92, time=104)\n",
      "Message('note_on', channel=2, note=27, velocity=111, time=0)\n",
      "Message('note_off', channel=9, note=46, velocity=92, time=4)\n",
      "Message('note_off', channel=15, note=65, velocity=122, time=68)\n",
      "Message('note_off', channel=2, note=27, velocity=111, time=16)\n",
      "Message('note_off', channel=13, note=73, velocity=88, time=0)\n",
      "Message('note_off', channel=13, note=68, velocity=85, time=0)\n",
      "Message('note_off', channel=13, note=65, velocity=83, time=0)\n",
      "Message('note_on', channel=2, note=27, velocity=108, time=8)\n",
      "Message('note_off', channel=2, note=27, velocity=108, time=88)\n",
      "Message('note_on', channel=9, note=42, velocity=83, time=8)\n",
      "Message('note_on', channel=9, note=38, velocity=102, time=0)\n",
      "Message('note_on', channel=9, note=39, velocity=84, time=0)\n",
      "Message('note_on', channel=13, note=65, velocity=88, time=0)\n",
      "Message('note_on', channel=13, note=73, velocity=82, time=0)\n",
      "Message('note_on', channel=13, note=68, velocity=82, time=0)\n",
      "Message('note_on', channel=15, note=65, velocity=119, time=0)\n",
      "Message('note_off', channel=9, note=39, velocity=84, time=4)\n",
      "Message('note_off', channel=9, note=38, velocity=102, time=0)\n",
      "Message('note_off', channel=9, note=42, velocity=83, time=0)\n",
      "Message('note_off', channel=3, note=58, velocity=92, time=92)\n",
      "Message('note_off', channel=3, note=65, velocity=92, time=0)\n",
      "Message('note_off', channel=3, note=61, velocity=93, time=0)\n",
      "Message('note_on', channel=2, note=36, velocity=107, time=0)\n",
      "Message('note_off', channel=8, note=85, velocity=98, time=48)\n",
      "Message('note_off', channel=15, note=65, velocity=119, time=32)\n",
      "Message('note_off', channel=2, note=36, velocity=107, time=8)\n",
      "Message('note_off', channel=13, note=68, velocity=82, time=0)\n",
      "Message('note_off', channel=13, note=73, velocity=82, time=0)\n",
      "Message('note_off', channel=13, note=65, velocity=88, time=0)\n",
      "Message('note_on', channel=9, note=42, velocity=85, time=8)\n",
      "Message('note_on', channel=2, note=34, velocity=108, time=0)\n",
      "Message('note_on', channel=3, note=63, velocity=91, time=0)\n",
      "Message('note_on', channel=3, note=60, velocity=86, time=0)\n",
      "Message('note_on', channel=3, note=56, velocity=91, time=0)\n",
      "Message('note_on', channel=8, note=87, velocity=96, time=0)\n",
      "Message('note_on', channel=13, note=68, velocity=83, time=0)\n",
      "Message('note_on', channel=13, note=63, velocity=83, time=0)\n",
      "Message('note_on', channel=13, note=72, velocity=84, time=0)\n",
      "Message('note_on', channel=15, note=63, velocity=124, time=0)\n",
      "Message('note_off', channel=9, note=42, velocity=85, time=4)\n",
      "Message('note_off', channel=2, note=34, velocity=108, time=84)\n",
      "Message('note_on', channel=9, note=42, velocity=84, time=8)\n",
      "Message('note_off', channel=9, note=42, velocity=84, time=4)\n",
      "Message('note_off', channel=13, note=72, velocity=84, time=84)\n",
      "Message('note_off', channel=13, note=63, velocity=83, time=0)\n",
      "Message('note_off', channel=13, note=68, velocity=83, time=0)\n",
      "Message('note_on', channel=9, note=42, velocity=85, time=8)\n",
      "Message('note_on', channel=9, note=36, velocity=101, time=0)\n",
      "Message('note_on', channel=2, note=32, velocity=110, time=0)\n",
      "Message('note_off', channel=9, note=36, velocity=101, time=4)\n",
      "Message('note_off', channel=9, note=42, velocity=85, time=0)\n",
      "Message('note_off', channel=2, note=32, velocity=110, time=84)\n",
      "Message('note_on', channel=9, note=46, velocity=91, time=104)\n",
      "Message('note_on', channel=2, note=32, velocity=108, time=0)\n",
      "Message('note_off', channel=9, note=46, velocity=91, time=4)\n",
      "Message('note_off', channel=2, note=32, velocity=108, time=84)\n",
      "Message('note_off', channel=8, note=87, velocity=96, time=56)\n",
      "Message('note_off', channel=15, note=63, velocity=124, time=16)\n",
      "Message('note_on', channel=9, note=42, velocity=83, time=32)\n",
      "Message('note_on', channel=9, note=38, velocity=101, time=0)\n",
      "Message('note_on', channel=9, note=39, velocity=85, time=0)\n",
      "Message('note_on', channel=8, note=80, velocity=96, time=0)\n",
      "Message('note_on', channel=15, note=56, velocity=120, time=0)\n",
      "Message('note_off', channel=9, note=39, velocity=85, time=4)\n",
      "Message('note_off', channel=9, note=38, velocity=101, time=0)\n",
      "Message('note_off', channel=9, note=42, velocity=83, time=0)\n",
      "Message('note_off', channel=15, note=56, velocity=120, time=84)\n",
      "Message('note_on', channel=15, note=58, velocity=121, time=8)\n",
      "Message('note_off', channel=15, note=58, velocity=121, time=88)\n",
      "Message('note_on', channel=9, note=46, velocity=92, time=8)\n",
      "Message('note_on', channel=2, note=29, velocity=111, time=0)\n",
      "Message('note_on', channel=15, note=61, velocity=123, time=0)\n",
      "Message('note_off', channel=9, note=46, velocity=92, time=4)\n",
      "Message('note_off', channel=15, note=61, velocity=123, time=84)\n",
      "Message('note_off', channel=2, note=29, velocity=111, time=0)\n",
      "Message('note_off', channel=3, note=56, velocity=91, time=8)\n",
      "Message('note_off', channel=3, note=60, velocity=86, time=0)\n",
      "Message('note_off', channel=3, note=63, velocity=91, time=0)\n",
      "Message('note_on', channel=2, note=32, velocity=106, time=0)\n",
      "Message('note_on', channel=15, note=58, velocity=122, time=0)\n",
      "Message('note_off', channel=8, note=80, velocity=96, time=64)\n",
      "Message('note_off', channel=15, note=58, velocity=122, time=24)\n",
      "Message('note_off', channel=2, note=32, velocity=106, time=0)\n",
      "Message('note_on', channel=9, note=42, velocity=81, time=8)\n",
      "Message('note_on', channel=9, note=36, velocity=109, time=0)\n",
      "Message('note_on', channel=2, note=29, velocity=110, time=0)\n",
      "Message('note_on', channel=3, note=60, velocity=89, time=0)\n",
      "Message('note_on', channel=3, note=63, velocity=88, time=0)\n",
      "Message('note_on', channel=3, note=56, velocity=86, time=0)\n",
      "Message('note_on', channel=8, note=87, velocity=94, time=0)\n",
      "Message('note_on', channel=13, note=63, velocity=88, time=0)\n",
      "Message('note_on', channel=13, note=72, velocity=82, time=0)\n",
      "Message('note_on', channel=13, note=68, velocity=87, time=0)\n",
      "Message('note_on', channel=15, note=63, velocity=119, time=0)\n",
      "Message('note_off', channel=9, note=36, velocity=109, time=4)\n",
      "Message('note_off', channel=9, note=42, velocity=81, time=0)\n",
      "Message('note_off', channel=2, note=29, velocity=110, time=84)\n",
      "Message('note_on', channel=9, note=46, velocity=91, time=104)\n",
      "Message('note_on', channel=2, note=29, velocity=109, time=0)\n",
      "Message('note_off', channel=9, note=46, velocity=91, time=4)\n",
      "Message('note_off', channel=15, note=63, velocity=119, time=68)\n",
      "Message('note_off', channel=2, note=29, velocity=109, time=16)\n",
      "Message('note_off', channel=13, note=68, velocity=87, time=0)\n",
      "Message('note_off', channel=13, note=72, velocity=82, time=0)\n",
      "Message('note_off', channel=13, note=63, velocity=88, time=0)\n",
      "Message('note_on', channel=2, note=29, velocity=108, time=8)\n",
      "Message('note_off', channel=2, note=29, velocity=108, time=88)\n",
      "Message('note_on', channel=9, note=42, velocity=81, time=8)\n",
      "Message('note_on', channel=9, note=38, velocity=104, time=0)\n",
      "Message('note_on', channel=9, note=39, velocity=86, time=0)\n",
      "Message('note_on', channel=13, note=63, velocity=88, time=0)\n",
      "Message('note_on', channel=13, note=72, velocity=84, time=0)\n",
      "Message('note_on', channel=13, note=68, velocity=87, time=0)\n",
      "Message('note_on', channel=15, note=63, velocity=121, time=0)\n",
      "Message('note_off', channel=9, note=39, velocity=86, time=4)\n",
      "Message('note_off', channel=9, note=38, velocity=104, time=0)\n",
      "Message('note_off', channel=9, note=42, velocity=81, time=0)\n",
      "Message('note_off', channel=3, note=56, velocity=86, time=92)\n",
      "Message('note_off', channel=3, note=63, velocity=88, time=0)\n",
      "Message('note_off', channel=3, note=60, velocity=89, time=0)\n",
      "Message('note_on', channel=2, note=36, velocity=110, time=0)\n",
      "Message('note_off', channel=8, note=87, velocity=94, time=48)\n",
      "Message('note_off', channel=15, note=63, velocity=121, time=32)\n",
      "Message('note_off', channel=2, note=36, velocity=110, time=8)\n",
      "Message('note_off', channel=13, note=68, velocity=87, time=0)\n",
      "Message('note_off', channel=13, note=72, velocity=84, time=0)\n",
      "Message('note_off', channel=13, note=63, velocity=88, time=0)\n",
      "Message('note_on', channel=9, note=46, velocity=90, time=8)\n",
      "Message('note_on', channel=2, note=34, velocity=107, time=0)\n",
      "Message('note_on', channel=3, note=61, velocity=92, time=0)\n",
      "Message('note_on', channel=3, note=65, velocity=87, time=0)\n",
      "Message('note_on', channel=3, note=58, velocity=89, time=0)\n",
      "Message('note_on', channel=8, note=89, velocity=99, time=0)\n",
      "Message('note_on', channel=13, note=61, velocity=86, time=0)\n",
      "Message('note_on', channel=13, note=70, velocity=89, time=0)\n",
      "Message('note_on', channel=13, note=65, velocity=88, time=0)\n",
      "Message('note_on', channel=15, note=61, velocity=121, time=0)\n",
      "Message('note_off', channel=9, note=46, velocity=90, time=4)\n",
      "Message('note_off', channel=2, note=34, velocity=107, time=84)\n",
      "Message('note_off', channel=13, note=65, velocity=88, time=96)\n",
      "Message('note_off', channel=13, note=70, velocity=89, time=0)\n",
      "Message('note_off', channel=13, note=61, velocity=86, time=0)\n",
      "Message('note_on', channel=9, note=42, velocity=80, time=8)\n",
      "Message('note_on', channel=9, note=36, velocity=101, time=0)\n",
      "Message('note_off', channel=9, note=36, velocity=101, time=4)\n",
      "Message('note_off', channel=9, note=42, velocity=80, time=0)\n",
      "Message('note_off', channel=15, note=61, velocity=121, time=68)\n",
      "Message('note_on', channel=15, note=60, velocity=122, time=24)\n",
      "Message('note_off', channel=15, note=60, velocity=122, time=88)\n",
      "Message('note_on', channel=9, note=46, velocity=90, time=8)\n",
      "Message('note_on', channel=2, note=34, velocity=111, time=0)\n",
      "Message('note_on', channel=15, note=58, velocity=119, time=0)\n",
      "Message('note_off', channel=9, note=46, velocity=90, time=4)\n",
      "Message('note_off', channel=2, note=34, velocity=111, time=84)\n",
      "Message('note_on', channel=2, note=34, velocity=110, time=8)\n",
      "Message('note_off', channel=8, note=89, velocity=99, time=48)\n",
      "Message('note_off', channel=15, note=58, velocity=119, time=32)\n",
      "Message('note_off', channel=2, note=34, velocity=110, time=8)\n",
      "Message('note_on', channel=9, note=42, velocity=80, time=8)\n",
      "Message('note_on', channel=9, note=38, velocity=105, time=0)\n",
      "Message('note_on', channel=9, note=39, velocity=85, time=0)\n",
      "Message('note_on', channel=2, note=34, velocity=109, time=0)\n",
      "Message('note_on', channel=8, note=92, velocity=99, time=0)\n",
      "Message('note_on', channel=15, note=56, velocity=121, time=0)\n",
      "Message('note_off', channel=9, note=39, velocity=85, time=4)\n",
      "Message('note_off', channel=9, note=38, velocity=105, time=0)\n",
      "Message('note_off', channel=9, note=42, velocity=80, time=0)\n",
      "Message('note_off', channel=15, note=56, velocity=121, time=84)\n",
      "Message('note_off', channel=8, note=92, velocity=99, time=0)\n",
      "Message('note_off', channel=2, note=34, velocity=109, time=0)\n",
      "Message('note_on', channel=2, note=36, velocity=108, time=8)\n",
      "Message('note_on', channel=8, note=90, velocity=96, time=0)\n",
      "Message('note_on', channel=15, note=58, velocity=121, time=0)\n",
      "Message('note_off', channel=15, note=58, velocity=121, time=88)\n",
      "Message('note_off', channel=8, note=90, velocity=96, time=0)\n",
      "Message('note_off', channel=2, note=36, velocity=108, time=0)\n",
      "Message('note_on', channel=9, note=46, velocity=87, time=8)\n",
      "Message('note_on', channel=8, note=89, velocity=98, time=0)\n",
      "Message('note_on', channel=15, note=61, velocity=119, time=0)\n",
      "Message('note_off', channel=9, note=46, velocity=87, time=4)\n",
      "Message('note_off', channel=15, note=61, velocity=119, time=84)\n",
      "Message('note_off', channel=8, note=89, velocity=98, time=0)\n",
      "Message('note_off', channel=3, note=58, velocity=89, time=8)\n",
      "Message('note_off', channel=3, note=65, velocity=87, time=0)\n",
      "Message('note_off', channel=3, note=61, velocity=92, time=0)\n",
      "Message('note_on', channel=2, note=34, velocity=108, time=0)\n",
      "Message('note_on', channel=8, note=85, velocity=99, time=0)\n",
      "Message('note_on', channel=15, note=58, velocity=124, time=0)\n",
      "Message('note_off', channel=15, note=58, velocity=124, time=88)\n",
      "Message('note_off', channel=2, note=34, velocity=108, time=0)\n",
      "Message('note_on', channel=9, note=42, velocity=84, time=8)\n",
      "Message('note_on', channel=9, note=36, velocity=103, time=0)\n",
      "Message('note_on', channel=2, note=27, velocity=107, time=0)\n",
      "Message('note_on', channel=3, note=61, velocity=89, time=0)\n",
      "Message('note_on', channel=3, note=65, velocity=93, time=0)\n",
      "Message('note_on', channel=3, note=58, velocity=93, time=0)\n",
      "Message('note_on', channel=15, note=61, velocity=124, time=0)\n",
      "Message('note_off', channel=9, note=36, velocity=103, time=4)\n",
      "Message('note_off', channel=9, note=42, velocity=84, time=0)\n",
      "Message('note_off', channel=2, note=27, velocity=107, time=84)\n",
      "Message('note_on', channel=9, note=46, velocity=89, time=104)\n",
      "Message('note_on', channel=2, note=27, velocity=110, time=0)\n",
      "Message('note_off', channel=9, note=46, velocity=89, time=4)\n",
      "Message('note_off', channel=2, note=27, velocity=110, time=84)\n",
      "Message('note_on', channel=2, note=27, velocity=108, time=8)\n",
      "Message('note_off', channel=15, note=61, velocity=124, time=64)\n",
      "Message('note_off', channel=2, note=27, velocity=108, time=24)\n",
      "Message('note_on', channel=9, note=42, velocity=85, time=8)\n",
      "Message('note_on', channel=9, note=38, velocity=102, time=0)\n",
      "Message('note_on', channel=9, note=39, velocity=85, time=0)\n",
      "Message('note_on', channel=15, note=63, velocity=119, time=0)\n",
      "Message('note_off', channel=9, note=39, velocity=85, time=4)\n",
      "Message('note_off', channel=9, note=38, velocity=102, time=0)\n",
      "Message('note_off', channel=9, note=42, velocity=85, time=0)\n",
      "Message('note_off', channel=3, note=58, velocity=93, time=92)\n",
      "Message('note_off', channel=3, note=65, velocity=93, time=0)\n",
      "Message('note_off', channel=3, note=61, velocity=89, time=0)\n",
      "Message('note_on', channel=2, note=36, velocity=108, time=0)\n",
      "Message('note_off', channel=8, note=85, velocity=99, time=48)\n",
      "Message('note_off', channel=15, note=63, velocity=119, time=32)\n",
      "Message('note_off', channel=2, note=36, velocity=108, time=8)\n",
      "Message('note_on', channel=9, note=42, velocity=81, time=8)\n",
      "Message('note_on', channel=2, note=34, velocity=107, time=0)\n",
      "Message('note_on', channel=3, note=60, velocity=93, time=0)\n",
      "Message('note_on', channel=3, note=63, velocity=90, time=0)\n",
      "Message('note_on', channel=3, note=56, velocity=92, time=0)\n",
      "Message('note_on', channel=8, note=87, velocity=96, time=0)\n",
      "Message('note_on', channel=15, note=60, velocity=122, time=0)\n",
      "Message('note_off', channel=9, note=42, velocity=81, time=4)\n",
      "Message('note_off', channel=2, note=34, velocity=107, time=84)\n",
      "Message('note_on', channel=9, note=42, velocity=81, time=8)\n",
      "Message('note_off', channel=9, note=42, velocity=81, time=4)\n",
      "Message('note_on', channel=9, note=42, velocity=81, time=92)\n",
      "Message('note_on', channel=9, note=36, velocity=109, time=0)\n",
      "Message('note_on', channel=2, note=32, velocity=109, time=0)\n",
      "Message('note_off', channel=9, note=36, velocity=109, time=4)\n",
      "Message('note_off', channel=9, note=42, velocity=81, time=0)\n",
      "Message('note_off', channel=15, note=60, velocity=122, time=68)\n",
      "Message('note_off', channel=2, note=32, velocity=109, time=16)\n",
      "Message('note_on', channel=15, note=58, velocity=120, time=8)\n",
      "Message('note_off', channel=15, note=58, velocity=120, time=88)\n",
      "Message('note_on', channel=9, note=46, velocity=92, time=8)\n",
      "Message('note_on', channel=2, note=32, velocity=106, time=0)\n",
      "Message('note_on', channel=15, note=56, velocity=123, time=0)\n",
      "Message('note_off', channel=9, note=46, velocity=92, time=4)\n",
      "Message('note_off', channel=15, note=56, velocity=123, time=84)\n",
      "Message('note_off', channel=2, note=32, velocity=106, time=0)\n",
      "Message('note_off', channel=8, note=87, velocity=96, time=56)\n",
      "Message('note_on', channel=9, note=42, velocity=80, time=48)\n",
      "Message('note_on', channel=9, note=38, velocity=103, time=0)\n",
      "Message('note_on', channel=9, note=39, velocity=87, time=0)\n",
      "Message('note_on', channel=8, note=80, velocity=97, time=0)\n",
      "Message('note_on', channel=15, note=56, velocity=122, time=0)\n",
      "Message('note_off', channel=9, note=39, velocity=87, time=4)\n",
      "Message('note_off', channel=9, note=38, velocity=103, time=0)\n",
      "Message('note_off', channel=9, note=42, velocity=80, time=0)\n",
      "Message('note_off', channel=15, note=56, velocity=122, time=172)\n",
      "Message('note_on', channel=9, note=46, velocity=87, time=16)\n",
      "Message('note_on', channel=2, note=32, velocity=106, time=0)\n",
      "Message('note_on', channel=15, note=63, velocity=120, time=0)\n",
      "Message('note_off', channel=9, note=46, velocity=87, time=4)\n",
      "Message('note_off', channel=2, note=32, velocity=106, time=84)\n",
      "Message('note_off', channel=3, note=56, velocity=92, time=8)\n",
      "Message('note_off', channel=3, note=63, velocity=90, time=0)\n",
      "Message('note_off', channel=3, note=60, velocity=93, time=0)\n",
      "Message('note_on', channel=2, note=32, velocity=107, time=0)\n",
      "Message('note_off', channel=2, note=32, velocity=107, time=88)\n",
      "Message('note_on', channel=9, note=42, velocity=80, time=8)\n",
      "Message('note_on', channel=9, note=36, velocity=101, time=0)\n",
      "Message('note_on', channel=2, note=29, velocity=106, time=0)\n",
      "Message('note_on', channel=3, note=63, velocity=90, time=0)\n",
      "Message('note_on', channel=3, note=60, velocity=87, time=0)\n",
      "Message('note_on', channel=3, note=56, velocity=92, time=0)\n",
      "Message('note_on', channel=13, note=63, velocity=87, time=0)\n",
      "Message('note_on', channel=13, note=68, velocity=83, time=0)\n",
      "Message('note_on', channel=13, note=72, velocity=85, time=0)\n",
      "Message('note_off', channel=9, note=36, velocity=101, time=4)\n",
      "Message('note_off', channel=9, note=42, velocity=80, time=0)\n",
      "Message('note_off', channel=2, note=29, velocity=106, time=84)\n",
      "Message('note_on', channel=9, note=46, velocity=89, time=104)\n",
      "Message('note_on', channel=2, note=29, velocity=106, time=0)\n",
      "Message('note_off', channel=9, note=46, velocity=89, time=4)\n",
      "Message('note_off', channel=2, note=29, velocity=106, time=84)\n",
      "Message('note_off', channel=13, note=72, velocity=85, time=0)\n",
      "Message('note_off', channel=13, note=68, velocity=83, time=0)\n",
      "Message('note_off', channel=13, note=63, velocity=87, time=0)\n",
      "Message('note_on', channel=2, note=29, velocity=109, time=8)\n",
      "Message('note_off', channel=15, note=63, velocity=120, time=64)\n",
      "Message('note_off', channel=2, note=29, velocity=109, time=24)\n",
      "Message('note_on', channel=9, note=42, velocity=82, time=8)\n",
      "Message('note_on', channel=9, note=38, velocity=106, time=0)\n",
      "Message('note_on', channel=9, note=39, velocity=86, time=0)\n",
      "Message('note_on', channel=13, note=65, velocity=87, time=0)\n",
      "Message('note_on', channel=13, note=70, velocity=89, time=0)\n",
      "Message('note_on', channel=13, note=73, velocity=84, time=0)\n",
      "Message('note_on', channel=15, note=61, velocity=124, time=0)\n",
      "Message('note_off', channel=9, note=39, velocity=86, time=4)\n",
      "Message('note_off', channel=9, note=38, velocity=106, time=0)\n",
      "Message('note_off', channel=9, note=42, velocity=82, time=0)\n",
      "Message('note_off', channel=3, note=56, velocity=92, time=92)\n",
      "Message('note_off', channel=3, note=60, velocity=87, time=0)\n",
      "Message('note_off', channel=3, note=63, velocity=90, time=0)\n",
      "Message('note_on', channel=2, note=36, velocity=108, time=0)\n",
      "Message('note_off', channel=2, note=36, velocity=108, time=88)\n",
      "Message('note_on', channel=9, note=46, velocity=92, time=8)\n",
      "Message('note_on', channel=2, note=34, velocity=106, time=0)\n",
      "Message('note_on', channel=3, note=61, velocity=88, time=0)\n",
      "Message('note_on', channel=3, note=65, velocity=91, time=0)\n",
      "Message('note_on', channel=3, note=58, velocity=88, time=0)\n",
      "Message('note_off', channel=9, note=46, velocity=92, time=4)\n",
      "Message('note_off', channel=2, note=34, velocity=106, time=84)\n",
      "Message('note_on', channel=9, note=42, velocity=80, time=104)\n",
      "Message('note_on', channel=9, note=36, velocity=102, time=0)\n",
      "Message('note_off', channel=9, note=36, velocity=102, time=4)\n",
      "Message('note_off', channel=9, note=42, velocity=80, time=0)\n",
      "Message('note_off', channel=8, note=80, velocity=97, time=140)\n",
      "Message('note_on', channel=9, note=46, velocity=90, time=48)\n",
      "Message('note_on', channel=2, note=32, velocity=109, time=0)\n",
      "Message('note_on', channel=7, note=68, velocity=85, time=0)\n",
      "Message('note_on', channel=7, note=80, velocity=108, time=0)\n",
      "Message('note_on', channel=7, note=56, velocity=81, time=0)\n",
      "Message('note_off', channel=9, note=46, velocity=90, time=4)\n",
      "Message('note_off', channel=7, note=56, velocity=81, time=60)\n",
      "Message('note_off', channel=7, note=80, velocity=108, time=0)\n",
      "Message('note_off', channel=7, note=68, velocity=85, time=0)\n",
      "Message('note_off', channel=15, note=61, velocity=124, time=0)\n",
      "Message('note_off', channel=2, note=32, velocity=109, time=24)\n",
      "Message('note_on', channel=7, note=68, velocity=82, time=8)\n",
      "Message('note_on', channel=7, note=80, velocity=107, time=0)\n",
      "Message('note_on', channel=7, note=56, velocity=81, time=0)\n",
      "Message('note_off', channel=7, note=56, velocity=81, time=64)\n",
      "Message('note_off', channel=7, note=80, velocity=107, time=0)\n",
      "Message('note_off', channel=7, note=68, velocity=82, time=0)\n",
      "Message('note_on', channel=9, note=42, velocity=82, time=32)\n",
      "Message('note_on', channel=9, note=38, velocity=102, time=0)\n",
      "Message('note_on', channel=9, note=39, velocity=82, time=0)\n",
      "Message('note_on', channel=2, note=32, velocity=108, time=0)\n",
      "Message('note_on', channel=8, note=92, velocity=99, time=0)\n",
      "Message('note_on', channel=15, note=56, velocity=120, time=0)\n",
      "Message('note_off', channel=9, note=39, velocity=82, time=4)\n",
      "Message('note_off', channel=9, note=38, velocity=102, time=0)\n",
      "Message('note_off', channel=9, note=42, velocity=82, time=0)\n",
      "Message('note_off', channel=15, note=56, velocity=120, time=84)\n",
      "Message('note_off', channel=8, note=92, velocity=99, time=0)\n",
      "Message('note_off', channel=2, note=32, velocity=108, time=0)\n",
      "Message('note_off', channel=13, note=73, velocity=84, time=0)\n",
      "Message('note_off', channel=13, note=70, velocity=89, time=0)\n",
      "Message('note_off', channel=13, note=65, velocity=87, time=0)\n",
      "Message('note_on', channel=2, note=32, velocity=110, time=8)\n",
      "Message('note_on', channel=8, note=90, velocity=99, time=0)\n",
      "Message('note_on', channel=15, note=58, velocity=124, time=0)\n",
      "Message('note_off', channel=15, note=58, velocity=124, time=88)\n",
      "Message('note_off', channel=8, note=90, velocity=99, time=0)\n",
      "Message('note_off', channel=2, note=32, velocity=110, time=0)\n",
      "Message('note_on', channel=9, note=46, velocity=91, time=8)\n",
      "Message('note_on', channel=8, note=89, velocity=95, time=0)\n",
      "Message('note_on', channel=15, note=61, velocity=119, time=0)\n",
      "Message('note_off', channel=9, note=46, velocity=91, time=4)\n",
      "Message('note_off', channel=15, note=61, velocity=119, time=84)\n",
      "Message('note_off', channel=8, note=89, velocity=95, time=0)\n",
      "Message('note_off', channel=3, note=58, velocity=88, time=8)\n",
      "Message('note_off', channel=3, note=65, velocity=91, time=0)\n",
      "Message('note_off', channel=3, note=61, velocity=88, time=0)\n",
      "Message('note_on', channel=2, note=37, velocity=108, time=0)\n",
      "Message('note_on', channel=8, note=85, velocity=95, time=0)\n",
      "Message('note_on', channel=15, note=58, velocity=121, time=0)\n",
      "Message('note_off', channel=15, note=58, velocity=121, time=88)\n",
      "Message('note_off', channel=2, note=37, velocity=108, time=0)\n",
      "Message('note_on', channel=9, note=42, velocity=83, time=8)\n",
      "Message('note_on', channel=9, note=36, velocity=108, time=0)\n",
      "Message('note_on', channel=2, note=27, velocity=107, time=0)\n",
      "Message('note_on', channel=3, note=61, velocity=86, time=0)\n",
      "Message('note_on', channel=3, note=65, velocity=92, time=0)\n",
      "Message('note_on', channel=3, note=58, velocity=92, time=0)\n",
      "Message('note_on', channel=13, note=63, velocity=86, time=0)\n",
      "Message('note_on', channel=13, note=73, velocity=88, time=0)\n",
      "Message('note_on', channel=13, note=68, velocity=83, time=0)\n",
      "Message('note_on', channel=15, note=65, velocity=121, time=0)\n",
      "Message('note_off', channel=9, note=36, velocity=108, time=4)\n",
      "Message('note_off', channel=9, note=42, velocity=83, time=0)\n",
      "Message('note_off', channel=2, note=27, velocity=107, time=84)\n",
      "Message('note_on', channel=9, note=46, velocity=90, time=104)\n",
      "Message('note_on', channel=2, note=27, velocity=111, time=0)\n",
      "Message('note_off', channel=9, note=46, velocity=90, time=4)\n",
      "Message('note_off', channel=15, note=65, velocity=121, time=68)\n",
      "Message('note_off', channel=2, note=27, velocity=111, time=16)\n",
      "Message('note_off', channel=13, note=68, velocity=83, time=0)\n",
      "Message('note_off', channel=13, note=73, velocity=88, time=0)\n",
      "Message('note_off', channel=13, note=63, velocity=86, time=0)\n",
      "Message('note_on', channel=2, note=27, velocity=111, time=8)\n",
      "Message('note_off', channel=2, note=27, velocity=111, time=88)\n",
      "Message('note_on', channel=9, note=42, velocity=85, time=8)\n",
      "Message('note_on', channel=9, note=38, velocity=109, time=0)\n",
      "Message('note_on', channel=9, note=39, velocity=80, time=0)\n",
      "Message('note_on', channel=13, note=63, velocity=88, time=0)\n",
      "Message('note_on', channel=13, note=73, velocity=89, time=0)\n",
      "Message('note_on', channel=13, note=68, velocity=87, time=0)\n",
      "Message('note_on', channel=15, note=65, velocity=120, time=0)\n",
      "Message('note_off', channel=9, note=39, velocity=80, time=4)\n",
      "Message('note_off', channel=9, note=38, velocity=109, time=0)\n",
      "Message('note_off', channel=9, note=42, velocity=85, time=0)\n",
      "Message('note_off', channel=3, note=58, velocity=92, time=92)\n",
      "Message('note_off', channel=3, note=65, velocity=92, time=0)\n",
      "Message('note_off', channel=3, note=61, velocity=86, time=0)\n",
      "Message('note_on', channel=2, note=36, velocity=110, time=0)\n",
      "Message('note_off', channel=8, note=85, velocity=95, time=48)\n",
      "Message('note_off', channel=15, note=65, velocity=120, time=32)\n",
      "Message('note_off', channel=2, note=36, velocity=110, time=8)\n",
      "Message('note_off', channel=13, note=68, velocity=87, time=0)\n",
      "Message('note_off', channel=13, note=73, velocity=89, time=0)\n",
      "Message('note_off', channel=13, note=63, velocity=88, time=0)\n",
      "Message('note_on', channel=9, note=42, velocity=83, time=8)\n",
      "Message('note_on', channel=2, note=34, velocity=107, time=0)\n",
      "Message('note_on', channel=3, note=60, velocity=91, time=0)\n",
      "Message('note_on', channel=3, note=63, velocity=92, time=0)\n",
      "Message('note_on', channel=3, note=56, velocity=90, time=0)\n",
      "Message('note_on', channel=8, note=87, velocity=96, time=0)\n",
      "Message('note_on', channel=13, note=68, velocity=86, time=0)\n",
      "Message('note_on', channel=13, note=63, velocity=86, time=0)\n",
      "Message('note_on', channel=13, note=72, velocity=86, time=0)\n",
      "Message('note_on', channel=15, note=63, velocity=124, time=0)\n",
      "Message('note_off', channel=9, note=42, velocity=83, time=4)\n",
      "Message('note_off', channel=2, note=34, velocity=107, time=84)\n",
      "Message('note_on', channel=9, note=42, velocity=81, time=8)\n",
      "Message('note_off', channel=9, note=42, velocity=81, time=4)\n",
      "Message('note_on', channel=9, note=42, velocity=84, time=92)\n",
      "Message('note_on', channel=9, note=36, velocity=102, time=0)\n",
      "Message('note_on', channel=2, note=32, velocity=108, time=0)\n",
      "Message('note_off', channel=9, note=36, velocity=102, time=4)\n",
      "Message('note_off', channel=9, note=42, velocity=84, time=0)\n",
      "Message('note_off', channel=2, note=32, velocity=108, time=84)\n",
      "Message('note_on', channel=9, note=46, velocity=91, time=104)\n",
      "Message('note_on', channel=2, note=32, velocity=110, time=0)\n",
      "Message('note_off', channel=9, note=46, velocity=91, time=4)\n",
      "Message('note_off', channel=2, note=32, velocity=110, time=84)\n",
      "Message('note_off', channel=8, note=87, velocity=96, time=56)\n",
      "Message('note_off', channel=15, note=63, velocity=124, time=16)\n",
      "Message('note_off', channel=13, note=72, velocity=86, time=24)\n",
      "Message('note_off', channel=13, note=63, velocity=86, time=0)\n",
      "Message('note_off', channel=13, note=68, velocity=86, time=0)\n",
      "Message('note_on', channel=9, note=42, velocity=85, time=8)\n",
      "Message('note_on', channel=9, note=38, velocity=101, time=0)\n",
      "Message('note_on', channel=9, note=39, velocity=82, time=0)\n",
      "Message('note_on', channel=8, note=80, velocity=96, time=0)\n",
      "Message('note_on', channel=15, note=56, velocity=123, time=0)\n",
      "Message('note_off', channel=9, note=39, velocity=82, time=4)\n",
      "Message('note_off', channel=9, note=38, velocity=101, time=0)\n",
      "Message('note_off', channel=9, note=42, velocity=85, time=0)\n",
      "Message('note_off', channel=15, note=56, velocity=123, time=84)\n",
      "Message('note_on', channel=15, note=58, velocity=122, time=8)\n",
      "Message('note_off', channel=15, note=58, velocity=122, time=88)\n",
      "Message('note_on', channel=9, note=46, velocity=92, time=8)\n",
      "Message('note_on', channel=2, note=29, velocity=108, time=0)\n",
      "Message('note_on', channel=15, note=61, velocity=124, time=0)\n",
      "Message('note_off', channel=9, note=46, velocity=92, time=4)\n",
      "Message('note_off', channel=15, note=61, velocity=124, time=84)\n",
      "Message('note_off', channel=2, note=29, velocity=108, time=0)\n",
      "Message('note_off', channel=3, note=56, velocity=90, time=8)\n",
      "Message('note_off', channel=3, note=63, velocity=92, time=0)\n",
      "Message('note_off', channel=3, note=60, velocity=91, time=0)\n",
      "Message('note_on', channel=2, note=32, velocity=111, time=0)\n",
      "Message('note_on', channel=15, note=58, velocity=122, time=0)\n",
      "Message('note_off', channel=8, note=80, velocity=96, time=64)\n",
      "Message('note_off', channel=15, note=58, velocity=122, time=24)\n",
      "Message('note_off', channel=2, note=32, velocity=111, time=0)\n",
      "Message('note_on', channel=9, note=42, velocity=83, time=8)\n",
      "Message('note_on', channel=9, note=36, velocity=103, time=0)\n",
      "Message('note_on', channel=2, note=29, velocity=108, time=0)\n",
      "Message('note_on', channel=3, note=60, velocity=89, time=0)\n",
      "Message('note_on', channel=3, note=63, velocity=90, time=0)\n",
      "Message('note_on', channel=3, note=56, velocity=90, time=0)\n",
      "Message('note_on', channel=8, note=87, velocity=94, time=0)\n",
      "Message('note_on', channel=13, note=68, velocity=89, time=0)\n",
      "Message('note_on', channel=13, note=75, velocity=83, time=0)\n",
      "Message('note_on', channel=13, note=72, velocity=86, time=0)\n",
      "Message('note_on', channel=15, note=68, velocity=121, time=0)\n",
      "Message('note_off', channel=9, note=36, velocity=103, time=4)\n",
      "Message('note_off', channel=9, note=42, velocity=83, time=0)\n",
      "Message('note_off', channel=2, note=29, velocity=108, time=84)\n",
      "Message('note_on', channel=9, note=46, velocity=91, time=104)\n",
      "Message('note_on', channel=2, note=29, velocity=109, time=0)\n",
      "Message('note_off', channel=9, note=46, velocity=91, time=4)\n",
      "Message('note_off', channel=2, note=29, velocity=109, time=84)\n",
      "Message('note_off', channel=13, note=72, velocity=86, time=0)\n",
      "Message('note_off', channel=13, note=75, velocity=83, time=0)\n",
      "Message('note_off', channel=13, note=68, velocity=89, time=0)\n",
      "Message('note_on', channel=2, note=29, velocity=110, time=8)\n",
      "Message('note_off', channel=15, note=68, velocity=121, time=64)\n",
      "Message('note_off', channel=2, note=29, velocity=110, time=24)\n",
      "Message('note_on', channel=9, note=42, velocity=84, time=8)\n",
      "Message('note_on', channel=9, note=38, velocity=101, time=0)\n",
      "Message('note_on', channel=9, note=39, velocity=86, time=0)\n",
      "Message('note_on', channel=13, note=68, velocity=83, time=0)\n",
      "Message('note_on', channel=13, note=75, velocity=84, time=0)\n",
      "Message('note_on', channel=13, note=72, velocity=89, time=0)\n",
      "Message('note_on', channel=15, note=60, velocity=121, time=0)\n",
      "Message('note_off', channel=9, note=39, velocity=86, time=4)\n",
      "Message('note_off', channel=9, note=38, velocity=101, time=0)\n",
      "Message('note_off', channel=9, note=42, velocity=84, time=0)\n",
      "Message('note_off', channel=3, note=56, velocity=90, time=92)\n",
      "Message('note_off', channel=3, note=63, velocity=90, time=0)\n",
      "Message('note_off', channel=3, note=60, velocity=89, time=0)\n",
      "Message('note_on', channel=2, note=36, velocity=107, time=0)\n",
      "Message('note_off', channel=8, note=87, velocity=94, time=48)\n",
      "Message('note_off', channel=15, note=60, velocity=121, time=32)\n",
      "Message('note_off', channel=2, note=36, velocity=107, time=8)\n",
      "Message('note_off', channel=13, note=72, velocity=89, time=0)\n",
      "Message('note_off', channel=13, note=75, velocity=84, time=0)\n",
      "Message('note_off', channel=13, note=68, velocity=83, time=0)\n",
      "Message('note_on', channel=9, note=46, velocity=91, time=8)\n",
      "Message('note_on', channel=2, note=34, velocity=106, time=0)\n",
      "Message('note_on', channel=3, note=61, velocity=92, time=0)\n",
      "Message('note_on', channel=3, note=65, velocity=90, time=0)\n",
      "Message('note_on', channel=3, note=58, velocity=87, time=0)\n",
      "Message('note_on', channel=8, note=89, velocity=95, time=0)\n",
      "Message('note_on', channel=13, note=65, velocity=83, time=0)\n",
      "Message('note_on', channel=13, note=70, velocity=84, time=0)\n",
      "Message('note_on', channel=13, note=73, velocity=83, time=0)\n",
      "Message('note_on', channel=15, note=61, velocity=124, time=0)\n",
      "Message('note_off', channel=9, note=46, velocity=91, time=4)\n",
      "Message('note_off', channel=2, note=34, velocity=106, time=84)\n",
      "Message('note_on', channel=9, note=42, velocity=81, time=104)\n",
      "Message('note_on', channel=9, note=36, velocity=104, time=0)\n",
      "Message('note_off', channel=9, note=36, velocity=104, time=4)\n",
      "Message('note_off', channel=9, note=42, velocity=81, time=0)\n",
      "Message('note_off', channel=15, note=61, velocity=124, time=68)\n",
      "Message('note_off', channel=13, note=73, velocity=83, time=16)\n",
      "Message('note_off', channel=13, note=70, velocity=84, time=0)\n",
      "Message('note_off', channel=13, note=65, velocity=83, time=0)\n",
      "Message('note_on', channel=13, note=63, velocity=86, time=8)\n"
     ]
    },
    {
     "name": "stdout",
     "output_type": "stream",
     "text": [
      "Message('note_on', channel=13, note=72, velocity=87, time=0)\n",
      "Message('note_on', channel=13, note=68, velocity=88, time=0)\n",
      "Message('note_on', channel=15, note=60, velocity=119, time=0)\n",
      "Message('note_off', channel=15, note=60, velocity=119, time=88)\n",
      "Message('note_off', channel=13, note=68, velocity=88, time=0)\n",
      "Message('note_off', channel=13, note=72, velocity=87, time=0)\n",
      "Message('note_off', channel=13, note=63, velocity=86, time=0)\n",
      "Message('note_on', channel=9, note=46, velocity=90, time=8)\n",
      "Message('note_on', channel=2, note=34, velocity=109, time=0)\n",
      "Message('note_on', channel=13, note=61, velocity=85, time=0)\n",
      "Message('note_on', channel=13, note=70, velocity=87, time=0)\n",
      "Message('note_on', channel=13, note=65, velocity=86, time=0)\n",
      "Message('note_on', channel=15, note=58, velocity=122, time=0)\n",
      "Message('note_off', channel=9, note=46, velocity=90, time=4)\n",
      "Message('note_off', channel=2, note=34, velocity=109, time=84)\n",
      "Message('note_on', channel=2, note=34, velocity=107, time=8)\n",
      "Message('note_off', channel=8, note=89, velocity=95, time=48)\n",
      "Message('note_off', channel=15, note=58, velocity=122, time=32)\n",
      "Message('note_off', channel=2, note=34, velocity=107, time=8)\n",
      "Message('note_off', channel=13, note=65, velocity=86, time=0)\n",
      "Message('note_off', channel=13, note=70, velocity=87, time=0)\n",
      "Message('note_off', channel=13, note=61, velocity=85, time=0)\n",
      "Message('note_on', channel=9, note=42, velocity=83, time=8)\n",
      "Message('note_on', channel=9, note=38, velocity=103, time=0)\n",
      "Message('note_on', channel=9, note=39, velocity=87, time=0)\n",
      "Message('note_on', channel=2, note=34, velocity=108, time=0)\n",
      "Message('note_on', channel=8, note=92, velocity=97, time=0)\n",
      "Message('note_on', channel=15, note=56, velocity=120, time=0)\n",
      "Message('note_off', channel=9, note=39, velocity=87, time=4)\n",
      "Message('note_off', channel=9, note=38, velocity=103, time=0)\n",
      "Message('note_off', channel=9, note=42, velocity=83, time=0)\n",
      "Message('note_off', channel=15, note=56, velocity=120, time=84)\n",
      "Message('note_off', channel=8, note=92, velocity=97, time=0)\n",
      "Message('note_off', channel=2, note=34, velocity=108, time=0)\n",
      "Message('note_on', channel=2, note=36, velocity=108, time=8)\n",
      "Message('note_on', channel=8, note=90, velocity=99, time=0)\n",
      "Message('note_on', channel=15, note=58, velocity=124, time=0)\n",
      "Message('note_off', channel=15, note=58, velocity=124, time=88)\n",
      "Message('note_off', channel=8, note=90, velocity=99, time=0)\n",
      "Message('note_off', channel=2, note=36, velocity=108, time=0)\n",
      "Message('note_on', channel=9, note=46, velocity=87, time=8)\n",
      "Message('note_on', channel=8, note=89, velocity=99, time=0)\n",
      "Message('note_on', channel=15, note=61, velocity=123, time=0)\n",
      "Message('note_off', channel=9, note=46, velocity=87, time=4)\n",
      "Message('note_off', channel=15, note=61, velocity=123, time=84)\n",
      "Message('note_off', channel=8, note=89, velocity=99, time=0)\n",
      "Message('note_off', channel=3, note=58, velocity=87, time=8)\n",
      "Message('note_off', channel=3, note=65, velocity=90, time=0)\n",
      "Message('note_off', channel=3, note=61, velocity=92, time=0)\n",
      "Message('note_on', channel=2, note=34, velocity=109, time=0)\n",
      "Message('note_on', channel=8, note=85, velocity=95, time=0)\n",
      "Message('note_on', channel=15, note=58, velocity=122, time=0)\n",
      "Message('note_off', channel=15, note=58, velocity=122, time=88)\n",
      "Message('note_off', channel=2, note=34, velocity=109, time=0)\n",
      "Message('note_on', channel=9, note=42, velocity=80, time=8)\n",
      "Message('note_on', channel=9, note=36, velocity=106, time=0)\n",
      "Message('note_on', channel=2, note=27, velocity=111, time=0)\n",
      "Message('note_on', channel=3, note=61, velocity=91, time=0)\n",
      "Message('note_on', channel=3, note=65, velocity=87, time=0)\n",
      "Message('note_on', channel=3, note=58, velocity=91, time=0)\n",
      "Message('note_on', channel=15, note=61, velocity=124, time=0)\n",
      "Message('note_off', channel=9, note=36, velocity=106, time=4)\n",
      "Message('note_off', channel=9, note=42, velocity=80, time=0)\n",
      "Message('note_off', channel=2, note=27, velocity=111, time=84)\n",
      "Message('note_on', channel=9, note=46, velocity=87, time=104)\n",
      "Message('note_on', channel=2, note=27, velocity=109, time=0)\n",
      "Message('note_off', channel=9, note=46, velocity=87, time=4)\n",
      "Message('note_off', channel=2, note=27, velocity=109, time=84)\n",
      "Message('note_on', channel=2, note=27, velocity=109, time=8)\n",
      "Message('note_off', channel=15, note=61, velocity=124, time=64)\n",
      "Message('note_off', channel=2, note=27, velocity=109, time=24)\n",
      "Message('note_on', channel=9, note=42, velocity=85, time=8)\n",
      "Message('note_on', channel=9, note=38, velocity=103, time=0)\n",
      "Message('note_on', channel=9, note=39, velocity=82, time=0)\n",
      "Message('note_on', channel=15, note=63, velocity=120, time=0)\n",
      "Message('note_off', channel=9, note=39, velocity=82, time=4)\n",
      "Message('note_off', channel=9, note=38, velocity=103, time=0)\n",
      "Message('note_off', channel=9, note=42, velocity=85, time=0)\n",
      "Message('note_off', channel=3, note=58, velocity=91, time=92)\n",
      "Message('note_off', channel=3, note=65, velocity=87, time=0)\n",
      "Message('note_off', channel=3, note=61, velocity=91, time=0)\n",
      "Message('note_on', channel=2, note=36, velocity=108, time=0)\n",
      "Message('note_off', channel=8, note=85, velocity=95, time=48)\n",
      "Message('note_off', channel=15, note=63, velocity=120, time=32)\n",
      "Message('note_off', channel=2, note=36, velocity=108, time=8)\n",
      "Message('note_on', channel=9, note=42, velocity=85, time=8)\n",
      "Message('note_on', channel=2, note=34, velocity=109, time=0)\n",
      "Message('note_on', channel=3, note=63, velocity=89, time=0)\n",
      "Message('note_on', channel=3, note=60, velocity=88, time=0)\n",
      "Message('note_on', channel=3, note=56, velocity=93, time=0)\n",
      "Message('note_on', channel=8, note=87, velocity=96, time=0)\n",
      "Message('note_on', channel=15, note=60, velocity=122, time=0)\n",
      "Message('note_off', channel=9, note=42, velocity=85, time=4)\n",
      "Message('note_off', channel=2, note=34, velocity=109, time=84)\n",
      "Message('note_on', channel=9, note=42, velocity=82, time=8)\n",
      "Message('note_off', channel=9, note=42, velocity=82, time=4)\n",
      "Message('note_on', channel=9, note=42, velocity=84, time=92)\n",
      "Message('note_on', channel=9, note=36, velocity=101, time=0)\n",
      "Message('note_on', channel=2, note=32, velocity=107, time=0)\n",
      "Message('note_off', channel=9, note=36, velocity=101, time=4)\n",
      "Message('note_off', channel=9, note=42, velocity=84, time=0)\n",
      "Message('note_off', channel=15, note=60, velocity=122, time=68)\n",
      "Message('note_off', channel=2, note=32, velocity=107, time=16)\n",
      "Message('note_on', channel=15, note=58, velocity=123, time=8)\n",
      "Message('note_off', channel=15, note=58, velocity=123, time=88)\n",
      "Message('note_on', channel=9, note=46, velocity=92, time=8)\n",
      "Message('note_on', channel=2, note=32, velocity=108, time=0)\n",
      "Message('note_on', channel=15, note=56, velocity=120, time=0)\n",
      "Message('note_off', channel=9, note=46, velocity=92, time=4)\n",
      "Message('note_off', channel=2, note=32, velocity=108, time=84)\n",
      "Message('note_off', channel=8, note=87, velocity=96, time=56)\n",
      "Message('note_on', channel=9, note=42, velocity=83, time=48)\n",
      "Message('note_on', channel=9, note=38, velocity=106, time=0)\n",
      "Message('note_on', channel=9, note=39, velocity=86, time=0)\n",
      "Message('note_on', channel=8, note=80, velocity=96, time=0)\n",
      "Message('note_off', channel=9, note=39, velocity=86, time=4)\n",
      "Message('note_off', channel=9, note=38, velocity=106, time=0)\n",
      "Message('note_off', channel=9, note=42, velocity=83, time=0)\n",
      "Message('note_off', channel=15, note=56, velocity=120, time=68)\n",
      "Message('note_on', channel=9, note=46, velocity=87, time=120)\n",
      "Message('note_on', channel=2, note=32, velocity=109, time=0)\n",
      "Message('note_on', channel=15, note=56, velocity=119, time=0)\n",
      "Message('note_off', channel=9, note=46, velocity=87, time=4)\n",
      "Message('note_off', channel=2, note=32, velocity=109, time=84)\n",
      "Message('note_off', channel=3, note=56, velocity=93, time=8)\n",
      "Message('note_off', channel=3, note=60, velocity=88, time=0)\n",
      "Message('note_off', channel=3, note=63, velocity=89, time=0)\n",
      "Message('note_on', channel=2, note=32, velocity=110, time=0)\n",
      "Message('note_off', channel=15, note=56, velocity=119, time=80)\n",
      "Message('note_off', channel=2, note=32, velocity=110, time=8)\n",
      "Message('note_on', channel=9, note=42, velocity=81, time=8)\n",
      "Message('note_on', channel=9, note=36, velocity=104, time=0)\n",
      "Message('note_on', channel=2, note=29, velocity=106, time=0)\n",
      "Message('note_on', channel=3, note=63, velocity=91, time=0)\n",
      "Message('note_on', channel=3, note=60, velocity=88, time=0)\n",
      "Message('note_on', channel=3, note=56, velocity=88, time=0)\n",
      "Message('note_on', channel=13, note=63, velocity=82, time=0)\n",
      "Message('note_on', channel=13, note=68, velocity=89, time=0)\n",
      "Message('note_on', channel=13, note=72, velocity=88, time=0)\n",
      "Message('note_on', channel=15, note=63, velocity=124, time=0)\n",
      "Message('note_off', channel=9, note=36, velocity=104, time=4)\n",
      "Message('note_off', channel=9, note=42, velocity=81, time=0)\n",
      "Message('note_off', channel=2, note=29, velocity=106, time=84)\n",
      "Message('note_off', channel=15, note=63, velocity=124, time=88)\n",
      "Message('note_off', channel=3, note=56, velocity=88, time=16)\n",
      "Message('note_off', channel=3, note=60, velocity=88, time=0)\n",
      "Message('note_off', channel=3, note=63, velocity=91, time=0)\n",
      "Message('note_on', channel=9, note=46, velocity=88, time=0)\n",
      "Message('note_on', channel=2, note=29, velocity=111, time=0)\n",
      "Message('note_on', channel=15, note=61, velocity=123, time=0)\n",
      "Message('note_off', channel=9, note=46, velocity=88, time=4)\n",
      "Message('note_off', channel=15, note=61, velocity=123, time=84)\n",
      "Message('note_off', channel=2, note=29, velocity=111, time=0)\n",
      "Message('note_off', channel=13, note=72, velocity=88, time=0)\n",
      "Message('note_off', channel=13, note=68, velocity=89, time=0)\n",
      "Message('note_off', channel=13, note=63, velocity=82, time=0)\n",
      "Message('note_on', channel=2, note=29, velocity=107, time=8)\n",
      "Message('note_off', channel=2, note=29, velocity=107, time=88)\n",
      "Message('note_on', channel=9, note=42, velocity=84, time=8)\n",
      "Message('note_on', channel=9, note=38, velocity=107, time=0)\n",
      "Message('note_on', channel=9, note=39, velocity=82, time=0)\n",
      "Message('note_on', channel=3, note=61, velocity=91, time=0)\n",
      "Message('note_on', channel=3, note=65, velocity=92, time=0)\n",
      "Message('note_on', channel=3, note=58, velocity=92, time=0)\n",
      "Message('note_on', channel=13, note=68, velocity=82, time=0)\n",
      "Message('note_on', channel=13, note=65, velocity=87, time=0)\n",
      "Message('note_on', channel=13, note=73, velocity=88, time=0)\n",
      "Message('note_on', channel=15, note=61, velocity=124, time=0)\n",
      "Message('note_off', channel=9, note=39, velocity=82, time=4)\n",
      "Message('note_off', channel=9, note=38, velocity=107, time=0)\n",
      "Message('note_off', channel=9, note=42, velocity=84, time=0)\n",
      "Message('note_on', channel=2, note=36, velocity=109, time=92)\n",
      "Message('note_off', channel=2, note=36, velocity=109, time=88)\n",
      "Message('note_on', channel=9, note=46, velocity=87, time=8)\n",
      "Message('note_on', channel=2, note=34, velocity=110, time=0)\n",
      "Message('note_off', channel=9, note=46, velocity=87, time=4)\n",
      "Message('note_off', channel=2, note=34, velocity=110, time=84)\n",
      "Message('note_on', channel=9, note=42, velocity=81, time=104)\n",
      "Message('note_on', channel=9, note=36, velocity=107, time=0)\n",
      "Message('note_on', channel=9, note=39, velocity=81, time=0)\n",
      "Message('note_off', channel=9, note=39, velocity=81, time=4)\n",
      "Message('note_off', channel=9, note=36, velocity=107, time=0)\n",
      "Message('note_off', channel=9, note=42, velocity=81, time=0)\n",
      "Message('note_on', channel=9, note=39, velocity=84, time=92)\n",
      "Message('note_off', channel=9, note=39, velocity=84, time=4)\n",
      "Message('note_on', channel=9, note=46, velocity=91, time=92)\n",
      "Message('note_on', channel=2, note=32, velocity=107, time=0)\n",
      "Message('note_on', channel=7, note=73, velocity=82, time=0)\n",
      "Message('note_on', channel=7, note=85, velocity=109, time=0)\n",
      "Message('note_off', channel=9, note=46, velocity=91, time=4)\n",
      "Message('note_off', channel=7, note=85, velocity=109, time=60)\n",
      "Message('note_off', channel=7, note=73, velocity=82, time=0)\n",
      "Message('note_off', channel=2, note=32, velocity=107, time=24)\n",
      "Message('note_on', channel=7, note=73, velocity=84, time=8)\n",
      "Message('note_on', channel=7, note=85, velocity=108, time=0)\n",
      "Message('note_off', channel=7, note=85, velocity=108, time=64)\n",
      "Message('note_off', channel=7, note=73, velocity=84, time=0)\n",
      "Message('note_off', channel=13, note=73, velocity=88, time=24)\n",
      "Message('note_off', channel=13, note=65, velocity=87, time=0)\n",
      "Message('note_off', channel=13, note=68, velocity=82, time=0)\n",
      "Message('note_on', channel=9, note=42, velocity=84, time=8)\n",
      "Message('note_on', channel=9, note=38, velocity=103, time=0)\n",
      "Message('note_on', channel=9, note=45, velocity=83, time=0)\n",
      "Message('note_on', channel=9, note=39, velocity=83, time=0)\n",
      "Message('note_on', channel=2, note=32, velocity=110, time=0)\n",
      "Message('note_on', channel=7, note=73, velocity=82, time=0)\n",
      "Message('note_on', channel=7, note=85, velocity=109, time=0)\n",
      "Message('note_on', channel=15, note=56, velocity=124, time=0)\n",
      "Message('note_off', channel=9, note=39, velocity=83, time=4)\n",
      "Message('note_off', channel=9, note=45, velocity=83, time=0)\n",
      "Message('note_off', channel=9, note=38, velocity=103, time=0)\n",
      "Message('note_off', channel=9, note=42, velocity=84, time=0)\n",
      "Message('note_off', channel=8, note=80, velocity=96, time=44)\n",
      "Message('note_off', channel=7, note=85, velocity=109, time=16)\n",
      "Message('note_off', channel=7, note=73, velocity=82, time=0)\n",
      "Message('note_off', channel=15, note=61, velocity=124, time=0)\n",
      "Message('note_off', channel=15, note=56, velocity=124, time=24)\n",
      "Message('note_off', channel=2, note=32, velocity=110, time=0)\n",
      "Message('note_on', channel=9, note=45, velocity=84, time=8)\n",
      "Message('note_on', channel=9, note=39, velocity=82, time=0)\n",
      "Message('note_on', channel=2, note=32, velocity=109, time=0)\n",
      "Message('note_on', channel=7, note=73, velocity=83, time=0)\n",
      "Message('note_on', channel=7, note=85, velocity=108, time=0)\n",
      "Message('note_on', channel=15, note=58, velocity=124, time=0)\n",
      "Message('note_off', channel=9, note=39, velocity=82, time=4)\n",
      "Message('note_off', channel=9, note=45, velocity=84, time=0)\n",
      "Message('note_off', channel=7, note=85, velocity=108, time=60)\n",
      "Message('note_off', channel=7, note=73, velocity=83, time=0)\n",
      "Message('note_off', channel=15, note=58, velocity=124, time=24)\n",
      "Message('note_off', channel=2, note=32, velocity=109, time=0)\n",
      "Message('note_on', channel=9, note=46, velocity=87, time=8)\n",
      "Message('note_on', channel=15, note=61, velocity=123, time=0)\n",
      "Message('note_off', channel=9, note=46, velocity=87, time=4)\n",
      "Message('note_off', channel=15, note=61, velocity=123, time=84)\n",
      "Message('note_off', channel=3, note=58, velocity=92, time=8)\n",
      "Message('note_off', channel=3, note=65, velocity=92, time=0)\n",
      "Message('note_off', channel=3, note=61, velocity=91, time=0)\n",
      "Message('note_on', channel=2, note=37, velocity=111, time=0)\n",
      "Message('note_on', channel=7, note=73, velocity=82, time=0)\n",
      "Message('note_on', channel=7, note=85, velocity=107, time=0)\n",
      "Message('note_on', channel=15, note=58, velocity=120, time=0)\n",
      "Message('note_off', channel=7, note=85, velocity=107, time=64)\n",
      "Message('note_off', channel=7, note=73, velocity=82, time=0)\n",
      "Message('note_off', channel=15, note=58, velocity=120, time=24)\n",
      "Message('note_off', channel=2, note=37, velocity=111, time=0)\n",
      "Message('note_on', channel=9, note=42, velocity=81, time=8)\n",
      "Message('note_on', channel=9, note=36, velocity=106, time=0)\n",
      "Message('note_on', channel=2, note=27, velocity=108, time=0)\n",
      "Message('note_on', channel=3, note=58, velocity=90, time=0)\n",
      "Message('note_on', channel=3, note=61, velocity=89, time=0)\n",
      "Message('note_on', channel=3, note=65, velocity=87, time=0)\n",
      "Message('note_on', channel=8, note=85, velocity=99, time=0)\n",
      "Message('note_on', channel=13, note=65, velocity=86, time=0)\n",
      "Message('note_on', channel=13, note=68, velocity=87, time=0)\n",
      "Message('note_on', channel=13, note=73, velocity=82, time=0)\n",
      "Message('note_on', channel=15, note=65, velocity=119, time=0)\n",
      "Message('note_off', channel=9, note=36, velocity=106, time=4)\n",
      "Message('note_off', channel=9, note=42, velocity=81, time=0)\n",
      "Message('note_off', channel=2, note=27, velocity=108, time=84)\n",
      "Message('note_on', channel=9, note=46, velocity=87, time=104)\n",
      "Message('note_on', channel=2, note=27, velocity=111, time=0)\n",
      "Message('note_off', channel=9, note=46, velocity=87, time=4)\n",
      "Message('note_off', channel=15, note=65, velocity=119, time=68)\n",
      "Message('note_off', channel=2, note=27, velocity=111, time=16)\n",
      "Message('note_off', channel=13, note=73, velocity=82, time=0)\n",
      "Message('note_off', channel=13, note=68, velocity=87, time=0)\n",
      "Message('note_off', channel=13, note=65, velocity=86, time=0)\n",
      "Message('note_on', channel=2, note=27, velocity=110, time=8)\n",
      "Message('note_off', channel=2, note=27, velocity=110, time=88)\n",
      "Message('note_on', channel=9, note=42, velocity=82, time=8)\n",
      "Message('note_on', channel=9, note=38, velocity=103, time=0)\n",
      "Message('note_on', channel=9, note=39, velocity=87, time=0)\n",
      "Message('note_on', channel=13, note=65, velocity=84, time=0)\n",
      "Message('note_on', channel=13, note=73, velocity=84, time=0)\n",
      "Message('note_on', channel=13, note=68, velocity=84, time=0)\n",
      "Message('note_on', channel=15, note=65, velocity=119, time=0)\n",
      "Message('note_off', channel=9, note=39, velocity=87, time=4)\n",
      "Message('note_off', channel=9, note=38, velocity=103, time=0)\n",
      "Message('note_off', channel=9, note=42, velocity=82, time=0)\n",
      "Message('note_off', channel=3, note=65, velocity=87, time=92)\n",
      "Message('note_off', channel=3, note=61, velocity=89, time=0)\n",
      "Message('note_off', channel=3, note=58, velocity=90, time=0)\n",
      "Message('note_on', channel=2, note=36, velocity=111, time=0)\n",
      "Message('note_off', channel=8, note=85, velocity=99, time=48)\n",
      "Message('note_off', channel=15, note=65, velocity=119, time=32)\n",
      "Message('note_off', channel=2, note=36, velocity=111, time=8)\n",
      "Message('note_off', channel=13, note=68, velocity=84, time=0)\n",
      "Message('note_off', channel=13, note=73, velocity=84, time=0)\n",
      "Message('note_off', channel=13, note=65, velocity=84, time=0)\n",
      "Message('note_on', channel=9, note=42, velocity=81, time=8)\n",
      "Message('note_on', channel=2, note=34, velocity=111, time=0)\n",
      "Message('note_on', channel=3, note=60, velocity=88, time=0)\n",
      "Message('note_on', channel=3, note=63, velocity=92, time=0)\n",
      "Message('note_on', channel=3, note=56, velocity=92, time=0)\n",
      "Message('note_on', channel=8, note=87, velocity=96, time=0)\n",
      "Message('note_on', channel=13, note=68, velocity=89, time=0)\n",
      "Message('note_on', channel=13, note=63, velocity=87, time=0)\n",
      "Message('note_on', channel=13, note=72, velocity=82, time=0)\n",
      "Message('note_on', channel=15, note=63, velocity=121, time=0)\n",
      "Message('note_off', channel=9, note=42, velocity=81, time=4)\n",
      "Message('note_off', channel=2, note=34, velocity=111, time=84)\n",
      "Message('note_on', channel=9, note=42, velocity=84, time=8)\n",
      "Message('note_off', channel=9, note=42, velocity=84, time=4)\n",
      "Message('note_off', channel=13, note=72, velocity=82, time=84)\n",
      "Message('note_off', channel=13, note=63, velocity=87, time=0)\n",
      "Message('note_off', channel=13, note=68, velocity=89, time=0)\n",
      "Message('note_on', channel=9, note=42, velocity=80, time=8)\n",
      "Message('note_on', channel=9, note=36, velocity=107, time=0)\n",
      "Message('note_on', channel=2, note=32, velocity=111, time=0)\n",
      "Message('note_off', channel=9, note=36, velocity=107, time=4)\n",
      "Message('note_off', channel=9, note=42, velocity=80, time=0)\n",
      "Message('note_off', channel=2, note=32, velocity=111, time=84)\n",
      "Message('note_on', channel=9, note=46, velocity=91, time=104)\n",
      "Message('note_on', channel=2, note=32, velocity=107, time=0)\n",
      "Message('note_off', channel=9, note=46, velocity=91, time=4)\n",
      "Message('note_off', channel=2, note=32, velocity=107, time=84)\n",
      "Message('note_off', channel=8, note=87, velocity=96, time=56)\n",
      "Message('note_off', channel=15, note=63, velocity=121, time=16)\n",
      "Message('note_on', channel=9, note=42, velocity=81, time=32)\n",
      "Message('note_on', channel=9, note=38, velocity=107, time=0)\n",
      "Message('note_on', channel=9, note=39, velocity=87, time=0)\n",
      "Message('note_on', channel=8, note=80, velocity=96, time=0)\n",
      "Message('note_on', channel=15, note=56, velocity=121, time=0)\n",
      "Message('note_off', channel=9, note=39, velocity=87, time=4)\n",
      "Message('note_off', channel=9, note=38, velocity=107, time=0)\n",
      "Message('note_off', channel=9, note=42, velocity=81, time=0)\n",
      "Message('note_off', channel=15, note=56, velocity=121, time=84)\n",
      "Message('note_on', channel=15, note=58, velocity=122, time=8)\n",
      "Message('note_off', channel=15, note=58, velocity=122, time=88)\n",
      "Message('note_on', channel=9, note=46, velocity=90, time=8)\n",
      "Message('note_on', channel=2, note=29, velocity=107, time=0)\n",
      "Message('note_on', channel=15, note=61, velocity=122, time=0)\n",
      "Message('note_off', channel=9, note=46, velocity=90, time=4)\n",
      "Message('note_off', channel=15, note=61, velocity=122, time=84)\n",
      "Message('note_off', channel=2, note=29, velocity=107, time=0)\n",
      "Message('note_off', channel=3, note=56, velocity=92, time=8)\n",
      "Message('note_off', channel=3, note=63, velocity=92, time=0)\n",
      "Message('note_off', channel=3, note=60, velocity=88, time=0)\n",
      "Message('note_on', channel=2, note=32, velocity=107, time=0)\n",
      "Message('note_on', channel=15, note=58, velocity=120, time=0)\n",
      "Message('note_off', channel=8, note=80, velocity=96, time=64)\n",
      "Message('note_off', channel=15, note=58, velocity=120, time=24)\n",
      "Message('note_off', channel=2, note=32, velocity=107, time=0)\n",
      "Message('note_on', channel=9, note=42, velocity=82, time=8)\n",
      "Message('note_on', channel=9, note=36, velocity=107, time=0)\n",
      "Message('note_on', channel=2, note=29, velocity=109, time=0)\n",
      "Message('note_on', channel=3, note=60, velocity=93, time=0)\n",
      "Message('note_on', channel=3, note=63, velocity=90, time=0)\n",
      "Message('note_on', channel=3, note=56, velocity=87, time=0)\n",
      "Message('note_on', channel=8, note=87, velocity=97, time=0)\n",
      "Message('note_on', channel=13, note=63, velocity=84, time=0)\n",
      "Message('note_on', channel=13, note=72, velocity=84, time=0)\n",
      "Message('note_on', channel=13, note=68, velocity=84, time=0)\n",
      "Message('note_on', channel=15, note=63, velocity=123, time=0)\n",
      "Message('note_off', channel=9, note=36, velocity=107, time=4)\n",
      "Message('note_off', channel=9, note=42, velocity=82, time=0)\n",
      "Message('note_off', channel=2, note=29, velocity=109, time=84)\n",
      "Message('note_on', channel=9, note=46, velocity=92, time=104)\n",
      "Message('note_on', channel=2, note=29, velocity=111, time=0)\n",
      "Message('note_off', channel=9, note=46, velocity=92, time=4)\n",
      "Message('note_off', channel=15, note=63, velocity=123, time=68)\n",
      "Message('note_off', channel=2, note=29, velocity=111, time=16)\n",
      "Message('note_off', channel=13, note=68, velocity=84, time=0)\n",
      "Message('note_off', channel=13, note=72, velocity=84, time=0)\n",
      "Message('note_off', channel=13, note=63, velocity=84, time=0)\n",
      "Message('note_on', channel=2, note=29, velocity=108, time=8)\n",
      "Message('note_off', channel=2, note=29, velocity=108, time=88)\n",
      "Message('note_on', channel=9, note=42, velocity=84, time=8)\n",
      "Message('note_on', channel=9, note=38, velocity=103, time=0)\n",
      "Message('note_on', channel=9, note=39, velocity=87, time=0)\n",
      "Message('note_on', channel=13, note=63, velocity=82, time=0)\n",
      "Message('note_on', channel=13, note=72, velocity=82, time=0)\n",
      "Message('note_on', channel=13, note=68, velocity=89, time=0)\n",
      "Message('note_on', channel=15, note=63, velocity=121, time=0)\n",
      "Message('note_off', channel=9, note=39, velocity=87, time=4)\n",
      "Message('note_off', channel=9, note=38, velocity=103, time=0)\n",
      "Message('note_off', channel=9, note=42, velocity=84, time=0)\n",
      "Message('note_off', channel=3, note=56, velocity=87, time=92)\n",
      "Message('note_off', channel=3, note=63, velocity=90, time=0)\n",
      "Message('note_off', channel=3, note=60, velocity=93, time=0)\n",
      "Message('note_on', channel=2, note=36, velocity=106, time=0)\n",
      "Message('note_off', channel=8, note=87, velocity=97, time=48)\n",
      "Message('note_off', channel=15, note=63, velocity=121, time=32)\n",
      "Message('note_off', channel=2, note=36, velocity=106, time=8)\n",
      "Message('note_off', channel=13, note=68, velocity=89, time=0)\n",
      "Message('note_off', channel=13, note=72, velocity=82, time=0)\n",
      "Message('note_off', channel=13, note=63, velocity=82, time=0)\n",
      "Message('note_on', channel=9, note=46, velocity=90, time=8)\n",
      "Message('note_on', channel=2, note=34, velocity=107, time=0)\n",
      "Message('note_on', channel=3, note=61, velocity=88, time=0)\n",
      "Message('note_on', channel=3, note=65, velocity=86, time=0)\n",
      "Message('note_on', channel=3, note=58, velocity=88, time=0)\n",
      "Message('note_on', channel=8, note=89, velocity=99, time=0)\n",
      "Message('note_on', channel=13, note=61, velocity=82, time=0)\n",
      "Message('note_on', channel=13, note=70, velocity=82, time=0)\n",
      "Message('note_on', channel=13, note=65, velocity=85, time=0)\n",
      "Message('note_on', channel=15, note=61, velocity=119, time=0)\n",
      "Message('note_off', channel=9, note=46, velocity=90, time=4)\n",
      "Message('note_off', channel=2, note=34, velocity=107, time=84)\n",
      "Message('note_off', channel=13, note=65, velocity=85, time=96)\n",
      "Message('note_off', channel=13, note=70, velocity=82, time=0)\n",
      "Message('note_off', channel=13, note=61, velocity=82, time=0)\n",
      "Message('note_on', channel=9, note=42, velocity=80, time=8)\n",
      "Message('note_on', channel=9, note=36, velocity=102, time=0)\n",
      "Message('note_off', channel=9, note=36, velocity=102, time=4)\n",
      "Message('note_off', channel=9, note=42, velocity=80, time=0)\n",
      "Message('note_off', channel=15, note=61, velocity=119, time=68)\n",
      "Message('note_on', channel=15, note=60, velocity=123, time=24)\n",
      "Message('note_off', channel=15, note=60, velocity=123, time=88)\n",
      "Message('note_on', channel=9, note=46, velocity=88, time=8)\n",
      "Message('note_on', channel=2, note=34, velocity=107, time=0)\n",
      "Message('note_on', channel=15, note=58, velocity=120, time=0)\n",
      "Message('note_off', channel=9, note=46, velocity=88, time=4)\n",
      "Message('note_off', channel=2, note=34, velocity=107, time=84)\n",
      "Message('note_on', channel=2, note=34, velocity=107, time=8)\n",
      "Message('note_off', channel=8, note=89, velocity=99, time=48)\n",
      "Message('note_off', channel=15, note=58, velocity=120, time=32)\n",
      "Message('note_off', channel=2, note=34, velocity=107, time=8)\n",
      "Message('note_on', channel=9, note=42, velocity=82, time=8)\n",
      "Message('note_on', channel=9, note=38, velocity=102, time=0)\n",
      "Message('note_on', channel=9, note=39, velocity=82, time=0)\n",
      "Message('note_on', channel=2, note=34, velocity=110, time=0)\n",
      "Message('note_on', channel=8, note=92, velocity=97, time=0)\n",
      "Message('note_on', channel=15, note=56, velocity=122, time=0)\n",
      "Message('note_off', channel=9, note=39, velocity=82, time=4)\n",
      "Message('note_off', channel=9, note=38, velocity=102, time=0)\n",
      "Message('note_off', channel=9, note=42, velocity=82, time=0)\n",
      "Message('note_off', channel=15, note=56, velocity=122, time=84)\n",
      "Message('note_off', channel=8, note=92, velocity=97, time=0)\n",
      "Message('note_off', channel=2, note=34, velocity=110, time=0)\n",
      "Message('note_on', channel=2, note=36, velocity=111, time=8)\n",
      "Message('note_on', channel=8, note=90, velocity=96, time=0)\n",
      "Message('note_on', channel=15, note=58, velocity=119, time=0)\n",
      "Message('note_off', channel=15, note=58, velocity=119, time=88)\n",
      "Message('note_off', channel=8, note=90, velocity=96, time=0)\n",
      "Message('note_off', channel=2, note=36, velocity=111, time=0)\n",
      "Message('note_on', channel=9, note=46, velocity=89, time=8)\n",
      "Message('note_on', channel=8, note=89, velocity=95, time=0)\n",
      "Message('note_on', channel=15, note=61, velocity=124, time=0)\n",
      "Message('note_off', channel=9, note=46, velocity=89, time=4)\n",
      "Message('note_off', channel=15, note=61, velocity=124, time=84)\n",
      "Message('note_off', channel=8, note=89, velocity=95, time=0)\n",
      "Message('note_off', channel=3, note=58, velocity=88, time=8)\n",
      "Message('note_off', channel=3, note=65, velocity=86, time=0)\n",
      "Message('note_off', channel=3, note=61, velocity=88, time=0)\n",
      "Message('note_on', channel=2, note=34, velocity=108, time=0)\n",
      "Message('note_on', channel=8, note=85, velocity=97, time=0)\n",
      "Message('note_on', channel=15, note=58, velocity=124, time=0)\n",
      "Message('note_off', channel=15, note=58, velocity=124, time=88)\n",
      "Message('note_off', channel=2, note=34, velocity=108, time=0)\n",
      "Message('note_on', channel=9, note=42, velocity=84, time=8)\n",
      "Message('note_on', channel=9, note=36, velocity=109, time=0)\n",
      "Message('note_on', channel=2, note=27, velocity=108, time=0)\n",
      "Message('note_on', channel=3, note=65, velocity=86, time=0)\n",
      "Message('note_on', channel=3, note=61, velocity=91, time=0)\n",
      "Message('note_on', channel=3, note=58, velocity=88, time=0)\n",
      "Message('note_on', channel=15, note=61, velocity=119, time=0)\n",
      "Message('note_off', channel=9, note=36, velocity=109, time=4)\n",
      "Message('note_off', channel=9, note=42, velocity=84, time=0)\n",
      "Message('note_off', channel=2, note=27, velocity=108, time=84)\n",
      "Message('note_on', channel=9, note=46, velocity=88, time=104)\n",
      "Message('note_on', channel=2, note=27, velocity=108, time=0)\n",
      "Message('note_off', channel=9, note=46, velocity=88, time=4)\n",
      "Message('note_off', channel=2, note=27, velocity=108, time=84)\n",
      "Message('note_on', channel=2, note=27, velocity=108, time=8)\n",
      "Message('note_off', channel=15, note=61, velocity=119, time=64)\n",
      "Message('note_off', channel=2, note=27, velocity=108, time=24)\n",
      "Message('note_on', channel=9, note=42, velocity=80, time=8)\n",
      "Message('note_on', channel=9, note=38, velocity=109, time=0)\n",
      "Message('note_on', channel=9, note=39, velocity=85, time=0)\n",
      "Message('note_on', channel=15, note=63, velocity=122, time=0)\n",
      "Message('note_off', channel=9, note=39, velocity=85, time=4)\n",
      "Message('note_off', channel=9, note=38, velocity=109, time=0)\n",
      "Message('note_off', channel=9, note=42, velocity=80, time=0)\n",
      "Message('note_off', channel=3, note=58, velocity=88, time=92)\n",
      "Message('note_off', channel=3, note=61, velocity=91, time=0)\n",
      "Message('note_off', channel=3, note=65, velocity=86, time=0)\n",
      "Message('note_on', channel=2, note=36, velocity=111, time=0)\n",
      "Message('note_off', channel=8, note=85, velocity=97, time=48)\n",
      "Message('note_off', channel=15, note=63, velocity=122, time=32)\n",
      "Message('note_off', channel=2, note=36, velocity=111, time=8)\n",
      "Message('note_on', channel=9, note=42, velocity=84, time=8)\n",
      "Message('note_on', channel=2, note=34, velocity=106, time=0)\n",
      "Message('note_on', channel=3, note=63, velocity=92, time=0)\n",
      "Message('note_on', channel=3, note=60, velocity=93, time=0)\n",
      "Message('note_on', channel=3, note=56, velocity=93, time=0)\n",
      "Message('note_on', channel=8, note=87, velocity=98, time=0)\n",
      "Message('note_on', channel=15, note=60, velocity=120, time=0)\n",
      "Message('note_off', channel=9, note=42, velocity=84, time=4)\n",
      "Message('note_off', channel=2, note=34, velocity=106, time=84)\n",
      "Message('note_on', channel=9, note=42, velocity=83, time=8)\n",
      "Message('note_off', channel=9, note=42, velocity=83, time=4)\n",
      "Message('note_on', channel=9, note=42, velocity=83, time=92)\n",
      "Message('note_on', channel=9, note=36, velocity=106, time=0)\n",
      "Message('note_on', channel=2, note=32, velocity=107, time=0)\n",
      "Message('note_off', channel=9, note=36, velocity=106, time=4)\n",
      "Message('note_off', channel=9, note=42, velocity=83, time=0)\n",
      "Message('note_off', channel=15, note=60, velocity=120, time=68)\n",
      "Message('note_off', channel=2, note=32, velocity=107, time=16)\n",
      "Message('note_on', channel=15, note=58, velocity=122, time=8)\n",
      "Message('note_off', channel=15, note=58, velocity=122, time=88)\n",
      "Message('note_on', channel=9, note=46, velocity=91, time=8)\n",
      "Message('note_on', channel=2, note=32, velocity=111, time=0)\n",
      "Message('note_on', channel=15, note=56, velocity=123, time=0)\n",
      "Message('note_off', channel=9, note=46, velocity=91, time=4)\n",
      "Message('note_off', channel=15, note=56, velocity=123, time=84)\n",
      "Message('note_off', channel=2, note=32, velocity=111, time=0)\n",
      "Message('note_off', channel=8, note=87, velocity=98, time=56)\n",
      "Message('note_on', channel=9, note=42, velocity=83, time=48)\n",
      "Message('note_on', channel=9, note=38, velocity=102, time=0)\n",
      "Message('note_on', channel=9, note=39, velocity=86, time=0)\n",
      "Message('note_on', channel=8, note=80, velocity=94, time=0)\n",
      "Message('note_on', channel=15, note=56, velocity=122, time=0)\n",
      "Message('note_off', channel=9, note=39, velocity=86, time=4)\n",
      "Message('note_off', channel=9, note=38, velocity=102, time=0)\n",
      "Message('note_off', channel=9, note=42, velocity=83, time=0)\n",
      "Message('note_off', channel=15, note=56, velocity=122, time=172)\n",
      "Message('note_on', channel=9, note=46, velocity=88, time=16)\n",
      "Message('note_on', channel=2, note=32, velocity=106, time=0)\n",
      "Message('note_on', channel=15, note=63, velocity=123, time=0)\n",
      "Message('note_off', channel=9, note=46, velocity=88, time=4)\n",
      "Message('note_off', channel=2, note=32, velocity=106, time=84)\n",
      "Message('note_off', channel=3, note=56, velocity=93, time=8)\n",
      "Message('note_off', channel=3, note=60, velocity=93, time=0)\n",
      "Message('note_off', channel=3, note=63, velocity=92, time=0)\n",
      "Message('note_on', channel=2, note=32, velocity=109, time=0)\n",
      "Message('note_off', channel=2, note=32, velocity=109, time=88)\n",
      "Message('note_on', channel=9, note=42, velocity=83, time=8)\n",
      "Message('note_on', channel=9, note=36, velocity=109, time=0)\n",
      "Message('note_on', channel=2, note=29, velocity=106, time=0)\n",
      "Message('note_on', channel=3, note=63, velocity=89, time=0)\n",
      "Message('note_on', channel=3, note=60, velocity=90, time=0)\n",
      "Message('note_on', channel=3, note=56, velocity=93, time=0)\n",
      "Message('note_on', channel=13, note=63, velocity=88, time=0)\n",
      "Message('note_on', channel=13, note=68, velocity=83, time=0)\n",
      "Message('note_on', channel=13, note=72, velocity=84, time=0)\n",
      "Message('note_off', channel=9, note=36, velocity=109, time=4)\n",
      "Message('note_off', channel=9, note=42, velocity=83, time=0)\n",
      "Message('note_off', channel=2, note=29, velocity=106, time=84)\n",
      "Message('note_on', channel=9, note=46, velocity=90, time=104)\n",
      "Message('note_on', channel=2, note=29, velocity=106, time=0)\n",
      "Message('note_off', channel=9, note=46, velocity=90, time=4)\n",
      "Message('note_off', channel=2, note=29, velocity=106, time=84)\n",
      "Message('note_off', channel=13, note=72, velocity=84, time=0)\n",
      "Message('note_off', channel=13, note=68, velocity=83, time=0)\n",
      "Message('note_off', channel=13, note=63, velocity=88, time=0)\n",
      "Message('note_on', channel=2, note=29, velocity=106, time=8)\n",
      "Message('note_off', channel=15, note=63, velocity=123, time=64)\n",
      "Message('note_off', channel=2, note=29, velocity=106, time=24)\n",
      "Message('note_on', channel=9, note=42, velocity=81, time=8)\n",
      "Message('note_on', channel=9, note=38, velocity=105, time=0)\n",
      "Message('note_on', channel=9, note=39, velocity=86, time=0)\n",
      "Message('note_on', channel=13, note=65, velocity=89, time=0)\n",
      "Message('note_on', channel=13, note=70, velocity=88, time=0)\n",
      "Message('note_on', channel=13, note=73, velocity=87, time=0)\n",
      "Message('note_on', channel=15, note=61, velocity=122, time=0)\n",
      "Message('note_off', channel=9, note=39, velocity=86, time=4)\n",
      "Message('note_off', channel=9, note=38, velocity=105, time=0)\n",
      "Message('note_off', channel=9, note=42, velocity=81, time=0)\n",
      "Message('note_off', channel=3, note=56, velocity=93, time=92)\n",
      "Message('note_off', channel=3, note=60, velocity=90, time=0)\n",
      "Message('note_off', channel=3, note=63, velocity=89, time=0)\n",
      "Message('note_on', channel=2, note=36, velocity=108, time=0)\n",
      "Message('note_off', channel=2, note=36, velocity=108, time=88)\n",
      "Message('note_on', channel=9, note=46, velocity=92, time=8)\n",
      "Message('note_on', channel=2, note=34, velocity=106, time=0)\n",
      "Message('note_on', channel=3, note=61, velocity=93, time=0)\n",
      "Message('note_on', channel=3, note=65, velocity=90, time=0)\n",
      "Message('note_on', channel=3, note=58, velocity=86, time=0)\n",
      "Message('note_off', channel=9, note=46, velocity=92, time=4)\n",
      "Message('note_off', channel=2, note=34, velocity=106, time=84)\n",
      "Message('note_on', channel=9, note=42, velocity=85, time=104)\n",
      "Message('note_on', channel=9, note=36, velocity=103, time=0)\n",
      "Message('note_off', channel=9, note=36, velocity=103, time=4)\n",
      "Message('note_off', channel=9, note=42, velocity=85, time=0)\n",
      "Message('note_off', channel=8, note=80, velocity=94, time=140)\n",
      "Message('note_on', channel=9, note=46, velocity=90, time=48)\n",
      "Message('note_on', channel=2, note=32, velocity=108, time=0)\n",
      "Message('note_on', channel=7, note=68, velocity=84, time=0)\n",
      "Message('note_on', channel=7, note=80, velocity=107, time=0)\n",
      "Message('note_on', channel=7, note=56, velocity=82, time=0)\n",
      "Message('note_off', channel=9, note=46, velocity=90, time=4)\n",
      "Message('note_off', channel=7, note=56, velocity=82, time=60)\n",
      "Message('note_off', channel=7, note=80, velocity=107, time=0)\n",
      "Message('note_off', channel=7, note=68, velocity=84, time=0)\n",
      "Message('note_off', channel=15, note=61, velocity=122, time=0)\n",
      "Message('note_off', channel=2, note=32, velocity=108, time=24)\n",
      "Message('note_on', channel=7, note=68, velocity=84, time=8)\n",
      "Message('note_on', channel=7, note=80, velocity=111, time=0)\n",
      "Message('note_on', channel=7, note=56, velocity=82, time=0)\n",
      "Message('note_off', channel=7, note=56, velocity=82, time=64)\n",
      "Message('note_off', channel=7, note=80, velocity=111, time=0)\n",
      "Message('note_off', channel=7, note=68, velocity=84, time=0)\n",
      "Message('note_on', channel=9, note=42, velocity=83, time=32)\n",
      "Message('note_on', channel=9, note=38, velocity=109, time=0)\n",
      "Message('note_on', channel=9, note=39, velocity=86, time=0)\n",
      "Message('note_on', channel=2, note=32, velocity=111, time=0)\n",
      "Message('note_on', channel=8, note=92, velocity=99, time=0)\n",
      "Message('note_on', channel=15, note=56, velocity=119, time=0)\n",
      "Message('note_off', channel=9, note=39, velocity=86, time=4)\n",
      "Message('note_off', channel=9, note=38, velocity=109, time=0)\n",
      "Message('note_off', channel=9, note=42, velocity=83, time=0)\n",
      "Message('note_off', channel=15, note=56, velocity=119, time=84)\n",
      "Message('note_off', channel=8, note=92, velocity=99, time=0)\n",
      "Message('note_off', channel=2, note=32, velocity=111, time=0)\n",
      "Message('note_off', channel=13, note=73, velocity=87, time=0)\n",
      "Message('note_off', channel=13, note=70, velocity=88, time=0)\n",
      "Message('note_off', channel=13, note=65, velocity=89, time=0)\n",
      "Message('note_on', channel=2, note=32, velocity=106, time=8)\n",
      "Message('note_on', channel=8, note=90, velocity=94, time=0)\n",
      "Message('note_on', channel=15, note=58, velocity=120, time=0)\n",
      "Message('note_off', channel=15, note=58, velocity=120, time=88)\n",
      "Message('note_off', channel=8, note=90, velocity=94, time=0)\n",
      "Message('note_off', channel=2, note=32, velocity=106, time=0)\n",
      "Message('note_on', channel=9, note=46, velocity=90, time=8)\n",
      "Message('note_on', channel=8, note=89, velocity=95, time=0)\n",
      "Message('note_on', channel=15, note=61, velocity=119, time=0)\n",
      "Message('note_off', channel=9, note=46, velocity=90, time=4)\n",
      "Message('note_off', channel=15, note=61, velocity=119, time=84)\n",
      "Message('note_off', channel=8, note=89, velocity=95, time=0)\n",
      "Message('note_off', channel=3, note=58, velocity=86, time=8)\n",
      "Message('note_off', channel=3, note=65, velocity=90, time=0)\n",
      "Message('note_off', channel=3, note=61, velocity=93, time=0)\n",
      "Message('note_on', channel=2, note=37, velocity=106, time=0)\n",
      "Message('note_on', channel=8, note=85, velocity=96, time=0)\n",
      "Message('note_on', channel=15, note=58, velocity=120, time=0)\n",
      "Message('note_off', channel=15, note=58, velocity=120, time=88)\n",
      "Message('note_off', channel=2, note=37, velocity=106, time=0)\n",
      "Message('note_on', channel=9, note=42, velocity=82, time=8)\n",
      "Message('note_on', channel=9, note=36, velocity=103, time=0)\n",
      "Message('note_on', channel=2, note=27, velocity=110, time=0)\n",
      "Message('note_on', channel=3, note=61, velocity=93, time=0)\n",
      "Message('note_on', channel=3, note=65, velocity=90, time=0)\n",
      "Message('note_on', channel=3, note=58, velocity=93, time=0)\n",
      "Message('note_on', channel=13, note=63, velocity=82, time=0)\n",
      "Message('note_on', channel=13, note=73, velocity=82, time=0)\n",
      "Message('note_on', channel=13, note=68, velocity=87, time=0)\n",
      "Message('note_on', channel=15, note=65, velocity=120, time=0)\n",
      "Message('note_off', channel=9, note=36, velocity=103, time=4)\n",
      "Message('note_off', channel=9, note=42, velocity=82, time=0)\n",
      "Message('note_off', channel=2, note=27, velocity=110, time=84)\n",
      "Message('note_on', channel=9, note=46, velocity=88, time=104)\n",
      "Message('note_on', channel=2, note=27, velocity=108, time=0)\n",
      "Message('note_off', channel=9, note=46, velocity=88, time=4)\n",
      "Message('note_off', channel=15, note=65, velocity=120, time=68)\n",
      "Message('note_off', channel=2, note=27, velocity=108, time=16)\n",
      "Message('note_off', channel=13, note=68, velocity=87, time=0)\n",
      "Message('note_off', channel=13, note=73, velocity=82, time=0)\n",
      "Message('note_off', channel=13, note=63, velocity=82, time=0)\n",
      "Message('note_on', channel=2, note=27, velocity=107, time=8)\n",
      "Message('note_off', channel=2, note=27, velocity=107, time=88)\n",
      "Message('note_on', channel=9, note=42, velocity=83, time=8)\n",
      "Message('note_on', channel=9, note=38, velocity=109, time=0)\n",
      "Message('note_on', channel=9, note=39, velocity=84, time=0)\n",
      "Message('note_on', channel=13, note=63, velocity=83, time=0)\n",
      "Message('note_on', channel=13, note=73, velocity=84, time=0)\n",
      "Message('note_on', channel=13, note=68, velocity=83, time=0)\n",
      "Message('note_on', channel=15, note=65, velocity=119, time=0)\n",
      "Message('note_off', channel=9, note=39, velocity=84, time=4)\n",
      "Message('note_off', channel=9, note=38, velocity=109, time=0)\n",
      "Message('note_off', channel=9, note=42, velocity=83, time=0)\n",
      "Message('note_off', channel=3, note=58, velocity=93, time=92)\n",
      "Message('note_off', channel=3, note=65, velocity=90, time=0)\n",
      "Message('note_off', channel=3, note=61, velocity=93, time=0)\n",
      "Message('note_on', channel=2, note=36, velocity=109, time=0)\n",
      "Message('note_off', channel=8, note=85, velocity=96, time=60)\n",
      "Message('note_off', channel=15, note=65, velocity=119, time=20)\n",
      "Message('note_off', channel=2, note=36, velocity=109, time=8)\n",
      "Message('note_off', channel=13, note=68, velocity=83, time=0)\n",
      "Message('note_off', channel=13, note=73, velocity=84, time=0)\n",
      "Message('note_off', channel=13, note=63, velocity=83, time=0)\n",
      "Message('note_on', channel=9, note=42, velocity=80, time=8)\n",
      "Message('note_on', channel=2, note=34, velocity=110, time=0)\n",
      "Message('note_on', channel=3, note=63, velocity=87, time=0)\n",
      "Message('note_on', channel=3, note=56, velocity=90, time=0)\n",
      "Message('note_on', channel=3, note=60, velocity=87, time=0)\n",
      "Message('note_on', channel=8, note=87, velocity=95, time=0)\n",
      "Message('note_on', channel=13, note=68, velocity=86, time=0)\n",
      "Message('note_on', channel=13, note=63, velocity=83, time=0)\n",
      "Message('note_on', channel=13, note=72, velocity=83, time=0)\n",
      "Message('note_on', channel=15, note=63, velocity=124, time=0)\n",
      "Message('note_off', channel=9, note=42, velocity=80, time=4)\n",
      "Message('note_off', channel=2, note=34, velocity=110, time=84)\n",
      "Message('note_on', channel=9, note=42, velocity=82, time=8)\n",
      "Message('note_off', channel=9, note=42, velocity=82, time=4)\n",
      "Message('note_on', channel=9, note=42, velocity=80, time=92)\n",
      "Message('note_on', channel=9, note=36, velocity=107, time=0)\n",
      "Message('note_on', channel=2, note=32, velocity=111, time=0)\n",
      "Message('note_off', channel=9, note=36, velocity=107, time=4)\n",
      "Message('note_off', channel=9, note=42, velocity=80, time=0)\n",
      "Message('note_off', channel=2, note=32, velocity=111, time=84)\n",
      "Message('note_on', channel=9, note=46, velocity=87, time=104)\n",
      "Message('note_on', channel=2, note=32, velocity=111, time=0)\n",
      "Message('note_off', channel=9, note=46, velocity=87, time=4)\n",
      "Message('note_off', channel=2, note=32, velocity=111, time=84)\n",
      "Message('note_off', channel=8, note=87, velocity=95, time=56)\n",
      "Message('note_off', channel=15, note=63, velocity=124, time=16)\n",
      "Message('note_off', channel=13, note=72, velocity=83, time=24)\n",
      "Message('note_off', channel=13, note=63, velocity=83, time=0)\n",
      "Message('note_off', channel=13, note=68, velocity=86, time=0)\n",
      "Message('note_on', channel=9, note=42, velocity=84, time=8)\n",
      "Message('note_on', channel=9, note=38, velocity=103, time=0)\n",
      "Message('note_on', channel=9, note=39, velocity=83, time=0)\n",
      "Message('note_on', channel=8, note=80, velocity=94, time=0)\n",
      "Message('note_on', channel=15, note=56, velocity=122, time=0)\n",
      "Message('note_off', channel=9, note=39, velocity=83, time=4)\n",
      "Message('note_off', channel=9, note=38, velocity=103, time=0)\n",
      "Message('note_off', channel=9, note=42, velocity=84, time=0)\n",
      "Message('note_off', channel=15, note=56, velocity=122, time=84)\n",
      "Message('note_on', channel=15, note=58, velocity=124, time=8)\n",
      "Message('note_off', channel=15, note=58, velocity=124, time=88)\n",
      "Message('note_on', channel=9, note=46, velocity=87, time=8)\n",
      "Message('note_on', channel=2, note=29, velocity=107, time=0)\n",
      "Message('note_on', channel=15, note=61, velocity=122, time=0)\n",
      "Message('note_off', channel=9, note=46, velocity=87, time=4)\n",
      "Message('note_off', channel=15, note=61, velocity=122, time=84)\n",
      "Message('note_off', channel=2, note=29, velocity=107, time=0)\n",
      "Message('note_off', channel=3, note=60, velocity=87, time=8)\n",
      "Message('note_off', channel=3, note=56, velocity=90, time=0)\n",
      "Message('note_off', channel=3, note=63, velocity=87, time=0)\n",
      "Message('note_on', channel=2, note=32, velocity=111, time=0)\n",
      "Message('note_on', channel=15, note=58, velocity=121, time=0)\n",
      "Message('note_off', channel=8, note=80, velocity=94, time=64)\n",
      "Message('note_off', channel=15, note=58, velocity=121, time=24)\n",
      "Message('note_off', channel=2, note=32, velocity=111, time=0)\n",
      "Message('note_on', channel=9, note=42, velocity=82, time=8)\n",
      "Message('note_on', channel=9, note=36, velocity=103, time=0)\n",
      "Message('note_on', channel=2, note=29, velocity=106, time=0)\n",
      "Message('note_on', channel=3, note=63, velocity=92, time=0)\n",
      "Message('note_on', channel=3, note=56, velocity=90, time=0)\n",
      "Message('note_on', channel=3, note=60, velocity=91, time=0)\n",
      "Message('note_on', channel=8, note=87, velocity=95, time=0)\n",
      "Message('note_on', channel=13, note=68, velocity=87, time=0)\n",
      "Message('note_on', channel=13, note=75, velocity=87, time=0)\n",
      "Message('note_on', channel=13, note=72, velocity=82, time=0)\n",
      "Message('note_on', channel=15, note=68, velocity=121, time=0)\n",
      "Message('note_off', channel=9, note=36, velocity=103, time=4)\n",
      "Message('note_off', channel=9, note=42, velocity=82, time=0)\n",
      "Message('note_off', channel=2, note=29, velocity=106, time=84)\n",
      "Message('note_on', channel=9, note=46, velocity=89, time=104)\n",
      "Message('note_on', channel=2, note=29, velocity=108, time=0)\n",
      "Message('note_off', channel=9, note=46, velocity=89, time=4)\n",
      "Message('note_off', channel=2, note=29, velocity=108, time=84)\n",
      "Message('note_off', channel=13, note=72, velocity=82, time=0)\n",
      "Message('note_off', channel=13, note=75, velocity=87, time=0)\n",
      "Message('note_off', channel=13, note=68, velocity=87, time=0)\n",
      "Message('note_on', channel=2, note=29, velocity=107, time=8)\n",
      "Message('note_off', channel=15, note=68, velocity=121, time=64)\n",
      "Message('note_off', channel=2, note=29, velocity=107, time=24)\n",
      "Message('note_on', channel=9, note=42, velocity=81, time=8)\n",
      "Message('note_on', channel=9, note=38, velocity=102, time=0)\n",
      "Message('note_on', channel=9, note=39, velocity=87, time=0)\n",
      "Message('note_on', channel=13, note=68, velocity=82, time=0)\n",
      "Message('note_on', channel=13, note=75, velocity=89, time=0)\n",
      "Message('note_on', channel=13, note=72, velocity=85, time=0)\n",
      "Message('note_on', channel=15, note=60, velocity=122, time=0)\n",
      "Message('note_off', channel=9, note=39, velocity=87, time=4)\n",
      "Message('note_off', channel=9, note=38, velocity=102, time=0)\n",
      "Message('note_off', channel=9, note=42, velocity=81, time=0)\n",
      "Message('note_off', channel=3, note=60, velocity=91, time=92)\n",
      "Message('note_off', channel=3, note=56, velocity=90, time=0)\n",
      "Message('note_off', channel=3, note=63, velocity=92, time=0)\n",
      "Message('note_on', channel=2, note=36, velocity=111, time=0)\n",
      "Message('note_off', channel=8, note=87, velocity=95, time=48)\n",
      "Message('note_off', channel=15, note=60, velocity=122, time=32)\n",
      "Message('note_off', channel=2, note=36, velocity=111, time=8)\n",
      "Message('note_off', channel=13, note=72, velocity=85, time=0)\n",
      "Message('note_off', channel=13, note=75, velocity=89, time=0)\n",
      "Message('note_off', channel=13, note=68, velocity=82, time=0)\n",
      "Message('note_on', channel=9, note=46, velocity=89, time=8)\n",
      "Message('note_on', channel=2, note=34, velocity=109, time=0)\n",
      "Message('note_on', channel=3, note=65, velocity=88, time=0)\n",
      "Message('note_on', channel=3, note=61, velocity=90, time=0)\n",
      "Message('note_on', channel=3, note=58, velocity=86, time=0)\n",
      "Message('note_on', channel=8, note=89, velocity=98, time=0)\n",
      "Message('note_on', channel=13, note=65, velocity=89, time=0)\n",
      "Message('note_on', channel=13, note=70, velocity=82, time=0)\n",
      "Message('note_on', channel=13, note=73, velocity=83, time=0)\n",
      "Message('note_on', channel=15, note=61, velocity=122, time=0)\n",
      "Message('note_off', channel=9, note=46, velocity=89, time=4)\n",
      "Message('note_off', channel=2, note=34, velocity=109, time=84)\n",
      "Message('note_on', channel=9, note=42, velocity=83, time=104)\n",
      "Message('note_on', channel=9, note=36, velocity=101, time=0)\n",
      "Message('note_off', channel=9, note=36, velocity=101, time=4)\n",
      "Message('note_off', channel=9, note=42, velocity=83, time=0)\n",
      "Message('note_off', channel=15, note=61, velocity=122, time=68)\n",
      "Message('note_off', channel=13, note=73, velocity=83, time=16)\n",
      "Message('note_off', channel=13, note=70, velocity=82, time=0)\n",
      "Message('note_off', channel=13, note=65, velocity=89, time=0)\n",
      "Message('note_on', channel=13, note=63, velocity=85, time=8)\n",
      "Message('note_on', channel=13, note=72, velocity=82, time=0)\n",
      "Message('note_on', channel=13, note=68, velocity=86, time=0)\n",
      "Message('note_on', channel=15, note=60, velocity=123, time=0)\n",
      "Message('note_off', channel=15, note=60, velocity=123, time=88)\n",
      "Message('note_off', channel=13, note=68, velocity=86, time=0)\n",
      "Message('note_off', channel=13, note=72, velocity=82, time=0)\n",
      "Message('note_off', channel=13, note=63, velocity=85, time=0)\n",
      "Message('note_on', channel=9, note=46, velocity=91, time=8)\n",
      "Message('note_on', channel=2, note=34, velocity=108, time=0)\n",
      "Message('note_on', channel=13, note=61, velocity=84, time=0)\n",
      "Message('note_on', channel=13, note=70, velocity=89, time=0)\n",
      "Message('note_on', channel=13, note=65, velocity=88, time=0)\n",
      "Message('note_on', channel=15, note=58, velocity=119, time=0)\n",
      "Message('note_off', channel=9, note=46, velocity=91, time=4)\n",
      "Message('note_off', channel=2, note=34, velocity=108, time=84)\n",
      "Message('note_on', channel=2, note=34, velocity=109, time=8)\n",
      "Message('note_off', channel=8, note=89, velocity=98, time=48)\n",
      "Message('note_off', channel=15, note=58, velocity=119, time=32)\n",
      "Message('note_off', channel=2, note=34, velocity=109, time=8)\n",
      "Message('note_off', channel=13, note=65, velocity=88, time=0)\n",
      "Message('note_off', channel=13, note=70, velocity=89, time=0)\n",
      "Message('note_off', channel=13, note=61, velocity=84, time=0)\n",
      "Message('note_on', channel=9, note=42, velocity=82, time=8)\n",
      "Message('note_on', channel=9, note=38, velocity=107, time=0)\n",
      "Message('note_on', channel=9, note=39, velocity=81, time=0)\n",
      "Message('note_on', channel=2, note=34, velocity=109, time=0)\n",
      "Message('note_on', channel=8, note=92, velocity=97, time=0)\n",
      "Message('note_on', channel=15, note=56, velocity=123, time=0)\n",
      "Message('note_off', channel=9, note=39, velocity=81, time=4)\n",
      "Message('note_off', channel=9, note=38, velocity=107, time=0)\n",
      "Message('note_off', channel=9, note=42, velocity=82, time=0)\n",
      "Message('note_off', channel=15, note=56, velocity=123, time=84)\n",
      "Message('note_off', channel=8, note=92, velocity=97, time=0)\n",
      "Message('note_off', channel=2, note=34, velocity=109, time=0)\n",
      "Message('note_on', channel=2, note=36, velocity=111, time=8)\n",
      "Message('note_on', channel=8, note=90, velocity=97, time=0)\n",
      "Message('note_on', channel=15, note=58, velocity=122, time=0)\n",
      "Message('note_off', channel=15, note=58, velocity=122, time=88)\n",
      "Message('note_off', channel=8, note=90, velocity=97, time=0)\n",
      "Message('note_off', channel=2, note=36, velocity=111, time=0)\n",
      "Message('note_on', channel=9, note=46, velocity=88, time=8)\n",
      "Message('note_on', channel=8, note=89, velocity=99, time=0)\n",
      "Message('note_on', channel=15, note=61, velocity=122, time=0)\n",
      "Message('note_off', channel=9, note=46, velocity=88, time=4)\n",
      "Message('note_off', channel=15, note=61, velocity=122, time=84)\n",
      "Message('note_off', channel=8, note=89, velocity=99, time=0)\n",
      "Message('note_off', channel=3, note=58, velocity=86, time=8)\n",
      "Message('note_off', channel=3, note=61, velocity=90, time=0)\n",
      "Message('note_off', channel=3, note=65, velocity=88, time=0)\n",
      "Message('note_on', channel=2, note=34, velocity=108, time=0)\n",
      "Message('note_on', channel=8, note=85, velocity=98, time=0)\n",
      "Message('note_on', channel=15, note=58, velocity=123, time=0)\n",
      "Message('note_off', channel=15, note=58, velocity=123, time=88)\n",
      "Message('note_off', channel=2, note=34, velocity=108, time=0)\n",
      "Message('note_on', channel=9, note=42, velocity=80, time=8)\n",
      "Message('note_on', channel=9, note=36, velocity=109, time=0)\n",
      "Message('note_on', channel=2, note=27, velocity=110, time=0)\n",
      "Message('note_on', channel=3, note=61, velocity=91, time=0)\n",
      "Message('note_on', channel=3, note=65, velocity=89, time=0)\n",
      "Message('note_on', channel=3, note=58, velocity=89, time=0)\n",
      "Message('note_on', channel=15, note=61, velocity=121, time=0)\n",
      "Message('note_off', channel=9, note=36, velocity=109, time=4)\n",
      "Message('note_off', channel=9, note=42, velocity=80, time=0)\n",
      "Message('note_off', channel=2, note=27, velocity=110, time=84)\n",
      "Message('note_on', channel=9, note=46, velocity=89, time=104)\n",
      "Message('note_on', channel=2, note=27, velocity=109, time=0)\n",
      "Message('note_off', channel=9, note=46, velocity=89, time=4)\n",
      "Message('note_off', channel=2, note=27, velocity=109, time=84)\n",
      "Message('note_on', channel=2, note=27, velocity=110, time=8)\n",
      "Message('note_off', channel=15, note=61, velocity=121, time=64)\n",
      "Message('note_off', channel=2, note=27, velocity=110, time=24)\n",
      "Message('note_on', channel=9, note=42, velocity=85, time=8)\n",
      "Message('note_on', channel=9, note=38, velocity=102, time=0)\n",
      "Message('note_on', channel=9, note=39, velocity=83, time=0)\n",
      "Message('note_on', channel=15, note=63, velocity=123, time=0)\n",
      "Message('note_off', channel=9, note=39, velocity=83, time=4)\n",
      "Message('note_off', channel=9, note=38, velocity=102, time=0)\n",
      "Message('note_off', channel=9, note=42, velocity=85, time=0)\n",
      "Message('note_off', channel=3, note=58, velocity=89, time=92)\n",
      "Message('note_off', channel=3, note=65, velocity=89, time=0)\n",
      "Message('note_off', channel=3, note=61, velocity=91, time=0)\n",
      "Message('note_on', channel=2, note=36, velocity=111, time=0)\n",
      "Message('note_off', channel=8, note=85, velocity=98, time=48)\n",
      "Message('note_off', channel=15, note=63, velocity=123, time=32)\n",
      "Message('note_off', channel=2, note=36, velocity=111, time=8)\n",
      "Message('note_on', channel=9, note=42, velocity=82, time=8)\n",
      "Message('note_on', channel=2, note=34, velocity=107, time=0)\n",
      "Message('note_on', channel=3, note=63, velocity=86, time=0)\n",
      "Message('note_on', channel=3, note=56, velocity=91, time=0)\n",
      "Message('note_on', channel=3, note=60, velocity=93, time=0)\n",
      "Message('note_on', channel=8, note=87, velocity=94, time=0)\n",
      "Message('note_on', channel=15, note=60, velocity=122, time=0)\n",
      "Message('note_off', channel=9, note=42, velocity=82, time=4)\n",
      "Message('note_off', channel=2, note=34, velocity=107, time=84)\n",
      "Message('note_on', channel=9, note=42, velocity=84, time=8)\n",
      "Message('note_off', channel=9, note=42, velocity=84, time=4)\n",
      "Message('note_on', channel=9, note=42, velocity=82, time=92)\n",
      "Message('note_on', channel=9, note=36, velocity=106, time=0)\n",
      "Message('note_on', channel=2, note=32, velocity=106, time=0)\n",
      "Message('note_off', channel=9, note=36, velocity=106, time=4)\n",
      "Message('note_off', channel=9, note=42, velocity=82, time=0)\n",
      "Message('note_off', channel=15, note=60, velocity=122, time=68)\n",
      "Message('note_off', channel=2, note=32, velocity=106, time=16)\n",
      "Message('note_on', channel=15, note=58, velocity=120, time=8)\n",
      "Message('note_off', channel=15, note=58, velocity=120, time=88)\n",
      "Message('note_on', channel=9, note=46, velocity=88, time=8)\n",
      "Message('note_on', channel=2, note=32, velocity=110, time=0)\n",
      "Message('note_on', channel=15, note=56, velocity=124, time=0)\n",
      "Message('note_off', channel=9, note=46, velocity=88, time=4)\n",
      "Message('note_off', channel=2, note=32, velocity=110, time=84)\n",
      "Message('note_off', channel=8, note=87, velocity=94, time=56)\n",
      "Message('note_on', channel=9, note=42, velocity=83, time=48)\n",
      "Message('note_on', channel=9, note=38, velocity=101, time=0)\n",
      "Message('note_on', channel=9, note=39, velocity=85, time=0)\n",
      "Message('note_on', channel=8, note=80, velocity=94, time=0)\n",
      "Message('note_off', channel=9, note=39, velocity=85, time=4)\n",
      "Message('note_off', channel=9, note=38, velocity=101, time=0)\n",
      "Message('note_off', channel=9, note=42, velocity=83, time=0)\n",
      "Message('note_off', channel=15, note=56, velocity=124, time=68)\n",
      "Message('note_on', channel=9, note=46, velocity=87, time=120)\n",
      "Message('note_on', channel=2, note=32, velocity=109, time=0)\n",
      "Message('note_on', channel=15, note=56, velocity=119, time=0)\n",
      "Message('note_off', channel=9, note=46, velocity=87, time=4)\n",
      "Message('note_off', channel=2, note=32, velocity=109, time=84)\n",
      "Message('note_off', channel=3, note=60, velocity=93, time=8)\n",
      "Message('note_off', channel=3, note=56, velocity=91, time=0)\n",
      "Message('note_off', channel=3, note=63, velocity=86, time=0)\n",
      "Message('note_on', channel=2, note=32, velocity=108, time=0)\n",
      "Message('note_off', channel=15, note=56, velocity=119, time=80)\n",
      "Message('note_off', channel=2, note=32, velocity=108, time=8)\n",
      "Message('note_on', channel=9, note=42, velocity=83, time=8)\n",
      "Message('note_on', channel=9, note=36, velocity=103, time=0)\n",
      "Message('note_on', channel=2, note=29, velocity=110, time=0)\n",
      "Message('note_on', channel=3, note=63, velocity=86, time=0)\n",
      "Message('note_on', channel=3, note=56, velocity=88, time=0)\n",
      "Message('note_on', channel=3, note=60, velocity=87, time=0)\n",
      "Message('note_on', channel=13, note=63, velocity=87, time=0)\n",
      "Message('note_on', channel=13, note=68, velocity=85, time=0)\n",
      "Message('note_on', channel=13, note=72, velocity=82, time=0)\n",
      "Message('note_on', channel=15, note=63, velocity=119, time=0)\n",
      "Message('note_off', channel=9, note=36, velocity=103, time=4)\n",
      "Message('note_off', channel=9, note=42, velocity=83, time=0)\n",
      "Message('note_off', channel=2, note=29, velocity=110, time=84)\n",
      "Message('note_off', channel=3, note=60, velocity=87, time=8)\n",
      "Message('note_off', channel=3, note=56, velocity=88, time=0)\n",
      "Message('note_off', channel=3, note=63, velocity=86, time=0)\n",
      "Message('note_off', channel=15, note=63, velocity=119, time=80)\n",
      "Message('note_on', channel=9, note=46, velocity=88, time=16)\n",
      "Message('note_on', channel=2, note=29, velocity=107, time=0)\n",
      "Message('note_on', channel=15, note=61, velocity=121, time=0)\n",
      "Message('note_off', channel=9, note=46, velocity=88, time=4)\n",
      "Message('note_off', channel=15, note=61, velocity=121, time=84)\n",
      "Message('note_off', channel=2, note=29, velocity=107, time=0)\n",
      "Message('note_off', channel=13, note=72, velocity=82, time=0)\n",
      "Message('note_off', channel=13, note=68, velocity=85, time=0)\n",
      "Message('note_off', channel=13, note=63, velocity=87, time=0)\n",
      "Message('note_on', channel=2, note=29, velocity=106, time=8)\n",
      "Message('note_off', channel=2, note=29, velocity=106, time=88)\n",
      "Message('note_on', channel=9, note=42, velocity=81, time=8)\n",
      "Message('note_on', channel=9, note=38, velocity=104, time=0)\n",
      "Message('note_on', channel=9, note=39, velocity=85, time=0)\n",
      "Message('note_on', channel=3, note=65, velocity=86, time=0)\n",
      "Message('note_on', channel=3, note=61, velocity=87, time=0)\n",
      "Message('note_on', channel=3, note=58, velocity=89, time=0)\n",
      "Message('note_on', channel=13, note=68, velocity=83, time=0)\n",
      "Message('note_on', channel=13, note=65, velocity=82, time=0)\n",
      "Message('note_on', channel=13, note=73, velocity=84, time=0)\n",
      "Message('note_on', channel=15, note=61, velocity=123, time=0)\n",
      "Message('note_off', channel=9, note=39, velocity=85, time=4)\n",
      "Message('note_off', channel=9, note=38, velocity=104, time=0)\n",
      "Message('note_off', channel=9, note=42, velocity=81, time=0)\n",
      "Message('note_on', channel=2, note=36, velocity=109, time=92)\n",
      "Message('note_off', channel=2, note=36, velocity=109, time=88)\n",
      "Message('note_on', channel=9, note=46, velocity=87, time=8)\n",
      "Message('note_on', channel=2, note=34, velocity=106, time=0)\n",
      "Message('note_off', channel=9, note=46, velocity=87, time=4)\n",
      "Message('note_off', channel=2, note=34, velocity=106, time=84)\n",
      "Message('note_on', channel=9, note=42, velocity=83, time=104)\n",
      "Message('note_on', channel=9, note=36, velocity=107, time=0)\n",
      "Message('note_on', channel=9, note=45, velocity=83, time=0)\n",
      "Message('note_off', channel=9, note=45, velocity=83, time=4)\n",
      "Message('note_off', channel=9, note=36, velocity=107, time=0)\n",
      "Message('note_off', channel=9, note=42, velocity=83, time=0)\n",
      "Message('note_on', channel=9, note=45, velocity=84, time=92)\n",
      "Message('note_off', channel=9, note=45, velocity=84, time=4)\n",
      "Message('note_on', channel=9, note=46, velocity=87, time=92)\n",
      "Message('note_on', channel=9, note=43, velocity=80, time=0)\n",
      "Message('note_on', channel=2, note=32, velocity=111, time=0)\n",
      "Message('note_off', channel=9, note=43, velocity=80, time=4)\n",
      "Message('note_off', channel=9, note=46, velocity=87, time=0)\n",
      "Message('note_off', channel=2, note=32, velocity=111, time=84)\n",
      "Message('note_on', channel=9, note=43, velocity=84, time=8)\n",
      "Message('note_off', channel=9, note=43, velocity=84, time=4)\n",
      "Message('note_off', channel=13, note=73, velocity=84, time=84)\n",
      "Message('note_off', channel=13, note=65, velocity=82, time=0)\n",
      "Message('note_off', channel=13, note=68, velocity=83, time=0)\n",
      "Message('note_on', channel=9, note=42, velocity=80, time=8)\n",
      "Message('note_on', channel=9, note=38, velocity=101, time=0)\n",
      "Message('note_on', channel=9, note=45, velocity=84, time=0)\n",
      "Message('note_on', channel=9, note=39, velocity=81, time=0)\n",
      "Message('note_on', channel=2, note=32, velocity=111, time=0)\n",
      "Message('note_on', channel=3, note=68, velocity=92, time=0)\n",
      "Message('note_off', channel=9, note=39, velocity=81, time=4)\n",
      "Message('note_off', channel=9, note=45, velocity=84, time=0)\n",
      "Message('note_off', channel=9, note=38, velocity=101, time=0)\n",
      "Message('note_off', channel=9, note=42, velocity=80, time=0)\n",
      "Message('note_off', channel=8, note=80, velocity=94, time=44)\n",
      "Message('note_off', channel=15, note=61, velocity=123, time=16)\n",
      "Message('note_off', channel=2, note=32, velocity=111, time=24)\n"
     ]
    },
    {
     "name": "stdout",
     "output_type": "stream",
     "text": [
      "Message('note_off', channel=3, note=68, velocity=92, time=8)\n",
      "Message('note_on', channel=9, note=45, velocity=82, time=0)\n",
      "Message('note_on', channel=2, note=32, velocity=106, time=0)\n",
      "Message('note_on', channel=3, note=70, velocity=90, time=0)\n",
      "Message('note_off', channel=9, note=45, velocity=82, time=4)\n",
      "Message('note_off', channel=2, note=32, velocity=106, time=84)\n",
      "Message('note_off', channel=3, note=70, velocity=90, time=8)\n",
      "Message('note_on', channel=9, note=46, velocity=89, time=0)\n",
      "Message('note_on', channel=9, note=43, velocity=83, time=0)\n",
      "Message('note_on', channel=3, note=73, velocity=93, time=0)\n",
      "Message('note_off', channel=9, note=43, velocity=83, time=4)\n",
      "Message('note_off', channel=9, note=46, velocity=89, time=0)\n",
      "Message('note_off', channel=3, note=73, velocity=93, time=92)\n",
      "Message('note_off', channel=3, note=58, velocity=89, time=0)\n",
      "Message('note_off', channel=3, note=61, velocity=87, time=0)\n",
      "Message('note_off', channel=3, note=65, velocity=86, time=0)\n",
      "Message('note_on', channel=9, note=43, velocity=87, time=0)\n",
      "Message('note_on', channel=2, note=37, velocity=108, time=0)\n",
      "Message('note_on', channel=3, note=70, velocity=90, time=0)\n",
      "Message('note_off', channel=9, note=43, velocity=87, time=4)\n",
      "Message('note_off', channel=2, note=37, velocity=108, time=84)\n",
      "Message('note_off', channel=3, note=70, velocity=90, time=8)\n",
      "MetaMessage('set_tempo', tempo=526300, time=0)\n",
      "Message('note_on', channel=9, note=46, velocity=92, time=0)\n",
      "Message('note_on', channel=9, note=36, velocity=103, time=0)\n",
      "Message('note_on', channel=2, note=27, velocity=96, time=0)\n",
      "Message('note_on', channel=3, note=73, velocity=87, time=0)\n",
      "Message('note_on', channel=3, note=77, velocity=91, time=0)\n",
      "Message('note_on', channel=3, note=70, velocity=87, time=0)\n",
      "Message('note_on', channel=8, note=89, velocity=98, time=0)\n",
      "Message('note_off', channel=9, note=36, velocity=103, time=4)\n",
      "Message('note_off', channel=9, note=46, velocity=92, time=0)\n",
      "Message('note_off', channel=2, note=27, velocity=96, time=84)\n",
      "Message('note_on', channel=2, note=27, velocity=104, time=104)\n",
      "Message('note_off', channel=8, note=89, velocity=98, time=72)\n",
      "Message('note_off', channel=2, note=27, velocity=104, time=16)\n",
      "Message('note_off', channel=3, note=70, velocity=87, time=8)\n",
      "Message('note_off', channel=3, note=77, velocity=91, time=0)\n",
      "Message('note_off', channel=3, note=73, velocity=87, time=0)\n",
      "Message('note_on', channel=9, note=42, velocity=85, time=0)\n",
      "Message('note_on', channel=9, note=36, velocity=108, time=0)\n",
      "Message('note_on', channel=2, note=27, velocity=100, time=0)\n",
      "Message('note_on', channel=3, note=73, velocity=91, time=0)\n",
      "Message('note_on', channel=3, note=70, velocity=93, time=0)\n",
      "Message('note_on', channel=3, note=77, velocity=91, time=0)\n",
      "Message('note_on', channel=8, note=89, velocity=96, time=0)\n",
      "Message('note_off', channel=9, note=36, velocity=108, time=4)\n",
      "Message('note_off', channel=9, note=42, velocity=85, time=0)\n",
      "Message('note_off', channel=2, note=27, velocity=100, time=84)\n",
      "Message('note_off', channel=3, note=77, velocity=91, time=8)\n",
      "Message('note_off', channel=3, note=70, velocity=93, time=0)\n",
      "Message('note_off', channel=3, note=73, velocity=91, time=0)\n",
      "MetaMessage('set_tempo', tempo=550428, time=0)\n",
      "Message('note_on', channel=9, note=38, velocity=101, time=0)\n",
      "Message('note_off', channel=9, note=38, velocity=101, time=4)\n",
      "Message('note_off', channel=8, note=89, velocity=96, time=76)\n",
      "Message('note_on', channel=9, note=46, velocity=88, time=112)\n",
      "Message('note_on', channel=9, note=36, velocity=101, time=0)\n",
      "Message('note_on', channel=2, note=32, velocity=112, time=0)\n",
      "Message('note_on', channel=3, note=68, velocity=87, time=0)\n",
      "Message('note_on', channel=3, note=75, velocity=92, time=0)\n",
      "Message('note_on', channel=3, note=72, velocity=88, time=0)\n",
      "Message('note_on', channel=8, note=87, velocity=95, time=0)\n",
      "Message('note_off', channel=9, note=36, velocity=101, time=4)\n",
      "Message('note_off', channel=9, note=46, velocity=88, time=0)\n",
      "MetaMessage('set_tempo', tempo=566019, time=188)\n",
      "Message('note_off', channel=2, note=32, velocity=112, time=192)\n",
      "Message('note_off', channel=3, note=72, velocity=88, time=96)\n",
      "Message('note_off', channel=3, note=75, velocity=92, time=0)\n",
      "Message('note_off', channel=3, note=68, velocity=87, time=0)\n",
      "Message('note_off', channel=8, note=87, velocity=95, time=48)\n",
      "MetaMessage('set_tempo', tempo=576915, time=48)\n",
      "Message('note_on', channel=9, note=45, velocity=84, time=0)\n",
      "Message('note_on', channel=2, note=32, velocity=108, time=0)\n",
      "Message('note_on', channel=3, note=75, velocity=87, time=0)\n",
      "Message('note_on', channel=3, note=80, velocity=92, time=0)\n",
      "Message('note_on', channel=3, note=72, velocity=92, time=0)\n",
      "Message('note_on', channel=8, note=92, velocity=98, time=0)\n",
      "Message('note_off', channel=9, note=45, velocity=84, time=4)\n",
      "Message('note_on', channel=9, note=45, velocity=81, time=92)\n",
      "Message('note_off', channel=9, note=45, velocity=81, time=4)\n",
      "Message('note_on', channel=9, note=43, velocity=80, time=92)\n",
      "Message('note_off', channel=9, note=43, velocity=80, time=4)\n",
      "Message('note_off', channel=3, note=72, velocity=92, time=92)\n",
      "Message('note_off', channel=3, note=80, velocity=92, time=0)\n",
      "Message('note_off', channel=3, note=75, velocity=87, time=0)\n",
      "Message('note_off', channel=2, note=32, velocity=108, time=0)\n",
      "Message('note_on', channel=9, note=43, velocity=85, time=0)\n",
      "Message('note_off', channel=9, note=43, velocity=85, time=4)\n",
      "Message('note_off', channel=8, note=92, velocity=98, time=60)\n",
      "MetaMessage('set_tempo', tempo=666647, time=32)\n",
      "Message('note_on', channel=9, note=51, velocity=90, time=0)\n",
      "Message('note_on', channel=9, note=46, velocity=87, time=0)\n",
      "Message('note_on', channel=9, note=45, velocity=60, time=0)\n",
      "Message('note_on', channel=9, note=36, velocity=104, time=0)\n",
      "Message('note_on', channel=3, note=75, velocity=93, time=0)\n",
      "Message('note_on', channel=3, note=65, velocity=88, time=0)\n",
      "Message('note_on', channel=3, note=68, velocity=91, time=0)\n",
      "Message('note_on', channel=3, note=72, velocity=90, time=0)\n",
      "Message('note_on', channel=8, note=92, velocity=99, time=0)\n",
      "Message('note_off', channel=9, note=36, velocity=104, time=4)\n",
      "Message('note_off', channel=9, note=45, velocity=60, time=0)\n",
      "Message('note_off', channel=9, note=46, velocity=87, time=0)\n",
      "Message('note_off', channel=9, note=51, velocity=90, time=0)\n",
      "Message('note_on', channel=2, note=25, velocity=104, time=28)\n",
      "Message('control_change', channel=8, control=7, value=100, time=160)\n",
      "Message('control_change', channel=8, control=7, value=95, time=96)\n",
      "Message('control_change', channel=8, control=7, value=90, time=96)\n",
      "Message('control_change', channel=8, control=7, value=85, time=96)\n",
      "Message('control_change', channel=8, control=7, value=83, time=96)\n",
      "Message('control_change', channel=8, control=7, value=79, time=96)\n",
      "Message('control_change', channel=8, control=7, value=74, time=96)\n",
      "Message('control_change', channel=8, control=7, value=68, time=96)\n",
      "Message('control_change', channel=8, control=7, value=64, time=96)\n",
      "Message('control_change', channel=8, control=7, value=59, time=96)\n",
      "Message('control_change', channel=8, control=7, value=56, time=96)\n",
      "Message('control_change', channel=8, control=7, value=50, time=96)\n",
      "Message('note_off', channel=2, note=25, velocity=104, time=32)\n",
      "Message('control_change', channel=8, control=7, value=47, time=64)\n",
      "Message('control_change', channel=8, control=7, value=35, time=96)\n",
      "Message('note_off', channel=8, note=92, velocity=99, time=28)\n",
      "Message('note_off', channel=3, note=72, velocity=90, time=68)\n",
      "Message('note_off', channel=3, note=68, velocity=91, time=0)\n",
      "Message('note_off', channel=3, note=65, velocity=88, time=0)\n",
      "Message('note_off', channel=3, note=75, velocity=93, time=0)\n",
      "Message('sysex', data=(126, 127, 9, 1), time=384)\n",
      "Message('sysex', data=(65, 16, 66, 18, 64, 0, 127, 127, 66), time=78)\n",
      "MetaMessage('end_of_track', time=1074)\n",
      "None\n"
     ]
    }
   ],
   "source": [
    "filename = \"MIDI_Files/Never-Gonna-Give-You-Up-3.mid\"\n",
    "m = mido.MidiFile(filename=filename)\n",
    "print(m.print_tracks())"
   ]
  },
  {
   "cell_type": "code",
   "execution_count": 4,
   "metadata": {},
   "outputs": [
    {
     "name": "stdout",
     "output_type": "stream",
     "text": [
      "pygame 2.1.2 (SDL 2.0.18, Python 3.7.10)\n",
      "Hello from the pygame community. https://www.pygame.org/contribute.html\n"
     ]
    }
   ],
   "source": [
    "import pygame"
   ]
  },
  {
   "cell_type": "code",
   "execution_count": 5,
   "metadata": {
    "code_folding": []
   },
   "outputs": [],
   "source": [
    "def play_music(midi_filename):\n",
    "  '''Stream music_file in a blocking manner'''\n",
    "  clock = pygame.time.Clock()\n",
    "  pygame.mixer.music.load(midi_filename)\n",
    "  pygame.mixer.music.play()\n",
    "  while pygame.mixer.music.get_busy():\n",
    "    clock.tick(30) # check if playback has finished"
   ]
  },
  {
   "cell_type": "code",
   "execution_count": 6,
   "metadata": {},
   "outputs": [
    {
     "name": "stderr",
     "output_type": "stream",
     "text": [
      "ERROR:root:Internal Python error in the inspect module.\n",
      "Below is the traceback from this internal error.\n",
      "\n"
     ]
    },
    {
     "name": "stdout",
     "output_type": "stream",
     "text": [
      "Traceback (most recent call last):\n",
      "  File \"<ipython-input-6-c41d3ed34bd0>\", line 14, in <module>\n",
      "    play_music(filename)\n",
      "  File \"<ipython-input-5-39d9b10b84c7>\", line 7, in play_music\n",
      "    clock.tick(30) # check if playback has finished\n",
      "KeyboardInterrupt\n",
      "\n",
      "During handling of the above exception, another exception occurred:\n",
      "\n",
      "Traceback (most recent call last):\n",
      "  File \"/Users/manon/anaconda3/lib/python3.7/site-packages/IPython/core/interactiveshell.py\", line 3437, in run_code\n",
      "    exec(code_obj, self.user_global_ns, self.user_ns)\n",
      "  File \"<ipython-input-6-c41d3ed34bd0>\", line 20, in <module>\n",
      "    raise SystemExit\n",
      "SystemExit\n",
      "\n",
      "During handling of the above exception, another exception occurred:\n",
      "\n",
      "Traceback (most recent call last):\n",
      "  File \"/Users/manon/anaconda3/lib/python3.7/site-packages/IPython/core/ultratb.py\", line 1101, in get_records\n",
      "    return _fixed_getinnerframes(etb, number_of_lines_of_context, tb_offset)\n",
      "  File \"/Users/manon/anaconda3/lib/python3.7/site-packages/IPython/core/ultratb.py\", line 248, in wrapped\n",
      "    return f(*args, **kwargs)\n",
      "  File \"/Users/manon/anaconda3/lib/python3.7/site-packages/IPython/core/ultratb.py\", line 281, in _fixed_getinnerframes\n",
      "    records = fix_frame_records_filenames(inspect.getinnerframes(etb, context))\n",
      "  File \"/Users/manon/anaconda3/lib/python3.7/inspect.py\", line 1502, in getinnerframes\n",
      "    frameinfo = (tb.tb_frame,) + getframeinfo(tb, context)\n",
      "AttributeError: 'tuple' object has no attribute 'tb_frame'\n"
     ]
    },
    {
     "ename": "TypeError",
     "evalue": "object of type 'NoneType' has no len()",
     "output_type": "error",
     "traceback": [
      "\u001b[0;31m---------------------------------------------------------------------------\u001b[0m",
      "\u001b[0;31mKeyboardInterrupt\u001b[0m                         Traceback (most recent call last)",
      "\u001b[0;32m<ipython-input-6-c41d3ed34bd0>\u001b[0m in \u001b[0;36m<module>\u001b[0;34m\u001b[0m\n\u001b[1;32m     13\u001b[0m   \u001b[0;31m# use the midi file you just saved\u001b[0m\u001b[0;34m\u001b[0m\u001b[0;34m\u001b[0m\u001b[0;34m\u001b[0m\u001b[0m\n\u001b[0;32m---> 14\u001b[0;31m   \u001b[0mplay_music\u001b[0m\u001b[0;34m(\u001b[0m\u001b[0mfilename\u001b[0m\u001b[0;34m)\u001b[0m\u001b[0;34m\u001b[0m\u001b[0;34m\u001b[0m\u001b[0m\n\u001b[0m\u001b[1;32m     15\u001b[0m \u001b[0;32mexcept\u001b[0m \u001b[0mKeyboardInterrupt\u001b[0m\u001b[0;34m:\u001b[0m\u001b[0;34m\u001b[0m\u001b[0;34m\u001b[0m\u001b[0m\n",
      "\u001b[0;32m<ipython-input-5-39d9b10b84c7>\u001b[0m in \u001b[0;36mplay_music\u001b[0;34m(midi_filename)\u001b[0m\n\u001b[1;32m      6\u001b[0m   \u001b[0;32mwhile\u001b[0m \u001b[0mpygame\u001b[0m\u001b[0;34m.\u001b[0m\u001b[0mmixer\u001b[0m\u001b[0;34m.\u001b[0m\u001b[0mmusic\u001b[0m\u001b[0;34m.\u001b[0m\u001b[0mget_busy\u001b[0m\u001b[0;34m(\u001b[0m\u001b[0;34m)\u001b[0m\u001b[0;34m:\u001b[0m\u001b[0;34m\u001b[0m\u001b[0;34m\u001b[0m\u001b[0m\n\u001b[0;32m----> 7\u001b[0;31m     \u001b[0mclock\u001b[0m\u001b[0;34m.\u001b[0m\u001b[0mtick\u001b[0m\u001b[0;34m(\u001b[0m\u001b[0;36m30\u001b[0m\u001b[0;34m)\u001b[0m \u001b[0;31m# check if playback has finished\u001b[0m\u001b[0;34m\u001b[0m\u001b[0;34m\u001b[0m\u001b[0m\n\u001b[0m",
      "\u001b[0;31mKeyboardInterrupt\u001b[0m: ",
      "\nDuring handling of the above exception, another exception occurred:\n",
      "\u001b[0;31mSystemExit\u001b[0m                                Traceback (most recent call last)",
      "    \u001b[0;31m[... skipping hidden 1 frame]\u001b[0m\n",
      "\u001b[0;32m<ipython-input-6-c41d3ed34bd0>\u001b[0m in \u001b[0;36m<module>\u001b[0;34m\u001b[0m\n\u001b[1;32m     19\u001b[0m   \u001b[0mpygame\u001b[0m\u001b[0;34m.\u001b[0m\u001b[0mmixer\u001b[0m\u001b[0;34m.\u001b[0m\u001b[0mmusic\u001b[0m\u001b[0;34m.\u001b[0m\u001b[0mstop\u001b[0m\u001b[0;34m(\u001b[0m\u001b[0;34m)\u001b[0m\u001b[0;34m\u001b[0m\u001b[0;34m\u001b[0m\u001b[0m\n\u001b[0;32m---> 20\u001b[0;31m   \u001b[0;32mraise\u001b[0m \u001b[0mSystemExit\u001b[0m\u001b[0;34m\u001b[0m\u001b[0;34m\u001b[0m\u001b[0m\n\u001b[0m",
      "\u001b[0;31mSystemExit\u001b[0m: ",
      "\nDuring handling of the above exception, another exception occurred:\n",
      "\u001b[0;31mTypeError\u001b[0m                                 Traceback (most recent call last)",
      "    \u001b[0;31m[... skipping hidden 1 frame]\u001b[0m\n",
      "\u001b[0;32m~/anaconda3/lib/python3.7/site-packages/IPython/core/interactiveshell.py\u001b[0m in \u001b[0;36mshowtraceback\u001b[0;34m(self, exc_tuple, filename, tb_offset, exception_only, running_compiled_code)\u001b[0m\n\u001b[1;32m   2053\u001b[0m                            'the full traceback.\\n']\n\u001b[1;32m   2054\u001b[0m                     stb.extend(self.InteractiveTB.get_exception_only(etype,\n\u001b[0;32m-> 2055\u001b[0;31m                                                                      value))\n\u001b[0m\u001b[1;32m   2056\u001b[0m                 \u001b[0;32melse\u001b[0m\u001b[0;34m:\u001b[0m\u001b[0;34m\u001b[0m\u001b[0;34m\u001b[0m\u001b[0m\n\u001b[1;32m   2057\u001b[0m                     \u001b[0;32mtry\u001b[0m\u001b[0;34m:\u001b[0m\u001b[0;34m\u001b[0m\u001b[0;34m\u001b[0m\u001b[0m\n",
      "\u001b[0;32m~/anaconda3/lib/python3.7/site-packages/IPython/core/ultratb.py\u001b[0m in \u001b[0;36mget_exception_only\u001b[0;34m(self, etype, value)\u001b[0m\n\u001b[1;32m    752\u001b[0m         \u001b[0mvalue\u001b[0m \u001b[0;34m:\u001b[0m \u001b[0mexception\u001b[0m \u001b[0mvalue\u001b[0m\u001b[0;34m\u001b[0m\u001b[0;34m\u001b[0m\u001b[0m\n\u001b[1;32m    753\u001b[0m         \"\"\"\n\u001b[0;32m--> 754\u001b[0;31m         \u001b[0;32mreturn\u001b[0m \u001b[0mListTB\u001b[0m\u001b[0;34m.\u001b[0m\u001b[0mstructured_traceback\u001b[0m\u001b[0;34m(\u001b[0m\u001b[0mself\u001b[0m\u001b[0;34m,\u001b[0m \u001b[0metype\u001b[0m\u001b[0;34m,\u001b[0m \u001b[0mvalue\u001b[0m\u001b[0;34m)\u001b[0m\u001b[0;34m\u001b[0m\u001b[0;34m\u001b[0m\u001b[0m\n\u001b[0m\u001b[1;32m    755\u001b[0m \u001b[0;34m\u001b[0m\u001b[0m\n\u001b[1;32m    756\u001b[0m     \u001b[0;32mdef\u001b[0m \u001b[0mshow_exception_only\u001b[0m\u001b[0;34m(\u001b[0m\u001b[0mself\u001b[0m\u001b[0;34m,\u001b[0m \u001b[0metype\u001b[0m\u001b[0;34m,\u001b[0m \u001b[0mevalue\u001b[0m\u001b[0;34m)\u001b[0m\u001b[0;34m:\u001b[0m\u001b[0;34m\u001b[0m\u001b[0;34m\u001b[0m\u001b[0m\n",
      "\u001b[0;32m~/anaconda3/lib/python3.7/site-packages/IPython/core/ultratb.py\u001b[0m in \u001b[0;36mstructured_traceback\u001b[0;34m(self, etype, evalue, etb, tb_offset, context)\u001b[0m\n\u001b[1;32m    631\u001b[0m                     chained_exceptions_tb_offset, context)\n\u001b[1;32m    632\u001b[0m                 \u001b[0;34m+\u001b[0m \u001b[0mchained_exception_message\u001b[0m\u001b[0;34m\u001b[0m\u001b[0;34m\u001b[0m\u001b[0m\n\u001b[0;32m--> 633\u001b[0;31m                 + out_list)\n\u001b[0m\u001b[1;32m    634\u001b[0m \u001b[0;34m\u001b[0m\u001b[0m\n\u001b[1;32m    635\u001b[0m         \u001b[0;32mreturn\u001b[0m \u001b[0mout_list\u001b[0m\u001b[0;34m\u001b[0m\u001b[0;34m\u001b[0m\u001b[0m\n",
      "\u001b[0;32m~/anaconda3/lib/python3.7/site-packages/IPython/core/ultratb.py\u001b[0m in \u001b[0;36mstructured_traceback\u001b[0;34m(self, etype, value, tb, tb_offset, number_of_lines_of_context)\u001b[0m\n\u001b[1;32m   1366\u001b[0m             \u001b[0mself\u001b[0m\u001b[0;34m.\u001b[0m\u001b[0mtb\u001b[0m \u001b[0;34m=\u001b[0m \u001b[0mtb\u001b[0m\u001b[0;34m\u001b[0m\u001b[0;34m\u001b[0m\u001b[0m\n\u001b[1;32m   1367\u001b[0m         return FormattedTB.structured_traceback(\n\u001b[0;32m-> 1368\u001b[0;31m             self, etype, value, tb, tb_offset, number_of_lines_of_context)\n\u001b[0m\u001b[1;32m   1369\u001b[0m \u001b[0;34m\u001b[0m\u001b[0m\n\u001b[1;32m   1370\u001b[0m \u001b[0;34m\u001b[0m\u001b[0m\n",
      "\u001b[0;32m~/anaconda3/lib/python3.7/site-packages/IPython/core/ultratb.py\u001b[0m in \u001b[0;36mstructured_traceback\u001b[0;34m(self, etype, value, tb, tb_offset, number_of_lines_of_context)\u001b[0m\n\u001b[1;32m   1266\u001b[0m             \u001b[0;31m# Verbose modes need a full traceback\u001b[0m\u001b[0;34m\u001b[0m\u001b[0;34m\u001b[0m\u001b[0;34m\u001b[0m\u001b[0m\n\u001b[1;32m   1267\u001b[0m             return VerboseTB.structured_traceback(\n\u001b[0;32m-> 1268\u001b[0;31m                 \u001b[0mself\u001b[0m\u001b[0;34m,\u001b[0m \u001b[0metype\u001b[0m\u001b[0;34m,\u001b[0m \u001b[0mvalue\u001b[0m\u001b[0;34m,\u001b[0m \u001b[0mtb\u001b[0m\u001b[0;34m,\u001b[0m \u001b[0mtb_offset\u001b[0m\u001b[0;34m,\u001b[0m \u001b[0mnumber_of_lines_of_context\u001b[0m\u001b[0;34m\u001b[0m\u001b[0;34m\u001b[0m\u001b[0m\n\u001b[0m\u001b[1;32m   1269\u001b[0m             )\n\u001b[1;32m   1270\u001b[0m         \u001b[0;32melif\u001b[0m \u001b[0mmode\u001b[0m \u001b[0;34m==\u001b[0m \u001b[0;34m'Minimal'\u001b[0m\u001b[0;34m:\u001b[0m\u001b[0;34m\u001b[0m\u001b[0;34m\u001b[0m\u001b[0m\n",
      "\u001b[0;32m~/anaconda3/lib/python3.7/site-packages/IPython/core/ultratb.py\u001b[0m in \u001b[0;36mstructured_traceback\u001b[0;34m(self, etype, evalue, etb, tb_offset, number_of_lines_of_context)\u001b[0m\n\u001b[1;32m   1123\u001b[0m \u001b[0;34m\u001b[0m\u001b[0m\n\u001b[1;32m   1124\u001b[0m         formatted_exception = self.format_exception_as_a_whole(etype, evalue, etb, number_of_lines_of_context,\n\u001b[0;32m-> 1125\u001b[0;31m                                                                tb_offset)\n\u001b[0m\u001b[1;32m   1126\u001b[0m \u001b[0;34m\u001b[0m\u001b[0m\n\u001b[1;32m   1127\u001b[0m         \u001b[0mcolors\u001b[0m \u001b[0;34m=\u001b[0m \u001b[0mself\u001b[0m\u001b[0;34m.\u001b[0m\u001b[0mColors\u001b[0m  \u001b[0;31m# just a shorthand + quicker name lookup\u001b[0m\u001b[0;34m\u001b[0m\u001b[0;34m\u001b[0m\u001b[0m\n",
      "\u001b[0;32m~/anaconda3/lib/python3.7/site-packages/IPython/core/ultratb.py\u001b[0m in \u001b[0;36mformat_exception_as_a_whole\u001b[0;34m(self, etype, evalue, etb, number_of_lines_of_context, tb_offset)\u001b[0m\n\u001b[1;32m   1080\u001b[0m \u001b[0;34m\u001b[0m\u001b[0m\n\u001b[1;32m   1081\u001b[0m \u001b[0;34m\u001b[0m\u001b[0m\n\u001b[0;32m-> 1082\u001b[0;31m         \u001b[0mlast_unique\u001b[0m\u001b[0;34m,\u001b[0m \u001b[0mrecursion_repeat\u001b[0m \u001b[0;34m=\u001b[0m \u001b[0mfind_recursion\u001b[0m\u001b[0;34m(\u001b[0m\u001b[0morig_etype\u001b[0m\u001b[0;34m,\u001b[0m \u001b[0mevalue\u001b[0m\u001b[0;34m,\u001b[0m \u001b[0mrecords\u001b[0m\u001b[0;34m)\u001b[0m\u001b[0;34m\u001b[0m\u001b[0;34m\u001b[0m\u001b[0m\n\u001b[0m\u001b[1;32m   1083\u001b[0m \u001b[0;34m\u001b[0m\u001b[0m\n\u001b[1;32m   1084\u001b[0m         \u001b[0mframes\u001b[0m \u001b[0;34m=\u001b[0m \u001b[0mself\u001b[0m\u001b[0;34m.\u001b[0m\u001b[0mformat_records\u001b[0m\u001b[0;34m(\u001b[0m\u001b[0mrecords\u001b[0m\u001b[0;34m,\u001b[0m \u001b[0mlast_unique\u001b[0m\u001b[0;34m,\u001b[0m \u001b[0mrecursion_repeat\u001b[0m\u001b[0;34m)\u001b[0m\u001b[0;34m\u001b[0m\u001b[0;34m\u001b[0m\u001b[0m\n",
      "\u001b[0;32m~/anaconda3/lib/python3.7/site-packages/IPython/core/ultratb.py\u001b[0m in \u001b[0;36mfind_recursion\u001b[0;34m(etype, value, records)\u001b[0m\n\u001b[1;32m    380\u001b[0m     \u001b[0;31m# first frame (from in to out) that looks different.\u001b[0m\u001b[0;34m\u001b[0m\u001b[0;34m\u001b[0m\u001b[0;34m\u001b[0m\u001b[0m\n\u001b[1;32m    381\u001b[0m     \u001b[0;32mif\u001b[0m \u001b[0;32mnot\u001b[0m \u001b[0mis_recursion_error\u001b[0m\u001b[0;34m(\u001b[0m\u001b[0metype\u001b[0m\u001b[0;34m,\u001b[0m \u001b[0mvalue\u001b[0m\u001b[0;34m,\u001b[0m \u001b[0mrecords\u001b[0m\u001b[0;34m)\u001b[0m\u001b[0;34m:\u001b[0m\u001b[0;34m\u001b[0m\u001b[0;34m\u001b[0m\u001b[0m\n\u001b[0;32m--> 382\u001b[0;31m         \u001b[0;32mreturn\u001b[0m \u001b[0mlen\u001b[0m\u001b[0;34m(\u001b[0m\u001b[0mrecords\u001b[0m\u001b[0;34m)\u001b[0m\u001b[0;34m,\u001b[0m \u001b[0;36m0\u001b[0m\u001b[0;34m\u001b[0m\u001b[0;34m\u001b[0m\u001b[0m\n\u001b[0m\u001b[1;32m    383\u001b[0m \u001b[0;34m\u001b[0m\u001b[0m\n\u001b[1;32m    384\u001b[0m     \u001b[0;31m# Select filename, lineno, func_name to track frames with\u001b[0m\u001b[0;34m\u001b[0m\u001b[0;34m\u001b[0m\u001b[0;34m\u001b[0m\u001b[0m\n",
      "\u001b[0;31mTypeError\u001b[0m: object of type 'NoneType' has no len()"
     ]
    }
   ],
   "source": [
    "# mixer config\n",
    "freq = 44100  # audio CD quality\n",
    "bitsize = -16   # unsigned 16 bit\n",
    "channels = 2  # 1 is mono, 2 is stereo\n",
    "buffer = 1024   # number of samples\n",
    "pygame.mixer.init(freq, bitsize, channels, buffer)\n",
    "\n",
    "# optional volume 0 to 1.0\n",
    "pygame.mixer.music.set_volume(0.8)\n",
    "\n",
    "# listen for interruptions\n",
    "try:\n",
    "  # use the midi file you just saved\n",
    "  play_music(filename)\n",
    "except KeyboardInterrupt:\n",
    "  # if user hits Ctrl/C then exit\n",
    "  # (works only in console mode)\n",
    "  pygame.mixer.music.fadeout(1000)\n",
    "  pygame.mixer.music.stop()\n",
    "  raise SystemExit"
   ]
  },
  {
   "cell_type": "code",
   "execution_count": 43,
   "metadata": {},
   "outputs": [
    {
     "name": "stdout",
     "output_type": "stream",
     "text": [
      "     time  note  velocity  channel  time_release  time_duration  \\\n",
      "0       0    48        71        0          4094           4094   \n",
      "1       0    55        71        0          4094           4094   \n",
      "2       0    60        71        0          4094           4094   \n",
      "3       0    64        71        0          4094           4094   \n",
      "4    4096    43        71        0          8190           4094   \n",
      "5    4096    50        71        0          8190           4094   \n",
      "6    4096    59        71        0          8190           4094   \n",
      "7    4096    67        71        0          8190           4094   \n",
      "8    8192    45        71        0         12286           4094   \n",
      "9    8192    52        71        0         12286           4094   \n",
      "10   8192    60        71        0         12286           4094   \n",
      "11   8192    64        71        0         12286           4094   \n",
      "12  12288    41        71        0         16382           4094   \n",
      "13  12288    57        71        0         16382           4094   \n",
      "14  12288    60        71        0         16382           4094   \n",
      "15  12288    65        71        0         16382           4094   \n",
      "\n",
      "    velocity_release  \n",
      "0                 90  \n",
      "1                 90  \n",
      "2                 90  \n",
      "3                 90  \n",
      "4                 90  \n",
      "5                 90  \n",
      "6                 90  \n",
      "7                 90  \n",
      "8                 90  \n",
      "9                 90  \n",
      "10                90  \n",
      "11                90  \n",
      "12                90  \n",
      "13                90  \n",
      "14                90  \n",
      "15                90  \n"
     ]
    }
   ],
   "source": [
    "\n",
    "def track_to_dataframe(track, event_style=False):\n",
    "    records = []\n",
    "    track_name = \"\"\n",
    "    current_time = 0\n",
    "    # Event style dataframe\n",
    "    if event_style:\n",
    "        for x in track:\n",
    "            new_dict = x.__dict__.copy()\n",
    "            if new_dict[\"type\"] == \"track_name\":\n",
    "                track_name = new_dict[\"name\"]\n",
    "            else:\n",
    "                #Swapping name for coherence\n",
    "                new_dict[\"time_diff\"] = new_dict[\"time\"] \n",
    "                current_time += new_dict[\"time_diff\"]\n",
    "                new_dict[\"time\"] = current_time\n",
    "                new_dict[\"pressed\"] = new_dict[\"type\"] == \"note_on\"\n",
    "                new_dict[\"released\"] = new_dict[\"type\"] == \"note_off\"\n",
    "                records.append(new_dict)\n",
    "    else:\n",
    "        # Streaming style dataframe\n",
    "        pressed_notes = {}\n",
    "        id = 0\n",
    "        for x in track:\n",
    "            new_dict = x.__dict__.copy()\n",
    "            if new_dict[\"type\"] == \"track_name\":\n",
    "                track_name = new_dict[\"name\"]\n",
    "            else:\n",
    "                current_time += new_dict[\"time\"]\n",
    "                new_dict[\"time\"] = current_time\n",
    "                new_dict[\"time_release\"] = None\n",
    "                new_dict[\"time_duration\"] = None\n",
    "                new_dict[\"velocity_release\"] = None\n",
    "                if new_dict[\"type\"] == \"note_off\":\n",
    "                    former_pressed_note = pressed_notes[new_dict[\"note\"]]\n",
    "                    if former_pressed_note is None:\n",
    "                        raise ValueError(\"The given track has a released note that was never pressed in the first place\")\n",
    "                    pressed_record = records[former_pressed_note[\"id\"]]\n",
    "                    pressed_record[\"time_release\"] = current_time\n",
    "                    pressed_record[\"time_duration\"] = current_time - pressed_record[\"time\"]\n",
    "                    pressed_record[\"velocity_release\"] = new_dict[\"velocity\"]\n",
    "                    pressed_notes[new_dict[\"note\"]] = None\n",
    "                elif new_dict[\"type\"] == \"note_on\":\n",
    "                    pressed_notes[new_dict[\"note\"]] = {\"id\": id}\n",
    "                    del new_dict[\"type\"]\n",
    "                    records.append(new_dict)\n",
    "                    id += 1\n",
    "                                        \n",
    "    return pd.DataFrame(records)\n",
    "\n",
    "pd_track = track_to_dataframe(m.tracks[1])\n",
    "print(pd_track)"
   ]
  },
  {
   "cell_type": "code",
   "execution_count": 44,
   "metadata": {},
   "outputs": [
    {
     "data": {
      "application/vnd.jupyter.widget-view+json": {
       "model_id": "1ba4291fedc24a978373ed3581a2ce44",
       "version_major": 2,
       "version_minor": 0
      },
      "image/png": "iVBORw0KGgoAAAANSUhEUgAAAoAAAAHgCAYAAAA10dzkAAAAOXRFWHRTb2Z0d2FyZQBNYXRwbG90bGliIHZlcnNpb24zLjUuMSwgaHR0cHM6Ly9tYXRwbG90bGliLm9yZy/YYfK9AAAACXBIWXMAAA9hAAAPYQGoP6dpAAArlUlEQVR4nO3de3TU9Z3/8dcwISGBTAIBcsFkGAgY5KLcjBG0rqQblXqpWW1pdFE5dNGoQFpkabWKtYLurlK7VcTjwu4RpHIOUu8uN/EWbkGEFBuTME3CJaFFkwkqAZPP7w+X+TkSLGgyX/P9PB/nzDnm+/1mfH9IMnmeyXfm6zHGGAEAAMAa3ZweAAAAANFFAAIAAFiGAAQAALAMAQgAAGAZAhAAAMAyBCAAAIBlCEAAAADLEIAAAACWIQABAAAsQwACAABYhgAEAACwDAEIAABgGQIQAADAMgQgAACAZQhAAAAAyxCAAAAAliEAAQAALEMAAgAAWIYABAAAsAwBCAAAYBkCEAAAwDIEIAAAgGUIQAAAAMsQgAAAAJYhAAEAACxDAAIAAFiGAAQAALAMAQgAAGAZAhAAAMAyBCAAAIBlCEAAAADLEIAAAACWIQABAAAsQwACAABYhgAEAACwDAEIAABgGQIQAADAMgQgAACAZQhAAAAAyxCAAAAAliEAAQAALEMAAgAAWIYABAAAsAwBCAAAYBkCEAAAwDIEIAAAgGUIQAAAAMsQgAAAAJYhAAEAACxDAAIAAFiGAAQAALAMAQgAAGAZ1wbgwIED5fF4TroVFxdLko4ePari4mKlpKSoV69eKiwsVENDg8NTAwAAdD6PMcY4PURn+Otf/6rW1tbwx+Xl5fr+97+vjRs36pJLLtGtt96ql19+WcuWLVNSUpJuv/12devWTe+8846DUwMAAHQ+1wbgV82aNUsvvfSSKisrFQqF1K9fP61YsUL/9E//JEn685//rGHDhqm0tFQXXHCBw9MCAAB0Htf+CfjLjh07pmeeeUa33HKLPB6PysrKdPz4ceXn54ePycnJUVZWlkpLSx2cFAAAoPPFOD1ANKxZs0aNjY266aabJEn19fWKjY1VcnJyxHGpqamqr68/5f20tLSopaUl/HFbW5s++ugjpaSkyOPxdMboAACggxlj1NzcrIyMDHXrZsVzYSexIgCffvppXX755crIyPhW97NgwQLNnz+/g6YCAABOqqur01lnneX0GI5wfQDW1NRo3bp1Wr16dXhbWlqajh07psbGxohnARsaGpSWlnbK+5o3b55KSkrCHzc1NSkrK0t1dXXy+XydMj8AAOhYoVBImZmZSkxMdHoUx7g+AJcuXar+/ftr8uTJ4W1jx45V9+7dtX79ehUWFkqSKioqVFtbq7y8vFPeV1xcnOLi4k7a7vP5CEAAALoYm0/fcnUAtrW1aenSpZo6dapiYv7/UpOSkjRt2jSVlJSoT58+8vl8uuOOO5SXl8crgAEAgOu5OgDXrVun2tpa3XLLLSfte/TRR9WtWzcVFhaqpaVFBQUFevzxxx2YEgAAILqseR/AzhAKhZSUlKSmpib+BAwAQBfB729L3gcQAAAA/x8BCAAAYBkCEAAAwDIEIAAAgGUIQAAAAMsQgAAAAJYhAAEAACxDAAIAAFiGAAQAALAMAQgAAGAZAhAAAMAyBCAAAIBlCEAAAADLEIAAAACWIQABAAAsQwACAABYJsbpAYCuorW1VcFg0OkxEEWBQEBer9fpMQCgwxGAwGkKBoNaUzNEqX6nJ0E0NNRI16hS2dnZTo8CAB2OAATOQKpfGkAPAAC6OM4BBAAAsAwBCAAAYBkCEAAAwDIEIAAAgGUIQAAAAMsQgAAAAJYhAAEAACxDAAIAAFiGN4IGzkBDjdMTIFoaaiRx1RcALkUAAqcpEAjoGlU6PQaixf/F1xwA3IgABE6T1+vlurAAAFfgHEAAAADLEIAAAACWIQABAAAsQwACAABYhgAEAACwDAEIAABgGQIQAADAMgQgAACAZQhAAAAAy3AlEACA9VpbWxUMBp0eA1HS3Nzs9AiOIwABANYLBoN6rWaI0vxOT4JoCNY5PYHzCEAAACSl+aVMLvdthU95ApBzAAEAAGxDAAIAAFiGAAQAALAMAQgAAGAZAhAAAMAyrg7A/fv364YbblBKSori4+M1cuRIbd++Pbz/pptuksfjibhddtllDk4MAADQ+Vz7NjAff/yxJkyYoH/4h3/Qq6++qn79+qmyslK9e/eOOO6yyy7T0qVLwx/HxcVFe1QAAICocm0APvTQQ8rMzIyIu0AgcNJxcXFxSktLi+ZoAAAAjnJtAL7wwgsqKCjQddddp02bNmnAgAG67bbbNH369Ijj3njjDfXv31+9e/fWpZdeqgceeEApKSnt3mdLS4taWlrCH4dCIUlSdXW1EhMTO28x+M4IBALyer1Oj4Eo4NJgdqmpqVG900Mgahq4Eog8xhjj9BCdoUePHpKkkpISXXfdddq2bZtmzpypxYsXa+rUqZKklStXKiEhQYFAQNXV1frFL36hXr16qbS0tN1f8vfdd5/mz59/0vYVO6QE+s/1DtZI+f5KZWdzqQAbVFVVaV3NEKVzaTAr7N8rne1dJ7+fL7gNmpubNWbMGDU1Ncnn8zk9jiNcG4CxsbEaN26c3n333fC2O++8U9u2bVNpaWm7n7N3714NHjxY69at06RJk07a394zgJmZmdrUJPWy8/vHKnVV0nARgLaoqqrSnzSES4NZgp9vu4RCISUlJVkdgK59FXB6errOOeeciG3Dhg1TbW3tKT9n0KBB6tu3r6qqqtrdHxcXJ5/PF3EDAADoalwbgBMmTFBFRUXEtg8//PBrn97ft2+fDh8+rPT09M4eDwAAwDGuDcDZs2dr8+bNevDBB1VVVaUVK1ZoyZIlKi4uliQdOXJEc+bM0ebNm/WXv/xF69ev19VXX63s7GwVFBQ4PD0AAEDncW0Ajh8/Xs8//7yeffZZjRgxQr/+9a+1aNEiFRUVSZK8Xq927dqlq666SkOHDtW0adM0duxYvfXWW7wXIAAAcDXXvg2MJP3gBz/QD37wg3b3xcfH6/XXX4/yRAAAAM5z7TOAAAAAaB8BCAAAYBkCEAAAwDIEIAAAgGVc/SKQaNlfzaXgbHCwRhrOVaKscrDG6QkQLfx8wzYEYAfI0Q4ligJ0u+F+KRAIOD0GoiQQCChflU6PgSjh5xu2IQA7wODBg7ksHOAyXq+X68ICcC3OAQQAALAMAQgAAGAZAhAAAMAyBCAAAIBlCEAAAADLEIAAAACWIQABAAAsQwACAABYhgAEAACwDAEIAABgGQIQAADAMgQgAACAZQhAAAAAyxCAAAAAliEAAQAALEMAAgAAWIYABAAAsAwBCAAAYBkCEAAAwDIEIAAAgGUIQAAAAMsQgAAAAJYhAAEAACxDAAIAAFiGAAQAALAMAQgAAGAZAhAAAMAyBCAAAIBlCEAAAADLEIAAAACWIQABAAAsQwACAABYJsbpAdygurpaiYmJTo+BKAgEAvJ6vU6PgShobW1VMBh0egxESWtrqyTx822J5uZmp0dwHAHYARo0RkecHgKdbn+NJFUqOzvb6VEQBcFgUNtrhmiA3+lJEA1lW6S0AeLrbYnKOqcncB4B2AH8g6VEn9NTAOhoA/xSgN63wr4avt42+YQnADkHEAAAwDYEIAAAgGUIQAAAAMsQgAAAAJYhAAEAACzj6gDcv3+/brjhBqWkpCg+Pl4jR47U9u3bw/uNMfrVr36l9PR0xcfHKz8/X5WVlQ5ODAAA0PlcG4Aff/yxJkyYoO7du+vVV1/Vnj179B//8R/q3bt3+JiHH35Yjz32mBYvXqwtW7aoZ8+eKigo0NGjRx2cHAAAoHO59n0AH3roIWVmZmrp0qXhbYFAIPzfxhgtWrRId999t66++mpJ0v/8z/8oNTVVa9as0Y9//OOozwwAABANrg3AF154QQUFBbruuuu0adMmDRgwQLfddpumT58u6Yt3+a+vr1d+fn74c5KSkpSbm6vS0tJ2A7ClpUUtLS3hj0OhkCSpplrqyZXgXK9ur3TMW+P0GIiSmpoa/dXpIRA1Dfslj9NDIGoOcCUQ9wbg3r179cQTT6ikpES/+MUvtG3bNt15552KjY3V1KlTVV9fL0lKTU2N+LzU1NTwvq9asGCB5s+ff9L2VO1QoihAtzvmrdHHyldPpwdBVPytVernXad0cW0wG1ye+3/XAhbXArZBr8xmSWOcHsNRrg3AtrY2jRs3Tg8++KAkafTo0SovL9fixYs1derUb3Sf8+bNU0lJSfjjUCikzMxMDR48WD4f14KzQU9xqSib9JWfaz8DLnTiL3g2c+2LQNLT03XOOedEbBs2bJhqa2slSWlpaZKkhoaGiGMaGhrC+74qLi5OPp8v4gYAANDVuDYAJ0yYoIqKiohtH374ofz+L/6cEwgElJaWpvXr14f3h0IhbdmyRXl5eVGdFQAAIJpc+yfg2bNn68ILL9SDDz6o66+/Xlu3btWSJUu0ZMkSSZLH49GsWbP0wAMPaMiQIQoEArrnnnuUkZGha665xtnhAQAAOpFrA3D8+PF6/vnnNW/ePN1///0KBAJatGiRioqKwsfcdddd+uSTT/TTn/5UjY2Nmjhxol577TX16NHDwckBAAA6l8cYY5weoqsKhUJKSkpSU1MT5wNaoKqqSn/TEF4EYolgldRXlbwIBHAhfn+7+BxAAAAAtI8ABAAAsAwBCAAAYBkCEAAAwDKufRUw0Bn2cSlga+yrkfpyFTgALkUAAqcpEAhIqnR6DERJX/+JrzkAuA8BCJwmr9fLW4IAAFyBcwABAAAsQwACAABYhgAEAACwDAEIAABgGQIQAADAMgQgAACAZQhAAAAAyxCAAAAAluGNoAEA1mttbVUwGHR6DERJc3Oz0yM4jgAEAFgvGAzqzzVDlMn1n61QWef0BM4jAAEAkJTplwZztUcrHOEJQM4BBAAAsA0BCAAAYBkCEAAAwDIEIAAAgGUIQAAAAMsQgAAAAJYhAAEAACxDAAIAAFiGAAQAALAMVwIBAEBSXY3TEyBa9nMpOAIQAIBAICCp0ukxECVDMpsljXF6DEcRgAAA63m9XmVncyFgW4RCIadHcBznAAIAAFiGAAQAALAMAQgAAGAZAhAAAMAyBCAAAIBlCEAAAADLEIAAAACWIQABAAAswxtBd4Dq6molJiY6PQaiIBAIyOv1Oj0GAADfCgHYIcbIOD0COl1NjSRVcrUAAECXRwB2gEGDJZ/P6SkAAABOD+cAAgAAWIYABAAAsAwBCAAAYBkCEAAAwDIEIAAAgGVcG4D33XefPB5PxC0nJye8/5JLLjlp/4wZMxycGAAAIDpc/TYww4cP17p168Ifx8RELnf69Om6//77wx8nJCREbTYAAACnuDoAY2JilJaWdsr9CQkJX7sfAADAjVz7J2BJqqysVEZGhgYNGqSioiLV1tZG7F++fLn69u2rESNGaN68efr0008dmhQAACB6XPsMYG5urpYtW6azzz5bBw8e1Pz583XRRRepvLxciYmJ+slPfiK/36+MjAzt2rVLc+fOVUVFhVavXn3K+2xpaVFLS0v441AoJEnaWy314lLArldTIw30Oz0FAADfnscYY8VlbBsbG+X3+/XII49o2rRpJ+3fsGGDJk2apKqqKg0ePLjd+7jvvvs0f/78k7bv2LFDiYkUoA0CgYC8Xq/TYwAAvoVQKKSkpCQ1NTXJZ+m1XF37DOBXJScna+jQoaqqqmp3f25uriR9bQDOmzdPJSUl4Y9DoZAyMzM1ePBga7+BAABA1+PqcwC/7MiRI6qurlZ6enq7+3fu3ClJp9wvSXFxcfL5fBE3AACArsa1zwD+/Oc/15VXXim/368DBw7o3nvvldfr1ZQpU1RdXa0VK1boiiuuUEpKinbt2qXZs2fr4osv1qhRo5weHQAAoFO5NgD37dunKVOm6PDhw+rXr58mTpyozZs3q1+/fjp69KjWrVunRYsW6ZNPPlFmZqYKCwt19913Oz02AABAp7PmRSCdgZNIAQDoevj9bdE5gAAAAPgCAQgAAGAZAhAAAMAyBCAAAIBlCEAAAADLEIAAAACWIQABAAAsQwACAABYhgAEAACwDAEIAABgGQIQAADAMgQgAACAZQhAAAAAyxCAAAAAliEAAQAALEMAAgAAWCbG6QEA4LuotbVVwWDQ6TEQRYFAQF6v1+kxgKggAAGgHcFgUDV7hsif6fQkiIaaOkmqVHZ2ttOjAFFBAALAKfgzpexBTk8BAB2PcwABAAAsQwACAABYhgAEAACwDAEIAABgGQIQAADAMgQgAACAZQhAAAAAyxCAAAAAliEAAQAALMOVQADgFL64PBhsUFMn+c9xegogeghAAGhHIBCQVOn0GIgS/zknvuaAHQhAAGiH1+tVdna202MAQKfgHEAAAADLEIAAAACWIQABAAAsQwACAABYhgAEAACwDAEIAABgGQIQAADAMgQgAACAZXgjaOA0tba2KhgMOj0GoigQCMjr9To9BgB0OAIQOE3BYFA1ZUPkP8vpSRANNfskqZKrgQBwJQIQOAP+s6RsLhcKAOjiOAcQAADAMgQgAACAZQhAAAAAyxCAAAAAliEAAQAALOPaALzvvvvk8Xgibjk5OeH9R48eVXFxsVJSUtSrVy8VFhaqoaHBwYkBAACiw7UBKEnDhw/XwYMHw7e33347vG/27Nl68cUXtWrVKm3atEkHDhzQtdde6+C0AAAA0eHq9wGMiYlRWlraSdubmpr09NNPa8WKFbr00kslSUuXLtWwYcO0efNmXXDBBdEeFQAAIGpc/QxgZWWlMjIyNGjQIBUVFam2tlaSVFZWpuPHjys/Pz98bE5OjrKyslRaWurUuAAAAFHh2mcAc3NztWzZMp199tk6ePCg5s+fr4suukjl5eWqr69XbGyskpOTIz4nNTVV9fX1p7zPlpYWtbS0hD8OhUKdNT6+o764PBhsULNP8qc6PQUAdA7XBuDll18e/u9Ro0YpNzdXfr9fzz33nOLj47/RfS5YsEDz58/vqBHRxQQCAUmVTo+BKPGnnviaA4D7uDYAvyo5OVlDhw5VVVWVvv/97+vYsWNqbGyMeBawoaGh3XMGT5g3b55KSkrCH4dCIWVmZnbm2PgO8Xq9ys7OdnoMAAC+NVefA/hlR44cUXV1tdLT0zV27Fh1795d69evD++vqKhQbW2t8vLyTnkfcXFx8vl8ETcAAICuxrXPAP785z/XlVdeKb/frwMHDujee++V1+vVlClTlJSUpGnTpqmkpER9+vSRz+fTHXfcoby8PF4BDAAAXM+1Abhv3z5NmTJFhw8fVr9+/TRx4kRt3rxZ/fr1kyQ9+uij6tatmwoLC9XS0qKCggI9/vjjDk8NAADQ+TzGGOP0EF1VKBRSUlKSmpqa+HMwAABdBL+/LToHEAAAAF8gAAEAACxDAAIAAFiGAAQAALCMa18FHE3V1dVKTEx0egxEQSAQkNfrdXoMAAC+FQKwI9SOkXo6PQQ6W81+SarkaiAAgC6PAOwAg7MkXy+npwAAADg9nAMIAABgGQIQAADAMgQgAACAZQhAAAAAyxCAAAAAliEAAQAALEMAAgAAWIYABAAAsAwBCAAAYBmuBNIBqmulRC4F53o1+yX/QKenAADg2yMAO0LWDikx0ekp0Mn8A6VAIOD0GAAAfGsEYAcYPHiwfD6f02MAAACcFs4BBAAAsAwBCAAAYBkCEAAAwDIEIAAAgGUIQAAAAMsQgAAAAJYhAAEAACxDAAIAAFiGAAQAALAMAQgAAGAZAhAAAMAyBCAAAIBlCEAAAADLEIAAAACWIQABAAAsQwACAABYhgAEAACwDAEIAABgGQIQAADAMgQgAACAZWKcHgAAvotaW1sVDAadHgNRFAgE5PV6nR4DiAoCEADaEQwGVfP6EPnTnZ4E0VBzUFJBpbKzs50eBYgKAhAATsGfLmVnOj0FAHQ8zgEEAACwDAEIAABgGQIQAADAMgQgAACAZQhAAAAAy1gRgAsXLpTH49GsWbPC2y655BJ5PJ6I24wZM5wbEgAAIEpc/zYw27Zt05NPPqlRo0adtG/69Om6//77wx8nJCREczQAAABHuPoZwCNHjqioqEhPPfWUevfufdL+hIQEpaWlhW8+n8+BKQEAAKLL1c8AFhcXa/LkycrPz9cDDzxw0v7ly5frmWeeUVpamq688krdc889X/ssYEtLi1paWsIfh0KhTpkbwHdDzUGnJ0C01ByU/Cf/oQhwLdcG4MqVK7Vjxw5t27at3f0/+clP5Pf7lZGRoV27dmnu3LmqqKjQ6tWrT3mfCxYs0Pz58ztrZADfIYFAQCqodHoMRIl/1P99zQFLeIwxxukhOlpdXZ3GjRuntWvXhs/9u+SSS3Teeedp0aJF7X7Ohg0bNGnSJFVVVWnw4MHtHtPeM4CZmZlqamriz8cAAHQRoVBISUlJVv/+duUzgGVlZTp06JDGjBkT3tba2qo333xT//mf/6mWlhZ5vd6Iz8nNzZWkrw3AuLg4xcXFdd7gAAAAUeDKAJw0aZJ2794dse3mm29WTk6O5s6de1L8SdLOnTslSenp6dEYEQAAwDGuDMDExESNGDEiYlvPnj2VkpKiESNGqLq6WitWrNAVV1yhlJQU7dq1S7Nnz9bFF1/c7tvFAAAAuIkrA/DviY2N1bp167Ro0SJ98sknyszMVGFhoe6++26nRwMAAOh0rnwRSLRwEikAAF0Pv79d/kbQAAAAOBkBCAAAYBkCEAAAwDIEIAAAgGWsfBUw8E20trYqGAw6PQaiKBAItPu+oQDQ1RGAwGkKBoOq+eMQ+dOcngTRUFMv6epKZWdnOz0KAHQ4AhA4A/40KXuA01MAAPDtcA4gAACAZQhAAAAAyxCAAAAAliEAAQAALEMAAgAAWIYABAAAsAwBCAAAYBkCEAAAwDK8ETRwBmrqnZ4A0VJTL/mdHgIAOgkBCJymQCAgXV3p9BiIEr/+72sOAC5EAAKnyev1cl1YAIArcA4gAACAZQhAAAAAyxCAAAAAliEAAQAALEMAAgAAWIYABAAAsAwBCAAAYBkCEAAAwDIEIAAAgGW4EggAwHqtra0KBoNOj4EoaW5udnoExxGAAADrBYNB1fxhiPz9nZ4E0VBX6/QEziMAAQCQ5O8vZWc4PQWiofkzpydwHucAAgAAWIYABAAAsAwBCAAAYBkCEAAAwDIEIAAAgGUIQAAAAMsQgAAAAJYhAAEAACxDAAIAAFiGK4EAACCp5pDTEyBa6v7q9ATOIwABANYLBALSjyqdHgNRktncLD0wxukxHEUAAgCs5/V6lZ2d7fQYiJJQKOT0CI7jHEAAAADLEIAAAACWIQABAAAsQwACAABYhgAEAACwjBUBuHDhQnk8Hs2aNSu87ejRoyouLlZKSop69eqlwsJCNTQ0ODckAABAlLg+ALdt26Ynn3xSo0aNitg+e/Zsvfjii1q1apU2bdqkAwcO6Nprr3VoSgAAgOhxdQAeOXJERUVFeuqpp9S7d+/w9qamJj399NN65JFHdOmll2rs2LFaunSp3n33XW3evNnBiQEAADqfqwOwuLhYkydPVn5+fsT2srIyHT9+PGJ7Tk6OsrKyVFpaesr7a2lpUSgUirgBAAB0Na69EsjKlSu1Y8cObdu27aR99fX1io2NVXJycsT21NRU1dfXn/I+FyxYoPnz53f0qAAAAFHlymcA6+rqNHPmTC1fvlw9evTosPudN2+empqawre6uroOu28AAIBocWUAlpWV6dChQxozZoxiYmIUExOjTZs26bHHHlNMTIxSU1N17NgxNTY2RnxeQ0OD0tLSTnm/cXFx8vl8ETcAAICuxpV/Ap40aZJ2794dse3mm29WTk6O5s6dq8zMTHXv3l3r169XYWGhJKmiokK1tbXKy8tzYmQAAICocWUAJiYmasSIERHbevbsqZSUlPD2adOmqaSkRH369JHP59Mdd9yhvLw8XXDBBU6MDAAAEDWuDMDT8eijj6pbt24qLCxUS0uLCgoK9Pjjjzs9FgAAQKfzGGOM00N0VaFQSElJSWpqauJ8QAAAugh+f7v0RSAAAAA4NQIQAADAMgQgAACAZQhAAAAAyxCAAAAAliEAAQAALEMAAgAAWIYABAAAsAwBCAAAYBkCEAAAwDIEIAAAgGUIQAAAAMsQgAAAAJYhAAEAACxDAAIAAFgmxukBujJjjCQpFAo5PAkAADhdJ35vn/g9biMC8Fs4fPiwJCkzM9PhSQAAwJlqbm5WUlKS02M4ggD8Fvr06SNJqq2tteYbKBQKKTMzU3V1dfL5fE6P0+lsW69k35ptW69k35ptW69k35rPdL3GGDU3NysjIyMK0303EYDfQrduX5xCmZSUZMUP2Jf5fD6r1mzbeiX71mzbeiX71mzbeiX71nwm67XliZtT4UUgAAAAliEAAQAALEMAfgtxcXG69957FRcX5/QoUWPbmm1br2Tfmm1br2Tfmm1br2Tfmm1bb0fwGJtfAw0AAGAhngEEAACwDAEIAABgGQIQAADAMgQgAACAZQjAb+j3v/+9Bg4cqB49eig3N1dbt251eqTTsmDBAo0fP16JiYnq37+/rrnmGlVUVEQcc/ToURUXFyslJUW9evVSYWGhGhoaIo6pra3V5MmTlZCQoP79+2vOnDn6/PPPI4554403NGbMGMXFxSk7O1vLli3r7OX9XQsXLpTH49GsWbPC29y43v379+uGG25QSkqK4uPjNXLkSG3fvj283xijX/3qV0pPT1d8fLzy8/NVWVkZcR8fffSRioqK5PP5lJycrGnTpunIkSMRx+zatUsXXXSRevTooczMTD388MNRWd9Xtba26p577lEgEFB8fLwGDx6sX//61xHX+ezKa37zzTd15ZVXKiMjQx6PR2vWrInYH821rVq1Sjk5OerRo4dGjhypV155pcPXK339mo8fP665c+dq5MiR6tmzpzIyMvTP//zPOnDggGvX/FUzZsyQx+PRokWLIrZ3pTWfzno/+OADXXXVVUpKSlLPnj01fvx41dbWhve78fE7agzO2MqVK01sbKz5r//6L/OnP/3JTJ8+3SQnJ5uGhganR/u7CgoKzNKlS015ebnZuXOnueKKK0xWVpY5cuRI+JgZM2aYzMxMs379erN9+3ZzwQUXmAsvvDC8//PPPzcjRoww+fn55r333jOvvPKK6du3r5k3b174mL1795qEhARTUlJi9uzZY373u98Zr9drXnvttaiu98u2bt1qBg4caEaNGmVmzpwZ3u629X700UfG7/ebm266yWzZssXs3bvXvP7666aqqip8zMKFC01SUpJZs2aNef/9981VV11lAoGA+eyzz8LHXHbZZebcc881mzdvNm+99ZbJzs42U6ZMCe9vamoyqamppqioyJSXl5tnn33WxMfHmyeffDKq6zXGmN/85jcmJSXFvPTSSyYYDJpVq1aZXr16md/+9rfhY7ryml955RXzy1/+0qxevdpIMs8//3zE/mit7Z133jFer9c8/PDDZs+ePebuu+823bt3N7t3747qmhsbG01+fr75wx/+YP785z+b0tJSc/7555uxY8dG3Ieb1vxlq1evNueee67JyMgwjz76aJdd899bb1VVlenTp4+ZM2eO2bFjh6mqqjJ//OMfI37Xuu3xO5oIwG/g/PPPN8XFxeGPW1tbTUZGhlmwYIGDU30zhw4dMpLMpk2bjDFfPLB2797drFq1KnzMBx98YCSZ0tJSY8wXP7TdunUz9fX14WOeeOIJ4/P5TEtLizHGmLvuussMHz484v/1ox/9yBQUFHT2ktrV3NxshgwZYtauXWu+973vhQPQjeudO3eumThx4in3t7W1mbS0NPNv//Zv4W2NjY0mLi7OPPvss8YYY/bs2WMkmW3btoWPefXVV43H4zH79+83xhjz+OOPm969e4f/DU78v88+++yOXtLfNXnyZHPLLbdEbLv22mtNUVGRMcZda/7qL8poru366683kydPjpgnNzfX/Mu//EuHrvGrvi6GTti6dauRZGpqaowx7l3zvn37zIABA0x5ebnx+/0RAdiV19zeen/0ox+ZG2644ZSf48bH72jiT8Bn6NixYyorK1N+fn54W7du3ZSfn6/S0lIHJ/tmmpqaJEl9+vSRJJWVlen48eMR68vJyVFWVlZ4faWlpRo5cqRSU1PDxxQUFCgUCulPf/pT+Jgv38eJY5z6NyouLtbkyZNPmsmN633hhRc0btw4XXfdderfv79Gjx6tp556Krw/GAyqvr4+Yt6kpCTl5uZGrDk5OVnjxo0LH5Ofn69u3bppy5Yt4WMuvvhixcbGho8pKChQRUWFPv74485eZoQLL7xQ69ev14cffihJev/99/X222/r8ssvl+TONZ8QzbV9l77Pv6qpqUkej0fJycmS3LnmtrY23XjjjZozZ46GDx9+0n43rbmtrU0vv/yyhg4dqoKCAvXv31+5ubkRfyZ24+N3NBGAZ+hvf/ubWltbI76ZJCk1NVX19fUOTfXNtLW1adasWZowYYJGjBghSaqvr1dsbGz4QfSEL6+vvr6+3fWf2Pd1x4RCIX322WedsZxTWrlypXbs2KEFCxactM+N6927d6+eeOIJDRkyRK+//rpuvfVW3Xnnnfrv//7viJm/7nu4vr5e/fv3j9gfExOjPn36nNG/S7T867/+q3784x8rJydH3bt31+jRozVr1iwVFRVFzOOmNZ8QzbWd6hinH/uOHj2quXPnasqUKfL5fJLcueaHHnpIMTExuvPOO9vd76Y1Hzp0SEeOHNHChQt12WWX6X//93/1wx/+UNdee602bdoUntNtj9/RFOP0AHBOcXGxysvL9fbbbzs9Sqepq6vTzJkztXbtWvXo0cPpcaKira1N48aN04MPPihJGj16tMrLy7V48WJNnTrV4ek6x3PPPafly5drxYoVGj58uHbu3KlZs2YpIyPDtWvGF44fP67rr79exhg98cQTTo/TacrKyvTb3/5WO3bskMfjcXqcTtfW1iZJuvrqqzV79mxJ0nnnnad3331Xixcv1ve+9z0nx3MFngE8Q3379pXX6z3pVUYNDQ1KS0tzaKozd/vtt+ull17Sxo0bddZZZ4W3p6Wl6dixY2psbIw4/svrS0tLa3f9J/Z93TE+n0/x8fEdvZxTKisr06FDhzRmzBjFxMQoJiZGmzZt0mOPPaaYmBilpqa6ar2SlJ6ernPOOSdi27Bhw8KvnDsx89d9D6elpenQoUMR+z///HN99NFHZ/TvEi1z5swJPws4cuRI3XjjjZo9e3b4WV83rvmEaK7tVMc4tfYT8VdTU6O1a9eGn/2T3Lfmt956S4cOHVJWVlb4saympkY/+9nPNHDgwPCsbllz3759FRMT83cfy9z2+B1NBOAZio2N1dixY7V+/frwtra2Nq1fv155eXkOTnZ6jDG6/fbb9fzzz2vDhg0KBAIR+8eOHavu3btHrK+iokK1tbXh9eXl5Wn37t0RDzQnHnxP/LDm5eVF3MeJY6L9bzRp0iTt3r1bO3fuDN/GjRunoqKi8H+7ab2SNGHChJPe2ufDDz+U3++XJAUCAaWlpUXMGwqFtGXLlog1NzY2qqysLHzMhg0b1NbWptzc3PAxb775po4fPx4+Zu3atTr77LPVu3fvTltfez799FN16xb5cOb1esPPIrhxzSdEc23fpe/zE/FXWVmpdevWKSUlJWK/29Z84403ateuXRGPZRkZGZozZ45ef/318KxuWXNsbKzGjx//tY9lbvt9FXVOvwqlK1q5cqWJi4szy5YtM3v27DE//elPTXJycsSrjL6rbr31VpOUlGTeeOMNc/DgwfDt008/DR8zY8YMk5WVZTZs2GC2b99u8vLyTF5eXnj/iZfV/+M//qPZuXOnee2110y/fv3afVn9nDlzzAcffGB+//vff2deVv/lVwEb4771bt261cTExJjf/OY3prKy0ixfvtwkJCSYZ555JnzMwoULTXJysvnjH/9odu3aZa6++up23zZk9OjRZsuWLebtt982Q4YMiXg7icbGRpOammpuvPFGU15eblauXGkSEhIceRuYqVOnmgEDBoTfBmb16tWmb9++5q677gof05XX3NzcbN577z3z3nvvGUnmkUceMe+99174Fa/RWts777xjYmJizL//+7+bDz74wNx7772d9pYoX7fmY8eOmauuusqcddZZZufOnRGPZV9+daub1tyer74KuKut+e+td/Xq1aZ79+5myZIlprKyMvz2LG+99Vb4Ptz2+B1NBOA39Lvf/c5kZWWZ2NhYc/7555vNmzc7PdJpkdTubenSpeFjPvvsM3PbbbeZ3r17m4SEBPPDH/7QHDx4MOJ+/vKXv5jLL7/cxMfHm759+5qf/exn5vjx4xHHbNy40Zx33nkmNjbWDBo0KOL/4aSvBqAb1/viiy+aESNGmLi4OJOTk2OWLFkSsb+trc3cc889JjU11cTFxZlJkyaZioqKiGMOHz5spkyZYnr16mV8Pp+5+eabTXNzc8Qx77//vpk4caKJi4szAwYMMAsXLuz0tbUnFAqZmTNnmqysLNOjRw8zaNAg88tf/jIiBrrymjdu3Njuz+3UqVOjvrbnnnvODB061MTGxprhw4ebl19+OeprDgaDp3ws27hxoyvX3J72ArArrfl01vv000+b7Oxs06NHD3PuueeaNWvWRNyHGx+/o8VjzJfeKh8AAACuxzmAAAAAliEAAQAALEMAAgAAWIYABAAAsAwBCAAAYBkCEAAAwDIEIAAAgGUIQAAAAMsQgAAAAJYhAAEAACxDAAIAAFiGAAQAALAMAQgAAGAZAhAAAMAyBCAAAIBlCEAAAADLEIAAAACWIQABAAAsQwACAABYhgAEAACwDAEIAABgGQIQAADAMgQgAACAZQhAAAAAyxCAAAAAliEAAQAALEMAAgAAWIYABAAAsAwBCAAAYBkCEAAAwDIEIAAAgGX+H8OAHApXnKH+AAAAAElFTkSuQmCC",
      "text/html": [
       "\n",
       "            <div style=\"display: inline-block;\">\n",
       "                <div class=\"jupyter-widgets widget-label\" style=\"text-align: center;\">\n",
       "                    Figure\n",
       "                </div>\n",
       "                <img src='data:image/png;base64,iVBORw0KGgoAAAANSUhEUgAAAoAAAAHgCAYAAAA10dzkAAAAOXRFWHRTb2Z0d2FyZQBNYXRwbG90bGliIHZlcnNpb24zLjUuMSwgaHR0cHM6Ly9tYXRwbG90bGliLm9yZy/YYfK9AAAACXBIWXMAAA9hAAAPYQGoP6dpAAArlUlEQVR4nO3de3TU9Z3/8dcwISGBTAIBcsFkGAgY5KLcjBG0rqQblXqpWW1pdFE5dNGoQFpkabWKtYLurlK7VcTjwu4RpHIOUu8uN/EWbkGEFBuTME3CJaFFkwkqAZPP7w+X+TkSLGgyX/P9PB/nzDnm+/1mfH9IMnmeyXfm6zHGGAEAAMAa3ZweAAAAANFFAAIAAFiGAAQAALAMAQgAAGAZAhAAAMAyBCAAAIBlCEAAAADLEIAAAACWIQABAAAsQwACAABYhgAEAACwDAEIAABgGQIQAADAMgQgAACAZQhAAAAAyxCAAAAAliEAAQAALEMAAgAAWIYABAAAsAwBCAAAYBkCEAAAwDIEIAAAgGUIQAAAAMsQgAAAAJYhAAEAACxDAAIAAFiGAAQAALAMAQgAAGAZAhAAAMAyBCAAAIBlCEAAAADLEIAAAACWIQABAAAsQwACAABYhgAEAACwDAEIAABgGQIQAADAMgQgAACAZQhAAAAAyxCAAAAAliEAAQAALEMAAgAAWIYABAAAsAwBCAAAYBkCEAAAwDIEIAAAgGUIQAAAAMsQgAAAAJYhAAEAACxDAAIAAFiGAAQAALAMAQgAAGAZ1wbgwIED5fF4TroVFxdLko4ePari4mKlpKSoV69eKiwsVENDg8NTAwAAdD6PMcY4PURn+Otf/6rW1tbwx+Xl5fr+97+vjRs36pJLLtGtt96ql19+WcuWLVNSUpJuv/12devWTe+8846DUwMAAHQ+1wbgV82aNUsvvfSSKisrFQqF1K9fP61YsUL/9E//JEn685//rGHDhqm0tFQXXHCBw9MCAAB0Htf+CfjLjh07pmeeeUa33HKLPB6PysrKdPz4ceXn54ePycnJUVZWlkpLSx2cFAAAoPPFOD1ANKxZs0aNjY266aabJEn19fWKjY1VcnJyxHGpqamqr68/5f20tLSopaUl/HFbW5s++ugjpaSkyOPxdMboAACggxlj1NzcrIyMDHXrZsVzYSexIgCffvppXX755crIyPhW97NgwQLNnz+/g6YCAABOqqur01lnneX0GI5wfQDW1NRo3bp1Wr16dXhbWlqajh07psbGxohnARsaGpSWlnbK+5o3b55KSkrCHzc1NSkrK0t1dXXy+XydMj8AAOhYoVBImZmZSkxMdHoUx7g+AJcuXar+/ftr8uTJ4W1jx45V9+7dtX79ehUWFkqSKioqVFtbq7y8vFPeV1xcnOLi4k7a7vP5CEAAALoYm0/fcnUAtrW1aenSpZo6dapiYv7/UpOSkjRt2jSVlJSoT58+8vl8uuOOO5SXl8crgAEAgOu5OgDXrVun2tpa3XLLLSfte/TRR9WtWzcVFhaqpaVFBQUFevzxxx2YEgAAILqseR/AzhAKhZSUlKSmpib+BAwAQBfB729L3gcQAAAA/x8BCAAAYBkCEAAAwDIEIAAAgGUIQAAAAMsQgAAAAJYhAAEAACxDAAIAAFiGAAQAALAMAQgAAGAZAhAAAMAyBCAAAIBlCEAAAADLEIAAAACWIQABAAAsQwACAABYJsbpAYCuorW1VcFg0OkxEEWBQEBer9fpMQCgwxGAwGkKBoNaUzNEqX6nJ0E0NNRI16hS2dnZTo8CAB2OAATOQKpfGkAPAAC6OM4BBAAAsAwBCAAAYBkCEAAAwDIEIAAAgGUIQAAAAMsQgAAAAJYhAAEAACxDAAIAAFiGN4IGzkBDjdMTIFoaaiRx1RcALkUAAqcpEAjoGlU6PQaixf/F1xwA3IgABE6T1+vlurAAAFfgHEAAAADLEIAAAACWIQABAAAsQwACAABYhgAEAACwDAEIAABgGQIQAADAMgQgAACAZQhAAAAAy3AlEACA9VpbWxUMBp0eA1HS3Nzs9AiOIwABANYLBoN6rWaI0vxOT4JoCNY5PYHzCEAAACSl+aVMLvdthU95ApBzAAEAAGxDAAIAAFiGAAQAALAMAQgAAGAZAhAAAMAyrg7A/fv364YbblBKSori4+M1cuRIbd++Pbz/pptuksfjibhddtllDk4MAADQ+Vz7NjAff/yxJkyYoH/4h3/Qq6++qn79+qmyslK9e/eOOO6yyy7T0qVLwx/HxcVFe1QAAICocm0APvTQQ8rMzIyIu0AgcNJxcXFxSktLi+ZoAAAAjnJtAL7wwgsqKCjQddddp02bNmnAgAG67bbbNH369Ijj3njjDfXv31+9e/fWpZdeqgceeEApKSnt3mdLS4taWlrCH4dCIUlSdXW1EhMTO28x+M4IBALyer1Oj4Eo4NJgdqmpqVG900Mgahq4Eog8xhjj9BCdoUePHpKkkpISXXfdddq2bZtmzpypxYsXa+rUqZKklStXKiEhQYFAQNXV1frFL36hXr16qbS0tN1f8vfdd5/mz59/0vYVO6QE+s/1DtZI+f5KZWdzqQAbVFVVaV3NEKVzaTAr7N8rne1dJ7+fL7gNmpubNWbMGDU1Ncnn8zk9jiNcG4CxsbEaN26c3n333fC2O++8U9u2bVNpaWm7n7N3714NHjxY69at06RJk07a394zgJmZmdrUJPWy8/vHKnVV0nARgLaoqqrSnzSES4NZgp9vu4RCISUlJVkdgK59FXB6errOOeeciG3Dhg1TbW3tKT9n0KBB6tu3r6qqqtrdHxcXJ5/PF3EDAADoalwbgBMmTFBFRUXEtg8//PBrn97ft2+fDh8+rPT09M4eDwAAwDGuDcDZs2dr8+bNevDBB1VVVaUVK1ZoyZIlKi4uliQdOXJEc+bM0ebNm/WXv/xF69ev19VXX63s7GwVFBQ4PD0AAEDncW0Ajh8/Xs8//7yeffZZjRgxQr/+9a+1aNEiFRUVSZK8Xq927dqlq666SkOHDtW0adM0duxYvfXWW7wXIAAAcDXXvg2MJP3gBz/QD37wg3b3xcfH6/XXX4/yRAAAAM5z7TOAAAAAaB8BCAAAYBkCEAAAwDIEIAAAgGVc/SKQaNlfzaXgbHCwRhrOVaKscrDG6QkQLfx8wzYEYAfI0Q4ligJ0u+F+KRAIOD0GoiQQCChflU6PgSjh5xu2IQA7wODBg7ksHOAyXq+X68ICcC3OAQQAALAMAQgAAGAZAhAAAMAyBCAAAIBlCEAAAADLEIAAAACWIQABAAAsQwACAABYhgAEAACwDAEIAABgGQIQAADAMgQgAACAZQhAAAAAyxCAAAAAliEAAQAALEMAAgAAWIYABAAAsAwBCAAAYBkCEAAAwDIEIAAAgGUIQAAAAMsQgAAAAJYhAAEAACxDAAIAAFiGAAQAALAMAQgAAGAZAhAAAMAyBCAAAIBlCEAAAADLEIAAAACWIQABAAAsQwACAABYJsbpAdygurpaiYmJTo+BKAgEAvJ6vU6PgShobW1VMBh0egxESWtrqyTx822J5uZmp0dwHAHYARo0RkecHgKdbn+NJFUqOzvb6VEQBcFgUNtrhmiA3+lJEA1lW6S0AeLrbYnKOqcncB4B2AH8g6VEn9NTAOhoA/xSgN63wr4avt42+YQnADkHEAAAwDYEIAAAgGUIQAAAAMsQgAAAAJYhAAEAACzj6gDcv3+/brjhBqWkpCg+Pl4jR47U9u3bw/uNMfrVr36l9PR0xcfHKz8/X5WVlQ5ODAAA0PlcG4Aff/yxJkyYoO7du+vVV1/Vnj179B//8R/q3bt3+JiHH35Yjz32mBYvXqwtW7aoZ8+eKigo0NGjRx2cHAAAoHO59n0AH3roIWVmZmrp0qXhbYFAIPzfxhgtWrRId999t66++mpJ0v/8z/8oNTVVa9as0Y9//OOozwwAABANrg3AF154QQUFBbruuuu0adMmDRgwQLfddpumT58u6Yt3+a+vr1d+fn74c5KSkpSbm6vS0tJ2A7ClpUUtLS3hj0OhkCSpplrqyZXgXK9ur3TMW+P0GIiSmpoa/dXpIRA1Dfslj9NDIGoOcCUQ9wbg3r179cQTT6ikpES/+MUvtG3bNt15552KjY3V1KlTVV9fL0lKTU2N+LzU1NTwvq9asGCB5s+ff9L2VO1QoihAtzvmrdHHyldPpwdBVPytVernXad0cW0wG1ye+3/XAhbXArZBr8xmSWOcHsNRrg3AtrY2jRs3Tg8++KAkafTo0SovL9fixYs1derUb3Sf8+bNU0lJSfjjUCikzMxMDR48WD4f14KzQU9xqSib9JWfaz8DLnTiL3g2c+2LQNLT03XOOedEbBs2bJhqa2slSWlpaZKkhoaGiGMaGhrC+74qLi5OPp8v4gYAANDVuDYAJ0yYoIqKiohtH374ofz+L/6cEwgElJaWpvXr14f3h0IhbdmyRXl5eVGdFQAAIJpc+yfg2bNn68ILL9SDDz6o66+/Xlu3btWSJUu0ZMkSSZLH49GsWbP0wAMPaMiQIQoEArrnnnuUkZGha665xtnhAQAAOpFrA3D8+PF6/vnnNW/ePN1///0KBAJatGiRioqKwsfcdddd+uSTT/TTn/5UjY2Nmjhxol577TX16NHDwckBAAA6l8cYY5weoqsKhUJKSkpSU1MT5wNaoKqqSn/TEF4EYolgldRXlbwIBHAhfn+7+BxAAAAAtI8ABAAAsAwBCAAAYBkCEAAAwDKufRUw0Bn2cSlga+yrkfpyFTgALkUAAqcpEAhIqnR6DERJX/+JrzkAuA8BCJwmr9fLW4IAAFyBcwABAAAsQwACAABYhgAEAACwDAEIAABgGQIQAADAMgQgAACAZQhAAAAAyxCAAAAAluGNoAEA1mttbVUwGHR6DERJc3Oz0yM4jgAEAFgvGAzqzzVDlMn1n61QWef0BM4jAAEAkJTplwZztUcrHOEJQM4BBAAAsA0BCAAAYBkCEAAAwDIEIAAAgGUIQAAAAMsQgAAAAJYhAAEAACxDAAIAAFiGAAQAALAMVwIBAEBSXY3TEyBa9nMpOAIQAIBAICCp0ukxECVDMpsljXF6DEcRgAAA63m9XmVncyFgW4RCIadHcBznAAIAAFiGAAQAALAMAQgAAGAZAhAAAMAyBCAAAIBlCEAAAADLEIAAAACWIQABAAAswxtBd4Dq6molJiY6PQaiIBAIyOv1Oj0GAADfCgHYIcbIOD0COl1NjSRVcrUAAECXRwB2gEGDJZ/P6SkAAABOD+cAAgAAWIYABAAAsAwBCAAAYBkCEAAAwDIEIAAAgGVcG4D33XefPB5PxC0nJye8/5JLLjlp/4wZMxycGAAAIDpc/TYww4cP17p168Ifx8RELnf69Om6//77wx8nJCREbTYAAACnuDoAY2JilJaWdsr9CQkJX7sfAADAjVz7J2BJqqysVEZGhgYNGqSioiLV1tZG7F++fLn69u2rESNGaN68efr0008dmhQAACB6XPsMYG5urpYtW6azzz5bBw8e1Pz583XRRRepvLxciYmJ+slPfiK/36+MjAzt2rVLc+fOVUVFhVavXn3K+2xpaVFLS0v441AoJEnaWy314lLArldTIw30Oz0FAADfnscYY8VlbBsbG+X3+/XII49o2rRpJ+3fsGGDJk2apKqqKg0ePLjd+7jvvvs0f/78k7bv2LFDiYkUoA0CgYC8Xq/TYwAAvoVQKKSkpCQ1NTXJZ+m1XF37DOBXJScna+jQoaqqqmp3f25uriR9bQDOmzdPJSUl4Y9DoZAyMzM1ePBga7+BAABA1+PqcwC/7MiRI6qurlZ6enq7+3fu3ClJp9wvSXFxcfL5fBE3AACArsa1zwD+/Oc/15VXXim/368DBw7o3nvvldfr1ZQpU1RdXa0VK1boiiuuUEpKinbt2qXZs2fr4osv1qhRo5weHQAAoFO5NgD37dunKVOm6PDhw+rXr58mTpyozZs3q1+/fjp69KjWrVunRYsW6ZNPPlFmZqYKCwt19913Oz02AABAp7PmRSCdgZNIAQDoevj9bdE5gAAAAPgCAQgAAGAZAhAAAMAyBCAAAIBlCEAAAADLEIAAAACWIQABAAAsQwACAABYhgAEAACwDAEIAABgGQIQAADAMgQgAACAZQhAAAAAyxCAAAAAliEAAQAALEMAAgAAWCbG6QEA4LuotbVVwWDQ6TEQRYFAQF6v1+kxgKggAAGgHcFgUDV7hsif6fQkiIaaOkmqVHZ2ttOjAFFBAALAKfgzpexBTk8BAB2PcwABAAAsQwACAABYhgAEAACwDAEIAABgGQIQAADAMgQgAACAZQhAAAAAyxCAAAAAliEAAQAALMOVQADgFL64PBhsUFMn+c9xegogeghAAGhHIBCQVOn0GIgS/zknvuaAHQhAAGiH1+tVdna202MAQKfgHEAAAADLEIAAAACWIQABAAAsQwACAABYhgAEAACwDAEIAABgGQIQAADAMgQgAACAZXgjaOA0tba2KhgMOj0GoigQCMjr9To9BgB0OAIQOE3BYFA1ZUPkP8vpSRANNfskqZKrgQBwJQIQOAP+s6RsLhcKAOjiOAcQAADAMgQgAACAZQhAAAAAyxCAAAAAliEAAQAALOPaALzvvvvk8Xgibjk5OeH9R48eVXFxsVJSUtSrVy8VFhaqoaHBwYkBAACiw7UBKEnDhw/XwYMHw7e33347vG/27Nl68cUXtWrVKm3atEkHDhzQtdde6+C0AAAA0eHq9wGMiYlRWlraSdubmpr09NNPa8WKFbr00kslSUuXLtWwYcO0efNmXXDBBdEeFQAAIGpc/QxgZWWlMjIyNGjQIBUVFam2tlaSVFZWpuPHjys/Pz98bE5OjrKyslRaWurUuAAAAFHh2mcAc3NztWzZMp199tk6ePCg5s+fr4suukjl5eWqr69XbGyskpOTIz4nNTVV9fX1p7zPlpYWtbS0hD8OhUKdNT6+o764PBhsULNP8qc6PQUAdA7XBuDll18e/u9Ro0YpNzdXfr9fzz33nOLj47/RfS5YsEDz58/vqBHRxQQCAUmVTo+BKPGnnviaA4D7uDYAvyo5OVlDhw5VVVWVvv/97+vYsWNqbGyMeBawoaGh3XMGT5g3b55KSkrCH4dCIWVmZnbm2PgO8Xq9ys7OdnoMAAC+NVefA/hlR44cUXV1tdLT0zV27Fh1795d69evD++vqKhQbW2t8vLyTnkfcXFx8vl8ETcAAICuxrXPAP785z/XlVdeKb/frwMHDujee++V1+vVlClTlJSUpGnTpqmkpER9+vSRz+fTHXfcoby8PF4BDAAAXM+1Abhv3z5NmTJFhw8fVr9+/TRx4kRt3rxZ/fr1kyQ9+uij6tatmwoLC9XS0qKCggI9/vjjDk8NAADQ+TzGGOP0EF1VKBRSUlKSmpqa+HMwAABdBL+/LToHEAAAAF8gAAEAACxDAAIAAFiGAAQAALCMa18FHE3V1dVKTEx0egxEQSAQkNfrdXoMAAC+FQKwI9SOkXo6PQQ6W81+SarkaiAAgC6PAOwAg7MkXy+npwAAADg9nAMIAABgGQIQAADAMgQgAACAZQhAAAAAyxCAAAAAliEAAQAALEMAAgAAWIYABAAAsAwBCAAAYBmuBNIBqmulRC4F53o1+yX/QKenAADg2yMAO0LWDikx0ekp0Mn8A6VAIOD0GAAAfGsEYAcYPHiwfD6f02MAAACcFs4BBAAAsAwBCAAAYBkCEAAAwDIEIAAAgGUIQAAAAMsQgAAAAJYhAAEAACxDAAIAAFiGAAQAALAMAQgAAGAZAhAAAMAyBCAAAIBlCEAAAADLEIAAAACWIQABAAAsQwACAABYhgAEAACwDAEIAABgGQIQAADAMgQgAACAZWKcHgAAvotaW1sVDAadHgNRFAgE5PV6nR4DiAoCEADaEQwGVfP6EPnTnZ4E0VBzUFJBpbKzs50eBYgKAhAATsGfLmVnOj0FAHQ8zgEEAACwDAEIAABgGQIQAADAMgQgAACAZQhAAAAAy1gRgAsXLpTH49GsWbPC2y655BJ5PJ6I24wZM5wbEgAAIEpc/zYw27Zt05NPPqlRo0adtG/69Om6//77wx8nJCREczQAAABHuPoZwCNHjqioqEhPPfWUevfufdL+hIQEpaWlhW8+n8+BKQEAAKLL1c8AFhcXa/LkycrPz9cDDzxw0v7ly5frmWeeUVpamq688krdc889X/ssYEtLi1paWsIfh0KhTpkbwHdDzUGnJ0C01ByU/Cf/oQhwLdcG4MqVK7Vjxw5t27at3f0/+clP5Pf7lZGRoV27dmnu3LmqqKjQ6tWrT3mfCxYs0Pz58ztrZADfIYFAQCqodHoMRIl/1P99zQFLeIwxxukhOlpdXZ3GjRuntWvXhs/9u+SSS3Teeedp0aJF7X7Ohg0bNGnSJFVVVWnw4MHtHtPeM4CZmZlqamriz8cAAHQRoVBISUlJVv/+duUzgGVlZTp06JDGjBkT3tba2qo333xT//mf/6mWlhZ5vd6Iz8nNzZWkrw3AuLg4xcXFdd7gAAAAUeDKAJw0aZJ2794dse3mm29WTk6O5s6de1L8SdLOnTslSenp6dEYEQAAwDGuDMDExESNGDEiYlvPnj2VkpKiESNGqLq6WitWrNAVV1yhlJQU7dq1S7Nnz9bFF1/c7tvFAAAAuIkrA/DviY2N1bp167Ro0SJ98sknyszMVGFhoe6++26nRwMAAOh0rnwRSLRwEikAAF0Pv79d/kbQAAAAOBkBCAAAYBkCEAAAwDIEIAAAgGWsfBUw8E20trYqGAw6PQaiKBAItPu+oQDQ1RGAwGkKBoOq+eMQ+dOcngTRUFMv6epKZWdnOz0KAHQ4AhA4A/40KXuA01MAAPDtcA4gAACAZQhAAAAAyxCAAAAAliEAAQAALEMAAgAAWIYABAAAsAwBCAAAYBkCEAAAwDK8ETRwBmrqnZ4A0VJTL/mdHgIAOgkBCJymQCAgXV3p9BiIEr/+72sOAC5EAAKnyev1cl1YAIArcA4gAACAZQhAAAAAyxCAAAAAliEAAQAALEMAAgAAWIYABAAAsAwBCAAAYBkCEAAAwDIEIAAAgGW4EggAwHqtra0KBoNOj4EoaW5udnoExxGAAADrBYNB1fxhiPz9nZ4E0VBX6/QEziMAAQCQ5O8vZWc4PQWiofkzpydwHucAAgAAWIYABAAAsAwBCAAAYBkCEAAAwDIEIAAAgGUIQAAAAMsQgAAAAJYhAAEAACxDAAIAAFiGK4EAACCp5pDTEyBa6v7q9ATOIwABANYLBALSjyqdHgNRktncLD0wxukxHEUAAgCs5/V6lZ2d7fQYiJJQKOT0CI7jHEAAAADLEIAAAACWIQABAAAsQwACAABYhgAEAACwjBUBuHDhQnk8Hs2aNSu87ejRoyouLlZKSop69eqlwsJCNTQ0ODckAABAlLg+ALdt26Ynn3xSo0aNitg+e/Zsvfjii1q1apU2bdqkAwcO6Nprr3VoSgAAgOhxdQAeOXJERUVFeuqpp9S7d+/w9qamJj399NN65JFHdOmll2rs2LFaunSp3n33XW3evNnBiQEAADqfqwOwuLhYkydPVn5+fsT2srIyHT9+PGJ7Tk6OsrKyVFpaesr7a2lpUSgUirgBAAB0Na69EsjKlSu1Y8cObdu27aR99fX1io2NVXJycsT21NRU1dfXn/I+FyxYoPnz53f0qAAAAFHlymcA6+rqNHPmTC1fvlw9evTosPudN2+empqawre6uroOu28AAIBocWUAlpWV6dChQxozZoxiYmIUExOjTZs26bHHHlNMTIxSU1N17NgxNTY2RnxeQ0OD0tLSTnm/cXFx8vl8ETcAAICuxpV/Ap40aZJ2794dse3mm29WTk6O5s6dq8zMTHXv3l3r169XYWGhJKmiokK1tbXKy8tzYmQAAICocWUAJiYmasSIERHbevbsqZSUlPD2adOmqaSkRH369JHP59Mdd9yhvLw8XXDBBU6MDAAAEDWuDMDT8eijj6pbt24qLCxUS0uLCgoK9Pjjjzs9FgAAQKfzGGOM00N0VaFQSElJSWpqauJ8QAAAugh+f7v0RSAAAAA4NQIQAADAMgQgAACAZQhAAAAAyxCAAAAAliEAAQAALEMAAgAAWIYABAAAsAwBCAAAYBkCEAAAwDIEIAAAgGUIQAAAAMsQgAAAAJYhAAEAACxDAAIAAFgmxukBujJjjCQpFAo5PAkAADhdJ35vn/g9biMC8Fs4fPiwJCkzM9PhSQAAwJlqbm5WUlKS02M4ggD8Fvr06SNJqq2tteYbKBQKKTMzU3V1dfL5fE6P0+lsW69k35ptW69k35ptW69k35rPdL3GGDU3NysjIyMK0303EYDfQrduX5xCmZSUZMUP2Jf5fD6r1mzbeiX71mzbeiX71mzbeiX71nwm67XliZtT4UUgAAAAliEAAQAALEMAfgtxcXG69957FRcX5/QoUWPbmm1br2Tfmm1br2Tfmm1br2Tfmm1bb0fwGJtfAw0AAGAhngEEAACwDAEIAABgGQIQAADAMgQgAACAZQjAb+j3v/+9Bg4cqB49eig3N1dbt251eqTTsmDBAo0fP16JiYnq37+/rrnmGlVUVEQcc/ToURUXFyslJUW9evVSYWGhGhoaIo6pra3V5MmTlZCQoP79+2vOnDn6/PPPI4554403NGbMGMXFxSk7O1vLli3r7OX9XQsXLpTH49GsWbPC29y43v379+uGG25QSkqK4uPjNXLkSG3fvj283xijX/3qV0pPT1d8fLzy8/NVWVkZcR8fffSRioqK5PP5lJycrGnTpunIkSMRx+zatUsXXXSRevTooczMTD388MNRWd9Xtba26p577lEgEFB8fLwGDx6sX//61xHX+ezKa37zzTd15ZVXKiMjQx6PR2vWrInYH821rVq1Sjk5OerRo4dGjhypV155pcPXK339mo8fP665c+dq5MiR6tmzpzIyMvTP//zPOnDggGvX/FUzZsyQx+PRokWLIrZ3pTWfzno/+OADXXXVVUpKSlLPnj01fvx41dbWhve78fE7agzO2MqVK01sbKz5r//6L/OnP/3JTJ8+3SQnJ5uGhganR/u7CgoKzNKlS015ebnZuXOnueKKK0xWVpY5cuRI+JgZM2aYzMxMs379erN9+3ZzwQUXmAsvvDC8//PPPzcjRoww+fn55r333jOvvPKK6du3r5k3b174mL1795qEhARTUlJi9uzZY373u98Zr9drXnvttaiu98u2bt1qBg4caEaNGmVmzpwZ3u629X700UfG7/ebm266yWzZssXs3bvXvP7666aqqip8zMKFC01SUpJZs2aNef/9981VV11lAoGA+eyzz8LHXHbZZebcc881mzdvNm+99ZbJzs42U6ZMCe9vamoyqamppqioyJSXl5tnn33WxMfHmyeffDKq6zXGmN/85jcmJSXFvPTSSyYYDJpVq1aZXr16md/+9rfhY7ryml955RXzy1/+0qxevdpIMs8//3zE/mit7Z133jFer9c8/PDDZs+ePebuu+823bt3N7t3747qmhsbG01+fr75wx/+YP785z+b0tJSc/7555uxY8dG3Ieb1vxlq1evNueee67JyMgwjz76aJdd899bb1VVlenTp4+ZM2eO2bFjh6mqqjJ//OMfI37Xuu3xO5oIwG/g/PPPN8XFxeGPW1tbTUZGhlmwYIGDU30zhw4dMpLMpk2bjDFfPLB2797drFq1KnzMBx98YCSZ0tJSY8wXP7TdunUz9fX14WOeeOIJ4/P5TEtLizHGmLvuussMHz484v/1ox/9yBQUFHT2ktrV3NxshgwZYtauXWu+973vhQPQjeudO3eumThx4in3t7W1mbS0NPNv//Zv4W2NjY0mLi7OPPvss8YYY/bs2WMkmW3btoWPefXVV43H4zH79+83xhjz+OOPm969e4f/DU78v88+++yOXtLfNXnyZHPLLbdEbLv22mtNUVGRMcZda/7qL8poru366683kydPjpgnNzfX/Mu//EuHrvGrvi6GTti6dauRZGpqaowx7l3zvn37zIABA0x5ebnx+/0RAdiV19zeen/0ox+ZG2644ZSf48bH72jiT8Bn6NixYyorK1N+fn54W7du3ZSfn6/S0lIHJ/tmmpqaJEl9+vSRJJWVlen48eMR68vJyVFWVlZ4faWlpRo5cqRSU1PDxxQUFCgUCulPf/pT+Jgv38eJY5z6NyouLtbkyZNPmsmN633hhRc0btw4XXfdderfv79Gjx6tp556Krw/GAyqvr4+Yt6kpCTl5uZGrDk5OVnjxo0LH5Ofn69u3bppy5Yt4WMuvvhixcbGho8pKChQRUWFPv74485eZoQLL7xQ69ev14cffihJev/99/X222/r8ssvl+TONZ8QzbV9l77Pv6qpqUkej0fJycmS3LnmtrY23XjjjZozZ46GDx9+0n43rbmtrU0vv/yyhg4dqoKCAvXv31+5ubkRfyZ24+N3NBGAZ+hvf/ubWltbI76ZJCk1NVX19fUOTfXNtLW1adasWZowYYJGjBghSaqvr1dsbGz4QfSEL6+vvr6+3fWf2Pd1x4RCIX322WedsZxTWrlypXbs2KEFCxactM+N6927d6+eeOIJDRkyRK+//rpuvfVW3Xnnnfrv//7viJm/7nu4vr5e/fv3j9gfExOjPn36nNG/S7T867/+q3784x8rJydH3bt31+jRozVr1iwVFRVFzOOmNZ8QzbWd6hinH/uOHj2quXPnasqUKfL5fJLcueaHHnpIMTExuvPOO9vd76Y1Hzp0SEeOHNHChQt12WWX6X//93/1wx/+UNdee602bdoUntNtj9/RFOP0AHBOcXGxysvL9fbbbzs9Sqepq6vTzJkztXbtWvXo0cPpcaKira1N48aN04MPPihJGj16tMrLy7V48WJNnTrV4ek6x3PPPafly5drxYoVGj58uHbu3KlZs2YpIyPDtWvGF44fP67rr79exhg98cQTTo/TacrKyvTb3/5WO3bskMfjcXqcTtfW1iZJuvrqqzV79mxJ0nnnnad3331Xixcv1ve+9z0nx3MFngE8Q3379pXX6z3pVUYNDQ1KS0tzaKozd/vtt+ull17Sxo0bddZZZ4W3p6Wl6dixY2psbIw4/svrS0tLa3f9J/Z93TE+n0/x8fEdvZxTKisr06FDhzRmzBjFxMQoJiZGmzZt0mOPPaaYmBilpqa6ar2SlJ6ernPOOSdi27Bhw8KvnDsx89d9D6elpenQoUMR+z///HN99NFHZ/TvEi1z5swJPws4cuRI3XjjjZo9e3b4WV83rvmEaK7tVMc4tfYT8VdTU6O1a9eGn/2T3Lfmt956S4cOHVJWVlb4saympkY/+9nPNHDgwPCsbllz3759FRMT83cfy9z2+B1NBOAZio2N1dixY7V+/frwtra2Nq1fv155eXkOTnZ6jDG6/fbb9fzzz2vDhg0KBAIR+8eOHavu3btHrK+iokK1tbXh9eXl5Wn37t0RDzQnHnxP/LDm5eVF3MeJY6L9bzRp0iTt3r1bO3fuDN/GjRunoqKi8H+7ab2SNGHChJPe2ufDDz+U3++XJAUCAaWlpUXMGwqFtGXLlog1NzY2qqysLHzMhg0b1NbWptzc3PAxb775po4fPx4+Zu3atTr77LPVu3fvTltfez799FN16xb5cOb1esPPIrhxzSdEc23fpe/zE/FXWVmpdevWKSUlJWK/29Z84403ateuXRGPZRkZGZozZ45ef/318KxuWXNsbKzGjx//tY9lbvt9FXVOvwqlK1q5cqWJi4szy5YtM3v27DE//elPTXJycsSrjL6rbr31VpOUlGTeeOMNc/DgwfDt008/DR8zY8YMk5WVZTZs2GC2b99u8vLyTF5eXnj/iZfV/+M//qPZuXOnee2110y/fv3afVn9nDlzzAcffGB+//vff2deVv/lVwEb4771bt261cTExJjf/OY3prKy0ixfvtwkJCSYZ555JnzMwoULTXJysvnjH/9odu3aZa6++up23zZk9OjRZsuWLebtt982Q4YMiXg7icbGRpOammpuvPFGU15eblauXGkSEhIceRuYqVOnmgEDBoTfBmb16tWmb9++5q677gof05XX3NzcbN577z3z3nvvGUnmkUceMe+99174Fa/RWts777xjYmJizL//+7+bDz74wNx7772d9pYoX7fmY8eOmauuusqcddZZZufOnRGPZV9+daub1tyer74KuKut+e+td/Xq1aZ79+5myZIlprKyMvz2LG+99Vb4Ptz2+B1NBOA39Lvf/c5kZWWZ2NhYc/7555vNmzc7PdJpkdTubenSpeFjPvvsM3PbbbeZ3r17m4SEBPPDH/7QHDx4MOJ+/vKXv5jLL7/cxMfHm759+5qf/exn5vjx4xHHbNy40Zx33nkmNjbWDBo0KOL/4aSvBqAb1/viiy+aESNGmLi4OJOTk2OWLFkSsb+trc3cc889JjU11cTFxZlJkyaZioqKiGMOHz5spkyZYnr16mV8Pp+5+eabTXNzc8Qx77//vpk4caKJi4szAwYMMAsXLuz0tbUnFAqZmTNnmqysLNOjRw8zaNAg88tf/jIiBrrymjdu3Njuz+3UqVOjvrbnnnvODB061MTGxprhw4ebl19+OeprDgaDp3ws27hxoyvX3J72ArArrfl01vv000+b7Oxs06NHD3PuueeaNWvWRNyHGx+/o8VjzJfeKh8AAACuxzmAAAAAliEAAQAALEMAAgAAWIYABAAAsAwBCAAAYBkCEAAAwDIEIAAAgGUIQAAAAMsQgAAAAJYhAAEAACxDAAIAAFiGAAQAALAMAQgAAGAZAhAAAMAyBCAAAIBlCEAAAADLEIAAAACWIQABAAAsQwACAABYhgAEAACwDAEIAABgGQIQAADAMgQgAACAZQhAAAAAyxCAAAAAliEAAQAALEMAAgAAWIYABAAAsAwBCAAAYBkCEAAAwDIEIAAAgGX+H8OAHApXnKH+AAAAAElFTkSuQmCC' width=640.0/>\n",
       "            </div>\n",
       "        "
      ],
      "text/plain": [
       "Canvas(toolbar=Toolbar(toolitems=[('Home', 'Reset original view', 'home', 'home'), ('Back', 'Back to previous "
      ]
     },
     "metadata": {},
     "output_type": "display_data"
    }
   ],
   "source": [
    "def plot_music(scheduled_style_df: pd.DataFrame, ax=None, cmap=plt.get_cmap(\"gist_rainbow\")):\n",
    "    if ax is None:\n",
    "        _, ax = plt.subplots()\n",
    "\n",
    "    for i, x in scheduled_style_df.iterrows():\n",
    "        rect = patches.Rectangle((x.time, x.note), width=x.time_duration, height=1, linewidth=0.2, edgecolor=(0,0,0), facecolor=cmap(x.note))\n",
    "        ax.add_patch(rect)\n",
    "    plt.xlim(0, scheduled_style_df.time_release.max())\n",
    "    plt.ylim(scheduled_style_df.note.min() - 3, scheduled_style_df.note.max() + 3)\n",
    "\n",
    "plot_music(pd_track)\n"
   ]
  }
 ],
 "metadata": {
  "interpreter": {
   "hash": "19c66857149c87409e2281d71ac97d81f5ed895447554e4bbf73d5e29d3cd9b0"
  },
  "kernelspec": {
   "display_name": "Python 3",
   "language": "python",
   "name": "python3"
  },
  "language_info": {
   "codemirror_mode": {
    "name": "ipython",
    "version": 3
   },
   "file_extension": ".py",
   "mimetype": "text/x-python",
   "name": "python",
   "nbconvert_exporter": "python",
   "pygments_lexer": "ipython3",
   "version": "3.7.10"
  },
  "toc": {
   "base_numbering": 1,
   "nav_menu": {},
   "number_sections": true,
   "sideBar": true,
   "skip_h1_title": false,
   "title_cell": "Table of Contents",
   "title_sidebar": "Contents",
   "toc_cell": false,
   "toc_position": {},
   "toc_section_display": true,
   "toc_window_display": false
  }
 },
 "nbformat": 4,
 "nbformat_minor": 2
}
